M48
;DRILL file {KiCad no-vcs-found-36e5906~58~ubuntu16.04.1} date Fri Jun 16 16:05:38 2017
;FORMAT={-:-/ absolute / inch / decimal}
FMAT,2
INCH,TZ
T1C0.025
T2C0.043
T3C0.047
T4C0.055
T5C0.061
T6C0.063
T7C0.079
T8C0.106
T9C0.124
T10C0.130
%
G90
G05
M72
T1
X3.696Y-3.81
X3.7766Y-3.8928
X3.8122Y-3.9544
X3.9064Y-3.5135
X3.972Y-3.6383
X4.0328Y-3.6582
X4.1722Y-3.3876
X4.2685Y-4.101
X4.4067Y-3.157
T2
X3.475Y-2.8
X3.475Y-4.2
X3.575Y-2.8
X3.575Y-4.2
X3.675Y-2.8
X3.675Y-4.2
X3.775Y-2.8
X3.775Y-4.2
X3.875Y-2.8
X3.875Y-4.2
X3.975Y-2.8
X3.975Y-4.2
X4.075Y-2.8
X4.075Y-4.2
X4.175Y-2.8
X4.175Y-4.2
X4.275Y-2.8
X4.275Y-4.2
X4.375Y-2.8
X4.375Y-4.2
X4.475Y-2.8
X4.475Y-4.2
X4.575Y-2.8
X4.575Y-4.2
X4.675Y-2.8
X4.675Y-4.2
X4.775Y-2.8
X4.775Y-4.2
X4.875Y-2.8
X4.875Y-4.2
X4.975Y-2.8
X4.975Y-4.2
T3
X4.025Y-3.175
X4.175Y-3.175
X4.325Y-3.175
X4.475Y-3.175
T4
X4.825Y-3.175
X5.025Y-3.175
X5.225Y-3.175
X5.425Y-3.175
T5
X4.775Y-3.475
X4.775Y-3.975
X4.875Y-3.475
X4.875Y-3.975
X4.975Y-3.475
X4.975Y-3.975
X5.075Y-3.475
X5.075Y-3.975
X5.175Y-3.475
X5.175Y-3.975
X5.275Y-3.475
X5.275Y-3.975
X5.375Y-3.475
X5.375Y-3.975
X5.475Y-3.475
X5.475Y-3.975
T6
X6.032Y-3.5
T7
X3.875Y-3.775
T8
X5.914Y-3.5
X5.953Y-3.323
X5.953Y-3.677
T9
X5.678Y-3.5
T10
X3.525Y-3.
X3.525Y-4.
X5.125Y-2.8
X5.125Y-4.2
T0
M30
