%TF.GenerationSoftware,KiCad,Pcbnew,no-vcs-found-1929727~60~ubuntu16.04.1*%
%TF.CreationDate,2017-10-25T16:01:10-04:00*%
%TF.ProjectId,stepper_controller_3x2,737465707065725F636F6E74726F6C6C,1.1*%
%TF.SameCoordinates,Original*%
%TF.FileFunction,Copper,L1,Top,Signal*%
%TF.FilePolarity,Positive*%
%FSLAX46Y46*%
G04 Gerber Fmt 4.6, Leading zero omitted, Abs format (unit mm)*
G04 Created by KiCad (PCBNEW no-vcs-found-1929727~60~ubuntu16.04.1) date Wed Oct 25 16:01:10 2017*
%MOMM*%
%LPD*%
G01*
G04 APERTURE LIST*
%TA.AperFunction,NonConductor*%
%ADD10C,0.228600*%
%TD*%
%TA.AperFunction,ComponentPad*%
%ADD11O,2.032000X3.048000*%
%TD*%
%TA.AperFunction,ComponentPad*%
%ADD12C,3.556000*%
%TD*%
%TA.AperFunction,ComponentPad*%
%ADD13O,1.854200X2.540000*%
%TD*%
%TA.AperFunction,ComponentPad*%
%ADD14R,1.854200X2.540000*%
%TD*%
%TA.AperFunction,ComponentPad*%
%ADD15R,3.400000X3.400000*%
%TD*%
%TA.AperFunction,ComponentPad*%
%ADD16C,1.930400*%
%TD*%
%TA.AperFunction,ComponentPad*%
%ADD17O,4.572000X3.556000*%
%TD*%
%TA.AperFunction,ComponentPad*%
%ADD18O,4.064000X5.080000*%
%TD*%
%TA.AperFunction,ComponentPad*%
%ADD19O,5.080000X3.556000*%
%TD*%
%TA.AperFunction,ComponentPad*%
%ADD20C,2.540000*%
%TD*%
%TA.AperFunction,ComponentPad*%
%ADD21C,2.340000*%
%TD*%
%TA.AperFunction,ComponentPad*%
%ADD22O,1.524000X2.540000*%
%TD*%
%TA.AperFunction,SMDPad,CuDef*%
%ADD23R,2.000000X4.100000*%
%TD*%
%TA.AperFunction,ViaPad*%
%ADD24C,0.889000*%
%TD*%
%TA.AperFunction,Conductor*%
%ADD25C,0.304800*%
%TD*%
%TA.AperFunction,Conductor*%
%ADD26C,1.066800*%
%TD*%
%TA.AperFunction,Conductor*%
%ADD27C,0.203200*%
%TD*%
G04 APERTURE END LIST*
D10*
X156210000Y-67945000D02*
X85725000Y-67945000D01*
X156210000Y-109855000D02*
X156210000Y-67945000D01*
X85725000Y-109855000D02*
X156210000Y-109855000D01*
X85725000Y-67945000D02*
X85725000Y-109855000D01*
D11*
%TO.P,SS1,1*%
%TO.N,/tmc429_driver_0/DIR_0*%
X139065000Y-101600000D03*
%TO.P,SS1,2*%
%TO.N,/tmc429_driver_0/STEP_0*%
X136525000Y-101600000D03*
%TO.P,SS1,3*%
%TO.N,N/C*%
X133985000Y-101600000D03*
%TO.P,SS1,4*%
%TO.N,/MISO*%
X131445000Y-101600000D03*
%TO.P,SS1,5*%
%TO.N,/tmc429_driver_0/~CS_DRIVER_0_B*%
X128905000Y-101600000D03*
%TO.P,SS1,6*%
%TO.N,/tmc429_driver_0/SCK_B*%
X126365000Y-101600000D03*
%TO.P,SS1,7*%
%TO.N,/tmc429_driver_0/MOSI_B*%
X123825000Y-101600000D03*
%TO.P,SS1,8*%
%TO.N,/tmc429_driver_0/~ENABLE_0_B*%
X121285000Y-101600000D03*
%TO.P,SS1,9*%
%TO.N,VAA*%
X121285000Y-88900000D03*
%TO.P,SS1,10*%
%TO.N,GND*%
X123825000Y-88900000D03*
%TO.P,SS1,11*%
%TO.N,/tmc429_driver_0/stepper_0/B_-*%
X126365000Y-88900000D03*
%TO.P,SS1,12*%
%TO.N,/tmc429_driver_0/stepper_0/B_+*%
X128905000Y-88900000D03*
%TO.P,SS1,13*%
%TO.N,/tmc429_driver_0/stepper_0/A_+*%
X131445000Y-88900000D03*
%TO.P,SS1,14*%
%TO.N,/tmc429_driver_0/stepper_0/A_-*%
X133985000Y-88900000D03*
%TO.P,SS1,15*%
%TO.N,+5V*%
X136525000Y-88900000D03*
%TO.P,SS1,16*%
%TO.N,GND*%
X139065000Y-88900000D03*
%TD*%
D12*
%TO.P,MDB1,*%
%TO.N,*%
X130175000Y-71120000D03*
X130175000Y-106680000D03*
X89535000Y-101600000D03*
X89535000Y-76200000D03*
D13*
%TO.P,MDB1,AREF*%
%TO.N,N/C*%
X88265000Y-106680000D03*
%TO.P,MDB1,VEE*%
X90805000Y-106680000D03*
%TO.P,MDB1,AGND*%
X93345000Y-106680000D03*
%TO.P,MDB1,3V3*%
%TO.N,+3V3*%
X95885000Y-106680000D03*
%TO.P,MDB1,23*%
%TO.N,+5V*%
X98425000Y-106680000D03*
%TO.P,MDB1,22*%
%TO.N,N/C*%
X100965000Y-106680000D03*
%TO.P,MDB1,21*%
X103505000Y-106680000D03*
%TO.P,MDB1,20*%
X106045000Y-106680000D03*
%TO.P,MDB1,19*%
X108585000Y-106680000D03*
%TO.P,MDB1,18*%
X111125000Y-106680000D03*
%TO.P,MDB1,17*%
X113665000Y-106680000D03*
%TO.P,MDB1,16*%
X116205000Y-106680000D03*
%TO.P,MDB1,15*%
X118745000Y-106680000D03*
%TO.P,MDB1,14*%
%TO.N,/CS_DRIVER_0*%
X121285000Y-106680000D03*
%TO.P,MDB1,13*%
%TO.N,/SCK*%
X123825000Y-106680000D03*
%TO.P,MDB1,DAC*%
%TO.N,N/C*%
X126365000Y-106680000D03*
%TO.P,MDB1,28*%
X126365000Y-71120000D03*
%TO.P,MDB1,12*%
%TO.N,/MISO*%
X123825000Y-71120000D03*
%TO.P,MDB1,11*%
%TO.N,/MOSI*%
X121285000Y-71120000D03*
%TO.P,MDB1,10*%
%TO.N,/CS_429*%
X118745000Y-71120000D03*
%TO.P,MDB1,9*%
%TO.N,N/C*%
X116205000Y-71120000D03*
%TO.P,MDB1,29*%
X113665000Y-71120000D03*
%TO.P,MDB1,30*%
X111125000Y-71120000D03*
%TO.P,MDB1,6*%
%TO.N,/POSCOMP*%
X108585000Y-71120000D03*
%TO.P,MDB1,5*%
%TO.N,/INT*%
X106045000Y-71120000D03*
%TO.P,MDB1,4*%
%TO.N,N/C*%
X103505000Y-71120000D03*
%TO.P,MDB1,3*%
X100965000Y-71120000D03*
%TO.P,MDB1,2*%
%TO.N,/ENABLE_0*%
X98425000Y-71120000D03*
%TO.P,MDB1,25*%
%TO.N,N/C*%
X95885000Y-71120000D03*
D14*
%TO.P,MDB1,VDD*%
%TO.N,VDD*%
X88265000Y-71120000D03*
D13*
%TO.P,MDB1,24*%
%TO.N,N/C*%
X93345000Y-71120000D03*
%TO.P,MDB1,GND*%
%TO.N,GND*%
X90805000Y-71120000D03*
%TD*%
D15*
%TO.P,U1,PAD*%
%TO.N,GND*%
X96520000Y-85090000D03*
%TD*%
D16*
%TO.P,P1,*%
%TO.N,*%
X153212800Y-88900000D03*
D17*
%TO.P,P1,2*%
%TO.N,GND*%
X149707600Y-88900000D03*
D18*
%TO.P,P1,1*%
%TO.N,VAA*%
X144221200Y-88900000D03*
D19*
%TO.P,P1,*%
%TO.N,*%
X151206200Y-84404200D03*
X151206200Y-93395800D03*
%TD*%
D20*
%TO.P,T1,3*%
%TO.N,/tmc429_driver_0/stepper_0/A_-F*%
X132715000Y-80010000D03*
%TO.P,T1,2*%
%TO.N,/tmc429_driver_0/stepper_0/B_+F*%
X127635000Y-80010000D03*
%TO.P,T1,1*%
%TO.N,/tmc429_driver_0/stepper_0/B_-F*%
X122555000Y-80010000D03*
%TO.P,T1,4*%
%TO.N,/tmc429_driver_0/stepper_0/A_+F*%
X137795000Y-80010000D03*
%TD*%
D21*
%TO.P,T2,4*%
%TO.N,GND*%
X113665000Y-80010000D03*
%TO.P,T2,1*%
%TO.N,/tmc429_driver_0/stepper_0/REF_B*%
X102235000Y-80010000D03*
%TO.P,T2,2*%
%TO.N,GND*%
X106045000Y-80010000D03*
%TO.P,T2,3*%
%TO.N,/tmc429_driver_0/stepper_0/REFR_B*%
X109855000Y-80010000D03*
%TD*%
D22*
%TO.P,REG1,2*%
%TO.N,GND*%
X99060000Y-99695000D03*
%TO.P,REG1,3*%
%TO.N,+5V*%
X101600000Y-99695000D03*
%TO.P,REG1,1*%
%TO.N,VAA*%
X96520000Y-99695000D03*
%TD*%
D23*
%TO.P,C6,1*%
%TO.N,VAA*%
X113665000Y-90900000D03*
%TO.P,C6,2*%
%TO.N,GND*%
X113665000Y-99600000D03*
%TD*%
D24*
%TO.N,+3V3*%
X105008600Y-85873600D03*
X97251000Y-79932500D03*
X111831000Y-86270500D03*
X95002400Y-97901100D03*
X96426000Y-91352100D03*
%TO.N,/CLK*%
X101077400Y-85059000D03*
X94816400Y-96877400D03*
%TO.N,/INT*%
X94984600Y-90098900D03*
%TO.N,/MISO*%
X104232900Y-90160500D03*
%TO.N,/SCK*%
X99467800Y-88736400D03*
%TO.N,+5V*%
X114915600Y-94258600D03*
%TD*%
D25*
%TO.N,GND*%
X96520000Y-85090000D02*
X96520000Y-83110600D01*
X90805000Y-71120000D02*
X90805000Y-72669400D01*
X97146100Y-79010500D02*
X90805000Y-72669400D01*
X96520000Y-79636600D02*
X96520000Y-83110600D01*
X97146100Y-79010500D02*
X96520000Y-79636600D01*
X97573100Y-78583500D02*
X97146100Y-79010500D01*
X104618500Y-78583500D02*
X97573100Y-78583500D01*
X106045000Y-80010000D02*
X104618500Y-78583500D01*
X114944400Y-99584000D02*
X123825000Y-90703400D01*
X114944400Y-99600000D02*
X114944400Y-99584000D01*
X123825000Y-88900000D02*
X123825000Y-90703400D01*
X114304700Y-99600000D02*
X114944400Y-99600000D01*
X114304700Y-99600000D02*
X113665000Y-99600000D01*
X100101400Y-100164800D02*
X100101400Y-99695000D01*
X101198300Y-101261700D02*
X100101400Y-100164800D01*
X110723900Y-101261700D02*
X101198300Y-101261700D01*
X112385600Y-99600000D02*
X110723900Y-101261700D01*
X113665000Y-99600000D02*
X112385600Y-99600000D01*
X99060000Y-99695000D02*
X100101400Y-99695000D01*
X107477200Y-81442200D02*
X106045000Y-80010000D01*
X112232800Y-81442200D02*
X107477200Y-81442200D01*
X113665000Y-80010000D02*
X112232800Y-81442200D01*
%TO.N,+3V3*%
X95885000Y-106680000D02*
X95885000Y-105130600D01*
X105405500Y-86270500D02*
X105008600Y-85873600D01*
X111831000Y-86270500D02*
X105405500Y-86270500D01*
X104682500Y-85547500D02*
X101842000Y-85547500D01*
X105008600Y-85873600D02*
X104682500Y-85547500D01*
X101842000Y-84523500D02*
X97251000Y-79932500D01*
X101842000Y-85547500D02*
X101842000Y-84523500D01*
X95002400Y-104248000D02*
X95002400Y-97901100D01*
X95885000Y-105130600D02*
X95002400Y-104248000D01*
X101651000Y-85547500D02*
X101842000Y-85547500D01*
X96426000Y-90772500D02*
X101651000Y-85547500D01*
X96426000Y-91352100D02*
X96426000Y-90772500D01*
X96426000Y-96477500D02*
X96426000Y-91352100D01*
X95002400Y-97901100D02*
X96426000Y-96477500D01*
%TO.N,/CLK*%
X94816400Y-91320000D02*
X101077400Y-85059000D01*
X94816400Y-96877400D02*
X94816400Y-91320000D01*
%TO.N,/INT*%
X106045000Y-71120000D02*
X104838500Y-71120000D01*
X92850400Y-87964700D02*
X94984600Y-90098900D01*
X92850400Y-75290100D02*
X92850400Y-87964700D01*
X89605900Y-72045600D02*
X92850400Y-75290100D01*
X89605900Y-70283900D02*
X89605900Y-72045600D01*
X90296900Y-69592900D02*
X89605900Y-70283900D01*
X104065500Y-69592900D02*
X90296900Y-69592900D01*
X104838500Y-70365900D02*
X104065500Y-69592900D01*
X104838500Y-71120000D02*
X104838500Y-70365900D01*
%TO.N,/MISO*%
X131445000Y-101600000D02*
X131445000Y-99796600D01*
X123825000Y-71120000D02*
X122618500Y-71120000D01*
X117286100Y-83731100D02*
X120994800Y-83731100D01*
X110856700Y-90160500D02*
X117286100Y-83731100D01*
X104232900Y-90160500D02*
X110856700Y-90160500D01*
X120994800Y-73950200D02*
X120994800Y-83731100D01*
X122618500Y-72326500D02*
X120994800Y-73950200D01*
X122618500Y-71120000D02*
X122618500Y-72326500D01*
X137090000Y-99796600D02*
X131445000Y-99796600D01*
X146510900Y-90375700D02*
X137090000Y-99796600D01*
X146510900Y-87445300D02*
X146510900Y-90375700D01*
X142796700Y-83731100D02*
X146510900Y-87445300D01*
X120994800Y-83731100D02*
X142796700Y-83731100D01*
%TO.N,/SCK*%
X123825000Y-106680000D02*
X122618500Y-106680000D01*
X99467800Y-94771900D02*
X99467800Y-88736400D01*
X95480900Y-98758800D02*
X99467800Y-94771900D01*
X95480900Y-100634400D02*
X95480900Y-98758800D01*
X96829200Y-101982700D02*
X95480900Y-100634400D01*
X118675300Y-101982700D02*
X96829200Y-101982700D01*
X122618500Y-105925900D02*
X118675300Y-101982700D01*
X122618500Y-106680000D02*
X122618500Y-105925900D01*
D26*
%TO.N,VAA*%
X115509800Y-91084400D02*
X121285000Y-91084400D01*
X115325400Y-90900000D02*
X115509800Y-91084400D01*
X121285000Y-88900000D02*
X121285000Y-91084400D01*
X113665000Y-90900000D02*
X115325400Y-90900000D01*
X139751500Y-86715600D02*
X121285000Y-86715600D01*
X141528800Y-88492900D02*
X139751500Y-86715600D01*
X141528800Y-88900000D02*
X141528800Y-88492900D01*
X144221200Y-88900000D02*
X141528800Y-88900000D01*
X121285000Y-88900000D02*
X121285000Y-86715600D01*
X110344200Y-92560400D02*
X112004600Y-90900000D01*
X103654600Y-92560400D02*
X110344200Y-92560400D01*
X96520000Y-99695000D02*
X103654600Y-92560400D01*
X113665000Y-90900000D02*
X112004600Y-90900000D01*
D25*
%TO.N,+5V*%
X108077800Y-94258600D02*
X102641400Y-99695000D01*
X114915600Y-94258600D02*
X108077800Y-94258600D01*
X101600000Y-99695000D02*
X102641400Y-99695000D01*
%TD*%
D27*
%TO.N,VAA*%
G36*
X155790900Y-109435900D02*
X86144100Y-109435900D01*
X86144100Y-106306248D01*
X87033100Y-106306248D01*
X87033100Y-107053752D01*
X87126873Y-107525180D01*
X87393915Y-107924837D01*
X87793572Y-108191879D01*
X88265000Y-108285652D01*
X88736428Y-108191879D01*
X89136085Y-107924837D01*
X89403127Y-107525180D01*
X89496900Y-107053752D01*
X89496900Y-106306248D01*
X89573100Y-106306248D01*
X89573100Y-107053752D01*
X89666873Y-107525180D01*
X89933915Y-107924837D01*
X90333572Y-108191879D01*
X90805000Y-108285652D01*
X91276428Y-108191879D01*
X91676085Y-107924837D01*
X91943127Y-107525180D01*
X92036900Y-107053752D01*
X92036900Y-106306248D01*
X92113100Y-106306248D01*
X92113100Y-107053752D01*
X92206873Y-107525180D01*
X92473915Y-107924837D01*
X92873572Y-108191879D01*
X93345000Y-108285652D01*
X93816428Y-108191879D01*
X94216085Y-107924837D01*
X94483127Y-107525180D01*
X94576900Y-107053752D01*
X94576900Y-106306248D01*
X94483127Y-105834820D01*
X94216085Y-105435163D01*
X93816428Y-105168121D01*
X93345000Y-105074348D01*
X92873572Y-105168121D01*
X92473915Y-105435163D01*
X92206873Y-105834820D01*
X92113100Y-106306248D01*
X92036900Y-106306248D01*
X91943127Y-105834820D01*
X91676085Y-105435163D01*
X91276428Y-105168121D01*
X90805000Y-105074348D01*
X90333572Y-105168121D01*
X89933915Y-105435163D01*
X89666873Y-105834820D01*
X89573100Y-106306248D01*
X89496900Y-106306248D01*
X89403127Y-105834820D01*
X89136085Y-105435163D01*
X88736428Y-105168121D01*
X88265000Y-105074348D01*
X87793572Y-105168121D01*
X87393915Y-105435163D01*
X87126873Y-105834820D01*
X87033100Y-106306248D01*
X86144100Y-106306248D01*
X86144100Y-102012477D01*
X87451840Y-102012477D01*
X87768259Y-102778270D01*
X88353648Y-103364682D01*
X89118888Y-103682437D01*
X89947477Y-103683160D01*
X90713270Y-103366741D01*
X91299682Y-102781352D01*
X91617437Y-102016112D01*
X91618160Y-101187523D01*
X91301741Y-100421730D01*
X90716352Y-99835318D01*
X89951112Y-99517563D01*
X89122523Y-99516840D01*
X88356730Y-99833259D01*
X87770318Y-100418648D01*
X87452563Y-101183888D01*
X87451840Y-102012477D01*
X86144100Y-102012477D01*
X86144100Y-76612477D01*
X87451840Y-76612477D01*
X87768259Y-77378270D01*
X88353648Y-77964682D01*
X89118888Y-78282437D01*
X89947477Y-78283160D01*
X90713270Y-77966741D01*
X91299682Y-77381352D01*
X91617437Y-76616112D01*
X91618160Y-75787523D01*
X91301741Y-75021730D01*
X90716352Y-74435318D01*
X89951112Y-74117563D01*
X89122523Y-74116840D01*
X88356730Y-74433259D01*
X87770318Y-75018648D01*
X87452563Y-75783888D01*
X87451840Y-76612477D01*
X86144100Y-76612477D01*
X86144100Y-69850000D01*
X87027129Y-69850000D01*
X87027129Y-72390000D01*
X87050785Y-72508927D01*
X87118152Y-72609748D01*
X87218973Y-72677115D01*
X87337900Y-72700771D01*
X89192100Y-72700771D01*
X89311027Y-72677115D01*
X89411848Y-72609748D01*
X89456558Y-72542836D01*
X92393200Y-75479478D01*
X92393200Y-87964700D01*
X92428002Y-88139663D01*
X92527111Y-88287989D01*
X94235389Y-89996268D01*
X94235170Y-90247291D01*
X94349004Y-90522790D01*
X94559601Y-90733756D01*
X94698423Y-90791399D01*
X94493111Y-90996711D01*
X94394002Y-91145037D01*
X94359200Y-91320000D01*
X94359200Y-96275056D01*
X94181544Y-96452401D01*
X94067230Y-96727701D01*
X94066970Y-97025791D01*
X94180804Y-97301290D01*
X94363950Y-97484757D01*
X94253230Y-97751401D01*
X94252970Y-98049491D01*
X94366804Y-98324990D01*
X94545200Y-98503699D01*
X94545200Y-104248000D01*
X94580002Y-104422963D01*
X94679111Y-104571289D01*
X95331069Y-105223247D01*
X95013915Y-105435163D01*
X94746873Y-105834820D01*
X94653100Y-106306248D01*
X94653100Y-107053752D01*
X94746873Y-107525180D01*
X95013915Y-107924837D01*
X95413572Y-108191879D01*
X95885000Y-108285652D01*
X96356428Y-108191879D01*
X96756085Y-107924837D01*
X97023127Y-107525180D01*
X97116900Y-107053752D01*
X97116900Y-106306248D01*
X97193100Y-106306248D01*
X97193100Y-107053752D01*
X97286873Y-107525180D01*
X97553915Y-107924837D01*
X97953572Y-108191879D01*
X98425000Y-108285652D01*
X98896428Y-108191879D01*
X99296085Y-107924837D01*
X99563127Y-107525180D01*
X99656900Y-107053752D01*
X99656900Y-106306248D01*
X99733100Y-106306248D01*
X99733100Y-107053752D01*
X99826873Y-107525180D01*
X100093915Y-107924837D01*
X100493572Y-108191879D01*
X100965000Y-108285652D01*
X101436428Y-108191879D01*
X101836085Y-107924837D01*
X102103127Y-107525180D01*
X102196900Y-107053752D01*
X102196900Y-106306248D01*
X102273100Y-106306248D01*
X102273100Y-107053752D01*
X102366873Y-107525180D01*
X102633915Y-107924837D01*
X103033572Y-108191879D01*
X103505000Y-108285652D01*
X103976428Y-108191879D01*
X104376085Y-107924837D01*
X104643127Y-107525180D01*
X104736900Y-107053752D01*
X104736900Y-106306248D01*
X104813100Y-106306248D01*
X104813100Y-107053752D01*
X104906873Y-107525180D01*
X105173915Y-107924837D01*
X105573572Y-108191879D01*
X106045000Y-108285652D01*
X106516428Y-108191879D01*
X106916085Y-107924837D01*
X107183127Y-107525180D01*
X107276900Y-107053752D01*
X107276900Y-106306248D01*
X107353100Y-106306248D01*
X107353100Y-107053752D01*
X107446873Y-107525180D01*
X107713915Y-107924837D01*
X108113572Y-108191879D01*
X108585000Y-108285652D01*
X109056428Y-108191879D01*
X109456085Y-107924837D01*
X109723127Y-107525180D01*
X109816900Y-107053752D01*
X109816900Y-106306248D01*
X109893100Y-106306248D01*
X109893100Y-107053752D01*
X109986873Y-107525180D01*
X110253915Y-107924837D01*
X110653572Y-108191879D01*
X111125000Y-108285652D01*
X111596428Y-108191879D01*
X111996085Y-107924837D01*
X112263127Y-107525180D01*
X112356900Y-107053752D01*
X112356900Y-106306248D01*
X112433100Y-106306248D01*
X112433100Y-107053752D01*
X112526873Y-107525180D01*
X112793915Y-107924837D01*
X113193572Y-108191879D01*
X113665000Y-108285652D01*
X114136428Y-108191879D01*
X114536085Y-107924837D01*
X114803127Y-107525180D01*
X114896900Y-107053752D01*
X114896900Y-106306248D01*
X114973100Y-106306248D01*
X114973100Y-107053752D01*
X115066873Y-107525180D01*
X115333915Y-107924837D01*
X115733572Y-108191879D01*
X116205000Y-108285652D01*
X116676428Y-108191879D01*
X117076085Y-107924837D01*
X117343127Y-107525180D01*
X117436900Y-107053752D01*
X117436900Y-106306248D01*
X117513100Y-106306248D01*
X117513100Y-107053752D01*
X117606873Y-107525180D01*
X117873915Y-107924837D01*
X118273572Y-108191879D01*
X118745000Y-108285652D01*
X119216428Y-108191879D01*
X119616085Y-107924837D01*
X119883127Y-107525180D01*
X119976900Y-107053752D01*
X119976900Y-106306248D01*
X119883127Y-105834820D01*
X119616085Y-105435163D01*
X119216428Y-105168121D01*
X118745000Y-105074348D01*
X118273572Y-105168121D01*
X117873915Y-105435163D01*
X117606873Y-105834820D01*
X117513100Y-106306248D01*
X117436900Y-106306248D01*
X117343127Y-105834820D01*
X117076085Y-105435163D01*
X116676428Y-105168121D01*
X116205000Y-105074348D01*
X115733572Y-105168121D01*
X115333915Y-105435163D01*
X115066873Y-105834820D01*
X114973100Y-106306248D01*
X114896900Y-106306248D01*
X114803127Y-105834820D01*
X114536085Y-105435163D01*
X114136428Y-105168121D01*
X113665000Y-105074348D01*
X113193572Y-105168121D01*
X112793915Y-105435163D01*
X112526873Y-105834820D01*
X112433100Y-106306248D01*
X112356900Y-106306248D01*
X112263127Y-105834820D01*
X111996085Y-105435163D01*
X111596428Y-105168121D01*
X111125000Y-105074348D01*
X110653572Y-105168121D01*
X110253915Y-105435163D01*
X109986873Y-105834820D01*
X109893100Y-106306248D01*
X109816900Y-106306248D01*
X109723127Y-105834820D01*
X109456085Y-105435163D01*
X109056428Y-105168121D01*
X108585000Y-105074348D01*
X108113572Y-105168121D01*
X107713915Y-105435163D01*
X107446873Y-105834820D01*
X107353100Y-106306248D01*
X107276900Y-106306248D01*
X107183127Y-105834820D01*
X106916085Y-105435163D01*
X106516428Y-105168121D01*
X106045000Y-105074348D01*
X105573572Y-105168121D01*
X105173915Y-105435163D01*
X104906873Y-105834820D01*
X104813100Y-106306248D01*
X104736900Y-106306248D01*
X104643127Y-105834820D01*
X104376085Y-105435163D01*
X103976428Y-105168121D01*
X103505000Y-105074348D01*
X103033572Y-105168121D01*
X102633915Y-105435163D01*
X102366873Y-105834820D01*
X102273100Y-106306248D01*
X102196900Y-106306248D01*
X102103127Y-105834820D01*
X101836085Y-105435163D01*
X101436428Y-105168121D01*
X100965000Y-105074348D01*
X100493572Y-105168121D01*
X100093915Y-105435163D01*
X99826873Y-105834820D01*
X99733100Y-106306248D01*
X99656900Y-106306248D01*
X99563127Y-105834820D01*
X99296085Y-105435163D01*
X98896428Y-105168121D01*
X98425000Y-105074348D01*
X97953572Y-105168121D01*
X97553915Y-105435163D01*
X97286873Y-105834820D01*
X97193100Y-106306248D01*
X97116900Y-106306248D01*
X97023127Y-105834820D01*
X96756085Y-105435163D01*
X96356428Y-105168121D01*
X96342200Y-105165291D01*
X96342200Y-105130600D01*
X96307398Y-104955637D01*
X96208289Y-104807311D01*
X95459600Y-104058622D01*
X95459600Y-101259678D01*
X96505911Y-102305989D01*
X96654237Y-102405098D01*
X96829200Y-102439900D01*
X118485922Y-102439900D01*
X121147684Y-105101662D01*
X120813572Y-105168121D01*
X120413915Y-105435163D01*
X120146873Y-105834820D01*
X120053100Y-106306248D01*
X120053100Y-107053752D01*
X120146873Y-107525180D01*
X120413915Y-107924837D01*
X120813572Y-108191879D01*
X121285000Y-108285652D01*
X121756428Y-108191879D01*
X122156085Y-107924837D01*
X122423127Y-107525180D01*
X122504800Y-107114584D01*
X122609336Y-107135377D01*
X122686873Y-107525180D01*
X122953915Y-107924837D01*
X123353572Y-108191879D01*
X123825000Y-108285652D01*
X124296428Y-108191879D01*
X124696085Y-107924837D01*
X124963127Y-107525180D01*
X125056900Y-107053752D01*
X125056900Y-106306248D01*
X125133100Y-106306248D01*
X125133100Y-107053752D01*
X125226873Y-107525180D01*
X125493915Y-107924837D01*
X125893572Y-108191879D01*
X126365000Y-108285652D01*
X126836428Y-108191879D01*
X127236085Y-107924837D01*
X127503127Y-107525180D01*
X127589197Y-107092477D01*
X128091840Y-107092477D01*
X128408259Y-107858270D01*
X128993648Y-108444682D01*
X129758888Y-108762437D01*
X130587477Y-108763160D01*
X131353270Y-108446741D01*
X131939682Y-107861352D01*
X132257437Y-107096112D01*
X132258160Y-106267523D01*
X131941741Y-105501730D01*
X131356352Y-104915318D01*
X130591112Y-104597563D01*
X129762523Y-104596840D01*
X128996730Y-104913259D01*
X128410318Y-105498648D01*
X128092563Y-106263888D01*
X128091840Y-107092477D01*
X127589197Y-107092477D01*
X127596900Y-107053752D01*
X127596900Y-106306248D01*
X127503127Y-105834820D01*
X127236085Y-105435163D01*
X126836428Y-105168121D01*
X126365000Y-105074348D01*
X125893572Y-105168121D01*
X125493915Y-105435163D01*
X125226873Y-105834820D01*
X125133100Y-106306248D01*
X125056900Y-106306248D01*
X124963127Y-105834820D01*
X124696085Y-105435163D01*
X124296428Y-105168121D01*
X123825000Y-105074348D01*
X123353572Y-105168121D01*
X122953915Y-105435163D01*
X122881988Y-105542810D01*
X120549653Y-103210475D01*
X120779552Y-103364088D01*
X121285000Y-103464628D01*
X121790448Y-103364088D01*
X122218947Y-103077775D01*
X122505260Y-102649276D01*
X122555000Y-102399216D01*
X122604740Y-102649276D01*
X122891053Y-103077775D01*
X123319552Y-103364088D01*
X123825000Y-103464628D01*
X124330448Y-103364088D01*
X124758947Y-103077775D01*
X125045260Y-102649276D01*
X125095000Y-102399216D01*
X125144740Y-102649276D01*
X125431053Y-103077775D01*
X125859552Y-103364088D01*
X126365000Y-103464628D01*
X126870448Y-103364088D01*
X127298947Y-103077775D01*
X127585260Y-102649276D01*
X127635000Y-102399216D01*
X127684740Y-102649276D01*
X127971053Y-103077775D01*
X128399552Y-103364088D01*
X128905000Y-103464628D01*
X129410448Y-103364088D01*
X129838947Y-103077775D01*
X130125260Y-102649276D01*
X130175000Y-102399216D01*
X130224740Y-102649276D01*
X130511053Y-103077775D01*
X130939552Y-103364088D01*
X131445000Y-103464628D01*
X131950448Y-103364088D01*
X132378947Y-103077775D01*
X132665260Y-102649276D01*
X132715000Y-102399216D01*
X132764740Y-102649276D01*
X133051053Y-103077775D01*
X133479552Y-103364088D01*
X133985000Y-103464628D01*
X134490448Y-103364088D01*
X134918947Y-103077775D01*
X135205260Y-102649276D01*
X135255000Y-102399216D01*
X135304740Y-102649276D01*
X135591053Y-103077775D01*
X136019552Y-103364088D01*
X136525000Y-103464628D01*
X137030448Y-103364088D01*
X137458947Y-103077775D01*
X137745260Y-102649276D01*
X137795000Y-102399216D01*
X137844740Y-102649276D01*
X138131053Y-103077775D01*
X138559552Y-103364088D01*
X139065000Y-103464628D01*
X139570448Y-103364088D01*
X139998947Y-103077775D01*
X140285260Y-102649276D01*
X140385800Y-102143828D01*
X140385800Y-101056172D01*
X140285260Y-100550724D01*
X139998947Y-100122225D01*
X139570448Y-99835912D01*
X139065000Y-99735372D01*
X138559552Y-99835912D01*
X138131053Y-100122225D01*
X137844740Y-100550724D01*
X137795000Y-100800784D01*
X137745260Y-100550724D01*
X137458947Y-100122225D01*
X137430177Y-100103001D01*
X144137378Y-93395800D01*
X148305667Y-93395800D01*
X148464211Y-94192853D01*
X148915705Y-94868562D01*
X149591414Y-95320056D01*
X150388467Y-95478600D01*
X152023933Y-95478600D01*
X152820986Y-95320056D01*
X153496695Y-94868562D01*
X153948189Y-94192853D01*
X154106733Y-93395800D01*
X153948189Y-92598747D01*
X153496695Y-91923038D01*
X152820986Y-91471544D01*
X152023933Y-91313000D01*
X150388467Y-91313000D01*
X149591414Y-91471544D01*
X148915705Y-91923038D01*
X148464211Y-92598747D01*
X148305667Y-93395800D01*
X144137378Y-93395800D01*
X146834190Y-90698989D01*
X146933298Y-90550663D01*
X146968100Y-90375700D01*
X146968100Y-88900000D01*
X147066043Y-88900000D01*
X147224587Y-89697053D01*
X147676081Y-90372762D01*
X148351790Y-90824256D01*
X149148843Y-90982800D01*
X150266357Y-90982800D01*
X151063410Y-90824256D01*
X151739119Y-90372762D01*
X152190613Y-89697053D01*
X152194495Y-89677538D01*
X152492463Y-89976026D01*
X152959073Y-90169779D01*
X153464310Y-90170220D01*
X153931258Y-89977282D01*
X154288826Y-89620337D01*
X154482579Y-89153727D01*
X154483020Y-88648490D01*
X154290082Y-88181542D01*
X153933137Y-87823974D01*
X153466527Y-87630221D01*
X152961290Y-87629780D01*
X152494342Y-87822718D01*
X152194425Y-88122112D01*
X152190613Y-88102947D01*
X151739119Y-87427238D01*
X151063410Y-86975744D01*
X150266357Y-86817200D01*
X149148843Y-86817200D01*
X148351790Y-86975744D01*
X147676081Y-87427238D01*
X147224587Y-88102947D01*
X147066043Y-88900000D01*
X146968100Y-88900000D01*
X146968100Y-87445300D01*
X146933298Y-87270337D01*
X146834189Y-87122011D01*
X144116378Y-84404200D01*
X148305667Y-84404200D01*
X148464211Y-85201253D01*
X148915705Y-85876962D01*
X149591414Y-86328456D01*
X150388467Y-86487000D01*
X152023933Y-86487000D01*
X152820986Y-86328456D01*
X153496695Y-85876962D01*
X153948189Y-85201253D01*
X154106733Y-84404200D01*
X153948189Y-83607147D01*
X153496695Y-82931438D01*
X152820986Y-82479944D01*
X152023933Y-82321400D01*
X150388467Y-82321400D01*
X149591414Y-82479944D01*
X148915705Y-82931438D01*
X148464211Y-83607147D01*
X148305667Y-84404200D01*
X144116378Y-84404200D01*
X143119989Y-83407811D01*
X142971663Y-83308702D01*
X142796700Y-83273900D01*
X121452000Y-83273900D01*
X121452000Y-81134123D01*
X121661783Y-81344272D01*
X122240379Y-81584526D01*
X122866873Y-81585073D01*
X123445887Y-81345829D01*
X123889272Y-80903217D01*
X124129526Y-80324621D01*
X124129528Y-80321873D01*
X126059927Y-80321873D01*
X126299171Y-80900887D01*
X126741783Y-81344272D01*
X127320379Y-81584526D01*
X127946873Y-81585073D01*
X128525887Y-81345829D01*
X128969272Y-80903217D01*
X129209526Y-80324621D01*
X129209528Y-80321873D01*
X131139927Y-80321873D01*
X131379171Y-80900887D01*
X131821783Y-81344272D01*
X132400379Y-81584526D01*
X133026873Y-81585073D01*
X133605887Y-81345829D01*
X134049272Y-80903217D01*
X134289526Y-80324621D01*
X134289528Y-80321873D01*
X136219927Y-80321873D01*
X136459171Y-80900887D01*
X136901783Y-81344272D01*
X137480379Y-81584526D01*
X138106873Y-81585073D01*
X138685887Y-81345829D01*
X139129272Y-80903217D01*
X139369526Y-80324621D01*
X139370073Y-79698127D01*
X139130829Y-79119113D01*
X138688217Y-78675728D01*
X138109621Y-78435474D01*
X137483127Y-78434927D01*
X136904113Y-78674171D01*
X136460728Y-79116783D01*
X136220474Y-79695379D01*
X136219927Y-80321873D01*
X134289528Y-80321873D01*
X134290073Y-79698127D01*
X134050829Y-79119113D01*
X133608217Y-78675728D01*
X133029621Y-78435474D01*
X132403127Y-78434927D01*
X131824113Y-78674171D01*
X131380728Y-79116783D01*
X131140474Y-79695379D01*
X131139927Y-80321873D01*
X129209528Y-80321873D01*
X129210073Y-79698127D01*
X128970829Y-79119113D01*
X128528217Y-78675728D01*
X127949621Y-78435474D01*
X127323127Y-78434927D01*
X126744113Y-78674171D01*
X126300728Y-79116783D01*
X126060474Y-79695379D01*
X126059927Y-80321873D01*
X124129528Y-80321873D01*
X124130073Y-79698127D01*
X123890829Y-79119113D01*
X123448217Y-78675728D01*
X122869621Y-78435474D01*
X122243127Y-78434927D01*
X121664113Y-78674171D01*
X121452000Y-78885914D01*
X121452000Y-74139578D01*
X122941790Y-72649789D01*
X123040898Y-72501463D01*
X123054682Y-72432167D01*
X123353572Y-72631879D01*
X123825000Y-72725652D01*
X124296428Y-72631879D01*
X124696085Y-72364837D01*
X124963127Y-71965180D01*
X125056900Y-71493752D01*
X125056900Y-70746248D01*
X125133100Y-70746248D01*
X125133100Y-71493752D01*
X125226873Y-71965180D01*
X125493915Y-72364837D01*
X125893572Y-72631879D01*
X126365000Y-72725652D01*
X126836428Y-72631879D01*
X127236085Y-72364837D01*
X127503127Y-71965180D01*
X127589197Y-71532477D01*
X128091840Y-71532477D01*
X128408259Y-72298270D01*
X128993648Y-72884682D01*
X129758888Y-73202437D01*
X130587477Y-73203160D01*
X131353270Y-72886741D01*
X131939682Y-72301352D01*
X132257437Y-71536112D01*
X132258160Y-70707523D01*
X131941741Y-69941730D01*
X131356352Y-69355318D01*
X130591112Y-69037563D01*
X129762523Y-69036840D01*
X128996730Y-69353259D01*
X128410318Y-69938648D01*
X128092563Y-70703888D01*
X128091840Y-71532477D01*
X127589197Y-71532477D01*
X127596900Y-71493752D01*
X127596900Y-70746248D01*
X127503127Y-70274820D01*
X127236085Y-69875163D01*
X126836428Y-69608121D01*
X126365000Y-69514348D01*
X125893572Y-69608121D01*
X125493915Y-69875163D01*
X125226873Y-70274820D01*
X125133100Y-70746248D01*
X125056900Y-70746248D01*
X124963127Y-70274820D01*
X124696085Y-69875163D01*
X124296428Y-69608121D01*
X123825000Y-69514348D01*
X123353572Y-69608121D01*
X122953915Y-69875163D01*
X122686873Y-70274820D01*
X122609336Y-70664623D01*
X122504800Y-70685416D01*
X122423127Y-70274820D01*
X122156085Y-69875163D01*
X121756428Y-69608121D01*
X121285000Y-69514348D01*
X120813572Y-69608121D01*
X120413915Y-69875163D01*
X120146873Y-70274820D01*
X120053100Y-70746248D01*
X120053100Y-71493752D01*
X120146873Y-71965180D01*
X120413915Y-72364837D01*
X120813572Y-72631879D01*
X121285000Y-72725652D01*
X121644224Y-72654198D01*
X120671511Y-73626911D01*
X120572402Y-73775237D01*
X120537600Y-73950200D01*
X120537600Y-83273900D01*
X117286100Y-83273900D01*
X117111137Y-83308702D01*
X116962811Y-83407811D01*
X110667322Y-89703300D01*
X104835244Y-89703300D01*
X104657899Y-89525644D01*
X104382599Y-89411330D01*
X104084509Y-89411070D01*
X103809010Y-89524904D01*
X103598044Y-89735501D01*
X103483730Y-90010801D01*
X103483470Y-90308891D01*
X103597304Y-90584390D01*
X103807901Y-90795356D01*
X104083201Y-90909670D01*
X104381291Y-90909930D01*
X104656790Y-90796096D01*
X104835499Y-90617700D01*
X110856700Y-90617700D01*
X111031663Y-90582898D01*
X111179989Y-90483789D01*
X112055400Y-89608378D01*
X112055400Y-90595200D01*
X112207800Y-90747600D01*
X113512600Y-90747600D01*
X113512600Y-88392800D01*
X113817400Y-88392800D01*
X113817400Y-90747600D01*
X115122200Y-90747600D01*
X115274600Y-90595200D01*
X115274600Y-89052400D01*
X119659400Y-89052400D01*
X119659400Y-89560400D01*
X119841462Y-90170889D01*
X120243290Y-90665236D01*
X120803709Y-90968180D01*
X120881297Y-90982674D01*
X121132600Y-90873296D01*
X121132600Y-89052400D01*
X119659400Y-89052400D01*
X115274600Y-89052400D01*
X115274600Y-88728743D01*
X115181794Y-88504689D01*
X115010311Y-88333206D01*
X114786257Y-88240400D01*
X113969800Y-88240400D01*
X113817400Y-88392800D01*
X113512600Y-88392800D01*
X113391789Y-88271989D01*
X113424178Y-88239600D01*
X119659400Y-88239600D01*
X119659400Y-88747600D01*
X121132600Y-88747600D01*
X121132600Y-86926704D01*
X120881297Y-86817326D01*
X120803709Y-86831820D01*
X120243290Y-87134764D01*
X119841462Y-87629111D01*
X119659400Y-88239600D01*
X113424178Y-88239600D01*
X117475478Y-84188300D01*
X142607322Y-84188300D01*
X144169422Y-85750400D01*
X144068798Y-85750400D01*
X144068798Y-85907470D01*
X143658127Y-85811109D01*
X143351103Y-85893159D01*
X142461070Y-86416344D01*
X141839001Y-87240304D01*
X141579600Y-88239600D01*
X141579600Y-88747600D01*
X144068800Y-88747600D01*
X144068800Y-88727600D01*
X144373600Y-88727600D01*
X144373600Y-88747600D01*
X144393600Y-88747600D01*
X144393600Y-89052400D01*
X144373600Y-89052400D01*
X144373600Y-89072400D01*
X144068800Y-89072400D01*
X144068800Y-89052400D01*
X141579600Y-89052400D01*
X141579600Y-89560400D01*
X141839001Y-90559696D01*
X142461070Y-91383656D01*
X143351103Y-91906841D01*
X143658127Y-91988891D01*
X144068798Y-91892530D01*
X144068798Y-92049600D01*
X144190421Y-92049600D01*
X136900622Y-99339400D01*
X131445000Y-99339400D01*
X131270037Y-99374202D01*
X131121711Y-99473311D01*
X131022602Y-99621637D01*
X130987800Y-99796600D01*
X130987800Y-99826315D01*
X130939552Y-99835912D01*
X130511053Y-100122225D01*
X130224740Y-100550724D01*
X130175000Y-100800784D01*
X130125260Y-100550724D01*
X129838947Y-100122225D01*
X129410448Y-99835912D01*
X128905000Y-99735372D01*
X128399552Y-99835912D01*
X127971053Y-100122225D01*
X127684740Y-100550724D01*
X127635000Y-100800784D01*
X127585260Y-100550724D01*
X127298947Y-100122225D01*
X126870448Y-99835912D01*
X126365000Y-99735372D01*
X125859552Y-99835912D01*
X125431053Y-100122225D01*
X125144740Y-100550724D01*
X125095000Y-100800784D01*
X125045260Y-100550724D01*
X124758947Y-100122225D01*
X124330448Y-99835912D01*
X123825000Y-99735372D01*
X123319552Y-99835912D01*
X122891053Y-100122225D01*
X122604740Y-100550724D01*
X122555000Y-100800784D01*
X122505260Y-100550724D01*
X122218947Y-100122225D01*
X121790448Y-99835912D01*
X121285000Y-99735372D01*
X120779552Y-99835912D01*
X120351053Y-100122225D01*
X120064740Y-100550724D01*
X119964200Y-101056172D01*
X119964200Y-102143828D01*
X120064740Y-102649276D01*
X120218353Y-102879175D01*
X118998589Y-101659411D01*
X118850263Y-101560302D01*
X118675300Y-101525500D01*
X114975771Y-101525500D01*
X114975771Y-100050960D01*
X115119363Y-100022398D01*
X115267689Y-99923289D01*
X115299908Y-99875070D01*
X124148289Y-91026689D01*
X124247398Y-90878363D01*
X124282200Y-90703400D01*
X124282200Y-90673685D01*
X124330448Y-90664088D01*
X124758947Y-90377775D01*
X125045260Y-89949276D01*
X125095000Y-89699216D01*
X125144740Y-89949276D01*
X125431053Y-90377775D01*
X125859552Y-90664088D01*
X126365000Y-90764628D01*
X126870448Y-90664088D01*
X127298947Y-90377775D01*
X127585260Y-89949276D01*
X127635000Y-89699216D01*
X127684740Y-89949276D01*
X127971053Y-90377775D01*
X128399552Y-90664088D01*
X128905000Y-90764628D01*
X129410448Y-90664088D01*
X129838947Y-90377775D01*
X130125260Y-89949276D01*
X130175000Y-89699216D01*
X130224740Y-89949276D01*
X130511053Y-90377775D01*
X130939552Y-90664088D01*
X131445000Y-90764628D01*
X131950448Y-90664088D01*
X132378947Y-90377775D01*
X132665260Y-89949276D01*
X132715000Y-89699216D01*
X132764740Y-89949276D01*
X133051053Y-90377775D01*
X133479552Y-90664088D01*
X133985000Y-90764628D01*
X134490448Y-90664088D01*
X134918947Y-90377775D01*
X135205260Y-89949276D01*
X135255000Y-89699216D01*
X135304740Y-89949276D01*
X135591053Y-90377775D01*
X136019552Y-90664088D01*
X136525000Y-90764628D01*
X137030448Y-90664088D01*
X137458947Y-90377775D01*
X137745260Y-89949276D01*
X137795000Y-89699216D01*
X137844740Y-89949276D01*
X138131053Y-90377775D01*
X138559552Y-90664088D01*
X139065000Y-90764628D01*
X139570448Y-90664088D01*
X139998947Y-90377775D01*
X140285260Y-89949276D01*
X140385800Y-89443828D01*
X140385800Y-88356172D01*
X140285260Y-87850724D01*
X139998947Y-87422225D01*
X139570448Y-87135912D01*
X139065000Y-87035372D01*
X138559552Y-87135912D01*
X138131053Y-87422225D01*
X137844740Y-87850724D01*
X137795000Y-88100784D01*
X137745260Y-87850724D01*
X137458947Y-87422225D01*
X137030448Y-87135912D01*
X136525000Y-87035372D01*
X136019552Y-87135912D01*
X135591053Y-87422225D01*
X135304740Y-87850724D01*
X135255000Y-88100784D01*
X135205260Y-87850724D01*
X134918947Y-87422225D01*
X134490448Y-87135912D01*
X133985000Y-87035372D01*
X133479552Y-87135912D01*
X133051053Y-87422225D01*
X132764740Y-87850724D01*
X132715000Y-88100784D01*
X132665260Y-87850724D01*
X132378947Y-87422225D01*
X131950448Y-87135912D01*
X131445000Y-87035372D01*
X130939552Y-87135912D01*
X130511053Y-87422225D01*
X130224740Y-87850724D01*
X130175000Y-88100784D01*
X130125260Y-87850724D01*
X129838947Y-87422225D01*
X129410448Y-87135912D01*
X128905000Y-87035372D01*
X128399552Y-87135912D01*
X127971053Y-87422225D01*
X127684740Y-87850724D01*
X127635000Y-88100784D01*
X127585260Y-87850724D01*
X127298947Y-87422225D01*
X126870448Y-87135912D01*
X126365000Y-87035372D01*
X125859552Y-87135912D01*
X125431053Y-87422225D01*
X125144740Y-87850724D01*
X125095000Y-88100784D01*
X125045260Y-87850724D01*
X124758947Y-87422225D01*
X124330448Y-87135912D01*
X123825000Y-87035372D01*
X123319552Y-87135912D01*
X122891053Y-87422225D01*
X122736030Y-87654234D01*
X122728538Y-87629111D01*
X122326710Y-87134764D01*
X121766291Y-86831820D01*
X121688703Y-86817326D01*
X121437400Y-86926704D01*
X121437400Y-88747600D01*
X121457400Y-88747600D01*
X121457400Y-89052400D01*
X121437400Y-89052400D01*
X121437400Y-90873296D01*
X121688703Y-90982674D01*
X121766291Y-90968180D01*
X122326710Y-90665236D01*
X122728538Y-90170889D01*
X122736030Y-90145766D01*
X122891053Y-90377775D01*
X123258516Y-90623306D01*
X114975771Y-98906051D01*
X114975771Y-97550000D01*
X114952115Y-97431073D01*
X114884748Y-97330252D01*
X114783927Y-97262885D01*
X114665000Y-97239229D01*
X112665000Y-97239229D01*
X112546073Y-97262885D01*
X112445252Y-97330252D01*
X112377885Y-97431073D01*
X112354229Y-97550000D01*
X112354229Y-99149040D01*
X112210637Y-99177602D01*
X112062311Y-99276711D01*
X110534522Y-100804500D01*
X102477082Y-100804500D01*
X102585595Y-100642099D01*
X102666800Y-100233852D01*
X102666800Y-100147148D01*
X102816363Y-100117398D01*
X102964689Y-100018289D01*
X108267178Y-94715800D01*
X114313256Y-94715800D01*
X114490601Y-94893456D01*
X114765901Y-95007770D01*
X115063991Y-95008030D01*
X115339490Y-94894196D01*
X115550456Y-94683599D01*
X115664770Y-94408299D01*
X115665030Y-94110209D01*
X115551196Y-93834710D01*
X115340599Y-93623744D01*
X115065299Y-93509430D01*
X114907710Y-93509293D01*
X115010311Y-93466794D01*
X115181794Y-93295311D01*
X115274600Y-93071257D01*
X115274600Y-91204800D01*
X115122200Y-91052400D01*
X113817400Y-91052400D01*
X113817400Y-93407200D01*
X113969800Y-93559600D01*
X114645159Y-93559600D01*
X114491710Y-93623004D01*
X114313001Y-93801400D01*
X108077800Y-93801400D01*
X107902837Y-93836202D01*
X107754511Y-93935311D01*
X102644713Y-99045109D01*
X102585595Y-98747901D01*
X102354342Y-98401806D01*
X102008247Y-98170553D01*
X101600000Y-98089348D01*
X101191753Y-98170553D01*
X100845658Y-98401806D01*
X100614405Y-98747901D01*
X100533200Y-99156148D01*
X100533200Y-99567304D01*
X100523798Y-99520037D01*
X100424689Y-99371711D01*
X100276363Y-99272602D01*
X100126800Y-99242852D01*
X100126800Y-99156148D01*
X100045595Y-98747901D01*
X99814342Y-98401806D01*
X99468247Y-98170553D01*
X99060000Y-98089348D01*
X98651753Y-98170553D01*
X98305658Y-98401806D01*
X98074405Y-98747901D01*
X97993200Y-99156148D01*
X97993200Y-100233852D01*
X98074405Y-100642099D01*
X98305658Y-100988194D01*
X98651753Y-101219447D01*
X99060000Y-101300652D01*
X99468247Y-101219447D01*
X99814342Y-100988194D01*
X100000144Y-100710122D01*
X100815522Y-101525500D01*
X97018578Y-101525500D01*
X96974151Y-101481073D01*
X97382104Y-101280631D01*
X97728872Y-100868688D01*
X97891600Y-100355400D01*
X97891600Y-99847400D01*
X96672400Y-99847400D01*
X96672400Y-99867400D01*
X96367600Y-99867400D01*
X96367600Y-99847400D01*
X96347600Y-99847400D01*
X96347600Y-99542600D01*
X96367600Y-99542600D01*
X96367600Y-99522600D01*
X96672400Y-99522600D01*
X96672400Y-99542600D01*
X97891600Y-99542600D01*
X97891600Y-99034600D01*
X97728872Y-98521312D01*
X97382104Y-98109369D01*
X96976296Y-97909982D01*
X99791089Y-95095189D01*
X99890198Y-94946863D01*
X99925000Y-94771900D01*
X99925000Y-91204800D01*
X112055400Y-91204800D01*
X112055400Y-93071257D01*
X112148206Y-93295311D01*
X112319689Y-93466794D01*
X112543743Y-93559600D01*
X113360200Y-93559600D01*
X113512600Y-93407200D01*
X113512600Y-91052400D01*
X112207800Y-91052400D01*
X112055400Y-91204800D01*
X99925000Y-91204800D01*
X99925000Y-89338744D01*
X100102656Y-89161399D01*
X100216970Y-88886099D01*
X100217230Y-88588009D01*
X100103396Y-88312510D01*
X99892799Y-88101544D01*
X99787329Y-88057749D01*
X101840378Y-86004700D01*
X104259185Y-86004700D01*
X104259170Y-86021991D01*
X104373004Y-86297490D01*
X104583601Y-86508456D01*
X104858901Y-86622770D01*
X105125932Y-86623003D01*
X105230537Y-86692898D01*
X105405500Y-86727700D01*
X111228656Y-86727700D01*
X111406001Y-86905356D01*
X111681301Y-87019670D01*
X111979391Y-87019930D01*
X112254890Y-86906096D01*
X112465856Y-86695499D01*
X112580170Y-86420199D01*
X112580430Y-86122109D01*
X112466596Y-85846610D01*
X112255999Y-85635644D01*
X111980699Y-85521330D01*
X111682609Y-85521070D01*
X111407110Y-85634904D01*
X111228401Y-85813300D01*
X105757953Y-85813300D01*
X105758030Y-85725209D01*
X105644196Y-85449710D01*
X105433599Y-85238744D01*
X105158299Y-85124430D01*
X104860209Y-85124170D01*
X104857650Y-85125227D01*
X104857463Y-85125102D01*
X104682500Y-85090300D01*
X102299200Y-85090300D01*
X102299200Y-84523500D01*
X102264398Y-84348537D01*
X102238361Y-84309570D01*
X102165289Y-84200210D01*
X98000211Y-80035133D01*
X98000430Y-79784109D01*
X97886596Y-79508610D01*
X97675999Y-79297644D01*
X97555549Y-79247629D01*
X97762478Y-79040700D01*
X101118488Y-79040700D01*
X100985454Y-79173502D01*
X100760457Y-79715357D01*
X100759945Y-80302069D01*
X100983996Y-80844316D01*
X101398502Y-81259546D01*
X101940357Y-81484543D01*
X102527069Y-81485055D01*
X103069316Y-81261004D01*
X103484546Y-80846498D01*
X103709543Y-80304643D01*
X103710055Y-79717931D01*
X103486004Y-79175684D01*
X103351255Y-79040700D01*
X104429122Y-79040700D01*
X104726935Y-79338513D01*
X104570457Y-79715357D01*
X104569945Y-80302069D01*
X104793996Y-80844316D01*
X105208502Y-81259546D01*
X105750357Y-81484543D01*
X106337069Y-81485055D01*
X106716641Y-81328219D01*
X107153911Y-81765489D01*
X107302237Y-81864598D01*
X107477200Y-81899400D01*
X112232800Y-81899400D01*
X112407763Y-81864598D01*
X112556089Y-81765489D01*
X112993513Y-81328065D01*
X113370357Y-81484543D01*
X113957069Y-81485055D01*
X114499316Y-81261004D01*
X114914546Y-80846498D01*
X115139543Y-80304643D01*
X115140055Y-79717931D01*
X114916004Y-79175684D01*
X114501498Y-78760454D01*
X113959643Y-78535457D01*
X113372931Y-78534945D01*
X112830684Y-78758996D01*
X112415454Y-79173502D01*
X112190457Y-79715357D01*
X112189945Y-80302069D01*
X112346781Y-80681641D01*
X112043422Y-80985000D01*
X110965802Y-80985000D01*
X111104546Y-80846498D01*
X111329543Y-80304643D01*
X111330055Y-79717931D01*
X111106004Y-79175684D01*
X110691498Y-78760454D01*
X110149643Y-78535457D01*
X109562931Y-78534945D01*
X109020684Y-78758996D01*
X108605454Y-79173502D01*
X108380457Y-79715357D01*
X108379945Y-80302069D01*
X108603996Y-80844316D01*
X108744435Y-80985000D01*
X107666578Y-80985000D01*
X107363065Y-80681487D01*
X107519543Y-80304643D01*
X107520055Y-79717931D01*
X107296004Y-79175684D01*
X106881498Y-78760454D01*
X106339643Y-78535457D01*
X105752931Y-78534945D01*
X105373359Y-78691781D01*
X104941789Y-78260211D01*
X104793463Y-78161102D01*
X104618500Y-78126300D01*
X97573100Y-78126300D01*
X97398137Y-78161102D01*
X97249811Y-78260211D01*
X97146100Y-78363922D01*
X91358931Y-72576753D01*
X91676085Y-72364837D01*
X91943127Y-71965180D01*
X92036900Y-71493752D01*
X92036900Y-70746248D01*
X91943127Y-70274820D01*
X91792974Y-70050100D01*
X92357026Y-70050100D01*
X92206873Y-70274820D01*
X92113100Y-70746248D01*
X92113100Y-71493752D01*
X92206873Y-71965180D01*
X92473915Y-72364837D01*
X92873572Y-72631879D01*
X93345000Y-72725652D01*
X93816428Y-72631879D01*
X94216085Y-72364837D01*
X94483127Y-71965180D01*
X94576900Y-71493752D01*
X94576900Y-70746248D01*
X94483127Y-70274820D01*
X94332974Y-70050100D01*
X94897026Y-70050100D01*
X94746873Y-70274820D01*
X94653100Y-70746248D01*
X94653100Y-71493752D01*
X94746873Y-71965180D01*
X95013915Y-72364837D01*
X95413572Y-72631879D01*
X95885000Y-72725652D01*
X96356428Y-72631879D01*
X96756085Y-72364837D01*
X97023127Y-71965180D01*
X97116900Y-71493752D01*
X97116900Y-70746248D01*
X97023127Y-70274820D01*
X96872974Y-70050100D01*
X97437026Y-70050100D01*
X97286873Y-70274820D01*
X97193100Y-70746248D01*
X97193100Y-71493752D01*
X97286873Y-71965180D01*
X97553915Y-72364837D01*
X97953572Y-72631879D01*
X98425000Y-72725652D01*
X98896428Y-72631879D01*
X99296085Y-72364837D01*
X99563127Y-71965180D01*
X99656900Y-71493752D01*
X99656900Y-70746248D01*
X99563127Y-70274820D01*
X99412974Y-70050100D01*
X99977026Y-70050100D01*
X99826873Y-70274820D01*
X99733100Y-70746248D01*
X99733100Y-71493752D01*
X99826873Y-71965180D01*
X100093915Y-72364837D01*
X100493572Y-72631879D01*
X100965000Y-72725652D01*
X101436428Y-72631879D01*
X101836085Y-72364837D01*
X102103127Y-71965180D01*
X102196900Y-71493752D01*
X102196900Y-70746248D01*
X102103127Y-70274820D01*
X101952974Y-70050100D01*
X102517026Y-70050100D01*
X102366873Y-70274820D01*
X102273100Y-70746248D01*
X102273100Y-71493752D01*
X102366873Y-71965180D01*
X102633915Y-72364837D01*
X103033572Y-72631879D01*
X103505000Y-72725652D01*
X103976428Y-72631879D01*
X104376085Y-72364837D01*
X104643127Y-71965180D01*
X104724800Y-71554584D01*
X104829336Y-71575377D01*
X104906873Y-71965180D01*
X105173915Y-72364837D01*
X105573572Y-72631879D01*
X106045000Y-72725652D01*
X106516428Y-72631879D01*
X106916085Y-72364837D01*
X107183127Y-71965180D01*
X107276900Y-71493752D01*
X107276900Y-70746248D01*
X107353100Y-70746248D01*
X107353100Y-71493752D01*
X107446873Y-71965180D01*
X107713915Y-72364837D01*
X108113572Y-72631879D01*
X108585000Y-72725652D01*
X109056428Y-72631879D01*
X109456085Y-72364837D01*
X109723127Y-71965180D01*
X109816900Y-71493752D01*
X109816900Y-70746248D01*
X109893100Y-70746248D01*
X109893100Y-71493752D01*
X109986873Y-71965180D01*
X110253915Y-72364837D01*
X110653572Y-72631879D01*
X111125000Y-72725652D01*
X111596428Y-72631879D01*
X111996085Y-72364837D01*
X112263127Y-71965180D01*
X112356900Y-71493752D01*
X112356900Y-70746248D01*
X112433100Y-70746248D01*
X112433100Y-71493752D01*
X112526873Y-71965180D01*
X112793915Y-72364837D01*
X113193572Y-72631879D01*
X113665000Y-72725652D01*
X114136428Y-72631879D01*
X114536085Y-72364837D01*
X114803127Y-71965180D01*
X114896900Y-71493752D01*
X114896900Y-70746248D01*
X114973100Y-70746248D01*
X114973100Y-71493752D01*
X115066873Y-71965180D01*
X115333915Y-72364837D01*
X115733572Y-72631879D01*
X116205000Y-72725652D01*
X116676428Y-72631879D01*
X117076085Y-72364837D01*
X117343127Y-71965180D01*
X117436900Y-71493752D01*
X117436900Y-70746248D01*
X117513100Y-70746248D01*
X117513100Y-71493752D01*
X117606873Y-71965180D01*
X117873915Y-72364837D01*
X118273572Y-72631879D01*
X118745000Y-72725652D01*
X119216428Y-72631879D01*
X119616085Y-72364837D01*
X119883127Y-71965180D01*
X119976900Y-71493752D01*
X119976900Y-70746248D01*
X119883127Y-70274820D01*
X119616085Y-69875163D01*
X119216428Y-69608121D01*
X118745000Y-69514348D01*
X118273572Y-69608121D01*
X117873915Y-69875163D01*
X117606873Y-70274820D01*
X117513100Y-70746248D01*
X117436900Y-70746248D01*
X117343127Y-70274820D01*
X117076085Y-69875163D01*
X116676428Y-69608121D01*
X116205000Y-69514348D01*
X115733572Y-69608121D01*
X115333915Y-69875163D01*
X115066873Y-70274820D01*
X114973100Y-70746248D01*
X114896900Y-70746248D01*
X114803127Y-70274820D01*
X114536085Y-69875163D01*
X114136428Y-69608121D01*
X113665000Y-69514348D01*
X113193572Y-69608121D01*
X112793915Y-69875163D01*
X112526873Y-70274820D01*
X112433100Y-70746248D01*
X112356900Y-70746248D01*
X112263127Y-70274820D01*
X111996085Y-69875163D01*
X111596428Y-69608121D01*
X111125000Y-69514348D01*
X110653572Y-69608121D01*
X110253915Y-69875163D01*
X109986873Y-70274820D01*
X109893100Y-70746248D01*
X109816900Y-70746248D01*
X109723127Y-70274820D01*
X109456085Y-69875163D01*
X109056428Y-69608121D01*
X108585000Y-69514348D01*
X108113572Y-69608121D01*
X107713915Y-69875163D01*
X107446873Y-70274820D01*
X107353100Y-70746248D01*
X107276900Y-70746248D01*
X107183127Y-70274820D01*
X106916085Y-69875163D01*
X106516428Y-69608121D01*
X106045000Y-69514348D01*
X105573572Y-69608121D01*
X105173915Y-69875163D01*
X105101988Y-69982810D01*
X104388789Y-69269611D01*
X104240463Y-69170502D01*
X104065500Y-69135700D01*
X90296900Y-69135700D01*
X90121937Y-69170502D01*
X89973611Y-69269610D01*
X89484679Y-69758543D01*
X89479215Y-69731073D01*
X89411848Y-69630252D01*
X89311027Y-69562885D01*
X89192100Y-69539229D01*
X87337900Y-69539229D01*
X87218973Y-69562885D01*
X87118152Y-69630252D01*
X87050785Y-69731073D01*
X87027129Y-69850000D01*
X86144100Y-69850000D01*
X86144100Y-68364100D01*
X155790900Y-68364100D01*
X155790900Y-109435900D01*
X155790900Y-109435900D01*
G37*
X155790900Y-109435900D02*
X86144100Y-109435900D01*
X86144100Y-106306248D01*
X87033100Y-106306248D01*
X87033100Y-107053752D01*
X87126873Y-107525180D01*
X87393915Y-107924837D01*
X87793572Y-108191879D01*
X88265000Y-108285652D01*
X88736428Y-108191879D01*
X89136085Y-107924837D01*
X89403127Y-107525180D01*
X89496900Y-107053752D01*
X89496900Y-106306248D01*
X89573100Y-106306248D01*
X89573100Y-107053752D01*
X89666873Y-107525180D01*
X89933915Y-107924837D01*
X90333572Y-108191879D01*
X90805000Y-108285652D01*
X91276428Y-108191879D01*
X91676085Y-107924837D01*
X91943127Y-107525180D01*
X92036900Y-107053752D01*
X92036900Y-106306248D01*
X92113100Y-106306248D01*
X92113100Y-107053752D01*
X92206873Y-107525180D01*
X92473915Y-107924837D01*
X92873572Y-108191879D01*
X93345000Y-108285652D01*
X93816428Y-108191879D01*
X94216085Y-107924837D01*
X94483127Y-107525180D01*
X94576900Y-107053752D01*
X94576900Y-106306248D01*
X94483127Y-105834820D01*
X94216085Y-105435163D01*
X93816428Y-105168121D01*
X93345000Y-105074348D01*
X92873572Y-105168121D01*
X92473915Y-105435163D01*
X92206873Y-105834820D01*
X92113100Y-106306248D01*
X92036900Y-106306248D01*
X91943127Y-105834820D01*
X91676085Y-105435163D01*
X91276428Y-105168121D01*
X90805000Y-105074348D01*
X90333572Y-105168121D01*
X89933915Y-105435163D01*
X89666873Y-105834820D01*
X89573100Y-106306248D01*
X89496900Y-106306248D01*
X89403127Y-105834820D01*
X89136085Y-105435163D01*
X88736428Y-105168121D01*
X88265000Y-105074348D01*
X87793572Y-105168121D01*
X87393915Y-105435163D01*
X87126873Y-105834820D01*
X87033100Y-106306248D01*
X86144100Y-106306248D01*
X86144100Y-102012477D01*
X87451840Y-102012477D01*
X87768259Y-102778270D01*
X88353648Y-103364682D01*
X89118888Y-103682437D01*
X89947477Y-103683160D01*
X90713270Y-103366741D01*
X91299682Y-102781352D01*
X91617437Y-102016112D01*
X91618160Y-101187523D01*
X91301741Y-100421730D01*
X90716352Y-99835318D01*
X89951112Y-99517563D01*
X89122523Y-99516840D01*
X88356730Y-99833259D01*
X87770318Y-100418648D01*
X87452563Y-101183888D01*
X87451840Y-102012477D01*
X86144100Y-102012477D01*
X86144100Y-76612477D01*
X87451840Y-76612477D01*
X87768259Y-77378270D01*
X88353648Y-77964682D01*
X89118888Y-78282437D01*
X89947477Y-78283160D01*
X90713270Y-77966741D01*
X91299682Y-77381352D01*
X91617437Y-76616112D01*
X91618160Y-75787523D01*
X91301741Y-75021730D01*
X90716352Y-74435318D01*
X89951112Y-74117563D01*
X89122523Y-74116840D01*
X88356730Y-74433259D01*
X87770318Y-75018648D01*
X87452563Y-75783888D01*
X87451840Y-76612477D01*
X86144100Y-76612477D01*
X86144100Y-69850000D01*
X87027129Y-69850000D01*
X87027129Y-72390000D01*
X87050785Y-72508927D01*
X87118152Y-72609748D01*
X87218973Y-72677115D01*
X87337900Y-72700771D01*
X89192100Y-72700771D01*
X89311027Y-72677115D01*
X89411848Y-72609748D01*
X89456558Y-72542836D01*
X92393200Y-75479478D01*
X92393200Y-87964700D01*
X92428002Y-88139663D01*
X92527111Y-88287989D01*
X94235389Y-89996268D01*
X94235170Y-90247291D01*
X94349004Y-90522790D01*
X94559601Y-90733756D01*
X94698423Y-90791399D01*
X94493111Y-90996711D01*
X94394002Y-91145037D01*
X94359200Y-91320000D01*
X94359200Y-96275056D01*
X94181544Y-96452401D01*
X94067230Y-96727701D01*
X94066970Y-97025791D01*
X94180804Y-97301290D01*
X94363950Y-97484757D01*
X94253230Y-97751401D01*
X94252970Y-98049491D01*
X94366804Y-98324990D01*
X94545200Y-98503699D01*
X94545200Y-104248000D01*
X94580002Y-104422963D01*
X94679111Y-104571289D01*
X95331069Y-105223247D01*
X95013915Y-105435163D01*
X94746873Y-105834820D01*
X94653100Y-106306248D01*
X94653100Y-107053752D01*
X94746873Y-107525180D01*
X95013915Y-107924837D01*
X95413572Y-108191879D01*
X95885000Y-108285652D01*
X96356428Y-108191879D01*
X96756085Y-107924837D01*
X97023127Y-107525180D01*
X97116900Y-107053752D01*
X97116900Y-106306248D01*
X97193100Y-106306248D01*
X97193100Y-107053752D01*
X97286873Y-107525180D01*
X97553915Y-107924837D01*
X97953572Y-108191879D01*
X98425000Y-108285652D01*
X98896428Y-108191879D01*
X99296085Y-107924837D01*
X99563127Y-107525180D01*
X99656900Y-107053752D01*
X99656900Y-106306248D01*
X99733100Y-106306248D01*
X99733100Y-107053752D01*
X99826873Y-107525180D01*
X100093915Y-107924837D01*
X100493572Y-108191879D01*
X100965000Y-108285652D01*
X101436428Y-108191879D01*
X101836085Y-107924837D01*
X102103127Y-107525180D01*
X102196900Y-107053752D01*
X102196900Y-106306248D01*
X102273100Y-106306248D01*
X102273100Y-107053752D01*
X102366873Y-107525180D01*
X102633915Y-107924837D01*
X103033572Y-108191879D01*
X103505000Y-108285652D01*
X103976428Y-108191879D01*
X104376085Y-107924837D01*
X104643127Y-107525180D01*
X104736900Y-107053752D01*
X104736900Y-106306248D01*
X104813100Y-106306248D01*
X104813100Y-107053752D01*
X104906873Y-107525180D01*
X105173915Y-107924837D01*
X105573572Y-108191879D01*
X106045000Y-108285652D01*
X106516428Y-108191879D01*
X106916085Y-107924837D01*
X107183127Y-107525180D01*
X107276900Y-107053752D01*
X107276900Y-106306248D01*
X107353100Y-106306248D01*
X107353100Y-107053752D01*
X107446873Y-107525180D01*
X107713915Y-107924837D01*
X108113572Y-108191879D01*
X108585000Y-108285652D01*
X109056428Y-108191879D01*
X109456085Y-107924837D01*
X109723127Y-107525180D01*
X109816900Y-107053752D01*
X109816900Y-106306248D01*
X109893100Y-106306248D01*
X109893100Y-107053752D01*
X109986873Y-107525180D01*
X110253915Y-107924837D01*
X110653572Y-108191879D01*
X111125000Y-108285652D01*
X111596428Y-108191879D01*
X111996085Y-107924837D01*
X112263127Y-107525180D01*
X112356900Y-107053752D01*
X112356900Y-106306248D01*
X112433100Y-106306248D01*
X112433100Y-107053752D01*
X112526873Y-107525180D01*
X112793915Y-107924837D01*
X113193572Y-108191879D01*
X113665000Y-108285652D01*
X114136428Y-108191879D01*
X114536085Y-107924837D01*
X114803127Y-107525180D01*
X114896900Y-107053752D01*
X114896900Y-106306248D01*
X114973100Y-106306248D01*
X114973100Y-107053752D01*
X115066873Y-107525180D01*
X115333915Y-107924837D01*
X115733572Y-108191879D01*
X116205000Y-108285652D01*
X116676428Y-108191879D01*
X117076085Y-107924837D01*
X117343127Y-107525180D01*
X117436900Y-107053752D01*
X117436900Y-106306248D01*
X117513100Y-106306248D01*
X117513100Y-107053752D01*
X117606873Y-107525180D01*
X117873915Y-107924837D01*
X118273572Y-108191879D01*
X118745000Y-108285652D01*
X119216428Y-108191879D01*
X119616085Y-107924837D01*
X119883127Y-107525180D01*
X119976900Y-107053752D01*
X119976900Y-106306248D01*
X119883127Y-105834820D01*
X119616085Y-105435163D01*
X119216428Y-105168121D01*
X118745000Y-105074348D01*
X118273572Y-105168121D01*
X117873915Y-105435163D01*
X117606873Y-105834820D01*
X117513100Y-106306248D01*
X117436900Y-106306248D01*
X117343127Y-105834820D01*
X117076085Y-105435163D01*
X116676428Y-105168121D01*
X116205000Y-105074348D01*
X115733572Y-105168121D01*
X115333915Y-105435163D01*
X115066873Y-105834820D01*
X114973100Y-106306248D01*
X114896900Y-106306248D01*
X114803127Y-105834820D01*
X114536085Y-105435163D01*
X114136428Y-105168121D01*
X113665000Y-105074348D01*
X113193572Y-105168121D01*
X112793915Y-105435163D01*
X112526873Y-105834820D01*
X112433100Y-106306248D01*
X112356900Y-106306248D01*
X112263127Y-105834820D01*
X111996085Y-105435163D01*
X111596428Y-105168121D01*
X111125000Y-105074348D01*
X110653572Y-105168121D01*
X110253915Y-105435163D01*
X109986873Y-105834820D01*
X109893100Y-106306248D01*
X109816900Y-106306248D01*
X109723127Y-105834820D01*
X109456085Y-105435163D01*
X109056428Y-105168121D01*
X108585000Y-105074348D01*
X108113572Y-105168121D01*
X107713915Y-105435163D01*
X107446873Y-105834820D01*
X107353100Y-106306248D01*
X107276900Y-106306248D01*
X107183127Y-105834820D01*
X106916085Y-105435163D01*
X106516428Y-105168121D01*
X106045000Y-105074348D01*
X105573572Y-105168121D01*
X105173915Y-105435163D01*
X104906873Y-105834820D01*
X104813100Y-106306248D01*
X104736900Y-106306248D01*
X104643127Y-105834820D01*
X104376085Y-105435163D01*
X103976428Y-105168121D01*
X103505000Y-105074348D01*
X103033572Y-105168121D01*
X102633915Y-105435163D01*
X102366873Y-105834820D01*
X102273100Y-106306248D01*
X102196900Y-106306248D01*
X102103127Y-105834820D01*
X101836085Y-105435163D01*
X101436428Y-105168121D01*
X100965000Y-105074348D01*
X100493572Y-105168121D01*
X100093915Y-105435163D01*
X99826873Y-105834820D01*
X99733100Y-106306248D01*
X99656900Y-106306248D01*
X99563127Y-105834820D01*
X99296085Y-105435163D01*
X98896428Y-105168121D01*
X98425000Y-105074348D01*
X97953572Y-105168121D01*
X97553915Y-105435163D01*
X97286873Y-105834820D01*
X97193100Y-106306248D01*
X97116900Y-106306248D01*
X97023127Y-105834820D01*
X96756085Y-105435163D01*
X96356428Y-105168121D01*
X96342200Y-105165291D01*
X96342200Y-105130600D01*
X96307398Y-104955637D01*
X96208289Y-104807311D01*
X95459600Y-104058622D01*
X95459600Y-101259678D01*
X96505911Y-102305989D01*
X96654237Y-102405098D01*
X96829200Y-102439900D01*
X118485922Y-102439900D01*
X121147684Y-105101662D01*
X120813572Y-105168121D01*
X120413915Y-105435163D01*
X120146873Y-105834820D01*
X120053100Y-106306248D01*
X120053100Y-107053752D01*
X120146873Y-107525180D01*
X120413915Y-107924837D01*
X120813572Y-108191879D01*
X121285000Y-108285652D01*
X121756428Y-108191879D01*
X122156085Y-107924837D01*
X122423127Y-107525180D01*
X122504800Y-107114584D01*
X122609336Y-107135377D01*
X122686873Y-107525180D01*
X122953915Y-107924837D01*
X123353572Y-108191879D01*
X123825000Y-108285652D01*
X124296428Y-108191879D01*
X124696085Y-107924837D01*
X124963127Y-107525180D01*
X125056900Y-107053752D01*
X125056900Y-106306248D01*
X125133100Y-106306248D01*
X125133100Y-107053752D01*
X125226873Y-107525180D01*
X125493915Y-107924837D01*
X125893572Y-108191879D01*
X126365000Y-108285652D01*
X126836428Y-108191879D01*
X127236085Y-107924837D01*
X127503127Y-107525180D01*
X127589197Y-107092477D01*
X128091840Y-107092477D01*
X128408259Y-107858270D01*
X128993648Y-108444682D01*
X129758888Y-108762437D01*
X130587477Y-108763160D01*
X131353270Y-108446741D01*
X131939682Y-107861352D01*
X132257437Y-107096112D01*
X132258160Y-106267523D01*
X131941741Y-105501730D01*
X131356352Y-104915318D01*
X130591112Y-104597563D01*
X129762523Y-104596840D01*
X128996730Y-104913259D01*
X128410318Y-105498648D01*
X128092563Y-106263888D01*
X128091840Y-107092477D01*
X127589197Y-107092477D01*
X127596900Y-107053752D01*
X127596900Y-106306248D01*
X127503127Y-105834820D01*
X127236085Y-105435163D01*
X126836428Y-105168121D01*
X126365000Y-105074348D01*
X125893572Y-105168121D01*
X125493915Y-105435163D01*
X125226873Y-105834820D01*
X125133100Y-106306248D01*
X125056900Y-106306248D01*
X124963127Y-105834820D01*
X124696085Y-105435163D01*
X124296428Y-105168121D01*
X123825000Y-105074348D01*
X123353572Y-105168121D01*
X122953915Y-105435163D01*
X122881988Y-105542810D01*
X120549653Y-103210475D01*
X120779552Y-103364088D01*
X121285000Y-103464628D01*
X121790448Y-103364088D01*
X122218947Y-103077775D01*
X122505260Y-102649276D01*
X122555000Y-102399216D01*
X122604740Y-102649276D01*
X122891053Y-103077775D01*
X123319552Y-103364088D01*
X123825000Y-103464628D01*
X124330448Y-103364088D01*
X124758947Y-103077775D01*
X125045260Y-102649276D01*
X125095000Y-102399216D01*
X125144740Y-102649276D01*
X125431053Y-103077775D01*
X125859552Y-103364088D01*
X126365000Y-103464628D01*
X126870448Y-103364088D01*
X127298947Y-103077775D01*
X127585260Y-102649276D01*
X127635000Y-102399216D01*
X127684740Y-102649276D01*
X127971053Y-103077775D01*
X128399552Y-103364088D01*
X128905000Y-103464628D01*
X129410448Y-103364088D01*
X129838947Y-103077775D01*
X130125260Y-102649276D01*
X130175000Y-102399216D01*
X130224740Y-102649276D01*
X130511053Y-103077775D01*
X130939552Y-103364088D01*
X131445000Y-103464628D01*
X131950448Y-103364088D01*
X132378947Y-103077775D01*
X132665260Y-102649276D01*
X132715000Y-102399216D01*
X132764740Y-102649276D01*
X133051053Y-103077775D01*
X133479552Y-103364088D01*
X133985000Y-103464628D01*
X134490448Y-103364088D01*
X134918947Y-103077775D01*
X135205260Y-102649276D01*
X135255000Y-102399216D01*
X135304740Y-102649276D01*
X135591053Y-103077775D01*
X136019552Y-103364088D01*
X136525000Y-103464628D01*
X137030448Y-103364088D01*
X137458947Y-103077775D01*
X137745260Y-102649276D01*
X137795000Y-102399216D01*
X137844740Y-102649276D01*
X138131053Y-103077775D01*
X138559552Y-103364088D01*
X139065000Y-103464628D01*
X139570448Y-103364088D01*
X139998947Y-103077775D01*
X140285260Y-102649276D01*
X140385800Y-102143828D01*
X140385800Y-101056172D01*
X140285260Y-100550724D01*
X139998947Y-100122225D01*
X139570448Y-99835912D01*
X139065000Y-99735372D01*
X138559552Y-99835912D01*
X138131053Y-100122225D01*
X137844740Y-100550724D01*
X137795000Y-100800784D01*
X137745260Y-100550724D01*
X137458947Y-100122225D01*
X137430177Y-100103001D01*
X144137378Y-93395800D01*
X148305667Y-93395800D01*
X148464211Y-94192853D01*
X148915705Y-94868562D01*
X149591414Y-95320056D01*
X150388467Y-95478600D01*
X152023933Y-95478600D01*
X152820986Y-95320056D01*
X153496695Y-94868562D01*
X153948189Y-94192853D01*
X154106733Y-93395800D01*
X153948189Y-92598747D01*
X153496695Y-91923038D01*
X152820986Y-91471544D01*
X152023933Y-91313000D01*
X150388467Y-91313000D01*
X149591414Y-91471544D01*
X148915705Y-91923038D01*
X148464211Y-92598747D01*
X148305667Y-93395800D01*
X144137378Y-93395800D01*
X146834190Y-90698989D01*
X146933298Y-90550663D01*
X146968100Y-90375700D01*
X146968100Y-88900000D01*
X147066043Y-88900000D01*
X147224587Y-89697053D01*
X147676081Y-90372762D01*
X148351790Y-90824256D01*
X149148843Y-90982800D01*
X150266357Y-90982800D01*
X151063410Y-90824256D01*
X151739119Y-90372762D01*
X152190613Y-89697053D01*
X152194495Y-89677538D01*
X152492463Y-89976026D01*
X152959073Y-90169779D01*
X153464310Y-90170220D01*
X153931258Y-89977282D01*
X154288826Y-89620337D01*
X154482579Y-89153727D01*
X154483020Y-88648490D01*
X154290082Y-88181542D01*
X153933137Y-87823974D01*
X153466527Y-87630221D01*
X152961290Y-87629780D01*
X152494342Y-87822718D01*
X152194425Y-88122112D01*
X152190613Y-88102947D01*
X151739119Y-87427238D01*
X151063410Y-86975744D01*
X150266357Y-86817200D01*
X149148843Y-86817200D01*
X148351790Y-86975744D01*
X147676081Y-87427238D01*
X147224587Y-88102947D01*
X147066043Y-88900000D01*
X146968100Y-88900000D01*
X146968100Y-87445300D01*
X146933298Y-87270337D01*
X146834189Y-87122011D01*
X144116378Y-84404200D01*
X148305667Y-84404200D01*
X148464211Y-85201253D01*
X148915705Y-85876962D01*
X149591414Y-86328456D01*
X150388467Y-86487000D01*
X152023933Y-86487000D01*
X152820986Y-86328456D01*
X153496695Y-85876962D01*
X153948189Y-85201253D01*
X154106733Y-84404200D01*
X153948189Y-83607147D01*
X153496695Y-82931438D01*
X152820986Y-82479944D01*
X152023933Y-82321400D01*
X150388467Y-82321400D01*
X149591414Y-82479944D01*
X148915705Y-82931438D01*
X148464211Y-83607147D01*
X148305667Y-84404200D01*
X144116378Y-84404200D01*
X143119989Y-83407811D01*
X142971663Y-83308702D01*
X142796700Y-83273900D01*
X121452000Y-83273900D01*
X121452000Y-81134123D01*
X121661783Y-81344272D01*
X122240379Y-81584526D01*
X122866873Y-81585073D01*
X123445887Y-81345829D01*
X123889272Y-80903217D01*
X124129526Y-80324621D01*
X124129528Y-80321873D01*
X126059927Y-80321873D01*
X126299171Y-80900887D01*
X126741783Y-81344272D01*
X127320379Y-81584526D01*
X127946873Y-81585073D01*
X128525887Y-81345829D01*
X128969272Y-80903217D01*
X129209526Y-80324621D01*
X129209528Y-80321873D01*
X131139927Y-80321873D01*
X131379171Y-80900887D01*
X131821783Y-81344272D01*
X132400379Y-81584526D01*
X133026873Y-81585073D01*
X133605887Y-81345829D01*
X134049272Y-80903217D01*
X134289526Y-80324621D01*
X134289528Y-80321873D01*
X136219927Y-80321873D01*
X136459171Y-80900887D01*
X136901783Y-81344272D01*
X137480379Y-81584526D01*
X138106873Y-81585073D01*
X138685887Y-81345829D01*
X139129272Y-80903217D01*
X139369526Y-80324621D01*
X139370073Y-79698127D01*
X139130829Y-79119113D01*
X138688217Y-78675728D01*
X138109621Y-78435474D01*
X137483127Y-78434927D01*
X136904113Y-78674171D01*
X136460728Y-79116783D01*
X136220474Y-79695379D01*
X136219927Y-80321873D01*
X134289528Y-80321873D01*
X134290073Y-79698127D01*
X134050829Y-79119113D01*
X133608217Y-78675728D01*
X133029621Y-78435474D01*
X132403127Y-78434927D01*
X131824113Y-78674171D01*
X131380728Y-79116783D01*
X131140474Y-79695379D01*
X131139927Y-80321873D01*
X129209528Y-80321873D01*
X129210073Y-79698127D01*
X128970829Y-79119113D01*
X128528217Y-78675728D01*
X127949621Y-78435474D01*
X127323127Y-78434927D01*
X126744113Y-78674171D01*
X126300728Y-79116783D01*
X126060474Y-79695379D01*
X126059927Y-80321873D01*
X124129528Y-80321873D01*
X124130073Y-79698127D01*
X123890829Y-79119113D01*
X123448217Y-78675728D01*
X122869621Y-78435474D01*
X122243127Y-78434927D01*
X121664113Y-78674171D01*
X121452000Y-78885914D01*
X121452000Y-74139578D01*
X122941790Y-72649789D01*
X123040898Y-72501463D01*
X123054682Y-72432167D01*
X123353572Y-72631879D01*
X123825000Y-72725652D01*
X124296428Y-72631879D01*
X124696085Y-72364837D01*
X124963127Y-71965180D01*
X125056900Y-71493752D01*
X125056900Y-70746248D01*
X125133100Y-70746248D01*
X125133100Y-71493752D01*
X125226873Y-71965180D01*
X125493915Y-72364837D01*
X125893572Y-72631879D01*
X126365000Y-72725652D01*
X126836428Y-72631879D01*
X127236085Y-72364837D01*
X127503127Y-71965180D01*
X127589197Y-71532477D01*
X128091840Y-71532477D01*
X128408259Y-72298270D01*
X128993648Y-72884682D01*
X129758888Y-73202437D01*
X130587477Y-73203160D01*
X131353270Y-72886741D01*
X131939682Y-72301352D01*
X132257437Y-71536112D01*
X132258160Y-70707523D01*
X131941741Y-69941730D01*
X131356352Y-69355318D01*
X130591112Y-69037563D01*
X129762523Y-69036840D01*
X128996730Y-69353259D01*
X128410318Y-69938648D01*
X128092563Y-70703888D01*
X128091840Y-71532477D01*
X127589197Y-71532477D01*
X127596900Y-71493752D01*
X127596900Y-70746248D01*
X127503127Y-70274820D01*
X127236085Y-69875163D01*
X126836428Y-69608121D01*
X126365000Y-69514348D01*
X125893572Y-69608121D01*
X125493915Y-69875163D01*
X125226873Y-70274820D01*
X125133100Y-70746248D01*
X125056900Y-70746248D01*
X124963127Y-70274820D01*
X124696085Y-69875163D01*
X124296428Y-69608121D01*
X123825000Y-69514348D01*
X123353572Y-69608121D01*
X122953915Y-69875163D01*
X122686873Y-70274820D01*
X122609336Y-70664623D01*
X122504800Y-70685416D01*
X122423127Y-70274820D01*
X122156085Y-69875163D01*
X121756428Y-69608121D01*
X121285000Y-69514348D01*
X120813572Y-69608121D01*
X120413915Y-69875163D01*
X120146873Y-70274820D01*
X120053100Y-70746248D01*
X120053100Y-71493752D01*
X120146873Y-71965180D01*
X120413915Y-72364837D01*
X120813572Y-72631879D01*
X121285000Y-72725652D01*
X121644224Y-72654198D01*
X120671511Y-73626911D01*
X120572402Y-73775237D01*
X120537600Y-73950200D01*
X120537600Y-83273900D01*
X117286100Y-83273900D01*
X117111137Y-83308702D01*
X116962811Y-83407811D01*
X110667322Y-89703300D01*
X104835244Y-89703300D01*
X104657899Y-89525644D01*
X104382599Y-89411330D01*
X104084509Y-89411070D01*
X103809010Y-89524904D01*
X103598044Y-89735501D01*
X103483730Y-90010801D01*
X103483470Y-90308891D01*
X103597304Y-90584390D01*
X103807901Y-90795356D01*
X104083201Y-90909670D01*
X104381291Y-90909930D01*
X104656790Y-90796096D01*
X104835499Y-90617700D01*
X110856700Y-90617700D01*
X111031663Y-90582898D01*
X111179989Y-90483789D01*
X112055400Y-89608378D01*
X112055400Y-90595200D01*
X112207800Y-90747600D01*
X113512600Y-90747600D01*
X113512600Y-88392800D01*
X113817400Y-88392800D01*
X113817400Y-90747600D01*
X115122200Y-90747600D01*
X115274600Y-90595200D01*
X115274600Y-89052400D01*
X119659400Y-89052400D01*
X119659400Y-89560400D01*
X119841462Y-90170889D01*
X120243290Y-90665236D01*
X120803709Y-90968180D01*
X120881297Y-90982674D01*
X121132600Y-90873296D01*
X121132600Y-89052400D01*
X119659400Y-89052400D01*
X115274600Y-89052400D01*
X115274600Y-88728743D01*
X115181794Y-88504689D01*
X115010311Y-88333206D01*
X114786257Y-88240400D01*
X113969800Y-88240400D01*
X113817400Y-88392800D01*
X113512600Y-88392800D01*
X113391789Y-88271989D01*
X113424178Y-88239600D01*
X119659400Y-88239600D01*
X119659400Y-88747600D01*
X121132600Y-88747600D01*
X121132600Y-86926704D01*
X120881297Y-86817326D01*
X120803709Y-86831820D01*
X120243290Y-87134764D01*
X119841462Y-87629111D01*
X119659400Y-88239600D01*
X113424178Y-88239600D01*
X117475478Y-84188300D01*
X142607322Y-84188300D01*
X144169422Y-85750400D01*
X144068798Y-85750400D01*
X144068798Y-85907470D01*
X143658127Y-85811109D01*
X143351103Y-85893159D01*
X142461070Y-86416344D01*
X141839001Y-87240304D01*
X141579600Y-88239600D01*
X141579600Y-88747600D01*
X144068800Y-88747600D01*
X144068800Y-88727600D01*
X144373600Y-88727600D01*
X144373600Y-88747600D01*
X144393600Y-88747600D01*
X144393600Y-89052400D01*
X144373600Y-89052400D01*
X144373600Y-89072400D01*
X144068800Y-89072400D01*
X144068800Y-89052400D01*
X141579600Y-89052400D01*
X141579600Y-89560400D01*
X141839001Y-90559696D01*
X142461070Y-91383656D01*
X143351103Y-91906841D01*
X143658127Y-91988891D01*
X144068798Y-91892530D01*
X144068798Y-92049600D01*
X144190421Y-92049600D01*
X136900622Y-99339400D01*
X131445000Y-99339400D01*
X131270037Y-99374202D01*
X131121711Y-99473311D01*
X131022602Y-99621637D01*
X130987800Y-99796600D01*
X130987800Y-99826315D01*
X130939552Y-99835912D01*
X130511053Y-100122225D01*
X130224740Y-100550724D01*
X130175000Y-100800784D01*
X130125260Y-100550724D01*
X129838947Y-100122225D01*
X129410448Y-99835912D01*
X128905000Y-99735372D01*
X128399552Y-99835912D01*
X127971053Y-100122225D01*
X127684740Y-100550724D01*
X127635000Y-100800784D01*
X127585260Y-100550724D01*
X127298947Y-100122225D01*
X126870448Y-99835912D01*
X126365000Y-99735372D01*
X125859552Y-99835912D01*
X125431053Y-100122225D01*
X125144740Y-100550724D01*
X125095000Y-100800784D01*
X125045260Y-100550724D01*
X124758947Y-100122225D01*
X124330448Y-99835912D01*
X123825000Y-99735372D01*
X123319552Y-99835912D01*
X122891053Y-100122225D01*
X122604740Y-100550724D01*
X122555000Y-100800784D01*
X122505260Y-100550724D01*
X122218947Y-100122225D01*
X121790448Y-99835912D01*
X121285000Y-99735372D01*
X120779552Y-99835912D01*
X120351053Y-100122225D01*
X120064740Y-100550724D01*
X119964200Y-101056172D01*
X119964200Y-102143828D01*
X120064740Y-102649276D01*
X120218353Y-102879175D01*
X118998589Y-101659411D01*
X118850263Y-101560302D01*
X118675300Y-101525500D01*
X114975771Y-101525500D01*
X114975771Y-100050960D01*
X115119363Y-100022398D01*
X115267689Y-99923289D01*
X115299908Y-99875070D01*
X124148289Y-91026689D01*
X124247398Y-90878363D01*
X124282200Y-90703400D01*
X124282200Y-90673685D01*
X124330448Y-90664088D01*
X124758947Y-90377775D01*
X125045260Y-89949276D01*
X125095000Y-89699216D01*
X125144740Y-89949276D01*
X125431053Y-90377775D01*
X125859552Y-90664088D01*
X126365000Y-90764628D01*
X126870448Y-90664088D01*
X127298947Y-90377775D01*
X127585260Y-89949276D01*
X127635000Y-89699216D01*
X127684740Y-89949276D01*
X127971053Y-90377775D01*
X128399552Y-90664088D01*
X128905000Y-90764628D01*
X129410448Y-90664088D01*
X129838947Y-90377775D01*
X130125260Y-89949276D01*
X130175000Y-89699216D01*
X130224740Y-89949276D01*
X130511053Y-90377775D01*
X130939552Y-90664088D01*
X131445000Y-90764628D01*
X131950448Y-90664088D01*
X132378947Y-90377775D01*
X132665260Y-89949276D01*
X132715000Y-89699216D01*
X132764740Y-89949276D01*
X133051053Y-90377775D01*
X133479552Y-90664088D01*
X133985000Y-90764628D01*
X134490448Y-90664088D01*
X134918947Y-90377775D01*
X135205260Y-89949276D01*
X135255000Y-89699216D01*
X135304740Y-89949276D01*
X135591053Y-90377775D01*
X136019552Y-90664088D01*
X136525000Y-90764628D01*
X137030448Y-90664088D01*
X137458947Y-90377775D01*
X137745260Y-89949276D01*
X137795000Y-89699216D01*
X137844740Y-89949276D01*
X138131053Y-90377775D01*
X138559552Y-90664088D01*
X139065000Y-90764628D01*
X139570448Y-90664088D01*
X139998947Y-90377775D01*
X140285260Y-89949276D01*
X140385800Y-89443828D01*
X140385800Y-88356172D01*
X140285260Y-87850724D01*
X139998947Y-87422225D01*
X139570448Y-87135912D01*
X139065000Y-87035372D01*
X138559552Y-87135912D01*
X138131053Y-87422225D01*
X137844740Y-87850724D01*
X137795000Y-88100784D01*
X137745260Y-87850724D01*
X137458947Y-87422225D01*
X137030448Y-87135912D01*
X136525000Y-87035372D01*
X136019552Y-87135912D01*
X135591053Y-87422225D01*
X135304740Y-87850724D01*
X135255000Y-88100784D01*
X135205260Y-87850724D01*
X134918947Y-87422225D01*
X134490448Y-87135912D01*
X133985000Y-87035372D01*
X133479552Y-87135912D01*
X133051053Y-87422225D01*
X132764740Y-87850724D01*
X132715000Y-88100784D01*
X132665260Y-87850724D01*
X132378947Y-87422225D01*
X131950448Y-87135912D01*
X131445000Y-87035372D01*
X130939552Y-87135912D01*
X130511053Y-87422225D01*
X130224740Y-87850724D01*
X130175000Y-88100784D01*
X130125260Y-87850724D01*
X129838947Y-87422225D01*
X129410448Y-87135912D01*
X128905000Y-87035372D01*
X128399552Y-87135912D01*
X127971053Y-87422225D01*
X127684740Y-87850724D01*
X127635000Y-88100784D01*
X127585260Y-87850724D01*
X127298947Y-87422225D01*
X126870448Y-87135912D01*
X126365000Y-87035372D01*
X125859552Y-87135912D01*
X125431053Y-87422225D01*
X125144740Y-87850724D01*
X125095000Y-88100784D01*
X125045260Y-87850724D01*
X124758947Y-87422225D01*
X124330448Y-87135912D01*
X123825000Y-87035372D01*
X123319552Y-87135912D01*
X122891053Y-87422225D01*
X122736030Y-87654234D01*
X122728538Y-87629111D01*
X122326710Y-87134764D01*
X121766291Y-86831820D01*
X121688703Y-86817326D01*
X121437400Y-86926704D01*
X121437400Y-88747600D01*
X121457400Y-88747600D01*
X121457400Y-89052400D01*
X121437400Y-89052400D01*
X121437400Y-90873296D01*
X121688703Y-90982674D01*
X121766291Y-90968180D01*
X122326710Y-90665236D01*
X122728538Y-90170889D01*
X122736030Y-90145766D01*
X122891053Y-90377775D01*
X123258516Y-90623306D01*
X114975771Y-98906051D01*
X114975771Y-97550000D01*
X114952115Y-97431073D01*
X114884748Y-97330252D01*
X114783927Y-97262885D01*
X114665000Y-97239229D01*
X112665000Y-97239229D01*
X112546073Y-97262885D01*
X112445252Y-97330252D01*
X112377885Y-97431073D01*
X112354229Y-97550000D01*
X112354229Y-99149040D01*
X112210637Y-99177602D01*
X112062311Y-99276711D01*
X110534522Y-100804500D01*
X102477082Y-100804500D01*
X102585595Y-100642099D01*
X102666800Y-100233852D01*
X102666800Y-100147148D01*
X102816363Y-100117398D01*
X102964689Y-100018289D01*
X108267178Y-94715800D01*
X114313256Y-94715800D01*
X114490601Y-94893456D01*
X114765901Y-95007770D01*
X115063991Y-95008030D01*
X115339490Y-94894196D01*
X115550456Y-94683599D01*
X115664770Y-94408299D01*
X115665030Y-94110209D01*
X115551196Y-93834710D01*
X115340599Y-93623744D01*
X115065299Y-93509430D01*
X114907710Y-93509293D01*
X115010311Y-93466794D01*
X115181794Y-93295311D01*
X115274600Y-93071257D01*
X115274600Y-91204800D01*
X115122200Y-91052400D01*
X113817400Y-91052400D01*
X113817400Y-93407200D01*
X113969800Y-93559600D01*
X114645159Y-93559600D01*
X114491710Y-93623004D01*
X114313001Y-93801400D01*
X108077800Y-93801400D01*
X107902837Y-93836202D01*
X107754511Y-93935311D01*
X102644713Y-99045109D01*
X102585595Y-98747901D01*
X102354342Y-98401806D01*
X102008247Y-98170553D01*
X101600000Y-98089348D01*
X101191753Y-98170553D01*
X100845658Y-98401806D01*
X100614405Y-98747901D01*
X100533200Y-99156148D01*
X100533200Y-99567304D01*
X100523798Y-99520037D01*
X100424689Y-99371711D01*
X100276363Y-99272602D01*
X100126800Y-99242852D01*
X100126800Y-99156148D01*
X100045595Y-98747901D01*
X99814342Y-98401806D01*
X99468247Y-98170553D01*
X99060000Y-98089348D01*
X98651753Y-98170553D01*
X98305658Y-98401806D01*
X98074405Y-98747901D01*
X97993200Y-99156148D01*
X97993200Y-100233852D01*
X98074405Y-100642099D01*
X98305658Y-100988194D01*
X98651753Y-101219447D01*
X99060000Y-101300652D01*
X99468247Y-101219447D01*
X99814342Y-100988194D01*
X100000144Y-100710122D01*
X100815522Y-101525500D01*
X97018578Y-101525500D01*
X96974151Y-101481073D01*
X97382104Y-101280631D01*
X97728872Y-100868688D01*
X97891600Y-100355400D01*
X97891600Y-99847400D01*
X96672400Y-99847400D01*
X96672400Y-99867400D01*
X96367600Y-99867400D01*
X96367600Y-99847400D01*
X96347600Y-99847400D01*
X96347600Y-99542600D01*
X96367600Y-99542600D01*
X96367600Y-99522600D01*
X96672400Y-99522600D01*
X96672400Y-99542600D01*
X97891600Y-99542600D01*
X97891600Y-99034600D01*
X97728872Y-98521312D01*
X97382104Y-98109369D01*
X96976296Y-97909982D01*
X99791089Y-95095189D01*
X99890198Y-94946863D01*
X99925000Y-94771900D01*
X99925000Y-91204800D01*
X112055400Y-91204800D01*
X112055400Y-93071257D01*
X112148206Y-93295311D01*
X112319689Y-93466794D01*
X112543743Y-93559600D01*
X113360200Y-93559600D01*
X113512600Y-93407200D01*
X113512600Y-91052400D01*
X112207800Y-91052400D01*
X112055400Y-91204800D01*
X99925000Y-91204800D01*
X99925000Y-89338744D01*
X100102656Y-89161399D01*
X100216970Y-88886099D01*
X100217230Y-88588009D01*
X100103396Y-88312510D01*
X99892799Y-88101544D01*
X99787329Y-88057749D01*
X101840378Y-86004700D01*
X104259185Y-86004700D01*
X104259170Y-86021991D01*
X104373004Y-86297490D01*
X104583601Y-86508456D01*
X104858901Y-86622770D01*
X105125932Y-86623003D01*
X105230537Y-86692898D01*
X105405500Y-86727700D01*
X111228656Y-86727700D01*
X111406001Y-86905356D01*
X111681301Y-87019670D01*
X111979391Y-87019930D01*
X112254890Y-86906096D01*
X112465856Y-86695499D01*
X112580170Y-86420199D01*
X112580430Y-86122109D01*
X112466596Y-85846610D01*
X112255999Y-85635644D01*
X111980699Y-85521330D01*
X111682609Y-85521070D01*
X111407110Y-85634904D01*
X111228401Y-85813300D01*
X105757953Y-85813300D01*
X105758030Y-85725209D01*
X105644196Y-85449710D01*
X105433599Y-85238744D01*
X105158299Y-85124430D01*
X104860209Y-85124170D01*
X104857650Y-85125227D01*
X104857463Y-85125102D01*
X104682500Y-85090300D01*
X102299200Y-85090300D01*
X102299200Y-84523500D01*
X102264398Y-84348537D01*
X102238361Y-84309570D01*
X102165289Y-84200210D01*
X98000211Y-80035133D01*
X98000430Y-79784109D01*
X97886596Y-79508610D01*
X97675999Y-79297644D01*
X97555549Y-79247629D01*
X97762478Y-79040700D01*
X101118488Y-79040700D01*
X100985454Y-79173502D01*
X100760457Y-79715357D01*
X100759945Y-80302069D01*
X100983996Y-80844316D01*
X101398502Y-81259546D01*
X101940357Y-81484543D01*
X102527069Y-81485055D01*
X103069316Y-81261004D01*
X103484546Y-80846498D01*
X103709543Y-80304643D01*
X103710055Y-79717931D01*
X103486004Y-79175684D01*
X103351255Y-79040700D01*
X104429122Y-79040700D01*
X104726935Y-79338513D01*
X104570457Y-79715357D01*
X104569945Y-80302069D01*
X104793996Y-80844316D01*
X105208502Y-81259546D01*
X105750357Y-81484543D01*
X106337069Y-81485055D01*
X106716641Y-81328219D01*
X107153911Y-81765489D01*
X107302237Y-81864598D01*
X107477200Y-81899400D01*
X112232800Y-81899400D01*
X112407763Y-81864598D01*
X112556089Y-81765489D01*
X112993513Y-81328065D01*
X113370357Y-81484543D01*
X113957069Y-81485055D01*
X114499316Y-81261004D01*
X114914546Y-80846498D01*
X115139543Y-80304643D01*
X115140055Y-79717931D01*
X114916004Y-79175684D01*
X114501498Y-78760454D01*
X113959643Y-78535457D01*
X113372931Y-78534945D01*
X112830684Y-78758996D01*
X112415454Y-79173502D01*
X112190457Y-79715357D01*
X112189945Y-80302069D01*
X112346781Y-80681641D01*
X112043422Y-80985000D01*
X110965802Y-80985000D01*
X111104546Y-80846498D01*
X111329543Y-80304643D01*
X111330055Y-79717931D01*
X111106004Y-79175684D01*
X110691498Y-78760454D01*
X110149643Y-78535457D01*
X109562931Y-78534945D01*
X109020684Y-78758996D01*
X108605454Y-79173502D01*
X108380457Y-79715357D01*
X108379945Y-80302069D01*
X108603996Y-80844316D01*
X108744435Y-80985000D01*
X107666578Y-80985000D01*
X107363065Y-80681487D01*
X107519543Y-80304643D01*
X107520055Y-79717931D01*
X107296004Y-79175684D01*
X106881498Y-78760454D01*
X106339643Y-78535457D01*
X105752931Y-78534945D01*
X105373359Y-78691781D01*
X104941789Y-78260211D01*
X104793463Y-78161102D01*
X104618500Y-78126300D01*
X97573100Y-78126300D01*
X97398137Y-78161102D01*
X97249811Y-78260211D01*
X97146100Y-78363922D01*
X91358931Y-72576753D01*
X91676085Y-72364837D01*
X91943127Y-71965180D01*
X92036900Y-71493752D01*
X92036900Y-70746248D01*
X91943127Y-70274820D01*
X91792974Y-70050100D01*
X92357026Y-70050100D01*
X92206873Y-70274820D01*
X92113100Y-70746248D01*
X92113100Y-71493752D01*
X92206873Y-71965180D01*
X92473915Y-72364837D01*
X92873572Y-72631879D01*
X93345000Y-72725652D01*
X93816428Y-72631879D01*
X94216085Y-72364837D01*
X94483127Y-71965180D01*
X94576900Y-71493752D01*
X94576900Y-70746248D01*
X94483127Y-70274820D01*
X94332974Y-70050100D01*
X94897026Y-70050100D01*
X94746873Y-70274820D01*
X94653100Y-70746248D01*
X94653100Y-71493752D01*
X94746873Y-71965180D01*
X95013915Y-72364837D01*
X95413572Y-72631879D01*
X95885000Y-72725652D01*
X96356428Y-72631879D01*
X96756085Y-72364837D01*
X97023127Y-71965180D01*
X97116900Y-71493752D01*
X97116900Y-70746248D01*
X97023127Y-70274820D01*
X96872974Y-70050100D01*
X97437026Y-70050100D01*
X97286873Y-70274820D01*
X97193100Y-70746248D01*
X97193100Y-71493752D01*
X97286873Y-71965180D01*
X97553915Y-72364837D01*
X97953572Y-72631879D01*
X98425000Y-72725652D01*
X98896428Y-72631879D01*
X99296085Y-72364837D01*
X99563127Y-71965180D01*
X99656900Y-71493752D01*
X99656900Y-70746248D01*
X99563127Y-70274820D01*
X99412974Y-70050100D01*
X99977026Y-70050100D01*
X99826873Y-70274820D01*
X99733100Y-70746248D01*
X99733100Y-71493752D01*
X99826873Y-71965180D01*
X100093915Y-72364837D01*
X100493572Y-72631879D01*
X100965000Y-72725652D01*
X101436428Y-72631879D01*
X101836085Y-72364837D01*
X102103127Y-71965180D01*
X102196900Y-71493752D01*
X102196900Y-70746248D01*
X102103127Y-70274820D01*
X101952974Y-70050100D01*
X102517026Y-70050100D01*
X102366873Y-70274820D01*
X102273100Y-70746248D01*
X102273100Y-71493752D01*
X102366873Y-71965180D01*
X102633915Y-72364837D01*
X103033572Y-72631879D01*
X103505000Y-72725652D01*
X103976428Y-72631879D01*
X104376085Y-72364837D01*
X104643127Y-71965180D01*
X104724800Y-71554584D01*
X104829336Y-71575377D01*
X104906873Y-71965180D01*
X105173915Y-72364837D01*
X105573572Y-72631879D01*
X106045000Y-72725652D01*
X106516428Y-72631879D01*
X106916085Y-72364837D01*
X107183127Y-71965180D01*
X107276900Y-71493752D01*
X107276900Y-70746248D01*
X107353100Y-70746248D01*
X107353100Y-71493752D01*
X107446873Y-71965180D01*
X107713915Y-72364837D01*
X108113572Y-72631879D01*
X108585000Y-72725652D01*
X109056428Y-72631879D01*
X109456085Y-72364837D01*
X109723127Y-71965180D01*
X109816900Y-71493752D01*
X109816900Y-70746248D01*
X109893100Y-70746248D01*
X109893100Y-71493752D01*
X109986873Y-71965180D01*
X110253915Y-72364837D01*
X110653572Y-72631879D01*
X111125000Y-72725652D01*
X111596428Y-72631879D01*
X111996085Y-72364837D01*
X112263127Y-71965180D01*
X112356900Y-71493752D01*
X112356900Y-70746248D01*
X112433100Y-70746248D01*
X112433100Y-71493752D01*
X112526873Y-71965180D01*
X112793915Y-72364837D01*
X113193572Y-72631879D01*
X113665000Y-72725652D01*
X114136428Y-72631879D01*
X114536085Y-72364837D01*
X114803127Y-71965180D01*
X114896900Y-71493752D01*
X114896900Y-70746248D01*
X114973100Y-70746248D01*
X114973100Y-71493752D01*
X115066873Y-71965180D01*
X115333915Y-72364837D01*
X115733572Y-72631879D01*
X116205000Y-72725652D01*
X116676428Y-72631879D01*
X117076085Y-72364837D01*
X117343127Y-71965180D01*
X117436900Y-71493752D01*
X117436900Y-70746248D01*
X117513100Y-70746248D01*
X117513100Y-71493752D01*
X117606873Y-71965180D01*
X117873915Y-72364837D01*
X118273572Y-72631879D01*
X118745000Y-72725652D01*
X119216428Y-72631879D01*
X119616085Y-72364837D01*
X119883127Y-71965180D01*
X119976900Y-71493752D01*
X119976900Y-70746248D01*
X119883127Y-70274820D01*
X119616085Y-69875163D01*
X119216428Y-69608121D01*
X118745000Y-69514348D01*
X118273572Y-69608121D01*
X117873915Y-69875163D01*
X117606873Y-70274820D01*
X117513100Y-70746248D01*
X117436900Y-70746248D01*
X117343127Y-70274820D01*
X117076085Y-69875163D01*
X116676428Y-69608121D01*
X116205000Y-69514348D01*
X115733572Y-69608121D01*
X115333915Y-69875163D01*
X115066873Y-70274820D01*
X114973100Y-70746248D01*
X114896900Y-70746248D01*
X114803127Y-70274820D01*
X114536085Y-69875163D01*
X114136428Y-69608121D01*
X113665000Y-69514348D01*
X113193572Y-69608121D01*
X112793915Y-69875163D01*
X112526873Y-70274820D01*
X112433100Y-70746248D01*
X112356900Y-70746248D01*
X112263127Y-70274820D01*
X111996085Y-69875163D01*
X111596428Y-69608121D01*
X111125000Y-69514348D01*
X110653572Y-69608121D01*
X110253915Y-69875163D01*
X109986873Y-70274820D01*
X109893100Y-70746248D01*
X109816900Y-70746248D01*
X109723127Y-70274820D01*
X109456085Y-69875163D01*
X109056428Y-69608121D01*
X108585000Y-69514348D01*
X108113572Y-69608121D01*
X107713915Y-69875163D01*
X107446873Y-70274820D01*
X107353100Y-70746248D01*
X107276900Y-70746248D01*
X107183127Y-70274820D01*
X106916085Y-69875163D01*
X106516428Y-69608121D01*
X106045000Y-69514348D01*
X105573572Y-69608121D01*
X105173915Y-69875163D01*
X105101988Y-69982810D01*
X104388789Y-69269611D01*
X104240463Y-69170502D01*
X104065500Y-69135700D01*
X90296900Y-69135700D01*
X90121937Y-69170502D01*
X89973611Y-69269610D01*
X89484679Y-69758543D01*
X89479215Y-69731073D01*
X89411848Y-69630252D01*
X89311027Y-69562885D01*
X89192100Y-69539229D01*
X87337900Y-69539229D01*
X87218973Y-69562885D01*
X87118152Y-69630252D01*
X87050785Y-69731073D01*
X87027129Y-69850000D01*
X86144100Y-69850000D01*
X86144100Y-68364100D01*
X155790900Y-68364100D01*
X155790900Y-109435900D01*
%TD*%
M02*
