%TF.GenerationSoftware,KiCad,Pcbnew,5.1.0-unknown-ca7aec2~82~ubuntu18.04.1*%
%TF.CreationDate,2019-04-12T13:47:33-04:00*%
%TF.ProjectId,stepper_controller_3x2,73746570-7065-4725-9f63-6f6e74726f6c,1.2*%
%TF.SameCoordinates,Original*%
%TF.FileFunction,Copper,L1,Top*%
%TF.FilePolarity,Positive*%
%FSLAX46Y46*%
G04 Gerber Fmt 4.6, Leading zero omitted, Abs format (unit mm)*
G04 Created by KiCad (PCBNEW 5.1.0-unknown-ca7aec2~82~ubuntu18.04.1) date 2019-04-12 13:47:33*
%MOMM*%
%LPD*%
G04 APERTURE LIST*
%TA.AperFunction,NonConductor*%
%ADD10C,0.228600*%
%TD*%
%TA.AperFunction,Conductor*%
%ADD11C,0.100000*%
%TD*%
%TA.AperFunction,ComponentPad*%
%ADD12C,3.400001*%
%TD*%
%TA.AperFunction,ComponentPad*%
%ADD13O,2.032000X3.048000*%
%TD*%
%TA.AperFunction,ComponentPad*%
%ADD14C,3.556000*%
%TD*%
%TA.AperFunction,ComponentPad*%
%ADD15O,1.854200X2.540000*%
%TD*%
%TA.AperFunction,ComponentPad*%
%ADD16R,1.854200X2.540000*%
%TD*%
%TA.AperFunction,ComponentPad*%
%ADD17O,5.080000X3.556000*%
%TD*%
%TA.AperFunction,ComponentPad*%
%ADD18O,4.064000X5.080000*%
%TD*%
%TA.AperFunction,ComponentPad*%
%ADD19O,4.572000X3.556000*%
%TD*%
%TA.AperFunction,ComponentPad*%
%ADD20C,1.930400*%
%TD*%
%TA.AperFunction,ComponentPad*%
%ADD21C,2.540000*%
%TD*%
%TA.AperFunction,ComponentPad*%
%ADD22C,2.340000*%
%TD*%
%TA.AperFunction,ComponentPad*%
%ADD23O,1.524000X2.540000*%
%TD*%
%TA.AperFunction,SMDPad,CuDef*%
%ADD24R,2.000000X4.100000*%
%TD*%
%TA.AperFunction,ViaPad*%
%ADD25C,0.889000*%
%TD*%
%TA.AperFunction,Conductor*%
%ADD26C,0.304800*%
%TD*%
%TA.AperFunction,Conductor*%
%ADD27C,1.066800*%
%TD*%
%TA.AperFunction,Conductor*%
%ADD28C,0.254000*%
%TD*%
G04 APERTURE END LIST*
D10*
X156210000Y-67945000D02*
X85725000Y-67945000D01*
X156210000Y-109855000D02*
X156210000Y-67945000D01*
X85725000Y-109855000D02*
X156210000Y-109855000D01*
X85725000Y-67945000D02*
X85725000Y-109855000D01*
D11*
%TO.N,GND*%
%TO.C,U1*%
G36*
X108073326Y-95456637D02*
G01*
X108106331Y-95461533D01*
X108138697Y-95469640D01*
X108170112Y-95480881D01*
X108200275Y-95495147D01*
X108228894Y-95512300D01*
X108255694Y-95532176D01*
X108280416Y-95554584D01*
X108302824Y-95579306D01*
X108322700Y-95606106D01*
X108339853Y-95634725D01*
X108354119Y-95664888D01*
X108365360Y-95696303D01*
X108373467Y-95728669D01*
X108378363Y-95761674D01*
X108380000Y-95795000D01*
X108380000Y-98515000D01*
X108378363Y-98548326D01*
X108373467Y-98581331D01*
X108365360Y-98613697D01*
X108354119Y-98645112D01*
X108339853Y-98675275D01*
X108322700Y-98703894D01*
X108302824Y-98730694D01*
X108280416Y-98755416D01*
X108255694Y-98777824D01*
X108228894Y-98797700D01*
X108200275Y-98814853D01*
X108170112Y-98829119D01*
X108138697Y-98840360D01*
X108106331Y-98848467D01*
X108073326Y-98853363D01*
X108040000Y-98855000D01*
X105320000Y-98855000D01*
X105286674Y-98853363D01*
X105253669Y-98848467D01*
X105221303Y-98840360D01*
X105189888Y-98829119D01*
X105159725Y-98814853D01*
X105131106Y-98797700D01*
X105104306Y-98777824D01*
X105079584Y-98755416D01*
X105057176Y-98730694D01*
X105037300Y-98703894D01*
X105020147Y-98675275D01*
X105005881Y-98645112D01*
X104994640Y-98613697D01*
X104986533Y-98581331D01*
X104981637Y-98548326D01*
X104980000Y-98515000D01*
X104980000Y-95795000D01*
X104981637Y-95761674D01*
X104986533Y-95728669D01*
X104994640Y-95696303D01*
X105005881Y-95664888D01*
X105020147Y-95634725D01*
X105037300Y-95606106D01*
X105057176Y-95579306D01*
X105079584Y-95554584D01*
X105104306Y-95532176D01*
X105131106Y-95512300D01*
X105159725Y-95495147D01*
X105189888Y-95480881D01*
X105221303Y-95469640D01*
X105253669Y-95461533D01*
X105286674Y-95456637D01*
X105320000Y-95455000D01*
X108040000Y-95455000D01*
X108073326Y-95456637D01*
X108073326Y-95456637D01*
G37*
D12*
%TD*%
%TO.P,U1,PAD*%
%TO.N,GND*%
X106680000Y-97155000D03*
D13*
%TO.P,SS1,1*%
%TO.N,/tmc429_driver_0/DIR_0*%
X139065000Y-101600000D03*
%TO.P,SS1,2*%
%TO.N,/tmc429_driver_0/STEP_0*%
X136525000Y-101600000D03*
%TO.P,SS1,3*%
%TO.N,N/C*%
X133985000Y-101600000D03*
%TO.P,SS1,4*%
%TO.N,/tmc429_driver_0/stepper_0/MISO_UB*%
X131445000Y-101600000D03*
%TO.P,SS1,5*%
%TO.N,/tmc429_driver_0/~CS_DRIVER_0_B*%
X128905000Y-101600000D03*
%TO.P,SS1,6*%
%TO.N,/tmc429_driver_0/SCK_B*%
X126365000Y-101600000D03*
%TO.P,SS1,7*%
%TO.N,/tmc429_driver_0/MOSI_B*%
X123825000Y-101600000D03*
%TO.P,SS1,8*%
%TO.N,/tmc429_driver_0/~ENABLE_0_B*%
X121285000Y-101600000D03*
%TO.P,SS1,9*%
%TO.N,VAA*%
X121285000Y-88900000D03*
%TO.P,SS1,10*%
%TO.N,GND*%
X123825000Y-88900000D03*
%TO.P,SS1,11*%
%TO.N,/tmc429_driver_0/stepper_0/B_-*%
X126365000Y-88900000D03*
%TO.P,SS1,12*%
%TO.N,/tmc429_driver_0/stepper_0/B_+*%
X128905000Y-88900000D03*
%TO.P,SS1,13*%
%TO.N,/tmc429_driver_0/stepper_0/A_+*%
X131445000Y-88900000D03*
%TO.P,SS1,14*%
%TO.N,/tmc429_driver_0/stepper_0/A_-*%
X133985000Y-88900000D03*
%TO.P,SS1,15*%
%TO.N,+5V*%
X136525000Y-88900000D03*
%TO.P,SS1,16*%
%TO.N,GND*%
X139065000Y-88900000D03*
%TD*%
D14*
%TO.P,MDB1,*%
%TO.N,*%
X130175000Y-71120000D03*
X130175000Y-106680000D03*
X89535000Y-101600000D03*
X89535000Y-76200000D03*
D15*
%TO.P,MDB1,AREF*%
%TO.N,N/C*%
X88265000Y-106680000D03*
%TO.P,MDB1,VEE*%
X90805000Y-106680000D03*
%TO.P,MDB1,AGND*%
X93345000Y-106680000D03*
%TO.P,MDB1,3V3*%
%TO.N,+3V3*%
X95885000Y-106680000D03*
%TO.P,MDB1,23*%
%TO.N,N/C*%
X98425000Y-106680000D03*
%TO.P,MDB1,22*%
X100965000Y-106680000D03*
%TO.P,MDB1,21*%
X103505000Y-106680000D03*
%TO.P,MDB1,20*%
X106045000Y-106680000D03*
%TO.P,MDB1,19*%
X108585000Y-106680000D03*
%TO.P,MDB1,18*%
X111125000Y-106680000D03*
%TO.P,MDB1,17*%
X113665000Y-106680000D03*
%TO.P,MDB1,16*%
X116205000Y-106680000D03*
%TO.P,MDB1,15*%
X118745000Y-106680000D03*
%TO.P,MDB1,14*%
%TO.N,/CS_DRIVER_0*%
X121285000Y-106680000D03*
%TO.P,MDB1,13*%
%TO.N,/SCK*%
X123825000Y-106680000D03*
%TO.P,MDB1,DAC*%
%TO.N,N/C*%
X126365000Y-106680000D03*
%TO.P,MDB1,28*%
X126365000Y-71120000D03*
%TO.P,MDB1,12*%
%TO.N,/MISO*%
X123825000Y-71120000D03*
%TO.P,MDB1,11*%
%TO.N,/MOSI*%
X121285000Y-71120000D03*
%TO.P,MDB1,10*%
%TO.N,/CS_429*%
X118745000Y-71120000D03*
%TO.P,MDB1,9*%
%TO.N,N/C*%
X116205000Y-71120000D03*
%TO.P,MDB1,29*%
X113665000Y-71120000D03*
%TO.P,MDB1,30*%
X111125000Y-71120000D03*
%TO.P,MDB1,6*%
%TO.N,/POSCOMP*%
X108585000Y-71120000D03*
%TO.P,MDB1,5*%
%TO.N,/INT*%
X106045000Y-71120000D03*
%TO.P,MDB1,4*%
%TO.N,N/C*%
X103505000Y-71120000D03*
%TO.P,MDB1,3*%
X100965000Y-71120000D03*
%TO.P,MDB1,2*%
%TO.N,/ENABLE_0*%
X98425000Y-71120000D03*
%TO.P,MDB1,25*%
%TO.N,N/C*%
X95885000Y-71120000D03*
D16*
%TO.P,MDB1,VDD*%
%TO.N,VDD*%
X88265000Y-71120000D03*
D15*
%TO.P,MDB1,24*%
%TO.N,N/C*%
X93345000Y-71120000D03*
%TO.P,MDB1,GND*%
%TO.N,GND*%
X90805000Y-71120000D03*
%TD*%
D17*
%TO.P,P1,*%
%TO.N,*%
X151206200Y-93395800D03*
X151206200Y-84404200D03*
D18*
%TO.P,P1,1*%
%TO.N,VAA*%
X144221200Y-88900000D03*
D19*
%TO.P,P1,2*%
%TO.N,GND*%
X149707600Y-88900000D03*
D20*
%TO.P,P1,*%
%TO.N,*%
X153212800Y-88900000D03*
%TD*%
D21*
%TO.P,T1,4*%
%TO.N,/tmc429_driver_0/stepper_0/A_+*%
X137795000Y-80010000D03*
%TO.P,T1,1*%
%TO.N,/tmc429_driver_0/stepper_0/B_-*%
X122555000Y-80010000D03*
%TO.P,T1,2*%
%TO.N,/tmc429_driver_0/stepper_0/B_+*%
X127635000Y-80010000D03*
%TO.P,T1,3*%
%TO.N,/tmc429_driver_0/stepper_0/A_-*%
X132715000Y-80010000D03*
%TD*%
D22*
%TO.P,T2,4*%
%TO.N,/tmc429_driver_0/stepper_0/REFR_GND*%
X113665000Y-80010000D03*
%TO.P,T2,1*%
%TO.N,/tmc429_driver_0/stepper_0/REF_B*%
X102235000Y-80010000D03*
%TO.P,T2,2*%
%TO.N,/tmc429_driver_0/stepper_0/REF_GND*%
X106045000Y-80010000D03*
%TO.P,T2,3*%
%TO.N,/tmc429_driver_0/stepper_0/REFR_B*%
X109855000Y-80010000D03*
%TD*%
D23*
%TO.P,REG1,1*%
%TO.N,VAA*%
X96520000Y-99695000D03*
%TO.P,REG1,3*%
%TO.N,+5V*%
X101600000Y-99695000D03*
%TO.P,REG1,2*%
%TO.N,GND*%
X99060000Y-99695000D03*
%TD*%
D24*
%TO.P,C6,2*%
%TO.N,GND*%
X113665000Y-99600000D03*
%TO.P,C6,1*%
%TO.N,VAA*%
X113665000Y-90900000D03*
%TD*%
D25*
%TO.N,GND*%
X95294800Y-83067000D03*
X97605100Y-82444700D03*
X144506000Y-85725000D03*
%TO.N,+3V3*%
X109180800Y-94223100D03*
X99612900Y-96753200D03*
X106445400Y-93395200D03*
%TO.N,/ENABLE_0*%
X145688800Y-76452500D03*
%TO.N,/INT*%
X96346400Y-93600100D03*
%TO.N,/POSCOMP*%
X107369600Y-86562200D03*
%TO.N,/CS_DRIVER_0*%
X147577100Y-80550600D03*
%TO.N,/tmc429_driver_0/DIR_0*%
X103669200Y-100531600D03*
%TO.N,/tmc429_driver_0/STEP_0*%
X104806000Y-100533200D03*
%TO.N,VAA*%
X100429600Y-79528000D03*
%TO.N,+5V*%
X101823800Y-84889800D03*
X151270500Y-71350500D03*
X115825200Y-83063200D03*
%TO.N,/tmc429_driver_0/SCK_B*%
X147620800Y-92815300D03*
%TO.N,/tmc429_driver_0/MOSI_B*%
X152125800Y-77022800D03*
%TO.N,/tmc429_driver_0/~ENABLE_0_B*%
X146554000Y-86474100D03*
%TO.N,/tmc429_driver_0/~CS*%
X110018400Y-98845000D03*
X102864100Y-98432300D03*
%TD*%
D26*
%TO.N,GND*%
X150215800Y-88899800D02*
X150216000Y-88900000D01*
X144506000Y-85725000D02*
X147041000Y-85725000D01*
X147041000Y-85725000D02*
X150215800Y-88899800D01*
X150215600Y-88900000D02*
X150215800Y-88899800D01*
X95294800Y-83067000D02*
X96982800Y-83067000D01*
X96982800Y-83067000D02*
X97605100Y-82444700D01*
X92011500Y-71120000D02*
X92011500Y-76851100D01*
X92011500Y-76851100D02*
X97605100Y-82444700D01*
X99060000Y-99695000D02*
X100101400Y-99695000D01*
X106680000Y-97155000D02*
X102171600Y-97155000D01*
X102171600Y-97155000D02*
X100101400Y-99225200D01*
X100101400Y-99225200D02*
X100101400Y-99695000D01*
X112385600Y-99600000D02*
X109940600Y-97155000D01*
X109940600Y-97155000D02*
X106680000Y-97155000D01*
X90805000Y-71120000D02*
X92011500Y-71120000D01*
X123825000Y-90703400D02*
X114944400Y-99584000D01*
X114944400Y-99584000D02*
X114944400Y-99600000D01*
X113665000Y-99600000D02*
X112385600Y-99600000D01*
X113665000Y-99600000D02*
X114944400Y-99600000D01*
X123825000Y-88900000D02*
X123825000Y-90703400D01*
X139065000Y-88900000D02*
X139065000Y-88392000D01*
X139065000Y-88392000D02*
X141732000Y-85725000D01*
X141732000Y-85725000D02*
X144506000Y-85725000D01*
%TO.N,+3V3*%
X106445400Y-93440300D02*
X108398000Y-93440300D01*
X108398000Y-93440300D02*
X109180800Y-94223100D01*
X106445400Y-93440300D02*
X106445400Y-93395200D01*
X99612900Y-96753200D02*
X102925800Y-93440300D01*
X102925800Y-93440300D02*
X106445400Y-93440300D01*
X99612900Y-96753200D02*
X97933900Y-98432200D01*
X97933900Y-98432200D02*
X97933900Y-104631100D01*
X97933900Y-104631100D02*
X97091500Y-105473500D01*
X97091500Y-105473500D02*
X97091500Y-106680000D01*
X95885000Y-106680000D02*
X97091500Y-106680000D01*
%TO.N,/ENABLE_0*%
X145688800Y-76452500D02*
X132611500Y-76452500D01*
X132611500Y-76452500D02*
X127839800Y-71680800D01*
X127839800Y-71680800D02*
X127839800Y-70581100D01*
X127839800Y-70581100D02*
X126854300Y-69595600D01*
X126854300Y-69595600D02*
X100418400Y-69595600D01*
X100418400Y-69595600D02*
X99631500Y-70382500D01*
X99631500Y-70382500D02*
X99631500Y-71120000D01*
X98425000Y-71120000D02*
X99631500Y-71120000D01*
%TO.N,/INT*%
X106045000Y-71120000D02*
X104838500Y-71120000D01*
X104838500Y-71120000D02*
X104838500Y-72326500D01*
X104838500Y-72326500D02*
X98732900Y-78432100D01*
X98732900Y-78432100D02*
X98732900Y-91213600D01*
X98732900Y-91213600D02*
X96346400Y-93600100D01*
%TO.N,/POSCOMP*%
X108585000Y-71120000D02*
X108585000Y-72669400D01*
X108585000Y-72669400D02*
X108085000Y-73169400D01*
X108085000Y-73169400D02*
X108085000Y-85846800D01*
X108085000Y-85846800D02*
X107369600Y-86562200D01*
%TO.N,/CS_DRIVER_0*%
X147577100Y-80550600D02*
X151803800Y-76323900D01*
X151803800Y-76323900D02*
X152417800Y-76323900D01*
X152417800Y-76323900D02*
X154883400Y-78789500D01*
X154883400Y-78789500D02*
X154883400Y-93429800D01*
X154883400Y-93429800D02*
X143670700Y-104642500D01*
X143670700Y-104642500D02*
X123791500Y-104642500D01*
X123791500Y-104642500D02*
X122491500Y-105942500D01*
X122491500Y-105942500D02*
X122491500Y-106680000D01*
X121285000Y-106680000D02*
X122491500Y-106680000D01*
D27*
%TO.N,/tmc429_driver_0/stepper_0/B_+*%
X127635000Y-80010000D02*
X128905000Y-81280000D01*
X128905000Y-81280000D02*
X128905000Y-88900000D01*
%TO.N,/tmc429_driver_0/stepper_0/A_-*%
X132715000Y-80010000D02*
X133985000Y-81280000D01*
X133985000Y-81280000D02*
X133985000Y-88900000D01*
%TO.N,/tmc429_driver_0/stepper_0/A_+*%
X131445000Y-88900000D02*
X131445000Y-86715600D01*
X137795000Y-80010000D02*
X135876500Y-78091500D01*
X135876500Y-78091500D02*
X131931800Y-78091500D01*
X131931800Y-78091500D02*
X130778500Y-79244800D01*
X130778500Y-79244800D02*
X130778500Y-86049100D01*
X130778500Y-86049100D02*
X131445000Y-86715600D01*
%TO.N,/tmc429_driver_0/stepper_0/B_-*%
X122555000Y-80010000D02*
X126365000Y-83820000D01*
X126365000Y-83820000D02*
X126365000Y-88900000D01*
D26*
%TO.N,/tmc429_driver_0/DIR_0*%
X139065000Y-103403400D02*
X138644100Y-103824300D01*
X138644100Y-103824300D02*
X106961900Y-103824300D01*
X106961900Y-103824300D02*
X103669200Y-100531600D01*
X139065000Y-101600000D02*
X139065000Y-103403400D01*
%TO.N,/tmc429_driver_0/STEP_0*%
X136525000Y-101600000D02*
X136525000Y-103403400D01*
X136525000Y-103403400D02*
X107676200Y-103403400D01*
X107676200Y-103403400D02*
X104806000Y-100533200D01*
D27*
%TO.N,VAA*%
X100429800Y-90900000D02*
X100429600Y-90899800D01*
X100429600Y-90899800D02*
X100429600Y-79528000D01*
X100429800Y-90900000D02*
X100429800Y-93854800D01*
X100429800Y-93854800D02*
X96520000Y-97764600D01*
X113665000Y-90900000D02*
X100429800Y-90900000D01*
X113665000Y-90900000D02*
X115325400Y-90900000D01*
X121285000Y-88900000D02*
X121285000Y-91084400D01*
X121285000Y-91084400D02*
X115509800Y-91084400D01*
X115509800Y-91084400D02*
X115325400Y-90900000D01*
X96520000Y-99695000D02*
X96520000Y-97764600D01*
D26*
%TO.N,+5V*%
X115825200Y-83063200D02*
X111575800Y-87312600D01*
X111575800Y-87312600D02*
X104246600Y-87312600D01*
X104246600Y-87312600D02*
X101823800Y-84889800D01*
X141419500Y-81455400D02*
X137263000Y-77298900D01*
X137263000Y-77298900D02*
X121589500Y-77298900D01*
X121589500Y-77298900D02*
X115825200Y-83063200D01*
X136525000Y-87096600D02*
X141419500Y-82202100D01*
X141419500Y-82202100D02*
X141419500Y-81455400D01*
X151270500Y-71350500D02*
X151270500Y-71865700D01*
X151270500Y-71865700D02*
X141680800Y-81455400D01*
X141680800Y-81455400D02*
X141419500Y-81455400D01*
X136525000Y-88900000D02*
X136525000Y-90703400D01*
X101600000Y-99695000D02*
X102641400Y-99695000D01*
X102641400Y-99695000D02*
X106979800Y-99695000D01*
X106979800Y-99695000D02*
X109189200Y-101904400D01*
X109189200Y-101904400D02*
X114784200Y-101904400D01*
X114784200Y-101904400D02*
X125985200Y-90703400D01*
X125985200Y-90703400D02*
X136525000Y-90703400D01*
X136525000Y-88900000D02*
X136525000Y-87096600D01*
%TO.N,/tmc429_driver_0/SCK_B*%
X147620800Y-92815300D02*
X140639500Y-99796600D01*
X140639500Y-99796600D02*
X126365000Y-99796600D01*
X126365000Y-101600000D02*
X126365000Y-99796600D01*
%TO.N,/tmc429_driver_0/MOSI_B*%
X123825000Y-99796600D02*
X125310600Y-98311000D01*
X125310600Y-98311000D02*
X140381200Y-98311000D01*
X140381200Y-98311000D02*
X147688200Y-91004000D01*
X147688200Y-91004000D02*
X152844300Y-91004000D01*
X152844300Y-91004000D02*
X154476600Y-89371700D01*
X154476600Y-89371700D02*
X154476600Y-79373600D01*
X154476600Y-79373600D02*
X152125800Y-77022800D01*
X123825000Y-101600000D02*
X123825000Y-99796600D01*
%TO.N,/tmc429_driver_0/~ENABLE_0_B*%
X121285000Y-101600000D02*
X121285000Y-99796600D01*
X146554000Y-86474100D02*
X146554000Y-90339500D01*
X146554000Y-90339500D02*
X144369900Y-92523600D01*
X144369900Y-92523600D02*
X128558000Y-92523600D01*
X128558000Y-92523600D02*
X121285000Y-99796600D01*
%TO.N,/tmc429_driver_0/~CS*%
X110018400Y-98845000D02*
X109701000Y-99162400D01*
X109701000Y-99162400D02*
X103594200Y-99162400D01*
X103594200Y-99162400D02*
X102864100Y-98432300D01*
%TD*%
D28*
%TO.N,GND*%
G36*
X155879800Y-109524800D02*
G01*
X86055200Y-109524800D01*
X86055200Y-106275340D01*
X87007700Y-106275340D01*
X87007700Y-107084661D01*
X87025893Y-107269374D01*
X87097786Y-107506376D01*
X87214535Y-107724798D01*
X87371654Y-107916247D01*
X87563103Y-108073365D01*
X87781525Y-108190114D01*
X88018527Y-108262007D01*
X88265000Y-108286283D01*
X88511474Y-108262007D01*
X88748476Y-108190114D01*
X88966898Y-108073365D01*
X89158347Y-107916247D01*
X89315465Y-107724798D01*
X89432214Y-107506376D01*
X89504107Y-107269373D01*
X89522300Y-107084660D01*
X89522300Y-106275340D01*
X89547700Y-106275340D01*
X89547700Y-107084661D01*
X89565893Y-107269374D01*
X89637786Y-107506376D01*
X89754535Y-107724798D01*
X89911654Y-107916247D01*
X90103103Y-108073365D01*
X90321525Y-108190114D01*
X90558527Y-108262007D01*
X90805000Y-108286283D01*
X91051474Y-108262007D01*
X91288476Y-108190114D01*
X91506898Y-108073365D01*
X91698347Y-107916247D01*
X91855465Y-107724798D01*
X91972214Y-107506376D01*
X92044107Y-107269373D01*
X92062300Y-107084660D01*
X92062300Y-106275340D01*
X92087700Y-106275340D01*
X92087700Y-107084661D01*
X92105893Y-107269374D01*
X92177786Y-107506376D01*
X92294535Y-107724798D01*
X92451654Y-107916247D01*
X92643103Y-108073365D01*
X92861525Y-108190114D01*
X93098527Y-108262007D01*
X93345000Y-108286283D01*
X93591474Y-108262007D01*
X93828476Y-108190114D01*
X94046898Y-108073365D01*
X94238347Y-107916247D01*
X94395465Y-107724798D01*
X94512214Y-107506376D01*
X94584107Y-107269373D01*
X94602300Y-107084660D01*
X94602300Y-106275340D01*
X94627700Y-106275340D01*
X94627700Y-107084661D01*
X94645893Y-107269374D01*
X94717786Y-107506376D01*
X94834535Y-107724798D01*
X94991654Y-107916247D01*
X95183103Y-108073365D01*
X95401525Y-108190114D01*
X95638527Y-108262007D01*
X95885000Y-108286283D01*
X96131474Y-108262007D01*
X96368476Y-108190114D01*
X96586898Y-108073365D01*
X96778347Y-107916247D01*
X96935465Y-107724798D01*
X97052214Y-107506376D01*
X97124107Y-107269373D01*
X97134814Y-107160669D01*
X97174798Y-107156731D01*
X97185893Y-107269374D01*
X97257786Y-107506376D01*
X97374535Y-107724798D01*
X97531654Y-107916247D01*
X97723103Y-108073365D01*
X97941525Y-108190114D01*
X98178527Y-108262007D01*
X98425000Y-108286283D01*
X98671474Y-108262007D01*
X98908476Y-108190114D01*
X99126898Y-108073365D01*
X99318347Y-107916247D01*
X99475465Y-107724798D01*
X99592214Y-107506376D01*
X99664107Y-107269373D01*
X99682300Y-107084660D01*
X99682300Y-106275340D01*
X99707700Y-106275340D01*
X99707700Y-107084661D01*
X99725893Y-107269374D01*
X99797786Y-107506376D01*
X99914535Y-107724798D01*
X100071654Y-107916247D01*
X100263103Y-108073365D01*
X100481525Y-108190114D01*
X100718527Y-108262007D01*
X100965000Y-108286283D01*
X101211474Y-108262007D01*
X101448476Y-108190114D01*
X101666898Y-108073365D01*
X101858347Y-107916247D01*
X102015465Y-107724798D01*
X102132214Y-107506376D01*
X102204107Y-107269373D01*
X102222300Y-107084660D01*
X102222300Y-106275340D01*
X102247700Y-106275340D01*
X102247700Y-107084661D01*
X102265893Y-107269374D01*
X102337786Y-107506376D01*
X102454535Y-107724798D01*
X102611654Y-107916247D01*
X102803103Y-108073365D01*
X103021525Y-108190114D01*
X103258527Y-108262007D01*
X103505000Y-108286283D01*
X103751474Y-108262007D01*
X103988476Y-108190114D01*
X104206898Y-108073365D01*
X104398347Y-107916247D01*
X104555465Y-107724798D01*
X104672214Y-107506376D01*
X104744107Y-107269373D01*
X104762300Y-107084660D01*
X104762300Y-106275340D01*
X104787700Y-106275340D01*
X104787700Y-107084661D01*
X104805893Y-107269374D01*
X104877786Y-107506376D01*
X104994535Y-107724798D01*
X105151654Y-107916247D01*
X105343103Y-108073365D01*
X105561525Y-108190114D01*
X105798527Y-108262007D01*
X106045000Y-108286283D01*
X106291474Y-108262007D01*
X106528476Y-108190114D01*
X106746898Y-108073365D01*
X106938347Y-107916247D01*
X107095465Y-107724798D01*
X107212214Y-107506376D01*
X107284107Y-107269373D01*
X107302300Y-107084660D01*
X107302300Y-106275340D01*
X107327700Y-106275340D01*
X107327700Y-107084661D01*
X107345893Y-107269374D01*
X107417786Y-107506376D01*
X107534535Y-107724798D01*
X107691654Y-107916247D01*
X107883103Y-108073365D01*
X108101525Y-108190114D01*
X108338527Y-108262007D01*
X108585000Y-108286283D01*
X108831474Y-108262007D01*
X109068476Y-108190114D01*
X109286898Y-108073365D01*
X109478347Y-107916247D01*
X109635465Y-107724798D01*
X109752214Y-107506376D01*
X109824107Y-107269373D01*
X109842300Y-107084660D01*
X109842300Y-106275340D01*
X109867700Y-106275340D01*
X109867700Y-107084661D01*
X109885893Y-107269374D01*
X109957786Y-107506376D01*
X110074535Y-107724798D01*
X110231654Y-107916247D01*
X110423103Y-108073365D01*
X110641525Y-108190114D01*
X110878527Y-108262007D01*
X111125000Y-108286283D01*
X111371474Y-108262007D01*
X111608476Y-108190114D01*
X111826898Y-108073365D01*
X112018347Y-107916247D01*
X112175465Y-107724798D01*
X112292214Y-107506376D01*
X112364107Y-107269373D01*
X112382300Y-107084660D01*
X112382300Y-106275340D01*
X112407700Y-106275340D01*
X112407700Y-107084661D01*
X112425893Y-107269374D01*
X112497786Y-107506376D01*
X112614535Y-107724798D01*
X112771654Y-107916247D01*
X112963103Y-108073365D01*
X113181525Y-108190114D01*
X113418527Y-108262007D01*
X113665000Y-108286283D01*
X113911474Y-108262007D01*
X114148476Y-108190114D01*
X114366898Y-108073365D01*
X114558347Y-107916247D01*
X114715465Y-107724798D01*
X114832214Y-107506376D01*
X114904107Y-107269373D01*
X114922300Y-107084660D01*
X114922300Y-106275340D01*
X114947700Y-106275340D01*
X114947700Y-107084661D01*
X114965893Y-107269374D01*
X115037786Y-107506376D01*
X115154535Y-107724798D01*
X115311654Y-107916247D01*
X115503103Y-108073365D01*
X115721525Y-108190114D01*
X115958527Y-108262007D01*
X116205000Y-108286283D01*
X116451474Y-108262007D01*
X116688476Y-108190114D01*
X116906898Y-108073365D01*
X117098347Y-107916247D01*
X117255465Y-107724798D01*
X117372214Y-107506376D01*
X117444107Y-107269373D01*
X117462300Y-107084660D01*
X117462300Y-106275340D01*
X117487700Y-106275340D01*
X117487700Y-107084661D01*
X117505893Y-107269374D01*
X117577786Y-107506376D01*
X117694535Y-107724798D01*
X117851654Y-107916247D01*
X118043103Y-108073365D01*
X118261525Y-108190114D01*
X118498527Y-108262007D01*
X118745000Y-108286283D01*
X118991474Y-108262007D01*
X119228476Y-108190114D01*
X119446898Y-108073365D01*
X119638347Y-107916247D01*
X119795465Y-107724798D01*
X119912214Y-107506376D01*
X119984107Y-107269373D01*
X120002300Y-107084660D01*
X120002300Y-106275339D01*
X119984107Y-106090626D01*
X119912214Y-105853624D01*
X119795465Y-105635202D01*
X119638347Y-105443753D01*
X119446897Y-105286635D01*
X119228475Y-105169886D01*
X118991473Y-105097993D01*
X118745000Y-105073717D01*
X118498526Y-105097993D01*
X118261524Y-105169886D01*
X118043102Y-105286635D01*
X117851653Y-105443753D01*
X117694535Y-105635203D01*
X117577786Y-105853625D01*
X117505893Y-106090627D01*
X117487700Y-106275340D01*
X117462300Y-106275340D01*
X117462300Y-106275339D01*
X117444107Y-106090626D01*
X117372214Y-105853624D01*
X117255465Y-105635202D01*
X117098347Y-105443753D01*
X116906897Y-105286635D01*
X116688475Y-105169886D01*
X116451473Y-105097993D01*
X116205000Y-105073717D01*
X115958526Y-105097993D01*
X115721524Y-105169886D01*
X115503102Y-105286635D01*
X115311653Y-105443753D01*
X115154535Y-105635203D01*
X115037786Y-105853625D01*
X114965893Y-106090627D01*
X114947700Y-106275340D01*
X114922300Y-106275340D01*
X114922300Y-106275339D01*
X114904107Y-106090626D01*
X114832214Y-105853624D01*
X114715465Y-105635202D01*
X114558347Y-105443753D01*
X114366897Y-105286635D01*
X114148475Y-105169886D01*
X113911473Y-105097993D01*
X113665000Y-105073717D01*
X113418526Y-105097993D01*
X113181524Y-105169886D01*
X112963102Y-105286635D01*
X112771653Y-105443753D01*
X112614535Y-105635203D01*
X112497786Y-105853625D01*
X112425893Y-106090627D01*
X112407700Y-106275340D01*
X112382300Y-106275340D01*
X112382300Y-106275339D01*
X112364107Y-106090626D01*
X112292214Y-105853624D01*
X112175465Y-105635202D01*
X112018347Y-105443753D01*
X111826897Y-105286635D01*
X111608475Y-105169886D01*
X111371473Y-105097993D01*
X111125000Y-105073717D01*
X110878526Y-105097993D01*
X110641524Y-105169886D01*
X110423102Y-105286635D01*
X110231653Y-105443753D01*
X110074535Y-105635203D01*
X109957786Y-105853625D01*
X109885893Y-106090627D01*
X109867700Y-106275340D01*
X109842300Y-106275340D01*
X109842300Y-106275339D01*
X109824107Y-106090626D01*
X109752214Y-105853624D01*
X109635465Y-105635202D01*
X109478347Y-105443753D01*
X109286897Y-105286635D01*
X109068475Y-105169886D01*
X108831473Y-105097993D01*
X108585000Y-105073717D01*
X108338526Y-105097993D01*
X108101524Y-105169886D01*
X107883102Y-105286635D01*
X107691653Y-105443753D01*
X107534535Y-105635203D01*
X107417786Y-105853625D01*
X107345893Y-106090627D01*
X107327700Y-106275340D01*
X107302300Y-106275340D01*
X107302300Y-106275339D01*
X107284107Y-106090626D01*
X107212214Y-105853624D01*
X107095465Y-105635202D01*
X106938347Y-105443753D01*
X106746897Y-105286635D01*
X106528475Y-105169886D01*
X106291473Y-105097993D01*
X106045000Y-105073717D01*
X105798526Y-105097993D01*
X105561524Y-105169886D01*
X105343102Y-105286635D01*
X105151653Y-105443753D01*
X104994535Y-105635203D01*
X104877786Y-105853625D01*
X104805893Y-106090627D01*
X104787700Y-106275340D01*
X104762300Y-106275340D01*
X104762300Y-106275339D01*
X104744107Y-106090626D01*
X104672214Y-105853624D01*
X104555465Y-105635202D01*
X104398347Y-105443753D01*
X104206897Y-105286635D01*
X103988475Y-105169886D01*
X103751473Y-105097993D01*
X103505000Y-105073717D01*
X103258526Y-105097993D01*
X103021524Y-105169886D01*
X102803102Y-105286635D01*
X102611653Y-105443753D01*
X102454535Y-105635203D01*
X102337786Y-105853625D01*
X102265893Y-106090627D01*
X102247700Y-106275340D01*
X102222300Y-106275340D01*
X102222300Y-106275339D01*
X102204107Y-106090626D01*
X102132214Y-105853624D01*
X102015465Y-105635202D01*
X101858347Y-105443753D01*
X101666897Y-105286635D01*
X101448475Y-105169886D01*
X101211473Y-105097993D01*
X100965000Y-105073717D01*
X100718526Y-105097993D01*
X100481524Y-105169886D01*
X100263102Y-105286635D01*
X100071653Y-105443753D01*
X99914535Y-105635203D01*
X99797786Y-105853625D01*
X99725893Y-106090627D01*
X99707700Y-106275340D01*
X99682300Y-106275340D01*
X99682300Y-106275339D01*
X99664107Y-106090626D01*
X99592214Y-105853624D01*
X99475465Y-105635202D01*
X99318347Y-105443753D01*
X99126897Y-105286635D01*
X98908475Y-105169886D01*
X98671473Y-105097993D01*
X98425000Y-105073717D01*
X98178526Y-105097993D01*
X98136871Y-105110629D01*
X98258387Y-104989112D01*
X98276801Y-104974001D01*
X98337109Y-104900515D01*
X98381922Y-104816677D01*
X98409517Y-104725707D01*
X98418835Y-104631100D01*
X98416500Y-104607393D01*
X98416500Y-101446559D01*
X98642724Y-101542262D01*
X98716930Y-101557220D01*
X98933000Y-101434720D01*
X98933000Y-99822000D01*
X99187000Y-99822000D01*
X99187000Y-101434720D01*
X99403070Y-101557220D01*
X99477276Y-101542262D01*
X99730535Y-101435122D01*
X99958026Y-101280632D01*
X100151006Y-101084729D01*
X100302059Y-100854942D01*
X100405381Y-100600101D01*
X100457000Y-100330000D01*
X100457000Y-99822000D01*
X99187000Y-99822000D01*
X98933000Y-99822000D01*
X98913000Y-99822000D01*
X98913000Y-99568000D01*
X98933000Y-99568000D01*
X98933000Y-99548000D01*
X99187000Y-99548000D01*
X99187000Y-99568000D01*
X100457000Y-99568000D01*
X100457000Y-99060000D01*
X100405381Y-98789899D01*
X100302059Y-98535058D01*
X100151006Y-98305271D01*
X99958026Y-98109368D01*
X99730535Y-97954878D01*
X99477276Y-97847738D01*
X99403070Y-97832780D01*
X99187002Y-97955279D01*
X99187002Y-97861597D01*
X99523338Y-97525262D01*
X99536599Y-97527900D01*
X99689201Y-97527900D01*
X99838872Y-97498128D01*
X99979858Y-97439730D01*
X100106742Y-97354948D01*
X100214648Y-97247042D01*
X100299430Y-97120158D01*
X100357828Y-96979172D01*
X100387600Y-96829501D01*
X100387600Y-96676899D01*
X100384962Y-96663637D01*
X101593599Y-95455000D01*
X104341928Y-95455000D01*
X104345000Y-96869250D01*
X104503750Y-97028000D01*
X106553000Y-97028000D01*
X106553000Y-94978750D01*
X106807000Y-94978750D01*
X106807000Y-97028000D01*
X108856250Y-97028000D01*
X109015000Y-96869250D01*
X109018072Y-95455000D01*
X109005812Y-95330518D01*
X108969502Y-95210820D01*
X108910537Y-95100506D01*
X108831185Y-95003815D01*
X108734494Y-94924463D01*
X108624180Y-94865498D01*
X108504482Y-94829188D01*
X108380000Y-94816928D01*
X106965750Y-94820000D01*
X106807000Y-94978750D01*
X106553000Y-94978750D01*
X106394250Y-94820000D01*
X104980000Y-94816928D01*
X104855518Y-94829188D01*
X104735820Y-94865498D01*
X104625506Y-94924463D01*
X104528815Y-95003815D01*
X104449463Y-95100506D01*
X104390498Y-95210820D01*
X104354188Y-95330518D01*
X104341928Y-95455000D01*
X101593599Y-95455000D01*
X103125700Y-93922900D01*
X105877510Y-93922900D01*
X105951558Y-93996948D01*
X106078442Y-94081730D01*
X106219428Y-94140128D01*
X106369099Y-94169900D01*
X106521701Y-94169900D01*
X106671372Y-94140128D01*
X106812358Y-94081730D01*
X106939242Y-93996948D01*
X107013290Y-93922900D01*
X108198101Y-93922900D01*
X108408738Y-94133537D01*
X108406100Y-94146799D01*
X108406100Y-94299401D01*
X108435872Y-94449072D01*
X108494270Y-94590058D01*
X108579052Y-94716942D01*
X108686958Y-94824848D01*
X108813842Y-94909630D01*
X108954828Y-94968028D01*
X109104499Y-94997800D01*
X109257101Y-94997800D01*
X109406772Y-94968028D01*
X109547758Y-94909630D01*
X109674642Y-94824848D01*
X109782548Y-94716942D01*
X109867330Y-94590058D01*
X109925728Y-94449072D01*
X109955500Y-94299401D01*
X109955500Y-94146799D01*
X109925728Y-93997128D01*
X109867330Y-93856142D01*
X109782548Y-93729258D01*
X109674642Y-93621352D01*
X109547758Y-93536570D01*
X109406772Y-93478172D01*
X109257101Y-93448400D01*
X109104499Y-93448400D01*
X109091237Y-93451038D01*
X108756017Y-93115818D01*
X108740901Y-93097399D01*
X108667415Y-93037091D01*
X108583577Y-92992278D01*
X108492606Y-92964683D01*
X108421707Y-92957700D01*
X108421705Y-92957700D01*
X108398000Y-92955365D01*
X108374295Y-92957700D01*
X107084795Y-92957700D01*
X107047148Y-92901358D01*
X106939242Y-92793452D01*
X106812358Y-92708670D01*
X106671372Y-92650272D01*
X106521701Y-92620500D01*
X106369099Y-92620500D01*
X106219428Y-92650272D01*
X106078442Y-92708670D01*
X105951558Y-92793452D01*
X105843652Y-92901358D01*
X105806005Y-92957700D01*
X102949504Y-92957700D01*
X102925799Y-92955365D01*
X102902094Y-92957700D01*
X102902093Y-92957700D01*
X102831194Y-92964683D01*
X102740223Y-92992278D01*
X102656385Y-93037091D01*
X102582899Y-93097399D01*
X102567788Y-93115812D01*
X99702463Y-95981138D01*
X99689201Y-95978500D01*
X99536599Y-95978500D01*
X99525134Y-95980781D01*
X101010460Y-94495455D01*
X101043412Y-94468412D01*
X101151331Y-94336912D01*
X101231522Y-94186884D01*
X101280904Y-94024095D01*
X101293400Y-93897220D01*
X101293400Y-93897218D01*
X101297578Y-93854801D01*
X101293400Y-93812383D01*
X101293400Y-91763600D01*
X112333203Y-91763600D01*
X112333203Y-92950000D01*
X112339578Y-93014730D01*
X112358460Y-93076973D01*
X112389121Y-93134337D01*
X112430384Y-93184616D01*
X112480663Y-93225879D01*
X112538027Y-93256540D01*
X112600270Y-93275422D01*
X112665000Y-93281797D01*
X114665000Y-93281797D01*
X114729730Y-93275422D01*
X114791973Y-93256540D01*
X114849337Y-93225879D01*
X114899616Y-93184616D01*
X114940879Y-93134337D01*
X114971540Y-93076973D01*
X114990422Y-93014730D01*
X114996797Y-92950000D01*
X114996797Y-91780579D01*
X115027688Y-91805931D01*
X115177716Y-91886122D01*
X115340505Y-91935504D01*
X115509800Y-91952178D01*
X115552220Y-91948000D01*
X121242580Y-91948000D01*
X121285000Y-91952178D01*
X121327420Y-91948000D01*
X121454295Y-91935504D01*
X121617084Y-91886122D01*
X121767112Y-91805931D01*
X121898612Y-91698012D01*
X122006531Y-91566512D01*
X122086722Y-91416484D01*
X122136104Y-91253695D01*
X122152778Y-91084400D01*
X122148600Y-91041980D01*
X122148600Y-90440764D01*
X122241512Y-90364513D01*
X122376006Y-90200631D01*
X122522801Y-90430843D01*
X122747369Y-90665236D01*
X123013350Y-90851314D01*
X123310522Y-90981926D01*
X123442056Y-91013975D01*
X123698000Y-90894836D01*
X123698000Y-89027000D01*
X123678000Y-89027000D01*
X123678000Y-88773000D01*
X123698000Y-88773000D01*
X123698000Y-86905164D01*
X123442056Y-86786025D01*
X123310522Y-86818074D01*
X123013350Y-86948686D01*
X122747369Y-87134764D01*
X122522801Y-87369157D01*
X122376007Y-87599368D01*
X122241513Y-87435487D01*
X122036527Y-87267260D01*
X121802661Y-87142256D01*
X121548901Y-87065279D01*
X121285000Y-87039287D01*
X121021100Y-87065279D01*
X120767340Y-87142256D01*
X120533474Y-87267260D01*
X120328488Y-87435487D01*
X120160260Y-87640473D01*
X120035256Y-87874339D01*
X119958279Y-88128099D01*
X119938800Y-88325872D01*
X119938800Y-89474127D01*
X119958279Y-89671900D01*
X120035256Y-89925660D01*
X120160260Y-90159526D01*
X120210546Y-90220800D01*
X115859093Y-90220800D01*
X115807512Y-90178469D01*
X115657484Y-90098278D01*
X115494695Y-90048896D01*
X115367820Y-90036400D01*
X115325400Y-90032222D01*
X115282980Y-90036400D01*
X114996797Y-90036400D01*
X114996797Y-88850000D01*
X114990422Y-88785270D01*
X114971540Y-88723027D01*
X114940879Y-88665663D01*
X114899616Y-88615384D01*
X114849337Y-88574121D01*
X114791973Y-88543460D01*
X114729730Y-88524578D01*
X114665000Y-88518203D01*
X112665000Y-88518203D01*
X112600270Y-88524578D01*
X112538027Y-88543460D01*
X112480663Y-88574121D01*
X112430384Y-88615384D01*
X112389121Y-88665663D01*
X112358460Y-88723027D01*
X112339578Y-88785270D01*
X112333203Y-88850000D01*
X112333203Y-90036400D01*
X101293200Y-90036400D01*
X101293200Y-85454790D01*
X101329958Y-85491548D01*
X101456842Y-85576330D01*
X101597828Y-85634728D01*
X101747499Y-85664500D01*
X101900101Y-85664500D01*
X101913363Y-85661862D01*
X103888588Y-87637088D01*
X103903699Y-87655501D01*
X103977185Y-87715809D01*
X104044951Y-87752031D01*
X104061023Y-87760622D01*
X104151993Y-87788217D01*
X104246600Y-87797535D01*
X104270307Y-87795200D01*
X111552095Y-87795200D01*
X111575800Y-87797535D01*
X111599505Y-87795200D01*
X111599507Y-87795200D01*
X111670406Y-87788217D01*
X111761377Y-87760622D01*
X111845215Y-87715809D01*
X111918701Y-87655501D01*
X111933817Y-87637082D01*
X115735638Y-83835262D01*
X115748899Y-83837900D01*
X115901501Y-83837900D01*
X116051172Y-83808128D01*
X116192158Y-83749730D01*
X116319042Y-83664948D01*
X116426948Y-83557042D01*
X116511730Y-83430158D01*
X116570128Y-83289172D01*
X116599900Y-83139501D01*
X116599900Y-82986899D01*
X116597262Y-82973637D01*
X121789399Y-77781500D01*
X131020486Y-77781500D01*
X130197850Y-78604137D01*
X130164888Y-78631188D01*
X130056969Y-78762689D01*
X129976778Y-78912717D01*
X129953355Y-78989932D01*
X129927396Y-79075506D01*
X129910722Y-79244800D01*
X129914900Y-79287220D01*
X129914901Y-86006670D01*
X129910722Y-86049100D01*
X129927396Y-86218394D01*
X129976779Y-86381184D01*
X130046915Y-86512400D01*
X130056970Y-86531212D01*
X130164889Y-86662712D01*
X130197845Y-86689758D01*
X130581401Y-87073315D01*
X130581401Y-87359236D01*
X130488488Y-87435487D01*
X130320260Y-87640473D01*
X130195256Y-87874339D01*
X130175000Y-87941114D01*
X130154744Y-87874339D01*
X130029740Y-87640473D01*
X129861513Y-87435487D01*
X129768600Y-87359236D01*
X129768600Y-81322417D01*
X129772778Y-81279999D01*
X129758094Y-81130914D01*
X129756104Y-81110705D01*
X129706722Y-80947916D01*
X129626531Y-80797888D01*
X129518612Y-80666388D01*
X129485661Y-80639346D01*
X129198488Y-80352173D01*
X129235200Y-80167606D01*
X129235200Y-79852394D01*
X129173706Y-79543239D01*
X129053079Y-79252021D01*
X128877957Y-78989932D01*
X128655068Y-78767043D01*
X128392979Y-78591921D01*
X128101761Y-78471294D01*
X127792606Y-78409800D01*
X127477394Y-78409800D01*
X127168239Y-78471294D01*
X126877021Y-78591921D01*
X126614932Y-78767043D01*
X126392043Y-78989932D01*
X126216921Y-79252021D01*
X126096294Y-79543239D01*
X126034800Y-79852394D01*
X126034800Y-80167606D01*
X126096294Y-80476761D01*
X126216921Y-80767979D01*
X126392043Y-81030068D01*
X126614932Y-81252957D01*
X126877021Y-81428079D01*
X127168239Y-81548706D01*
X127477394Y-81610200D01*
X127792606Y-81610200D01*
X127977173Y-81573488D01*
X128041400Y-81637715D01*
X128041401Y-87359236D01*
X127948488Y-87435487D01*
X127780260Y-87640473D01*
X127655256Y-87874339D01*
X127635000Y-87941114D01*
X127614744Y-87874339D01*
X127489740Y-87640473D01*
X127321513Y-87435487D01*
X127228600Y-87359236D01*
X127228600Y-83862420D01*
X127232778Y-83820000D01*
X127216104Y-83650705D01*
X127166722Y-83487916D01*
X127086531Y-83337888D01*
X127046551Y-83289172D01*
X126978612Y-83206388D01*
X126945661Y-83179346D01*
X124118488Y-80352174D01*
X124155200Y-80167606D01*
X124155200Y-79852394D01*
X124093706Y-79543239D01*
X123973079Y-79252021D01*
X123797957Y-78989932D01*
X123575068Y-78767043D01*
X123312979Y-78591921D01*
X123021761Y-78471294D01*
X122712606Y-78409800D01*
X122397394Y-78409800D01*
X122088239Y-78471294D01*
X121797021Y-78591921D01*
X121534932Y-78767043D01*
X121312043Y-78989932D01*
X121136921Y-79252021D01*
X121016294Y-79543239D01*
X120954800Y-79852394D01*
X120954800Y-80167606D01*
X121016294Y-80476761D01*
X121136921Y-80767979D01*
X121312043Y-81030068D01*
X121534932Y-81252957D01*
X121797021Y-81428079D01*
X122088239Y-81548706D01*
X122397394Y-81610200D01*
X122712606Y-81610200D01*
X122897174Y-81573488D01*
X125501400Y-84177715D01*
X125501401Y-87359236D01*
X125408488Y-87435487D01*
X125273994Y-87599369D01*
X125127199Y-87369157D01*
X124902631Y-87134764D01*
X124636650Y-86948686D01*
X124339478Y-86818074D01*
X124207944Y-86786025D01*
X123952000Y-86905164D01*
X123952000Y-88773000D01*
X123972000Y-88773000D01*
X123972000Y-89027000D01*
X123952000Y-89027000D01*
X123952000Y-90894836D01*
X124207944Y-91013975D01*
X124339478Y-90981926D01*
X124636650Y-90851314D01*
X124902631Y-90665236D01*
X125127199Y-90430843D01*
X125273994Y-90200631D01*
X125408487Y-90364512D01*
X125536517Y-90469583D01*
X115301426Y-100704675D01*
X115300000Y-99885750D01*
X115141250Y-99727000D01*
X113792000Y-99727000D01*
X113792000Y-99747000D01*
X113538000Y-99747000D01*
X113538000Y-99727000D01*
X112188750Y-99727000D01*
X112030000Y-99885750D01*
X112027325Y-101421800D01*
X109389099Y-101421800D01*
X107612299Y-99645000D01*
X109677295Y-99645000D01*
X109701000Y-99647335D01*
X109724705Y-99645000D01*
X109724707Y-99645000D01*
X109795606Y-99638017D01*
X109886577Y-99610422D01*
X109888985Y-99609135D01*
X109942099Y-99619700D01*
X110094701Y-99619700D01*
X110244372Y-99589928D01*
X110385358Y-99531530D01*
X110512242Y-99446748D01*
X110620148Y-99338842D01*
X110704930Y-99211958D01*
X110763328Y-99070972D01*
X110793100Y-98921301D01*
X110793100Y-98768699D01*
X110763328Y-98619028D01*
X110704930Y-98478042D01*
X110620148Y-98351158D01*
X110512242Y-98243252D01*
X110385358Y-98158470D01*
X110244372Y-98100072D01*
X110094701Y-98070300D01*
X109942099Y-98070300D01*
X109792428Y-98100072D01*
X109651442Y-98158470D01*
X109524558Y-98243252D01*
X109416652Y-98351158D01*
X109331870Y-98478042D01*
X109273472Y-98619028D01*
X109261383Y-98679800D01*
X109017691Y-98679800D01*
X109015238Y-97550000D01*
X112026928Y-97550000D01*
X112030000Y-99314250D01*
X112188750Y-99473000D01*
X113538000Y-99473000D01*
X113538000Y-97073750D01*
X113792000Y-97073750D01*
X113792000Y-99473000D01*
X115141250Y-99473000D01*
X115300000Y-99314250D01*
X115303072Y-97550000D01*
X115290812Y-97425518D01*
X115254502Y-97305820D01*
X115195537Y-97195506D01*
X115116185Y-97098815D01*
X115019494Y-97019463D01*
X114909180Y-96960498D01*
X114789482Y-96924188D01*
X114665000Y-96911928D01*
X113950750Y-96915000D01*
X113792000Y-97073750D01*
X113538000Y-97073750D01*
X113379250Y-96915000D01*
X112665000Y-96911928D01*
X112540518Y-96924188D01*
X112420820Y-96960498D01*
X112310506Y-97019463D01*
X112213815Y-97098815D01*
X112134463Y-97195506D01*
X112075498Y-97305820D01*
X112039188Y-97425518D01*
X112026928Y-97550000D01*
X109015238Y-97550000D01*
X109015000Y-97440750D01*
X108856250Y-97282000D01*
X106807000Y-97282000D01*
X106807000Y-97302000D01*
X106553000Y-97302000D01*
X106553000Y-97282000D01*
X104503750Y-97282000D01*
X104345000Y-97440750D01*
X104342309Y-98679800D01*
X103794099Y-98679800D01*
X103636162Y-98521863D01*
X103638800Y-98508601D01*
X103638800Y-98355999D01*
X103609028Y-98206328D01*
X103550630Y-98065342D01*
X103465848Y-97938458D01*
X103357942Y-97830552D01*
X103231058Y-97745770D01*
X103090072Y-97687372D01*
X102940401Y-97657600D01*
X102787799Y-97657600D01*
X102638128Y-97687372D01*
X102497142Y-97745770D01*
X102370258Y-97830552D01*
X102262352Y-97938458D01*
X102177570Y-98065342D01*
X102119172Y-98206328D01*
X102115622Y-98224174D01*
X102019988Y-98173057D01*
X101814108Y-98110604D01*
X101600000Y-98089516D01*
X101385891Y-98110604D01*
X101180011Y-98173057D01*
X100990271Y-98274475D01*
X100823962Y-98410962D01*
X100687475Y-98577271D01*
X100586057Y-98767012D01*
X100523604Y-98972892D01*
X100507800Y-99133352D01*
X100507800Y-100256649D01*
X100523604Y-100417109D01*
X100586058Y-100622989D01*
X100687476Y-100812729D01*
X100823963Y-100979038D01*
X100990272Y-101115525D01*
X101180012Y-101216943D01*
X101385892Y-101279396D01*
X101600000Y-101300484D01*
X101814109Y-101279396D01*
X102019989Y-101216943D01*
X102209729Y-101115525D01*
X102376038Y-100979038D01*
X102512525Y-100812729D01*
X102613943Y-100622989D01*
X102676396Y-100417109D01*
X102692200Y-100256649D01*
X102692200Y-100177600D01*
X102977303Y-100177600D01*
X102924272Y-100305628D01*
X102894500Y-100455299D01*
X102894500Y-100607901D01*
X102924272Y-100757572D01*
X102982670Y-100898558D01*
X103067452Y-101025442D01*
X103175358Y-101133348D01*
X103302242Y-101218130D01*
X103443228Y-101276528D01*
X103592899Y-101306300D01*
X103745501Y-101306300D01*
X103758763Y-101303662D01*
X106603888Y-104148788D01*
X106618999Y-104167201D01*
X106692485Y-104227509D01*
X106776323Y-104272322D01*
X106867294Y-104299917D01*
X106938193Y-104306900D01*
X106938195Y-104306900D01*
X106961900Y-104309235D01*
X106985605Y-104306900D01*
X123442607Y-104306900D01*
X123433488Y-104318012D01*
X122236675Y-105514826D01*
X122178347Y-105443753D01*
X121986897Y-105286635D01*
X121768475Y-105169886D01*
X121531473Y-105097993D01*
X121285000Y-105073717D01*
X121038526Y-105097993D01*
X120801524Y-105169886D01*
X120583102Y-105286635D01*
X120391653Y-105443753D01*
X120234535Y-105635203D01*
X120117786Y-105853625D01*
X120045893Y-106090627D01*
X120027700Y-106275340D01*
X120027700Y-107084661D01*
X120045893Y-107269374D01*
X120117786Y-107506376D01*
X120234535Y-107724798D01*
X120391654Y-107916247D01*
X120583103Y-108073365D01*
X120801525Y-108190114D01*
X121038527Y-108262007D01*
X121285000Y-108286283D01*
X121531474Y-108262007D01*
X121768476Y-108190114D01*
X121986898Y-108073365D01*
X122178347Y-107916247D01*
X122335465Y-107724798D01*
X122452214Y-107506376D01*
X122524107Y-107269373D01*
X122534814Y-107160669D01*
X122574798Y-107156731D01*
X122585893Y-107269374D01*
X122657786Y-107506376D01*
X122774535Y-107724798D01*
X122931654Y-107916247D01*
X123123103Y-108073365D01*
X123341525Y-108190114D01*
X123578527Y-108262007D01*
X123825000Y-108286283D01*
X124071474Y-108262007D01*
X124308476Y-108190114D01*
X124526898Y-108073365D01*
X124718347Y-107916247D01*
X124875465Y-107724798D01*
X124992214Y-107506376D01*
X125064107Y-107269373D01*
X125082300Y-107084660D01*
X125082300Y-106275339D01*
X125064107Y-106090626D01*
X124992214Y-105853624D01*
X124875465Y-105635202D01*
X124718347Y-105443753D01*
X124526897Y-105286635D01*
X124308475Y-105169886D01*
X124160834Y-105125100D01*
X126029165Y-105125100D01*
X125881524Y-105169886D01*
X125663102Y-105286635D01*
X125471653Y-105443753D01*
X125314535Y-105635203D01*
X125197786Y-105853625D01*
X125125893Y-106090627D01*
X125107700Y-106275340D01*
X125107700Y-107084661D01*
X125125893Y-107269374D01*
X125197786Y-107506376D01*
X125314535Y-107724798D01*
X125471654Y-107916247D01*
X125663103Y-108073365D01*
X125881525Y-108190114D01*
X126118527Y-108262007D01*
X126365000Y-108286283D01*
X126611474Y-108262007D01*
X126848476Y-108190114D01*
X127066898Y-108073365D01*
X127258347Y-107916247D01*
X127415465Y-107724798D01*
X127532214Y-107506376D01*
X127604107Y-107269373D01*
X127622300Y-107084660D01*
X127622300Y-106275339D01*
X127604107Y-106090626D01*
X127532214Y-105853624D01*
X127415465Y-105635202D01*
X127258347Y-105443753D01*
X127066897Y-105286635D01*
X126848475Y-105169886D01*
X126700834Y-105125100D01*
X128748455Y-105125100D01*
X128537454Y-105336101D01*
X128306737Y-105681393D01*
X128147817Y-106065061D01*
X128066800Y-106472360D01*
X128066800Y-106887640D01*
X128147817Y-107294939D01*
X128306737Y-107678607D01*
X128537454Y-108023899D01*
X128831101Y-108317546D01*
X129176393Y-108548263D01*
X129560061Y-108707183D01*
X129967360Y-108788200D01*
X130382640Y-108788200D01*
X130789939Y-108707183D01*
X131173607Y-108548263D01*
X131518899Y-108317546D01*
X131812546Y-108023899D01*
X132043263Y-107678607D01*
X132202183Y-107294939D01*
X132283200Y-106887640D01*
X132283200Y-106472360D01*
X132202183Y-106065061D01*
X132043263Y-105681393D01*
X131812546Y-105336101D01*
X131601545Y-105125100D01*
X143646995Y-105125100D01*
X143670700Y-105127435D01*
X143694405Y-105125100D01*
X143694407Y-105125100D01*
X143765306Y-105118117D01*
X143856277Y-105090522D01*
X143940115Y-105045709D01*
X144013601Y-104985401D01*
X144028717Y-104966982D01*
X155207882Y-93787817D01*
X155226301Y-93772701D01*
X155286609Y-93699215D01*
X155331422Y-93615377D01*
X155359017Y-93524406D01*
X155366000Y-93453507D01*
X155366000Y-93453498D01*
X155368334Y-93429801D01*
X155366000Y-93406104D01*
X155366000Y-78813207D01*
X155368335Y-78789500D01*
X155359017Y-78694893D01*
X155331422Y-78603923D01*
X155315220Y-78573612D01*
X155286609Y-78520085D01*
X155226301Y-78446599D01*
X155207888Y-78431488D01*
X152775817Y-75999418D01*
X152760701Y-75980999D01*
X152687215Y-75920691D01*
X152603377Y-75875878D01*
X152512406Y-75848283D01*
X152441507Y-75841300D01*
X152441505Y-75841300D01*
X152417800Y-75838965D01*
X152394095Y-75841300D01*
X151827496Y-75841300D01*
X151803799Y-75838966D01*
X151780102Y-75841300D01*
X151780093Y-75841300D01*
X151709194Y-75848283D01*
X151618223Y-75875878D01*
X151534385Y-75920691D01*
X151460899Y-75980999D01*
X151445783Y-75999418D01*
X147666663Y-79778538D01*
X147653401Y-79775900D01*
X147500799Y-79775900D01*
X147351128Y-79805672D01*
X147210142Y-79864070D01*
X147083258Y-79948852D01*
X146975352Y-80056758D01*
X146890570Y-80183642D01*
X146832172Y-80324628D01*
X146802400Y-80474299D01*
X146802400Y-80626901D01*
X146832172Y-80776572D01*
X146890570Y-80917558D01*
X146975352Y-81044442D01*
X147083258Y-81152348D01*
X147210142Y-81237130D01*
X147351128Y-81295528D01*
X147500799Y-81325300D01*
X147653401Y-81325300D01*
X147803072Y-81295528D01*
X147944058Y-81237130D01*
X148070942Y-81152348D01*
X148178848Y-81044442D01*
X148263630Y-80917558D01*
X148322028Y-80776572D01*
X148351800Y-80626901D01*
X148351800Y-80474299D01*
X148349162Y-80461037D01*
X151433755Y-77376444D01*
X151439270Y-77389758D01*
X151524052Y-77516642D01*
X151631958Y-77624548D01*
X151758842Y-77709330D01*
X151899828Y-77767728D01*
X152049499Y-77797500D01*
X152202101Y-77797500D01*
X152215363Y-77794862D01*
X153994001Y-79573500D01*
X153994001Y-83819846D01*
X153925346Y-83593523D01*
X153729585Y-83227280D01*
X153466135Y-82906265D01*
X153145120Y-82642815D01*
X152778877Y-82447054D01*
X152381479Y-82326504D01*
X152071763Y-82296000D01*
X150340637Y-82296000D01*
X150030921Y-82326504D01*
X149633523Y-82447054D01*
X149267280Y-82642815D01*
X148946265Y-82906265D01*
X148682815Y-83227280D01*
X148487054Y-83593523D01*
X148366504Y-83990921D01*
X148325800Y-84404200D01*
X148366504Y-84817479D01*
X148487054Y-85214877D01*
X148682815Y-85581120D01*
X148946265Y-85902135D01*
X149267280Y-86165585D01*
X149633523Y-86361346D01*
X150030921Y-86481896D01*
X150082743Y-86487000D01*
X149834600Y-86487000D01*
X149834600Y-88773000D01*
X149854600Y-88773000D01*
X149854600Y-89027000D01*
X149834600Y-89027000D01*
X149834600Y-89047000D01*
X149580600Y-89047000D01*
X149580600Y-89027000D01*
X149560600Y-89027000D01*
X149560600Y-88773000D01*
X149580600Y-88773000D01*
X149580600Y-86487000D01*
X149072600Y-86487000D01*
X148604287Y-86558142D01*
X148158852Y-86719280D01*
X147753412Y-86964222D01*
X147403549Y-87283555D01*
X147122707Y-87665007D01*
X147036600Y-87848724D01*
X147036600Y-87083360D01*
X147047842Y-87075848D01*
X147155748Y-86967942D01*
X147240530Y-86841058D01*
X147298928Y-86700072D01*
X147328700Y-86550401D01*
X147328700Y-86397799D01*
X147298928Y-86248128D01*
X147240530Y-86107142D01*
X147155748Y-85980258D01*
X147047842Y-85872352D01*
X146920958Y-85787570D01*
X146779972Y-85729172D01*
X146630301Y-85699400D01*
X146477699Y-85699400D01*
X146328028Y-85729172D01*
X146187042Y-85787570D01*
X146060158Y-85872352D01*
X145952252Y-85980258D01*
X145867470Y-86107142D01*
X145809072Y-86248128D01*
X145779300Y-86397799D01*
X145779300Y-86550401D01*
X145794622Y-86627431D01*
X145539918Y-86418400D01*
X145129548Y-86199053D01*
X144684272Y-86063980D01*
X144221200Y-86018371D01*
X143758129Y-86063980D01*
X143312853Y-86199053D01*
X142902483Y-86418400D01*
X142542792Y-86713591D01*
X142247601Y-87073282D01*
X142028253Y-87483652D01*
X141893180Y-87928928D01*
X141859000Y-88275960D01*
X141859000Y-89524039D01*
X141893180Y-89871071D01*
X142028253Y-90316347D01*
X142247600Y-90726717D01*
X142542791Y-91086409D01*
X142902482Y-91381600D01*
X143312852Y-91600947D01*
X143758128Y-91736020D01*
X144221200Y-91781629D01*
X144452115Y-91758886D01*
X144170001Y-92041000D01*
X128581704Y-92041000D01*
X128557999Y-92038665D01*
X128534294Y-92041000D01*
X128534293Y-92041000D01*
X128463394Y-92047983D01*
X128372423Y-92075578D01*
X128288585Y-92120391D01*
X128215099Y-92180699D01*
X128199983Y-92199118D01*
X120960513Y-99438588D01*
X120942100Y-99453699D01*
X120926989Y-99472112D01*
X120926987Y-99472114D01*
X120881792Y-99527185D01*
X120836978Y-99611024D01*
X120809384Y-99701994D01*
X120800065Y-99796600D01*
X120802401Y-99820315D01*
X120802401Y-99831620D01*
X120767340Y-99842256D01*
X120533474Y-99967260D01*
X120328488Y-100135487D01*
X120160260Y-100340473D01*
X120035256Y-100574339D01*
X119958279Y-100828099D01*
X119938800Y-101025872D01*
X119938800Y-102174127D01*
X119958279Y-102371900D01*
X120035256Y-102625660D01*
X120160260Y-102859526D01*
X120210546Y-102920800D01*
X107876100Y-102920800D01*
X105578062Y-100622763D01*
X105580700Y-100609501D01*
X105580700Y-100456899D01*
X105550928Y-100307228D01*
X105497235Y-100177600D01*
X106779901Y-100177600D01*
X108831183Y-102228882D01*
X108846299Y-102247301D01*
X108919785Y-102307609D01*
X109003623Y-102352422D01*
X109094594Y-102380017D01*
X109165493Y-102387000D01*
X109165502Y-102387000D01*
X109189199Y-102389334D01*
X109212896Y-102387000D01*
X114760495Y-102387000D01*
X114784200Y-102389335D01*
X114807905Y-102387000D01*
X114807907Y-102387000D01*
X114878806Y-102380017D01*
X114969777Y-102352422D01*
X115053615Y-102307609D01*
X115127101Y-102247301D01*
X115142217Y-102228882D01*
X126185100Y-91186000D01*
X136501293Y-91186000D01*
X136525000Y-91188335D01*
X136548707Y-91186000D01*
X136619606Y-91179017D01*
X136710577Y-91151422D01*
X136794415Y-91106609D01*
X136867901Y-91046301D01*
X136928209Y-90972815D01*
X136973022Y-90888977D01*
X137000617Y-90798006D01*
X137009935Y-90703400D01*
X137007600Y-90679693D01*
X137007600Y-90668379D01*
X137042660Y-90657744D01*
X137276526Y-90532740D01*
X137481512Y-90364513D01*
X137616006Y-90200631D01*
X137762801Y-90430843D01*
X137987369Y-90665236D01*
X138253350Y-90851314D01*
X138550522Y-90981926D01*
X138682056Y-91013975D01*
X138938000Y-90894836D01*
X138938000Y-89027000D01*
X139192000Y-89027000D01*
X139192000Y-90894836D01*
X139447944Y-91013975D01*
X139579478Y-90981926D01*
X139876650Y-90851314D01*
X140142631Y-90665236D01*
X140367199Y-90430843D01*
X140541724Y-90157143D01*
X140659500Y-89854654D01*
X140716000Y-89535000D01*
X140716000Y-89027000D01*
X139192000Y-89027000D01*
X138938000Y-89027000D01*
X138918000Y-89027000D01*
X138918000Y-88773000D01*
X138938000Y-88773000D01*
X138938000Y-86905164D01*
X139192000Y-86905164D01*
X139192000Y-88773000D01*
X140716000Y-88773000D01*
X140716000Y-88265000D01*
X140659500Y-87945346D01*
X140541724Y-87642857D01*
X140367199Y-87369157D01*
X140142631Y-87134764D01*
X139876650Y-86948686D01*
X139579478Y-86818074D01*
X139447944Y-86786025D01*
X139192000Y-86905164D01*
X138938000Y-86905164D01*
X138682056Y-86786025D01*
X138550522Y-86818074D01*
X138253350Y-86948686D01*
X137987369Y-87134764D01*
X137762801Y-87369157D01*
X137616007Y-87599368D01*
X137481513Y-87435487D01*
X137276527Y-87267260D01*
X137120329Y-87183770D01*
X141743982Y-82560117D01*
X141762401Y-82545001D01*
X141822709Y-82471515D01*
X141867522Y-82387677D01*
X141895117Y-82296706D01*
X141902100Y-82225807D01*
X141902100Y-82225806D01*
X141904435Y-82202101D01*
X141902100Y-82178396D01*
X141902100Y-81884327D01*
X141950215Y-81858609D01*
X142023701Y-81798301D01*
X142038817Y-81779882D01*
X151594988Y-72223712D01*
X151613401Y-72208601D01*
X151673709Y-72135115D01*
X151718522Y-72051277D01*
X151744550Y-71965473D01*
X151764342Y-71952248D01*
X151872248Y-71844342D01*
X151957030Y-71717458D01*
X152015428Y-71576472D01*
X152045200Y-71426801D01*
X152045200Y-71274199D01*
X152015428Y-71124528D01*
X151957030Y-70983542D01*
X151872248Y-70856658D01*
X151764342Y-70748752D01*
X151637458Y-70663970D01*
X151496472Y-70605572D01*
X151346801Y-70575800D01*
X151194199Y-70575800D01*
X151044528Y-70605572D01*
X150903542Y-70663970D01*
X150776658Y-70748752D01*
X150668752Y-70856658D01*
X150583970Y-70983542D01*
X150525572Y-71124528D01*
X150495800Y-71274199D01*
X150495800Y-71426801D01*
X150525572Y-71576472D01*
X150583970Y-71717458D01*
X150644962Y-71808738D01*
X146372457Y-76081243D01*
X146290548Y-75958658D01*
X146182642Y-75850752D01*
X146055758Y-75765970D01*
X145914772Y-75707572D01*
X145765101Y-75677800D01*
X145612499Y-75677800D01*
X145462828Y-75707572D01*
X145321842Y-75765970D01*
X145194958Y-75850752D01*
X145087052Y-75958658D01*
X145079540Y-75969900D01*
X132811400Y-75969900D01*
X130069699Y-73228200D01*
X130382640Y-73228200D01*
X130789939Y-73147183D01*
X131173607Y-72988263D01*
X131518899Y-72757546D01*
X131812546Y-72463899D01*
X132043263Y-72118607D01*
X132202183Y-71734939D01*
X132283200Y-71327640D01*
X132283200Y-70912360D01*
X132202183Y-70505061D01*
X132043263Y-70121393D01*
X131812546Y-69776101D01*
X131518899Y-69482454D01*
X131173607Y-69251737D01*
X130789939Y-69092817D01*
X130382640Y-69011800D01*
X129967360Y-69011800D01*
X129560061Y-69092817D01*
X129176393Y-69251737D01*
X128831101Y-69482454D01*
X128537454Y-69776101D01*
X128306737Y-70121393D01*
X128232978Y-70299463D01*
X128182701Y-70238199D01*
X128164282Y-70223083D01*
X127212317Y-69271118D01*
X127197201Y-69252699D01*
X127123715Y-69192391D01*
X127039877Y-69147578D01*
X126948906Y-69119983D01*
X126878007Y-69113000D01*
X126878005Y-69113000D01*
X126854300Y-69110665D01*
X126830595Y-69113000D01*
X100442107Y-69113000D01*
X100418400Y-69110665D01*
X100323793Y-69119983D01*
X100232823Y-69147578D01*
X100148985Y-69192391D01*
X100075499Y-69252699D01*
X100060387Y-69271113D01*
X99376675Y-69954826D01*
X99318347Y-69883753D01*
X99126897Y-69726635D01*
X98908475Y-69609886D01*
X98671473Y-69537993D01*
X98425000Y-69513717D01*
X98178526Y-69537993D01*
X97941524Y-69609886D01*
X97723102Y-69726635D01*
X97531653Y-69883753D01*
X97374535Y-70075203D01*
X97257786Y-70293625D01*
X97185893Y-70530627D01*
X97167700Y-70715340D01*
X97167700Y-71524661D01*
X97185893Y-71709374D01*
X97257786Y-71946376D01*
X97374535Y-72164798D01*
X97531654Y-72356247D01*
X97723103Y-72513365D01*
X97941525Y-72630114D01*
X98178527Y-72702007D01*
X98425000Y-72726283D01*
X98671474Y-72702007D01*
X98908476Y-72630114D01*
X99126898Y-72513365D01*
X99318347Y-72356247D01*
X99475465Y-72164798D01*
X99592214Y-71946376D01*
X99664107Y-71709373D01*
X99674814Y-71600669D01*
X99714798Y-71596731D01*
X99725893Y-71709374D01*
X99797786Y-71946376D01*
X99914535Y-72164798D01*
X100071654Y-72356247D01*
X100263103Y-72513365D01*
X100481525Y-72630114D01*
X100718527Y-72702007D01*
X100965000Y-72726283D01*
X101211474Y-72702007D01*
X101448476Y-72630114D01*
X101666898Y-72513365D01*
X101858347Y-72356247D01*
X102015465Y-72164798D01*
X102132214Y-71946376D01*
X102204107Y-71709373D01*
X102222300Y-71524660D01*
X102222300Y-70715339D01*
X102204107Y-70530626D01*
X102132214Y-70293624D01*
X102017067Y-70078200D01*
X102452933Y-70078200D01*
X102337786Y-70293625D01*
X102265893Y-70530627D01*
X102247700Y-70715340D01*
X102247700Y-71524661D01*
X102265893Y-71709374D01*
X102337786Y-71946376D01*
X102454535Y-72164798D01*
X102611654Y-72356247D01*
X102803103Y-72513365D01*
X103021525Y-72630114D01*
X103258527Y-72702007D01*
X103505000Y-72726283D01*
X103751474Y-72702007D01*
X103793130Y-72689371D01*
X98408418Y-78074083D01*
X98389999Y-78089199D01*
X98329691Y-78162685D01*
X98284878Y-78246524D01*
X98257283Y-78337495D01*
X98253390Y-78377022D01*
X98247965Y-78432100D01*
X98250300Y-78455805D01*
X98250301Y-91013699D01*
X96435963Y-92828038D01*
X96422701Y-92825400D01*
X96270099Y-92825400D01*
X96120428Y-92855172D01*
X95979442Y-92913570D01*
X95852558Y-92998352D01*
X95744652Y-93106258D01*
X95659870Y-93233142D01*
X95601472Y-93374128D01*
X95571700Y-93523799D01*
X95571700Y-93676401D01*
X95601472Y-93826072D01*
X95659870Y-93967058D01*
X95744652Y-94093942D01*
X95852558Y-94201848D01*
X95979442Y-94286630D01*
X96120428Y-94345028D01*
X96270099Y-94374800D01*
X96422701Y-94374800D01*
X96572372Y-94345028D01*
X96713358Y-94286630D01*
X96840242Y-94201848D01*
X96948148Y-94093942D01*
X97032930Y-93967058D01*
X97091328Y-93826072D01*
X97121100Y-93676401D01*
X97121100Y-93523799D01*
X97118462Y-93510537D01*
X99057388Y-91571612D01*
X99075801Y-91556501D01*
X99136109Y-91483015D01*
X99180922Y-91399177D01*
X99208517Y-91308207D01*
X99217835Y-91213600D01*
X99215500Y-91189893D01*
X99215500Y-78631999D01*
X105162982Y-72684517D01*
X105181401Y-72669401D01*
X105241709Y-72595915D01*
X105286522Y-72512077D01*
X105297487Y-72475929D01*
X105343103Y-72513365D01*
X105561525Y-72630114D01*
X105798527Y-72702007D01*
X106045000Y-72726283D01*
X106291474Y-72702007D01*
X106528476Y-72630114D01*
X106746898Y-72513365D01*
X106938347Y-72356247D01*
X107095465Y-72164798D01*
X107212214Y-71946376D01*
X107284107Y-71709373D01*
X107302300Y-71524660D01*
X107302300Y-70715339D01*
X107284107Y-70530626D01*
X107212214Y-70293624D01*
X107097067Y-70078200D01*
X107532933Y-70078200D01*
X107417786Y-70293625D01*
X107345893Y-70530627D01*
X107327700Y-70715340D01*
X107327700Y-71524661D01*
X107345893Y-71709374D01*
X107417786Y-71946376D01*
X107534535Y-72164798D01*
X107691654Y-72356247D01*
X107883103Y-72513365D01*
X107997428Y-72574473D01*
X107760518Y-72811383D01*
X107742099Y-72826499D01*
X107681791Y-72899985D01*
X107636978Y-72983824D01*
X107609383Y-73074795D01*
X107605185Y-73117422D01*
X107600065Y-73169400D01*
X107602400Y-73193105D01*
X107602401Y-85646900D01*
X107459163Y-85790138D01*
X107445901Y-85787500D01*
X107293299Y-85787500D01*
X107143628Y-85817272D01*
X107002642Y-85875670D01*
X106875758Y-85960452D01*
X106767852Y-86068358D01*
X106683070Y-86195242D01*
X106624672Y-86336228D01*
X106594900Y-86485899D01*
X106594900Y-86638501D01*
X106624672Y-86788172D01*
X106641998Y-86830000D01*
X104446500Y-86830000D01*
X102595862Y-84979363D01*
X102598500Y-84966101D01*
X102598500Y-84813499D01*
X102568728Y-84663828D01*
X102510330Y-84522842D01*
X102425548Y-84395958D01*
X102317642Y-84288052D01*
X102190758Y-84203270D01*
X102049772Y-84144872D01*
X101900101Y-84115100D01*
X101747499Y-84115100D01*
X101597828Y-84144872D01*
X101456842Y-84203270D01*
X101329958Y-84288052D01*
X101293200Y-84324810D01*
X101293200Y-81184985D01*
X101524389Y-81339460D01*
X101797408Y-81452548D01*
X102087243Y-81510200D01*
X102382757Y-81510200D01*
X102672592Y-81452548D01*
X102945611Y-81339460D01*
X103191322Y-81175282D01*
X103400282Y-80966322D01*
X103564460Y-80720611D01*
X103677548Y-80447592D01*
X103735200Y-80157757D01*
X103735200Y-79862243D01*
X104544800Y-79862243D01*
X104544800Y-80157757D01*
X104602452Y-80447592D01*
X104715540Y-80720611D01*
X104879718Y-80966322D01*
X105088678Y-81175282D01*
X105334389Y-81339460D01*
X105607408Y-81452548D01*
X105897243Y-81510200D01*
X106192757Y-81510200D01*
X106482592Y-81452548D01*
X106755611Y-81339460D01*
X107001322Y-81175282D01*
X107210282Y-80966322D01*
X107374460Y-80720611D01*
X107487548Y-80447592D01*
X107545200Y-80157757D01*
X107545200Y-79862243D01*
X107487548Y-79572408D01*
X107374460Y-79299389D01*
X107210282Y-79053678D01*
X107001322Y-78844718D01*
X106755611Y-78680540D01*
X106482592Y-78567452D01*
X106192757Y-78509800D01*
X105897243Y-78509800D01*
X105607408Y-78567452D01*
X105334389Y-78680540D01*
X105088678Y-78844718D01*
X104879718Y-79053678D01*
X104715540Y-79299389D01*
X104602452Y-79572408D01*
X104544800Y-79862243D01*
X103735200Y-79862243D01*
X103677548Y-79572408D01*
X103564460Y-79299389D01*
X103400282Y-79053678D01*
X103191322Y-78844718D01*
X102945611Y-78680540D01*
X102672592Y-78567452D01*
X102382757Y-78509800D01*
X102087243Y-78509800D01*
X101797408Y-78567452D01*
X101524389Y-78680540D01*
X101278678Y-78844718D01*
X101117945Y-79005451D01*
X101043212Y-78914388D01*
X100911712Y-78806469D01*
X100761684Y-78726278D01*
X100598895Y-78676896D01*
X100429600Y-78660222D01*
X100260306Y-78676896D01*
X100097517Y-78726278D01*
X99947489Y-78806469D01*
X99815989Y-78914388D01*
X99708070Y-79045888D01*
X99627879Y-79195916D01*
X99578497Y-79358705D01*
X99566001Y-79485580D01*
X99566000Y-90857380D01*
X99561822Y-90899800D01*
X99566200Y-90944251D01*
X99566201Y-93497084D01*
X95939346Y-97123941D01*
X95906389Y-97150988D01*
X95827560Y-97247042D01*
X95798469Y-97282489D01*
X95718279Y-97432516D01*
X95668896Y-97595306D01*
X95652222Y-97764600D01*
X95656401Y-97807030D01*
X95656401Y-98517655D01*
X95607475Y-98577271D01*
X95506057Y-98767012D01*
X95443604Y-98972892D01*
X95427800Y-99133352D01*
X95427800Y-100256649D01*
X95443604Y-100417109D01*
X95506058Y-100622989D01*
X95607476Y-100812729D01*
X95743963Y-100979038D01*
X95910272Y-101115525D01*
X96100012Y-101216943D01*
X96305892Y-101279396D01*
X96520000Y-101300484D01*
X96734109Y-101279396D01*
X96939989Y-101216943D01*
X97129729Y-101115525D01*
X97296038Y-100979038D01*
X97432525Y-100812729D01*
X97451300Y-100777603D01*
X97451301Y-104431199D01*
X96767018Y-105115483D01*
X96748599Y-105130599D01*
X96688291Y-105204085D01*
X96643478Y-105287924D01*
X96632513Y-105324071D01*
X96586897Y-105286635D01*
X96368475Y-105169886D01*
X96131473Y-105097993D01*
X95885000Y-105073717D01*
X95638526Y-105097993D01*
X95401524Y-105169886D01*
X95183102Y-105286635D01*
X94991653Y-105443753D01*
X94834535Y-105635203D01*
X94717786Y-105853625D01*
X94645893Y-106090627D01*
X94627700Y-106275340D01*
X94602300Y-106275340D01*
X94602300Y-106275339D01*
X94584107Y-106090626D01*
X94512214Y-105853624D01*
X94395465Y-105635202D01*
X94238347Y-105443753D01*
X94046897Y-105286635D01*
X93828475Y-105169886D01*
X93591473Y-105097993D01*
X93345000Y-105073717D01*
X93098526Y-105097993D01*
X92861524Y-105169886D01*
X92643102Y-105286635D01*
X92451653Y-105443753D01*
X92294535Y-105635203D01*
X92177786Y-105853625D01*
X92105893Y-106090627D01*
X92087700Y-106275340D01*
X92062300Y-106275340D01*
X92062300Y-106275339D01*
X92044107Y-106090626D01*
X91972214Y-105853624D01*
X91855465Y-105635202D01*
X91698347Y-105443753D01*
X91506897Y-105286635D01*
X91288475Y-105169886D01*
X91051473Y-105097993D01*
X90805000Y-105073717D01*
X90558526Y-105097993D01*
X90321524Y-105169886D01*
X90103102Y-105286635D01*
X89911653Y-105443753D01*
X89754535Y-105635203D01*
X89637786Y-105853625D01*
X89565893Y-106090627D01*
X89547700Y-106275340D01*
X89522300Y-106275340D01*
X89522300Y-106275339D01*
X89504107Y-106090626D01*
X89432214Y-105853624D01*
X89315465Y-105635202D01*
X89158347Y-105443753D01*
X88966897Y-105286635D01*
X88748475Y-105169886D01*
X88511473Y-105097993D01*
X88265000Y-105073717D01*
X88018526Y-105097993D01*
X87781524Y-105169886D01*
X87563102Y-105286635D01*
X87371653Y-105443753D01*
X87214535Y-105635203D01*
X87097786Y-105853625D01*
X87025893Y-106090627D01*
X87007700Y-106275340D01*
X86055200Y-106275340D01*
X86055200Y-101392360D01*
X87426800Y-101392360D01*
X87426800Y-101807640D01*
X87507817Y-102214939D01*
X87666737Y-102598607D01*
X87897454Y-102943899D01*
X88191101Y-103237546D01*
X88536393Y-103468263D01*
X88920061Y-103627183D01*
X89327360Y-103708200D01*
X89742640Y-103708200D01*
X90149939Y-103627183D01*
X90533607Y-103468263D01*
X90878899Y-103237546D01*
X91172546Y-102943899D01*
X91403263Y-102598607D01*
X91562183Y-102214939D01*
X91643200Y-101807640D01*
X91643200Y-101392360D01*
X91562183Y-100985061D01*
X91403263Y-100601393D01*
X91172546Y-100256101D01*
X90878899Y-99962454D01*
X90533607Y-99731737D01*
X90149939Y-99572817D01*
X89742640Y-99491800D01*
X89327360Y-99491800D01*
X88920061Y-99572817D01*
X88536393Y-99731737D01*
X88191101Y-99962454D01*
X87897454Y-100256101D01*
X87666737Y-100601393D01*
X87507817Y-100985061D01*
X87426800Y-101392360D01*
X86055200Y-101392360D01*
X86055200Y-75992360D01*
X87426800Y-75992360D01*
X87426800Y-76407640D01*
X87507817Y-76814939D01*
X87666737Y-77198607D01*
X87897454Y-77543899D01*
X88191101Y-77837546D01*
X88536393Y-78068263D01*
X88920061Y-78227183D01*
X89327360Y-78308200D01*
X89742640Y-78308200D01*
X90149939Y-78227183D01*
X90533607Y-78068263D01*
X90878899Y-77837546D01*
X91172546Y-77543899D01*
X91403263Y-77198607D01*
X91562183Y-76814939D01*
X91643200Y-76407640D01*
X91643200Y-75992360D01*
X91562183Y-75585061D01*
X91403263Y-75201393D01*
X91172546Y-74856101D01*
X90878899Y-74562454D01*
X90533607Y-74331737D01*
X90149939Y-74172817D01*
X89742640Y-74091800D01*
X89327360Y-74091800D01*
X88920061Y-74172817D01*
X88536393Y-74331737D01*
X88191101Y-74562454D01*
X87897454Y-74856101D01*
X87666737Y-75201393D01*
X87507817Y-75585061D01*
X87426800Y-75992360D01*
X86055200Y-75992360D01*
X86055200Y-69850000D01*
X87006103Y-69850000D01*
X87006103Y-72390000D01*
X87012478Y-72454730D01*
X87031360Y-72516973D01*
X87062021Y-72574337D01*
X87103284Y-72624616D01*
X87153563Y-72665879D01*
X87210927Y-72696540D01*
X87273170Y-72715422D01*
X87337900Y-72721797D01*
X89192100Y-72721797D01*
X89256830Y-72715422D01*
X89319073Y-72696540D01*
X89376437Y-72665879D01*
X89426716Y-72624616D01*
X89467979Y-72574337D01*
X89498640Y-72516973D01*
X89517522Y-72454730D01*
X89523897Y-72390000D01*
X89523897Y-72354303D01*
X89576719Y-72436352D01*
X89790231Y-72657273D01*
X90042740Y-72832295D01*
X90324542Y-72954692D01*
X90436006Y-72980793D01*
X90678000Y-72860492D01*
X90678000Y-71247000D01*
X90658000Y-71247000D01*
X90658000Y-70993000D01*
X90678000Y-70993000D01*
X90678000Y-69379508D01*
X90932000Y-69379508D01*
X90932000Y-70993000D01*
X90952000Y-70993000D01*
X90952000Y-71247000D01*
X90932000Y-71247000D01*
X90932000Y-72860492D01*
X91173994Y-72980793D01*
X91285458Y-72954692D01*
X91567260Y-72832295D01*
X91819769Y-72657273D01*
X92033281Y-72436352D01*
X92199591Y-72178022D01*
X92242902Y-72068200D01*
X92294535Y-72164798D01*
X92451654Y-72356247D01*
X92643103Y-72513365D01*
X92861525Y-72630114D01*
X93098527Y-72702007D01*
X93345000Y-72726283D01*
X93591474Y-72702007D01*
X93828476Y-72630114D01*
X94046898Y-72513365D01*
X94238347Y-72356247D01*
X94395465Y-72164798D01*
X94512214Y-71946376D01*
X94584107Y-71709373D01*
X94602300Y-71524660D01*
X94602300Y-70715340D01*
X94627700Y-70715340D01*
X94627700Y-71524661D01*
X94645893Y-71709374D01*
X94717786Y-71946376D01*
X94834535Y-72164798D01*
X94991654Y-72356247D01*
X95183103Y-72513365D01*
X95401525Y-72630114D01*
X95638527Y-72702007D01*
X95885000Y-72726283D01*
X96131474Y-72702007D01*
X96368476Y-72630114D01*
X96586898Y-72513365D01*
X96778347Y-72356247D01*
X96935465Y-72164798D01*
X97052214Y-71946376D01*
X97124107Y-71709373D01*
X97142300Y-71524660D01*
X97142300Y-70715339D01*
X97124107Y-70530626D01*
X97052214Y-70293624D01*
X96935465Y-70075202D01*
X96778347Y-69883753D01*
X96586897Y-69726635D01*
X96368475Y-69609886D01*
X96131473Y-69537993D01*
X95885000Y-69513717D01*
X95638526Y-69537993D01*
X95401524Y-69609886D01*
X95183102Y-69726635D01*
X94991653Y-69883753D01*
X94834535Y-70075203D01*
X94717786Y-70293625D01*
X94645893Y-70530627D01*
X94627700Y-70715340D01*
X94602300Y-70715340D01*
X94602300Y-70715339D01*
X94584107Y-70530626D01*
X94512214Y-70293624D01*
X94395465Y-70075202D01*
X94238347Y-69883753D01*
X94046897Y-69726635D01*
X93828475Y-69609886D01*
X93591473Y-69537993D01*
X93345000Y-69513717D01*
X93098526Y-69537993D01*
X92861524Y-69609886D01*
X92643102Y-69726635D01*
X92451653Y-69883753D01*
X92294535Y-70075203D01*
X92242902Y-70171801D01*
X92199591Y-70061978D01*
X92033281Y-69803648D01*
X91819769Y-69582727D01*
X91567260Y-69407705D01*
X91285458Y-69285308D01*
X91173994Y-69259207D01*
X90932000Y-69379508D01*
X90678000Y-69379508D01*
X90436006Y-69259207D01*
X90324542Y-69285308D01*
X90042740Y-69407705D01*
X89790231Y-69582727D01*
X89576719Y-69803648D01*
X89523897Y-69885697D01*
X89523897Y-69850000D01*
X89517522Y-69785270D01*
X89498640Y-69723027D01*
X89467979Y-69665663D01*
X89426716Y-69615384D01*
X89376437Y-69574121D01*
X89319073Y-69543460D01*
X89256830Y-69524578D01*
X89192100Y-69518203D01*
X87337900Y-69518203D01*
X87273170Y-69524578D01*
X87210927Y-69543460D01*
X87153563Y-69574121D01*
X87103284Y-69615384D01*
X87062021Y-69665663D01*
X87031360Y-69723027D01*
X87012478Y-69785270D01*
X87006103Y-69850000D01*
X86055200Y-69850000D01*
X86055200Y-68275200D01*
X155879801Y-68275200D01*
X155879800Y-109524800D01*
X155879800Y-109524800D01*
G37*
X155879800Y-109524800D02*
X86055200Y-109524800D01*
X86055200Y-106275340D01*
X87007700Y-106275340D01*
X87007700Y-107084661D01*
X87025893Y-107269374D01*
X87097786Y-107506376D01*
X87214535Y-107724798D01*
X87371654Y-107916247D01*
X87563103Y-108073365D01*
X87781525Y-108190114D01*
X88018527Y-108262007D01*
X88265000Y-108286283D01*
X88511474Y-108262007D01*
X88748476Y-108190114D01*
X88966898Y-108073365D01*
X89158347Y-107916247D01*
X89315465Y-107724798D01*
X89432214Y-107506376D01*
X89504107Y-107269373D01*
X89522300Y-107084660D01*
X89522300Y-106275340D01*
X89547700Y-106275340D01*
X89547700Y-107084661D01*
X89565893Y-107269374D01*
X89637786Y-107506376D01*
X89754535Y-107724798D01*
X89911654Y-107916247D01*
X90103103Y-108073365D01*
X90321525Y-108190114D01*
X90558527Y-108262007D01*
X90805000Y-108286283D01*
X91051474Y-108262007D01*
X91288476Y-108190114D01*
X91506898Y-108073365D01*
X91698347Y-107916247D01*
X91855465Y-107724798D01*
X91972214Y-107506376D01*
X92044107Y-107269373D01*
X92062300Y-107084660D01*
X92062300Y-106275340D01*
X92087700Y-106275340D01*
X92087700Y-107084661D01*
X92105893Y-107269374D01*
X92177786Y-107506376D01*
X92294535Y-107724798D01*
X92451654Y-107916247D01*
X92643103Y-108073365D01*
X92861525Y-108190114D01*
X93098527Y-108262007D01*
X93345000Y-108286283D01*
X93591474Y-108262007D01*
X93828476Y-108190114D01*
X94046898Y-108073365D01*
X94238347Y-107916247D01*
X94395465Y-107724798D01*
X94512214Y-107506376D01*
X94584107Y-107269373D01*
X94602300Y-107084660D01*
X94602300Y-106275340D01*
X94627700Y-106275340D01*
X94627700Y-107084661D01*
X94645893Y-107269374D01*
X94717786Y-107506376D01*
X94834535Y-107724798D01*
X94991654Y-107916247D01*
X95183103Y-108073365D01*
X95401525Y-108190114D01*
X95638527Y-108262007D01*
X95885000Y-108286283D01*
X96131474Y-108262007D01*
X96368476Y-108190114D01*
X96586898Y-108073365D01*
X96778347Y-107916247D01*
X96935465Y-107724798D01*
X97052214Y-107506376D01*
X97124107Y-107269373D01*
X97134814Y-107160669D01*
X97174798Y-107156731D01*
X97185893Y-107269374D01*
X97257786Y-107506376D01*
X97374535Y-107724798D01*
X97531654Y-107916247D01*
X97723103Y-108073365D01*
X97941525Y-108190114D01*
X98178527Y-108262007D01*
X98425000Y-108286283D01*
X98671474Y-108262007D01*
X98908476Y-108190114D01*
X99126898Y-108073365D01*
X99318347Y-107916247D01*
X99475465Y-107724798D01*
X99592214Y-107506376D01*
X99664107Y-107269373D01*
X99682300Y-107084660D01*
X99682300Y-106275340D01*
X99707700Y-106275340D01*
X99707700Y-107084661D01*
X99725893Y-107269374D01*
X99797786Y-107506376D01*
X99914535Y-107724798D01*
X100071654Y-107916247D01*
X100263103Y-108073365D01*
X100481525Y-108190114D01*
X100718527Y-108262007D01*
X100965000Y-108286283D01*
X101211474Y-108262007D01*
X101448476Y-108190114D01*
X101666898Y-108073365D01*
X101858347Y-107916247D01*
X102015465Y-107724798D01*
X102132214Y-107506376D01*
X102204107Y-107269373D01*
X102222300Y-107084660D01*
X102222300Y-106275340D01*
X102247700Y-106275340D01*
X102247700Y-107084661D01*
X102265893Y-107269374D01*
X102337786Y-107506376D01*
X102454535Y-107724798D01*
X102611654Y-107916247D01*
X102803103Y-108073365D01*
X103021525Y-108190114D01*
X103258527Y-108262007D01*
X103505000Y-108286283D01*
X103751474Y-108262007D01*
X103988476Y-108190114D01*
X104206898Y-108073365D01*
X104398347Y-107916247D01*
X104555465Y-107724798D01*
X104672214Y-107506376D01*
X104744107Y-107269373D01*
X104762300Y-107084660D01*
X104762300Y-106275340D01*
X104787700Y-106275340D01*
X104787700Y-107084661D01*
X104805893Y-107269374D01*
X104877786Y-107506376D01*
X104994535Y-107724798D01*
X105151654Y-107916247D01*
X105343103Y-108073365D01*
X105561525Y-108190114D01*
X105798527Y-108262007D01*
X106045000Y-108286283D01*
X106291474Y-108262007D01*
X106528476Y-108190114D01*
X106746898Y-108073365D01*
X106938347Y-107916247D01*
X107095465Y-107724798D01*
X107212214Y-107506376D01*
X107284107Y-107269373D01*
X107302300Y-107084660D01*
X107302300Y-106275340D01*
X107327700Y-106275340D01*
X107327700Y-107084661D01*
X107345893Y-107269374D01*
X107417786Y-107506376D01*
X107534535Y-107724798D01*
X107691654Y-107916247D01*
X107883103Y-108073365D01*
X108101525Y-108190114D01*
X108338527Y-108262007D01*
X108585000Y-108286283D01*
X108831474Y-108262007D01*
X109068476Y-108190114D01*
X109286898Y-108073365D01*
X109478347Y-107916247D01*
X109635465Y-107724798D01*
X109752214Y-107506376D01*
X109824107Y-107269373D01*
X109842300Y-107084660D01*
X109842300Y-106275340D01*
X109867700Y-106275340D01*
X109867700Y-107084661D01*
X109885893Y-107269374D01*
X109957786Y-107506376D01*
X110074535Y-107724798D01*
X110231654Y-107916247D01*
X110423103Y-108073365D01*
X110641525Y-108190114D01*
X110878527Y-108262007D01*
X111125000Y-108286283D01*
X111371474Y-108262007D01*
X111608476Y-108190114D01*
X111826898Y-108073365D01*
X112018347Y-107916247D01*
X112175465Y-107724798D01*
X112292214Y-107506376D01*
X112364107Y-107269373D01*
X112382300Y-107084660D01*
X112382300Y-106275340D01*
X112407700Y-106275340D01*
X112407700Y-107084661D01*
X112425893Y-107269374D01*
X112497786Y-107506376D01*
X112614535Y-107724798D01*
X112771654Y-107916247D01*
X112963103Y-108073365D01*
X113181525Y-108190114D01*
X113418527Y-108262007D01*
X113665000Y-108286283D01*
X113911474Y-108262007D01*
X114148476Y-108190114D01*
X114366898Y-108073365D01*
X114558347Y-107916247D01*
X114715465Y-107724798D01*
X114832214Y-107506376D01*
X114904107Y-107269373D01*
X114922300Y-107084660D01*
X114922300Y-106275340D01*
X114947700Y-106275340D01*
X114947700Y-107084661D01*
X114965893Y-107269374D01*
X115037786Y-107506376D01*
X115154535Y-107724798D01*
X115311654Y-107916247D01*
X115503103Y-108073365D01*
X115721525Y-108190114D01*
X115958527Y-108262007D01*
X116205000Y-108286283D01*
X116451474Y-108262007D01*
X116688476Y-108190114D01*
X116906898Y-108073365D01*
X117098347Y-107916247D01*
X117255465Y-107724798D01*
X117372214Y-107506376D01*
X117444107Y-107269373D01*
X117462300Y-107084660D01*
X117462300Y-106275340D01*
X117487700Y-106275340D01*
X117487700Y-107084661D01*
X117505893Y-107269374D01*
X117577786Y-107506376D01*
X117694535Y-107724798D01*
X117851654Y-107916247D01*
X118043103Y-108073365D01*
X118261525Y-108190114D01*
X118498527Y-108262007D01*
X118745000Y-108286283D01*
X118991474Y-108262007D01*
X119228476Y-108190114D01*
X119446898Y-108073365D01*
X119638347Y-107916247D01*
X119795465Y-107724798D01*
X119912214Y-107506376D01*
X119984107Y-107269373D01*
X120002300Y-107084660D01*
X120002300Y-106275339D01*
X119984107Y-106090626D01*
X119912214Y-105853624D01*
X119795465Y-105635202D01*
X119638347Y-105443753D01*
X119446897Y-105286635D01*
X119228475Y-105169886D01*
X118991473Y-105097993D01*
X118745000Y-105073717D01*
X118498526Y-105097993D01*
X118261524Y-105169886D01*
X118043102Y-105286635D01*
X117851653Y-105443753D01*
X117694535Y-105635203D01*
X117577786Y-105853625D01*
X117505893Y-106090627D01*
X117487700Y-106275340D01*
X117462300Y-106275340D01*
X117462300Y-106275339D01*
X117444107Y-106090626D01*
X117372214Y-105853624D01*
X117255465Y-105635202D01*
X117098347Y-105443753D01*
X116906897Y-105286635D01*
X116688475Y-105169886D01*
X116451473Y-105097993D01*
X116205000Y-105073717D01*
X115958526Y-105097993D01*
X115721524Y-105169886D01*
X115503102Y-105286635D01*
X115311653Y-105443753D01*
X115154535Y-105635203D01*
X115037786Y-105853625D01*
X114965893Y-106090627D01*
X114947700Y-106275340D01*
X114922300Y-106275340D01*
X114922300Y-106275339D01*
X114904107Y-106090626D01*
X114832214Y-105853624D01*
X114715465Y-105635202D01*
X114558347Y-105443753D01*
X114366897Y-105286635D01*
X114148475Y-105169886D01*
X113911473Y-105097993D01*
X113665000Y-105073717D01*
X113418526Y-105097993D01*
X113181524Y-105169886D01*
X112963102Y-105286635D01*
X112771653Y-105443753D01*
X112614535Y-105635203D01*
X112497786Y-105853625D01*
X112425893Y-106090627D01*
X112407700Y-106275340D01*
X112382300Y-106275340D01*
X112382300Y-106275339D01*
X112364107Y-106090626D01*
X112292214Y-105853624D01*
X112175465Y-105635202D01*
X112018347Y-105443753D01*
X111826897Y-105286635D01*
X111608475Y-105169886D01*
X111371473Y-105097993D01*
X111125000Y-105073717D01*
X110878526Y-105097993D01*
X110641524Y-105169886D01*
X110423102Y-105286635D01*
X110231653Y-105443753D01*
X110074535Y-105635203D01*
X109957786Y-105853625D01*
X109885893Y-106090627D01*
X109867700Y-106275340D01*
X109842300Y-106275340D01*
X109842300Y-106275339D01*
X109824107Y-106090626D01*
X109752214Y-105853624D01*
X109635465Y-105635202D01*
X109478347Y-105443753D01*
X109286897Y-105286635D01*
X109068475Y-105169886D01*
X108831473Y-105097993D01*
X108585000Y-105073717D01*
X108338526Y-105097993D01*
X108101524Y-105169886D01*
X107883102Y-105286635D01*
X107691653Y-105443753D01*
X107534535Y-105635203D01*
X107417786Y-105853625D01*
X107345893Y-106090627D01*
X107327700Y-106275340D01*
X107302300Y-106275340D01*
X107302300Y-106275339D01*
X107284107Y-106090626D01*
X107212214Y-105853624D01*
X107095465Y-105635202D01*
X106938347Y-105443753D01*
X106746897Y-105286635D01*
X106528475Y-105169886D01*
X106291473Y-105097993D01*
X106045000Y-105073717D01*
X105798526Y-105097993D01*
X105561524Y-105169886D01*
X105343102Y-105286635D01*
X105151653Y-105443753D01*
X104994535Y-105635203D01*
X104877786Y-105853625D01*
X104805893Y-106090627D01*
X104787700Y-106275340D01*
X104762300Y-106275340D01*
X104762300Y-106275339D01*
X104744107Y-106090626D01*
X104672214Y-105853624D01*
X104555465Y-105635202D01*
X104398347Y-105443753D01*
X104206897Y-105286635D01*
X103988475Y-105169886D01*
X103751473Y-105097993D01*
X103505000Y-105073717D01*
X103258526Y-105097993D01*
X103021524Y-105169886D01*
X102803102Y-105286635D01*
X102611653Y-105443753D01*
X102454535Y-105635203D01*
X102337786Y-105853625D01*
X102265893Y-106090627D01*
X102247700Y-106275340D01*
X102222300Y-106275340D01*
X102222300Y-106275339D01*
X102204107Y-106090626D01*
X102132214Y-105853624D01*
X102015465Y-105635202D01*
X101858347Y-105443753D01*
X101666897Y-105286635D01*
X101448475Y-105169886D01*
X101211473Y-105097993D01*
X100965000Y-105073717D01*
X100718526Y-105097993D01*
X100481524Y-105169886D01*
X100263102Y-105286635D01*
X100071653Y-105443753D01*
X99914535Y-105635203D01*
X99797786Y-105853625D01*
X99725893Y-106090627D01*
X99707700Y-106275340D01*
X99682300Y-106275340D01*
X99682300Y-106275339D01*
X99664107Y-106090626D01*
X99592214Y-105853624D01*
X99475465Y-105635202D01*
X99318347Y-105443753D01*
X99126897Y-105286635D01*
X98908475Y-105169886D01*
X98671473Y-105097993D01*
X98425000Y-105073717D01*
X98178526Y-105097993D01*
X98136871Y-105110629D01*
X98258387Y-104989112D01*
X98276801Y-104974001D01*
X98337109Y-104900515D01*
X98381922Y-104816677D01*
X98409517Y-104725707D01*
X98418835Y-104631100D01*
X98416500Y-104607393D01*
X98416500Y-101446559D01*
X98642724Y-101542262D01*
X98716930Y-101557220D01*
X98933000Y-101434720D01*
X98933000Y-99822000D01*
X99187000Y-99822000D01*
X99187000Y-101434720D01*
X99403070Y-101557220D01*
X99477276Y-101542262D01*
X99730535Y-101435122D01*
X99958026Y-101280632D01*
X100151006Y-101084729D01*
X100302059Y-100854942D01*
X100405381Y-100600101D01*
X100457000Y-100330000D01*
X100457000Y-99822000D01*
X99187000Y-99822000D01*
X98933000Y-99822000D01*
X98913000Y-99822000D01*
X98913000Y-99568000D01*
X98933000Y-99568000D01*
X98933000Y-99548000D01*
X99187000Y-99548000D01*
X99187000Y-99568000D01*
X100457000Y-99568000D01*
X100457000Y-99060000D01*
X100405381Y-98789899D01*
X100302059Y-98535058D01*
X100151006Y-98305271D01*
X99958026Y-98109368D01*
X99730535Y-97954878D01*
X99477276Y-97847738D01*
X99403070Y-97832780D01*
X99187002Y-97955279D01*
X99187002Y-97861597D01*
X99523338Y-97525262D01*
X99536599Y-97527900D01*
X99689201Y-97527900D01*
X99838872Y-97498128D01*
X99979858Y-97439730D01*
X100106742Y-97354948D01*
X100214648Y-97247042D01*
X100299430Y-97120158D01*
X100357828Y-96979172D01*
X100387600Y-96829501D01*
X100387600Y-96676899D01*
X100384962Y-96663637D01*
X101593599Y-95455000D01*
X104341928Y-95455000D01*
X104345000Y-96869250D01*
X104503750Y-97028000D01*
X106553000Y-97028000D01*
X106553000Y-94978750D01*
X106807000Y-94978750D01*
X106807000Y-97028000D01*
X108856250Y-97028000D01*
X109015000Y-96869250D01*
X109018072Y-95455000D01*
X109005812Y-95330518D01*
X108969502Y-95210820D01*
X108910537Y-95100506D01*
X108831185Y-95003815D01*
X108734494Y-94924463D01*
X108624180Y-94865498D01*
X108504482Y-94829188D01*
X108380000Y-94816928D01*
X106965750Y-94820000D01*
X106807000Y-94978750D01*
X106553000Y-94978750D01*
X106394250Y-94820000D01*
X104980000Y-94816928D01*
X104855518Y-94829188D01*
X104735820Y-94865498D01*
X104625506Y-94924463D01*
X104528815Y-95003815D01*
X104449463Y-95100506D01*
X104390498Y-95210820D01*
X104354188Y-95330518D01*
X104341928Y-95455000D01*
X101593599Y-95455000D01*
X103125700Y-93922900D01*
X105877510Y-93922900D01*
X105951558Y-93996948D01*
X106078442Y-94081730D01*
X106219428Y-94140128D01*
X106369099Y-94169900D01*
X106521701Y-94169900D01*
X106671372Y-94140128D01*
X106812358Y-94081730D01*
X106939242Y-93996948D01*
X107013290Y-93922900D01*
X108198101Y-93922900D01*
X108408738Y-94133537D01*
X108406100Y-94146799D01*
X108406100Y-94299401D01*
X108435872Y-94449072D01*
X108494270Y-94590058D01*
X108579052Y-94716942D01*
X108686958Y-94824848D01*
X108813842Y-94909630D01*
X108954828Y-94968028D01*
X109104499Y-94997800D01*
X109257101Y-94997800D01*
X109406772Y-94968028D01*
X109547758Y-94909630D01*
X109674642Y-94824848D01*
X109782548Y-94716942D01*
X109867330Y-94590058D01*
X109925728Y-94449072D01*
X109955500Y-94299401D01*
X109955500Y-94146799D01*
X109925728Y-93997128D01*
X109867330Y-93856142D01*
X109782548Y-93729258D01*
X109674642Y-93621352D01*
X109547758Y-93536570D01*
X109406772Y-93478172D01*
X109257101Y-93448400D01*
X109104499Y-93448400D01*
X109091237Y-93451038D01*
X108756017Y-93115818D01*
X108740901Y-93097399D01*
X108667415Y-93037091D01*
X108583577Y-92992278D01*
X108492606Y-92964683D01*
X108421707Y-92957700D01*
X108421705Y-92957700D01*
X108398000Y-92955365D01*
X108374295Y-92957700D01*
X107084795Y-92957700D01*
X107047148Y-92901358D01*
X106939242Y-92793452D01*
X106812358Y-92708670D01*
X106671372Y-92650272D01*
X106521701Y-92620500D01*
X106369099Y-92620500D01*
X106219428Y-92650272D01*
X106078442Y-92708670D01*
X105951558Y-92793452D01*
X105843652Y-92901358D01*
X105806005Y-92957700D01*
X102949504Y-92957700D01*
X102925799Y-92955365D01*
X102902094Y-92957700D01*
X102902093Y-92957700D01*
X102831194Y-92964683D01*
X102740223Y-92992278D01*
X102656385Y-93037091D01*
X102582899Y-93097399D01*
X102567788Y-93115812D01*
X99702463Y-95981138D01*
X99689201Y-95978500D01*
X99536599Y-95978500D01*
X99525134Y-95980781D01*
X101010460Y-94495455D01*
X101043412Y-94468412D01*
X101151331Y-94336912D01*
X101231522Y-94186884D01*
X101280904Y-94024095D01*
X101293400Y-93897220D01*
X101293400Y-93897218D01*
X101297578Y-93854801D01*
X101293400Y-93812383D01*
X101293400Y-91763600D01*
X112333203Y-91763600D01*
X112333203Y-92950000D01*
X112339578Y-93014730D01*
X112358460Y-93076973D01*
X112389121Y-93134337D01*
X112430384Y-93184616D01*
X112480663Y-93225879D01*
X112538027Y-93256540D01*
X112600270Y-93275422D01*
X112665000Y-93281797D01*
X114665000Y-93281797D01*
X114729730Y-93275422D01*
X114791973Y-93256540D01*
X114849337Y-93225879D01*
X114899616Y-93184616D01*
X114940879Y-93134337D01*
X114971540Y-93076973D01*
X114990422Y-93014730D01*
X114996797Y-92950000D01*
X114996797Y-91780579D01*
X115027688Y-91805931D01*
X115177716Y-91886122D01*
X115340505Y-91935504D01*
X115509800Y-91952178D01*
X115552220Y-91948000D01*
X121242580Y-91948000D01*
X121285000Y-91952178D01*
X121327420Y-91948000D01*
X121454295Y-91935504D01*
X121617084Y-91886122D01*
X121767112Y-91805931D01*
X121898612Y-91698012D01*
X122006531Y-91566512D01*
X122086722Y-91416484D01*
X122136104Y-91253695D01*
X122152778Y-91084400D01*
X122148600Y-91041980D01*
X122148600Y-90440764D01*
X122241512Y-90364513D01*
X122376006Y-90200631D01*
X122522801Y-90430843D01*
X122747369Y-90665236D01*
X123013350Y-90851314D01*
X123310522Y-90981926D01*
X123442056Y-91013975D01*
X123698000Y-90894836D01*
X123698000Y-89027000D01*
X123678000Y-89027000D01*
X123678000Y-88773000D01*
X123698000Y-88773000D01*
X123698000Y-86905164D01*
X123442056Y-86786025D01*
X123310522Y-86818074D01*
X123013350Y-86948686D01*
X122747369Y-87134764D01*
X122522801Y-87369157D01*
X122376007Y-87599368D01*
X122241513Y-87435487D01*
X122036527Y-87267260D01*
X121802661Y-87142256D01*
X121548901Y-87065279D01*
X121285000Y-87039287D01*
X121021100Y-87065279D01*
X120767340Y-87142256D01*
X120533474Y-87267260D01*
X120328488Y-87435487D01*
X120160260Y-87640473D01*
X120035256Y-87874339D01*
X119958279Y-88128099D01*
X119938800Y-88325872D01*
X119938800Y-89474127D01*
X119958279Y-89671900D01*
X120035256Y-89925660D01*
X120160260Y-90159526D01*
X120210546Y-90220800D01*
X115859093Y-90220800D01*
X115807512Y-90178469D01*
X115657484Y-90098278D01*
X115494695Y-90048896D01*
X115367820Y-90036400D01*
X115325400Y-90032222D01*
X115282980Y-90036400D01*
X114996797Y-90036400D01*
X114996797Y-88850000D01*
X114990422Y-88785270D01*
X114971540Y-88723027D01*
X114940879Y-88665663D01*
X114899616Y-88615384D01*
X114849337Y-88574121D01*
X114791973Y-88543460D01*
X114729730Y-88524578D01*
X114665000Y-88518203D01*
X112665000Y-88518203D01*
X112600270Y-88524578D01*
X112538027Y-88543460D01*
X112480663Y-88574121D01*
X112430384Y-88615384D01*
X112389121Y-88665663D01*
X112358460Y-88723027D01*
X112339578Y-88785270D01*
X112333203Y-88850000D01*
X112333203Y-90036400D01*
X101293200Y-90036400D01*
X101293200Y-85454790D01*
X101329958Y-85491548D01*
X101456842Y-85576330D01*
X101597828Y-85634728D01*
X101747499Y-85664500D01*
X101900101Y-85664500D01*
X101913363Y-85661862D01*
X103888588Y-87637088D01*
X103903699Y-87655501D01*
X103977185Y-87715809D01*
X104044951Y-87752031D01*
X104061023Y-87760622D01*
X104151993Y-87788217D01*
X104246600Y-87797535D01*
X104270307Y-87795200D01*
X111552095Y-87795200D01*
X111575800Y-87797535D01*
X111599505Y-87795200D01*
X111599507Y-87795200D01*
X111670406Y-87788217D01*
X111761377Y-87760622D01*
X111845215Y-87715809D01*
X111918701Y-87655501D01*
X111933817Y-87637082D01*
X115735638Y-83835262D01*
X115748899Y-83837900D01*
X115901501Y-83837900D01*
X116051172Y-83808128D01*
X116192158Y-83749730D01*
X116319042Y-83664948D01*
X116426948Y-83557042D01*
X116511730Y-83430158D01*
X116570128Y-83289172D01*
X116599900Y-83139501D01*
X116599900Y-82986899D01*
X116597262Y-82973637D01*
X121789399Y-77781500D01*
X131020486Y-77781500D01*
X130197850Y-78604137D01*
X130164888Y-78631188D01*
X130056969Y-78762689D01*
X129976778Y-78912717D01*
X129953355Y-78989932D01*
X129927396Y-79075506D01*
X129910722Y-79244800D01*
X129914900Y-79287220D01*
X129914901Y-86006670D01*
X129910722Y-86049100D01*
X129927396Y-86218394D01*
X129976779Y-86381184D01*
X130046915Y-86512400D01*
X130056970Y-86531212D01*
X130164889Y-86662712D01*
X130197845Y-86689758D01*
X130581401Y-87073315D01*
X130581401Y-87359236D01*
X130488488Y-87435487D01*
X130320260Y-87640473D01*
X130195256Y-87874339D01*
X130175000Y-87941114D01*
X130154744Y-87874339D01*
X130029740Y-87640473D01*
X129861513Y-87435487D01*
X129768600Y-87359236D01*
X129768600Y-81322417D01*
X129772778Y-81279999D01*
X129758094Y-81130914D01*
X129756104Y-81110705D01*
X129706722Y-80947916D01*
X129626531Y-80797888D01*
X129518612Y-80666388D01*
X129485661Y-80639346D01*
X129198488Y-80352173D01*
X129235200Y-80167606D01*
X129235200Y-79852394D01*
X129173706Y-79543239D01*
X129053079Y-79252021D01*
X128877957Y-78989932D01*
X128655068Y-78767043D01*
X128392979Y-78591921D01*
X128101761Y-78471294D01*
X127792606Y-78409800D01*
X127477394Y-78409800D01*
X127168239Y-78471294D01*
X126877021Y-78591921D01*
X126614932Y-78767043D01*
X126392043Y-78989932D01*
X126216921Y-79252021D01*
X126096294Y-79543239D01*
X126034800Y-79852394D01*
X126034800Y-80167606D01*
X126096294Y-80476761D01*
X126216921Y-80767979D01*
X126392043Y-81030068D01*
X126614932Y-81252957D01*
X126877021Y-81428079D01*
X127168239Y-81548706D01*
X127477394Y-81610200D01*
X127792606Y-81610200D01*
X127977173Y-81573488D01*
X128041400Y-81637715D01*
X128041401Y-87359236D01*
X127948488Y-87435487D01*
X127780260Y-87640473D01*
X127655256Y-87874339D01*
X127635000Y-87941114D01*
X127614744Y-87874339D01*
X127489740Y-87640473D01*
X127321513Y-87435487D01*
X127228600Y-87359236D01*
X127228600Y-83862420D01*
X127232778Y-83820000D01*
X127216104Y-83650705D01*
X127166722Y-83487916D01*
X127086531Y-83337888D01*
X127046551Y-83289172D01*
X126978612Y-83206388D01*
X126945661Y-83179346D01*
X124118488Y-80352174D01*
X124155200Y-80167606D01*
X124155200Y-79852394D01*
X124093706Y-79543239D01*
X123973079Y-79252021D01*
X123797957Y-78989932D01*
X123575068Y-78767043D01*
X123312979Y-78591921D01*
X123021761Y-78471294D01*
X122712606Y-78409800D01*
X122397394Y-78409800D01*
X122088239Y-78471294D01*
X121797021Y-78591921D01*
X121534932Y-78767043D01*
X121312043Y-78989932D01*
X121136921Y-79252021D01*
X121016294Y-79543239D01*
X120954800Y-79852394D01*
X120954800Y-80167606D01*
X121016294Y-80476761D01*
X121136921Y-80767979D01*
X121312043Y-81030068D01*
X121534932Y-81252957D01*
X121797021Y-81428079D01*
X122088239Y-81548706D01*
X122397394Y-81610200D01*
X122712606Y-81610200D01*
X122897174Y-81573488D01*
X125501400Y-84177715D01*
X125501401Y-87359236D01*
X125408488Y-87435487D01*
X125273994Y-87599369D01*
X125127199Y-87369157D01*
X124902631Y-87134764D01*
X124636650Y-86948686D01*
X124339478Y-86818074D01*
X124207944Y-86786025D01*
X123952000Y-86905164D01*
X123952000Y-88773000D01*
X123972000Y-88773000D01*
X123972000Y-89027000D01*
X123952000Y-89027000D01*
X123952000Y-90894836D01*
X124207944Y-91013975D01*
X124339478Y-90981926D01*
X124636650Y-90851314D01*
X124902631Y-90665236D01*
X125127199Y-90430843D01*
X125273994Y-90200631D01*
X125408487Y-90364512D01*
X125536517Y-90469583D01*
X115301426Y-100704675D01*
X115300000Y-99885750D01*
X115141250Y-99727000D01*
X113792000Y-99727000D01*
X113792000Y-99747000D01*
X113538000Y-99747000D01*
X113538000Y-99727000D01*
X112188750Y-99727000D01*
X112030000Y-99885750D01*
X112027325Y-101421800D01*
X109389099Y-101421800D01*
X107612299Y-99645000D01*
X109677295Y-99645000D01*
X109701000Y-99647335D01*
X109724705Y-99645000D01*
X109724707Y-99645000D01*
X109795606Y-99638017D01*
X109886577Y-99610422D01*
X109888985Y-99609135D01*
X109942099Y-99619700D01*
X110094701Y-99619700D01*
X110244372Y-99589928D01*
X110385358Y-99531530D01*
X110512242Y-99446748D01*
X110620148Y-99338842D01*
X110704930Y-99211958D01*
X110763328Y-99070972D01*
X110793100Y-98921301D01*
X110793100Y-98768699D01*
X110763328Y-98619028D01*
X110704930Y-98478042D01*
X110620148Y-98351158D01*
X110512242Y-98243252D01*
X110385358Y-98158470D01*
X110244372Y-98100072D01*
X110094701Y-98070300D01*
X109942099Y-98070300D01*
X109792428Y-98100072D01*
X109651442Y-98158470D01*
X109524558Y-98243252D01*
X109416652Y-98351158D01*
X109331870Y-98478042D01*
X109273472Y-98619028D01*
X109261383Y-98679800D01*
X109017691Y-98679800D01*
X109015238Y-97550000D01*
X112026928Y-97550000D01*
X112030000Y-99314250D01*
X112188750Y-99473000D01*
X113538000Y-99473000D01*
X113538000Y-97073750D01*
X113792000Y-97073750D01*
X113792000Y-99473000D01*
X115141250Y-99473000D01*
X115300000Y-99314250D01*
X115303072Y-97550000D01*
X115290812Y-97425518D01*
X115254502Y-97305820D01*
X115195537Y-97195506D01*
X115116185Y-97098815D01*
X115019494Y-97019463D01*
X114909180Y-96960498D01*
X114789482Y-96924188D01*
X114665000Y-96911928D01*
X113950750Y-96915000D01*
X113792000Y-97073750D01*
X113538000Y-97073750D01*
X113379250Y-96915000D01*
X112665000Y-96911928D01*
X112540518Y-96924188D01*
X112420820Y-96960498D01*
X112310506Y-97019463D01*
X112213815Y-97098815D01*
X112134463Y-97195506D01*
X112075498Y-97305820D01*
X112039188Y-97425518D01*
X112026928Y-97550000D01*
X109015238Y-97550000D01*
X109015000Y-97440750D01*
X108856250Y-97282000D01*
X106807000Y-97282000D01*
X106807000Y-97302000D01*
X106553000Y-97302000D01*
X106553000Y-97282000D01*
X104503750Y-97282000D01*
X104345000Y-97440750D01*
X104342309Y-98679800D01*
X103794099Y-98679800D01*
X103636162Y-98521863D01*
X103638800Y-98508601D01*
X103638800Y-98355999D01*
X103609028Y-98206328D01*
X103550630Y-98065342D01*
X103465848Y-97938458D01*
X103357942Y-97830552D01*
X103231058Y-97745770D01*
X103090072Y-97687372D01*
X102940401Y-97657600D01*
X102787799Y-97657600D01*
X102638128Y-97687372D01*
X102497142Y-97745770D01*
X102370258Y-97830552D01*
X102262352Y-97938458D01*
X102177570Y-98065342D01*
X102119172Y-98206328D01*
X102115622Y-98224174D01*
X102019988Y-98173057D01*
X101814108Y-98110604D01*
X101600000Y-98089516D01*
X101385891Y-98110604D01*
X101180011Y-98173057D01*
X100990271Y-98274475D01*
X100823962Y-98410962D01*
X100687475Y-98577271D01*
X100586057Y-98767012D01*
X100523604Y-98972892D01*
X100507800Y-99133352D01*
X100507800Y-100256649D01*
X100523604Y-100417109D01*
X100586058Y-100622989D01*
X100687476Y-100812729D01*
X100823963Y-100979038D01*
X100990272Y-101115525D01*
X101180012Y-101216943D01*
X101385892Y-101279396D01*
X101600000Y-101300484D01*
X101814109Y-101279396D01*
X102019989Y-101216943D01*
X102209729Y-101115525D01*
X102376038Y-100979038D01*
X102512525Y-100812729D01*
X102613943Y-100622989D01*
X102676396Y-100417109D01*
X102692200Y-100256649D01*
X102692200Y-100177600D01*
X102977303Y-100177600D01*
X102924272Y-100305628D01*
X102894500Y-100455299D01*
X102894500Y-100607901D01*
X102924272Y-100757572D01*
X102982670Y-100898558D01*
X103067452Y-101025442D01*
X103175358Y-101133348D01*
X103302242Y-101218130D01*
X103443228Y-101276528D01*
X103592899Y-101306300D01*
X103745501Y-101306300D01*
X103758763Y-101303662D01*
X106603888Y-104148788D01*
X106618999Y-104167201D01*
X106692485Y-104227509D01*
X106776323Y-104272322D01*
X106867294Y-104299917D01*
X106938193Y-104306900D01*
X106938195Y-104306900D01*
X106961900Y-104309235D01*
X106985605Y-104306900D01*
X123442607Y-104306900D01*
X123433488Y-104318012D01*
X122236675Y-105514826D01*
X122178347Y-105443753D01*
X121986897Y-105286635D01*
X121768475Y-105169886D01*
X121531473Y-105097993D01*
X121285000Y-105073717D01*
X121038526Y-105097993D01*
X120801524Y-105169886D01*
X120583102Y-105286635D01*
X120391653Y-105443753D01*
X120234535Y-105635203D01*
X120117786Y-105853625D01*
X120045893Y-106090627D01*
X120027700Y-106275340D01*
X120027700Y-107084661D01*
X120045893Y-107269374D01*
X120117786Y-107506376D01*
X120234535Y-107724798D01*
X120391654Y-107916247D01*
X120583103Y-108073365D01*
X120801525Y-108190114D01*
X121038527Y-108262007D01*
X121285000Y-108286283D01*
X121531474Y-108262007D01*
X121768476Y-108190114D01*
X121986898Y-108073365D01*
X122178347Y-107916247D01*
X122335465Y-107724798D01*
X122452214Y-107506376D01*
X122524107Y-107269373D01*
X122534814Y-107160669D01*
X122574798Y-107156731D01*
X122585893Y-107269374D01*
X122657786Y-107506376D01*
X122774535Y-107724798D01*
X122931654Y-107916247D01*
X123123103Y-108073365D01*
X123341525Y-108190114D01*
X123578527Y-108262007D01*
X123825000Y-108286283D01*
X124071474Y-108262007D01*
X124308476Y-108190114D01*
X124526898Y-108073365D01*
X124718347Y-107916247D01*
X124875465Y-107724798D01*
X124992214Y-107506376D01*
X125064107Y-107269373D01*
X125082300Y-107084660D01*
X125082300Y-106275339D01*
X125064107Y-106090626D01*
X124992214Y-105853624D01*
X124875465Y-105635202D01*
X124718347Y-105443753D01*
X124526897Y-105286635D01*
X124308475Y-105169886D01*
X124160834Y-105125100D01*
X126029165Y-105125100D01*
X125881524Y-105169886D01*
X125663102Y-105286635D01*
X125471653Y-105443753D01*
X125314535Y-105635203D01*
X125197786Y-105853625D01*
X125125893Y-106090627D01*
X125107700Y-106275340D01*
X125107700Y-107084661D01*
X125125893Y-107269374D01*
X125197786Y-107506376D01*
X125314535Y-107724798D01*
X125471654Y-107916247D01*
X125663103Y-108073365D01*
X125881525Y-108190114D01*
X126118527Y-108262007D01*
X126365000Y-108286283D01*
X126611474Y-108262007D01*
X126848476Y-108190114D01*
X127066898Y-108073365D01*
X127258347Y-107916247D01*
X127415465Y-107724798D01*
X127532214Y-107506376D01*
X127604107Y-107269373D01*
X127622300Y-107084660D01*
X127622300Y-106275339D01*
X127604107Y-106090626D01*
X127532214Y-105853624D01*
X127415465Y-105635202D01*
X127258347Y-105443753D01*
X127066897Y-105286635D01*
X126848475Y-105169886D01*
X126700834Y-105125100D01*
X128748455Y-105125100D01*
X128537454Y-105336101D01*
X128306737Y-105681393D01*
X128147817Y-106065061D01*
X128066800Y-106472360D01*
X128066800Y-106887640D01*
X128147817Y-107294939D01*
X128306737Y-107678607D01*
X128537454Y-108023899D01*
X128831101Y-108317546D01*
X129176393Y-108548263D01*
X129560061Y-108707183D01*
X129967360Y-108788200D01*
X130382640Y-108788200D01*
X130789939Y-108707183D01*
X131173607Y-108548263D01*
X131518899Y-108317546D01*
X131812546Y-108023899D01*
X132043263Y-107678607D01*
X132202183Y-107294939D01*
X132283200Y-106887640D01*
X132283200Y-106472360D01*
X132202183Y-106065061D01*
X132043263Y-105681393D01*
X131812546Y-105336101D01*
X131601545Y-105125100D01*
X143646995Y-105125100D01*
X143670700Y-105127435D01*
X143694405Y-105125100D01*
X143694407Y-105125100D01*
X143765306Y-105118117D01*
X143856277Y-105090522D01*
X143940115Y-105045709D01*
X144013601Y-104985401D01*
X144028717Y-104966982D01*
X155207882Y-93787817D01*
X155226301Y-93772701D01*
X155286609Y-93699215D01*
X155331422Y-93615377D01*
X155359017Y-93524406D01*
X155366000Y-93453507D01*
X155366000Y-93453498D01*
X155368334Y-93429801D01*
X155366000Y-93406104D01*
X155366000Y-78813207D01*
X155368335Y-78789500D01*
X155359017Y-78694893D01*
X155331422Y-78603923D01*
X155315220Y-78573612D01*
X155286609Y-78520085D01*
X155226301Y-78446599D01*
X155207888Y-78431488D01*
X152775817Y-75999418D01*
X152760701Y-75980999D01*
X152687215Y-75920691D01*
X152603377Y-75875878D01*
X152512406Y-75848283D01*
X152441507Y-75841300D01*
X152441505Y-75841300D01*
X152417800Y-75838965D01*
X152394095Y-75841300D01*
X151827496Y-75841300D01*
X151803799Y-75838966D01*
X151780102Y-75841300D01*
X151780093Y-75841300D01*
X151709194Y-75848283D01*
X151618223Y-75875878D01*
X151534385Y-75920691D01*
X151460899Y-75980999D01*
X151445783Y-75999418D01*
X147666663Y-79778538D01*
X147653401Y-79775900D01*
X147500799Y-79775900D01*
X147351128Y-79805672D01*
X147210142Y-79864070D01*
X147083258Y-79948852D01*
X146975352Y-80056758D01*
X146890570Y-80183642D01*
X146832172Y-80324628D01*
X146802400Y-80474299D01*
X146802400Y-80626901D01*
X146832172Y-80776572D01*
X146890570Y-80917558D01*
X146975352Y-81044442D01*
X147083258Y-81152348D01*
X147210142Y-81237130D01*
X147351128Y-81295528D01*
X147500799Y-81325300D01*
X147653401Y-81325300D01*
X147803072Y-81295528D01*
X147944058Y-81237130D01*
X148070942Y-81152348D01*
X148178848Y-81044442D01*
X148263630Y-80917558D01*
X148322028Y-80776572D01*
X148351800Y-80626901D01*
X148351800Y-80474299D01*
X148349162Y-80461037D01*
X151433755Y-77376444D01*
X151439270Y-77389758D01*
X151524052Y-77516642D01*
X151631958Y-77624548D01*
X151758842Y-77709330D01*
X151899828Y-77767728D01*
X152049499Y-77797500D01*
X152202101Y-77797500D01*
X152215363Y-77794862D01*
X153994001Y-79573500D01*
X153994001Y-83819846D01*
X153925346Y-83593523D01*
X153729585Y-83227280D01*
X153466135Y-82906265D01*
X153145120Y-82642815D01*
X152778877Y-82447054D01*
X152381479Y-82326504D01*
X152071763Y-82296000D01*
X150340637Y-82296000D01*
X150030921Y-82326504D01*
X149633523Y-82447054D01*
X149267280Y-82642815D01*
X148946265Y-82906265D01*
X148682815Y-83227280D01*
X148487054Y-83593523D01*
X148366504Y-83990921D01*
X148325800Y-84404200D01*
X148366504Y-84817479D01*
X148487054Y-85214877D01*
X148682815Y-85581120D01*
X148946265Y-85902135D01*
X149267280Y-86165585D01*
X149633523Y-86361346D01*
X150030921Y-86481896D01*
X150082743Y-86487000D01*
X149834600Y-86487000D01*
X149834600Y-88773000D01*
X149854600Y-88773000D01*
X149854600Y-89027000D01*
X149834600Y-89027000D01*
X149834600Y-89047000D01*
X149580600Y-89047000D01*
X149580600Y-89027000D01*
X149560600Y-89027000D01*
X149560600Y-88773000D01*
X149580600Y-88773000D01*
X149580600Y-86487000D01*
X149072600Y-86487000D01*
X148604287Y-86558142D01*
X148158852Y-86719280D01*
X147753412Y-86964222D01*
X147403549Y-87283555D01*
X147122707Y-87665007D01*
X147036600Y-87848724D01*
X147036600Y-87083360D01*
X147047842Y-87075848D01*
X147155748Y-86967942D01*
X147240530Y-86841058D01*
X147298928Y-86700072D01*
X147328700Y-86550401D01*
X147328700Y-86397799D01*
X147298928Y-86248128D01*
X147240530Y-86107142D01*
X147155748Y-85980258D01*
X147047842Y-85872352D01*
X146920958Y-85787570D01*
X146779972Y-85729172D01*
X146630301Y-85699400D01*
X146477699Y-85699400D01*
X146328028Y-85729172D01*
X146187042Y-85787570D01*
X146060158Y-85872352D01*
X145952252Y-85980258D01*
X145867470Y-86107142D01*
X145809072Y-86248128D01*
X145779300Y-86397799D01*
X145779300Y-86550401D01*
X145794622Y-86627431D01*
X145539918Y-86418400D01*
X145129548Y-86199053D01*
X144684272Y-86063980D01*
X144221200Y-86018371D01*
X143758129Y-86063980D01*
X143312853Y-86199053D01*
X142902483Y-86418400D01*
X142542792Y-86713591D01*
X142247601Y-87073282D01*
X142028253Y-87483652D01*
X141893180Y-87928928D01*
X141859000Y-88275960D01*
X141859000Y-89524039D01*
X141893180Y-89871071D01*
X142028253Y-90316347D01*
X142247600Y-90726717D01*
X142542791Y-91086409D01*
X142902482Y-91381600D01*
X143312852Y-91600947D01*
X143758128Y-91736020D01*
X144221200Y-91781629D01*
X144452115Y-91758886D01*
X144170001Y-92041000D01*
X128581704Y-92041000D01*
X128557999Y-92038665D01*
X128534294Y-92041000D01*
X128534293Y-92041000D01*
X128463394Y-92047983D01*
X128372423Y-92075578D01*
X128288585Y-92120391D01*
X128215099Y-92180699D01*
X128199983Y-92199118D01*
X120960513Y-99438588D01*
X120942100Y-99453699D01*
X120926989Y-99472112D01*
X120926987Y-99472114D01*
X120881792Y-99527185D01*
X120836978Y-99611024D01*
X120809384Y-99701994D01*
X120800065Y-99796600D01*
X120802401Y-99820315D01*
X120802401Y-99831620D01*
X120767340Y-99842256D01*
X120533474Y-99967260D01*
X120328488Y-100135487D01*
X120160260Y-100340473D01*
X120035256Y-100574339D01*
X119958279Y-100828099D01*
X119938800Y-101025872D01*
X119938800Y-102174127D01*
X119958279Y-102371900D01*
X120035256Y-102625660D01*
X120160260Y-102859526D01*
X120210546Y-102920800D01*
X107876100Y-102920800D01*
X105578062Y-100622763D01*
X105580700Y-100609501D01*
X105580700Y-100456899D01*
X105550928Y-100307228D01*
X105497235Y-100177600D01*
X106779901Y-100177600D01*
X108831183Y-102228882D01*
X108846299Y-102247301D01*
X108919785Y-102307609D01*
X109003623Y-102352422D01*
X109094594Y-102380017D01*
X109165493Y-102387000D01*
X109165502Y-102387000D01*
X109189199Y-102389334D01*
X109212896Y-102387000D01*
X114760495Y-102387000D01*
X114784200Y-102389335D01*
X114807905Y-102387000D01*
X114807907Y-102387000D01*
X114878806Y-102380017D01*
X114969777Y-102352422D01*
X115053615Y-102307609D01*
X115127101Y-102247301D01*
X115142217Y-102228882D01*
X126185100Y-91186000D01*
X136501293Y-91186000D01*
X136525000Y-91188335D01*
X136548707Y-91186000D01*
X136619606Y-91179017D01*
X136710577Y-91151422D01*
X136794415Y-91106609D01*
X136867901Y-91046301D01*
X136928209Y-90972815D01*
X136973022Y-90888977D01*
X137000617Y-90798006D01*
X137009935Y-90703400D01*
X137007600Y-90679693D01*
X137007600Y-90668379D01*
X137042660Y-90657744D01*
X137276526Y-90532740D01*
X137481512Y-90364513D01*
X137616006Y-90200631D01*
X137762801Y-90430843D01*
X137987369Y-90665236D01*
X138253350Y-90851314D01*
X138550522Y-90981926D01*
X138682056Y-91013975D01*
X138938000Y-90894836D01*
X138938000Y-89027000D01*
X139192000Y-89027000D01*
X139192000Y-90894836D01*
X139447944Y-91013975D01*
X139579478Y-90981926D01*
X139876650Y-90851314D01*
X140142631Y-90665236D01*
X140367199Y-90430843D01*
X140541724Y-90157143D01*
X140659500Y-89854654D01*
X140716000Y-89535000D01*
X140716000Y-89027000D01*
X139192000Y-89027000D01*
X138938000Y-89027000D01*
X138918000Y-89027000D01*
X138918000Y-88773000D01*
X138938000Y-88773000D01*
X138938000Y-86905164D01*
X139192000Y-86905164D01*
X139192000Y-88773000D01*
X140716000Y-88773000D01*
X140716000Y-88265000D01*
X140659500Y-87945346D01*
X140541724Y-87642857D01*
X140367199Y-87369157D01*
X140142631Y-87134764D01*
X139876650Y-86948686D01*
X139579478Y-86818074D01*
X139447944Y-86786025D01*
X139192000Y-86905164D01*
X138938000Y-86905164D01*
X138682056Y-86786025D01*
X138550522Y-86818074D01*
X138253350Y-86948686D01*
X137987369Y-87134764D01*
X137762801Y-87369157D01*
X137616007Y-87599368D01*
X137481513Y-87435487D01*
X137276527Y-87267260D01*
X137120329Y-87183770D01*
X141743982Y-82560117D01*
X141762401Y-82545001D01*
X141822709Y-82471515D01*
X141867522Y-82387677D01*
X141895117Y-82296706D01*
X141902100Y-82225807D01*
X141902100Y-82225806D01*
X141904435Y-82202101D01*
X141902100Y-82178396D01*
X141902100Y-81884327D01*
X141950215Y-81858609D01*
X142023701Y-81798301D01*
X142038817Y-81779882D01*
X151594988Y-72223712D01*
X151613401Y-72208601D01*
X151673709Y-72135115D01*
X151718522Y-72051277D01*
X151744550Y-71965473D01*
X151764342Y-71952248D01*
X151872248Y-71844342D01*
X151957030Y-71717458D01*
X152015428Y-71576472D01*
X152045200Y-71426801D01*
X152045200Y-71274199D01*
X152015428Y-71124528D01*
X151957030Y-70983542D01*
X151872248Y-70856658D01*
X151764342Y-70748752D01*
X151637458Y-70663970D01*
X151496472Y-70605572D01*
X151346801Y-70575800D01*
X151194199Y-70575800D01*
X151044528Y-70605572D01*
X150903542Y-70663970D01*
X150776658Y-70748752D01*
X150668752Y-70856658D01*
X150583970Y-70983542D01*
X150525572Y-71124528D01*
X150495800Y-71274199D01*
X150495800Y-71426801D01*
X150525572Y-71576472D01*
X150583970Y-71717458D01*
X150644962Y-71808738D01*
X146372457Y-76081243D01*
X146290548Y-75958658D01*
X146182642Y-75850752D01*
X146055758Y-75765970D01*
X145914772Y-75707572D01*
X145765101Y-75677800D01*
X145612499Y-75677800D01*
X145462828Y-75707572D01*
X145321842Y-75765970D01*
X145194958Y-75850752D01*
X145087052Y-75958658D01*
X145079540Y-75969900D01*
X132811400Y-75969900D01*
X130069699Y-73228200D01*
X130382640Y-73228200D01*
X130789939Y-73147183D01*
X131173607Y-72988263D01*
X131518899Y-72757546D01*
X131812546Y-72463899D01*
X132043263Y-72118607D01*
X132202183Y-71734939D01*
X132283200Y-71327640D01*
X132283200Y-70912360D01*
X132202183Y-70505061D01*
X132043263Y-70121393D01*
X131812546Y-69776101D01*
X131518899Y-69482454D01*
X131173607Y-69251737D01*
X130789939Y-69092817D01*
X130382640Y-69011800D01*
X129967360Y-69011800D01*
X129560061Y-69092817D01*
X129176393Y-69251737D01*
X128831101Y-69482454D01*
X128537454Y-69776101D01*
X128306737Y-70121393D01*
X128232978Y-70299463D01*
X128182701Y-70238199D01*
X128164282Y-70223083D01*
X127212317Y-69271118D01*
X127197201Y-69252699D01*
X127123715Y-69192391D01*
X127039877Y-69147578D01*
X126948906Y-69119983D01*
X126878007Y-69113000D01*
X126878005Y-69113000D01*
X126854300Y-69110665D01*
X126830595Y-69113000D01*
X100442107Y-69113000D01*
X100418400Y-69110665D01*
X100323793Y-69119983D01*
X100232823Y-69147578D01*
X100148985Y-69192391D01*
X100075499Y-69252699D01*
X100060387Y-69271113D01*
X99376675Y-69954826D01*
X99318347Y-69883753D01*
X99126897Y-69726635D01*
X98908475Y-69609886D01*
X98671473Y-69537993D01*
X98425000Y-69513717D01*
X98178526Y-69537993D01*
X97941524Y-69609886D01*
X97723102Y-69726635D01*
X97531653Y-69883753D01*
X97374535Y-70075203D01*
X97257786Y-70293625D01*
X97185893Y-70530627D01*
X97167700Y-70715340D01*
X97167700Y-71524661D01*
X97185893Y-71709374D01*
X97257786Y-71946376D01*
X97374535Y-72164798D01*
X97531654Y-72356247D01*
X97723103Y-72513365D01*
X97941525Y-72630114D01*
X98178527Y-72702007D01*
X98425000Y-72726283D01*
X98671474Y-72702007D01*
X98908476Y-72630114D01*
X99126898Y-72513365D01*
X99318347Y-72356247D01*
X99475465Y-72164798D01*
X99592214Y-71946376D01*
X99664107Y-71709373D01*
X99674814Y-71600669D01*
X99714798Y-71596731D01*
X99725893Y-71709374D01*
X99797786Y-71946376D01*
X99914535Y-72164798D01*
X100071654Y-72356247D01*
X100263103Y-72513365D01*
X100481525Y-72630114D01*
X100718527Y-72702007D01*
X100965000Y-72726283D01*
X101211474Y-72702007D01*
X101448476Y-72630114D01*
X101666898Y-72513365D01*
X101858347Y-72356247D01*
X102015465Y-72164798D01*
X102132214Y-71946376D01*
X102204107Y-71709373D01*
X102222300Y-71524660D01*
X102222300Y-70715339D01*
X102204107Y-70530626D01*
X102132214Y-70293624D01*
X102017067Y-70078200D01*
X102452933Y-70078200D01*
X102337786Y-70293625D01*
X102265893Y-70530627D01*
X102247700Y-70715340D01*
X102247700Y-71524661D01*
X102265893Y-71709374D01*
X102337786Y-71946376D01*
X102454535Y-72164798D01*
X102611654Y-72356247D01*
X102803103Y-72513365D01*
X103021525Y-72630114D01*
X103258527Y-72702007D01*
X103505000Y-72726283D01*
X103751474Y-72702007D01*
X103793130Y-72689371D01*
X98408418Y-78074083D01*
X98389999Y-78089199D01*
X98329691Y-78162685D01*
X98284878Y-78246524D01*
X98257283Y-78337495D01*
X98253390Y-78377022D01*
X98247965Y-78432100D01*
X98250300Y-78455805D01*
X98250301Y-91013699D01*
X96435963Y-92828038D01*
X96422701Y-92825400D01*
X96270099Y-92825400D01*
X96120428Y-92855172D01*
X95979442Y-92913570D01*
X95852558Y-92998352D01*
X95744652Y-93106258D01*
X95659870Y-93233142D01*
X95601472Y-93374128D01*
X95571700Y-93523799D01*
X95571700Y-93676401D01*
X95601472Y-93826072D01*
X95659870Y-93967058D01*
X95744652Y-94093942D01*
X95852558Y-94201848D01*
X95979442Y-94286630D01*
X96120428Y-94345028D01*
X96270099Y-94374800D01*
X96422701Y-94374800D01*
X96572372Y-94345028D01*
X96713358Y-94286630D01*
X96840242Y-94201848D01*
X96948148Y-94093942D01*
X97032930Y-93967058D01*
X97091328Y-93826072D01*
X97121100Y-93676401D01*
X97121100Y-93523799D01*
X97118462Y-93510537D01*
X99057388Y-91571612D01*
X99075801Y-91556501D01*
X99136109Y-91483015D01*
X99180922Y-91399177D01*
X99208517Y-91308207D01*
X99217835Y-91213600D01*
X99215500Y-91189893D01*
X99215500Y-78631999D01*
X105162982Y-72684517D01*
X105181401Y-72669401D01*
X105241709Y-72595915D01*
X105286522Y-72512077D01*
X105297487Y-72475929D01*
X105343103Y-72513365D01*
X105561525Y-72630114D01*
X105798527Y-72702007D01*
X106045000Y-72726283D01*
X106291474Y-72702007D01*
X106528476Y-72630114D01*
X106746898Y-72513365D01*
X106938347Y-72356247D01*
X107095465Y-72164798D01*
X107212214Y-71946376D01*
X107284107Y-71709373D01*
X107302300Y-71524660D01*
X107302300Y-70715339D01*
X107284107Y-70530626D01*
X107212214Y-70293624D01*
X107097067Y-70078200D01*
X107532933Y-70078200D01*
X107417786Y-70293625D01*
X107345893Y-70530627D01*
X107327700Y-70715340D01*
X107327700Y-71524661D01*
X107345893Y-71709374D01*
X107417786Y-71946376D01*
X107534535Y-72164798D01*
X107691654Y-72356247D01*
X107883103Y-72513365D01*
X107997428Y-72574473D01*
X107760518Y-72811383D01*
X107742099Y-72826499D01*
X107681791Y-72899985D01*
X107636978Y-72983824D01*
X107609383Y-73074795D01*
X107605185Y-73117422D01*
X107600065Y-73169400D01*
X107602400Y-73193105D01*
X107602401Y-85646900D01*
X107459163Y-85790138D01*
X107445901Y-85787500D01*
X107293299Y-85787500D01*
X107143628Y-85817272D01*
X107002642Y-85875670D01*
X106875758Y-85960452D01*
X106767852Y-86068358D01*
X106683070Y-86195242D01*
X106624672Y-86336228D01*
X106594900Y-86485899D01*
X106594900Y-86638501D01*
X106624672Y-86788172D01*
X106641998Y-86830000D01*
X104446500Y-86830000D01*
X102595862Y-84979363D01*
X102598500Y-84966101D01*
X102598500Y-84813499D01*
X102568728Y-84663828D01*
X102510330Y-84522842D01*
X102425548Y-84395958D01*
X102317642Y-84288052D01*
X102190758Y-84203270D01*
X102049772Y-84144872D01*
X101900101Y-84115100D01*
X101747499Y-84115100D01*
X101597828Y-84144872D01*
X101456842Y-84203270D01*
X101329958Y-84288052D01*
X101293200Y-84324810D01*
X101293200Y-81184985D01*
X101524389Y-81339460D01*
X101797408Y-81452548D01*
X102087243Y-81510200D01*
X102382757Y-81510200D01*
X102672592Y-81452548D01*
X102945611Y-81339460D01*
X103191322Y-81175282D01*
X103400282Y-80966322D01*
X103564460Y-80720611D01*
X103677548Y-80447592D01*
X103735200Y-80157757D01*
X103735200Y-79862243D01*
X104544800Y-79862243D01*
X104544800Y-80157757D01*
X104602452Y-80447592D01*
X104715540Y-80720611D01*
X104879718Y-80966322D01*
X105088678Y-81175282D01*
X105334389Y-81339460D01*
X105607408Y-81452548D01*
X105897243Y-81510200D01*
X106192757Y-81510200D01*
X106482592Y-81452548D01*
X106755611Y-81339460D01*
X107001322Y-81175282D01*
X107210282Y-80966322D01*
X107374460Y-80720611D01*
X107487548Y-80447592D01*
X107545200Y-80157757D01*
X107545200Y-79862243D01*
X107487548Y-79572408D01*
X107374460Y-79299389D01*
X107210282Y-79053678D01*
X107001322Y-78844718D01*
X106755611Y-78680540D01*
X106482592Y-78567452D01*
X106192757Y-78509800D01*
X105897243Y-78509800D01*
X105607408Y-78567452D01*
X105334389Y-78680540D01*
X105088678Y-78844718D01*
X104879718Y-79053678D01*
X104715540Y-79299389D01*
X104602452Y-79572408D01*
X104544800Y-79862243D01*
X103735200Y-79862243D01*
X103677548Y-79572408D01*
X103564460Y-79299389D01*
X103400282Y-79053678D01*
X103191322Y-78844718D01*
X102945611Y-78680540D01*
X102672592Y-78567452D01*
X102382757Y-78509800D01*
X102087243Y-78509800D01*
X101797408Y-78567452D01*
X101524389Y-78680540D01*
X101278678Y-78844718D01*
X101117945Y-79005451D01*
X101043212Y-78914388D01*
X100911712Y-78806469D01*
X100761684Y-78726278D01*
X100598895Y-78676896D01*
X100429600Y-78660222D01*
X100260306Y-78676896D01*
X100097517Y-78726278D01*
X99947489Y-78806469D01*
X99815989Y-78914388D01*
X99708070Y-79045888D01*
X99627879Y-79195916D01*
X99578497Y-79358705D01*
X99566001Y-79485580D01*
X99566000Y-90857380D01*
X99561822Y-90899800D01*
X99566200Y-90944251D01*
X99566201Y-93497084D01*
X95939346Y-97123941D01*
X95906389Y-97150988D01*
X95827560Y-97247042D01*
X95798469Y-97282489D01*
X95718279Y-97432516D01*
X95668896Y-97595306D01*
X95652222Y-97764600D01*
X95656401Y-97807030D01*
X95656401Y-98517655D01*
X95607475Y-98577271D01*
X95506057Y-98767012D01*
X95443604Y-98972892D01*
X95427800Y-99133352D01*
X95427800Y-100256649D01*
X95443604Y-100417109D01*
X95506058Y-100622989D01*
X95607476Y-100812729D01*
X95743963Y-100979038D01*
X95910272Y-101115525D01*
X96100012Y-101216943D01*
X96305892Y-101279396D01*
X96520000Y-101300484D01*
X96734109Y-101279396D01*
X96939989Y-101216943D01*
X97129729Y-101115525D01*
X97296038Y-100979038D01*
X97432525Y-100812729D01*
X97451300Y-100777603D01*
X97451301Y-104431199D01*
X96767018Y-105115483D01*
X96748599Y-105130599D01*
X96688291Y-105204085D01*
X96643478Y-105287924D01*
X96632513Y-105324071D01*
X96586897Y-105286635D01*
X96368475Y-105169886D01*
X96131473Y-105097993D01*
X95885000Y-105073717D01*
X95638526Y-105097993D01*
X95401524Y-105169886D01*
X95183102Y-105286635D01*
X94991653Y-105443753D01*
X94834535Y-105635203D01*
X94717786Y-105853625D01*
X94645893Y-106090627D01*
X94627700Y-106275340D01*
X94602300Y-106275340D01*
X94602300Y-106275339D01*
X94584107Y-106090626D01*
X94512214Y-105853624D01*
X94395465Y-105635202D01*
X94238347Y-105443753D01*
X94046897Y-105286635D01*
X93828475Y-105169886D01*
X93591473Y-105097993D01*
X93345000Y-105073717D01*
X93098526Y-105097993D01*
X92861524Y-105169886D01*
X92643102Y-105286635D01*
X92451653Y-105443753D01*
X92294535Y-105635203D01*
X92177786Y-105853625D01*
X92105893Y-106090627D01*
X92087700Y-106275340D01*
X92062300Y-106275340D01*
X92062300Y-106275339D01*
X92044107Y-106090626D01*
X91972214Y-105853624D01*
X91855465Y-105635202D01*
X91698347Y-105443753D01*
X91506897Y-105286635D01*
X91288475Y-105169886D01*
X91051473Y-105097993D01*
X90805000Y-105073717D01*
X90558526Y-105097993D01*
X90321524Y-105169886D01*
X90103102Y-105286635D01*
X89911653Y-105443753D01*
X89754535Y-105635203D01*
X89637786Y-105853625D01*
X89565893Y-106090627D01*
X89547700Y-106275340D01*
X89522300Y-106275340D01*
X89522300Y-106275339D01*
X89504107Y-106090626D01*
X89432214Y-105853624D01*
X89315465Y-105635202D01*
X89158347Y-105443753D01*
X88966897Y-105286635D01*
X88748475Y-105169886D01*
X88511473Y-105097993D01*
X88265000Y-105073717D01*
X88018526Y-105097993D01*
X87781524Y-105169886D01*
X87563102Y-105286635D01*
X87371653Y-105443753D01*
X87214535Y-105635203D01*
X87097786Y-105853625D01*
X87025893Y-106090627D01*
X87007700Y-106275340D01*
X86055200Y-106275340D01*
X86055200Y-101392360D01*
X87426800Y-101392360D01*
X87426800Y-101807640D01*
X87507817Y-102214939D01*
X87666737Y-102598607D01*
X87897454Y-102943899D01*
X88191101Y-103237546D01*
X88536393Y-103468263D01*
X88920061Y-103627183D01*
X89327360Y-103708200D01*
X89742640Y-103708200D01*
X90149939Y-103627183D01*
X90533607Y-103468263D01*
X90878899Y-103237546D01*
X91172546Y-102943899D01*
X91403263Y-102598607D01*
X91562183Y-102214939D01*
X91643200Y-101807640D01*
X91643200Y-101392360D01*
X91562183Y-100985061D01*
X91403263Y-100601393D01*
X91172546Y-100256101D01*
X90878899Y-99962454D01*
X90533607Y-99731737D01*
X90149939Y-99572817D01*
X89742640Y-99491800D01*
X89327360Y-99491800D01*
X88920061Y-99572817D01*
X88536393Y-99731737D01*
X88191101Y-99962454D01*
X87897454Y-100256101D01*
X87666737Y-100601393D01*
X87507817Y-100985061D01*
X87426800Y-101392360D01*
X86055200Y-101392360D01*
X86055200Y-75992360D01*
X87426800Y-75992360D01*
X87426800Y-76407640D01*
X87507817Y-76814939D01*
X87666737Y-77198607D01*
X87897454Y-77543899D01*
X88191101Y-77837546D01*
X88536393Y-78068263D01*
X88920061Y-78227183D01*
X89327360Y-78308200D01*
X89742640Y-78308200D01*
X90149939Y-78227183D01*
X90533607Y-78068263D01*
X90878899Y-77837546D01*
X91172546Y-77543899D01*
X91403263Y-77198607D01*
X91562183Y-76814939D01*
X91643200Y-76407640D01*
X91643200Y-75992360D01*
X91562183Y-75585061D01*
X91403263Y-75201393D01*
X91172546Y-74856101D01*
X90878899Y-74562454D01*
X90533607Y-74331737D01*
X90149939Y-74172817D01*
X89742640Y-74091800D01*
X89327360Y-74091800D01*
X88920061Y-74172817D01*
X88536393Y-74331737D01*
X88191101Y-74562454D01*
X87897454Y-74856101D01*
X87666737Y-75201393D01*
X87507817Y-75585061D01*
X87426800Y-75992360D01*
X86055200Y-75992360D01*
X86055200Y-69850000D01*
X87006103Y-69850000D01*
X87006103Y-72390000D01*
X87012478Y-72454730D01*
X87031360Y-72516973D01*
X87062021Y-72574337D01*
X87103284Y-72624616D01*
X87153563Y-72665879D01*
X87210927Y-72696540D01*
X87273170Y-72715422D01*
X87337900Y-72721797D01*
X89192100Y-72721797D01*
X89256830Y-72715422D01*
X89319073Y-72696540D01*
X89376437Y-72665879D01*
X89426716Y-72624616D01*
X89467979Y-72574337D01*
X89498640Y-72516973D01*
X89517522Y-72454730D01*
X89523897Y-72390000D01*
X89523897Y-72354303D01*
X89576719Y-72436352D01*
X89790231Y-72657273D01*
X90042740Y-72832295D01*
X90324542Y-72954692D01*
X90436006Y-72980793D01*
X90678000Y-72860492D01*
X90678000Y-71247000D01*
X90658000Y-71247000D01*
X90658000Y-70993000D01*
X90678000Y-70993000D01*
X90678000Y-69379508D01*
X90932000Y-69379508D01*
X90932000Y-70993000D01*
X90952000Y-70993000D01*
X90952000Y-71247000D01*
X90932000Y-71247000D01*
X90932000Y-72860492D01*
X91173994Y-72980793D01*
X91285458Y-72954692D01*
X91567260Y-72832295D01*
X91819769Y-72657273D01*
X92033281Y-72436352D01*
X92199591Y-72178022D01*
X92242902Y-72068200D01*
X92294535Y-72164798D01*
X92451654Y-72356247D01*
X92643103Y-72513365D01*
X92861525Y-72630114D01*
X93098527Y-72702007D01*
X93345000Y-72726283D01*
X93591474Y-72702007D01*
X93828476Y-72630114D01*
X94046898Y-72513365D01*
X94238347Y-72356247D01*
X94395465Y-72164798D01*
X94512214Y-71946376D01*
X94584107Y-71709373D01*
X94602300Y-71524660D01*
X94602300Y-70715340D01*
X94627700Y-70715340D01*
X94627700Y-71524661D01*
X94645893Y-71709374D01*
X94717786Y-71946376D01*
X94834535Y-72164798D01*
X94991654Y-72356247D01*
X95183103Y-72513365D01*
X95401525Y-72630114D01*
X95638527Y-72702007D01*
X95885000Y-72726283D01*
X96131474Y-72702007D01*
X96368476Y-72630114D01*
X96586898Y-72513365D01*
X96778347Y-72356247D01*
X96935465Y-72164798D01*
X97052214Y-71946376D01*
X97124107Y-71709373D01*
X97142300Y-71524660D01*
X97142300Y-70715339D01*
X97124107Y-70530626D01*
X97052214Y-70293624D01*
X96935465Y-70075202D01*
X96778347Y-69883753D01*
X96586897Y-69726635D01*
X96368475Y-69609886D01*
X96131473Y-69537993D01*
X95885000Y-69513717D01*
X95638526Y-69537993D01*
X95401524Y-69609886D01*
X95183102Y-69726635D01*
X94991653Y-69883753D01*
X94834535Y-70075203D01*
X94717786Y-70293625D01*
X94645893Y-70530627D01*
X94627700Y-70715340D01*
X94602300Y-70715340D01*
X94602300Y-70715339D01*
X94584107Y-70530626D01*
X94512214Y-70293624D01*
X94395465Y-70075202D01*
X94238347Y-69883753D01*
X94046897Y-69726635D01*
X93828475Y-69609886D01*
X93591473Y-69537993D01*
X93345000Y-69513717D01*
X93098526Y-69537993D01*
X92861524Y-69609886D01*
X92643102Y-69726635D01*
X92451653Y-69883753D01*
X92294535Y-70075203D01*
X92242902Y-70171801D01*
X92199591Y-70061978D01*
X92033281Y-69803648D01*
X91819769Y-69582727D01*
X91567260Y-69407705D01*
X91285458Y-69285308D01*
X91173994Y-69259207D01*
X90932000Y-69379508D01*
X90678000Y-69379508D01*
X90436006Y-69259207D01*
X90324542Y-69285308D01*
X90042740Y-69407705D01*
X89790231Y-69582727D01*
X89576719Y-69803648D01*
X89523897Y-69885697D01*
X89523897Y-69850000D01*
X89517522Y-69785270D01*
X89498640Y-69723027D01*
X89467979Y-69665663D01*
X89426716Y-69615384D01*
X89376437Y-69574121D01*
X89319073Y-69543460D01*
X89256830Y-69524578D01*
X89192100Y-69518203D01*
X87337900Y-69518203D01*
X87273170Y-69524578D01*
X87210927Y-69543460D01*
X87153563Y-69574121D01*
X87103284Y-69615384D01*
X87062021Y-69665663D01*
X87031360Y-69723027D01*
X87012478Y-69785270D01*
X87006103Y-69850000D01*
X86055200Y-69850000D01*
X86055200Y-68275200D01*
X155879801Y-68275200D01*
X155879800Y-109524800D01*
%TD*%
M02*
