G04 #@! TF.GenerationSoftware,KiCad,Pcbnew,no-vcs-found-1466d0c~58~ubuntu16.04.1*
G04 #@! TF.CreationDate,2017-06-19T16:09:13-04:00*
G04 #@! TF.ProjectId,stepper_controller_3x2,737465707065725F636F6E74726F6C6C,1.0*
G04 #@! TF.SameCoordinates,Original
G04 #@! TF.FileFunction,Legend,Bot*
G04 #@! TF.FilePolarity,Positive*
%FSLAX46Y46*%
G04 Gerber Fmt 4.6, Leading zero omitted, Abs format (unit mm)*
G04 Created by KiCad (PCBNEW no-vcs-found-1466d0c~58~ubuntu16.04.1) date Mon Jun 19 16:09:13 2017*
%MOMM*%
%LPD*%
G01*
G04 APERTURE LIST*
%ADD10C,0.100000*%
%ADD11C,0.228600*%
%ADD12C,0.381000*%
%ADD13C,0.127000*%
%ADD14C,0.250000*%
%ADD15C,0.254000*%
%ADD16C,0.125000*%
%ADD17O,2.032000X3.048000*%
%ADD18C,3.556000*%
%ADD19O,1.854200X2.540000*%
%ADD20R,1.854200X2.540000*%
%ADD21R,2.540000X1.270000*%
%ADD22R,1.800000X2.000000*%
%ADD23R,2.075000X0.325000*%
%ADD24R,0.325000X2.075000*%
%ADD25R,3.475000X3.475000*%
%ADD26R,1.270000X2.540000*%
%ADD27R,4.000000X5.160000*%
%ADD28R,1.800000X1.640000*%
%ADD29C,1.930400*%
%ADD30O,4.572000X3.556000*%
%ADD31O,4.064000X5.080000*%
%ADD32O,5.080000X3.556000*%
%ADD33C,2.540000*%
%ADD34C,2.340000*%
%ADD35R,0.762000X1.534160*%
G04 APERTURE END LIST*
D10*
D11*
X156210000Y-67945000D02*
X85725000Y-67945000D01*
X156210000Y-109855000D02*
X156210000Y-67945000D01*
X85725000Y-109855000D02*
X156210000Y-109855000D01*
X85725000Y-67945000D02*
X85725000Y-109855000D01*
D12*
X127635000Y-69850000D02*
X86995000Y-69850000D01*
X127635000Y-72390000D02*
X127635000Y-69850000D01*
X86995000Y-72390000D02*
X127635000Y-72390000D01*
X86995000Y-69850000D02*
X86995000Y-72390000D01*
X127635000Y-105410000D02*
X86995000Y-105410000D01*
X127635000Y-107950000D02*
X127635000Y-105410000D01*
X86995000Y-107950000D02*
X127635000Y-107950000D01*
X86995000Y-105410000D02*
X86995000Y-107950000D01*
D13*
X112268000Y-94996000D02*
X112268000Y-93472000D01*
X115062000Y-94996000D02*
X112268000Y-94996000D01*
X115062000Y-93472000D02*
X115062000Y-94996000D01*
X115062000Y-90424000D02*
X115062000Y-91948000D01*
X112268000Y-90424000D02*
X115062000Y-90424000D01*
X112268000Y-91948000D02*
X112268000Y-90424000D01*
X90297000Y-90424000D02*
X90297000Y-91948000D01*
X87503000Y-90424000D02*
X90297000Y-90424000D01*
X87503000Y-91948000D02*
X87503000Y-90424000D01*
X87503000Y-94996000D02*
X87503000Y-93472000D01*
X90297000Y-94996000D02*
X87503000Y-94996000D01*
X90297000Y-93472000D02*
X90297000Y-94996000D01*
D12*
X103180000Y-90210000D02*
X110180000Y-90210000D01*
X103180000Y-95210000D02*
X103180000Y-90210000D01*
X110180000Y-95210000D02*
X103180000Y-95210000D01*
X110180000Y-90210000D02*
X110180000Y-95210000D01*
X108033553Y-94460000D02*
G75*
G03X108033553Y-94460000I-353553J0D01*
G01*
D14*
X98520000Y-90210000D02*
X99020000Y-90710000D01*
X99020000Y-94710000D02*
X99020000Y-95210000D01*
X99020000Y-95210000D02*
X98520000Y-95210000D01*
X94020000Y-94710000D02*
X94020000Y-95210000D01*
X94020000Y-95210000D02*
X94520000Y-95210000D01*
X94520000Y-90210000D02*
X94020000Y-90210000D01*
X94020000Y-90210000D02*
X94020000Y-90710000D01*
X99270000Y-90210000D02*
G75*
G03X99270000Y-90210000I-250000J0D01*
G01*
D13*
X121793000Y-94107000D02*
X120269000Y-94107000D01*
X120269000Y-94107000D02*
X120269000Y-91313000D01*
X120269000Y-91313000D02*
X121793000Y-91313000D01*
X123317000Y-91313000D02*
X124841000Y-91313000D01*
X124841000Y-91313000D02*
X124841000Y-94107000D01*
X124841000Y-94107000D02*
X123317000Y-94107000D01*
X104267000Y-82804000D02*
X104267000Y-84328000D01*
X101473000Y-82804000D02*
X104267000Y-82804000D01*
X101473000Y-84328000D02*
X101473000Y-82804000D01*
X101473000Y-87376000D02*
X101473000Y-85852000D01*
X104267000Y-87376000D02*
X101473000Y-87376000D01*
X104267000Y-85852000D02*
X104267000Y-87376000D01*
D11*
X141845000Y-85665000D02*
X146445000Y-85665000D01*
X146445000Y-85665000D02*
X146445000Y-78165000D01*
X146445000Y-78165000D02*
X141845000Y-78165000D01*
X141845000Y-78165000D02*
X141845000Y-85665000D01*
D12*
X106934000Y-85090000D02*
X108966000Y-85090000D01*
D11*
X106172000Y-83566000D02*
X106172000Y-84074000D01*
X105918000Y-83820000D02*
X106426000Y-83820000D01*
D15*
X111741857Y-92540666D02*
X111790238Y-92492285D01*
X111838619Y-92347142D01*
X111838619Y-92250380D01*
X111790238Y-92105238D01*
X111693476Y-92008476D01*
X111596714Y-91960095D01*
X111403190Y-91911714D01*
X111258047Y-91911714D01*
X111064523Y-91960095D01*
X110967761Y-92008476D01*
X110871000Y-92105238D01*
X110822619Y-92250380D01*
X110822619Y-92347142D01*
X110871000Y-92492285D01*
X110919380Y-92540666D01*
X111838619Y-93508285D02*
X111838619Y-92927714D01*
X111838619Y-93218000D02*
X110822619Y-93218000D01*
X110967761Y-93121238D01*
X111064523Y-93024476D01*
X111112904Y-92927714D01*
X115394619Y-91040857D02*
X115394619Y-91137619D01*
X115443000Y-91234380D01*
X115491380Y-91282761D01*
X115588142Y-91331142D01*
X115781666Y-91379523D01*
X116023571Y-91379523D01*
X116217095Y-91331142D01*
X116313857Y-91282761D01*
X116362238Y-91234380D01*
X116410619Y-91137619D01*
X116410619Y-91040857D01*
X116362238Y-90944095D01*
X116313857Y-90895714D01*
X116217095Y-90847333D01*
X116023571Y-90798952D01*
X115781666Y-90798952D01*
X115588142Y-90847333D01*
X115491380Y-90895714D01*
X115443000Y-90944095D01*
X115394619Y-91040857D01*
X116313857Y-91814952D02*
X116362238Y-91863333D01*
X116410619Y-91814952D01*
X116362238Y-91766571D01*
X116313857Y-91814952D01*
X116410619Y-91814952D01*
X116410619Y-92830952D02*
X116410619Y-92250380D01*
X116410619Y-92540666D02*
X115394619Y-92540666D01*
X115539761Y-92443904D01*
X115636523Y-92347142D01*
X115684904Y-92250380D01*
X115733285Y-93701809D02*
X116410619Y-93701809D01*
X115733285Y-93266380D02*
X116265476Y-93266380D01*
X116362238Y-93314761D01*
X116410619Y-93411523D01*
X116410619Y-93556666D01*
X116362238Y-93653428D01*
X116313857Y-93701809D01*
X115878428Y-94524285D02*
X115878428Y-94185619D01*
X116410619Y-94185619D02*
X115394619Y-94185619D01*
X115394619Y-94669428D01*
X91548857Y-92540666D02*
X91597238Y-92492285D01*
X91645619Y-92347142D01*
X91645619Y-92250380D01*
X91597238Y-92105238D01*
X91500476Y-92008476D01*
X91403714Y-91960095D01*
X91210190Y-91911714D01*
X91065047Y-91911714D01*
X90871523Y-91960095D01*
X90774761Y-92008476D01*
X90678000Y-92105238D01*
X90629619Y-92250380D01*
X90629619Y-92347142D01*
X90678000Y-92492285D01*
X90726380Y-92540666D01*
X90726380Y-92927714D02*
X90678000Y-92976095D01*
X90629619Y-93072857D01*
X90629619Y-93314761D01*
X90678000Y-93411523D01*
X90726380Y-93459904D01*
X90823142Y-93508285D01*
X90919904Y-93508285D01*
X91065047Y-93459904D01*
X91645619Y-92879333D01*
X91645619Y-93508285D01*
X86057619Y-91040857D02*
X86057619Y-91137619D01*
X86106000Y-91234380D01*
X86154380Y-91282761D01*
X86251142Y-91331142D01*
X86444666Y-91379523D01*
X86686571Y-91379523D01*
X86880095Y-91331142D01*
X86976857Y-91282761D01*
X87025238Y-91234380D01*
X87073619Y-91137619D01*
X87073619Y-91040857D01*
X87025238Y-90944095D01*
X86976857Y-90895714D01*
X86880095Y-90847333D01*
X86686571Y-90798952D01*
X86444666Y-90798952D01*
X86251142Y-90847333D01*
X86154380Y-90895714D01*
X86106000Y-90944095D01*
X86057619Y-91040857D01*
X86976857Y-91814952D02*
X87025238Y-91863333D01*
X87073619Y-91814952D01*
X87025238Y-91766571D01*
X86976857Y-91814952D01*
X87073619Y-91814952D01*
X87073619Y-92830952D02*
X87073619Y-92250380D01*
X87073619Y-92540666D02*
X86057619Y-92540666D01*
X86202761Y-92443904D01*
X86299523Y-92347142D01*
X86347904Y-92250380D01*
X86396285Y-93701809D02*
X87073619Y-93701809D01*
X86396285Y-93266380D02*
X86928476Y-93266380D01*
X87025238Y-93314761D01*
X87073619Y-93411523D01*
X87073619Y-93556666D01*
X87025238Y-93653428D01*
X86976857Y-93701809D01*
X86541428Y-94524285D02*
X86541428Y-94185619D01*
X87073619Y-94185619D02*
X86057619Y-94185619D01*
X86057619Y-94669428D01*
X107768571Y-89322857D02*
X107816952Y-89371238D01*
X107962095Y-89419619D01*
X108058857Y-89419619D01*
X108204000Y-89371238D01*
X108300761Y-89274476D01*
X108349142Y-89177714D01*
X108397523Y-88984190D01*
X108397523Y-88839047D01*
X108349142Y-88645523D01*
X108300761Y-88548761D01*
X108204000Y-88452000D01*
X108058857Y-88403619D01*
X107962095Y-88403619D01*
X107816952Y-88452000D01*
X107768571Y-88500380D01*
X106849333Y-89419619D02*
X107333142Y-89419619D01*
X107333142Y-88403619D01*
X106510666Y-89419619D02*
X106510666Y-88403619D01*
X105930095Y-89419619D02*
X106365523Y-88839047D01*
X105930095Y-88403619D02*
X106510666Y-88984190D01*
X104962476Y-89419619D02*
X105543047Y-89419619D01*
X105252761Y-89419619D02*
X105252761Y-88403619D01*
X105349523Y-88548761D01*
X105446285Y-88645523D01*
X105543047Y-88693904D01*
D16*
X108072857Y-92888571D02*
X108096666Y-92912380D01*
X108168095Y-92936190D01*
X108215714Y-92936190D01*
X108287142Y-92912380D01*
X108334761Y-92864761D01*
X108358571Y-92817142D01*
X108382380Y-92721904D01*
X108382380Y-92650476D01*
X108358571Y-92555238D01*
X108334761Y-92507619D01*
X108287142Y-92460000D01*
X108215714Y-92436190D01*
X108168095Y-92436190D01*
X108096666Y-92460000D01*
X108072857Y-92483809D01*
X107930000Y-92436190D02*
X107644285Y-92436190D01*
X107787142Y-92936190D02*
X107787142Y-92436190D01*
X107501428Y-92912380D02*
X107430000Y-92936190D01*
X107310952Y-92936190D01*
X107263333Y-92912380D01*
X107239523Y-92888571D01*
X107215714Y-92840952D01*
X107215714Y-92793333D01*
X107239523Y-92745714D01*
X107263333Y-92721904D01*
X107310952Y-92698095D01*
X107406190Y-92674285D01*
X107453809Y-92650476D01*
X107477619Y-92626666D01*
X107501428Y-92579047D01*
X107501428Y-92531428D01*
X107477619Y-92483809D01*
X107453809Y-92460000D01*
X107406190Y-92436190D01*
X107287142Y-92436190D01*
X107215714Y-92460000D01*
X106930000Y-92436190D02*
X106930000Y-92555238D01*
X107049047Y-92507619D02*
X106930000Y-92555238D01*
X106810952Y-92507619D01*
X107001428Y-92650476D02*
X106930000Y-92555238D01*
X106858571Y-92650476D01*
X106549047Y-92436190D02*
X106549047Y-92555238D01*
X106668095Y-92507619D02*
X106549047Y-92555238D01*
X106430000Y-92507619D01*
X106620476Y-92650476D02*
X106549047Y-92555238D01*
X106477619Y-92650476D01*
X105953809Y-92888571D02*
X105977619Y-92912380D01*
X106049047Y-92936190D01*
X106096666Y-92936190D01*
X106168095Y-92912380D01*
X106215714Y-92864761D01*
X106239523Y-92817142D01*
X106263333Y-92721904D01*
X106263333Y-92650476D01*
X106239523Y-92555238D01*
X106215714Y-92507619D01*
X106168095Y-92460000D01*
X106096666Y-92436190D01*
X106049047Y-92436190D01*
X105977619Y-92460000D01*
X105953809Y-92483809D01*
X105572857Y-92674285D02*
X105501428Y-92698095D01*
X105477619Y-92721904D01*
X105453809Y-92769523D01*
X105453809Y-92840952D01*
X105477619Y-92888571D01*
X105501428Y-92912380D01*
X105549047Y-92936190D01*
X105739523Y-92936190D01*
X105739523Y-92436190D01*
X105572857Y-92436190D01*
X105525238Y-92460000D01*
X105501428Y-92483809D01*
X105477619Y-92531428D01*
X105477619Y-92579047D01*
X105501428Y-92626666D01*
X105525238Y-92650476D01*
X105572857Y-92674285D01*
X105739523Y-92674285D01*
X105287142Y-92436190D02*
X104977619Y-92436190D01*
X105144285Y-92626666D01*
X105072857Y-92626666D01*
X105025238Y-92650476D01*
X105001428Y-92674285D01*
X104977619Y-92721904D01*
X104977619Y-92840952D01*
X105001428Y-92888571D01*
X105025238Y-92912380D01*
X105072857Y-92936190D01*
X105215714Y-92936190D01*
X105263333Y-92912380D01*
X105287142Y-92888571D01*
D15*
X97294095Y-97153619D02*
X97294095Y-97976095D01*
X97245714Y-98072857D01*
X97197333Y-98121238D01*
X97100571Y-98169619D01*
X96907047Y-98169619D01*
X96810285Y-98121238D01*
X96761904Y-98072857D01*
X96713523Y-97976095D01*
X96713523Y-97153619D01*
X95697523Y-98169619D02*
X96278095Y-98169619D01*
X95987809Y-98169619D02*
X95987809Y-97153619D01*
X96084571Y-97298761D01*
X96181333Y-97395523D01*
X96278095Y-97443904D01*
X122724333Y-95358857D02*
X122772714Y-95407238D01*
X122917857Y-95455619D01*
X123014619Y-95455619D01*
X123159761Y-95407238D01*
X123256523Y-95310476D01*
X123304904Y-95213714D01*
X123353285Y-95020190D01*
X123353285Y-94875047D01*
X123304904Y-94681523D01*
X123256523Y-94584761D01*
X123159761Y-94488000D01*
X123014619Y-94439619D01*
X122917857Y-94439619D01*
X122772714Y-94488000D01*
X122724333Y-94536380D01*
X121853476Y-94778285D02*
X121853476Y-95455619D01*
X122095380Y-94391238D02*
X122337285Y-95116952D01*
X121708333Y-95116952D01*
X123643571Y-90883619D02*
X124224142Y-90883619D01*
X123933857Y-90883619D02*
X123933857Y-89867619D01*
X124030619Y-90012761D01*
X124127380Y-90109523D01*
X124224142Y-90157904D01*
X123014619Y-89867619D02*
X122917857Y-89867619D01*
X122821095Y-89916000D01*
X122772714Y-89964380D01*
X122724333Y-90061142D01*
X122675952Y-90254666D01*
X122675952Y-90496571D01*
X122724333Y-90690095D01*
X122772714Y-90786857D01*
X122821095Y-90835238D01*
X122917857Y-90883619D01*
X123014619Y-90883619D01*
X123111380Y-90835238D01*
X123159761Y-90786857D01*
X123208142Y-90690095D01*
X123256523Y-90496571D01*
X123256523Y-90254666D01*
X123208142Y-90061142D01*
X123159761Y-89964380D01*
X123111380Y-89916000D01*
X123014619Y-89867619D01*
X121805095Y-90206285D02*
X121805095Y-90883619D01*
X122240523Y-90206285D02*
X122240523Y-90738476D01*
X122192142Y-90835238D01*
X122095380Y-90883619D01*
X121950238Y-90883619D01*
X121853476Y-90835238D01*
X121805095Y-90786857D01*
X120982619Y-90351428D02*
X121321285Y-90351428D01*
X121321285Y-90883619D02*
X121321285Y-89867619D01*
X120837476Y-89867619D01*
X105518857Y-84920666D02*
X105567238Y-84872285D01*
X105615619Y-84727142D01*
X105615619Y-84630380D01*
X105567238Y-84485238D01*
X105470476Y-84388476D01*
X105373714Y-84340095D01*
X105180190Y-84291714D01*
X105035047Y-84291714D01*
X104841523Y-84340095D01*
X104744761Y-84388476D01*
X104648000Y-84485238D01*
X104599619Y-84630380D01*
X104599619Y-84727142D01*
X104648000Y-84872285D01*
X104696380Y-84920666D01*
X104599619Y-85839904D02*
X104599619Y-85356095D01*
X105083428Y-85307714D01*
X105035047Y-85356095D01*
X104986666Y-85452857D01*
X104986666Y-85694761D01*
X105035047Y-85791523D01*
X105083428Y-85839904D01*
X105180190Y-85888285D01*
X105422095Y-85888285D01*
X105518857Y-85839904D01*
X105567238Y-85791523D01*
X105615619Y-85694761D01*
X105615619Y-85452857D01*
X105567238Y-85356095D01*
X105518857Y-85307714D01*
X100027619Y-83420857D02*
X100027619Y-83517619D01*
X100076000Y-83614380D01*
X100124380Y-83662761D01*
X100221142Y-83711142D01*
X100414666Y-83759523D01*
X100656571Y-83759523D01*
X100850095Y-83711142D01*
X100946857Y-83662761D01*
X100995238Y-83614380D01*
X101043619Y-83517619D01*
X101043619Y-83420857D01*
X100995238Y-83324095D01*
X100946857Y-83275714D01*
X100850095Y-83227333D01*
X100656571Y-83178952D01*
X100414666Y-83178952D01*
X100221142Y-83227333D01*
X100124380Y-83275714D01*
X100076000Y-83324095D01*
X100027619Y-83420857D01*
X100946857Y-84194952D02*
X100995238Y-84243333D01*
X101043619Y-84194952D01*
X100995238Y-84146571D01*
X100946857Y-84194952D01*
X101043619Y-84194952D01*
X101043619Y-85210952D02*
X101043619Y-84630380D01*
X101043619Y-84920666D02*
X100027619Y-84920666D01*
X100172761Y-84823904D01*
X100269523Y-84727142D01*
X100317904Y-84630380D01*
X100366285Y-86081809D02*
X101043619Y-86081809D01*
X100366285Y-85646380D02*
X100898476Y-85646380D01*
X100995238Y-85694761D01*
X101043619Y-85791523D01*
X101043619Y-85936666D01*
X100995238Y-86033428D01*
X100946857Y-86081809D01*
X100511428Y-86904285D02*
X100511428Y-86565619D01*
X101043619Y-86565619D02*
X100027619Y-86565619D01*
X100027619Y-87049428D01*
X144894904Y-77774619D02*
X144894904Y-76758619D01*
X144653000Y-76758619D01*
X144507857Y-76807000D01*
X144411095Y-76903761D01*
X144362714Y-77000523D01*
X144314333Y-77194047D01*
X144314333Y-77339190D01*
X144362714Y-77532714D01*
X144411095Y-77629476D01*
X144507857Y-77726238D01*
X144653000Y-77774619D01*
X144894904Y-77774619D01*
X143346714Y-77774619D02*
X143927285Y-77774619D01*
X143637000Y-77774619D02*
X143637000Y-76758619D01*
X143733761Y-76903761D01*
X143830523Y-77000523D01*
X143927285Y-77048904D01*
D13*
X105893809Y-85972952D02*
X106305047Y-85972952D01*
X106353428Y-85997142D01*
X106377619Y-86021333D01*
X106401809Y-86069714D01*
X106401809Y-86166476D01*
X106377619Y-86214857D01*
X106353428Y-86239047D01*
X106305047Y-86263238D01*
X105893809Y-86263238D01*
X105942190Y-86480952D02*
X105918000Y-86505142D01*
X105893809Y-86553523D01*
X105893809Y-86674476D01*
X105918000Y-86722857D01*
X105942190Y-86747047D01*
X105990571Y-86771238D01*
X106038952Y-86771238D01*
X106111523Y-86747047D01*
X106401809Y-86456761D01*
X106401809Y-86771238D01*
X109957809Y-83493428D02*
X109449809Y-83493428D01*
X109812666Y-83662761D01*
X109449809Y-83832095D01*
X109957809Y-83832095D01*
X109812666Y-84049809D02*
X109812666Y-84291714D01*
X109957809Y-84001428D02*
X109449809Y-84170761D01*
X109957809Y-84340095D01*
X109449809Y-84461047D02*
X109957809Y-84799714D01*
X109449809Y-84799714D02*
X109957809Y-84461047D01*
X109449809Y-85210952D02*
X109449809Y-85114190D01*
X109474000Y-85065809D01*
X109498190Y-85041619D01*
X109570761Y-84993238D01*
X109667523Y-84969047D01*
X109861047Y-84969047D01*
X109909428Y-84993238D01*
X109933619Y-85017428D01*
X109957809Y-85065809D01*
X109957809Y-85162571D01*
X109933619Y-85210952D01*
X109909428Y-85235142D01*
X109861047Y-85259333D01*
X109740095Y-85259333D01*
X109691714Y-85235142D01*
X109667523Y-85210952D01*
X109643333Y-85162571D01*
X109643333Y-85065809D01*
X109667523Y-85017428D01*
X109691714Y-84993238D01*
X109740095Y-84969047D01*
X109667523Y-85549619D02*
X109643333Y-85501238D01*
X109619142Y-85477047D01*
X109570761Y-85452857D01*
X109546571Y-85452857D01*
X109498190Y-85477047D01*
X109474000Y-85501238D01*
X109449809Y-85549619D01*
X109449809Y-85646380D01*
X109474000Y-85694761D01*
X109498190Y-85718952D01*
X109546571Y-85743142D01*
X109570761Y-85743142D01*
X109619142Y-85718952D01*
X109643333Y-85694761D01*
X109667523Y-85646380D01*
X109667523Y-85549619D01*
X109691714Y-85501238D01*
X109715904Y-85477047D01*
X109764285Y-85452857D01*
X109861047Y-85452857D01*
X109909428Y-85477047D01*
X109933619Y-85501238D01*
X109957809Y-85549619D01*
X109957809Y-85646380D01*
X109933619Y-85694761D01*
X109909428Y-85718952D01*
X109861047Y-85743142D01*
X109764285Y-85743142D01*
X109715904Y-85718952D01*
X109691714Y-85694761D01*
X109667523Y-85646380D01*
X109957809Y-86226952D02*
X109957809Y-85936666D01*
X109957809Y-86081809D02*
X109449809Y-86081809D01*
X109522380Y-86033428D01*
X109570761Y-85985047D01*
X109594952Y-85936666D01*
X109449809Y-86396285D02*
X109449809Y-86734952D01*
X109957809Y-86517238D01*
%LPC*%
D17*
X139065000Y-100965000D03*
X136525000Y-100965000D03*
X133985000Y-100965000D03*
X131445000Y-100965000D03*
X128905000Y-100965000D03*
X126365000Y-100965000D03*
X123825000Y-100965000D03*
X121285000Y-100965000D03*
X121285000Y-88265000D03*
X123825000Y-88265000D03*
X126365000Y-88265000D03*
X128905000Y-88265000D03*
X131445000Y-88265000D03*
X133985000Y-88265000D03*
X136525000Y-88265000D03*
X139065000Y-88265000D03*
D18*
X130175000Y-71120000D03*
X130175000Y-106680000D03*
X89535000Y-101600000D03*
X89535000Y-76200000D03*
D19*
X88265000Y-106680000D03*
X90805000Y-106680000D03*
X93345000Y-106680000D03*
X95885000Y-106680000D03*
X98425000Y-106680000D03*
X100965000Y-106680000D03*
X103505000Y-106680000D03*
X106045000Y-106680000D03*
X108585000Y-106680000D03*
X111125000Y-106680000D03*
X113665000Y-106680000D03*
X116205000Y-106680000D03*
X118745000Y-106680000D03*
X121285000Y-106680000D03*
X123825000Y-106680000D03*
X126365000Y-106680000D03*
X126365000Y-71120000D03*
X123825000Y-71120000D03*
X121285000Y-71120000D03*
X118745000Y-71120000D03*
X116205000Y-71120000D03*
X113665000Y-71120000D03*
X111125000Y-71120000D03*
X108585000Y-71120000D03*
X106045000Y-71120000D03*
X103505000Y-71120000D03*
X100965000Y-71120000D03*
X98425000Y-71120000D03*
X95885000Y-71120000D03*
D20*
X88265000Y-71120000D03*
D19*
X93345000Y-71120000D03*
X90805000Y-71120000D03*
D21*
X113665000Y-94234000D03*
X113665000Y-91186000D03*
X88900000Y-91186000D03*
X88900000Y-94234000D03*
D22*
X109220000Y-90610000D03*
X104140000Y-90610000D03*
X104140000Y-94810000D03*
X109220000Y-94810000D03*
D23*
X93520000Y-90960000D03*
X93520000Y-91460000D03*
X93520000Y-91960000D03*
X93520000Y-92460000D03*
X93520000Y-92960000D03*
X93520000Y-93460000D03*
X93520000Y-93960000D03*
X93520000Y-94460000D03*
X99520000Y-94460000D03*
X99520000Y-93960000D03*
X99520000Y-93460000D03*
X99520000Y-92960000D03*
X99520000Y-92460000D03*
X99520000Y-91960000D03*
X99520000Y-91460000D03*
X99520000Y-90960000D03*
D24*
X94770000Y-95710000D03*
X95270000Y-95710000D03*
X95770000Y-95710000D03*
X96270000Y-95710000D03*
X96770000Y-95710000D03*
X97270000Y-95710000D03*
X97770000Y-95710000D03*
X98270000Y-95710000D03*
X98270000Y-89710000D03*
X97770000Y-89710000D03*
X97270000Y-89710000D03*
X96770000Y-89710000D03*
X96270000Y-89710000D03*
X95770000Y-89710000D03*
X95270000Y-89710000D03*
X94770000Y-89710000D03*
D25*
X96520000Y-92710000D03*
D26*
X121031000Y-92710000D03*
X124079000Y-92710000D03*
D21*
X102870000Y-83566000D03*
X102870000Y-86614000D03*
D27*
X144145000Y-80895000D03*
D28*
X143080000Y-84695000D03*
X145210000Y-84695000D03*
D29*
X153212800Y-88900000D03*
D30*
X149707600Y-88900000D03*
D31*
X144221200Y-88900000D03*
D32*
X151206200Y-84404200D03*
X151206200Y-93395800D03*
D33*
X132715000Y-80645000D03*
X127635000Y-80645000D03*
X122555000Y-80645000D03*
X137795000Y-80645000D03*
D34*
X113665000Y-80645000D03*
X102235000Y-80645000D03*
X106045000Y-80645000D03*
X109855000Y-80645000D03*
D35*
X107000040Y-83891120D03*
X107950000Y-83891120D03*
X108899960Y-83891120D03*
X108899960Y-86288880D03*
X107950000Y-86288880D03*
X107000040Y-86288880D03*
M02*
