%TF.GenerationSoftware,KiCad,Pcbnew,no-vcs-found-1929727~60~ubuntu16.04.1*%
%TF.CreationDate,2017-10-25T16:01:10-04:00*%
%TF.ProjectId,stepper_controller_3x2,737465707065725F636F6E74726F6C6C,1.1*%
%TF.SameCoordinates,Original*%
%TF.FileFunction,Soldermask,Bot*%
%TF.FilePolarity,Negative*%
%FSLAX46Y46*%
G04 Gerber Fmt 4.6, Leading zero omitted, Abs format (unit mm)*
G04 Created by KiCad (PCBNEW no-vcs-found-1929727~60~ubuntu16.04.1) date Wed Oct 25 16:01:10 2017*
%MOMM*%
%LPD*%
G01*
G04 APERTURE LIST*
%ADD10C,0.228600*%
%ADD11O,2.032000X3.048000*%
%ADD12C,3.556000*%
%ADD13O,1.854200X2.540000*%
%ADD14R,1.854200X2.540000*%
%ADD15R,1.270000X2.540000*%
%ADD16R,1.800000X2.000000*%
%ADD17R,2.075000X0.325000*%
%ADD18R,0.325000X2.075000*%
%ADD19R,3.475000X3.475000*%
%ADD20R,2.540000X1.270000*%
%ADD21R,5.160000X4.000000*%
%ADD22R,1.640000X1.800000*%
%ADD23C,1.930400*%
%ADD24O,4.572000X3.556000*%
%ADD25O,4.064000X5.080000*%
%ADD26O,5.080000X3.556000*%
%ADD27C,2.540000*%
%ADD28C,2.340000*%
%ADD29O,1.524000X2.540000*%
%ADD30R,0.740000X2.140000*%
%ADD31R,1.600200X0.787400*%
%ADD32R,2.503200X1.853200*%
%ADD33R,0.787400X1.600200*%
%ADD34R,0.762000X1.534160*%
G04 APERTURE END LIST*
D10*
X156210000Y-67945000D02*
X85725000Y-67945000D01*
X156210000Y-109855000D02*
X156210000Y-67945000D01*
X85725000Y-109855000D02*
X156210000Y-109855000D01*
X85725000Y-67945000D02*
X85725000Y-109855000D01*
D11*
%TO.C,SS1*%
X139065000Y-101600000D03*
X136525000Y-101600000D03*
X133985000Y-101600000D03*
X131445000Y-101600000D03*
X128905000Y-101600000D03*
X126365000Y-101600000D03*
X123825000Y-101600000D03*
X121285000Y-101600000D03*
X121285000Y-88900000D03*
X123825000Y-88900000D03*
X126365000Y-88900000D03*
X128905000Y-88900000D03*
X131445000Y-88900000D03*
X133985000Y-88900000D03*
X136525000Y-88900000D03*
X139065000Y-88900000D03*
%TD*%
D12*
%TO.C,MDB1*%
X130175000Y-71120000D03*
X130175000Y-106680000D03*
X89535000Y-101600000D03*
X89535000Y-76200000D03*
D13*
X88265000Y-106680000D03*
X90805000Y-106680000D03*
X93345000Y-106680000D03*
X95885000Y-106680000D03*
X98425000Y-106680000D03*
X100965000Y-106680000D03*
X103505000Y-106680000D03*
X106045000Y-106680000D03*
X108585000Y-106680000D03*
X111125000Y-106680000D03*
X113665000Y-106680000D03*
X116205000Y-106680000D03*
X118745000Y-106680000D03*
X121285000Y-106680000D03*
X123825000Y-106680000D03*
X126365000Y-106680000D03*
X126365000Y-71120000D03*
X123825000Y-71120000D03*
X121285000Y-71120000D03*
X118745000Y-71120000D03*
X116205000Y-71120000D03*
X113665000Y-71120000D03*
X111125000Y-71120000D03*
X108585000Y-71120000D03*
X106045000Y-71120000D03*
X103505000Y-71120000D03*
X100965000Y-71120000D03*
X98425000Y-71120000D03*
X95885000Y-71120000D03*
D14*
X88265000Y-71120000D03*
D13*
X93345000Y-71120000D03*
X90805000Y-71120000D03*
%TD*%
D15*
%TO.C,C1*%
X92329000Y-89535000D03*
X89281000Y-89535000D03*
%TD*%
%TO.C,C2*%
X99314000Y-102870000D03*
X96266000Y-102870000D03*
%TD*%
D16*
%TO.C,CLK1*%
X88265000Y-96715000D03*
X93345000Y-96715000D03*
X93345000Y-92515000D03*
X88265000Y-92515000D03*
%TD*%
D17*
%TO.C,U1*%
X93520000Y-83340000D03*
X93520000Y-83840000D03*
X93520000Y-84340000D03*
X93520000Y-84840000D03*
X93520000Y-85340000D03*
X93520000Y-85840000D03*
X93520000Y-86340000D03*
X93520000Y-86840000D03*
X99520000Y-86840000D03*
X99520000Y-86340000D03*
X99520000Y-85840000D03*
X99520000Y-85340000D03*
X99520000Y-84840000D03*
X99520000Y-84340000D03*
X99520000Y-83840000D03*
X99520000Y-83340000D03*
D18*
X94770000Y-88090000D03*
X95270000Y-88090000D03*
X95770000Y-88090000D03*
X96270000Y-88090000D03*
X96770000Y-88090000D03*
X97270000Y-88090000D03*
X97770000Y-88090000D03*
X98270000Y-88090000D03*
X98270000Y-82090000D03*
X97770000Y-82090000D03*
X97270000Y-82090000D03*
X96770000Y-82090000D03*
X96270000Y-82090000D03*
X95770000Y-82090000D03*
X95270000Y-82090000D03*
X94770000Y-82090000D03*
D19*
X96520000Y-85090000D03*
%TD*%
D20*
%TO.C,C4*%
X88900000Y-84709000D03*
X88900000Y-81661000D03*
%TD*%
%TO.C,C5*%
X118110000Y-98044000D03*
X118110000Y-94996000D03*
%TD*%
D21*
%TO.C,D1*%
X94484000Y-75057000D03*
D22*
X98284000Y-76122000D03*
X98284000Y-73992000D03*
%TD*%
D23*
%TO.C,P1*%
X153212800Y-88900000D03*
D24*
X149707600Y-88900000D03*
D25*
X144221200Y-88900000D03*
D26*
X151206200Y-84404200D03*
X151206200Y-93395800D03*
%TD*%
D27*
%TO.C,T1*%
X132715000Y-80010000D03*
X127635000Y-80010000D03*
X122555000Y-80010000D03*
X137795000Y-80010000D03*
%TD*%
D28*
%TO.C,T2*%
X113665000Y-80010000D03*
X102235000Y-80010000D03*
X106045000Y-80010000D03*
X109855000Y-80010000D03*
%TD*%
D15*
%TO.C,C3*%
X98171000Y-95250000D03*
X101219000Y-95250000D03*
%TD*%
%TO.C,R1*%
X101219000Y-92075000D03*
X98171000Y-92075000D03*
%TD*%
D29*
%TO.C,REG1*%
X99060000Y-99695000D03*
X101600000Y-99695000D03*
X96520000Y-99695000D03*
%TD*%
D30*
%TO.C,U2*%
X114935000Y-91870000D03*
X113665000Y-91870000D03*
X112395000Y-91870000D03*
X111125000Y-91870000D03*
X109855000Y-91870000D03*
X108585000Y-91870000D03*
X107315000Y-91870000D03*
X106045000Y-91870000D03*
X104775000Y-91870000D03*
X103505000Y-91870000D03*
X103505000Y-101170000D03*
X104775000Y-101170000D03*
X106045000Y-101170000D03*
X107315000Y-101170000D03*
X108585000Y-101170000D03*
X109855000Y-101170000D03*
X111125000Y-101170000D03*
X112395000Y-101170000D03*
X113665000Y-101170000D03*
X114935000Y-101170000D03*
%TD*%
D15*
%TO.C,C7*%
X121031000Y-93345000D03*
X124079000Y-93345000D03*
%TD*%
D31*
%TO.C,C8*%
X136525000Y-74523600D03*
X136525000Y-76606400D03*
%TD*%
%TO.C,C9*%
X133985000Y-76606400D03*
X133985000Y-74523600D03*
%TD*%
%TO.C,C10*%
X126365000Y-74523600D03*
X126365000Y-76606400D03*
%TD*%
%TO.C,C11*%
X123825000Y-76606400D03*
X123825000Y-74523600D03*
%TD*%
D20*
%TO.C,C12*%
X113665000Y-82931000D03*
X113665000Y-85979000D03*
%TD*%
D32*
%TO.C,L1*%
X137795000Y-85597000D03*
X137795000Y-82297000D03*
%TD*%
%TO.C,L2*%
X132715000Y-82297000D03*
X132715000Y-85597000D03*
%TD*%
%TO.C,L3*%
X127635000Y-82297000D03*
X127635000Y-85597000D03*
%TD*%
%TO.C,L4*%
X122555000Y-85597000D03*
X122555000Y-82297000D03*
%TD*%
D33*
%TO.C,RV1*%
X134213600Y-78105000D03*
X136296400Y-78105000D03*
%TD*%
%TO.C,RV2*%
X126136400Y-78105000D03*
X124053600Y-78105000D03*
%TD*%
D31*
%TO.C,RV3*%
X139065000Y-74523600D03*
X139065000Y-76606400D03*
%TD*%
%TO.C,RV4*%
X131445000Y-76606400D03*
X131445000Y-74523600D03*
%TD*%
%TO.C,RV5*%
X128905000Y-74523600D03*
X128905000Y-76606400D03*
%TD*%
%TO.C,RV6*%
X121285000Y-76606400D03*
X121285000Y-74523600D03*
%TD*%
D34*
%TO.C,U3*%
X107000040Y-83256120D03*
X107950000Y-83256120D03*
X108899960Y-83256120D03*
X108899960Y-85653880D03*
X107950000Y-85653880D03*
X107000040Y-85653880D03*
%TD*%
M02*
