%TF.GenerationSoftware,KiCad,Pcbnew,no-vcs-found-1929727~60~ubuntu16.04.1*%
%TF.CreationDate,2017-10-25T16:01:10-04:00*%
%TF.ProjectId,stepper_controller_3x2,737465707065725F636F6E74726F6C6C,1.1*%
%TF.SameCoordinates,Original*%
%TF.FileFunction,Soldermask,Top*%
%TF.FilePolarity,Negative*%
%FSLAX46Y46*%
G04 Gerber Fmt 4.6, Leading zero omitted, Abs format (unit mm)*
G04 Created by KiCad (PCBNEW no-vcs-found-1929727~60~ubuntu16.04.1) date Wed Oct 25 16:01:10 2017*
%MOMM*%
%LPD*%
G01*
G04 APERTURE LIST*
%ADD10C,0.228600*%
%ADD11O,2.032000X3.048000*%
%ADD12C,3.556000*%
%ADD13O,1.854200X2.540000*%
%ADD14R,1.854200X2.540000*%
%ADD15R,3.475000X3.475000*%
%ADD16C,1.930400*%
%ADD17O,4.572000X3.556000*%
%ADD18O,4.064000X5.080000*%
%ADD19O,5.080000X3.556000*%
%ADD20C,2.540000*%
%ADD21C,2.340000*%
%ADD22O,1.524000X2.540000*%
%ADD23R,2.000000X4.100000*%
G04 APERTURE END LIST*
D10*
X156210000Y-67945000D02*
X85725000Y-67945000D01*
X156210000Y-109855000D02*
X156210000Y-67945000D01*
X85725000Y-109855000D02*
X156210000Y-109855000D01*
X85725000Y-67945000D02*
X85725000Y-109855000D01*
D11*
%TO.C,SS1*%
X139065000Y-101600000D03*
X136525000Y-101600000D03*
X133985000Y-101600000D03*
X131445000Y-101600000D03*
X128905000Y-101600000D03*
X126365000Y-101600000D03*
X123825000Y-101600000D03*
X121285000Y-101600000D03*
X121285000Y-88900000D03*
X123825000Y-88900000D03*
X126365000Y-88900000D03*
X128905000Y-88900000D03*
X131445000Y-88900000D03*
X133985000Y-88900000D03*
X136525000Y-88900000D03*
X139065000Y-88900000D03*
%TD*%
D12*
%TO.C,MDB1*%
X130175000Y-71120000D03*
X130175000Y-106680000D03*
X89535000Y-101600000D03*
X89535000Y-76200000D03*
D13*
X88265000Y-106680000D03*
X90805000Y-106680000D03*
X93345000Y-106680000D03*
X95885000Y-106680000D03*
X98425000Y-106680000D03*
X100965000Y-106680000D03*
X103505000Y-106680000D03*
X106045000Y-106680000D03*
X108585000Y-106680000D03*
X111125000Y-106680000D03*
X113665000Y-106680000D03*
X116205000Y-106680000D03*
X118745000Y-106680000D03*
X121285000Y-106680000D03*
X123825000Y-106680000D03*
X126365000Y-106680000D03*
X126365000Y-71120000D03*
X123825000Y-71120000D03*
X121285000Y-71120000D03*
X118745000Y-71120000D03*
X116205000Y-71120000D03*
X113665000Y-71120000D03*
X111125000Y-71120000D03*
X108585000Y-71120000D03*
X106045000Y-71120000D03*
X103505000Y-71120000D03*
X100965000Y-71120000D03*
X98425000Y-71120000D03*
X95885000Y-71120000D03*
D14*
X88265000Y-71120000D03*
D13*
X93345000Y-71120000D03*
X90805000Y-71120000D03*
%TD*%
D15*
%TO.C,U1*%
X96520000Y-85090000D03*
%TD*%
D16*
%TO.C,P1*%
X153212800Y-88900000D03*
D17*
X149707600Y-88900000D03*
D18*
X144221200Y-88900000D03*
D19*
X151206200Y-84404200D03*
X151206200Y-93395800D03*
%TD*%
D20*
%TO.C,T1*%
X132715000Y-80010000D03*
X127635000Y-80010000D03*
X122555000Y-80010000D03*
X137795000Y-80010000D03*
%TD*%
D21*
%TO.C,T2*%
X113665000Y-80010000D03*
X102235000Y-80010000D03*
X106045000Y-80010000D03*
X109855000Y-80010000D03*
%TD*%
D22*
%TO.C,REG1*%
X99060000Y-99695000D03*
X101600000Y-99695000D03*
X96520000Y-99695000D03*
%TD*%
D23*
%TO.C,C6*%
X113665000Y-90900000D03*
X113665000Y-99600000D03*
%TD*%
M02*
