G04 #@! TF.GenerationSoftware,KiCad,Pcbnew,no-vcs-found-1466d0c~58~ubuntu16.04.1*
G04 #@! TF.CreationDate,2017-06-19T16:09:13-04:00*
G04 #@! TF.ProjectId,stepper_controller_3x2,737465707065725F636F6E74726F6C6C,1.0*
G04 #@! TF.SameCoordinates,Original
G04 #@! TF.FileFunction,Copper,L1,Top,Signal*
G04 #@! TF.FilePolarity,Positive*
%FSLAX46Y46*%
G04 Gerber Fmt 4.6, Leading zero omitted, Abs format (unit mm)*
G04 Created by KiCad (PCBNEW no-vcs-found-1466d0c~58~ubuntu16.04.1) date Mon Jun 19 16:09:13 2017*
%MOMM*%
%LPD*%
G01*
G04 APERTURE LIST*
%ADD10C,0.100000*%
%ADD11C,0.228600*%
%ADD12O,2.032000X3.048000*%
%ADD13R,2.000000X4.100000*%
%ADD14C,3.556000*%
%ADD15O,1.854200X2.540000*%
%ADD16R,1.854200X2.540000*%
%ADD17R,3.400000X3.400000*%
%ADD18C,1.930400*%
%ADD19O,4.572000X3.556000*%
%ADD20O,4.064000X5.080000*%
%ADD21O,5.080000X3.556000*%
%ADD22C,2.540000*%
%ADD23C,2.340000*%
%ADD24C,0.889000*%
%ADD25C,0.304800*%
%ADD26C,1.270000*%
%ADD27C,0.203200*%
G04 APERTURE END LIST*
D10*
D11*
X156210000Y-67945000D02*
X85725000Y-67945000D01*
X156210000Y-109855000D02*
X156210000Y-67945000D01*
X85725000Y-109855000D02*
X156210000Y-109855000D01*
X85725000Y-67945000D02*
X85725000Y-109855000D01*
D12*
X139065000Y-100965000D03*
X136525000Y-100965000D03*
X133985000Y-100965000D03*
X131445000Y-100965000D03*
X128905000Y-100965000D03*
X126365000Y-100965000D03*
X123825000Y-100965000D03*
X121285000Y-100965000D03*
X121285000Y-88265000D03*
X123825000Y-88265000D03*
X126365000Y-88265000D03*
X128905000Y-88265000D03*
X131445000Y-88265000D03*
X133985000Y-88265000D03*
X136525000Y-88265000D03*
X139065000Y-88265000D03*
D13*
X113665000Y-98965000D03*
X113665000Y-90265000D03*
D14*
X130175000Y-71120000D03*
X130175000Y-106680000D03*
X89535000Y-101600000D03*
X89535000Y-76200000D03*
D15*
X88265000Y-106680000D03*
X90805000Y-106680000D03*
X93345000Y-106680000D03*
X95885000Y-106680000D03*
X98425000Y-106680000D03*
X100965000Y-106680000D03*
X103505000Y-106680000D03*
X106045000Y-106680000D03*
X108585000Y-106680000D03*
X111125000Y-106680000D03*
X113665000Y-106680000D03*
X116205000Y-106680000D03*
X118745000Y-106680000D03*
X121285000Y-106680000D03*
X123825000Y-106680000D03*
X126365000Y-106680000D03*
X126365000Y-71120000D03*
X123825000Y-71120000D03*
X121285000Y-71120000D03*
X118745000Y-71120000D03*
X116205000Y-71120000D03*
X113665000Y-71120000D03*
X111125000Y-71120000D03*
X108585000Y-71120000D03*
X106045000Y-71120000D03*
X103505000Y-71120000D03*
X100965000Y-71120000D03*
X98425000Y-71120000D03*
X95885000Y-71120000D03*
D16*
X88265000Y-71120000D03*
D15*
X93345000Y-71120000D03*
X90805000Y-71120000D03*
D17*
X96520000Y-92710000D03*
D18*
X153212800Y-88900000D03*
D19*
X149707600Y-88900000D03*
D20*
X144221200Y-88900000D03*
D21*
X151206200Y-84404200D03*
X151206200Y-93395800D03*
D22*
X132715000Y-80645000D03*
X127635000Y-80645000D03*
X122555000Y-80645000D03*
X137795000Y-80645000D03*
D23*
X113665000Y-80645000D03*
X102235000Y-80645000D03*
X106045000Y-80645000D03*
X109855000Y-80645000D03*
D24*
X97418600Y-98292300D03*
X101444000Y-90383700D03*
X95621100Y-97454800D03*
X105072800Y-86063700D03*
X106650000Y-94447600D03*
D25*
X112240600Y-82069400D02*
X113665000Y-80645000D01*
X107469400Y-82069400D02*
X112240600Y-82069400D01*
X106045000Y-80645000D02*
X107469400Y-82069400D01*
X148158200Y-86842600D02*
X150215600Y-86842600D01*
X147415900Y-86100300D02*
X148158200Y-86842600D01*
X139426300Y-86100300D02*
X147415900Y-86100300D01*
X139065000Y-86461600D02*
X139426300Y-86100300D01*
X150215600Y-88900000D02*
X150215600Y-86842600D01*
X139065000Y-88003400D02*
X139065000Y-86461600D01*
X139065000Y-88003400D02*
X139065000Y-88265000D01*
X139065000Y-90068400D02*
X123825000Y-90068400D01*
X139065000Y-88265000D02*
X139065000Y-90068400D01*
X123825000Y-88265000D02*
X123825000Y-89954100D01*
X123825000Y-89954100D02*
X123825000Y-90068400D01*
X113665000Y-98965000D02*
X114944400Y-98965000D01*
X123825000Y-90084400D02*
X123825000Y-90068400D01*
X114944400Y-98965000D02*
X123825000Y-90084400D01*
X101444000Y-94266900D02*
X97418600Y-98292300D01*
X101444000Y-90383700D02*
X101444000Y-94266900D01*
X95885000Y-99825900D02*
X95885000Y-106680000D01*
X97418600Y-98292300D02*
X95885000Y-99825900D01*
X121285000Y-100965000D02*
X121285000Y-102768400D01*
X113445100Y-102768400D02*
X121285000Y-102768400D01*
X102661100Y-91984400D02*
X113445100Y-102768400D01*
X102661100Y-84187300D02*
X102661100Y-91984400D01*
X98425000Y-79951200D02*
X102661100Y-84187300D01*
X98425000Y-71120000D02*
X98425000Y-79951200D01*
X104838500Y-70382600D02*
X104838500Y-71120000D01*
X104051500Y-69595600D02*
X104838500Y-70382600D01*
X97877700Y-69595600D02*
X104051500Y-69595600D01*
X97066500Y-70406800D02*
X97877700Y-69595600D01*
X97066500Y-78077800D02*
X97066500Y-70406800D01*
X94565600Y-80578700D02*
X97066500Y-78077800D01*
X94565600Y-96399300D02*
X94565600Y-80578700D01*
X95621100Y-97454800D02*
X94565600Y-96399300D01*
X106045000Y-71120000D02*
X104838500Y-71120000D01*
X108585000Y-71120000D02*
X107378500Y-71120000D01*
X104574400Y-85565300D02*
X105072800Y-86063700D01*
X104574400Y-76113300D02*
X104574400Y-85565300D01*
X107378500Y-73309200D02*
X104574400Y-76113300D01*
X107378500Y-71120000D02*
X107378500Y-73309200D01*
X121285000Y-77762100D02*
X121285000Y-71120000D01*
X112410600Y-86636500D02*
X121285000Y-77762100D01*
X112410600Y-101158600D02*
X112410600Y-86636500D01*
X112521400Y-101269400D02*
X112410600Y-101158600D01*
X116617800Y-101269400D02*
X112521400Y-101269400D01*
X118725600Y-99161600D02*
X116617800Y-101269400D01*
X123825000Y-99161600D02*
X118725600Y-99161600D01*
X123825000Y-100965000D02*
X123825000Y-99161600D01*
X124002800Y-105130600D02*
X123825000Y-105130600D01*
X126365000Y-102768400D02*
X124002800Y-105130600D01*
X126365000Y-100965000D02*
X126365000Y-102768400D01*
X123825000Y-106680000D02*
X123825000Y-105130600D01*
D26*
X115713000Y-90551000D02*
X121285000Y-90551000D01*
X115427000Y-90265000D02*
X115713000Y-90551000D01*
X121285000Y-88265000D02*
X121285000Y-90551000D01*
X113665000Y-90265000D02*
X115427000Y-90265000D01*
D25*
X118745000Y-79578200D02*
X118745000Y-71120000D01*
X106650000Y-91673200D02*
X118745000Y-79578200D01*
X106650000Y-94447600D02*
X106650000Y-91673200D01*
X122491500Y-107417500D02*
X122491500Y-106680000D01*
X123290500Y-108216500D02*
X122491500Y-107417500D01*
X124352000Y-108216500D02*
X123290500Y-108216500D01*
X125009600Y-107558900D02*
X124352000Y-108216500D01*
X125009600Y-105987500D02*
X125009600Y-107558900D01*
X128228700Y-102768400D02*
X125009600Y-105987500D01*
X128905000Y-102768400D02*
X128228700Y-102768400D01*
X128905000Y-100965000D02*
X128905000Y-102768400D01*
X121285000Y-106680000D02*
X122491500Y-106680000D01*
D26*
X133985000Y-81915000D02*
X133985000Y-88265000D01*
X132715000Y-80645000D02*
X133985000Y-81915000D01*
D27*
G36*
X155790900Y-109435900D02*
X86144100Y-109435900D01*
X86144100Y-106306248D01*
X87033100Y-106306248D01*
X87033100Y-107053752D01*
X87126873Y-107525180D01*
X87393915Y-107924837D01*
X87793572Y-108191879D01*
X88265000Y-108285652D01*
X88736428Y-108191879D01*
X89136085Y-107924837D01*
X89403127Y-107525180D01*
X89496900Y-107053752D01*
X89496900Y-106306248D01*
X89573100Y-106306248D01*
X89573100Y-107053752D01*
X89666873Y-107525180D01*
X89933915Y-107924837D01*
X90333572Y-108191879D01*
X90805000Y-108285652D01*
X91276428Y-108191879D01*
X91676085Y-107924837D01*
X91943127Y-107525180D01*
X92036900Y-107053752D01*
X92036900Y-106306248D01*
X92113100Y-106306248D01*
X92113100Y-107053752D01*
X92206873Y-107525180D01*
X92473915Y-107924837D01*
X92873572Y-108191879D01*
X93345000Y-108285652D01*
X93816428Y-108191879D01*
X94216085Y-107924837D01*
X94483127Y-107525180D01*
X94576900Y-107053752D01*
X94576900Y-106306248D01*
X94653100Y-106306248D01*
X94653100Y-107053752D01*
X94746873Y-107525180D01*
X95013915Y-107924837D01*
X95413572Y-108191879D01*
X95885000Y-108285652D01*
X96356428Y-108191879D01*
X96756085Y-107924837D01*
X97023127Y-107525180D01*
X97116900Y-107053752D01*
X97116900Y-106306248D01*
X97193100Y-106306248D01*
X97193100Y-107053752D01*
X97286873Y-107525180D01*
X97553915Y-107924837D01*
X97953572Y-108191879D01*
X98425000Y-108285652D01*
X98896428Y-108191879D01*
X99296085Y-107924837D01*
X99563127Y-107525180D01*
X99656900Y-107053752D01*
X99656900Y-106306248D01*
X99733100Y-106306248D01*
X99733100Y-107053752D01*
X99826873Y-107525180D01*
X100093915Y-107924837D01*
X100493572Y-108191879D01*
X100965000Y-108285652D01*
X101436428Y-108191879D01*
X101836085Y-107924837D01*
X102103127Y-107525180D01*
X102196900Y-107053752D01*
X102196900Y-106306248D01*
X102273100Y-106306248D01*
X102273100Y-107053752D01*
X102366873Y-107525180D01*
X102633915Y-107924837D01*
X103033572Y-108191879D01*
X103505000Y-108285652D01*
X103976428Y-108191879D01*
X104376085Y-107924837D01*
X104643127Y-107525180D01*
X104736900Y-107053752D01*
X104736900Y-106306248D01*
X104813100Y-106306248D01*
X104813100Y-107053752D01*
X104906873Y-107525180D01*
X105173915Y-107924837D01*
X105573572Y-108191879D01*
X106045000Y-108285652D01*
X106516428Y-108191879D01*
X106916085Y-107924837D01*
X107183127Y-107525180D01*
X107276900Y-107053752D01*
X107276900Y-106306248D01*
X107353100Y-106306248D01*
X107353100Y-107053752D01*
X107446873Y-107525180D01*
X107713915Y-107924837D01*
X108113572Y-108191879D01*
X108585000Y-108285652D01*
X109056428Y-108191879D01*
X109456085Y-107924837D01*
X109723127Y-107525180D01*
X109816900Y-107053752D01*
X109816900Y-106306248D01*
X109893100Y-106306248D01*
X109893100Y-107053752D01*
X109986873Y-107525180D01*
X110253915Y-107924837D01*
X110653572Y-108191879D01*
X111125000Y-108285652D01*
X111596428Y-108191879D01*
X111996085Y-107924837D01*
X112263127Y-107525180D01*
X112356900Y-107053752D01*
X112356900Y-106306248D01*
X112433100Y-106306248D01*
X112433100Y-107053752D01*
X112526873Y-107525180D01*
X112793915Y-107924837D01*
X113193572Y-108191879D01*
X113665000Y-108285652D01*
X114136428Y-108191879D01*
X114536085Y-107924837D01*
X114803127Y-107525180D01*
X114896900Y-107053752D01*
X114896900Y-106306248D01*
X114973100Y-106306248D01*
X114973100Y-107053752D01*
X115066873Y-107525180D01*
X115333915Y-107924837D01*
X115733572Y-108191879D01*
X116205000Y-108285652D01*
X116676428Y-108191879D01*
X117076085Y-107924837D01*
X117343127Y-107525180D01*
X117436900Y-107053752D01*
X117436900Y-106306248D01*
X117513100Y-106306248D01*
X117513100Y-107053752D01*
X117606873Y-107525180D01*
X117873915Y-107924837D01*
X118273572Y-108191879D01*
X118745000Y-108285652D01*
X119216428Y-108191879D01*
X119616085Y-107924837D01*
X119883127Y-107525180D01*
X119976900Y-107053752D01*
X119976900Y-106306248D01*
X119883127Y-105834820D01*
X119616085Y-105435163D01*
X119216428Y-105168121D01*
X118745000Y-105074348D01*
X118273572Y-105168121D01*
X117873915Y-105435163D01*
X117606873Y-105834820D01*
X117513100Y-106306248D01*
X117436900Y-106306248D01*
X117343127Y-105834820D01*
X117076085Y-105435163D01*
X116676428Y-105168121D01*
X116205000Y-105074348D01*
X115733572Y-105168121D01*
X115333915Y-105435163D01*
X115066873Y-105834820D01*
X114973100Y-106306248D01*
X114896900Y-106306248D01*
X114803127Y-105834820D01*
X114536085Y-105435163D01*
X114136428Y-105168121D01*
X113665000Y-105074348D01*
X113193572Y-105168121D01*
X112793915Y-105435163D01*
X112526873Y-105834820D01*
X112433100Y-106306248D01*
X112356900Y-106306248D01*
X112263127Y-105834820D01*
X111996085Y-105435163D01*
X111596428Y-105168121D01*
X111125000Y-105074348D01*
X110653572Y-105168121D01*
X110253915Y-105435163D01*
X109986873Y-105834820D01*
X109893100Y-106306248D01*
X109816900Y-106306248D01*
X109723127Y-105834820D01*
X109456085Y-105435163D01*
X109056428Y-105168121D01*
X108585000Y-105074348D01*
X108113572Y-105168121D01*
X107713915Y-105435163D01*
X107446873Y-105834820D01*
X107353100Y-106306248D01*
X107276900Y-106306248D01*
X107183127Y-105834820D01*
X106916085Y-105435163D01*
X106516428Y-105168121D01*
X106045000Y-105074348D01*
X105573572Y-105168121D01*
X105173915Y-105435163D01*
X104906873Y-105834820D01*
X104813100Y-106306248D01*
X104736900Y-106306248D01*
X104643127Y-105834820D01*
X104376085Y-105435163D01*
X103976428Y-105168121D01*
X103505000Y-105074348D01*
X103033572Y-105168121D01*
X102633915Y-105435163D01*
X102366873Y-105834820D01*
X102273100Y-106306248D01*
X102196900Y-106306248D01*
X102103127Y-105834820D01*
X101836085Y-105435163D01*
X101436428Y-105168121D01*
X100965000Y-105074348D01*
X100493572Y-105168121D01*
X100093915Y-105435163D01*
X99826873Y-105834820D01*
X99733100Y-106306248D01*
X99656900Y-106306248D01*
X99563127Y-105834820D01*
X99296085Y-105435163D01*
X98896428Y-105168121D01*
X98425000Y-105074348D01*
X97953572Y-105168121D01*
X97553915Y-105435163D01*
X97286873Y-105834820D01*
X97193100Y-106306248D01*
X97116900Y-106306248D01*
X97023127Y-105834820D01*
X96756085Y-105435163D01*
X96356428Y-105168121D01*
X96342200Y-105165291D01*
X96342200Y-100015278D01*
X97315967Y-99041511D01*
X97566991Y-99041730D01*
X97842490Y-98927896D01*
X98053456Y-98717299D01*
X98167770Y-98441999D01*
X98167990Y-98189488D01*
X101767289Y-94590189D01*
X101866398Y-94441863D01*
X101894773Y-94299209D01*
X101901200Y-94266900D01*
X101901200Y-90986044D01*
X102078856Y-90808699D01*
X102193170Y-90533399D01*
X102193430Y-90235309D01*
X102079596Y-89959810D01*
X101868999Y-89748844D01*
X101593699Y-89634530D01*
X101295609Y-89634270D01*
X101020110Y-89748104D01*
X100809144Y-89958701D01*
X100694830Y-90234001D01*
X100694570Y-90532091D01*
X100808404Y-90807590D01*
X100986800Y-90986299D01*
X100986800Y-94077522D01*
X97521233Y-97543089D01*
X97270209Y-97542870D01*
X96994710Y-97656704D01*
X96783744Y-97867301D01*
X96669430Y-98142601D01*
X96669210Y-98395112D01*
X95561711Y-99502611D01*
X95462602Y-99650937D01*
X95427800Y-99825900D01*
X95427800Y-105165291D01*
X95413572Y-105168121D01*
X95013915Y-105435163D01*
X94746873Y-105834820D01*
X94653100Y-106306248D01*
X94576900Y-106306248D01*
X94483127Y-105834820D01*
X94216085Y-105435163D01*
X93816428Y-105168121D01*
X93345000Y-105074348D01*
X92873572Y-105168121D01*
X92473915Y-105435163D01*
X92206873Y-105834820D01*
X92113100Y-106306248D01*
X92036900Y-106306248D01*
X91943127Y-105834820D01*
X91676085Y-105435163D01*
X91276428Y-105168121D01*
X90805000Y-105074348D01*
X90333572Y-105168121D01*
X89933915Y-105435163D01*
X89666873Y-105834820D01*
X89573100Y-106306248D01*
X89496900Y-106306248D01*
X89403127Y-105834820D01*
X89136085Y-105435163D01*
X88736428Y-105168121D01*
X88265000Y-105074348D01*
X87793572Y-105168121D01*
X87393915Y-105435163D01*
X87126873Y-105834820D01*
X87033100Y-106306248D01*
X86144100Y-106306248D01*
X86144100Y-102012477D01*
X87451840Y-102012477D01*
X87768259Y-102778270D01*
X88353648Y-103364682D01*
X89118888Y-103682437D01*
X89947477Y-103683160D01*
X90713270Y-103366741D01*
X91299682Y-102781352D01*
X91617437Y-102016112D01*
X91618160Y-101187523D01*
X91301741Y-100421730D01*
X90716352Y-99835318D01*
X89951112Y-99517563D01*
X89122523Y-99516840D01*
X88356730Y-99833259D01*
X87770318Y-100418648D01*
X87452563Y-101183888D01*
X87451840Y-102012477D01*
X86144100Y-102012477D01*
X86144100Y-80578700D01*
X94108400Y-80578700D01*
X94108400Y-96399300D01*
X94143202Y-96574263D01*
X94242311Y-96722589D01*
X94871889Y-97352168D01*
X94871670Y-97603191D01*
X94985504Y-97878690D01*
X95196101Y-98089656D01*
X95471401Y-98203970D01*
X95769491Y-98204230D01*
X96044990Y-98090396D01*
X96255956Y-97879799D01*
X96370270Y-97604499D01*
X96370530Y-97306409D01*
X96256696Y-97030910D01*
X96046099Y-96819944D01*
X95770799Y-96705630D01*
X95518288Y-96705410D01*
X95022800Y-96209922D01*
X95022800Y-95019600D01*
X96215200Y-95019600D01*
X96367600Y-94867200D01*
X96367600Y-92862400D01*
X96672400Y-92862400D01*
X96672400Y-94867200D01*
X96824800Y-95019600D01*
X98341257Y-95019600D01*
X98565311Y-94926794D01*
X98736794Y-94755311D01*
X98829600Y-94531257D01*
X98829600Y-93014800D01*
X98677200Y-92862400D01*
X96672400Y-92862400D01*
X96367600Y-92862400D01*
X96347600Y-92862400D01*
X96347600Y-92557600D01*
X96367600Y-92557600D01*
X96367600Y-90552800D01*
X96672400Y-90552800D01*
X96672400Y-92557600D01*
X98677200Y-92557600D01*
X98829600Y-92405200D01*
X98829600Y-90888743D01*
X98736794Y-90664689D01*
X98565311Y-90493206D01*
X98341257Y-90400400D01*
X96824800Y-90400400D01*
X96672400Y-90552800D01*
X96367600Y-90552800D01*
X96215200Y-90400400D01*
X95022800Y-90400400D01*
X95022800Y-80768078D01*
X97389789Y-78401089D01*
X97488898Y-78252763D01*
X97523700Y-78077800D01*
X97523700Y-72319617D01*
X97553915Y-72364837D01*
X97953572Y-72631879D01*
X97967800Y-72634709D01*
X97967800Y-79951200D01*
X98002602Y-80126163D01*
X98101711Y-80274489D01*
X102203900Y-84376678D01*
X102203900Y-91984400D01*
X102238702Y-92159363D01*
X102337811Y-92307689D01*
X113121811Y-103091689D01*
X113270137Y-103190798D01*
X113445100Y-103225600D01*
X121285000Y-103225600D01*
X121459963Y-103190798D01*
X121608289Y-103091689D01*
X121707398Y-102943363D01*
X121742200Y-102768400D01*
X121742200Y-102738685D01*
X121790448Y-102729088D01*
X122218947Y-102442775D01*
X122505260Y-102014276D01*
X122555000Y-101764216D01*
X122604740Y-102014276D01*
X122891053Y-102442775D01*
X123319552Y-102729088D01*
X123825000Y-102829628D01*
X124330448Y-102729088D01*
X124758947Y-102442775D01*
X125045260Y-102014276D01*
X125095000Y-101764216D01*
X125144740Y-102014276D01*
X125431053Y-102442775D01*
X125798516Y-102688306D01*
X123810547Y-104676275D01*
X123650037Y-104708202D01*
X123501711Y-104807311D01*
X123402602Y-104955637D01*
X123367800Y-105130600D01*
X123367800Y-105165291D01*
X123353572Y-105168121D01*
X122953915Y-105435163D01*
X122686873Y-105834820D01*
X122605200Y-106245416D01*
X122500664Y-106224623D01*
X122423127Y-105834820D01*
X122156085Y-105435163D01*
X121756428Y-105168121D01*
X121285000Y-105074348D01*
X120813572Y-105168121D01*
X120413915Y-105435163D01*
X120146873Y-105834820D01*
X120053100Y-106306248D01*
X120053100Y-107053752D01*
X120146873Y-107525180D01*
X120413915Y-107924837D01*
X120813572Y-108191879D01*
X121285000Y-108285652D01*
X121756428Y-108191879D01*
X122156085Y-107924837D01*
X122234661Y-107807239D01*
X122967211Y-108539789D01*
X123115537Y-108638898D01*
X123290500Y-108673700D01*
X124352000Y-108673700D01*
X124526963Y-108638898D01*
X124675289Y-108539789D01*
X125332889Y-107882189D01*
X125399154Y-107783017D01*
X125493915Y-107924837D01*
X125893572Y-108191879D01*
X126365000Y-108285652D01*
X126836428Y-108191879D01*
X127236085Y-107924837D01*
X127503127Y-107525180D01*
X127589197Y-107092477D01*
X128091840Y-107092477D01*
X128408259Y-107858270D01*
X128993648Y-108444682D01*
X129758888Y-108762437D01*
X130587477Y-108763160D01*
X131353270Y-108446741D01*
X131939682Y-107861352D01*
X132257437Y-107096112D01*
X132258160Y-106267523D01*
X131941741Y-105501730D01*
X131356352Y-104915318D01*
X130591112Y-104597563D01*
X129762523Y-104596840D01*
X128996730Y-104913259D01*
X128410318Y-105498648D01*
X128092563Y-106263888D01*
X128091840Y-107092477D01*
X127589197Y-107092477D01*
X127596900Y-107053752D01*
X127596900Y-106306248D01*
X127503127Y-105834820D01*
X127236085Y-105435163D01*
X126836428Y-105168121D01*
X126535429Y-105108249D01*
X128418078Y-103225600D01*
X128905000Y-103225600D01*
X129079963Y-103190798D01*
X129228289Y-103091689D01*
X129327398Y-102943363D01*
X129362200Y-102768400D01*
X129362200Y-102738685D01*
X129410448Y-102729088D01*
X129838947Y-102442775D01*
X130125260Y-102014276D01*
X130175000Y-101764216D01*
X130224740Y-102014276D01*
X130511053Y-102442775D01*
X130939552Y-102729088D01*
X131445000Y-102829628D01*
X131950448Y-102729088D01*
X132378947Y-102442775D01*
X132665260Y-102014276D01*
X132715000Y-101764216D01*
X132764740Y-102014276D01*
X133051053Y-102442775D01*
X133479552Y-102729088D01*
X133985000Y-102829628D01*
X134490448Y-102729088D01*
X134918947Y-102442775D01*
X135205260Y-102014276D01*
X135255000Y-101764216D01*
X135304740Y-102014276D01*
X135591053Y-102442775D01*
X136019552Y-102729088D01*
X136525000Y-102829628D01*
X137030448Y-102729088D01*
X137458947Y-102442775D01*
X137745260Y-102014276D01*
X137795000Y-101764216D01*
X137844740Y-102014276D01*
X138131053Y-102442775D01*
X138559552Y-102729088D01*
X139065000Y-102829628D01*
X139570448Y-102729088D01*
X139998947Y-102442775D01*
X140285260Y-102014276D01*
X140385800Y-101508828D01*
X140385800Y-100421172D01*
X140285260Y-99915724D01*
X139998947Y-99487225D01*
X139570448Y-99200912D01*
X139065000Y-99100372D01*
X138559552Y-99200912D01*
X138131053Y-99487225D01*
X137844740Y-99915724D01*
X137795000Y-100165784D01*
X137745260Y-99915724D01*
X137458947Y-99487225D01*
X137030448Y-99200912D01*
X136525000Y-99100372D01*
X136019552Y-99200912D01*
X135591053Y-99487225D01*
X135304740Y-99915724D01*
X135255000Y-100165784D01*
X135205260Y-99915724D01*
X134918947Y-99487225D01*
X134490448Y-99200912D01*
X133985000Y-99100372D01*
X133479552Y-99200912D01*
X133051053Y-99487225D01*
X132764740Y-99915724D01*
X132715000Y-100165784D01*
X132665260Y-99915724D01*
X132378947Y-99487225D01*
X131950448Y-99200912D01*
X131445000Y-99100372D01*
X130939552Y-99200912D01*
X130511053Y-99487225D01*
X130224740Y-99915724D01*
X130175000Y-100165784D01*
X130125260Y-99915724D01*
X129838947Y-99487225D01*
X129410448Y-99200912D01*
X128905000Y-99100372D01*
X128399552Y-99200912D01*
X127971053Y-99487225D01*
X127684740Y-99915724D01*
X127635000Y-100165784D01*
X127585260Y-99915724D01*
X127298947Y-99487225D01*
X126870448Y-99200912D01*
X126365000Y-99100372D01*
X125859552Y-99200912D01*
X125431053Y-99487225D01*
X125144740Y-99915724D01*
X125095000Y-100165784D01*
X125045260Y-99915724D01*
X124758947Y-99487225D01*
X124330448Y-99200912D01*
X124282200Y-99191315D01*
X124282200Y-99161600D01*
X124247398Y-98986637D01*
X124148289Y-98838311D01*
X123999963Y-98739202D01*
X123825000Y-98704400D01*
X118725600Y-98704400D01*
X118550637Y-98739202D01*
X118402311Y-98838311D01*
X116428422Y-100812200D01*
X115274600Y-100812200D01*
X115274600Y-99269800D01*
X115122200Y-99117400D01*
X113817400Y-99117400D01*
X113817400Y-99137400D01*
X113512600Y-99137400D01*
X113512600Y-99117400D01*
X113492600Y-99117400D01*
X113492600Y-98812600D01*
X113512600Y-98812600D01*
X113512600Y-96457800D01*
X113817400Y-96457800D01*
X113817400Y-98812600D01*
X115122200Y-98812600D01*
X115274600Y-98660200D01*
X115274600Y-96793743D01*
X115181794Y-96569689D01*
X115010311Y-96398206D01*
X114786257Y-96305400D01*
X113969800Y-96305400D01*
X113817400Y-96457800D01*
X113512600Y-96457800D01*
X113360200Y-96305400D01*
X112867800Y-96305400D01*
X112867800Y-93395800D01*
X148305667Y-93395800D01*
X148464211Y-94192853D01*
X148915705Y-94868562D01*
X149591414Y-95320056D01*
X150388467Y-95478600D01*
X152023933Y-95478600D01*
X152820986Y-95320056D01*
X153496695Y-94868562D01*
X153948189Y-94192853D01*
X154106733Y-93395800D01*
X153948189Y-92598747D01*
X153496695Y-91923038D01*
X152820986Y-91471544D01*
X152023933Y-91313000D01*
X150388467Y-91313000D01*
X149591414Y-91471544D01*
X148915705Y-91923038D01*
X148464211Y-92598747D01*
X148305667Y-93395800D01*
X112867800Y-93395800D01*
X112867800Y-92625771D01*
X114665000Y-92625771D01*
X114783927Y-92602115D01*
X114884748Y-92534748D01*
X114952115Y-92433927D01*
X114975771Y-92315000D01*
X114975771Y-91204800D01*
X115037722Y-91204800D01*
X115048461Y-91215539D01*
X115353354Y-91419262D01*
X115713000Y-91490800D01*
X121285000Y-91490800D01*
X121644646Y-91419262D01*
X121949539Y-91215539D01*
X122153262Y-90910646D01*
X122224800Y-90551000D01*
X122224800Y-89734015D01*
X122373970Y-89510766D01*
X122381462Y-89535889D01*
X122783290Y-90030236D01*
X123343709Y-90333180D01*
X123421297Y-90347674D01*
X123672600Y-90238296D01*
X123672600Y-88417400D01*
X123652600Y-88417400D01*
X123652600Y-88112600D01*
X123672600Y-88112600D01*
X123672600Y-86291704D01*
X123977400Y-86291704D01*
X123977400Y-88112600D01*
X123997400Y-88112600D01*
X123997400Y-88417400D01*
X123977400Y-88417400D01*
X123977400Y-90238296D01*
X124228703Y-90347674D01*
X124306291Y-90333180D01*
X124866710Y-90030236D01*
X125268538Y-89535889D01*
X125276030Y-89510766D01*
X125431053Y-89742775D01*
X125859552Y-90029088D01*
X126365000Y-90129628D01*
X126870448Y-90029088D01*
X127298947Y-89742775D01*
X127585260Y-89314276D01*
X127635000Y-89064216D01*
X127684740Y-89314276D01*
X127971053Y-89742775D01*
X128399552Y-90029088D01*
X128905000Y-90129628D01*
X129410448Y-90029088D01*
X129838947Y-89742775D01*
X130125260Y-89314276D01*
X130175000Y-89064216D01*
X130224740Y-89314276D01*
X130511053Y-89742775D01*
X130939552Y-90029088D01*
X131445000Y-90129628D01*
X131950448Y-90029088D01*
X132378947Y-89742775D01*
X132665260Y-89314276D01*
X132715000Y-89064216D01*
X132764740Y-89314276D01*
X133051053Y-89742775D01*
X133479552Y-90029088D01*
X133985000Y-90129628D01*
X134490448Y-90029088D01*
X134918947Y-89742775D01*
X135205260Y-89314276D01*
X135255000Y-89064216D01*
X135304740Y-89314276D01*
X135591053Y-89742775D01*
X136019552Y-90029088D01*
X136525000Y-90129628D01*
X137030448Y-90029088D01*
X137458947Y-89742775D01*
X137613970Y-89510766D01*
X137621462Y-89535889D01*
X138023290Y-90030236D01*
X138583709Y-90333180D01*
X138661297Y-90347674D01*
X138912600Y-90238296D01*
X138912600Y-88417400D01*
X139217400Y-88417400D01*
X139217400Y-90238296D01*
X139468703Y-90347674D01*
X139546291Y-90333180D01*
X140106710Y-90030236D01*
X140508538Y-89535889D01*
X140690600Y-88925400D01*
X140690600Y-88417400D01*
X139217400Y-88417400D01*
X138912600Y-88417400D01*
X138892600Y-88417400D01*
X138892600Y-88336267D01*
X141884400Y-88336267D01*
X141884400Y-89463733D01*
X142062278Y-90357988D01*
X142568833Y-91116100D01*
X143326945Y-91622655D01*
X144221200Y-91800533D01*
X145115455Y-91622655D01*
X145873567Y-91116100D01*
X146380122Y-90357988D01*
X146558000Y-89463733D01*
X146558000Y-89423265D01*
X146870045Y-89423265D01*
X146935425Y-89672896D01*
X147403549Y-90480525D01*
X148145106Y-91047534D01*
X149047200Y-91287600D01*
X149555200Y-91287600D01*
X149555200Y-89052400D01*
X146969602Y-89052400D01*
X146870045Y-89423265D01*
X146558000Y-89423265D01*
X146558000Y-88376735D01*
X146870045Y-88376735D01*
X146969602Y-88747600D01*
X149555200Y-88747600D01*
X149555200Y-86512400D01*
X149860000Y-86512400D01*
X149860000Y-88747600D01*
X149880000Y-88747600D01*
X149880000Y-89052400D01*
X149860000Y-89052400D01*
X149860000Y-91287600D01*
X150368000Y-91287600D01*
X151270094Y-91047534D01*
X152011651Y-90480525D01*
X152373277Y-89856632D01*
X152492463Y-89976026D01*
X152959073Y-90169779D01*
X153464310Y-90170220D01*
X153931258Y-89977282D01*
X154288826Y-89620337D01*
X154482579Y-89153727D01*
X154483020Y-88648490D01*
X154290082Y-88181542D01*
X153933137Y-87823974D01*
X153466527Y-87630221D01*
X152961290Y-87629780D01*
X152494342Y-87822718D01*
X152373352Y-87943498D01*
X152011651Y-87319475D01*
X151270094Y-86752466D01*
X150368000Y-86512400D01*
X149860000Y-86512400D01*
X149555200Y-86512400D01*
X149047200Y-86512400D01*
X148145106Y-86752466D01*
X147403549Y-87319475D01*
X146935425Y-88127104D01*
X146870045Y-88376735D01*
X146558000Y-88376735D01*
X146558000Y-88336267D01*
X146380122Y-87442012D01*
X145873567Y-86683900D01*
X145115455Y-86177345D01*
X144221200Y-85999467D01*
X143326945Y-86177345D01*
X142568833Y-86683900D01*
X142062278Y-87442012D01*
X141884400Y-88336267D01*
X138892600Y-88336267D01*
X138892600Y-88112600D01*
X138912600Y-88112600D01*
X138912600Y-86291704D01*
X139217400Y-86291704D01*
X139217400Y-88112600D01*
X140690600Y-88112600D01*
X140690600Y-87604600D01*
X140508538Y-86994111D01*
X140106710Y-86499764D01*
X139546291Y-86196820D01*
X139468703Y-86182326D01*
X139217400Y-86291704D01*
X138912600Y-86291704D01*
X138661297Y-86182326D01*
X138583709Y-86196820D01*
X138023290Y-86499764D01*
X137621462Y-86994111D01*
X137613970Y-87019234D01*
X137458947Y-86787225D01*
X137030448Y-86500912D01*
X136525000Y-86400372D01*
X136019552Y-86500912D01*
X135591053Y-86787225D01*
X135304740Y-87215724D01*
X135255000Y-87465784D01*
X135205260Y-87215724D01*
X134924800Y-86795985D01*
X134924800Y-84404200D01*
X148305667Y-84404200D01*
X148464211Y-85201253D01*
X148915705Y-85876962D01*
X149591414Y-86328456D01*
X150388467Y-86487000D01*
X152023933Y-86487000D01*
X152820986Y-86328456D01*
X153496695Y-85876962D01*
X153948189Y-85201253D01*
X154106733Y-84404200D01*
X153948189Y-83607147D01*
X153496695Y-82931438D01*
X152820986Y-82479944D01*
X152023933Y-82321400D01*
X150388467Y-82321400D01*
X149591414Y-82479944D01*
X148915705Y-82931438D01*
X148464211Y-83607147D01*
X148305667Y-84404200D01*
X134924800Y-84404200D01*
X134924800Y-81915000D01*
X134853262Y-81555354D01*
X134649539Y-81250461D01*
X134355951Y-80956873D01*
X136219927Y-80956873D01*
X136459171Y-81535887D01*
X136901783Y-81979272D01*
X137480379Y-82219526D01*
X138106873Y-82220073D01*
X138685887Y-81980829D01*
X139129272Y-81538217D01*
X139369526Y-80959621D01*
X139370073Y-80333127D01*
X139130829Y-79754113D01*
X138688217Y-79310728D01*
X138109621Y-79070474D01*
X137483127Y-79069927D01*
X136904113Y-79309171D01*
X136460728Y-79751783D01*
X136220474Y-80330379D01*
X136219927Y-80956873D01*
X134355951Y-80956873D01*
X134289586Y-80890508D01*
X134290073Y-80333127D01*
X134050829Y-79754113D01*
X133608217Y-79310728D01*
X133029621Y-79070474D01*
X132403127Y-79069927D01*
X131824113Y-79309171D01*
X131380728Y-79751783D01*
X131140474Y-80330379D01*
X131139927Y-80956873D01*
X131379171Y-81535887D01*
X131821783Y-81979272D01*
X132400379Y-82219526D01*
X132960937Y-82220015D01*
X133045200Y-82304278D01*
X133045200Y-86795985D01*
X132764740Y-87215724D01*
X132715000Y-87465784D01*
X132665260Y-87215724D01*
X132378947Y-86787225D01*
X131950448Y-86500912D01*
X131445000Y-86400372D01*
X130939552Y-86500912D01*
X130511053Y-86787225D01*
X130224740Y-87215724D01*
X130175000Y-87465784D01*
X130125260Y-87215724D01*
X129838947Y-86787225D01*
X129410448Y-86500912D01*
X128905000Y-86400372D01*
X128399552Y-86500912D01*
X127971053Y-86787225D01*
X127684740Y-87215724D01*
X127635000Y-87465784D01*
X127585260Y-87215724D01*
X127298947Y-86787225D01*
X126870448Y-86500912D01*
X126365000Y-86400372D01*
X125859552Y-86500912D01*
X125431053Y-86787225D01*
X125276030Y-87019234D01*
X125268538Y-86994111D01*
X124866710Y-86499764D01*
X124306291Y-86196820D01*
X124228703Y-86182326D01*
X123977400Y-86291704D01*
X123672600Y-86291704D01*
X123421297Y-86182326D01*
X123343709Y-86196820D01*
X122783290Y-86499764D01*
X122381462Y-86994111D01*
X122373970Y-87019234D01*
X122218947Y-86787225D01*
X121790448Y-86500912D01*
X121285000Y-86400372D01*
X120779552Y-86500912D01*
X120351053Y-86787225D01*
X120064740Y-87215724D01*
X119964200Y-87721172D01*
X119964200Y-88808828D01*
X120064740Y-89314276D01*
X120263138Y-89611200D01*
X116102278Y-89611200D01*
X116091539Y-89600461D01*
X115786646Y-89396738D01*
X115427000Y-89325200D01*
X114975771Y-89325200D01*
X114975771Y-88215000D01*
X114952115Y-88096073D01*
X114884748Y-87995252D01*
X114783927Y-87927885D01*
X114665000Y-87904229D01*
X112867800Y-87904229D01*
X112867800Y-86825878D01*
X118736805Y-80956873D01*
X120979927Y-80956873D01*
X121219171Y-81535887D01*
X121661783Y-81979272D01*
X122240379Y-82219526D01*
X122866873Y-82220073D01*
X123445887Y-81980829D01*
X123889272Y-81538217D01*
X124129526Y-80959621D01*
X124129528Y-80956873D01*
X126059927Y-80956873D01*
X126299171Y-81535887D01*
X126741783Y-81979272D01*
X127320379Y-82219526D01*
X127946873Y-82220073D01*
X128525887Y-81980829D01*
X128969272Y-81538217D01*
X129209526Y-80959621D01*
X129210073Y-80333127D01*
X128970829Y-79754113D01*
X128528217Y-79310728D01*
X127949621Y-79070474D01*
X127323127Y-79069927D01*
X126744113Y-79309171D01*
X126300728Y-79751783D01*
X126060474Y-80330379D01*
X126059927Y-80956873D01*
X124129528Y-80956873D01*
X124130073Y-80333127D01*
X123890829Y-79754113D01*
X123448217Y-79310728D01*
X122869621Y-79070474D01*
X122243127Y-79069927D01*
X121664113Y-79309171D01*
X121220728Y-79751783D01*
X120980474Y-80330379D01*
X120979927Y-80956873D01*
X118736805Y-80956873D01*
X121608289Y-78085389D01*
X121707398Y-77937063D01*
X121742200Y-77762100D01*
X121742200Y-72634709D01*
X121756428Y-72631879D01*
X122156085Y-72364837D01*
X122423127Y-71965180D01*
X122516900Y-71493752D01*
X122516900Y-70746248D01*
X122593100Y-70746248D01*
X122593100Y-71493752D01*
X122686873Y-71965180D01*
X122953915Y-72364837D01*
X123353572Y-72631879D01*
X123825000Y-72725652D01*
X124296428Y-72631879D01*
X124696085Y-72364837D01*
X124963127Y-71965180D01*
X125056900Y-71493752D01*
X125056900Y-70746248D01*
X125133100Y-70746248D01*
X125133100Y-71493752D01*
X125226873Y-71965180D01*
X125493915Y-72364837D01*
X125893572Y-72631879D01*
X126365000Y-72725652D01*
X126836428Y-72631879D01*
X127236085Y-72364837D01*
X127503127Y-71965180D01*
X127589197Y-71532477D01*
X128091840Y-71532477D01*
X128408259Y-72298270D01*
X128993648Y-72884682D01*
X129758888Y-73202437D01*
X130587477Y-73203160D01*
X131353270Y-72886741D01*
X131939682Y-72301352D01*
X132257437Y-71536112D01*
X132258160Y-70707523D01*
X131941741Y-69941730D01*
X131356352Y-69355318D01*
X130591112Y-69037563D01*
X129762523Y-69036840D01*
X128996730Y-69353259D01*
X128410318Y-69938648D01*
X128092563Y-70703888D01*
X128091840Y-71532477D01*
X127589197Y-71532477D01*
X127596900Y-71493752D01*
X127596900Y-70746248D01*
X127503127Y-70274820D01*
X127236085Y-69875163D01*
X126836428Y-69608121D01*
X126365000Y-69514348D01*
X125893572Y-69608121D01*
X125493915Y-69875163D01*
X125226873Y-70274820D01*
X125133100Y-70746248D01*
X125056900Y-70746248D01*
X124963127Y-70274820D01*
X124696085Y-69875163D01*
X124296428Y-69608121D01*
X123825000Y-69514348D01*
X123353572Y-69608121D01*
X122953915Y-69875163D01*
X122686873Y-70274820D01*
X122593100Y-70746248D01*
X122516900Y-70746248D01*
X122423127Y-70274820D01*
X122156085Y-69875163D01*
X121756428Y-69608121D01*
X121285000Y-69514348D01*
X120813572Y-69608121D01*
X120413915Y-69875163D01*
X120146873Y-70274820D01*
X120053100Y-70746248D01*
X120053100Y-71493752D01*
X120146873Y-71965180D01*
X120413915Y-72364837D01*
X120813572Y-72631879D01*
X120827800Y-72634709D01*
X120827800Y-77572722D01*
X119202200Y-79198322D01*
X119202200Y-72634709D01*
X119216428Y-72631879D01*
X119616085Y-72364837D01*
X119883127Y-71965180D01*
X119976900Y-71493752D01*
X119976900Y-70746248D01*
X119883127Y-70274820D01*
X119616085Y-69875163D01*
X119216428Y-69608121D01*
X118745000Y-69514348D01*
X118273572Y-69608121D01*
X117873915Y-69875163D01*
X117606873Y-70274820D01*
X117513100Y-70746248D01*
X117513100Y-71493752D01*
X117606873Y-71965180D01*
X117873915Y-72364837D01*
X118273572Y-72631879D01*
X118287800Y-72634709D01*
X118287800Y-79388822D01*
X106326711Y-91349911D01*
X106227602Y-91498237D01*
X106192800Y-91673200D01*
X106192800Y-93845256D01*
X106015144Y-94022601D01*
X105900830Y-94297901D01*
X105900586Y-94577308D01*
X103118300Y-91795022D01*
X103118300Y-84187300D01*
X103083498Y-84012337D01*
X102984389Y-83864011D01*
X100057447Y-80937069D01*
X100759945Y-80937069D01*
X100983996Y-81479316D01*
X101398502Y-81894546D01*
X101940357Y-82119543D01*
X102527069Y-82120055D01*
X103069316Y-81896004D01*
X103484546Y-81481498D01*
X103709543Y-80939643D01*
X103710055Y-80352931D01*
X103486004Y-79810684D01*
X103071498Y-79395454D01*
X102529643Y-79170457D01*
X101942931Y-79169945D01*
X101400684Y-79393996D01*
X100985454Y-79808502D01*
X100760457Y-80350357D01*
X100759945Y-80937069D01*
X100057447Y-80937069D01*
X98882200Y-79761822D01*
X98882200Y-72634709D01*
X98896428Y-72631879D01*
X99296085Y-72364837D01*
X99563127Y-71965180D01*
X99656900Y-71493752D01*
X99656900Y-70746248D01*
X99563127Y-70274820D01*
X99414778Y-70052800D01*
X99975222Y-70052800D01*
X99826873Y-70274820D01*
X99733100Y-70746248D01*
X99733100Y-71493752D01*
X99826873Y-71965180D01*
X100093915Y-72364837D01*
X100493572Y-72631879D01*
X100965000Y-72725652D01*
X101436428Y-72631879D01*
X101836085Y-72364837D01*
X102103127Y-71965180D01*
X102196900Y-71493752D01*
X102196900Y-70746248D01*
X102103127Y-70274820D01*
X101954778Y-70052800D01*
X102515222Y-70052800D01*
X102366873Y-70274820D01*
X102273100Y-70746248D01*
X102273100Y-71493752D01*
X102366873Y-71965180D01*
X102633915Y-72364837D01*
X103033572Y-72631879D01*
X103505000Y-72725652D01*
X103976428Y-72631879D01*
X104376085Y-72364837D01*
X104643127Y-71965180D01*
X104724800Y-71554584D01*
X104829336Y-71575377D01*
X104906873Y-71965180D01*
X105173915Y-72364837D01*
X105573572Y-72631879D01*
X106045000Y-72725652D01*
X106516428Y-72631879D01*
X106916085Y-72364837D01*
X106921300Y-72357032D01*
X106921300Y-73119822D01*
X104251111Y-75790011D01*
X104152002Y-75938337D01*
X104117200Y-76113300D01*
X104117200Y-85565300D01*
X104152002Y-85740263D01*
X104251111Y-85888589D01*
X104323589Y-85961067D01*
X104323370Y-86212091D01*
X104437204Y-86487590D01*
X104647801Y-86698556D01*
X104923101Y-86812870D01*
X105221191Y-86813130D01*
X105496690Y-86699296D01*
X105707656Y-86488699D01*
X105821970Y-86213399D01*
X105822230Y-85915309D01*
X105708396Y-85639810D01*
X105497799Y-85428844D01*
X105222499Y-85314530D01*
X105031600Y-85314363D01*
X105031600Y-82032562D01*
X105105548Y-82197324D01*
X105771109Y-82438673D01*
X106478366Y-82406952D01*
X106984452Y-82197324D01*
X107107542Y-81923069D01*
X106045000Y-80860526D01*
X106030858Y-80874669D01*
X105815331Y-80659142D01*
X105829474Y-80645000D01*
X106260526Y-80645000D01*
X107323069Y-81707542D01*
X107597324Y-81584452D01*
X107832081Y-80937069D01*
X108379945Y-80937069D01*
X108603996Y-81479316D01*
X109018502Y-81894546D01*
X109560357Y-82119543D01*
X110147069Y-82120055D01*
X110623813Y-81923069D01*
X112602458Y-81923069D01*
X112725548Y-82197324D01*
X113391109Y-82438673D01*
X114098366Y-82406952D01*
X114604452Y-82197324D01*
X114727542Y-81923069D01*
X113665000Y-80860526D01*
X112602458Y-81923069D01*
X110623813Y-81923069D01*
X110689316Y-81896004D01*
X111104546Y-81481498D01*
X111329543Y-80939643D01*
X111330039Y-80371109D01*
X111871327Y-80371109D01*
X111903048Y-81078366D01*
X112112676Y-81584452D01*
X112386931Y-81707542D01*
X113449474Y-80645000D01*
X113880526Y-80645000D01*
X114943069Y-81707542D01*
X115217324Y-81584452D01*
X115458673Y-80918891D01*
X115426952Y-80211634D01*
X115217324Y-79705548D01*
X114943069Y-79582458D01*
X113880526Y-80645000D01*
X113449474Y-80645000D01*
X112386931Y-79582458D01*
X112112676Y-79705548D01*
X111871327Y-80371109D01*
X111330039Y-80371109D01*
X111330055Y-80352931D01*
X111106004Y-79810684D01*
X110691498Y-79395454D01*
X110622807Y-79366931D01*
X112602458Y-79366931D01*
X113665000Y-80429474D01*
X114727542Y-79366931D01*
X114604452Y-79092676D01*
X113938891Y-78851327D01*
X113231634Y-78883048D01*
X112725548Y-79092676D01*
X112602458Y-79366931D01*
X110622807Y-79366931D01*
X110149643Y-79170457D01*
X109562931Y-79169945D01*
X109020684Y-79393996D01*
X108605454Y-79808502D01*
X108380457Y-80350357D01*
X108379945Y-80937069D01*
X107832081Y-80937069D01*
X107838673Y-80918891D01*
X107806952Y-80211634D01*
X107597324Y-79705548D01*
X107323069Y-79582458D01*
X106260526Y-80645000D01*
X105829474Y-80645000D01*
X105815331Y-80630858D01*
X106030858Y-80415331D01*
X106045000Y-80429474D01*
X107107542Y-79366931D01*
X106984452Y-79092676D01*
X106318891Y-78851327D01*
X105611634Y-78883048D01*
X105105548Y-79092676D01*
X105031600Y-79257438D01*
X105031600Y-76302678D01*
X107701789Y-73632489D01*
X107800898Y-73484163D01*
X107835700Y-73309200D01*
X107835700Y-72446211D01*
X108113572Y-72631879D01*
X108585000Y-72725652D01*
X109056428Y-72631879D01*
X109456085Y-72364837D01*
X109723127Y-71965180D01*
X109816900Y-71493752D01*
X109816900Y-70746248D01*
X109893100Y-70746248D01*
X109893100Y-71493752D01*
X109986873Y-71965180D01*
X110253915Y-72364837D01*
X110653572Y-72631879D01*
X111125000Y-72725652D01*
X111596428Y-72631879D01*
X111996085Y-72364837D01*
X112263127Y-71965180D01*
X112356900Y-71493752D01*
X112356900Y-70746248D01*
X112433100Y-70746248D01*
X112433100Y-71493752D01*
X112526873Y-71965180D01*
X112793915Y-72364837D01*
X113193572Y-72631879D01*
X113665000Y-72725652D01*
X114136428Y-72631879D01*
X114536085Y-72364837D01*
X114803127Y-71965180D01*
X114896900Y-71493752D01*
X114896900Y-70746248D01*
X114973100Y-70746248D01*
X114973100Y-71493752D01*
X115066873Y-71965180D01*
X115333915Y-72364837D01*
X115733572Y-72631879D01*
X116205000Y-72725652D01*
X116676428Y-72631879D01*
X117076085Y-72364837D01*
X117343127Y-71965180D01*
X117436900Y-71493752D01*
X117436900Y-70746248D01*
X117343127Y-70274820D01*
X117076085Y-69875163D01*
X116676428Y-69608121D01*
X116205000Y-69514348D01*
X115733572Y-69608121D01*
X115333915Y-69875163D01*
X115066873Y-70274820D01*
X114973100Y-70746248D01*
X114896900Y-70746248D01*
X114803127Y-70274820D01*
X114536085Y-69875163D01*
X114136428Y-69608121D01*
X113665000Y-69514348D01*
X113193572Y-69608121D01*
X112793915Y-69875163D01*
X112526873Y-70274820D01*
X112433100Y-70746248D01*
X112356900Y-70746248D01*
X112263127Y-70274820D01*
X111996085Y-69875163D01*
X111596428Y-69608121D01*
X111125000Y-69514348D01*
X110653572Y-69608121D01*
X110253915Y-69875163D01*
X109986873Y-70274820D01*
X109893100Y-70746248D01*
X109816900Y-70746248D01*
X109723127Y-70274820D01*
X109456085Y-69875163D01*
X109056428Y-69608121D01*
X108585000Y-69514348D01*
X108113572Y-69608121D01*
X107713915Y-69875163D01*
X107446873Y-70274820D01*
X107369336Y-70664623D01*
X107264800Y-70685416D01*
X107183127Y-70274820D01*
X106916085Y-69875163D01*
X106516428Y-69608121D01*
X106045000Y-69514348D01*
X105573572Y-69608121D01*
X105173915Y-69875163D01*
X105095299Y-69992821D01*
X104374789Y-69272311D01*
X104226463Y-69173202D01*
X104051500Y-69138400D01*
X97877700Y-69138400D01*
X97702737Y-69173202D01*
X97554411Y-69272311D01*
X96834381Y-69992341D01*
X96756085Y-69875163D01*
X96356428Y-69608121D01*
X95885000Y-69514348D01*
X95413572Y-69608121D01*
X95013915Y-69875163D01*
X94746873Y-70274820D01*
X94653100Y-70746248D01*
X94653100Y-71493752D01*
X94746873Y-71965180D01*
X95013915Y-72364837D01*
X95413572Y-72631879D01*
X95885000Y-72725652D01*
X96356428Y-72631879D01*
X96609300Y-72462916D01*
X96609300Y-77888422D01*
X94242311Y-80255411D01*
X94143202Y-80403737D01*
X94108400Y-80578700D01*
X86144100Y-80578700D01*
X86144100Y-76612477D01*
X87451840Y-76612477D01*
X87768259Y-77378270D01*
X88353648Y-77964682D01*
X89118888Y-78282437D01*
X89947477Y-78283160D01*
X90713270Y-77966741D01*
X91299682Y-77381352D01*
X91617437Y-76616112D01*
X91618160Y-75787523D01*
X91301741Y-75021730D01*
X90716352Y-74435318D01*
X89951112Y-74117563D01*
X89122523Y-74116840D01*
X88356730Y-74433259D01*
X87770318Y-75018648D01*
X87452563Y-75783888D01*
X87451840Y-76612477D01*
X86144100Y-76612477D01*
X86144100Y-69850000D01*
X87027129Y-69850000D01*
X87027129Y-72390000D01*
X87050785Y-72508927D01*
X87118152Y-72609748D01*
X87218973Y-72677115D01*
X87337900Y-72700771D01*
X89192100Y-72700771D01*
X89311027Y-72677115D01*
X89411848Y-72609748D01*
X89479215Y-72508927D01*
X89502871Y-72390000D01*
X89502871Y-72263898D01*
X89826152Y-72657274D01*
X90357730Y-72940947D01*
X90415269Y-72949357D01*
X90652600Y-72838785D01*
X90652600Y-71272400D01*
X90632600Y-71272400D01*
X90632600Y-70967600D01*
X90652600Y-70967600D01*
X90652600Y-69401215D01*
X90957400Y-69401215D01*
X90957400Y-70967600D01*
X90977400Y-70967600D01*
X90977400Y-71272400D01*
X90957400Y-71272400D01*
X90957400Y-72838785D01*
X91194731Y-72949357D01*
X91252270Y-72940947D01*
X91783848Y-72657274D01*
X92166405Y-72191769D01*
X92226414Y-71994425D01*
X92473915Y-72364837D01*
X92873572Y-72631879D01*
X93345000Y-72725652D01*
X93816428Y-72631879D01*
X94216085Y-72364837D01*
X94483127Y-71965180D01*
X94576900Y-71493752D01*
X94576900Y-70746248D01*
X94483127Y-70274820D01*
X94216085Y-69875163D01*
X93816428Y-69608121D01*
X93345000Y-69514348D01*
X92873572Y-69608121D01*
X92473915Y-69875163D01*
X92226414Y-70245575D01*
X92166405Y-70048231D01*
X91783848Y-69582726D01*
X91252270Y-69299053D01*
X91194731Y-69290643D01*
X90957400Y-69401215D01*
X90652600Y-69401215D01*
X90415269Y-69290643D01*
X90357730Y-69299053D01*
X89826152Y-69582726D01*
X89502871Y-69976102D01*
X89502871Y-69850000D01*
X89479215Y-69731073D01*
X89411848Y-69630252D01*
X89311027Y-69562885D01*
X89192100Y-69539229D01*
X87337900Y-69539229D01*
X87218973Y-69562885D01*
X87118152Y-69630252D01*
X87050785Y-69731073D01*
X87027129Y-69850000D01*
X86144100Y-69850000D01*
X86144100Y-68364100D01*
X155790900Y-68364100D01*
X155790900Y-109435900D01*
X155790900Y-109435900D01*
G37*
X155790900Y-109435900D02*
X86144100Y-109435900D01*
X86144100Y-106306248D01*
X87033100Y-106306248D01*
X87033100Y-107053752D01*
X87126873Y-107525180D01*
X87393915Y-107924837D01*
X87793572Y-108191879D01*
X88265000Y-108285652D01*
X88736428Y-108191879D01*
X89136085Y-107924837D01*
X89403127Y-107525180D01*
X89496900Y-107053752D01*
X89496900Y-106306248D01*
X89573100Y-106306248D01*
X89573100Y-107053752D01*
X89666873Y-107525180D01*
X89933915Y-107924837D01*
X90333572Y-108191879D01*
X90805000Y-108285652D01*
X91276428Y-108191879D01*
X91676085Y-107924837D01*
X91943127Y-107525180D01*
X92036900Y-107053752D01*
X92036900Y-106306248D01*
X92113100Y-106306248D01*
X92113100Y-107053752D01*
X92206873Y-107525180D01*
X92473915Y-107924837D01*
X92873572Y-108191879D01*
X93345000Y-108285652D01*
X93816428Y-108191879D01*
X94216085Y-107924837D01*
X94483127Y-107525180D01*
X94576900Y-107053752D01*
X94576900Y-106306248D01*
X94653100Y-106306248D01*
X94653100Y-107053752D01*
X94746873Y-107525180D01*
X95013915Y-107924837D01*
X95413572Y-108191879D01*
X95885000Y-108285652D01*
X96356428Y-108191879D01*
X96756085Y-107924837D01*
X97023127Y-107525180D01*
X97116900Y-107053752D01*
X97116900Y-106306248D01*
X97193100Y-106306248D01*
X97193100Y-107053752D01*
X97286873Y-107525180D01*
X97553915Y-107924837D01*
X97953572Y-108191879D01*
X98425000Y-108285652D01*
X98896428Y-108191879D01*
X99296085Y-107924837D01*
X99563127Y-107525180D01*
X99656900Y-107053752D01*
X99656900Y-106306248D01*
X99733100Y-106306248D01*
X99733100Y-107053752D01*
X99826873Y-107525180D01*
X100093915Y-107924837D01*
X100493572Y-108191879D01*
X100965000Y-108285652D01*
X101436428Y-108191879D01*
X101836085Y-107924837D01*
X102103127Y-107525180D01*
X102196900Y-107053752D01*
X102196900Y-106306248D01*
X102273100Y-106306248D01*
X102273100Y-107053752D01*
X102366873Y-107525180D01*
X102633915Y-107924837D01*
X103033572Y-108191879D01*
X103505000Y-108285652D01*
X103976428Y-108191879D01*
X104376085Y-107924837D01*
X104643127Y-107525180D01*
X104736900Y-107053752D01*
X104736900Y-106306248D01*
X104813100Y-106306248D01*
X104813100Y-107053752D01*
X104906873Y-107525180D01*
X105173915Y-107924837D01*
X105573572Y-108191879D01*
X106045000Y-108285652D01*
X106516428Y-108191879D01*
X106916085Y-107924837D01*
X107183127Y-107525180D01*
X107276900Y-107053752D01*
X107276900Y-106306248D01*
X107353100Y-106306248D01*
X107353100Y-107053752D01*
X107446873Y-107525180D01*
X107713915Y-107924837D01*
X108113572Y-108191879D01*
X108585000Y-108285652D01*
X109056428Y-108191879D01*
X109456085Y-107924837D01*
X109723127Y-107525180D01*
X109816900Y-107053752D01*
X109816900Y-106306248D01*
X109893100Y-106306248D01*
X109893100Y-107053752D01*
X109986873Y-107525180D01*
X110253915Y-107924837D01*
X110653572Y-108191879D01*
X111125000Y-108285652D01*
X111596428Y-108191879D01*
X111996085Y-107924837D01*
X112263127Y-107525180D01*
X112356900Y-107053752D01*
X112356900Y-106306248D01*
X112433100Y-106306248D01*
X112433100Y-107053752D01*
X112526873Y-107525180D01*
X112793915Y-107924837D01*
X113193572Y-108191879D01*
X113665000Y-108285652D01*
X114136428Y-108191879D01*
X114536085Y-107924837D01*
X114803127Y-107525180D01*
X114896900Y-107053752D01*
X114896900Y-106306248D01*
X114973100Y-106306248D01*
X114973100Y-107053752D01*
X115066873Y-107525180D01*
X115333915Y-107924837D01*
X115733572Y-108191879D01*
X116205000Y-108285652D01*
X116676428Y-108191879D01*
X117076085Y-107924837D01*
X117343127Y-107525180D01*
X117436900Y-107053752D01*
X117436900Y-106306248D01*
X117513100Y-106306248D01*
X117513100Y-107053752D01*
X117606873Y-107525180D01*
X117873915Y-107924837D01*
X118273572Y-108191879D01*
X118745000Y-108285652D01*
X119216428Y-108191879D01*
X119616085Y-107924837D01*
X119883127Y-107525180D01*
X119976900Y-107053752D01*
X119976900Y-106306248D01*
X119883127Y-105834820D01*
X119616085Y-105435163D01*
X119216428Y-105168121D01*
X118745000Y-105074348D01*
X118273572Y-105168121D01*
X117873915Y-105435163D01*
X117606873Y-105834820D01*
X117513100Y-106306248D01*
X117436900Y-106306248D01*
X117343127Y-105834820D01*
X117076085Y-105435163D01*
X116676428Y-105168121D01*
X116205000Y-105074348D01*
X115733572Y-105168121D01*
X115333915Y-105435163D01*
X115066873Y-105834820D01*
X114973100Y-106306248D01*
X114896900Y-106306248D01*
X114803127Y-105834820D01*
X114536085Y-105435163D01*
X114136428Y-105168121D01*
X113665000Y-105074348D01*
X113193572Y-105168121D01*
X112793915Y-105435163D01*
X112526873Y-105834820D01*
X112433100Y-106306248D01*
X112356900Y-106306248D01*
X112263127Y-105834820D01*
X111996085Y-105435163D01*
X111596428Y-105168121D01*
X111125000Y-105074348D01*
X110653572Y-105168121D01*
X110253915Y-105435163D01*
X109986873Y-105834820D01*
X109893100Y-106306248D01*
X109816900Y-106306248D01*
X109723127Y-105834820D01*
X109456085Y-105435163D01*
X109056428Y-105168121D01*
X108585000Y-105074348D01*
X108113572Y-105168121D01*
X107713915Y-105435163D01*
X107446873Y-105834820D01*
X107353100Y-106306248D01*
X107276900Y-106306248D01*
X107183127Y-105834820D01*
X106916085Y-105435163D01*
X106516428Y-105168121D01*
X106045000Y-105074348D01*
X105573572Y-105168121D01*
X105173915Y-105435163D01*
X104906873Y-105834820D01*
X104813100Y-106306248D01*
X104736900Y-106306248D01*
X104643127Y-105834820D01*
X104376085Y-105435163D01*
X103976428Y-105168121D01*
X103505000Y-105074348D01*
X103033572Y-105168121D01*
X102633915Y-105435163D01*
X102366873Y-105834820D01*
X102273100Y-106306248D01*
X102196900Y-106306248D01*
X102103127Y-105834820D01*
X101836085Y-105435163D01*
X101436428Y-105168121D01*
X100965000Y-105074348D01*
X100493572Y-105168121D01*
X100093915Y-105435163D01*
X99826873Y-105834820D01*
X99733100Y-106306248D01*
X99656900Y-106306248D01*
X99563127Y-105834820D01*
X99296085Y-105435163D01*
X98896428Y-105168121D01*
X98425000Y-105074348D01*
X97953572Y-105168121D01*
X97553915Y-105435163D01*
X97286873Y-105834820D01*
X97193100Y-106306248D01*
X97116900Y-106306248D01*
X97023127Y-105834820D01*
X96756085Y-105435163D01*
X96356428Y-105168121D01*
X96342200Y-105165291D01*
X96342200Y-100015278D01*
X97315967Y-99041511D01*
X97566991Y-99041730D01*
X97842490Y-98927896D01*
X98053456Y-98717299D01*
X98167770Y-98441999D01*
X98167990Y-98189488D01*
X101767289Y-94590189D01*
X101866398Y-94441863D01*
X101894773Y-94299209D01*
X101901200Y-94266900D01*
X101901200Y-90986044D01*
X102078856Y-90808699D01*
X102193170Y-90533399D01*
X102193430Y-90235309D01*
X102079596Y-89959810D01*
X101868999Y-89748844D01*
X101593699Y-89634530D01*
X101295609Y-89634270D01*
X101020110Y-89748104D01*
X100809144Y-89958701D01*
X100694830Y-90234001D01*
X100694570Y-90532091D01*
X100808404Y-90807590D01*
X100986800Y-90986299D01*
X100986800Y-94077522D01*
X97521233Y-97543089D01*
X97270209Y-97542870D01*
X96994710Y-97656704D01*
X96783744Y-97867301D01*
X96669430Y-98142601D01*
X96669210Y-98395112D01*
X95561711Y-99502611D01*
X95462602Y-99650937D01*
X95427800Y-99825900D01*
X95427800Y-105165291D01*
X95413572Y-105168121D01*
X95013915Y-105435163D01*
X94746873Y-105834820D01*
X94653100Y-106306248D01*
X94576900Y-106306248D01*
X94483127Y-105834820D01*
X94216085Y-105435163D01*
X93816428Y-105168121D01*
X93345000Y-105074348D01*
X92873572Y-105168121D01*
X92473915Y-105435163D01*
X92206873Y-105834820D01*
X92113100Y-106306248D01*
X92036900Y-106306248D01*
X91943127Y-105834820D01*
X91676085Y-105435163D01*
X91276428Y-105168121D01*
X90805000Y-105074348D01*
X90333572Y-105168121D01*
X89933915Y-105435163D01*
X89666873Y-105834820D01*
X89573100Y-106306248D01*
X89496900Y-106306248D01*
X89403127Y-105834820D01*
X89136085Y-105435163D01*
X88736428Y-105168121D01*
X88265000Y-105074348D01*
X87793572Y-105168121D01*
X87393915Y-105435163D01*
X87126873Y-105834820D01*
X87033100Y-106306248D01*
X86144100Y-106306248D01*
X86144100Y-102012477D01*
X87451840Y-102012477D01*
X87768259Y-102778270D01*
X88353648Y-103364682D01*
X89118888Y-103682437D01*
X89947477Y-103683160D01*
X90713270Y-103366741D01*
X91299682Y-102781352D01*
X91617437Y-102016112D01*
X91618160Y-101187523D01*
X91301741Y-100421730D01*
X90716352Y-99835318D01*
X89951112Y-99517563D01*
X89122523Y-99516840D01*
X88356730Y-99833259D01*
X87770318Y-100418648D01*
X87452563Y-101183888D01*
X87451840Y-102012477D01*
X86144100Y-102012477D01*
X86144100Y-80578700D01*
X94108400Y-80578700D01*
X94108400Y-96399300D01*
X94143202Y-96574263D01*
X94242311Y-96722589D01*
X94871889Y-97352168D01*
X94871670Y-97603191D01*
X94985504Y-97878690D01*
X95196101Y-98089656D01*
X95471401Y-98203970D01*
X95769491Y-98204230D01*
X96044990Y-98090396D01*
X96255956Y-97879799D01*
X96370270Y-97604499D01*
X96370530Y-97306409D01*
X96256696Y-97030910D01*
X96046099Y-96819944D01*
X95770799Y-96705630D01*
X95518288Y-96705410D01*
X95022800Y-96209922D01*
X95022800Y-95019600D01*
X96215200Y-95019600D01*
X96367600Y-94867200D01*
X96367600Y-92862400D01*
X96672400Y-92862400D01*
X96672400Y-94867200D01*
X96824800Y-95019600D01*
X98341257Y-95019600D01*
X98565311Y-94926794D01*
X98736794Y-94755311D01*
X98829600Y-94531257D01*
X98829600Y-93014800D01*
X98677200Y-92862400D01*
X96672400Y-92862400D01*
X96367600Y-92862400D01*
X96347600Y-92862400D01*
X96347600Y-92557600D01*
X96367600Y-92557600D01*
X96367600Y-90552800D01*
X96672400Y-90552800D01*
X96672400Y-92557600D01*
X98677200Y-92557600D01*
X98829600Y-92405200D01*
X98829600Y-90888743D01*
X98736794Y-90664689D01*
X98565311Y-90493206D01*
X98341257Y-90400400D01*
X96824800Y-90400400D01*
X96672400Y-90552800D01*
X96367600Y-90552800D01*
X96215200Y-90400400D01*
X95022800Y-90400400D01*
X95022800Y-80768078D01*
X97389789Y-78401089D01*
X97488898Y-78252763D01*
X97523700Y-78077800D01*
X97523700Y-72319617D01*
X97553915Y-72364837D01*
X97953572Y-72631879D01*
X97967800Y-72634709D01*
X97967800Y-79951200D01*
X98002602Y-80126163D01*
X98101711Y-80274489D01*
X102203900Y-84376678D01*
X102203900Y-91984400D01*
X102238702Y-92159363D01*
X102337811Y-92307689D01*
X113121811Y-103091689D01*
X113270137Y-103190798D01*
X113445100Y-103225600D01*
X121285000Y-103225600D01*
X121459963Y-103190798D01*
X121608289Y-103091689D01*
X121707398Y-102943363D01*
X121742200Y-102768400D01*
X121742200Y-102738685D01*
X121790448Y-102729088D01*
X122218947Y-102442775D01*
X122505260Y-102014276D01*
X122555000Y-101764216D01*
X122604740Y-102014276D01*
X122891053Y-102442775D01*
X123319552Y-102729088D01*
X123825000Y-102829628D01*
X124330448Y-102729088D01*
X124758947Y-102442775D01*
X125045260Y-102014276D01*
X125095000Y-101764216D01*
X125144740Y-102014276D01*
X125431053Y-102442775D01*
X125798516Y-102688306D01*
X123810547Y-104676275D01*
X123650037Y-104708202D01*
X123501711Y-104807311D01*
X123402602Y-104955637D01*
X123367800Y-105130600D01*
X123367800Y-105165291D01*
X123353572Y-105168121D01*
X122953915Y-105435163D01*
X122686873Y-105834820D01*
X122605200Y-106245416D01*
X122500664Y-106224623D01*
X122423127Y-105834820D01*
X122156085Y-105435163D01*
X121756428Y-105168121D01*
X121285000Y-105074348D01*
X120813572Y-105168121D01*
X120413915Y-105435163D01*
X120146873Y-105834820D01*
X120053100Y-106306248D01*
X120053100Y-107053752D01*
X120146873Y-107525180D01*
X120413915Y-107924837D01*
X120813572Y-108191879D01*
X121285000Y-108285652D01*
X121756428Y-108191879D01*
X122156085Y-107924837D01*
X122234661Y-107807239D01*
X122967211Y-108539789D01*
X123115537Y-108638898D01*
X123290500Y-108673700D01*
X124352000Y-108673700D01*
X124526963Y-108638898D01*
X124675289Y-108539789D01*
X125332889Y-107882189D01*
X125399154Y-107783017D01*
X125493915Y-107924837D01*
X125893572Y-108191879D01*
X126365000Y-108285652D01*
X126836428Y-108191879D01*
X127236085Y-107924837D01*
X127503127Y-107525180D01*
X127589197Y-107092477D01*
X128091840Y-107092477D01*
X128408259Y-107858270D01*
X128993648Y-108444682D01*
X129758888Y-108762437D01*
X130587477Y-108763160D01*
X131353270Y-108446741D01*
X131939682Y-107861352D01*
X132257437Y-107096112D01*
X132258160Y-106267523D01*
X131941741Y-105501730D01*
X131356352Y-104915318D01*
X130591112Y-104597563D01*
X129762523Y-104596840D01*
X128996730Y-104913259D01*
X128410318Y-105498648D01*
X128092563Y-106263888D01*
X128091840Y-107092477D01*
X127589197Y-107092477D01*
X127596900Y-107053752D01*
X127596900Y-106306248D01*
X127503127Y-105834820D01*
X127236085Y-105435163D01*
X126836428Y-105168121D01*
X126535429Y-105108249D01*
X128418078Y-103225600D01*
X128905000Y-103225600D01*
X129079963Y-103190798D01*
X129228289Y-103091689D01*
X129327398Y-102943363D01*
X129362200Y-102768400D01*
X129362200Y-102738685D01*
X129410448Y-102729088D01*
X129838947Y-102442775D01*
X130125260Y-102014276D01*
X130175000Y-101764216D01*
X130224740Y-102014276D01*
X130511053Y-102442775D01*
X130939552Y-102729088D01*
X131445000Y-102829628D01*
X131950448Y-102729088D01*
X132378947Y-102442775D01*
X132665260Y-102014276D01*
X132715000Y-101764216D01*
X132764740Y-102014276D01*
X133051053Y-102442775D01*
X133479552Y-102729088D01*
X133985000Y-102829628D01*
X134490448Y-102729088D01*
X134918947Y-102442775D01*
X135205260Y-102014276D01*
X135255000Y-101764216D01*
X135304740Y-102014276D01*
X135591053Y-102442775D01*
X136019552Y-102729088D01*
X136525000Y-102829628D01*
X137030448Y-102729088D01*
X137458947Y-102442775D01*
X137745260Y-102014276D01*
X137795000Y-101764216D01*
X137844740Y-102014276D01*
X138131053Y-102442775D01*
X138559552Y-102729088D01*
X139065000Y-102829628D01*
X139570448Y-102729088D01*
X139998947Y-102442775D01*
X140285260Y-102014276D01*
X140385800Y-101508828D01*
X140385800Y-100421172D01*
X140285260Y-99915724D01*
X139998947Y-99487225D01*
X139570448Y-99200912D01*
X139065000Y-99100372D01*
X138559552Y-99200912D01*
X138131053Y-99487225D01*
X137844740Y-99915724D01*
X137795000Y-100165784D01*
X137745260Y-99915724D01*
X137458947Y-99487225D01*
X137030448Y-99200912D01*
X136525000Y-99100372D01*
X136019552Y-99200912D01*
X135591053Y-99487225D01*
X135304740Y-99915724D01*
X135255000Y-100165784D01*
X135205260Y-99915724D01*
X134918947Y-99487225D01*
X134490448Y-99200912D01*
X133985000Y-99100372D01*
X133479552Y-99200912D01*
X133051053Y-99487225D01*
X132764740Y-99915724D01*
X132715000Y-100165784D01*
X132665260Y-99915724D01*
X132378947Y-99487225D01*
X131950448Y-99200912D01*
X131445000Y-99100372D01*
X130939552Y-99200912D01*
X130511053Y-99487225D01*
X130224740Y-99915724D01*
X130175000Y-100165784D01*
X130125260Y-99915724D01*
X129838947Y-99487225D01*
X129410448Y-99200912D01*
X128905000Y-99100372D01*
X128399552Y-99200912D01*
X127971053Y-99487225D01*
X127684740Y-99915724D01*
X127635000Y-100165784D01*
X127585260Y-99915724D01*
X127298947Y-99487225D01*
X126870448Y-99200912D01*
X126365000Y-99100372D01*
X125859552Y-99200912D01*
X125431053Y-99487225D01*
X125144740Y-99915724D01*
X125095000Y-100165784D01*
X125045260Y-99915724D01*
X124758947Y-99487225D01*
X124330448Y-99200912D01*
X124282200Y-99191315D01*
X124282200Y-99161600D01*
X124247398Y-98986637D01*
X124148289Y-98838311D01*
X123999963Y-98739202D01*
X123825000Y-98704400D01*
X118725600Y-98704400D01*
X118550637Y-98739202D01*
X118402311Y-98838311D01*
X116428422Y-100812200D01*
X115274600Y-100812200D01*
X115274600Y-99269800D01*
X115122200Y-99117400D01*
X113817400Y-99117400D01*
X113817400Y-99137400D01*
X113512600Y-99137400D01*
X113512600Y-99117400D01*
X113492600Y-99117400D01*
X113492600Y-98812600D01*
X113512600Y-98812600D01*
X113512600Y-96457800D01*
X113817400Y-96457800D01*
X113817400Y-98812600D01*
X115122200Y-98812600D01*
X115274600Y-98660200D01*
X115274600Y-96793743D01*
X115181794Y-96569689D01*
X115010311Y-96398206D01*
X114786257Y-96305400D01*
X113969800Y-96305400D01*
X113817400Y-96457800D01*
X113512600Y-96457800D01*
X113360200Y-96305400D01*
X112867800Y-96305400D01*
X112867800Y-93395800D01*
X148305667Y-93395800D01*
X148464211Y-94192853D01*
X148915705Y-94868562D01*
X149591414Y-95320056D01*
X150388467Y-95478600D01*
X152023933Y-95478600D01*
X152820986Y-95320056D01*
X153496695Y-94868562D01*
X153948189Y-94192853D01*
X154106733Y-93395800D01*
X153948189Y-92598747D01*
X153496695Y-91923038D01*
X152820986Y-91471544D01*
X152023933Y-91313000D01*
X150388467Y-91313000D01*
X149591414Y-91471544D01*
X148915705Y-91923038D01*
X148464211Y-92598747D01*
X148305667Y-93395800D01*
X112867800Y-93395800D01*
X112867800Y-92625771D01*
X114665000Y-92625771D01*
X114783927Y-92602115D01*
X114884748Y-92534748D01*
X114952115Y-92433927D01*
X114975771Y-92315000D01*
X114975771Y-91204800D01*
X115037722Y-91204800D01*
X115048461Y-91215539D01*
X115353354Y-91419262D01*
X115713000Y-91490800D01*
X121285000Y-91490800D01*
X121644646Y-91419262D01*
X121949539Y-91215539D01*
X122153262Y-90910646D01*
X122224800Y-90551000D01*
X122224800Y-89734015D01*
X122373970Y-89510766D01*
X122381462Y-89535889D01*
X122783290Y-90030236D01*
X123343709Y-90333180D01*
X123421297Y-90347674D01*
X123672600Y-90238296D01*
X123672600Y-88417400D01*
X123652600Y-88417400D01*
X123652600Y-88112600D01*
X123672600Y-88112600D01*
X123672600Y-86291704D01*
X123977400Y-86291704D01*
X123977400Y-88112600D01*
X123997400Y-88112600D01*
X123997400Y-88417400D01*
X123977400Y-88417400D01*
X123977400Y-90238296D01*
X124228703Y-90347674D01*
X124306291Y-90333180D01*
X124866710Y-90030236D01*
X125268538Y-89535889D01*
X125276030Y-89510766D01*
X125431053Y-89742775D01*
X125859552Y-90029088D01*
X126365000Y-90129628D01*
X126870448Y-90029088D01*
X127298947Y-89742775D01*
X127585260Y-89314276D01*
X127635000Y-89064216D01*
X127684740Y-89314276D01*
X127971053Y-89742775D01*
X128399552Y-90029088D01*
X128905000Y-90129628D01*
X129410448Y-90029088D01*
X129838947Y-89742775D01*
X130125260Y-89314276D01*
X130175000Y-89064216D01*
X130224740Y-89314276D01*
X130511053Y-89742775D01*
X130939552Y-90029088D01*
X131445000Y-90129628D01*
X131950448Y-90029088D01*
X132378947Y-89742775D01*
X132665260Y-89314276D01*
X132715000Y-89064216D01*
X132764740Y-89314276D01*
X133051053Y-89742775D01*
X133479552Y-90029088D01*
X133985000Y-90129628D01*
X134490448Y-90029088D01*
X134918947Y-89742775D01*
X135205260Y-89314276D01*
X135255000Y-89064216D01*
X135304740Y-89314276D01*
X135591053Y-89742775D01*
X136019552Y-90029088D01*
X136525000Y-90129628D01*
X137030448Y-90029088D01*
X137458947Y-89742775D01*
X137613970Y-89510766D01*
X137621462Y-89535889D01*
X138023290Y-90030236D01*
X138583709Y-90333180D01*
X138661297Y-90347674D01*
X138912600Y-90238296D01*
X138912600Y-88417400D01*
X139217400Y-88417400D01*
X139217400Y-90238296D01*
X139468703Y-90347674D01*
X139546291Y-90333180D01*
X140106710Y-90030236D01*
X140508538Y-89535889D01*
X140690600Y-88925400D01*
X140690600Y-88417400D01*
X139217400Y-88417400D01*
X138912600Y-88417400D01*
X138892600Y-88417400D01*
X138892600Y-88336267D01*
X141884400Y-88336267D01*
X141884400Y-89463733D01*
X142062278Y-90357988D01*
X142568833Y-91116100D01*
X143326945Y-91622655D01*
X144221200Y-91800533D01*
X145115455Y-91622655D01*
X145873567Y-91116100D01*
X146380122Y-90357988D01*
X146558000Y-89463733D01*
X146558000Y-89423265D01*
X146870045Y-89423265D01*
X146935425Y-89672896D01*
X147403549Y-90480525D01*
X148145106Y-91047534D01*
X149047200Y-91287600D01*
X149555200Y-91287600D01*
X149555200Y-89052400D01*
X146969602Y-89052400D01*
X146870045Y-89423265D01*
X146558000Y-89423265D01*
X146558000Y-88376735D01*
X146870045Y-88376735D01*
X146969602Y-88747600D01*
X149555200Y-88747600D01*
X149555200Y-86512400D01*
X149860000Y-86512400D01*
X149860000Y-88747600D01*
X149880000Y-88747600D01*
X149880000Y-89052400D01*
X149860000Y-89052400D01*
X149860000Y-91287600D01*
X150368000Y-91287600D01*
X151270094Y-91047534D01*
X152011651Y-90480525D01*
X152373277Y-89856632D01*
X152492463Y-89976026D01*
X152959073Y-90169779D01*
X153464310Y-90170220D01*
X153931258Y-89977282D01*
X154288826Y-89620337D01*
X154482579Y-89153727D01*
X154483020Y-88648490D01*
X154290082Y-88181542D01*
X153933137Y-87823974D01*
X153466527Y-87630221D01*
X152961290Y-87629780D01*
X152494342Y-87822718D01*
X152373352Y-87943498D01*
X152011651Y-87319475D01*
X151270094Y-86752466D01*
X150368000Y-86512400D01*
X149860000Y-86512400D01*
X149555200Y-86512400D01*
X149047200Y-86512400D01*
X148145106Y-86752466D01*
X147403549Y-87319475D01*
X146935425Y-88127104D01*
X146870045Y-88376735D01*
X146558000Y-88376735D01*
X146558000Y-88336267D01*
X146380122Y-87442012D01*
X145873567Y-86683900D01*
X145115455Y-86177345D01*
X144221200Y-85999467D01*
X143326945Y-86177345D01*
X142568833Y-86683900D01*
X142062278Y-87442012D01*
X141884400Y-88336267D01*
X138892600Y-88336267D01*
X138892600Y-88112600D01*
X138912600Y-88112600D01*
X138912600Y-86291704D01*
X139217400Y-86291704D01*
X139217400Y-88112600D01*
X140690600Y-88112600D01*
X140690600Y-87604600D01*
X140508538Y-86994111D01*
X140106710Y-86499764D01*
X139546291Y-86196820D01*
X139468703Y-86182326D01*
X139217400Y-86291704D01*
X138912600Y-86291704D01*
X138661297Y-86182326D01*
X138583709Y-86196820D01*
X138023290Y-86499764D01*
X137621462Y-86994111D01*
X137613970Y-87019234D01*
X137458947Y-86787225D01*
X137030448Y-86500912D01*
X136525000Y-86400372D01*
X136019552Y-86500912D01*
X135591053Y-86787225D01*
X135304740Y-87215724D01*
X135255000Y-87465784D01*
X135205260Y-87215724D01*
X134924800Y-86795985D01*
X134924800Y-84404200D01*
X148305667Y-84404200D01*
X148464211Y-85201253D01*
X148915705Y-85876962D01*
X149591414Y-86328456D01*
X150388467Y-86487000D01*
X152023933Y-86487000D01*
X152820986Y-86328456D01*
X153496695Y-85876962D01*
X153948189Y-85201253D01*
X154106733Y-84404200D01*
X153948189Y-83607147D01*
X153496695Y-82931438D01*
X152820986Y-82479944D01*
X152023933Y-82321400D01*
X150388467Y-82321400D01*
X149591414Y-82479944D01*
X148915705Y-82931438D01*
X148464211Y-83607147D01*
X148305667Y-84404200D01*
X134924800Y-84404200D01*
X134924800Y-81915000D01*
X134853262Y-81555354D01*
X134649539Y-81250461D01*
X134355951Y-80956873D01*
X136219927Y-80956873D01*
X136459171Y-81535887D01*
X136901783Y-81979272D01*
X137480379Y-82219526D01*
X138106873Y-82220073D01*
X138685887Y-81980829D01*
X139129272Y-81538217D01*
X139369526Y-80959621D01*
X139370073Y-80333127D01*
X139130829Y-79754113D01*
X138688217Y-79310728D01*
X138109621Y-79070474D01*
X137483127Y-79069927D01*
X136904113Y-79309171D01*
X136460728Y-79751783D01*
X136220474Y-80330379D01*
X136219927Y-80956873D01*
X134355951Y-80956873D01*
X134289586Y-80890508D01*
X134290073Y-80333127D01*
X134050829Y-79754113D01*
X133608217Y-79310728D01*
X133029621Y-79070474D01*
X132403127Y-79069927D01*
X131824113Y-79309171D01*
X131380728Y-79751783D01*
X131140474Y-80330379D01*
X131139927Y-80956873D01*
X131379171Y-81535887D01*
X131821783Y-81979272D01*
X132400379Y-82219526D01*
X132960937Y-82220015D01*
X133045200Y-82304278D01*
X133045200Y-86795985D01*
X132764740Y-87215724D01*
X132715000Y-87465784D01*
X132665260Y-87215724D01*
X132378947Y-86787225D01*
X131950448Y-86500912D01*
X131445000Y-86400372D01*
X130939552Y-86500912D01*
X130511053Y-86787225D01*
X130224740Y-87215724D01*
X130175000Y-87465784D01*
X130125260Y-87215724D01*
X129838947Y-86787225D01*
X129410448Y-86500912D01*
X128905000Y-86400372D01*
X128399552Y-86500912D01*
X127971053Y-86787225D01*
X127684740Y-87215724D01*
X127635000Y-87465784D01*
X127585260Y-87215724D01*
X127298947Y-86787225D01*
X126870448Y-86500912D01*
X126365000Y-86400372D01*
X125859552Y-86500912D01*
X125431053Y-86787225D01*
X125276030Y-87019234D01*
X125268538Y-86994111D01*
X124866710Y-86499764D01*
X124306291Y-86196820D01*
X124228703Y-86182326D01*
X123977400Y-86291704D01*
X123672600Y-86291704D01*
X123421297Y-86182326D01*
X123343709Y-86196820D01*
X122783290Y-86499764D01*
X122381462Y-86994111D01*
X122373970Y-87019234D01*
X122218947Y-86787225D01*
X121790448Y-86500912D01*
X121285000Y-86400372D01*
X120779552Y-86500912D01*
X120351053Y-86787225D01*
X120064740Y-87215724D01*
X119964200Y-87721172D01*
X119964200Y-88808828D01*
X120064740Y-89314276D01*
X120263138Y-89611200D01*
X116102278Y-89611200D01*
X116091539Y-89600461D01*
X115786646Y-89396738D01*
X115427000Y-89325200D01*
X114975771Y-89325200D01*
X114975771Y-88215000D01*
X114952115Y-88096073D01*
X114884748Y-87995252D01*
X114783927Y-87927885D01*
X114665000Y-87904229D01*
X112867800Y-87904229D01*
X112867800Y-86825878D01*
X118736805Y-80956873D01*
X120979927Y-80956873D01*
X121219171Y-81535887D01*
X121661783Y-81979272D01*
X122240379Y-82219526D01*
X122866873Y-82220073D01*
X123445887Y-81980829D01*
X123889272Y-81538217D01*
X124129526Y-80959621D01*
X124129528Y-80956873D01*
X126059927Y-80956873D01*
X126299171Y-81535887D01*
X126741783Y-81979272D01*
X127320379Y-82219526D01*
X127946873Y-82220073D01*
X128525887Y-81980829D01*
X128969272Y-81538217D01*
X129209526Y-80959621D01*
X129210073Y-80333127D01*
X128970829Y-79754113D01*
X128528217Y-79310728D01*
X127949621Y-79070474D01*
X127323127Y-79069927D01*
X126744113Y-79309171D01*
X126300728Y-79751783D01*
X126060474Y-80330379D01*
X126059927Y-80956873D01*
X124129528Y-80956873D01*
X124130073Y-80333127D01*
X123890829Y-79754113D01*
X123448217Y-79310728D01*
X122869621Y-79070474D01*
X122243127Y-79069927D01*
X121664113Y-79309171D01*
X121220728Y-79751783D01*
X120980474Y-80330379D01*
X120979927Y-80956873D01*
X118736805Y-80956873D01*
X121608289Y-78085389D01*
X121707398Y-77937063D01*
X121742200Y-77762100D01*
X121742200Y-72634709D01*
X121756428Y-72631879D01*
X122156085Y-72364837D01*
X122423127Y-71965180D01*
X122516900Y-71493752D01*
X122516900Y-70746248D01*
X122593100Y-70746248D01*
X122593100Y-71493752D01*
X122686873Y-71965180D01*
X122953915Y-72364837D01*
X123353572Y-72631879D01*
X123825000Y-72725652D01*
X124296428Y-72631879D01*
X124696085Y-72364837D01*
X124963127Y-71965180D01*
X125056900Y-71493752D01*
X125056900Y-70746248D01*
X125133100Y-70746248D01*
X125133100Y-71493752D01*
X125226873Y-71965180D01*
X125493915Y-72364837D01*
X125893572Y-72631879D01*
X126365000Y-72725652D01*
X126836428Y-72631879D01*
X127236085Y-72364837D01*
X127503127Y-71965180D01*
X127589197Y-71532477D01*
X128091840Y-71532477D01*
X128408259Y-72298270D01*
X128993648Y-72884682D01*
X129758888Y-73202437D01*
X130587477Y-73203160D01*
X131353270Y-72886741D01*
X131939682Y-72301352D01*
X132257437Y-71536112D01*
X132258160Y-70707523D01*
X131941741Y-69941730D01*
X131356352Y-69355318D01*
X130591112Y-69037563D01*
X129762523Y-69036840D01*
X128996730Y-69353259D01*
X128410318Y-69938648D01*
X128092563Y-70703888D01*
X128091840Y-71532477D01*
X127589197Y-71532477D01*
X127596900Y-71493752D01*
X127596900Y-70746248D01*
X127503127Y-70274820D01*
X127236085Y-69875163D01*
X126836428Y-69608121D01*
X126365000Y-69514348D01*
X125893572Y-69608121D01*
X125493915Y-69875163D01*
X125226873Y-70274820D01*
X125133100Y-70746248D01*
X125056900Y-70746248D01*
X124963127Y-70274820D01*
X124696085Y-69875163D01*
X124296428Y-69608121D01*
X123825000Y-69514348D01*
X123353572Y-69608121D01*
X122953915Y-69875163D01*
X122686873Y-70274820D01*
X122593100Y-70746248D01*
X122516900Y-70746248D01*
X122423127Y-70274820D01*
X122156085Y-69875163D01*
X121756428Y-69608121D01*
X121285000Y-69514348D01*
X120813572Y-69608121D01*
X120413915Y-69875163D01*
X120146873Y-70274820D01*
X120053100Y-70746248D01*
X120053100Y-71493752D01*
X120146873Y-71965180D01*
X120413915Y-72364837D01*
X120813572Y-72631879D01*
X120827800Y-72634709D01*
X120827800Y-77572722D01*
X119202200Y-79198322D01*
X119202200Y-72634709D01*
X119216428Y-72631879D01*
X119616085Y-72364837D01*
X119883127Y-71965180D01*
X119976900Y-71493752D01*
X119976900Y-70746248D01*
X119883127Y-70274820D01*
X119616085Y-69875163D01*
X119216428Y-69608121D01*
X118745000Y-69514348D01*
X118273572Y-69608121D01*
X117873915Y-69875163D01*
X117606873Y-70274820D01*
X117513100Y-70746248D01*
X117513100Y-71493752D01*
X117606873Y-71965180D01*
X117873915Y-72364837D01*
X118273572Y-72631879D01*
X118287800Y-72634709D01*
X118287800Y-79388822D01*
X106326711Y-91349911D01*
X106227602Y-91498237D01*
X106192800Y-91673200D01*
X106192800Y-93845256D01*
X106015144Y-94022601D01*
X105900830Y-94297901D01*
X105900586Y-94577308D01*
X103118300Y-91795022D01*
X103118300Y-84187300D01*
X103083498Y-84012337D01*
X102984389Y-83864011D01*
X100057447Y-80937069D01*
X100759945Y-80937069D01*
X100983996Y-81479316D01*
X101398502Y-81894546D01*
X101940357Y-82119543D01*
X102527069Y-82120055D01*
X103069316Y-81896004D01*
X103484546Y-81481498D01*
X103709543Y-80939643D01*
X103710055Y-80352931D01*
X103486004Y-79810684D01*
X103071498Y-79395454D01*
X102529643Y-79170457D01*
X101942931Y-79169945D01*
X101400684Y-79393996D01*
X100985454Y-79808502D01*
X100760457Y-80350357D01*
X100759945Y-80937069D01*
X100057447Y-80937069D01*
X98882200Y-79761822D01*
X98882200Y-72634709D01*
X98896428Y-72631879D01*
X99296085Y-72364837D01*
X99563127Y-71965180D01*
X99656900Y-71493752D01*
X99656900Y-70746248D01*
X99563127Y-70274820D01*
X99414778Y-70052800D01*
X99975222Y-70052800D01*
X99826873Y-70274820D01*
X99733100Y-70746248D01*
X99733100Y-71493752D01*
X99826873Y-71965180D01*
X100093915Y-72364837D01*
X100493572Y-72631879D01*
X100965000Y-72725652D01*
X101436428Y-72631879D01*
X101836085Y-72364837D01*
X102103127Y-71965180D01*
X102196900Y-71493752D01*
X102196900Y-70746248D01*
X102103127Y-70274820D01*
X101954778Y-70052800D01*
X102515222Y-70052800D01*
X102366873Y-70274820D01*
X102273100Y-70746248D01*
X102273100Y-71493752D01*
X102366873Y-71965180D01*
X102633915Y-72364837D01*
X103033572Y-72631879D01*
X103505000Y-72725652D01*
X103976428Y-72631879D01*
X104376085Y-72364837D01*
X104643127Y-71965180D01*
X104724800Y-71554584D01*
X104829336Y-71575377D01*
X104906873Y-71965180D01*
X105173915Y-72364837D01*
X105573572Y-72631879D01*
X106045000Y-72725652D01*
X106516428Y-72631879D01*
X106916085Y-72364837D01*
X106921300Y-72357032D01*
X106921300Y-73119822D01*
X104251111Y-75790011D01*
X104152002Y-75938337D01*
X104117200Y-76113300D01*
X104117200Y-85565300D01*
X104152002Y-85740263D01*
X104251111Y-85888589D01*
X104323589Y-85961067D01*
X104323370Y-86212091D01*
X104437204Y-86487590D01*
X104647801Y-86698556D01*
X104923101Y-86812870D01*
X105221191Y-86813130D01*
X105496690Y-86699296D01*
X105707656Y-86488699D01*
X105821970Y-86213399D01*
X105822230Y-85915309D01*
X105708396Y-85639810D01*
X105497799Y-85428844D01*
X105222499Y-85314530D01*
X105031600Y-85314363D01*
X105031600Y-82032562D01*
X105105548Y-82197324D01*
X105771109Y-82438673D01*
X106478366Y-82406952D01*
X106984452Y-82197324D01*
X107107542Y-81923069D01*
X106045000Y-80860526D01*
X106030858Y-80874669D01*
X105815331Y-80659142D01*
X105829474Y-80645000D01*
X106260526Y-80645000D01*
X107323069Y-81707542D01*
X107597324Y-81584452D01*
X107832081Y-80937069D01*
X108379945Y-80937069D01*
X108603996Y-81479316D01*
X109018502Y-81894546D01*
X109560357Y-82119543D01*
X110147069Y-82120055D01*
X110623813Y-81923069D01*
X112602458Y-81923069D01*
X112725548Y-82197324D01*
X113391109Y-82438673D01*
X114098366Y-82406952D01*
X114604452Y-82197324D01*
X114727542Y-81923069D01*
X113665000Y-80860526D01*
X112602458Y-81923069D01*
X110623813Y-81923069D01*
X110689316Y-81896004D01*
X111104546Y-81481498D01*
X111329543Y-80939643D01*
X111330039Y-80371109D01*
X111871327Y-80371109D01*
X111903048Y-81078366D01*
X112112676Y-81584452D01*
X112386931Y-81707542D01*
X113449474Y-80645000D01*
X113880526Y-80645000D01*
X114943069Y-81707542D01*
X115217324Y-81584452D01*
X115458673Y-80918891D01*
X115426952Y-80211634D01*
X115217324Y-79705548D01*
X114943069Y-79582458D01*
X113880526Y-80645000D01*
X113449474Y-80645000D01*
X112386931Y-79582458D01*
X112112676Y-79705548D01*
X111871327Y-80371109D01*
X111330039Y-80371109D01*
X111330055Y-80352931D01*
X111106004Y-79810684D01*
X110691498Y-79395454D01*
X110622807Y-79366931D01*
X112602458Y-79366931D01*
X113665000Y-80429474D01*
X114727542Y-79366931D01*
X114604452Y-79092676D01*
X113938891Y-78851327D01*
X113231634Y-78883048D01*
X112725548Y-79092676D01*
X112602458Y-79366931D01*
X110622807Y-79366931D01*
X110149643Y-79170457D01*
X109562931Y-79169945D01*
X109020684Y-79393996D01*
X108605454Y-79808502D01*
X108380457Y-80350357D01*
X108379945Y-80937069D01*
X107832081Y-80937069D01*
X107838673Y-80918891D01*
X107806952Y-80211634D01*
X107597324Y-79705548D01*
X107323069Y-79582458D01*
X106260526Y-80645000D01*
X105829474Y-80645000D01*
X105815331Y-80630858D01*
X106030858Y-80415331D01*
X106045000Y-80429474D01*
X107107542Y-79366931D01*
X106984452Y-79092676D01*
X106318891Y-78851327D01*
X105611634Y-78883048D01*
X105105548Y-79092676D01*
X105031600Y-79257438D01*
X105031600Y-76302678D01*
X107701789Y-73632489D01*
X107800898Y-73484163D01*
X107835700Y-73309200D01*
X107835700Y-72446211D01*
X108113572Y-72631879D01*
X108585000Y-72725652D01*
X109056428Y-72631879D01*
X109456085Y-72364837D01*
X109723127Y-71965180D01*
X109816900Y-71493752D01*
X109816900Y-70746248D01*
X109893100Y-70746248D01*
X109893100Y-71493752D01*
X109986873Y-71965180D01*
X110253915Y-72364837D01*
X110653572Y-72631879D01*
X111125000Y-72725652D01*
X111596428Y-72631879D01*
X111996085Y-72364837D01*
X112263127Y-71965180D01*
X112356900Y-71493752D01*
X112356900Y-70746248D01*
X112433100Y-70746248D01*
X112433100Y-71493752D01*
X112526873Y-71965180D01*
X112793915Y-72364837D01*
X113193572Y-72631879D01*
X113665000Y-72725652D01*
X114136428Y-72631879D01*
X114536085Y-72364837D01*
X114803127Y-71965180D01*
X114896900Y-71493752D01*
X114896900Y-70746248D01*
X114973100Y-70746248D01*
X114973100Y-71493752D01*
X115066873Y-71965180D01*
X115333915Y-72364837D01*
X115733572Y-72631879D01*
X116205000Y-72725652D01*
X116676428Y-72631879D01*
X117076085Y-72364837D01*
X117343127Y-71965180D01*
X117436900Y-71493752D01*
X117436900Y-70746248D01*
X117343127Y-70274820D01*
X117076085Y-69875163D01*
X116676428Y-69608121D01*
X116205000Y-69514348D01*
X115733572Y-69608121D01*
X115333915Y-69875163D01*
X115066873Y-70274820D01*
X114973100Y-70746248D01*
X114896900Y-70746248D01*
X114803127Y-70274820D01*
X114536085Y-69875163D01*
X114136428Y-69608121D01*
X113665000Y-69514348D01*
X113193572Y-69608121D01*
X112793915Y-69875163D01*
X112526873Y-70274820D01*
X112433100Y-70746248D01*
X112356900Y-70746248D01*
X112263127Y-70274820D01*
X111996085Y-69875163D01*
X111596428Y-69608121D01*
X111125000Y-69514348D01*
X110653572Y-69608121D01*
X110253915Y-69875163D01*
X109986873Y-70274820D01*
X109893100Y-70746248D01*
X109816900Y-70746248D01*
X109723127Y-70274820D01*
X109456085Y-69875163D01*
X109056428Y-69608121D01*
X108585000Y-69514348D01*
X108113572Y-69608121D01*
X107713915Y-69875163D01*
X107446873Y-70274820D01*
X107369336Y-70664623D01*
X107264800Y-70685416D01*
X107183127Y-70274820D01*
X106916085Y-69875163D01*
X106516428Y-69608121D01*
X106045000Y-69514348D01*
X105573572Y-69608121D01*
X105173915Y-69875163D01*
X105095299Y-69992821D01*
X104374789Y-69272311D01*
X104226463Y-69173202D01*
X104051500Y-69138400D01*
X97877700Y-69138400D01*
X97702737Y-69173202D01*
X97554411Y-69272311D01*
X96834381Y-69992341D01*
X96756085Y-69875163D01*
X96356428Y-69608121D01*
X95885000Y-69514348D01*
X95413572Y-69608121D01*
X95013915Y-69875163D01*
X94746873Y-70274820D01*
X94653100Y-70746248D01*
X94653100Y-71493752D01*
X94746873Y-71965180D01*
X95013915Y-72364837D01*
X95413572Y-72631879D01*
X95885000Y-72725652D01*
X96356428Y-72631879D01*
X96609300Y-72462916D01*
X96609300Y-77888422D01*
X94242311Y-80255411D01*
X94143202Y-80403737D01*
X94108400Y-80578700D01*
X86144100Y-80578700D01*
X86144100Y-76612477D01*
X87451840Y-76612477D01*
X87768259Y-77378270D01*
X88353648Y-77964682D01*
X89118888Y-78282437D01*
X89947477Y-78283160D01*
X90713270Y-77966741D01*
X91299682Y-77381352D01*
X91617437Y-76616112D01*
X91618160Y-75787523D01*
X91301741Y-75021730D01*
X90716352Y-74435318D01*
X89951112Y-74117563D01*
X89122523Y-74116840D01*
X88356730Y-74433259D01*
X87770318Y-75018648D01*
X87452563Y-75783888D01*
X87451840Y-76612477D01*
X86144100Y-76612477D01*
X86144100Y-69850000D01*
X87027129Y-69850000D01*
X87027129Y-72390000D01*
X87050785Y-72508927D01*
X87118152Y-72609748D01*
X87218973Y-72677115D01*
X87337900Y-72700771D01*
X89192100Y-72700771D01*
X89311027Y-72677115D01*
X89411848Y-72609748D01*
X89479215Y-72508927D01*
X89502871Y-72390000D01*
X89502871Y-72263898D01*
X89826152Y-72657274D01*
X90357730Y-72940947D01*
X90415269Y-72949357D01*
X90652600Y-72838785D01*
X90652600Y-71272400D01*
X90632600Y-71272400D01*
X90632600Y-70967600D01*
X90652600Y-70967600D01*
X90652600Y-69401215D01*
X90957400Y-69401215D01*
X90957400Y-70967600D01*
X90977400Y-70967600D01*
X90977400Y-71272400D01*
X90957400Y-71272400D01*
X90957400Y-72838785D01*
X91194731Y-72949357D01*
X91252270Y-72940947D01*
X91783848Y-72657274D01*
X92166405Y-72191769D01*
X92226414Y-71994425D01*
X92473915Y-72364837D01*
X92873572Y-72631879D01*
X93345000Y-72725652D01*
X93816428Y-72631879D01*
X94216085Y-72364837D01*
X94483127Y-71965180D01*
X94576900Y-71493752D01*
X94576900Y-70746248D01*
X94483127Y-70274820D01*
X94216085Y-69875163D01*
X93816428Y-69608121D01*
X93345000Y-69514348D01*
X92873572Y-69608121D01*
X92473915Y-69875163D01*
X92226414Y-70245575D01*
X92166405Y-70048231D01*
X91783848Y-69582726D01*
X91252270Y-69299053D01*
X91194731Y-69290643D01*
X90957400Y-69401215D01*
X90652600Y-69401215D01*
X90415269Y-69290643D01*
X90357730Y-69299053D01*
X89826152Y-69582726D01*
X89502871Y-69976102D01*
X89502871Y-69850000D01*
X89479215Y-69731073D01*
X89411848Y-69630252D01*
X89311027Y-69562885D01*
X89192100Y-69539229D01*
X87337900Y-69539229D01*
X87218973Y-69562885D01*
X87118152Y-69630252D01*
X87050785Y-69731073D01*
X87027129Y-69850000D01*
X86144100Y-69850000D01*
X86144100Y-68364100D01*
X155790900Y-68364100D01*
X155790900Y-109435900D01*
M02*
