%TF.GenerationSoftware,KiCad,Pcbnew,5.1.0-unknown-ca7aec2~82~ubuntu18.04.1*%
%TF.CreationDate,2019-04-12T13:47:33-04:00*%
%TF.ProjectId,stepper_controller_3x2,73746570-7065-4725-9f63-6f6e74726f6c,1.2*%
%TF.SameCoordinates,Original*%
%TF.FileFunction,Legend,Bot*%
%TF.FilePolarity,Positive*%
%FSLAX46Y46*%
G04 Gerber Fmt 4.6, Leading zero omitted, Abs format (unit mm)*
G04 Created by KiCad (PCBNEW 5.1.0-unknown-ca7aec2~82~ubuntu18.04.1) date 2019-04-12 13:47:33*
%MOMM*%
%LPD*%
G04 APERTURE LIST*
%ADD10C,0.228600*%
%ADD11C,0.250000*%
%ADD12C,0.381000*%
%ADD13C,0.127000*%
%ADD14C,0.150000*%
%ADD15C,0.254000*%
%ADD16C,0.125000*%
%ADD17C,0.190500*%
%ADD18C,0.100000*%
%ADD19C,3.400001*%
%ADD20C,0.300000*%
%ADD21O,2.032000X3.048000*%
%ADD22C,3.556000*%
%ADD23O,1.854200X2.540000*%
%ADD24R,1.854200X2.540000*%
%ADD25R,1.800000X2.000000*%
%ADD26R,1.440000X1.600000*%
%ADD27R,4.960000X3.800000*%
%ADD28O,5.080000X3.556000*%
%ADD29O,4.064000X5.080000*%
%ADD30O,4.572000X3.556000*%
%ADD31C,1.930400*%
%ADD32C,2.540000*%
%ADD33C,2.340000*%
%ADD34O,1.524000X2.540000*%
%ADD35R,0.787400X1.600200*%
%ADD36R,1.600200X0.787400*%
%ADD37R,1.100000X0.600000*%
%ADD38R,0.600000X2.000000*%
%ADD39R,0.558800X1.330960*%
%ADD40R,0.640000X1.910000*%
G04 APERTURE END LIST*
D10*
X156210000Y-67945000D02*
X85725000Y-67945000D01*
X156210000Y-109855000D02*
X156210000Y-67945000D01*
X85725000Y-109855000D02*
X156210000Y-109855000D01*
X85725000Y-67945000D02*
X85725000Y-109855000D01*
D11*
%TO.C,U1*%
X109430000Y-94655000D02*
G75*
G03X109430000Y-94655000I-250000J0D01*
G01*
X104180000Y-94655000D02*
X104180000Y-95155000D01*
X104680000Y-94655000D02*
X104180000Y-94655000D01*
X104180000Y-99655000D02*
X104680000Y-99655000D01*
X104180000Y-99155000D02*
X104180000Y-99655000D01*
X109180000Y-99655000D02*
X108680000Y-99655000D01*
X109180000Y-99155000D02*
X109180000Y-99655000D01*
X108680000Y-94655000D02*
X109180000Y-95155000D01*
D12*
%TO.C,MDB1*%
X127635000Y-69850000D02*
X86995000Y-69850000D01*
X127635000Y-72390000D02*
X127635000Y-69850000D01*
X86995000Y-72390000D02*
X127635000Y-72390000D01*
X86995000Y-69850000D02*
X86995000Y-72390000D01*
X127635000Y-105410000D02*
X86995000Y-105410000D01*
X127635000Y-107950000D02*
X127635000Y-105410000D01*
X86995000Y-107950000D02*
X127635000Y-107950000D01*
X86995000Y-105410000D02*
X86995000Y-107950000D01*
%TO.C,CLK1*%
X116923553Y-99540000D02*
G75*
G03X116923553Y-99540000I-353553J0D01*
G01*
X119070000Y-95290000D02*
X119070000Y-100290000D01*
X119070000Y-100290000D02*
X112070000Y-100290000D01*
X112070000Y-100290000D02*
X112070000Y-95290000D01*
X112070000Y-95290000D02*
X119070000Y-95290000D01*
D10*
%TO.C,D1*%
X91754000Y-77357000D02*
X99254000Y-77357000D01*
X91754000Y-72757000D02*
X91754000Y-77357000D01*
X99254000Y-72757000D02*
X91754000Y-72757000D01*
X99254000Y-77357000D02*
X99254000Y-72757000D01*
D13*
%TO.C,R1*%
X91059000Y-87376000D02*
X90170000Y-87376000D01*
X91059000Y-89154000D02*
X91059000Y-87376000D01*
X90170000Y-89154000D02*
X91059000Y-89154000D01*
X88011000Y-87376000D02*
X88900000Y-87376000D01*
X88011000Y-89154000D02*
X88011000Y-87376000D01*
X88900000Y-89154000D02*
X88011000Y-89154000D01*
%TO.C,R2*%
X131699000Y-91186000D02*
X130810000Y-91186000D01*
X131699000Y-92964000D02*
X131699000Y-91186000D01*
X130810000Y-92964000D02*
X131699000Y-92964000D01*
X128651000Y-91186000D02*
X129540000Y-91186000D01*
X128651000Y-92964000D02*
X128651000Y-91186000D01*
X129540000Y-92964000D02*
X128651000Y-92964000D01*
%TO.C,R3*%
X103759000Y-82296000D02*
X102870000Y-82296000D01*
X103759000Y-84074000D02*
X103759000Y-82296000D01*
X102870000Y-84074000D02*
X103759000Y-84074000D01*
X100711000Y-82296000D02*
X101600000Y-82296000D01*
X100711000Y-84074000D02*
X100711000Y-82296000D01*
X101600000Y-84074000D02*
X100711000Y-84074000D01*
%TO.C,R4*%
X105156000Y-74676000D02*
X105156000Y-75565000D01*
X106934000Y-74676000D02*
X105156000Y-74676000D01*
X106934000Y-75565000D02*
X106934000Y-74676000D01*
X105156000Y-77724000D02*
X105156000Y-76835000D01*
X106934000Y-77724000D02*
X105156000Y-77724000D01*
X106934000Y-76835000D02*
X106934000Y-77724000D01*
%TO.C,R5*%
X112141000Y-84074000D02*
X113030000Y-84074000D01*
X112141000Y-82296000D02*
X112141000Y-84074000D01*
X113030000Y-82296000D02*
X112141000Y-82296000D01*
X115189000Y-84074000D02*
X114300000Y-84074000D01*
X115189000Y-82296000D02*
X115189000Y-84074000D01*
X114300000Y-82296000D02*
X115189000Y-82296000D01*
%TO.C,R6*%
X112776000Y-74676000D02*
X112776000Y-75565000D01*
X114554000Y-74676000D02*
X112776000Y-74676000D01*
X114554000Y-75565000D02*
X114554000Y-74676000D01*
X112776000Y-77724000D02*
X112776000Y-76835000D01*
X114554000Y-77724000D02*
X112776000Y-77724000D01*
X114554000Y-76835000D02*
X114554000Y-77724000D01*
D14*
%TO.C,U2*%
X89835000Y-90440000D02*
G75*
G03X89835000Y-90440000I-100000J0D01*
G01*
X89035000Y-89940000D02*
X90035000Y-89940000D01*
X89035000Y-92940000D02*
X89035000Y-89940000D01*
X90035000Y-92940000D02*
X89035000Y-92940000D01*
X90035000Y-89940000D02*
X90035000Y-92940000D01*
D12*
%TO.C,U3*%
X152550000Y-70545000D02*
X152550000Y-78045000D01*
X139550000Y-70545000D02*
X152550000Y-70545000D01*
X139550000Y-78045000D02*
X139550000Y-70545000D01*
X152550000Y-78045000D02*
X139550000Y-78045000D01*
X151765000Y-76835000D02*
G75*
G03X151765000Y-76835000I-635000J0D01*
G01*
D14*
%TO.C,U4*%
X130475000Y-94885000D02*
G75*
G03X130475000Y-94885000I-100000J0D01*
G01*
X129675000Y-94385000D02*
X130675000Y-94385000D01*
X129675000Y-97385000D02*
X129675000Y-94385000D01*
X130675000Y-97385000D02*
X129675000Y-97385000D01*
X130675000Y-94385000D02*
X130675000Y-97385000D01*
D13*
%TO.C,C1*%
X114046000Y-92964000D02*
X114935000Y-92964000D01*
X114046000Y-91186000D02*
X114046000Y-92964000D01*
X114935000Y-91186000D02*
X114046000Y-91186000D01*
X117094000Y-92964000D02*
X116205000Y-92964000D01*
X117094000Y-91186000D02*
X117094000Y-92964000D01*
X116205000Y-91186000D02*
X117094000Y-91186000D01*
%TO.C,C2*%
X98679000Y-101346000D02*
X97790000Y-101346000D01*
X98679000Y-103124000D02*
X98679000Y-101346000D01*
X97790000Y-103124000D02*
X98679000Y-103124000D01*
X95631000Y-101346000D02*
X96520000Y-101346000D01*
X95631000Y-103124000D02*
X95631000Y-101346000D01*
X96520000Y-103124000D02*
X95631000Y-103124000D01*
%TO.C,C3*%
X99441000Y-103124000D02*
X100330000Y-103124000D01*
X99441000Y-101346000D02*
X99441000Y-103124000D01*
X100330000Y-101346000D02*
X99441000Y-101346000D01*
X102489000Y-103124000D02*
X101600000Y-103124000D01*
X102489000Y-101346000D02*
X102489000Y-103124000D01*
X101600000Y-101346000D02*
X102489000Y-101346000D01*
%TO.C,C4*%
X100076000Y-93726000D02*
X100076000Y-94615000D01*
X101854000Y-93726000D02*
X100076000Y-93726000D01*
X101854000Y-94615000D02*
X101854000Y-93726000D01*
X100076000Y-96774000D02*
X100076000Y-95885000D01*
X101854000Y-96774000D02*
X100076000Y-96774000D01*
X101854000Y-95885000D02*
X101854000Y-96774000D01*
%TO.C,C5*%
X155194000Y-75819000D02*
X155194000Y-74930000D01*
X153416000Y-75819000D02*
X155194000Y-75819000D01*
X153416000Y-74930000D02*
X153416000Y-75819000D01*
X155194000Y-72771000D02*
X155194000Y-73660000D01*
X153416000Y-72771000D02*
X155194000Y-72771000D01*
X153416000Y-73660000D02*
X153416000Y-72771000D01*
%TO.C,C7*%
X124079000Y-91186000D02*
X123190000Y-91186000D01*
X124079000Y-92964000D02*
X124079000Y-91186000D01*
X123190000Y-92964000D02*
X124079000Y-92964000D01*
X121031000Y-91186000D02*
X121920000Y-91186000D01*
X121031000Y-92964000D02*
X121031000Y-91186000D01*
X121920000Y-92964000D02*
X121031000Y-92964000D01*
%TO.C,C8*%
X105029000Y-89154000D02*
X105029000Y-88265000D01*
X103251000Y-89154000D02*
X105029000Y-89154000D01*
X103251000Y-88265000D02*
X103251000Y-89154000D01*
X105029000Y-86106000D02*
X105029000Y-86995000D01*
X103251000Y-86106000D02*
X105029000Y-86106000D01*
X103251000Y-86995000D02*
X103251000Y-86106000D01*
%TO.C,C9*%
X101854000Y-89154000D02*
X101854000Y-88265000D01*
X100076000Y-89154000D02*
X101854000Y-89154000D01*
X100076000Y-88265000D02*
X100076000Y-89154000D01*
X101854000Y-86106000D02*
X101854000Y-86995000D01*
X100076000Y-86106000D02*
X101854000Y-86106000D01*
X100076000Y-86995000D02*
X100076000Y-86106000D01*
%TO.C,C10*%
X98679000Y-89154000D02*
X98679000Y-88265000D01*
X96901000Y-89154000D02*
X98679000Y-89154000D01*
X96901000Y-88265000D02*
X96901000Y-89154000D01*
X98679000Y-86106000D02*
X98679000Y-86995000D01*
X96901000Y-86106000D02*
X98679000Y-86106000D01*
X96901000Y-86995000D02*
X96901000Y-86106000D01*
%TO.C,C11*%
X95504000Y-81534000D02*
X95504000Y-80645000D01*
X93726000Y-81534000D02*
X95504000Y-81534000D01*
X93726000Y-80645000D02*
X93726000Y-81534000D01*
X95504000Y-78486000D02*
X95504000Y-79375000D01*
X93726000Y-78486000D02*
X95504000Y-78486000D01*
X93726000Y-79375000D02*
X93726000Y-78486000D01*
D10*
%TO.C,U5*%
X99822000Y-81280000D02*
X99314000Y-81280000D01*
X99568000Y-81534000D02*
X99568000Y-81026000D01*
D12*
X98806000Y-80010000D02*
X96774000Y-80010000D01*
%TO.C,U6*%
X110490000Y-87693500D02*
X110490000Y-83756500D01*
X105410000Y-87693500D02*
X105410000Y-83756500D01*
X106680000Y-84836000D02*
G75*
G03X106680000Y-84836000I-381000J0D01*
G01*
%TD*%
%TO.C,U1*%
D15*
X107454095Y-100098619D02*
X107454095Y-100921095D01*
X107405714Y-101017857D01*
X107357333Y-101066238D01*
X107260571Y-101114619D01*
X107067047Y-101114619D01*
X106970285Y-101066238D01*
X106921904Y-101017857D01*
X106873523Y-100921095D01*
X106873523Y-100098619D01*
X105857523Y-101114619D02*
X106438095Y-101114619D01*
X106147809Y-101114619D02*
X106147809Y-100098619D01*
X106244571Y-100243761D01*
X106341333Y-100340523D01*
X106438095Y-100388904D01*
%TO.C,CLK1*%
X116658571Y-94402857D02*
X116706952Y-94451238D01*
X116852095Y-94499619D01*
X116948857Y-94499619D01*
X117094000Y-94451238D01*
X117190761Y-94354476D01*
X117239142Y-94257714D01*
X117287523Y-94064190D01*
X117287523Y-93919047D01*
X117239142Y-93725523D01*
X117190761Y-93628761D01*
X117094000Y-93532000D01*
X116948857Y-93483619D01*
X116852095Y-93483619D01*
X116706952Y-93532000D01*
X116658571Y-93580380D01*
X115739333Y-94499619D02*
X116223142Y-94499619D01*
X116223142Y-93483619D01*
X115400666Y-94499619D02*
X115400666Y-93483619D01*
X114820095Y-94499619D02*
X115255523Y-93919047D01*
X114820095Y-93483619D02*
X115400666Y-94064190D01*
X113852476Y-94499619D02*
X114433047Y-94499619D01*
X114142761Y-94499619D02*
X114142761Y-93483619D01*
X114239523Y-93628761D01*
X114336285Y-93725523D01*
X114433047Y-93773904D01*
D16*
X116962857Y-97968571D02*
X116986666Y-97992380D01*
X117058095Y-98016190D01*
X117105714Y-98016190D01*
X117177142Y-97992380D01*
X117224761Y-97944761D01*
X117248571Y-97897142D01*
X117272380Y-97801904D01*
X117272380Y-97730476D01*
X117248571Y-97635238D01*
X117224761Y-97587619D01*
X117177142Y-97540000D01*
X117105714Y-97516190D01*
X117058095Y-97516190D01*
X116986666Y-97540000D01*
X116962857Y-97563809D01*
X116820000Y-97516190D02*
X116534285Y-97516190D01*
X116677142Y-98016190D02*
X116677142Y-97516190D01*
X116391428Y-97992380D02*
X116320000Y-98016190D01*
X116200952Y-98016190D01*
X116153333Y-97992380D01*
X116129523Y-97968571D01*
X116105714Y-97920952D01*
X116105714Y-97873333D01*
X116129523Y-97825714D01*
X116153333Y-97801904D01*
X116200952Y-97778095D01*
X116296190Y-97754285D01*
X116343809Y-97730476D01*
X116367619Y-97706666D01*
X116391428Y-97659047D01*
X116391428Y-97611428D01*
X116367619Y-97563809D01*
X116343809Y-97540000D01*
X116296190Y-97516190D01*
X116177142Y-97516190D01*
X116105714Y-97540000D01*
X115820000Y-97516190D02*
X115820000Y-97635238D01*
X115939047Y-97587619D02*
X115820000Y-97635238D01*
X115700952Y-97587619D01*
X115891428Y-97730476D02*
X115820000Y-97635238D01*
X115748571Y-97730476D01*
X115439047Y-97516190D02*
X115439047Y-97635238D01*
X115558095Y-97587619D02*
X115439047Y-97635238D01*
X115320000Y-97587619D01*
X115510476Y-97730476D02*
X115439047Y-97635238D01*
X115367619Y-97730476D01*
X114843809Y-97968571D02*
X114867619Y-97992380D01*
X114939047Y-98016190D01*
X114986666Y-98016190D01*
X115058095Y-97992380D01*
X115105714Y-97944761D01*
X115129523Y-97897142D01*
X115153333Y-97801904D01*
X115153333Y-97730476D01*
X115129523Y-97635238D01*
X115105714Y-97587619D01*
X115058095Y-97540000D01*
X114986666Y-97516190D01*
X114939047Y-97516190D01*
X114867619Y-97540000D01*
X114843809Y-97563809D01*
X114462857Y-97754285D02*
X114391428Y-97778095D01*
X114367619Y-97801904D01*
X114343809Y-97849523D01*
X114343809Y-97920952D01*
X114367619Y-97968571D01*
X114391428Y-97992380D01*
X114439047Y-98016190D01*
X114629523Y-98016190D01*
X114629523Y-97516190D01*
X114462857Y-97516190D01*
X114415238Y-97540000D01*
X114391428Y-97563809D01*
X114367619Y-97611428D01*
X114367619Y-97659047D01*
X114391428Y-97706666D01*
X114415238Y-97730476D01*
X114462857Y-97754285D01*
X114629523Y-97754285D01*
X114177142Y-97516190D02*
X113867619Y-97516190D01*
X114034285Y-97706666D01*
X113962857Y-97706666D01*
X113915238Y-97730476D01*
X113891428Y-97754285D01*
X113867619Y-97801904D01*
X113867619Y-97920952D01*
X113891428Y-97968571D01*
X113915238Y-97992380D01*
X113962857Y-98016190D01*
X114105714Y-98016190D01*
X114153333Y-97992380D01*
X114177142Y-97968571D01*
%TO.C,D1*%
D15*
X100789619Y-72910095D02*
X99773619Y-72910095D01*
X99773619Y-73152000D01*
X99822000Y-73297142D01*
X99918761Y-73393904D01*
X100015523Y-73442285D01*
X100209047Y-73490666D01*
X100354190Y-73490666D01*
X100547714Y-73442285D01*
X100644476Y-73393904D01*
X100741238Y-73297142D01*
X100789619Y-73152000D01*
X100789619Y-72910095D01*
X100789619Y-74458285D02*
X100789619Y-73877714D01*
X100789619Y-74168000D02*
X99773619Y-74168000D01*
X99918761Y-74071238D01*
X100015523Y-73974476D01*
X100063904Y-73877714D01*
%TO.C,R1*%
D17*
X87720714Y-88138000D02*
X87357857Y-87884000D01*
X87720714Y-87702571D02*
X86958714Y-87702571D01*
X86958714Y-87992857D01*
X86995000Y-88065428D01*
X87031285Y-88101714D01*
X87103857Y-88138000D01*
X87212714Y-88138000D01*
X87285285Y-88101714D01*
X87321571Y-88065428D01*
X87357857Y-87992857D01*
X87357857Y-87702571D01*
X87720714Y-88863714D02*
X87720714Y-88428285D01*
X87720714Y-88646000D02*
X86958714Y-88646000D01*
X87067571Y-88573428D01*
X87140142Y-88500857D01*
X87176428Y-88428285D01*
X92129714Y-87267142D02*
X92129714Y-86831714D01*
X92129714Y-87049428D02*
X91367714Y-87049428D01*
X91476571Y-86976857D01*
X91549142Y-86904285D01*
X91585428Y-86831714D01*
X91367714Y-87738857D02*
X91367714Y-87811428D01*
X91404000Y-87884000D01*
X91440285Y-87920285D01*
X91512857Y-87956571D01*
X91658000Y-87992857D01*
X91839428Y-87992857D01*
X91984571Y-87956571D01*
X92057142Y-87920285D01*
X92093428Y-87884000D01*
X92129714Y-87811428D01*
X92129714Y-87738857D01*
X92093428Y-87666285D01*
X92057142Y-87630000D01*
X91984571Y-87593714D01*
X91839428Y-87557428D01*
X91658000Y-87557428D01*
X91512857Y-87593714D01*
X91440285Y-87630000D01*
X91404000Y-87666285D01*
X91367714Y-87738857D01*
X92057142Y-88319428D02*
X92093428Y-88355714D01*
X92129714Y-88319428D01*
X92093428Y-88283142D01*
X92057142Y-88319428D01*
X92129714Y-88319428D01*
X91367714Y-88827428D02*
X91367714Y-88900000D01*
X91404000Y-88972571D01*
X91440285Y-89008857D01*
X91512857Y-89045142D01*
X91658000Y-89081428D01*
X91839428Y-89081428D01*
X91984571Y-89045142D01*
X92057142Y-89008857D01*
X92093428Y-88972571D01*
X92129714Y-88900000D01*
X92129714Y-88827428D01*
X92093428Y-88754857D01*
X92057142Y-88718571D01*
X91984571Y-88682285D01*
X91839428Y-88646000D01*
X91658000Y-88646000D01*
X91512857Y-88682285D01*
X91440285Y-88718571D01*
X91404000Y-88754857D01*
X91367714Y-88827428D01*
X92129714Y-89408000D02*
X91367714Y-89408000D01*
X91839428Y-89480571D02*
X92129714Y-89698285D01*
X91621714Y-89698285D02*
X91912000Y-89408000D01*
%TO.C,R2*%
X127671285Y-92202000D02*
X128034142Y-92456000D01*
X127671285Y-92637428D02*
X128433285Y-92637428D01*
X128433285Y-92347142D01*
X128397000Y-92274571D01*
X128360714Y-92238285D01*
X128288142Y-92202000D01*
X128179285Y-92202000D01*
X128106714Y-92238285D01*
X128070428Y-92274571D01*
X128034142Y-92347142D01*
X128034142Y-92637428D01*
X128360714Y-91911714D02*
X128397000Y-91875428D01*
X128433285Y-91802857D01*
X128433285Y-91621428D01*
X128397000Y-91548857D01*
X128360714Y-91512571D01*
X128288142Y-91476285D01*
X128215571Y-91476285D01*
X128106714Y-91512571D01*
X127671285Y-91948000D01*
X127671285Y-91476285D01*
X132080285Y-93072857D02*
X132080285Y-93508285D01*
X132080285Y-93290571D02*
X132842285Y-93290571D01*
X132733428Y-93363142D01*
X132660857Y-93435714D01*
X132624571Y-93508285D01*
X132842285Y-92601142D02*
X132842285Y-92528571D01*
X132806000Y-92456000D01*
X132769714Y-92419714D01*
X132697142Y-92383428D01*
X132552000Y-92347142D01*
X132370571Y-92347142D01*
X132225428Y-92383428D01*
X132152857Y-92419714D01*
X132116571Y-92456000D01*
X132080285Y-92528571D01*
X132080285Y-92601142D01*
X132116571Y-92673714D01*
X132152857Y-92710000D01*
X132225428Y-92746285D01*
X132370571Y-92782571D01*
X132552000Y-92782571D01*
X132697142Y-92746285D01*
X132769714Y-92710000D01*
X132806000Y-92673714D01*
X132842285Y-92601142D01*
X132152857Y-92020571D02*
X132116571Y-91984285D01*
X132080285Y-92020571D01*
X132116571Y-92056857D01*
X132152857Y-92020571D01*
X132080285Y-92020571D01*
X132842285Y-91512571D02*
X132842285Y-91440000D01*
X132806000Y-91367428D01*
X132769714Y-91331142D01*
X132697142Y-91294857D01*
X132552000Y-91258571D01*
X132370571Y-91258571D01*
X132225428Y-91294857D01*
X132152857Y-91331142D01*
X132116571Y-91367428D01*
X132080285Y-91440000D01*
X132080285Y-91512571D01*
X132116571Y-91585142D01*
X132152857Y-91621428D01*
X132225428Y-91657714D01*
X132370571Y-91694000D01*
X132552000Y-91694000D01*
X132697142Y-91657714D01*
X132769714Y-91621428D01*
X132806000Y-91585142D01*
X132842285Y-91512571D01*
X132080285Y-90932000D02*
X132842285Y-90932000D01*
X132370571Y-90859428D02*
X132080285Y-90641714D01*
X132588285Y-90641714D02*
X132298000Y-90932000D01*
%TO.C,R3*%
X99731285Y-83312000D02*
X100094142Y-83566000D01*
X99731285Y-83747428D02*
X100493285Y-83747428D01*
X100493285Y-83457142D01*
X100457000Y-83384571D01*
X100420714Y-83348285D01*
X100348142Y-83312000D01*
X100239285Y-83312000D01*
X100166714Y-83348285D01*
X100130428Y-83384571D01*
X100094142Y-83457142D01*
X100094142Y-83747428D01*
X100493285Y-83058000D02*
X100493285Y-82586285D01*
X100203000Y-82840285D01*
X100203000Y-82731428D01*
X100166714Y-82658857D01*
X100130428Y-82622571D01*
X100057857Y-82586285D01*
X99876428Y-82586285D01*
X99803857Y-82622571D01*
X99767571Y-82658857D01*
X99731285Y-82731428D01*
X99731285Y-82949142D01*
X99767571Y-83021714D01*
X99803857Y-83058000D01*
X104575714Y-83983285D02*
X104612000Y-84055857D01*
X104648285Y-84092142D01*
X104720857Y-84128428D01*
X104757142Y-84128428D01*
X104829714Y-84092142D01*
X104866000Y-84055857D01*
X104902285Y-83983285D01*
X104902285Y-83838142D01*
X104866000Y-83765571D01*
X104829714Y-83729285D01*
X104757142Y-83693000D01*
X104720857Y-83693000D01*
X104648285Y-83729285D01*
X104612000Y-83765571D01*
X104575714Y-83838142D01*
X104575714Y-83983285D01*
X104539428Y-84055857D01*
X104503142Y-84092142D01*
X104430571Y-84128428D01*
X104285428Y-84128428D01*
X104212857Y-84092142D01*
X104176571Y-84055857D01*
X104140285Y-83983285D01*
X104140285Y-83838142D01*
X104176571Y-83765571D01*
X104212857Y-83729285D01*
X104285428Y-83693000D01*
X104430571Y-83693000D01*
X104503142Y-83729285D01*
X104539428Y-83765571D01*
X104575714Y-83838142D01*
X104648285Y-83039857D02*
X104140285Y-83039857D01*
X104938571Y-83221285D02*
X104394285Y-83402714D01*
X104394285Y-82931000D01*
X104902285Y-82277857D02*
X104902285Y-82640714D01*
X104539428Y-82677000D01*
X104575714Y-82640714D01*
X104612000Y-82568142D01*
X104612000Y-82386714D01*
X104575714Y-82314142D01*
X104539428Y-82277857D01*
X104466857Y-82241571D01*
X104285428Y-82241571D01*
X104212857Y-82277857D01*
X104176571Y-82314142D01*
X104140285Y-82386714D01*
X104140285Y-82568142D01*
X104176571Y-82640714D01*
X104212857Y-82677000D01*
%TO.C,R4*%
X106172000Y-78703714D02*
X106426000Y-78340857D01*
X106607428Y-78703714D02*
X106607428Y-77941714D01*
X106317142Y-77941714D01*
X106244571Y-77978000D01*
X106208285Y-78014285D01*
X106172000Y-78086857D01*
X106172000Y-78195714D01*
X106208285Y-78268285D01*
X106244571Y-78304571D01*
X106317142Y-78340857D01*
X106607428Y-78340857D01*
X105518857Y-78195714D02*
X105518857Y-78703714D01*
X105700285Y-77905428D02*
X105881714Y-78449714D01*
X105410000Y-78449714D01*
X106843285Y-73859285D02*
X106915857Y-73823000D01*
X106952142Y-73786714D01*
X106988428Y-73714142D01*
X106988428Y-73677857D01*
X106952142Y-73605285D01*
X106915857Y-73569000D01*
X106843285Y-73532714D01*
X106698142Y-73532714D01*
X106625571Y-73569000D01*
X106589285Y-73605285D01*
X106553000Y-73677857D01*
X106553000Y-73714142D01*
X106589285Y-73786714D01*
X106625571Y-73823000D01*
X106698142Y-73859285D01*
X106843285Y-73859285D01*
X106915857Y-73895571D01*
X106952142Y-73931857D01*
X106988428Y-74004428D01*
X106988428Y-74149571D01*
X106952142Y-74222142D01*
X106915857Y-74258428D01*
X106843285Y-74294714D01*
X106698142Y-74294714D01*
X106625571Y-74258428D01*
X106589285Y-74222142D01*
X106553000Y-74149571D01*
X106553000Y-74004428D01*
X106589285Y-73931857D01*
X106625571Y-73895571D01*
X106698142Y-73859285D01*
X105899857Y-73786714D02*
X105899857Y-74294714D01*
X106081285Y-73496428D02*
X106262714Y-74040714D01*
X105791000Y-74040714D01*
X105137857Y-73532714D02*
X105500714Y-73532714D01*
X105537000Y-73895571D01*
X105500714Y-73859285D01*
X105428142Y-73823000D01*
X105246714Y-73823000D01*
X105174142Y-73859285D01*
X105137857Y-73895571D01*
X105101571Y-73968142D01*
X105101571Y-74149571D01*
X105137857Y-74222142D01*
X105174142Y-74258428D01*
X105246714Y-74294714D01*
X105428142Y-74294714D01*
X105500714Y-74258428D01*
X105537000Y-74222142D01*
%TO.C,R5*%
X115479285Y-83312000D02*
X115842142Y-83566000D01*
X115479285Y-83747428D02*
X116241285Y-83747428D01*
X116241285Y-83457142D01*
X116205000Y-83384571D01*
X116168714Y-83348285D01*
X116096142Y-83312000D01*
X115987285Y-83312000D01*
X115914714Y-83348285D01*
X115878428Y-83384571D01*
X115842142Y-83457142D01*
X115842142Y-83747428D01*
X116241285Y-82622571D02*
X116241285Y-82985428D01*
X115878428Y-83021714D01*
X115914714Y-82985428D01*
X115951000Y-82912857D01*
X115951000Y-82731428D01*
X115914714Y-82658857D01*
X115878428Y-82622571D01*
X115805857Y-82586285D01*
X115624428Y-82586285D01*
X115551857Y-82622571D01*
X115515571Y-82658857D01*
X115479285Y-82731428D01*
X115479285Y-82912857D01*
X115515571Y-82985428D01*
X115551857Y-83021714D01*
X111505714Y-83983285D02*
X111542000Y-84055857D01*
X111578285Y-84092142D01*
X111650857Y-84128428D01*
X111687142Y-84128428D01*
X111759714Y-84092142D01*
X111796000Y-84055857D01*
X111832285Y-83983285D01*
X111832285Y-83838142D01*
X111796000Y-83765571D01*
X111759714Y-83729285D01*
X111687142Y-83693000D01*
X111650857Y-83693000D01*
X111578285Y-83729285D01*
X111542000Y-83765571D01*
X111505714Y-83838142D01*
X111505714Y-83983285D01*
X111469428Y-84055857D01*
X111433142Y-84092142D01*
X111360571Y-84128428D01*
X111215428Y-84128428D01*
X111142857Y-84092142D01*
X111106571Y-84055857D01*
X111070285Y-83983285D01*
X111070285Y-83838142D01*
X111106571Y-83765571D01*
X111142857Y-83729285D01*
X111215428Y-83693000D01*
X111360571Y-83693000D01*
X111433142Y-83729285D01*
X111469428Y-83765571D01*
X111505714Y-83838142D01*
X111578285Y-83039857D02*
X111070285Y-83039857D01*
X111868571Y-83221285D02*
X111324285Y-83402714D01*
X111324285Y-82931000D01*
X111832285Y-82277857D02*
X111832285Y-82640714D01*
X111469428Y-82677000D01*
X111505714Y-82640714D01*
X111542000Y-82568142D01*
X111542000Y-82386714D01*
X111505714Y-82314142D01*
X111469428Y-82277857D01*
X111396857Y-82241571D01*
X111215428Y-82241571D01*
X111142857Y-82277857D01*
X111106571Y-82314142D01*
X111070285Y-82386714D01*
X111070285Y-82568142D01*
X111106571Y-82640714D01*
X111142857Y-82677000D01*
%TO.C,R6*%
X113792000Y-78703714D02*
X114046000Y-78340857D01*
X114227428Y-78703714D02*
X114227428Y-77941714D01*
X113937142Y-77941714D01*
X113864571Y-77978000D01*
X113828285Y-78014285D01*
X113792000Y-78086857D01*
X113792000Y-78195714D01*
X113828285Y-78268285D01*
X113864571Y-78304571D01*
X113937142Y-78340857D01*
X114227428Y-78340857D01*
X113138857Y-77941714D02*
X113284000Y-77941714D01*
X113356571Y-77978000D01*
X113392857Y-78014285D01*
X113465428Y-78123142D01*
X113501714Y-78268285D01*
X113501714Y-78558571D01*
X113465428Y-78631142D01*
X113429142Y-78667428D01*
X113356571Y-78703714D01*
X113211428Y-78703714D01*
X113138857Y-78667428D01*
X113102571Y-78631142D01*
X113066285Y-78558571D01*
X113066285Y-78377142D01*
X113102571Y-78304571D01*
X113138857Y-78268285D01*
X113211428Y-78232000D01*
X113356571Y-78232000D01*
X113429142Y-78268285D01*
X113465428Y-78304571D01*
X113501714Y-78377142D01*
X114463285Y-73859285D02*
X114535857Y-73823000D01*
X114572142Y-73786714D01*
X114608428Y-73714142D01*
X114608428Y-73677857D01*
X114572142Y-73605285D01*
X114535857Y-73569000D01*
X114463285Y-73532714D01*
X114318142Y-73532714D01*
X114245571Y-73569000D01*
X114209285Y-73605285D01*
X114173000Y-73677857D01*
X114173000Y-73714142D01*
X114209285Y-73786714D01*
X114245571Y-73823000D01*
X114318142Y-73859285D01*
X114463285Y-73859285D01*
X114535857Y-73895571D01*
X114572142Y-73931857D01*
X114608428Y-74004428D01*
X114608428Y-74149571D01*
X114572142Y-74222142D01*
X114535857Y-74258428D01*
X114463285Y-74294714D01*
X114318142Y-74294714D01*
X114245571Y-74258428D01*
X114209285Y-74222142D01*
X114173000Y-74149571D01*
X114173000Y-74004428D01*
X114209285Y-73931857D01*
X114245571Y-73895571D01*
X114318142Y-73859285D01*
X113519857Y-73786714D02*
X113519857Y-74294714D01*
X113701285Y-73496428D02*
X113882714Y-74040714D01*
X113411000Y-74040714D01*
X112757857Y-73532714D02*
X113120714Y-73532714D01*
X113157000Y-73895571D01*
X113120714Y-73859285D01*
X113048142Y-73823000D01*
X112866714Y-73823000D01*
X112794142Y-73859285D01*
X112757857Y-73895571D01*
X112721571Y-73968142D01*
X112721571Y-74149571D01*
X112757857Y-74222142D01*
X112794142Y-74258428D01*
X112866714Y-74294714D01*
X113048142Y-74294714D01*
X113120714Y-74258428D01*
X113157000Y-74222142D01*
%TO.C,U2*%
D13*
X89922047Y-93193809D02*
X89922047Y-93605047D01*
X89897857Y-93653428D01*
X89873666Y-93677619D01*
X89825285Y-93701809D01*
X89728523Y-93701809D01*
X89680142Y-93677619D01*
X89655952Y-93653428D01*
X89631761Y-93605047D01*
X89631761Y-93193809D01*
X89414047Y-93242190D02*
X89389857Y-93218000D01*
X89341476Y-93193809D01*
X89220523Y-93193809D01*
X89172142Y-93218000D01*
X89147952Y-93242190D01*
X89123761Y-93290571D01*
X89123761Y-93338952D01*
X89147952Y-93411523D01*
X89438238Y-93701809D01*
X89123761Y-93701809D01*
%TO.C,U3*%
D15*
X137873619Y-73520904D02*
X138696095Y-73520904D01*
X138792857Y-73569285D01*
X138841238Y-73617666D01*
X138889619Y-73714428D01*
X138889619Y-73907952D01*
X138841238Y-74004714D01*
X138792857Y-74053095D01*
X138696095Y-74101476D01*
X137873619Y-74101476D01*
X137873619Y-74488523D02*
X137873619Y-75117476D01*
X138260666Y-74778809D01*
X138260666Y-74923952D01*
X138309047Y-75020714D01*
X138357428Y-75069095D01*
X138454190Y-75117476D01*
X138696095Y-75117476D01*
X138792857Y-75069095D01*
X138841238Y-75020714D01*
X138889619Y-74923952D01*
X138889619Y-74633666D01*
X138841238Y-74536904D01*
X138792857Y-74488523D01*
%TO.C,U4*%
D13*
X130562047Y-97638809D02*
X130562047Y-98050047D01*
X130537857Y-98098428D01*
X130513666Y-98122619D01*
X130465285Y-98146809D01*
X130368523Y-98146809D01*
X130320142Y-98122619D01*
X130295952Y-98098428D01*
X130271761Y-98050047D01*
X130271761Y-97638809D01*
X129812142Y-97808142D02*
X129812142Y-98146809D01*
X129933095Y-97614619D02*
X130054047Y-97977476D01*
X129739571Y-97977476D01*
%TO.C,C1*%
D17*
X118001142Y-91948000D02*
X118037428Y-91911714D01*
X118073714Y-91802857D01*
X118073714Y-91730285D01*
X118037428Y-91621428D01*
X117964857Y-91548857D01*
X117892285Y-91512571D01*
X117747142Y-91476285D01*
X117638285Y-91476285D01*
X117493142Y-91512571D01*
X117420571Y-91548857D01*
X117348000Y-91621428D01*
X117311714Y-91730285D01*
X117311714Y-91802857D01*
X117348000Y-91911714D01*
X117384285Y-91948000D01*
X118073714Y-92673714D02*
X118073714Y-92238285D01*
X118073714Y-92456000D02*
X117311714Y-92456000D01*
X117420571Y-92383428D01*
X117493142Y-92310857D01*
X117529428Y-92238285D01*
X112902714Y-90823142D02*
X112902714Y-90895714D01*
X112939000Y-90968285D01*
X112975285Y-91004571D01*
X113047857Y-91040857D01*
X113193000Y-91077142D01*
X113374428Y-91077142D01*
X113519571Y-91040857D01*
X113592142Y-91004571D01*
X113628428Y-90968285D01*
X113664714Y-90895714D01*
X113664714Y-90823142D01*
X113628428Y-90750571D01*
X113592142Y-90714285D01*
X113519571Y-90678000D01*
X113374428Y-90641714D01*
X113193000Y-90641714D01*
X113047857Y-90678000D01*
X112975285Y-90714285D01*
X112939000Y-90750571D01*
X112902714Y-90823142D01*
X113592142Y-91403714D02*
X113628428Y-91440000D01*
X113664714Y-91403714D01*
X113628428Y-91367428D01*
X113592142Y-91403714D01*
X113664714Y-91403714D01*
X113664714Y-92165714D02*
X113664714Y-91730285D01*
X113664714Y-91948000D02*
X112902714Y-91948000D01*
X113011571Y-91875428D01*
X113084142Y-91802857D01*
X113120428Y-91730285D01*
X113156714Y-92818857D02*
X113664714Y-92818857D01*
X113156714Y-92492285D02*
X113555857Y-92492285D01*
X113628428Y-92528571D01*
X113664714Y-92601142D01*
X113664714Y-92710000D01*
X113628428Y-92782571D01*
X113592142Y-92818857D01*
X113265571Y-93435714D02*
X113265571Y-93181714D01*
X113664714Y-93181714D02*
X112902714Y-93181714D01*
X112902714Y-93544571D01*
%TO.C,C2*%
X94723857Y-102362000D02*
X94687571Y-102398285D01*
X94651285Y-102507142D01*
X94651285Y-102579714D01*
X94687571Y-102688571D01*
X94760142Y-102761142D01*
X94832714Y-102797428D01*
X94977857Y-102833714D01*
X95086714Y-102833714D01*
X95231857Y-102797428D01*
X95304428Y-102761142D01*
X95377000Y-102688571D01*
X95413285Y-102579714D01*
X95413285Y-102507142D01*
X95377000Y-102398285D01*
X95340714Y-102362000D01*
X95340714Y-102071714D02*
X95377000Y-102035428D01*
X95413285Y-101962857D01*
X95413285Y-101781428D01*
X95377000Y-101708857D01*
X95340714Y-101672571D01*
X95268142Y-101636285D01*
X95195571Y-101636285D01*
X95086714Y-101672571D01*
X94651285Y-102108000D01*
X94651285Y-101636285D01*
X97971428Y-104484714D02*
X98406857Y-104484714D01*
X98189142Y-104484714D02*
X98189142Y-103722714D01*
X98261714Y-103831571D01*
X98334285Y-103904142D01*
X98406857Y-103940428D01*
X97499714Y-103722714D02*
X97427142Y-103722714D01*
X97354571Y-103759000D01*
X97318285Y-103795285D01*
X97282000Y-103867857D01*
X97245714Y-104013000D01*
X97245714Y-104194428D01*
X97282000Y-104339571D01*
X97318285Y-104412142D01*
X97354571Y-104448428D01*
X97427142Y-104484714D01*
X97499714Y-104484714D01*
X97572285Y-104448428D01*
X97608571Y-104412142D01*
X97644857Y-104339571D01*
X97681142Y-104194428D01*
X97681142Y-104013000D01*
X97644857Y-103867857D01*
X97608571Y-103795285D01*
X97572285Y-103759000D01*
X97499714Y-103722714D01*
X96592571Y-103976714D02*
X96592571Y-104484714D01*
X96919142Y-103976714D02*
X96919142Y-104375857D01*
X96882857Y-104448428D01*
X96810285Y-104484714D01*
X96701428Y-104484714D01*
X96628857Y-104448428D01*
X96592571Y-104412142D01*
X95975714Y-104085571D02*
X96229714Y-104085571D01*
X96229714Y-104484714D02*
X96229714Y-103722714D01*
X95866857Y-103722714D01*
%TO.C,C3*%
X103396142Y-102108000D02*
X103432428Y-102071714D01*
X103468714Y-101962857D01*
X103468714Y-101890285D01*
X103432428Y-101781428D01*
X103359857Y-101708857D01*
X103287285Y-101672571D01*
X103142142Y-101636285D01*
X103033285Y-101636285D01*
X102888142Y-101672571D01*
X102815571Y-101708857D01*
X102743000Y-101781428D01*
X102706714Y-101890285D01*
X102706714Y-101962857D01*
X102743000Y-102071714D01*
X102779285Y-102108000D01*
X102706714Y-102362000D02*
X102706714Y-102833714D01*
X102997000Y-102579714D01*
X102997000Y-102688571D01*
X103033285Y-102761142D01*
X103069571Y-102797428D01*
X103142142Y-102833714D01*
X103323571Y-102833714D01*
X103396142Y-102797428D01*
X103432428Y-102761142D01*
X103468714Y-102688571D01*
X103468714Y-102470857D01*
X103432428Y-102398285D01*
X103396142Y-102362000D01*
X101781428Y-104484714D02*
X102216857Y-104484714D01*
X101999142Y-104484714D02*
X101999142Y-103722714D01*
X102071714Y-103831571D01*
X102144285Y-103904142D01*
X102216857Y-103940428D01*
X101309714Y-103722714D02*
X101237142Y-103722714D01*
X101164571Y-103759000D01*
X101128285Y-103795285D01*
X101092000Y-103867857D01*
X101055714Y-104013000D01*
X101055714Y-104194428D01*
X101092000Y-104339571D01*
X101128285Y-104412142D01*
X101164571Y-104448428D01*
X101237142Y-104484714D01*
X101309714Y-104484714D01*
X101382285Y-104448428D01*
X101418571Y-104412142D01*
X101454857Y-104339571D01*
X101491142Y-104194428D01*
X101491142Y-104013000D01*
X101454857Y-103867857D01*
X101418571Y-103795285D01*
X101382285Y-103759000D01*
X101309714Y-103722714D01*
X100402571Y-103976714D02*
X100402571Y-104484714D01*
X100729142Y-103976714D02*
X100729142Y-104375857D01*
X100692857Y-104448428D01*
X100620285Y-104484714D01*
X100511428Y-104484714D01*
X100438857Y-104448428D01*
X100402571Y-104412142D01*
X99785714Y-104085571D02*
X100039714Y-104085571D01*
X100039714Y-104484714D02*
X100039714Y-103722714D01*
X99676857Y-103722714D01*
%TO.C,C4*%
X101092000Y-97681142D02*
X101128285Y-97717428D01*
X101237142Y-97753714D01*
X101309714Y-97753714D01*
X101418571Y-97717428D01*
X101491142Y-97644857D01*
X101527428Y-97572285D01*
X101563714Y-97427142D01*
X101563714Y-97318285D01*
X101527428Y-97173142D01*
X101491142Y-97100571D01*
X101418571Y-97028000D01*
X101309714Y-96991714D01*
X101237142Y-96991714D01*
X101128285Y-97028000D01*
X101092000Y-97064285D01*
X100438857Y-97245714D02*
X100438857Y-97753714D01*
X100620285Y-96955428D02*
X100801714Y-97499714D01*
X100330000Y-97499714D01*
X102216857Y-92582714D02*
X102144285Y-92582714D01*
X102071714Y-92619000D01*
X102035428Y-92655285D01*
X101999142Y-92727857D01*
X101962857Y-92873000D01*
X101962857Y-93054428D01*
X101999142Y-93199571D01*
X102035428Y-93272142D01*
X102071714Y-93308428D01*
X102144285Y-93344714D01*
X102216857Y-93344714D01*
X102289428Y-93308428D01*
X102325714Y-93272142D01*
X102362000Y-93199571D01*
X102398285Y-93054428D01*
X102398285Y-92873000D01*
X102362000Y-92727857D01*
X102325714Y-92655285D01*
X102289428Y-92619000D01*
X102216857Y-92582714D01*
X101636285Y-93272142D02*
X101600000Y-93308428D01*
X101636285Y-93344714D01*
X101672571Y-93308428D01*
X101636285Y-93272142D01*
X101636285Y-93344714D01*
X100874285Y-93344714D02*
X101309714Y-93344714D01*
X101092000Y-93344714D02*
X101092000Y-92582714D01*
X101164571Y-92691571D01*
X101237142Y-92764142D01*
X101309714Y-92800428D01*
X100221142Y-92836714D02*
X100221142Y-93344714D01*
X100547714Y-92836714D02*
X100547714Y-93235857D01*
X100511428Y-93308428D01*
X100438857Y-93344714D01*
X100330000Y-93344714D01*
X100257428Y-93308428D01*
X100221142Y-93272142D01*
X99604285Y-92945571D02*
X99858285Y-92945571D01*
X99858285Y-93344714D02*
X99858285Y-92582714D01*
X99495428Y-92582714D01*
%TO.C,C5*%
X154432000Y-72408142D02*
X154468285Y-72444428D01*
X154577142Y-72480714D01*
X154649714Y-72480714D01*
X154758571Y-72444428D01*
X154831142Y-72371857D01*
X154867428Y-72299285D01*
X154903714Y-72154142D01*
X154903714Y-72045285D01*
X154867428Y-71900142D01*
X154831142Y-71827571D01*
X154758571Y-71755000D01*
X154649714Y-71718714D01*
X154577142Y-71718714D01*
X154468285Y-71755000D01*
X154432000Y-71791285D01*
X153742571Y-71718714D02*
X154105428Y-71718714D01*
X154141714Y-72081571D01*
X154105428Y-72045285D01*
X154032857Y-72009000D01*
X153851428Y-72009000D01*
X153778857Y-72045285D01*
X153742571Y-72081571D01*
X153706285Y-72154142D01*
X153706285Y-72335571D01*
X153742571Y-72408142D01*
X153778857Y-72444428D01*
X153851428Y-72480714D01*
X154032857Y-72480714D01*
X154105428Y-72444428D01*
X154141714Y-72408142D01*
X155556857Y-76127714D02*
X155484285Y-76127714D01*
X155411714Y-76164000D01*
X155375428Y-76200285D01*
X155339142Y-76272857D01*
X155302857Y-76418000D01*
X155302857Y-76599428D01*
X155339142Y-76744571D01*
X155375428Y-76817142D01*
X155411714Y-76853428D01*
X155484285Y-76889714D01*
X155556857Y-76889714D01*
X155629428Y-76853428D01*
X155665714Y-76817142D01*
X155702000Y-76744571D01*
X155738285Y-76599428D01*
X155738285Y-76418000D01*
X155702000Y-76272857D01*
X155665714Y-76200285D01*
X155629428Y-76164000D01*
X155556857Y-76127714D01*
X154976285Y-76817142D02*
X154940000Y-76853428D01*
X154976285Y-76889714D01*
X155012571Y-76853428D01*
X154976285Y-76817142D01*
X154976285Y-76889714D01*
X154214285Y-76889714D02*
X154649714Y-76889714D01*
X154432000Y-76889714D02*
X154432000Y-76127714D01*
X154504571Y-76236571D01*
X154577142Y-76309142D01*
X154649714Y-76345428D01*
X153561142Y-76381714D02*
X153561142Y-76889714D01*
X153887714Y-76381714D02*
X153887714Y-76780857D01*
X153851428Y-76853428D01*
X153778857Y-76889714D01*
X153670000Y-76889714D01*
X153597428Y-76853428D01*
X153561142Y-76817142D01*
X152944285Y-76490571D02*
X153198285Y-76490571D01*
X153198285Y-76889714D02*
X153198285Y-76127714D01*
X152835428Y-76127714D01*
%TO.C,C7*%
X120123857Y-92202000D02*
X120087571Y-92238285D01*
X120051285Y-92347142D01*
X120051285Y-92419714D01*
X120087571Y-92528571D01*
X120160142Y-92601142D01*
X120232714Y-92637428D01*
X120377857Y-92673714D01*
X120486714Y-92673714D01*
X120631857Y-92637428D01*
X120704428Y-92601142D01*
X120777000Y-92528571D01*
X120813285Y-92419714D01*
X120813285Y-92347142D01*
X120777000Y-92238285D01*
X120740714Y-92202000D01*
X120813285Y-91948000D02*
X120813285Y-91440000D01*
X120051285Y-91766571D01*
X124460285Y-92891428D02*
X124460285Y-93326857D01*
X124460285Y-93109142D02*
X125222285Y-93109142D01*
X125113428Y-93181714D01*
X125040857Y-93254285D01*
X125004571Y-93326857D01*
X125222285Y-92419714D02*
X125222285Y-92347142D01*
X125186000Y-92274571D01*
X125149714Y-92238285D01*
X125077142Y-92202000D01*
X124932000Y-92165714D01*
X124750571Y-92165714D01*
X124605428Y-92202000D01*
X124532857Y-92238285D01*
X124496571Y-92274571D01*
X124460285Y-92347142D01*
X124460285Y-92419714D01*
X124496571Y-92492285D01*
X124532857Y-92528571D01*
X124605428Y-92564857D01*
X124750571Y-92601142D01*
X124932000Y-92601142D01*
X125077142Y-92564857D01*
X125149714Y-92528571D01*
X125186000Y-92492285D01*
X125222285Y-92419714D01*
X124968285Y-91512571D02*
X124460285Y-91512571D01*
X124968285Y-91839142D02*
X124569142Y-91839142D01*
X124496571Y-91802857D01*
X124460285Y-91730285D01*
X124460285Y-91621428D01*
X124496571Y-91548857D01*
X124532857Y-91512571D01*
X124859428Y-90895714D02*
X124859428Y-91149714D01*
X124460285Y-91149714D02*
X125222285Y-91149714D01*
X125222285Y-90786857D01*
%TO.C,C8*%
X104267000Y-85743142D02*
X104303285Y-85779428D01*
X104412142Y-85815714D01*
X104484714Y-85815714D01*
X104593571Y-85779428D01*
X104666142Y-85706857D01*
X104702428Y-85634285D01*
X104738714Y-85489142D01*
X104738714Y-85380285D01*
X104702428Y-85235142D01*
X104666142Y-85162571D01*
X104593571Y-85090000D01*
X104484714Y-85053714D01*
X104412142Y-85053714D01*
X104303285Y-85090000D01*
X104267000Y-85126285D01*
X103831571Y-85380285D02*
X103904142Y-85344000D01*
X103940428Y-85307714D01*
X103976714Y-85235142D01*
X103976714Y-85198857D01*
X103940428Y-85126285D01*
X103904142Y-85090000D01*
X103831571Y-85053714D01*
X103686428Y-85053714D01*
X103613857Y-85090000D01*
X103577571Y-85126285D01*
X103541285Y-85198857D01*
X103541285Y-85235142D01*
X103577571Y-85307714D01*
X103613857Y-85344000D01*
X103686428Y-85380285D01*
X103831571Y-85380285D01*
X103904142Y-85416571D01*
X103940428Y-85452857D01*
X103976714Y-85525428D01*
X103976714Y-85670571D01*
X103940428Y-85743142D01*
X103904142Y-85779428D01*
X103831571Y-85815714D01*
X103686428Y-85815714D01*
X103613857Y-85779428D01*
X103577571Y-85743142D01*
X103541285Y-85670571D01*
X103541285Y-85525428D01*
X103577571Y-85452857D01*
X103613857Y-85416571D01*
X103686428Y-85380285D01*
X105391857Y-89462714D02*
X105319285Y-89462714D01*
X105246714Y-89499000D01*
X105210428Y-89535285D01*
X105174142Y-89607857D01*
X105137857Y-89753000D01*
X105137857Y-89934428D01*
X105174142Y-90079571D01*
X105210428Y-90152142D01*
X105246714Y-90188428D01*
X105319285Y-90224714D01*
X105391857Y-90224714D01*
X105464428Y-90188428D01*
X105500714Y-90152142D01*
X105537000Y-90079571D01*
X105573285Y-89934428D01*
X105573285Y-89753000D01*
X105537000Y-89607857D01*
X105500714Y-89535285D01*
X105464428Y-89499000D01*
X105391857Y-89462714D01*
X104811285Y-90152142D02*
X104775000Y-90188428D01*
X104811285Y-90224714D01*
X104847571Y-90188428D01*
X104811285Y-90152142D01*
X104811285Y-90224714D01*
X104049285Y-90224714D02*
X104484714Y-90224714D01*
X104267000Y-90224714D02*
X104267000Y-89462714D01*
X104339571Y-89571571D01*
X104412142Y-89644142D01*
X104484714Y-89680428D01*
X103396142Y-89716714D02*
X103396142Y-90224714D01*
X103722714Y-89716714D02*
X103722714Y-90115857D01*
X103686428Y-90188428D01*
X103613857Y-90224714D01*
X103505000Y-90224714D01*
X103432428Y-90188428D01*
X103396142Y-90152142D01*
X102779285Y-89825571D02*
X103033285Y-89825571D01*
X103033285Y-90224714D02*
X103033285Y-89462714D01*
X102670428Y-89462714D01*
%TO.C,C9*%
X101092000Y-85743142D02*
X101128285Y-85779428D01*
X101237142Y-85815714D01*
X101309714Y-85815714D01*
X101418571Y-85779428D01*
X101491142Y-85706857D01*
X101527428Y-85634285D01*
X101563714Y-85489142D01*
X101563714Y-85380285D01*
X101527428Y-85235142D01*
X101491142Y-85162571D01*
X101418571Y-85090000D01*
X101309714Y-85053714D01*
X101237142Y-85053714D01*
X101128285Y-85090000D01*
X101092000Y-85126285D01*
X100729142Y-85815714D02*
X100584000Y-85815714D01*
X100511428Y-85779428D01*
X100475142Y-85743142D01*
X100402571Y-85634285D01*
X100366285Y-85489142D01*
X100366285Y-85198857D01*
X100402571Y-85126285D01*
X100438857Y-85090000D01*
X100511428Y-85053714D01*
X100656571Y-85053714D01*
X100729142Y-85090000D01*
X100765428Y-85126285D01*
X100801714Y-85198857D01*
X100801714Y-85380285D01*
X100765428Y-85452857D01*
X100729142Y-85489142D01*
X100656571Y-85525428D01*
X100511428Y-85525428D01*
X100438857Y-85489142D01*
X100402571Y-85452857D01*
X100366285Y-85380285D01*
X102216857Y-89462714D02*
X102144285Y-89462714D01*
X102071714Y-89499000D01*
X102035428Y-89535285D01*
X101999142Y-89607857D01*
X101962857Y-89753000D01*
X101962857Y-89934428D01*
X101999142Y-90079571D01*
X102035428Y-90152142D01*
X102071714Y-90188428D01*
X102144285Y-90224714D01*
X102216857Y-90224714D01*
X102289428Y-90188428D01*
X102325714Y-90152142D01*
X102362000Y-90079571D01*
X102398285Y-89934428D01*
X102398285Y-89753000D01*
X102362000Y-89607857D01*
X102325714Y-89535285D01*
X102289428Y-89499000D01*
X102216857Y-89462714D01*
X101636285Y-90152142D02*
X101600000Y-90188428D01*
X101636285Y-90224714D01*
X101672571Y-90188428D01*
X101636285Y-90152142D01*
X101636285Y-90224714D01*
X100874285Y-90224714D02*
X101309714Y-90224714D01*
X101092000Y-90224714D02*
X101092000Y-89462714D01*
X101164571Y-89571571D01*
X101237142Y-89644142D01*
X101309714Y-89680428D01*
X100221142Y-89716714D02*
X100221142Y-90224714D01*
X100547714Y-89716714D02*
X100547714Y-90115857D01*
X100511428Y-90188428D01*
X100438857Y-90224714D01*
X100330000Y-90224714D01*
X100257428Y-90188428D01*
X100221142Y-90152142D01*
X99604285Y-89825571D02*
X99858285Y-89825571D01*
X99858285Y-90224714D02*
X99858285Y-89462714D01*
X99495428Y-89462714D01*
%TO.C,C10*%
X98279857Y-85743142D02*
X98316142Y-85779428D01*
X98425000Y-85815714D01*
X98497571Y-85815714D01*
X98606428Y-85779428D01*
X98679000Y-85706857D01*
X98715285Y-85634285D01*
X98751571Y-85489142D01*
X98751571Y-85380285D01*
X98715285Y-85235142D01*
X98679000Y-85162571D01*
X98606428Y-85090000D01*
X98497571Y-85053714D01*
X98425000Y-85053714D01*
X98316142Y-85090000D01*
X98279857Y-85126285D01*
X97554142Y-85815714D02*
X97989571Y-85815714D01*
X97771857Y-85815714D02*
X97771857Y-85053714D01*
X97844428Y-85162571D01*
X97917000Y-85235142D01*
X97989571Y-85271428D01*
X97082428Y-85053714D02*
X97009857Y-85053714D01*
X96937285Y-85090000D01*
X96901000Y-85126285D01*
X96864714Y-85198857D01*
X96828428Y-85344000D01*
X96828428Y-85525428D01*
X96864714Y-85670571D01*
X96901000Y-85743142D01*
X96937285Y-85779428D01*
X97009857Y-85815714D01*
X97082428Y-85815714D01*
X97155000Y-85779428D01*
X97191285Y-85743142D01*
X97227571Y-85670571D01*
X97263857Y-85525428D01*
X97263857Y-85344000D01*
X97227571Y-85198857D01*
X97191285Y-85126285D01*
X97155000Y-85090000D01*
X97082428Y-85053714D01*
X99041857Y-89462714D02*
X98969285Y-89462714D01*
X98896714Y-89499000D01*
X98860428Y-89535285D01*
X98824142Y-89607857D01*
X98787857Y-89753000D01*
X98787857Y-89934428D01*
X98824142Y-90079571D01*
X98860428Y-90152142D01*
X98896714Y-90188428D01*
X98969285Y-90224714D01*
X99041857Y-90224714D01*
X99114428Y-90188428D01*
X99150714Y-90152142D01*
X99187000Y-90079571D01*
X99223285Y-89934428D01*
X99223285Y-89753000D01*
X99187000Y-89607857D01*
X99150714Y-89535285D01*
X99114428Y-89499000D01*
X99041857Y-89462714D01*
X98461285Y-90152142D02*
X98425000Y-90188428D01*
X98461285Y-90224714D01*
X98497571Y-90188428D01*
X98461285Y-90152142D01*
X98461285Y-90224714D01*
X97699285Y-90224714D02*
X98134714Y-90224714D01*
X97917000Y-90224714D02*
X97917000Y-89462714D01*
X97989571Y-89571571D01*
X98062142Y-89644142D01*
X98134714Y-89680428D01*
X97046142Y-89716714D02*
X97046142Y-90224714D01*
X97372714Y-89716714D02*
X97372714Y-90115857D01*
X97336428Y-90188428D01*
X97263857Y-90224714D01*
X97155000Y-90224714D01*
X97082428Y-90188428D01*
X97046142Y-90152142D01*
X96429285Y-89825571D02*
X96683285Y-89825571D01*
X96683285Y-90224714D02*
X96683285Y-89462714D01*
X96320428Y-89462714D01*
%TO.C,C11*%
X92982142Y-79520142D02*
X93018428Y-79483857D01*
X93054714Y-79375000D01*
X93054714Y-79302428D01*
X93018428Y-79193571D01*
X92945857Y-79121000D01*
X92873285Y-79084714D01*
X92728142Y-79048428D01*
X92619285Y-79048428D01*
X92474142Y-79084714D01*
X92401571Y-79121000D01*
X92329000Y-79193571D01*
X92292714Y-79302428D01*
X92292714Y-79375000D01*
X92329000Y-79483857D01*
X92365285Y-79520142D01*
X93054714Y-80245857D02*
X93054714Y-79810428D01*
X93054714Y-80028142D02*
X92292714Y-80028142D01*
X92401571Y-79955571D01*
X92474142Y-79883000D01*
X92510428Y-79810428D01*
X93054714Y-80971571D02*
X93054714Y-80536142D01*
X93054714Y-80753857D02*
X92292714Y-80753857D01*
X92401571Y-80681285D01*
X92474142Y-80608714D01*
X92510428Y-80536142D01*
X95866857Y-81842714D02*
X95794285Y-81842714D01*
X95721714Y-81879000D01*
X95685428Y-81915285D01*
X95649142Y-81987857D01*
X95612857Y-82133000D01*
X95612857Y-82314428D01*
X95649142Y-82459571D01*
X95685428Y-82532142D01*
X95721714Y-82568428D01*
X95794285Y-82604714D01*
X95866857Y-82604714D01*
X95939428Y-82568428D01*
X95975714Y-82532142D01*
X96012000Y-82459571D01*
X96048285Y-82314428D01*
X96048285Y-82133000D01*
X96012000Y-81987857D01*
X95975714Y-81915285D01*
X95939428Y-81879000D01*
X95866857Y-81842714D01*
X95286285Y-82532142D02*
X95250000Y-82568428D01*
X95286285Y-82604714D01*
X95322571Y-82568428D01*
X95286285Y-82532142D01*
X95286285Y-82604714D01*
X94524285Y-82604714D02*
X94959714Y-82604714D01*
X94742000Y-82604714D02*
X94742000Y-81842714D01*
X94814571Y-81951571D01*
X94887142Y-82024142D01*
X94959714Y-82060428D01*
X93871142Y-82096714D02*
X93871142Y-82604714D01*
X94197714Y-82096714D02*
X94197714Y-82495857D01*
X94161428Y-82568428D01*
X94088857Y-82604714D01*
X93980000Y-82604714D01*
X93907428Y-82568428D01*
X93871142Y-82532142D01*
X93254285Y-82205571D02*
X93508285Y-82205571D01*
X93508285Y-82604714D02*
X93508285Y-81842714D01*
X93145428Y-81842714D01*
%TO.C,U5*%
D13*
X99289809Y-78352952D02*
X99701047Y-78352952D01*
X99749428Y-78377142D01*
X99773619Y-78401333D01*
X99797809Y-78449714D01*
X99797809Y-78546476D01*
X99773619Y-78594857D01*
X99749428Y-78619047D01*
X99701047Y-78643238D01*
X99289809Y-78643238D01*
X99289809Y-79127047D02*
X99289809Y-78885142D01*
X99531714Y-78860952D01*
X99507523Y-78885142D01*
X99483333Y-78933523D01*
X99483333Y-79054476D01*
X99507523Y-79102857D01*
X99531714Y-79127047D01*
X99580095Y-79151238D01*
X99701047Y-79151238D01*
X99749428Y-79127047D01*
X99773619Y-79102857D01*
X99797809Y-79054476D01*
X99797809Y-78933523D01*
X99773619Y-78885142D01*
X99749428Y-78860952D01*
%TO.C,U6*%
D15*
X112006380Y-86499095D02*
X111183904Y-86499095D01*
X111087142Y-86450714D01*
X111038761Y-86402333D01*
X110990380Y-86305571D01*
X110990380Y-86112047D01*
X111038761Y-86015285D01*
X111087142Y-85966904D01*
X111183904Y-85918523D01*
X112006380Y-85918523D01*
X112006380Y-84999285D02*
X112006380Y-85192809D01*
X111958000Y-85289571D01*
X111909619Y-85337952D01*
X111764476Y-85434714D01*
X111570952Y-85483095D01*
X111183904Y-85483095D01*
X111087142Y-85434714D01*
X111038761Y-85386333D01*
X110990380Y-85289571D01*
X110990380Y-85096047D01*
X111038761Y-84999285D01*
X111087142Y-84950904D01*
X111183904Y-84902523D01*
X111425809Y-84902523D01*
X111522571Y-84950904D01*
X111570952Y-84999285D01*
X111619333Y-85096047D01*
X111619333Y-85289571D01*
X111570952Y-85386333D01*
X111522571Y-85434714D01*
X111425809Y-85483095D01*
%TD*%
%LPC*%
D18*
%TO.C,U1*%
G36*
X108073326Y-95456637D02*
G01*
X108106331Y-95461533D01*
X108138697Y-95469640D01*
X108170112Y-95480881D01*
X108200275Y-95495147D01*
X108228894Y-95512300D01*
X108255694Y-95532176D01*
X108280416Y-95554584D01*
X108302824Y-95579306D01*
X108322700Y-95606106D01*
X108339853Y-95634725D01*
X108354119Y-95664888D01*
X108365360Y-95696303D01*
X108373467Y-95728669D01*
X108378363Y-95761674D01*
X108380000Y-95795000D01*
X108380000Y-98515000D01*
X108378363Y-98548326D01*
X108373467Y-98581331D01*
X108365360Y-98613697D01*
X108354119Y-98645112D01*
X108339853Y-98675275D01*
X108322700Y-98703894D01*
X108302824Y-98730694D01*
X108280416Y-98755416D01*
X108255694Y-98777824D01*
X108228894Y-98797700D01*
X108200275Y-98814853D01*
X108170112Y-98829119D01*
X108138697Y-98840360D01*
X108106331Y-98848467D01*
X108073326Y-98853363D01*
X108040000Y-98855000D01*
X105320000Y-98855000D01*
X105286674Y-98853363D01*
X105253669Y-98848467D01*
X105221303Y-98840360D01*
X105189888Y-98829119D01*
X105159725Y-98814853D01*
X105131106Y-98797700D01*
X105104306Y-98777824D01*
X105079584Y-98755416D01*
X105057176Y-98730694D01*
X105037300Y-98703894D01*
X105020147Y-98675275D01*
X105005881Y-98645112D01*
X104994640Y-98613697D01*
X104986533Y-98581331D01*
X104981637Y-98548326D01*
X104980000Y-98515000D01*
X104980000Y-95795000D01*
X104981637Y-95761674D01*
X104986533Y-95728669D01*
X104994640Y-95696303D01*
X105005881Y-95664888D01*
X105020147Y-95634725D01*
X105037300Y-95606106D01*
X105057176Y-95579306D01*
X105079584Y-95554584D01*
X105104306Y-95532176D01*
X105131106Y-95512300D01*
X105159725Y-95495147D01*
X105189888Y-95480881D01*
X105221303Y-95469640D01*
X105253669Y-95461533D01*
X105286674Y-95456637D01*
X105320000Y-95455000D01*
X108040000Y-95455000D01*
X108073326Y-95456637D01*
X108073326Y-95456637D01*
G37*
D19*
X106680000Y-97155000D03*
D18*
G36*
X104944704Y-94405722D02*
G01*
X104959265Y-94407882D01*
X104973544Y-94411459D01*
X104987404Y-94416418D01*
X105000711Y-94422712D01*
X105013337Y-94430280D01*
X105025160Y-94439048D01*
X105036067Y-94448934D01*
X105045953Y-94459841D01*
X105054721Y-94471664D01*
X105062289Y-94484290D01*
X105068583Y-94497597D01*
X105073542Y-94511457D01*
X105077119Y-94525736D01*
X105079279Y-94540297D01*
X105080001Y-94555000D01*
X105080001Y-94955000D01*
X105079279Y-94969703D01*
X105077119Y-94984264D01*
X105073542Y-94998543D01*
X105068583Y-95012403D01*
X105062289Y-95025710D01*
X105054721Y-95038336D01*
X105045953Y-95050159D01*
X105036067Y-95061066D01*
X105025160Y-95070952D01*
X105013337Y-95079720D01*
X105000711Y-95087288D01*
X104987404Y-95093582D01*
X104973544Y-95098541D01*
X104959265Y-95102118D01*
X104944704Y-95104278D01*
X104930001Y-95105000D01*
X104929999Y-95105000D01*
X104915296Y-95104278D01*
X104900735Y-95102118D01*
X104886456Y-95098541D01*
X104872596Y-95093582D01*
X104859289Y-95087288D01*
X104846663Y-95079720D01*
X104834840Y-95070952D01*
X104823933Y-95061066D01*
X104814047Y-95050159D01*
X104805279Y-95038336D01*
X104797711Y-95025710D01*
X104791417Y-95012403D01*
X104786458Y-94998543D01*
X104782881Y-94984264D01*
X104780721Y-94969703D01*
X104779999Y-94955000D01*
X104779999Y-94555000D01*
X104780721Y-94540297D01*
X104782881Y-94525736D01*
X104786458Y-94511457D01*
X104791417Y-94497597D01*
X104797711Y-94484290D01*
X104805279Y-94471664D01*
X104814047Y-94459841D01*
X104823933Y-94448934D01*
X104834840Y-94439048D01*
X104846663Y-94430280D01*
X104859289Y-94422712D01*
X104872596Y-94416418D01*
X104886456Y-94411459D01*
X104900735Y-94407882D01*
X104915296Y-94405722D01*
X104929999Y-94405000D01*
X104930001Y-94405000D01*
X104944704Y-94405722D01*
X104944704Y-94405722D01*
G37*
D20*
X104930000Y-94755000D03*
D18*
G36*
X105444704Y-94405722D02*
G01*
X105459265Y-94407882D01*
X105473544Y-94411459D01*
X105487404Y-94416418D01*
X105500711Y-94422712D01*
X105513337Y-94430280D01*
X105525160Y-94439048D01*
X105536067Y-94448934D01*
X105545953Y-94459841D01*
X105554721Y-94471664D01*
X105562289Y-94484290D01*
X105568583Y-94497597D01*
X105573542Y-94511457D01*
X105577119Y-94525736D01*
X105579279Y-94540297D01*
X105580001Y-94555000D01*
X105580001Y-94955000D01*
X105579279Y-94969703D01*
X105577119Y-94984264D01*
X105573542Y-94998543D01*
X105568583Y-95012403D01*
X105562289Y-95025710D01*
X105554721Y-95038336D01*
X105545953Y-95050159D01*
X105536067Y-95061066D01*
X105525160Y-95070952D01*
X105513337Y-95079720D01*
X105500711Y-95087288D01*
X105487404Y-95093582D01*
X105473544Y-95098541D01*
X105459265Y-95102118D01*
X105444704Y-95104278D01*
X105430001Y-95105000D01*
X105429999Y-95105000D01*
X105415296Y-95104278D01*
X105400735Y-95102118D01*
X105386456Y-95098541D01*
X105372596Y-95093582D01*
X105359289Y-95087288D01*
X105346663Y-95079720D01*
X105334840Y-95070952D01*
X105323933Y-95061066D01*
X105314047Y-95050159D01*
X105305279Y-95038336D01*
X105297711Y-95025710D01*
X105291417Y-95012403D01*
X105286458Y-94998543D01*
X105282881Y-94984264D01*
X105280721Y-94969703D01*
X105279999Y-94955000D01*
X105279999Y-94555000D01*
X105280721Y-94540297D01*
X105282881Y-94525736D01*
X105286458Y-94511457D01*
X105291417Y-94497597D01*
X105297711Y-94484290D01*
X105305279Y-94471664D01*
X105314047Y-94459841D01*
X105323933Y-94448934D01*
X105334840Y-94439048D01*
X105346663Y-94430280D01*
X105359289Y-94422712D01*
X105372596Y-94416418D01*
X105386456Y-94411459D01*
X105400735Y-94407882D01*
X105415296Y-94405722D01*
X105429999Y-94405000D01*
X105430001Y-94405000D01*
X105444704Y-94405722D01*
X105444704Y-94405722D01*
G37*
D20*
X105430000Y-94755000D03*
D18*
G36*
X105944704Y-94405722D02*
G01*
X105959265Y-94407882D01*
X105973544Y-94411459D01*
X105987404Y-94416418D01*
X106000711Y-94422712D01*
X106013337Y-94430280D01*
X106025160Y-94439048D01*
X106036067Y-94448934D01*
X106045953Y-94459841D01*
X106054721Y-94471664D01*
X106062289Y-94484290D01*
X106068583Y-94497597D01*
X106073542Y-94511457D01*
X106077119Y-94525736D01*
X106079279Y-94540297D01*
X106080001Y-94555000D01*
X106080001Y-94955000D01*
X106079279Y-94969703D01*
X106077119Y-94984264D01*
X106073542Y-94998543D01*
X106068583Y-95012403D01*
X106062289Y-95025710D01*
X106054721Y-95038336D01*
X106045953Y-95050159D01*
X106036067Y-95061066D01*
X106025160Y-95070952D01*
X106013337Y-95079720D01*
X106000711Y-95087288D01*
X105987404Y-95093582D01*
X105973544Y-95098541D01*
X105959265Y-95102118D01*
X105944704Y-95104278D01*
X105930001Y-95105000D01*
X105929999Y-95105000D01*
X105915296Y-95104278D01*
X105900735Y-95102118D01*
X105886456Y-95098541D01*
X105872596Y-95093582D01*
X105859289Y-95087288D01*
X105846663Y-95079720D01*
X105834840Y-95070952D01*
X105823933Y-95061066D01*
X105814047Y-95050159D01*
X105805279Y-95038336D01*
X105797711Y-95025710D01*
X105791417Y-95012403D01*
X105786458Y-94998543D01*
X105782881Y-94984264D01*
X105780721Y-94969703D01*
X105779999Y-94955000D01*
X105779999Y-94555000D01*
X105780721Y-94540297D01*
X105782881Y-94525736D01*
X105786458Y-94511457D01*
X105791417Y-94497597D01*
X105797711Y-94484290D01*
X105805279Y-94471664D01*
X105814047Y-94459841D01*
X105823933Y-94448934D01*
X105834840Y-94439048D01*
X105846663Y-94430280D01*
X105859289Y-94422712D01*
X105872596Y-94416418D01*
X105886456Y-94411459D01*
X105900735Y-94407882D01*
X105915296Y-94405722D01*
X105929999Y-94405000D01*
X105930001Y-94405000D01*
X105944704Y-94405722D01*
X105944704Y-94405722D01*
G37*
D20*
X105930000Y-94755000D03*
D18*
G36*
X106444704Y-94405722D02*
G01*
X106459265Y-94407882D01*
X106473544Y-94411459D01*
X106487404Y-94416418D01*
X106500711Y-94422712D01*
X106513337Y-94430280D01*
X106525160Y-94439048D01*
X106536067Y-94448934D01*
X106545953Y-94459841D01*
X106554721Y-94471664D01*
X106562289Y-94484290D01*
X106568583Y-94497597D01*
X106573542Y-94511457D01*
X106577119Y-94525736D01*
X106579279Y-94540297D01*
X106580001Y-94555000D01*
X106580001Y-94955000D01*
X106579279Y-94969703D01*
X106577119Y-94984264D01*
X106573542Y-94998543D01*
X106568583Y-95012403D01*
X106562289Y-95025710D01*
X106554721Y-95038336D01*
X106545953Y-95050159D01*
X106536067Y-95061066D01*
X106525160Y-95070952D01*
X106513337Y-95079720D01*
X106500711Y-95087288D01*
X106487404Y-95093582D01*
X106473544Y-95098541D01*
X106459265Y-95102118D01*
X106444704Y-95104278D01*
X106430001Y-95105000D01*
X106429999Y-95105000D01*
X106415296Y-95104278D01*
X106400735Y-95102118D01*
X106386456Y-95098541D01*
X106372596Y-95093582D01*
X106359289Y-95087288D01*
X106346663Y-95079720D01*
X106334840Y-95070952D01*
X106323933Y-95061066D01*
X106314047Y-95050159D01*
X106305279Y-95038336D01*
X106297711Y-95025710D01*
X106291417Y-95012403D01*
X106286458Y-94998543D01*
X106282881Y-94984264D01*
X106280721Y-94969703D01*
X106279999Y-94955000D01*
X106279999Y-94555000D01*
X106280721Y-94540297D01*
X106282881Y-94525736D01*
X106286458Y-94511457D01*
X106291417Y-94497597D01*
X106297711Y-94484290D01*
X106305279Y-94471664D01*
X106314047Y-94459841D01*
X106323933Y-94448934D01*
X106334840Y-94439048D01*
X106346663Y-94430280D01*
X106359289Y-94422712D01*
X106372596Y-94416418D01*
X106386456Y-94411459D01*
X106400735Y-94407882D01*
X106415296Y-94405722D01*
X106429999Y-94405000D01*
X106430001Y-94405000D01*
X106444704Y-94405722D01*
X106444704Y-94405722D01*
G37*
D20*
X106430000Y-94755000D03*
D18*
G36*
X106944704Y-94405722D02*
G01*
X106959265Y-94407882D01*
X106973544Y-94411459D01*
X106987404Y-94416418D01*
X107000711Y-94422712D01*
X107013337Y-94430280D01*
X107025160Y-94439048D01*
X107036067Y-94448934D01*
X107045953Y-94459841D01*
X107054721Y-94471664D01*
X107062289Y-94484290D01*
X107068583Y-94497597D01*
X107073542Y-94511457D01*
X107077119Y-94525736D01*
X107079279Y-94540297D01*
X107080001Y-94555000D01*
X107080001Y-94955000D01*
X107079279Y-94969703D01*
X107077119Y-94984264D01*
X107073542Y-94998543D01*
X107068583Y-95012403D01*
X107062289Y-95025710D01*
X107054721Y-95038336D01*
X107045953Y-95050159D01*
X107036067Y-95061066D01*
X107025160Y-95070952D01*
X107013337Y-95079720D01*
X107000711Y-95087288D01*
X106987404Y-95093582D01*
X106973544Y-95098541D01*
X106959265Y-95102118D01*
X106944704Y-95104278D01*
X106930001Y-95105000D01*
X106929999Y-95105000D01*
X106915296Y-95104278D01*
X106900735Y-95102118D01*
X106886456Y-95098541D01*
X106872596Y-95093582D01*
X106859289Y-95087288D01*
X106846663Y-95079720D01*
X106834840Y-95070952D01*
X106823933Y-95061066D01*
X106814047Y-95050159D01*
X106805279Y-95038336D01*
X106797711Y-95025710D01*
X106791417Y-95012403D01*
X106786458Y-94998543D01*
X106782881Y-94984264D01*
X106780721Y-94969703D01*
X106779999Y-94955000D01*
X106779999Y-94555000D01*
X106780721Y-94540297D01*
X106782881Y-94525736D01*
X106786458Y-94511457D01*
X106791417Y-94497597D01*
X106797711Y-94484290D01*
X106805279Y-94471664D01*
X106814047Y-94459841D01*
X106823933Y-94448934D01*
X106834840Y-94439048D01*
X106846663Y-94430280D01*
X106859289Y-94422712D01*
X106872596Y-94416418D01*
X106886456Y-94411459D01*
X106900735Y-94407882D01*
X106915296Y-94405722D01*
X106929999Y-94405000D01*
X106930001Y-94405000D01*
X106944704Y-94405722D01*
X106944704Y-94405722D01*
G37*
D20*
X106930000Y-94755000D03*
D18*
G36*
X107444704Y-94405722D02*
G01*
X107459265Y-94407882D01*
X107473544Y-94411459D01*
X107487404Y-94416418D01*
X107500711Y-94422712D01*
X107513337Y-94430280D01*
X107525160Y-94439048D01*
X107536067Y-94448934D01*
X107545953Y-94459841D01*
X107554721Y-94471664D01*
X107562289Y-94484290D01*
X107568583Y-94497597D01*
X107573542Y-94511457D01*
X107577119Y-94525736D01*
X107579279Y-94540297D01*
X107580001Y-94555000D01*
X107580001Y-94955000D01*
X107579279Y-94969703D01*
X107577119Y-94984264D01*
X107573542Y-94998543D01*
X107568583Y-95012403D01*
X107562289Y-95025710D01*
X107554721Y-95038336D01*
X107545953Y-95050159D01*
X107536067Y-95061066D01*
X107525160Y-95070952D01*
X107513337Y-95079720D01*
X107500711Y-95087288D01*
X107487404Y-95093582D01*
X107473544Y-95098541D01*
X107459265Y-95102118D01*
X107444704Y-95104278D01*
X107430001Y-95105000D01*
X107429999Y-95105000D01*
X107415296Y-95104278D01*
X107400735Y-95102118D01*
X107386456Y-95098541D01*
X107372596Y-95093582D01*
X107359289Y-95087288D01*
X107346663Y-95079720D01*
X107334840Y-95070952D01*
X107323933Y-95061066D01*
X107314047Y-95050159D01*
X107305279Y-95038336D01*
X107297711Y-95025710D01*
X107291417Y-95012403D01*
X107286458Y-94998543D01*
X107282881Y-94984264D01*
X107280721Y-94969703D01*
X107279999Y-94955000D01*
X107279999Y-94555000D01*
X107280721Y-94540297D01*
X107282881Y-94525736D01*
X107286458Y-94511457D01*
X107291417Y-94497597D01*
X107297711Y-94484290D01*
X107305279Y-94471664D01*
X107314047Y-94459841D01*
X107323933Y-94448934D01*
X107334840Y-94439048D01*
X107346663Y-94430280D01*
X107359289Y-94422712D01*
X107372596Y-94416418D01*
X107386456Y-94411459D01*
X107400735Y-94407882D01*
X107415296Y-94405722D01*
X107429999Y-94405000D01*
X107430001Y-94405000D01*
X107444704Y-94405722D01*
X107444704Y-94405722D01*
G37*
D20*
X107430000Y-94755000D03*
D18*
G36*
X107944704Y-94405722D02*
G01*
X107959265Y-94407882D01*
X107973544Y-94411459D01*
X107987404Y-94416418D01*
X108000711Y-94422712D01*
X108013337Y-94430280D01*
X108025160Y-94439048D01*
X108036067Y-94448934D01*
X108045953Y-94459841D01*
X108054721Y-94471664D01*
X108062289Y-94484290D01*
X108068583Y-94497597D01*
X108073542Y-94511457D01*
X108077119Y-94525736D01*
X108079279Y-94540297D01*
X108080001Y-94555000D01*
X108080001Y-94955000D01*
X108079279Y-94969703D01*
X108077119Y-94984264D01*
X108073542Y-94998543D01*
X108068583Y-95012403D01*
X108062289Y-95025710D01*
X108054721Y-95038336D01*
X108045953Y-95050159D01*
X108036067Y-95061066D01*
X108025160Y-95070952D01*
X108013337Y-95079720D01*
X108000711Y-95087288D01*
X107987404Y-95093582D01*
X107973544Y-95098541D01*
X107959265Y-95102118D01*
X107944704Y-95104278D01*
X107930001Y-95105000D01*
X107929999Y-95105000D01*
X107915296Y-95104278D01*
X107900735Y-95102118D01*
X107886456Y-95098541D01*
X107872596Y-95093582D01*
X107859289Y-95087288D01*
X107846663Y-95079720D01*
X107834840Y-95070952D01*
X107823933Y-95061066D01*
X107814047Y-95050159D01*
X107805279Y-95038336D01*
X107797711Y-95025710D01*
X107791417Y-95012403D01*
X107786458Y-94998543D01*
X107782881Y-94984264D01*
X107780721Y-94969703D01*
X107779999Y-94955000D01*
X107779999Y-94555000D01*
X107780721Y-94540297D01*
X107782881Y-94525736D01*
X107786458Y-94511457D01*
X107791417Y-94497597D01*
X107797711Y-94484290D01*
X107805279Y-94471664D01*
X107814047Y-94459841D01*
X107823933Y-94448934D01*
X107834840Y-94439048D01*
X107846663Y-94430280D01*
X107859289Y-94422712D01*
X107872596Y-94416418D01*
X107886456Y-94411459D01*
X107900735Y-94407882D01*
X107915296Y-94405722D01*
X107929999Y-94405000D01*
X107930001Y-94405000D01*
X107944704Y-94405722D01*
X107944704Y-94405722D01*
G37*
D20*
X107930000Y-94755000D03*
D18*
G36*
X108444704Y-94405722D02*
G01*
X108459265Y-94407882D01*
X108473544Y-94411459D01*
X108487404Y-94416418D01*
X108500711Y-94422712D01*
X108513337Y-94430280D01*
X108525160Y-94439048D01*
X108536067Y-94448934D01*
X108545953Y-94459841D01*
X108554721Y-94471664D01*
X108562289Y-94484290D01*
X108568583Y-94497597D01*
X108573542Y-94511457D01*
X108577119Y-94525736D01*
X108579279Y-94540297D01*
X108580001Y-94555000D01*
X108580001Y-94955000D01*
X108579279Y-94969703D01*
X108577119Y-94984264D01*
X108573542Y-94998543D01*
X108568583Y-95012403D01*
X108562289Y-95025710D01*
X108554721Y-95038336D01*
X108545953Y-95050159D01*
X108536067Y-95061066D01*
X108525160Y-95070952D01*
X108513337Y-95079720D01*
X108500711Y-95087288D01*
X108487404Y-95093582D01*
X108473544Y-95098541D01*
X108459265Y-95102118D01*
X108444704Y-95104278D01*
X108430001Y-95105000D01*
X108429999Y-95105000D01*
X108415296Y-95104278D01*
X108400735Y-95102118D01*
X108386456Y-95098541D01*
X108372596Y-95093582D01*
X108359289Y-95087288D01*
X108346663Y-95079720D01*
X108334840Y-95070952D01*
X108323933Y-95061066D01*
X108314047Y-95050159D01*
X108305279Y-95038336D01*
X108297711Y-95025710D01*
X108291417Y-95012403D01*
X108286458Y-94998543D01*
X108282881Y-94984264D01*
X108280721Y-94969703D01*
X108279999Y-94955000D01*
X108279999Y-94555000D01*
X108280721Y-94540297D01*
X108282881Y-94525736D01*
X108286458Y-94511457D01*
X108291417Y-94497597D01*
X108297711Y-94484290D01*
X108305279Y-94471664D01*
X108314047Y-94459841D01*
X108323933Y-94448934D01*
X108334840Y-94439048D01*
X108346663Y-94430280D01*
X108359289Y-94422712D01*
X108372596Y-94416418D01*
X108386456Y-94411459D01*
X108400735Y-94407882D01*
X108415296Y-94405722D01*
X108429999Y-94405000D01*
X108430001Y-94405000D01*
X108444704Y-94405722D01*
X108444704Y-94405722D01*
G37*
D20*
X108430000Y-94755000D03*
D18*
G36*
X108444704Y-99205722D02*
G01*
X108459265Y-99207882D01*
X108473544Y-99211459D01*
X108487404Y-99216418D01*
X108500711Y-99222712D01*
X108513337Y-99230280D01*
X108525160Y-99239048D01*
X108536067Y-99248934D01*
X108545953Y-99259841D01*
X108554721Y-99271664D01*
X108562289Y-99284290D01*
X108568583Y-99297597D01*
X108573542Y-99311457D01*
X108577119Y-99325736D01*
X108579279Y-99340297D01*
X108580001Y-99355000D01*
X108580001Y-99755000D01*
X108579279Y-99769703D01*
X108577119Y-99784264D01*
X108573542Y-99798543D01*
X108568583Y-99812403D01*
X108562289Y-99825710D01*
X108554721Y-99838336D01*
X108545953Y-99850159D01*
X108536067Y-99861066D01*
X108525160Y-99870952D01*
X108513337Y-99879720D01*
X108500711Y-99887288D01*
X108487404Y-99893582D01*
X108473544Y-99898541D01*
X108459265Y-99902118D01*
X108444704Y-99904278D01*
X108430001Y-99905000D01*
X108429999Y-99905000D01*
X108415296Y-99904278D01*
X108400735Y-99902118D01*
X108386456Y-99898541D01*
X108372596Y-99893582D01*
X108359289Y-99887288D01*
X108346663Y-99879720D01*
X108334840Y-99870952D01*
X108323933Y-99861066D01*
X108314047Y-99850159D01*
X108305279Y-99838336D01*
X108297711Y-99825710D01*
X108291417Y-99812403D01*
X108286458Y-99798543D01*
X108282881Y-99784264D01*
X108280721Y-99769703D01*
X108279999Y-99755000D01*
X108279999Y-99355000D01*
X108280721Y-99340297D01*
X108282881Y-99325736D01*
X108286458Y-99311457D01*
X108291417Y-99297597D01*
X108297711Y-99284290D01*
X108305279Y-99271664D01*
X108314047Y-99259841D01*
X108323933Y-99248934D01*
X108334840Y-99239048D01*
X108346663Y-99230280D01*
X108359289Y-99222712D01*
X108372596Y-99216418D01*
X108386456Y-99211459D01*
X108400735Y-99207882D01*
X108415296Y-99205722D01*
X108429999Y-99205000D01*
X108430001Y-99205000D01*
X108444704Y-99205722D01*
X108444704Y-99205722D01*
G37*
D20*
X108430000Y-99555000D03*
D18*
G36*
X107944704Y-99205722D02*
G01*
X107959265Y-99207882D01*
X107973544Y-99211459D01*
X107987404Y-99216418D01*
X108000711Y-99222712D01*
X108013337Y-99230280D01*
X108025160Y-99239048D01*
X108036067Y-99248934D01*
X108045953Y-99259841D01*
X108054721Y-99271664D01*
X108062289Y-99284290D01*
X108068583Y-99297597D01*
X108073542Y-99311457D01*
X108077119Y-99325736D01*
X108079279Y-99340297D01*
X108080001Y-99355000D01*
X108080001Y-99755000D01*
X108079279Y-99769703D01*
X108077119Y-99784264D01*
X108073542Y-99798543D01*
X108068583Y-99812403D01*
X108062289Y-99825710D01*
X108054721Y-99838336D01*
X108045953Y-99850159D01*
X108036067Y-99861066D01*
X108025160Y-99870952D01*
X108013337Y-99879720D01*
X108000711Y-99887288D01*
X107987404Y-99893582D01*
X107973544Y-99898541D01*
X107959265Y-99902118D01*
X107944704Y-99904278D01*
X107930001Y-99905000D01*
X107929999Y-99905000D01*
X107915296Y-99904278D01*
X107900735Y-99902118D01*
X107886456Y-99898541D01*
X107872596Y-99893582D01*
X107859289Y-99887288D01*
X107846663Y-99879720D01*
X107834840Y-99870952D01*
X107823933Y-99861066D01*
X107814047Y-99850159D01*
X107805279Y-99838336D01*
X107797711Y-99825710D01*
X107791417Y-99812403D01*
X107786458Y-99798543D01*
X107782881Y-99784264D01*
X107780721Y-99769703D01*
X107779999Y-99755000D01*
X107779999Y-99355000D01*
X107780721Y-99340297D01*
X107782881Y-99325736D01*
X107786458Y-99311457D01*
X107791417Y-99297597D01*
X107797711Y-99284290D01*
X107805279Y-99271664D01*
X107814047Y-99259841D01*
X107823933Y-99248934D01*
X107834840Y-99239048D01*
X107846663Y-99230280D01*
X107859289Y-99222712D01*
X107872596Y-99216418D01*
X107886456Y-99211459D01*
X107900735Y-99207882D01*
X107915296Y-99205722D01*
X107929999Y-99205000D01*
X107930001Y-99205000D01*
X107944704Y-99205722D01*
X107944704Y-99205722D01*
G37*
D20*
X107930000Y-99555000D03*
D18*
G36*
X107444704Y-99205722D02*
G01*
X107459265Y-99207882D01*
X107473544Y-99211459D01*
X107487404Y-99216418D01*
X107500711Y-99222712D01*
X107513337Y-99230280D01*
X107525160Y-99239048D01*
X107536067Y-99248934D01*
X107545953Y-99259841D01*
X107554721Y-99271664D01*
X107562289Y-99284290D01*
X107568583Y-99297597D01*
X107573542Y-99311457D01*
X107577119Y-99325736D01*
X107579279Y-99340297D01*
X107580001Y-99355000D01*
X107580001Y-99755000D01*
X107579279Y-99769703D01*
X107577119Y-99784264D01*
X107573542Y-99798543D01*
X107568583Y-99812403D01*
X107562289Y-99825710D01*
X107554721Y-99838336D01*
X107545953Y-99850159D01*
X107536067Y-99861066D01*
X107525160Y-99870952D01*
X107513337Y-99879720D01*
X107500711Y-99887288D01*
X107487404Y-99893582D01*
X107473544Y-99898541D01*
X107459265Y-99902118D01*
X107444704Y-99904278D01*
X107430001Y-99905000D01*
X107429999Y-99905000D01*
X107415296Y-99904278D01*
X107400735Y-99902118D01*
X107386456Y-99898541D01*
X107372596Y-99893582D01*
X107359289Y-99887288D01*
X107346663Y-99879720D01*
X107334840Y-99870952D01*
X107323933Y-99861066D01*
X107314047Y-99850159D01*
X107305279Y-99838336D01*
X107297711Y-99825710D01*
X107291417Y-99812403D01*
X107286458Y-99798543D01*
X107282881Y-99784264D01*
X107280721Y-99769703D01*
X107279999Y-99755000D01*
X107279999Y-99355000D01*
X107280721Y-99340297D01*
X107282881Y-99325736D01*
X107286458Y-99311457D01*
X107291417Y-99297597D01*
X107297711Y-99284290D01*
X107305279Y-99271664D01*
X107314047Y-99259841D01*
X107323933Y-99248934D01*
X107334840Y-99239048D01*
X107346663Y-99230280D01*
X107359289Y-99222712D01*
X107372596Y-99216418D01*
X107386456Y-99211459D01*
X107400735Y-99207882D01*
X107415296Y-99205722D01*
X107429999Y-99205000D01*
X107430001Y-99205000D01*
X107444704Y-99205722D01*
X107444704Y-99205722D01*
G37*
D20*
X107430000Y-99555000D03*
D18*
G36*
X106944704Y-99205722D02*
G01*
X106959265Y-99207882D01*
X106973544Y-99211459D01*
X106987404Y-99216418D01*
X107000711Y-99222712D01*
X107013337Y-99230280D01*
X107025160Y-99239048D01*
X107036067Y-99248934D01*
X107045953Y-99259841D01*
X107054721Y-99271664D01*
X107062289Y-99284290D01*
X107068583Y-99297597D01*
X107073542Y-99311457D01*
X107077119Y-99325736D01*
X107079279Y-99340297D01*
X107080001Y-99355000D01*
X107080001Y-99755000D01*
X107079279Y-99769703D01*
X107077119Y-99784264D01*
X107073542Y-99798543D01*
X107068583Y-99812403D01*
X107062289Y-99825710D01*
X107054721Y-99838336D01*
X107045953Y-99850159D01*
X107036067Y-99861066D01*
X107025160Y-99870952D01*
X107013337Y-99879720D01*
X107000711Y-99887288D01*
X106987404Y-99893582D01*
X106973544Y-99898541D01*
X106959265Y-99902118D01*
X106944704Y-99904278D01*
X106930001Y-99905000D01*
X106929999Y-99905000D01*
X106915296Y-99904278D01*
X106900735Y-99902118D01*
X106886456Y-99898541D01*
X106872596Y-99893582D01*
X106859289Y-99887288D01*
X106846663Y-99879720D01*
X106834840Y-99870952D01*
X106823933Y-99861066D01*
X106814047Y-99850159D01*
X106805279Y-99838336D01*
X106797711Y-99825710D01*
X106791417Y-99812403D01*
X106786458Y-99798543D01*
X106782881Y-99784264D01*
X106780721Y-99769703D01*
X106779999Y-99755000D01*
X106779999Y-99355000D01*
X106780721Y-99340297D01*
X106782881Y-99325736D01*
X106786458Y-99311457D01*
X106791417Y-99297597D01*
X106797711Y-99284290D01*
X106805279Y-99271664D01*
X106814047Y-99259841D01*
X106823933Y-99248934D01*
X106834840Y-99239048D01*
X106846663Y-99230280D01*
X106859289Y-99222712D01*
X106872596Y-99216418D01*
X106886456Y-99211459D01*
X106900735Y-99207882D01*
X106915296Y-99205722D01*
X106929999Y-99205000D01*
X106930001Y-99205000D01*
X106944704Y-99205722D01*
X106944704Y-99205722D01*
G37*
D20*
X106930000Y-99555000D03*
D18*
G36*
X106444704Y-99205722D02*
G01*
X106459265Y-99207882D01*
X106473544Y-99211459D01*
X106487404Y-99216418D01*
X106500711Y-99222712D01*
X106513337Y-99230280D01*
X106525160Y-99239048D01*
X106536067Y-99248934D01*
X106545953Y-99259841D01*
X106554721Y-99271664D01*
X106562289Y-99284290D01*
X106568583Y-99297597D01*
X106573542Y-99311457D01*
X106577119Y-99325736D01*
X106579279Y-99340297D01*
X106580001Y-99355000D01*
X106580001Y-99755000D01*
X106579279Y-99769703D01*
X106577119Y-99784264D01*
X106573542Y-99798543D01*
X106568583Y-99812403D01*
X106562289Y-99825710D01*
X106554721Y-99838336D01*
X106545953Y-99850159D01*
X106536067Y-99861066D01*
X106525160Y-99870952D01*
X106513337Y-99879720D01*
X106500711Y-99887288D01*
X106487404Y-99893582D01*
X106473544Y-99898541D01*
X106459265Y-99902118D01*
X106444704Y-99904278D01*
X106430001Y-99905000D01*
X106429999Y-99905000D01*
X106415296Y-99904278D01*
X106400735Y-99902118D01*
X106386456Y-99898541D01*
X106372596Y-99893582D01*
X106359289Y-99887288D01*
X106346663Y-99879720D01*
X106334840Y-99870952D01*
X106323933Y-99861066D01*
X106314047Y-99850159D01*
X106305279Y-99838336D01*
X106297711Y-99825710D01*
X106291417Y-99812403D01*
X106286458Y-99798543D01*
X106282881Y-99784264D01*
X106280721Y-99769703D01*
X106279999Y-99755000D01*
X106279999Y-99355000D01*
X106280721Y-99340297D01*
X106282881Y-99325736D01*
X106286458Y-99311457D01*
X106291417Y-99297597D01*
X106297711Y-99284290D01*
X106305279Y-99271664D01*
X106314047Y-99259841D01*
X106323933Y-99248934D01*
X106334840Y-99239048D01*
X106346663Y-99230280D01*
X106359289Y-99222712D01*
X106372596Y-99216418D01*
X106386456Y-99211459D01*
X106400735Y-99207882D01*
X106415296Y-99205722D01*
X106429999Y-99205000D01*
X106430001Y-99205000D01*
X106444704Y-99205722D01*
X106444704Y-99205722D01*
G37*
D20*
X106430000Y-99555000D03*
D18*
G36*
X105944704Y-99205722D02*
G01*
X105959265Y-99207882D01*
X105973544Y-99211459D01*
X105987404Y-99216418D01*
X106000711Y-99222712D01*
X106013337Y-99230280D01*
X106025160Y-99239048D01*
X106036067Y-99248934D01*
X106045953Y-99259841D01*
X106054721Y-99271664D01*
X106062289Y-99284290D01*
X106068583Y-99297597D01*
X106073542Y-99311457D01*
X106077119Y-99325736D01*
X106079279Y-99340297D01*
X106080001Y-99355000D01*
X106080001Y-99755000D01*
X106079279Y-99769703D01*
X106077119Y-99784264D01*
X106073542Y-99798543D01*
X106068583Y-99812403D01*
X106062289Y-99825710D01*
X106054721Y-99838336D01*
X106045953Y-99850159D01*
X106036067Y-99861066D01*
X106025160Y-99870952D01*
X106013337Y-99879720D01*
X106000711Y-99887288D01*
X105987404Y-99893582D01*
X105973544Y-99898541D01*
X105959265Y-99902118D01*
X105944704Y-99904278D01*
X105930001Y-99905000D01*
X105929999Y-99905000D01*
X105915296Y-99904278D01*
X105900735Y-99902118D01*
X105886456Y-99898541D01*
X105872596Y-99893582D01*
X105859289Y-99887288D01*
X105846663Y-99879720D01*
X105834840Y-99870952D01*
X105823933Y-99861066D01*
X105814047Y-99850159D01*
X105805279Y-99838336D01*
X105797711Y-99825710D01*
X105791417Y-99812403D01*
X105786458Y-99798543D01*
X105782881Y-99784264D01*
X105780721Y-99769703D01*
X105779999Y-99755000D01*
X105779999Y-99355000D01*
X105780721Y-99340297D01*
X105782881Y-99325736D01*
X105786458Y-99311457D01*
X105791417Y-99297597D01*
X105797711Y-99284290D01*
X105805279Y-99271664D01*
X105814047Y-99259841D01*
X105823933Y-99248934D01*
X105834840Y-99239048D01*
X105846663Y-99230280D01*
X105859289Y-99222712D01*
X105872596Y-99216418D01*
X105886456Y-99211459D01*
X105900735Y-99207882D01*
X105915296Y-99205722D01*
X105929999Y-99205000D01*
X105930001Y-99205000D01*
X105944704Y-99205722D01*
X105944704Y-99205722D01*
G37*
D20*
X105930000Y-99555000D03*
D18*
G36*
X105444704Y-99205722D02*
G01*
X105459265Y-99207882D01*
X105473544Y-99211459D01*
X105487404Y-99216418D01*
X105500711Y-99222712D01*
X105513337Y-99230280D01*
X105525160Y-99239048D01*
X105536067Y-99248934D01*
X105545953Y-99259841D01*
X105554721Y-99271664D01*
X105562289Y-99284290D01*
X105568583Y-99297597D01*
X105573542Y-99311457D01*
X105577119Y-99325736D01*
X105579279Y-99340297D01*
X105580001Y-99355000D01*
X105580001Y-99755000D01*
X105579279Y-99769703D01*
X105577119Y-99784264D01*
X105573542Y-99798543D01*
X105568583Y-99812403D01*
X105562289Y-99825710D01*
X105554721Y-99838336D01*
X105545953Y-99850159D01*
X105536067Y-99861066D01*
X105525160Y-99870952D01*
X105513337Y-99879720D01*
X105500711Y-99887288D01*
X105487404Y-99893582D01*
X105473544Y-99898541D01*
X105459265Y-99902118D01*
X105444704Y-99904278D01*
X105430001Y-99905000D01*
X105429999Y-99905000D01*
X105415296Y-99904278D01*
X105400735Y-99902118D01*
X105386456Y-99898541D01*
X105372596Y-99893582D01*
X105359289Y-99887288D01*
X105346663Y-99879720D01*
X105334840Y-99870952D01*
X105323933Y-99861066D01*
X105314047Y-99850159D01*
X105305279Y-99838336D01*
X105297711Y-99825710D01*
X105291417Y-99812403D01*
X105286458Y-99798543D01*
X105282881Y-99784264D01*
X105280721Y-99769703D01*
X105279999Y-99755000D01*
X105279999Y-99355000D01*
X105280721Y-99340297D01*
X105282881Y-99325736D01*
X105286458Y-99311457D01*
X105291417Y-99297597D01*
X105297711Y-99284290D01*
X105305279Y-99271664D01*
X105314047Y-99259841D01*
X105323933Y-99248934D01*
X105334840Y-99239048D01*
X105346663Y-99230280D01*
X105359289Y-99222712D01*
X105372596Y-99216418D01*
X105386456Y-99211459D01*
X105400735Y-99207882D01*
X105415296Y-99205722D01*
X105429999Y-99205000D01*
X105430001Y-99205000D01*
X105444704Y-99205722D01*
X105444704Y-99205722D01*
G37*
D20*
X105430000Y-99555000D03*
D18*
G36*
X104944704Y-99205722D02*
G01*
X104959265Y-99207882D01*
X104973544Y-99211459D01*
X104987404Y-99216418D01*
X105000711Y-99222712D01*
X105013337Y-99230280D01*
X105025160Y-99239048D01*
X105036067Y-99248934D01*
X105045953Y-99259841D01*
X105054721Y-99271664D01*
X105062289Y-99284290D01*
X105068583Y-99297597D01*
X105073542Y-99311457D01*
X105077119Y-99325736D01*
X105079279Y-99340297D01*
X105080001Y-99355000D01*
X105080001Y-99755000D01*
X105079279Y-99769703D01*
X105077119Y-99784264D01*
X105073542Y-99798543D01*
X105068583Y-99812403D01*
X105062289Y-99825710D01*
X105054721Y-99838336D01*
X105045953Y-99850159D01*
X105036067Y-99861066D01*
X105025160Y-99870952D01*
X105013337Y-99879720D01*
X105000711Y-99887288D01*
X104987404Y-99893582D01*
X104973544Y-99898541D01*
X104959265Y-99902118D01*
X104944704Y-99904278D01*
X104930001Y-99905000D01*
X104929999Y-99905000D01*
X104915296Y-99904278D01*
X104900735Y-99902118D01*
X104886456Y-99898541D01*
X104872596Y-99893582D01*
X104859289Y-99887288D01*
X104846663Y-99879720D01*
X104834840Y-99870952D01*
X104823933Y-99861066D01*
X104814047Y-99850159D01*
X104805279Y-99838336D01*
X104797711Y-99825710D01*
X104791417Y-99812403D01*
X104786458Y-99798543D01*
X104782881Y-99784264D01*
X104780721Y-99769703D01*
X104779999Y-99755000D01*
X104779999Y-99355000D01*
X104780721Y-99340297D01*
X104782881Y-99325736D01*
X104786458Y-99311457D01*
X104791417Y-99297597D01*
X104797711Y-99284290D01*
X104805279Y-99271664D01*
X104814047Y-99259841D01*
X104823933Y-99248934D01*
X104834840Y-99239048D01*
X104846663Y-99230280D01*
X104859289Y-99222712D01*
X104872596Y-99216418D01*
X104886456Y-99211459D01*
X104900735Y-99207882D01*
X104915296Y-99205722D01*
X104929999Y-99205000D01*
X104930001Y-99205000D01*
X104944704Y-99205722D01*
X104944704Y-99205722D01*
G37*
D20*
X104930000Y-99555000D03*
D18*
G36*
X109294703Y-95255721D02*
G01*
X109309264Y-95257881D01*
X109323543Y-95261458D01*
X109337403Y-95266417D01*
X109350710Y-95272711D01*
X109363336Y-95280279D01*
X109375159Y-95289047D01*
X109386066Y-95298933D01*
X109395952Y-95309840D01*
X109404720Y-95321663D01*
X109412288Y-95334289D01*
X109418582Y-95347596D01*
X109423541Y-95361456D01*
X109427118Y-95375735D01*
X109429278Y-95390296D01*
X109430000Y-95404999D01*
X109430000Y-95405001D01*
X109429278Y-95419704D01*
X109427118Y-95434265D01*
X109423541Y-95448544D01*
X109418582Y-95462404D01*
X109412288Y-95475711D01*
X109404720Y-95488337D01*
X109395952Y-95500160D01*
X109386066Y-95511067D01*
X109375159Y-95520953D01*
X109363336Y-95529721D01*
X109350710Y-95537289D01*
X109337403Y-95543583D01*
X109323543Y-95548542D01*
X109309264Y-95552119D01*
X109294703Y-95554279D01*
X109280000Y-95555001D01*
X108880000Y-95555001D01*
X108865297Y-95554279D01*
X108850736Y-95552119D01*
X108836457Y-95548542D01*
X108822597Y-95543583D01*
X108809290Y-95537289D01*
X108796664Y-95529721D01*
X108784841Y-95520953D01*
X108773934Y-95511067D01*
X108764048Y-95500160D01*
X108755280Y-95488337D01*
X108747712Y-95475711D01*
X108741418Y-95462404D01*
X108736459Y-95448544D01*
X108732882Y-95434265D01*
X108730722Y-95419704D01*
X108730000Y-95405001D01*
X108730000Y-95404999D01*
X108730722Y-95390296D01*
X108732882Y-95375735D01*
X108736459Y-95361456D01*
X108741418Y-95347596D01*
X108747712Y-95334289D01*
X108755280Y-95321663D01*
X108764048Y-95309840D01*
X108773934Y-95298933D01*
X108784841Y-95289047D01*
X108796664Y-95280279D01*
X108809290Y-95272711D01*
X108822597Y-95266417D01*
X108836457Y-95261458D01*
X108850736Y-95257881D01*
X108865297Y-95255721D01*
X108880000Y-95254999D01*
X109280000Y-95254999D01*
X109294703Y-95255721D01*
X109294703Y-95255721D01*
G37*
D20*
X109080000Y-95405000D03*
D18*
G36*
X109294703Y-95755721D02*
G01*
X109309264Y-95757881D01*
X109323543Y-95761458D01*
X109337403Y-95766417D01*
X109350710Y-95772711D01*
X109363336Y-95780279D01*
X109375159Y-95789047D01*
X109386066Y-95798933D01*
X109395952Y-95809840D01*
X109404720Y-95821663D01*
X109412288Y-95834289D01*
X109418582Y-95847596D01*
X109423541Y-95861456D01*
X109427118Y-95875735D01*
X109429278Y-95890296D01*
X109430000Y-95904999D01*
X109430000Y-95905001D01*
X109429278Y-95919704D01*
X109427118Y-95934265D01*
X109423541Y-95948544D01*
X109418582Y-95962404D01*
X109412288Y-95975711D01*
X109404720Y-95988337D01*
X109395952Y-96000160D01*
X109386066Y-96011067D01*
X109375159Y-96020953D01*
X109363336Y-96029721D01*
X109350710Y-96037289D01*
X109337403Y-96043583D01*
X109323543Y-96048542D01*
X109309264Y-96052119D01*
X109294703Y-96054279D01*
X109280000Y-96055001D01*
X108880000Y-96055001D01*
X108865297Y-96054279D01*
X108850736Y-96052119D01*
X108836457Y-96048542D01*
X108822597Y-96043583D01*
X108809290Y-96037289D01*
X108796664Y-96029721D01*
X108784841Y-96020953D01*
X108773934Y-96011067D01*
X108764048Y-96000160D01*
X108755280Y-95988337D01*
X108747712Y-95975711D01*
X108741418Y-95962404D01*
X108736459Y-95948544D01*
X108732882Y-95934265D01*
X108730722Y-95919704D01*
X108730000Y-95905001D01*
X108730000Y-95904999D01*
X108730722Y-95890296D01*
X108732882Y-95875735D01*
X108736459Y-95861456D01*
X108741418Y-95847596D01*
X108747712Y-95834289D01*
X108755280Y-95821663D01*
X108764048Y-95809840D01*
X108773934Y-95798933D01*
X108784841Y-95789047D01*
X108796664Y-95780279D01*
X108809290Y-95772711D01*
X108822597Y-95766417D01*
X108836457Y-95761458D01*
X108850736Y-95757881D01*
X108865297Y-95755721D01*
X108880000Y-95754999D01*
X109280000Y-95754999D01*
X109294703Y-95755721D01*
X109294703Y-95755721D01*
G37*
D20*
X109080000Y-95905000D03*
D18*
G36*
X109294703Y-96255721D02*
G01*
X109309264Y-96257881D01*
X109323543Y-96261458D01*
X109337403Y-96266417D01*
X109350710Y-96272711D01*
X109363336Y-96280279D01*
X109375159Y-96289047D01*
X109386066Y-96298933D01*
X109395952Y-96309840D01*
X109404720Y-96321663D01*
X109412288Y-96334289D01*
X109418582Y-96347596D01*
X109423541Y-96361456D01*
X109427118Y-96375735D01*
X109429278Y-96390296D01*
X109430000Y-96404999D01*
X109430000Y-96405001D01*
X109429278Y-96419704D01*
X109427118Y-96434265D01*
X109423541Y-96448544D01*
X109418582Y-96462404D01*
X109412288Y-96475711D01*
X109404720Y-96488337D01*
X109395952Y-96500160D01*
X109386066Y-96511067D01*
X109375159Y-96520953D01*
X109363336Y-96529721D01*
X109350710Y-96537289D01*
X109337403Y-96543583D01*
X109323543Y-96548542D01*
X109309264Y-96552119D01*
X109294703Y-96554279D01*
X109280000Y-96555001D01*
X108880000Y-96555001D01*
X108865297Y-96554279D01*
X108850736Y-96552119D01*
X108836457Y-96548542D01*
X108822597Y-96543583D01*
X108809290Y-96537289D01*
X108796664Y-96529721D01*
X108784841Y-96520953D01*
X108773934Y-96511067D01*
X108764048Y-96500160D01*
X108755280Y-96488337D01*
X108747712Y-96475711D01*
X108741418Y-96462404D01*
X108736459Y-96448544D01*
X108732882Y-96434265D01*
X108730722Y-96419704D01*
X108730000Y-96405001D01*
X108730000Y-96404999D01*
X108730722Y-96390296D01*
X108732882Y-96375735D01*
X108736459Y-96361456D01*
X108741418Y-96347596D01*
X108747712Y-96334289D01*
X108755280Y-96321663D01*
X108764048Y-96309840D01*
X108773934Y-96298933D01*
X108784841Y-96289047D01*
X108796664Y-96280279D01*
X108809290Y-96272711D01*
X108822597Y-96266417D01*
X108836457Y-96261458D01*
X108850736Y-96257881D01*
X108865297Y-96255721D01*
X108880000Y-96254999D01*
X109280000Y-96254999D01*
X109294703Y-96255721D01*
X109294703Y-96255721D01*
G37*
D20*
X109080000Y-96405000D03*
D18*
G36*
X109294703Y-96755721D02*
G01*
X109309264Y-96757881D01*
X109323543Y-96761458D01*
X109337403Y-96766417D01*
X109350710Y-96772711D01*
X109363336Y-96780279D01*
X109375159Y-96789047D01*
X109386066Y-96798933D01*
X109395952Y-96809840D01*
X109404720Y-96821663D01*
X109412288Y-96834289D01*
X109418582Y-96847596D01*
X109423541Y-96861456D01*
X109427118Y-96875735D01*
X109429278Y-96890296D01*
X109430000Y-96904999D01*
X109430000Y-96905001D01*
X109429278Y-96919704D01*
X109427118Y-96934265D01*
X109423541Y-96948544D01*
X109418582Y-96962404D01*
X109412288Y-96975711D01*
X109404720Y-96988337D01*
X109395952Y-97000160D01*
X109386066Y-97011067D01*
X109375159Y-97020953D01*
X109363336Y-97029721D01*
X109350710Y-97037289D01*
X109337403Y-97043583D01*
X109323543Y-97048542D01*
X109309264Y-97052119D01*
X109294703Y-97054279D01*
X109280000Y-97055001D01*
X108880000Y-97055001D01*
X108865297Y-97054279D01*
X108850736Y-97052119D01*
X108836457Y-97048542D01*
X108822597Y-97043583D01*
X108809290Y-97037289D01*
X108796664Y-97029721D01*
X108784841Y-97020953D01*
X108773934Y-97011067D01*
X108764048Y-97000160D01*
X108755280Y-96988337D01*
X108747712Y-96975711D01*
X108741418Y-96962404D01*
X108736459Y-96948544D01*
X108732882Y-96934265D01*
X108730722Y-96919704D01*
X108730000Y-96905001D01*
X108730000Y-96904999D01*
X108730722Y-96890296D01*
X108732882Y-96875735D01*
X108736459Y-96861456D01*
X108741418Y-96847596D01*
X108747712Y-96834289D01*
X108755280Y-96821663D01*
X108764048Y-96809840D01*
X108773934Y-96798933D01*
X108784841Y-96789047D01*
X108796664Y-96780279D01*
X108809290Y-96772711D01*
X108822597Y-96766417D01*
X108836457Y-96761458D01*
X108850736Y-96757881D01*
X108865297Y-96755721D01*
X108880000Y-96754999D01*
X109280000Y-96754999D01*
X109294703Y-96755721D01*
X109294703Y-96755721D01*
G37*
D20*
X109080000Y-96905000D03*
D18*
G36*
X109294703Y-97255721D02*
G01*
X109309264Y-97257881D01*
X109323543Y-97261458D01*
X109337403Y-97266417D01*
X109350710Y-97272711D01*
X109363336Y-97280279D01*
X109375159Y-97289047D01*
X109386066Y-97298933D01*
X109395952Y-97309840D01*
X109404720Y-97321663D01*
X109412288Y-97334289D01*
X109418582Y-97347596D01*
X109423541Y-97361456D01*
X109427118Y-97375735D01*
X109429278Y-97390296D01*
X109430000Y-97404999D01*
X109430000Y-97405001D01*
X109429278Y-97419704D01*
X109427118Y-97434265D01*
X109423541Y-97448544D01*
X109418582Y-97462404D01*
X109412288Y-97475711D01*
X109404720Y-97488337D01*
X109395952Y-97500160D01*
X109386066Y-97511067D01*
X109375159Y-97520953D01*
X109363336Y-97529721D01*
X109350710Y-97537289D01*
X109337403Y-97543583D01*
X109323543Y-97548542D01*
X109309264Y-97552119D01*
X109294703Y-97554279D01*
X109280000Y-97555001D01*
X108880000Y-97555001D01*
X108865297Y-97554279D01*
X108850736Y-97552119D01*
X108836457Y-97548542D01*
X108822597Y-97543583D01*
X108809290Y-97537289D01*
X108796664Y-97529721D01*
X108784841Y-97520953D01*
X108773934Y-97511067D01*
X108764048Y-97500160D01*
X108755280Y-97488337D01*
X108747712Y-97475711D01*
X108741418Y-97462404D01*
X108736459Y-97448544D01*
X108732882Y-97434265D01*
X108730722Y-97419704D01*
X108730000Y-97405001D01*
X108730000Y-97404999D01*
X108730722Y-97390296D01*
X108732882Y-97375735D01*
X108736459Y-97361456D01*
X108741418Y-97347596D01*
X108747712Y-97334289D01*
X108755280Y-97321663D01*
X108764048Y-97309840D01*
X108773934Y-97298933D01*
X108784841Y-97289047D01*
X108796664Y-97280279D01*
X108809290Y-97272711D01*
X108822597Y-97266417D01*
X108836457Y-97261458D01*
X108850736Y-97257881D01*
X108865297Y-97255721D01*
X108880000Y-97254999D01*
X109280000Y-97254999D01*
X109294703Y-97255721D01*
X109294703Y-97255721D01*
G37*
D20*
X109080000Y-97405000D03*
D18*
G36*
X109294703Y-97755721D02*
G01*
X109309264Y-97757881D01*
X109323543Y-97761458D01*
X109337403Y-97766417D01*
X109350710Y-97772711D01*
X109363336Y-97780279D01*
X109375159Y-97789047D01*
X109386066Y-97798933D01*
X109395952Y-97809840D01*
X109404720Y-97821663D01*
X109412288Y-97834289D01*
X109418582Y-97847596D01*
X109423541Y-97861456D01*
X109427118Y-97875735D01*
X109429278Y-97890296D01*
X109430000Y-97904999D01*
X109430000Y-97905001D01*
X109429278Y-97919704D01*
X109427118Y-97934265D01*
X109423541Y-97948544D01*
X109418582Y-97962404D01*
X109412288Y-97975711D01*
X109404720Y-97988337D01*
X109395952Y-98000160D01*
X109386066Y-98011067D01*
X109375159Y-98020953D01*
X109363336Y-98029721D01*
X109350710Y-98037289D01*
X109337403Y-98043583D01*
X109323543Y-98048542D01*
X109309264Y-98052119D01*
X109294703Y-98054279D01*
X109280000Y-98055001D01*
X108880000Y-98055001D01*
X108865297Y-98054279D01*
X108850736Y-98052119D01*
X108836457Y-98048542D01*
X108822597Y-98043583D01*
X108809290Y-98037289D01*
X108796664Y-98029721D01*
X108784841Y-98020953D01*
X108773934Y-98011067D01*
X108764048Y-98000160D01*
X108755280Y-97988337D01*
X108747712Y-97975711D01*
X108741418Y-97962404D01*
X108736459Y-97948544D01*
X108732882Y-97934265D01*
X108730722Y-97919704D01*
X108730000Y-97905001D01*
X108730000Y-97904999D01*
X108730722Y-97890296D01*
X108732882Y-97875735D01*
X108736459Y-97861456D01*
X108741418Y-97847596D01*
X108747712Y-97834289D01*
X108755280Y-97821663D01*
X108764048Y-97809840D01*
X108773934Y-97798933D01*
X108784841Y-97789047D01*
X108796664Y-97780279D01*
X108809290Y-97772711D01*
X108822597Y-97766417D01*
X108836457Y-97761458D01*
X108850736Y-97757881D01*
X108865297Y-97755721D01*
X108880000Y-97754999D01*
X109280000Y-97754999D01*
X109294703Y-97755721D01*
X109294703Y-97755721D01*
G37*
D20*
X109080000Y-97905000D03*
D18*
G36*
X109294703Y-98255721D02*
G01*
X109309264Y-98257881D01*
X109323543Y-98261458D01*
X109337403Y-98266417D01*
X109350710Y-98272711D01*
X109363336Y-98280279D01*
X109375159Y-98289047D01*
X109386066Y-98298933D01*
X109395952Y-98309840D01*
X109404720Y-98321663D01*
X109412288Y-98334289D01*
X109418582Y-98347596D01*
X109423541Y-98361456D01*
X109427118Y-98375735D01*
X109429278Y-98390296D01*
X109430000Y-98404999D01*
X109430000Y-98405001D01*
X109429278Y-98419704D01*
X109427118Y-98434265D01*
X109423541Y-98448544D01*
X109418582Y-98462404D01*
X109412288Y-98475711D01*
X109404720Y-98488337D01*
X109395952Y-98500160D01*
X109386066Y-98511067D01*
X109375159Y-98520953D01*
X109363336Y-98529721D01*
X109350710Y-98537289D01*
X109337403Y-98543583D01*
X109323543Y-98548542D01*
X109309264Y-98552119D01*
X109294703Y-98554279D01*
X109280000Y-98555001D01*
X108880000Y-98555001D01*
X108865297Y-98554279D01*
X108850736Y-98552119D01*
X108836457Y-98548542D01*
X108822597Y-98543583D01*
X108809290Y-98537289D01*
X108796664Y-98529721D01*
X108784841Y-98520953D01*
X108773934Y-98511067D01*
X108764048Y-98500160D01*
X108755280Y-98488337D01*
X108747712Y-98475711D01*
X108741418Y-98462404D01*
X108736459Y-98448544D01*
X108732882Y-98434265D01*
X108730722Y-98419704D01*
X108730000Y-98405001D01*
X108730000Y-98404999D01*
X108730722Y-98390296D01*
X108732882Y-98375735D01*
X108736459Y-98361456D01*
X108741418Y-98347596D01*
X108747712Y-98334289D01*
X108755280Y-98321663D01*
X108764048Y-98309840D01*
X108773934Y-98298933D01*
X108784841Y-98289047D01*
X108796664Y-98280279D01*
X108809290Y-98272711D01*
X108822597Y-98266417D01*
X108836457Y-98261458D01*
X108850736Y-98257881D01*
X108865297Y-98255721D01*
X108880000Y-98254999D01*
X109280000Y-98254999D01*
X109294703Y-98255721D01*
X109294703Y-98255721D01*
G37*
D20*
X109080000Y-98405000D03*
D18*
G36*
X109294703Y-98755721D02*
G01*
X109309264Y-98757881D01*
X109323543Y-98761458D01*
X109337403Y-98766417D01*
X109350710Y-98772711D01*
X109363336Y-98780279D01*
X109375159Y-98789047D01*
X109386066Y-98798933D01*
X109395952Y-98809840D01*
X109404720Y-98821663D01*
X109412288Y-98834289D01*
X109418582Y-98847596D01*
X109423541Y-98861456D01*
X109427118Y-98875735D01*
X109429278Y-98890296D01*
X109430000Y-98904999D01*
X109430000Y-98905001D01*
X109429278Y-98919704D01*
X109427118Y-98934265D01*
X109423541Y-98948544D01*
X109418582Y-98962404D01*
X109412288Y-98975711D01*
X109404720Y-98988337D01*
X109395952Y-99000160D01*
X109386066Y-99011067D01*
X109375159Y-99020953D01*
X109363336Y-99029721D01*
X109350710Y-99037289D01*
X109337403Y-99043583D01*
X109323543Y-99048542D01*
X109309264Y-99052119D01*
X109294703Y-99054279D01*
X109280000Y-99055001D01*
X108880000Y-99055001D01*
X108865297Y-99054279D01*
X108850736Y-99052119D01*
X108836457Y-99048542D01*
X108822597Y-99043583D01*
X108809290Y-99037289D01*
X108796664Y-99029721D01*
X108784841Y-99020953D01*
X108773934Y-99011067D01*
X108764048Y-99000160D01*
X108755280Y-98988337D01*
X108747712Y-98975711D01*
X108741418Y-98962404D01*
X108736459Y-98948544D01*
X108732882Y-98934265D01*
X108730722Y-98919704D01*
X108730000Y-98905001D01*
X108730000Y-98904999D01*
X108730722Y-98890296D01*
X108732882Y-98875735D01*
X108736459Y-98861456D01*
X108741418Y-98847596D01*
X108747712Y-98834289D01*
X108755280Y-98821663D01*
X108764048Y-98809840D01*
X108773934Y-98798933D01*
X108784841Y-98789047D01*
X108796664Y-98780279D01*
X108809290Y-98772711D01*
X108822597Y-98766417D01*
X108836457Y-98761458D01*
X108850736Y-98757881D01*
X108865297Y-98755721D01*
X108880000Y-98754999D01*
X109280000Y-98754999D01*
X109294703Y-98755721D01*
X109294703Y-98755721D01*
G37*
D20*
X109080000Y-98905000D03*
D18*
G36*
X104494703Y-98755721D02*
G01*
X104509264Y-98757881D01*
X104523543Y-98761458D01*
X104537403Y-98766417D01*
X104550710Y-98772711D01*
X104563336Y-98780279D01*
X104575159Y-98789047D01*
X104586066Y-98798933D01*
X104595952Y-98809840D01*
X104604720Y-98821663D01*
X104612288Y-98834289D01*
X104618582Y-98847596D01*
X104623541Y-98861456D01*
X104627118Y-98875735D01*
X104629278Y-98890296D01*
X104630000Y-98904999D01*
X104630000Y-98905001D01*
X104629278Y-98919704D01*
X104627118Y-98934265D01*
X104623541Y-98948544D01*
X104618582Y-98962404D01*
X104612288Y-98975711D01*
X104604720Y-98988337D01*
X104595952Y-99000160D01*
X104586066Y-99011067D01*
X104575159Y-99020953D01*
X104563336Y-99029721D01*
X104550710Y-99037289D01*
X104537403Y-99043583D01*
X104523543Y-99048542D01*
X104509264Y-99052119D01*
X104494703Y-99054279D01*
X104480000Y-99055001D01*
X104080000Y-99055001D01*
X104065297Y-99054279D01*
X104050736Y-99052119D01*
X104036457Y-99048542D01*
X104022597Y-99043583D01*
X104009290Y-99037289D01*
X103996664Y-99029721D01*
X103984841Y-99020953D01*
X103973934Y-99011067D01*
X103964048Y-99000160D01*
X103955280Y-98988337D01*
X103947712Y-98975711D01*
X103941418Y-98962404D01*
X103936459Y-98948544D01*
X103932882Y-98934265D01*
X103930722Y-98919704D01*
X103930000Y-98905001D01*
X103930000Y-98904999D01*
X103930722Y-98890296D01*
X103932882Y-98875735D01*
X103936459Y-98861456D01*
X103941418Y-98847596D01*
X103947712Y-98834289D01*
X103955280Y-98821663D01*
X103964048Y-98809840D01*
X103973934Y-98798933D01*
X103984841Y-98789047D01*
X103996664Y-98780279D01*
X104009290Y-98772711D01*
X104022597Y-98766417D01*
X104036457Y-98761458D01*
X104050736Y-98757881D01*
X104065297Y-98755721D01*
X104080000Y-98754999D01*
X104480000Y-98754999D01*
X104494703Y-98755721D01*
X104494703Y-98755721D01*
G37*
D20*
X104280000Y-98905000D03*
D18*
G36*
X104494703Y-98255721D02*
G01*
X104509264Y-98257881D01*
X104523543Y-98261458D01*
X104537403Y-98266417D01*
X104550710Y-98272711D01*
X104563336Y-98280279D01*
X104575159Y-98289047D01*
X104586066Y-98298933D01*
X104595952Y-98309840D01*
X104604720Y-98321663D01*
X104612288Y-98334289D01*
X104618582Y-98347596D01*
X104623541Y-98361456D01*
X104627118Y-98375735D01*
X104629278Y-98390296D01*
X104630000Y-98404999D01*
X104630000Y-98405001D01*
X104629278Y-98419704D01*
X104627118Y-98434265D01*
X104623541Y-98448544D01*
X104618582Y-98462404D01*
X104612288Y-98475711D01*
X104604720Y-98488337D01*
X104595952Y-98500160D01*
X104586066Y-98511067D01*
X104575159Y-98520953D01*
X104563336Y-98529721D01*
X104550710Y-98537289D01*
X104537403Y-98543583D01*
X104523543Y-98548542D01*
X104509264Y-98552119D01*
X104494703Y-98554279D01*
X104480000Y-98555001D01*
X104080000Y-98555001D01*
X104065297Y-98554279D01*
X104050736Y-98552119D01*
X104036457Y-98548542D01*
X104022597Y-98543583D01*
X104009290Y-98537289D01*
X103996664Y-98529721D01*
X103984841Y-98520953D01*
X103973934Y-98511067D01*
X103964048Y-98500160D01*
X103955280Y-98488337D01*
X103947712Y-98475711D01*
X103941418Y-98462404D01*
X103936459Y-98448544D01*
X103932882Y-98434265D01*
X103930722Y-98419704D01*
X103930000Y-98405001D01*
X103930000Y-98404999D01*
X103930722Y-98390296D01*
X103932882Y-98375735D01*
X103936459Y-98361456D01*
X103941418Y-98347596D01*
X103947712Y-98334289D01*
X103955280Y-98321663D01*
X103964048Y-98309840D01*
X103973934Y-98298933D01*
X103984841Y-98289047D01*
X103996664Y-98280279D01*
X104009290Y-98272711D01*
X104022597Y-98266417D01*
X104036457Y-98261458D01*
X104050736Y-98257881D01*
X104065297Y-98255721D01*
X104080000Y-98254999D01*
X104480000Y-98254999D01*
X104494703Y-98255721D01*
X104494703Y-98255721D01*
G37*
D20*
X104280000Y-98405000D03*
D18*
G36*
X104494703Y-97755721D02*
G01*
X104509264Y-97757881D01*
X104523543Y-97761458D01*
X104537403Y-97766417D01*
X104550710Y-97772711D01*
X104563336Y-97780279D01*
X104575159Y-97789047D01*
X104586066Y-97798933D01*
X104595952Y-97809840D01*
X104604720Y-97821663D01*
X104612288Y-97834289D01*
X104618582Y-97847596D01*
X104623541Y-97861456D01*
X104627118Y-97875735D01*
X104629278Y-97890296D01*
X104630000Y-97904999D01*
X104630000Y-97905001D01*
X104629278Y-97919704D01*
X104627118Y-97934265D01*
X104623541Y-97948544D01*
X104618582Y-97962404D01*
X104612288Y-97975711D01*
X104604720Y-97988337D01*
X104595952Y-98000160D01*
X104586066Y-98011067D01*
X104575159Y-98020953D01*
X104563336Y-98029721D01*
X104550710Y-98037289D01*
X104537403Y-98043583D01*
X104523543Y-98048542D01*
X104509264Y-98052119D01*
X104494703Y-98054279D01*
X104480000Y-98055001D01*
X104080000Y-98055001D01*
X104065297Y-98054279D01*
X104050736Y-98052119D01*
X104036457Y-98048542D01*
X104022597Y-98043583D01*
X104009290Y-98037289D01*
X103996664Y-98029721D01*
X103984841Y-98020953D01*
X103973934Y-98011067D01*
X103964048Y-98000160D01*
X103955280Y-97988337D01*
X103947712Y-97975711D01*
X103941418Y-97962404D01*
X103936459Y-97948544D01*
X103932882Y-97934265D01*
X103930722Y-97919704D01*
X103930000Y-97905001D01*
X103930000Y-97904999D01*
X103930722Y-97890296D01*
X103932882Y-97875735D01*
X103936459Y-97861456D01*
X103941418Y-97847596D01*
X103947712Y-97834289D01*
X103955280Y-97821663D01*
X103964048Y-97809840D01*
X103973934Y-97798933D01*
X103984841Y-97789047D01*
X103996664Y-97780279D01*
X104009290Y-97772711D01*
X104022597Y-97766417D01*
X104036457Y-97761458D01*
X104050736Y-97757881D01*
X104065297Y-97755721D01*
X104080000Y-97754999D01*
X104480000Y-97754999D01*
X104494703Y-97755721D01*
X104494703Y-97755721D01*
G37*
D20*
X104280000Y-97905000D03*
D18*
G36*
X104494703Y-97255721D02*
G01*
X104509264Y-97257881D01*
X104523543Y-97261458D01*
X104537403Y-97266417D01*
X104550710Y-97272711D01*
X104563336Y-97280279D01*
X104575159Y-97289047D01*
X104586066Y-97298933D01*
X104595952Y-97309840D01*
X104604720Y-97321663D01*
X104612288Y-97334289D01*
X104618582Y-97347596D01*
X104623541Y-97361456D01*
X104627118Y-97375735D01*
X104629278Y-97390296D01*
X104630000Y-97404999D01*
X104630000Y-97405001D01*
X104629278Y-97419704D01*
X104627118Y-97434265D01*
X104623541Y-97448544D01*
X104618582Y-97462404D01*
X104612288Y-97475711D01*
X104604720Y-97488337D01*
X104595952Y-97500160D01*
X104586066Y-97511067D01*
X104575159Y-97520953D01*
X104563336Y-97529721D01*
X104550710Y-97537289D01*
X104537403Y-97543583D01*
X104523543Y-97548542D01*
X104509264Y-97552119D01*
X104494703Y-97554279D01*
X104480000Y-97555001D01*
X104080000Y-97555001D01*
X104065297Y-97554279D01*
X104050736Y-97552119D01*
X104036457Y-97548542D01*
X104022597Y-97543583D01*
X104009290Y-97537289D01*
X103996664Y-97529721D01*
X103984841Y-97520953D01*
X103973934Y-97511067D01*
X103964048Y-97500160D01*
X103955280Y-97488337D01*
X103947712Y-97475711D01*
X103941418Y-97462404D01*
X103936459Y-97448544D01*
X103932882Y-97434265D01*
X103930722Y-97419704D01*
X103930000Y-97405001D01*
X103930000Y-97404999D01*
X103930722Y-97390296D01*
X103932882Y-97375735D01*
X103936459Y-97361456D01*
X103941418Y-97347596D01*
X103947712Y-97334289D01*
X103955280Y-97321663D01*
X103964048Y-97309840D01*
X103973934Y-97298933D01*
X103984841Y-97289047D01*
X103996664Y-97280279D01*
X104009290Y-97272711D01*
X104022597Y-97266417D01*
X104036457Y-97261458D01*
X104050736Y-97257881D01*
X104065297Y-97255721D01*
X104080000Y-97254999D01*
X104480000Y-97254999D01*
X104494703Y-97255721D01*
X104494703Y-97255721D01*
G37*
D20*
X104280000Y-97405000D03*
D18*
G36*
X104494703Y-96755721D02*
G01*
X104509264Y-96757881D01*
X104523543Y-96761458D01*
X104537403Y-96766417D01*
X104550710Y-96772711D01*
X104563336Y-96780279D01*
X104575159Y-96789047D01*
X104586066Y-96798933D01*
X104595952Y-96809840D01*
X104604720Y-96821663D01*
X104612288Y-96834289D01*
X104618582Y-96847596D01*
X104623541Y-96861456D01*
X104627118Y-96875735D01*
X104629278Y-96890296D01*
X104630000Y-96904999D01*
X104630000Y-96905001D01*
X104629278Y-96919704D01*
X104627118Y-96934265D01*
X104623541Y-96948544D01*
X104618582Y-96962404D01*
X104612288Y-96975711D01*
X104604720Y-96988337D01*
X104595952Y-97000160D01*
X104586066Y-97011067D01*
X104575159Y-97020953D01*
X104563336Y-97029721D01*
X104550710Y-97037289D01*
X104537403Y-97043583D01*
X104523543Y-97048542D01*
X104509264Y-97052119D01*
X104494703Y-97054279D01*
X104480000Y-97055001D01*
X104080000Y-97055001D01*
X104065297Y-97054279D01*
X104050736Y-97052119D01*
X104036457Y-97048542D01*
X104022597Y-97043583D01*
X104009290Y-97037289D01*
X103996664Y-97029721D01*
X103984841Y-97020953D01*
X103973934Y-97011067D01*
X103964048Y-97000160D01*
X103955280Y-96988337D01*
X103947712Y-96975711D01*
X103941418Y-96962404D01*
X103936459Y-96948544D01*
X103932882Y-96934265D01*
X103930722Y-96919704D01*
X103930000Y-96905001D01*
X103930000Y-96904999D01*
X103930722Y-96890296D01*
X103932882Y-96875735D01*
X103936459Y-96861456D01*
X103941418Y-96847596D01*
X103947712Y-96834289D01*
X103955280Y-96821663D01*
X103964048Y-96809840D01*
X103973934Y-96798933D01*
X103984841Y-96789047D01*
X103996664Y-96780279D01*
X104009290Y-96772711D01*
X104022597Y-96766417D01*
X104036457Y-96761458D01*
X104050736Y-96757881D01*
X104065297Y-96755721D01*
X104080000Y-96754999D01*
X104480000Y-96754999D01*
X104494703Y-96755721D01*
X104494703Y-96755721D01*
G37*
D20*
X104280000Y-96905000D03*
D18*
G36*
X104494703Y-96255721D02*
G01*
X104509264Y-96257881D01*
X104523543Y-96261458D01*
X104537403Y-96266417D01*
X104550710Y-96272711D01*
X104563336Y-96280279D01*
X104575159Y-96289047D01*
X104586066Y-96298933D01*
X104595952Y-96309840D01*
X104604720Y-96321663D01*
X104612288Y-96334289D01*
X104618582Y-96347596D01*
X104623541Y-96361456D01*
X104627118Y-96375735D01*
X104629278Y-96390296D01*
X104630000Y-96404999D01*
X104630000Y-96405001D01*
X104629278Y-96419704D01*
X104627118Y-96434265D01*
X104623541Y-96448544D01*
X104618582Y-96462404D01*
X104612288Y-96475711D01*
X104604720Y-96488337D01*
X104595952Y-96500160D01*
X104586066Y-96511067D01*
X104575159Y-96520953D01*
X104563336Y-96529721D01*
X104550710Y-96537289D01*
X104537403Y-96543583D01*
X104523543Y-96548542D01*
X104509264Y-96552119D01*
X104494703Y-96554279D01*
X104480000Y-96555001D01*
X104080000Y-96555001D01*
X104065297Y-96554279D01*
X104050736Y-96552119D01*
X104036457Y-96548542D01*
X104022597Y-96543583D01*
X104009290Y-96537289D01*
X103996664Y-96529721D01*
X103984841Y-96520953D01*
X103973934Y-96511067D01*
X103964048Y-96500160D01*
X103955280Y-96488337D01*
X103947712Y-96475711D01*
X103941418Y-96462404D01*
X103936459Y-96448544D01*
X103932882Y-96434265D01*
X103930722Y-96419704D01*
X103930000Y-96405001D01*
X103930000Y-96404999D01*
X103930722Y-96390296D01*
X103932882Y-96375735D01*
X103936459Y-96361456D01*
X103941418Y-96347596D01*
X103947712Y-96334289D01*
X103955280Y-96321663D01*
X103964048Y-96309840D01*
X103973934Y-96298933D01*
X103984841Y-96289047D01*
X103996664Y-96280279D01*
X104009290Y-96272711D01*
X104022597Y-96266417D01*
X104036457Y-96261458D01*
X104050736Y-96257881D01*
X104065297Y-96255721D01*
X104080000Y-96254999D01*
X104480000Y-96254999D01*
X104494703Y-96255721D01*
X104494703Y-96255721D01*
G37*
D20*
X104280000Y-96405000D03*
D18*
G36*
X104494703Y-95755721D02*
G01*
X104509264Y-95757881D01*
X104523543Y-95761458D01*
X104537403Y-95766417D01*
X104550710Y-95772711D01*
X104563336Y-95780279D01*
X104575159Y-95789047D01*
X104586066Y-95798933D01*
X104595952Y-95809840D01*
X104604720Y-95821663D01*
X104612288Y-95834289D01*
X104618582Y-95847596D01*
X104623541Y-95861456D01*
X104627118Y-95875735D01*
X104629278Y-95890296D01*
X104630000Y-95904999D01*
X104630000Y-95905001D01*
X104629278Y-95919704D01*
X104627118Y-95934265D01*
X104623541Y-95948544D01*
X104618582Y-95962404D01*
X104612288Y-95975711D01*
X104604720Y-95988337D01*
X104595952Y-96000160D01*
X104586066Y-96011067D01*
X104575159Y-96020953D01*
X104563336Y-96029721D01*
X104550710Y-96037289D01*
X104537403Y-96043583D01*
X104523543Y-96048542D01*
X104509264Y-96052119D01*
X104494703Y-96054279D01*
X104480000Y-96055001D01*
X104080000Y-96055001D01*
X104065297Y-96054279D01*
X104050736Y-96052119D01*
X104036457Y-96048542D01*
X104022597Y-96043583D01*
X104009290Y-96037289D01*
X103996664Y-96029721D01*
X103984841Y-96020953D01*
X103973934Y-96011067D01*
X103964048Y-96000160D01*
X103955280Y-95988337D01*
X103947712Y-95975711D01*
X103941418Y-95962404D01*
X103936459Y-95948544D01*
X103932882Y-95934265D01*
X103930722Y-95919704D01*
X103930000Y-95905001D01*
X103930000Y-95904999D01*
X103930722Y-95890296D01*
X103932882Y-95875735D01*
X103936459Y-95861456D01*
X103941418Y-95847596D01*
X103947712Y-95834289D01*
X103955280Y-95821663D01*
X103964048Y-95809840D01*
X103973934Y-95798933D01*
X103984841Y-95789047D01*
X103996664Y-95780279D01*
X104009290Y-95772711D01*
X104022597Y-95766417D01*
X104036457Y-95761458D01*
X104050736Y-95757881D01*
X104065297Y-95755721D01*
X104080000Y-95754999D01*
X104480000Y-95754999D01*
X104494703Y-95755721D01*
X104494703Y-95755721D01*
G37*
D20*
X104280000Y-95905000D03*
D18*
G36*
X104494703Y-95255721D02*
G01*
X104509264Y-95257881D01*
X104523543Y-95261458D01*
X104537403Y-95266417D01*
X104550710Y-95272711D01*
X104563336Y-95280279D01*
X104575159Y-95289047D01*
X104586066Y-95298933D01*
X104595952Y-95309840D01*
X104604720Y-95321663D01*
X104612288Y-95334289D01*
X104618582Y-95347596D01*
X104623541Y-95361456D01*
X104627118Y-95375735D01*
X104629278Y-95390296D01*
X104630000Y-95404999D01*
X104630000Y-95405001D01*
X104629278Y-95419704D01*
X104627118Y-95434265D01*
X104623541Y-95448544D01*
X104618582Y-95462404D01*
X104612288Y-95475711D01*
X104604720Y-95488337D01*
X104595952Y-95500160D01*
X104586066Y-95511067D01*
X104575159Y-95520953D01*
X104563336Y-95529721D01*
X104550710Y-95537289D01*
X104537403Y-95543583D01*
X104523543Y-95548542D01*
X104509264Y-95552119D01*
X104494703Y-95554279D01*
X104480000Y-95555001D01*
X104080000Y-95555001D01*
X104065297Y-95554279D01*
X104050736Y-95552119D01*
X104036457Y-95548542D01*
X104022597Y-95543583D01*
X104009290Y-95537289D01*
X103996664Y-95529721D01*
X103984841Y-95520953D01*
X103973934Y-95511067D01*
X103964048Y-95500160D01*
X103955280Y-95488337D01*
X103947712Y-95475711D01*
X103941418Y-95462404D01*
X103936459Y-95448544D01*
X103932882Y-95434265D01*
X103930722Y-95419704D01*
X103930000Y-95405001D01*
X103930000Y-95404999D01*
X103930722Y-95390296D01*
X103932882Y-95375735D01*
X103936459Y-95361456D01*
X103941418Y-95347596D01*
X103947712Y-95334289D01*
X103955280Y-95321663D01*
X103964048Y-95309840D01*
X103973934Y-95298933D01*
X103984841Y-95289047D01*
X103996664Y-95280279D01*
X104009290Y-95272711D01*
X104022597Y-95266417D01*
X104036457Y-95261458D01*
X104050736Y-95257881D01*
X104065297Y-95255721D01*
X104080000Y-95254999D01*
X104480000Y-95254999D01*
X104494703Y-95255721D01*
X104494703Y-95255721D01*
G37*
D20*
X104280000Y-95405000D03*
%TD*%
D21*
%TO.C,SS1*%
X139065000Y-101600000D03*
X136525000Y-101600000D03*
X133985000Y-101600000D03*
X131445000Y-101600000D03*
X128905000Y-101600000D03*
X126365000Y-101600000D03*
X123825000Y-101600000D03*
X121285000Y-101600000D03*
X121285000Y-88900000D03*
X123825000Y-88900000D03*
X126365000Y-88900000D03*
X128905000Y-88900000D03*
X131445000Y-88900000D03*
X133985000Y-88900000D03*
X136525000Y-88900000D03*
X139065000Y-88900000D03*
%TD*%
D22*
%TO.C,MDB1*%
X130175000Y-71120000D03*
X130175000Y-106680000D03*
X89535000Y-101600000D03*
X89535000Y-76200000D03*
D23*
X88265000Y-106680000D03*
X90805000Y-106680000D03*
X93345000Y-106680000D03*
X95885000Y-106680000D03*
X98425000Y-106680000D03*
X100965000Y-106680000D03*
X103505000Y-106680000D03*
X106045000Y-106680000D03*
X108585000Y-106680000D03*
X111125000Y-106680000D03*
X113665000Y-106680000D03*
X116205000Y-106680000D03*
X118745000Y-106680000D03*
X121285000Y-106680000D03*
X123825000Y-106680000D03*
X126365000Y-106680000D03*
X126365000Y-71120000D03*
X123825000Y-71120000D03*
X121285000Y-71120000D03*
X118745000Y-71120000D03*
X116205000Y-71120000D03*
X113665000Y-71120000D03*
X111125000Y-71120000D03*
X108585000Y-71120000D03*
X106045000Y-71120000D03*
X103505000Y-71120000D03*
X100965000Y-71120000D03*
X98425000Y-71120000D03*
X95885000Y-71120000D03*
D24*
X88265000Y-71120000D03*
D23*
X93345000Y-71120000D03*
X90805000Y-71120000D03*
%TD*%
D25*
%TO.C,CLK1*%
X118110000Y-99890000D03*
X113030000Y-99890000D03*
X113030000Y-95690000D03*
X118110000Y-95690000D03*
%TD*%
D26*
%TO.C,D1*%
X98284000Y-73992000D03*
X98284000Y-76122000D03*
D27*
X94484000Y-75057000D03*
%TD*%
D28*
%TO.C,P1*%
X151206200Y-93395800D03*
X151206200Y-84404200D03*
D29*
X144221200Y-88900000D03*
D30*
X149707600Y-88900000D03*
D31*
X153212800Y-88900000D03*
%TD*%
D32*
%TO.C,T1*%
X137795000Y-80010000D03*
X122555000Y-80010000D03*
X127635000Y-80010000D03*
X132715000Y-80010000D03*
%TD*%
D33*
%TO.C,T2*%
X113665000Y-80010000D03*
X102235000Y-80010000D03*
X106045000Y-80010000D03*
X109855000Y-80010000D03*
%TD*%
D34*
%TO.C,REG1*%
X96520000Y-99695000D03*
X101600000Y-99695000D03*
X99060000Y-99695000D03*
%TD*%
D35*
%TO.C,R1*%
X90576400Y-88265000D03*
X88493600Y-88265000D03*
%TD*%
%TO.C,R2*%
X131216400Y-92075000D03*
X129133600Y-92075000D03*
%TD*%
%TO.C,R3*%
X103276400Y-83185000D03*
X101193600Y-83185000D03*
%TD*%
D36*
%TO.C,R4*%
X106045000Y-75158600D03*
X106045000Y-77241400D03*
%TD*%
D35*
%TO.C,R5*%
X112623600Y-83185000D03*
X114706400Y-83185000D03*
%TD*%
D36*
%TO.C,R6*%
X113665000Y-75158600D03*
X113665000Y-77241400D03*
%TD*%
D37*
%TO.C,U2*%
X88235000Y-90490000D03*
X88235000Y-92390000D03*
X90835000Y-92390000D03*
X90835000Y-91440000D03*
X90835000Y-90490000D03*
%TD*%
D38*
%TO.C,U3*%
X151765000Y-78945000D03*
X150495000Y-78945000D03*
X149225000Y-78945000D03*
X147955000Y-78945000D03*
X146685000Y-78945000D03*
X145415000Y-78945000D03*
X144145000Y-78945000D03*
X142875000Y-78945000D03*
X141605000Y-78945000D03*
X140335000Y-78945000D03*
X140335000Y-69645000D03*
X141605000Y-69645000D03*
X142875000Y-69645000D03*
X144145000Y-69645000D03*
X145415000Y-69645000D03*
X146685000Y-69645000D03*
X147955000Y-69645000D03*
X149225000Y-69645000D03*
X150495000Y-69645000D03*
X151765000Y-69645000D03*
%TD*%
D37*
%TO.C,U4*%
X128875000Y-94935000D03*
X128875000Y-96835000D03*
X131475000Y-96835000D03*
X131475000Y-95885000D03*
X131475000Y-94935000D03*
%TD*%
D35*
%TO.C,C1*%
X114528600Y-92075000D03*
X116611400Y-92075000D03*
%TD*%
%TO.C,C2*%
X98196400Y-102235000D03*
X96113600Y-102235000D03*
%TD*%
%TO.C,C3*%
X99923600Y-102235000D03*
X102006400Y-102235000D03*
%TD*%
D36*
%TO.C,C4*%
X100965000Y-94208600D03*
X100965000Y-96291400D03*
%TD*%
%TO.C,C5*%
X154305000Y-75336400D03*
X154305000Y-73253600D03*
%TD*%
D35*
%TO.C,C7*%
X123596400Y-92075000D03*
X121513600Y-92075000D03*
%TD*%
D36*
%TO.C,C8*%
X104140000Y-88671400D03*
X104140000Y-86588600D03*
%TD*%
%TO.C,C9*%
X100965000Y-88671400D03*
X100965000Y-86588600D03*
%TD*%
%TO.C,C10*%
X97790000Y-88671400D03*
X97790000Y-86588600D03*
%TD*%
%TO.C,C11*%
X94615000Y-81051400D03*
X94615000Y-78968600D03*
%TD*%
D39*
%TO.C,U5*%
X98739960Y-78811120D03*
X97790000Y-78811120D03*
X96840040Y-78811120D03*
X96840040Y-81208880D03*
X97790000Y-81208880D03*
X98739960Y-81208880D03*
%TD*%
D40*
%TO.C,U6*%
X106045000Y-88515000D03*
X107315000Y-88515000D03*
X108585000Y-88515000D03*
X109855000Y-88515000D03*
X109855000Y-82935000D03*
X108585000Y-82935000D03*
X107315000Y-82935000D03*
X106045000Y-82935000D03*
%TD*%
M02*
