%TF.GenerationSoftware,KiCad,Pcbnew,5.1.0-unknown-ca7aec2~82~ubuntu18.04.1*%
%TF.CreationDate,2019-04-12T13:47:33-04:00*%
%TF.ProjectId,stepper_controller_3x2,73746570-7065-4725-9f63-6f6e74726f6c,1.2*%
%TF.SameCoordinates,Original*%
%TF.FileFunction,Paste,Bot*%
%TF.FilePolarity,Positive*%
%FSLAX46Y46*%
G04 Gerber Fmt 4.6, Leading zero omitted, Abs format (unit mm)*
G04 Created by KiCad (PCBNEW 5.1.0-unknown-ca7aec2~82~ubuntu18.04.1) date 2019-04-12 13:47:33*
%MOMM*%
%LPD*%
G04 APERTURE LIST*
%ADD10C,0.228600*%
%ADD11C,0.100000*%
%ADD12C,2.587201*%
%ADD13C,0.300000*%
%ADD14R,1.800000X2.000000*%
%ADD15R,1.440000X1.600000*%
%ADD16R,4.960000X3.800000*%
%ADD17R,0.787400X1.600200*%
%ADD18R,1.600200X0.787400*%
%ADD19R,1.100000X0.600000*%
%ADD20R,0.600000X2.000000*%
%ADD21R,0.558800X1.330960*%
%ADD22R,0.640000X1.910000*%
G04 APERTURE END LIST*
D10*
X156210000Y-67945000D02*
X85725000Y-67945000D01*
X156210000Y-109855000D02*
X156210000Y-67945000D01*
X85725000Y-109855000D02*
X156210000Y-109855000D01*
X85725000Y-67945000D02*
X85725000Y-109855000D01*
D11*
%TO.C,U1*%
G36*
X107740239Y-95862646D02*
G01*
X107765354Y-95866371D01*
X107789982Y-95872540D01*
X107813888Y-95881094D01*
X107836840Y-95891949D01*
X107858617Y-95905002D01*
X107879010Y-95920127D01*
X107897823Y-95937177D01*
X107914873Y-95955990D01*
X107929998Y-95976383D01*
X107943051Y-95998160D01*
X107953906Y-96021112D01*
X107962460Y-96045018D01*
X107968629Y-96069646D01*
X107972354Y-96094761D01*
X107973600Y-96120120D01*
X107973600Y-98189880D01*
X107972354Y-98215239D01*
X107968629Y-98240354D01*
X107962460Y-98264982D01*
X107953906Y-98288888D01*
X107943051Y-98311840D01*
X107929998Y-98333617D01*
X107914873Y-98354010D01*
X107897823Y-98372823D01*
X107879010Y-98389873D01*
X107858617Y-98404998D01*
X107836840Y-98418051D01*
X107813888Y-98428906D01*
X107789982Y-98437460D01*
X107765354Y-98443629D01*
X107740239Y-98447354D01*
X107714880Y-98448600D01*
X105645120Y-98448600D01*
X105619761Y-98447354D01*
X105594646Y-98443629D01*
X105570018Y-98437460D01*
X105546112Y-98428906D01*
X105523160Y-98418051D01*
X105501383Y-98404998D01*
X105480990Y-98389873D01*
X105462177Y-98372823D01*
X105445127Y-98354010D01*
X105430002Y-98333617D01*
X105416949Y-98311840D01*
X105406094Y-98288888D01*
X105397540Y-98264982D01*
X105391371Y-98240354D01*
X105387646Y-98215239D01*
X105386400Y-98189880D01*
X105386400Y-96120120D01*
X105387646Y-96094761D01*
X105391371Y-96069646D01*
X105397540Y-96045018D01*
X105406094Y-96021112D01*
X105416949Y-95998160D01*
X105430002Y-95976383D01*
X105445127Y-95955990D01*
X105462177Y-95937177D01*
X105480990Y-95920127D01*
X105501383Y-95905002D01*
X105523160Y-95891949D01*
X105546112Y-95881094D01*
X105570018Y-95872540D01*
X105594646Y-95866371D01*
X105619761Y-95862646D01*
X105645120Y-95861400D01*
X107714880Y-95861400D01*
X107740239Y-95862646D01*
X107740239Y-95862646D01*
G37*
D12*
X106680000Y-97155000D03*
D11*
G36*
X104944704Y-94405722D02*
G01*
X104959265Y-94407882D01*
X104973544Y-94411459D01*
X104987404Y-94416418D01*
X105000711Y-94422712D01*
X105013337Y-94430280D01*
X105025160Y-94439048D01*
X105036067Y-94448934D01*
X105045953Y-94459841D01*
X105054721Y-94471664D01*
X105062289Y-94484290D01*
X105068583Y-94497597D01*
X105073542Y-94511457D01*
X105077119Y-94525736D01*
X105079279Y-94540297D01*
X105080001Y-94555000D01*
X105080001Y-94955000D01*
X105079279Y-94969703D01*
X105077119Y-94984264D01*
X105073542Y-94998543D01*
X105068583Y-95012403D01*
X105062289Y-95025710D01*
X105054721Y-95038336D01*
X105045953Y-95050159D01*
X105036067Y-95061066D01*
X105025160Y-95070952D01*
X105013337Y-95079720D01*
X105000711Y-95087288D01*
X104987404Y-95093582D01*
X104973544Y-95098541D01*
X104959265Y-95102118D01*
X104944704Y-95104278D01*
X104930001Y-95105000D01*
X104929999Y-95105000D01*
X104915296Y-95104278D01*
X104900735Y-95102118D01*
X104886456Y-95098541D01*
X104872596Y-95093582D01*
X104859289Y-95087288D01*
X104846663Y-95079720D01*
X104834840Y-95070952D01*
X104823933Y-95061066D01*
X104814047Y-95050159D01*
X104805279Y-95038336D01*
X104797711Y-95025710D01*
X104791417Y-95012403D01*
X104786458Y-94998543D01*
X104782881Y-94984264D01*
X104780721Y-94969703D01*
X104779999Y-94955000D01*
X104779999Y-94555000D01*
X104780721Y-94540297D01*
X104782881Y-94525736D01*
X104786458Y-94511457D01*
X104791417Y-94497597D01*
X104797711Y-94484290D01*
X104805279Y-94471664D01*
X104814047Y-94459841D01*
X104823933Y-94448934D01*
X104834840Y-94439048D01*
X104846663Y-94430280D01*
X104859289Y-94422712D01*
X104872596Y-94416418D01*
X104886456Y-94411459D01*
X104900735Y-94407882D01*
X104915296Y-94405722D01*
X104929999Y-94405000D01*
X104930001Y-94405000D01*
X104944704Y-94405722D01*
X104944704Y-94405722D01*
G37*
D13*
X104930000Y-94755000D03*
D11*
G36*
X105444704Y-94405722D02*
G01*
X105459265Y-94407882D01*
X105473544Y-94411459D01*
X105487404Y-94416418D01*
X105500711Y-94422712D01*
X105513337Y-94430280D01*
X105525160Y-94439048D01*
X105536067Y-94448934D01*
X105545953Y-94459841D01*
X105554721Y-94471664D01*
X105562289Y-94484290D01*
X105568583Y-94497597D01*
X105573542Y-94511457D01*
X105577119Y-94525736D01*
X105579279Y-94540297D01*
X105580001Y-94555000D01*
X105580001Y-94955000D01*
X105579279Y-94969703D01*
X105577119Y-94984264D01*
X105573542Y-94998543D01*
X105568583Y-95012403D01*
X105562289Y-95025710D01*
X105554721Y-95038336D01*
X105545953Y-95050159D01*
X105536067Y-95061066D01*
X105525160Y-95070952D01*
X105513337Y-95079720D01*
X105500711Y-95087288D01*
X105487404Y-95093582D01*
X105473544Y-95098541D01*
X105459265Y-95102118D01*
X105444704Y-95104278D01*
X105430001Y-95105000D01*
X105429999Y-95105000D01*
X105415296Y-95104278D01*
X105400735Y-95102118D01*
X105386456Y-95098541D01*
X105372596Y-95093582D01*
X105359289Y-95087288D01*
X105346663Y-95079720D01*
X105334840Y-95070952D01*
X105323933Y-95061066D01*
X105314047Y-95050159D01*
X105305279Y-95038336D01*
X105297711Y-95025710D01*
X105291417Y-95012403D01*
X105286458Y-94998543D01*
X105282881Y-94984264D01*
X105280721Y-94969703D01*
X105279999Y-94955000D01*
X105279999Y-94555000D01*
X105280721Y-94540297D01*
X105282881Y-94525736D01*
X105286458Y-94511457D01*
X105291417Y-94497597D01*
X105297711Y-94484290D01*
X105305279Y-94471664D01*
X105314047Y-94459841D01*
X105323933Y-94448934D01*
X105334840Y-94439048D01*
X105346663Y-94430280D01*
X105359289Y-94422712D01*
X105372596Y-94416418D01*
X105386456Y-94411459D01*
X105400735Y-94407882D01*
X105415296Y-94405722D01*
X105429999Y-94405000D01*
X105430001Y-94405000D01*
X105444704Y-94405722D01*
X105444704Y-94405722D01*
G37*
D13*
X105430000Y-94755000D03*
D11*
G36*
X105944704Y-94405722D02*
G01*
X105959265Y-94407882D01*
X105973544Y-94411459D01*
X105987404Y-94416418D01*
X106000711Y-94422712D01*
X106013337Y-94430280D01*
X106025160Y-94439048D01*
X106036067Y-94448934D01*
X106045953Y-94459841D01*
X106054721Y-94471664D01*
X106062289Y-94484290D01*
X106068583Y-94497597D01*
X106073542Y-94511457D01*
X106077119Y-94525736D01*
X106079279Y-94540297D01*
X106080001Y-94555000D01*
X106080001Y-94955000D01*
X106079279Y-94969703D01*
X106077119Y-94984264D01*
X106073542Y-94998543D01*
X106068583Y-95012403D01*
X106062289Y-95025710D01*
X106054721Y-95038336D01*
X106045953Y-95050159D01*
X106036067Y-95061066D01*
X106025160Y-95070952D01*
X106013337Y-95079720D01*
X106000711Y-95087288D01*
X105987404Y-95093582D01*
X105973544Y-95098541D01*
X105959265Y-95102118D01*
X105944704Y-95104278D01*
X105930001Y-95105000D01*
X105929999Y-95105000D01*
X105915296Y-95104278D01*
X105900735Y-95102118D01*
X105886456Y-95098541D01*
X105872596Y-95093582D01*
X105859289Y-95087288D01*
X105846663Y-95079720D01*
X105834840Y-95070952D01*
X105823933Y-95061066D01*
X105814047Y-95050159D01*
X105805279Y-95038336D01*
X105797711Y-95025710D01*
X105791417Y-95012403D01*
X105786458Y-94998543D01*
X105782881Y-94984264D01*
X105780721Y-94969703D01*
X105779999Y-94955000D01*
X105779999Y-94555000D01*
X105780721Y-94540297D01*
X105782881Y-94525736D01*
X105786458Y-94511457D01*
X105791417Y-94497597D01*
X105797711Y-94484290D01*
X105805279Y-94471664D01*
X105814047Y-94459841D01*
X105823933Y-94448934D01*
X105834840Y-94439048D01*
X105846663Y-94430280D01*
X105859289Y-94422712D01*
X105872596Y-94416418D01*
X105886456Y-94411459D01*
X105900735Y-94407882D01*
X105915296Y-94405722D01*
X105929999Y-94405000D01*
X105930001Y-94405000D01*
X105944704Y-94405722D01*
X105944704Y-94405722D01*
G37*
D13*
X105930000Y-94755000D03*
D11*
G36*
X106444704Y-94405722D02*
G01*
X106459265Y-94407882D01*
X106473544Y-94411459D01*
X106487404Y-94416418D01*
X106500711Y-94422712D01*
X106513337Y-94430280D01*
X106525160Y-94439048D01*
X106536067Y-94448934D01*
X106545953Y-94459841D01*
X106554721Y-94471664D01*
X106562289Y-94484290D01*
X106568583Y-94497597D01*
X106573542Y-94511457D01*
X106577119Y-94525736D01*
X106579279Y-94540297D01*
X106580001Y-94555000D01*
X106580001Y-94955000D01*
X106579279Y-94969703D01*
X106577119Y-94984264D01*
X106573542Y-94998543D01*
X106568583Y-95012403D01*
X106562289Y-95025710D01*
X106554721Y-95038336D01*
X106545953Y-95050159D01*
X106536067Y-95061066D01*
X106525160Y-95070952D01*
X106513337Y-95079720D01*
X106500711Y-95087288D01*
X106487404Y-95093582D01*
X106473544Y-95098541D01*
X106459265Y-95102118D01*
X106444704Y-95104278D01*
X106430001Y-95105000D01*
X106429999Y-95105000D01*
X106415296Y-95104278D01*
X106400735Y-95102118D01*
X106386456Y-95098541D01*
X106372596Y-95093582D01*
X106359289Y-95087288D01*
X106346663Y-95079720D01*
X106334840Y-95070952D01*
X106323933Y-95061066D01*
X106314047Y-95050159D01*
X106305279Y-95038336D01*
X106297711Y-95025710D01*
X106291417Y-95012403D01*
X106286458Y-94998543D01*
X106282881Y-94984264D01*
X106280721Y-94969703D01*
X106279999Y-94955000D01*
X106279999Y-94555000D01*
X106280721Y-94540297D01*
X106282881Y-94525736D01*
X106286458Y-94511457D01*
X106291417Y-94497597D01*
X106297711Y-94484290D01*
X106305279Y-94471664D01*
X106314047Y-94459841D01*
X106323933Y-94448934D01*
X106334840Y-94439048D01*
X106346663Y-94430280D01*
X106359289Y-94422712D01*
X106372596Y-94416418D01*
X106386456Y-94411459D01*
X106400735Y-94407882D01*
X106415296Y-94405722D01*
X106429999Y-94405000D01*
X106430001Y-94405000D01*
X106444704Y-94405722D01*
X106444704Y-94405722D01*
G37*
D13*
X106430000Y-94755000D03*
D11*
G36*
X106944704Y-94405722D02*
G01*
X106959265Y-94407882D01*
X106973544Y-94411459D01*
X106987404Y-94416418D01*
X107000711Y-94422712D01*
X107013337Y-94430280D01*
X107025160Y-94439048D01*
X107036067Y-94448934D01*
X107045953Y-94459841D01*
X107054721Y-94471664D01*
X107062289Y-94484290D01*
X107068583Y-94497597D01*
X107073542Y-94511457D01*
X107077119Y-94525736D01*
X107079279Y-94540297D01*
X107080001Y-94555000D01*
X107080001Y-94955000D01*
X107079279Y-94969703D01*
X107077119Y-94984264D01*
X107073542Y-94998543D01*
X107068583Y-95012403D01*
X107062289Y-95025710D01*
X107054721Y-95038336D01*
X107045953Y-95050159D01*
X107036067Y-95061066D01*
X107025160Y-95070952D01*
X107013337Y-95079720D01*
X107000711Y-95087288D01*
X106987404Y-95093582D01*
X106973544Y-95098541D01*
X106959265Y-95102118D01*
X106944704Y-95104278D01*
X106930001Y-95105000D01*
X106929999Y-95105000D01*
X106915296Y-95104278D01*
X106900735Y-95102118D01*
X106886456Y-95098541D01*
X106872596Y-95093582D01*
X106859289Y-95087288D01*
X106846663Y-95079720D01*
X106834840Y-95070952D01*
X106823933Y-95061066D01*
X106814047Y-95050159D01*
X106805279Y-95038336D01*
X106797711Y-95025710D01*
X106791417Y-95012403D01*
X106786458Y-94998543D01*
X106782881Y-94984264D01*
X106780721Y-94969703D01*
X106779999Y-94955000D01*
X106779999Y-94555000D01*
X106780721Y-94540297D01*
X106782881Y-94525736D01*
X106786458Y-94511457D01*
X106791417Y-94497597D01*
X106797711Y-94484290D01*
X106805279Y-94471664D01*
X106814047Y-94459841D01*
X106823933Y-94448934D01*
X106834840Y-94439048D01*
X106846663Y-94430280D01*
X106859289Y-94422712D01*
X106872596Y-94416418D01*
X106886456Y-94411459D01*
X106900735Y-94407882D01*
X106915296Y-94405722D01*
X106929999Y-94405000D01*
X106930001Y-94405000D01*
X106944704Y-94405722D01*
X106944704Y-94405722D01*
G37*
D13*
X106930000Y-94755000D03*
D11*
G36*
X107444704Y-94405722D02*
G01*
X107459265Y-94407882D01*
X107473544Y-94411459D01*
X107487404Y-94416418D01*
X107500711Y-94422712D01*
X107513337Y-94430280D01*
X107525160Y-94439048D01*
X107536067Y-94448934D01*
X107545953Y-94459841D01*
X107554721Y-94471664D01*
X107562289Y-94484290D01*
X107568583Y-94497597D01*
X107573542Y-94511457D01*
X107577119Y-94525736D01*
X107579279Y-94540297D01*
X107580001Y-94555000D01*
X107580001Y-94955000D01*
X107579279Y-94969703D01*
X107577119Y-94984264D01*
X107573542Y-94998543D01*
X107568583Y-95012403D01*
X107562289Y-95025710D01*
X107554721Y-95038336D01*
X107545953Y-95050159D01*
X107536067Y-95061066D01*
X107525160Y-95070952D01*
X107513337Y-95079720D01*
X107500711Y-95087288D01*
X107487404Y-95093582D01*
X107473544Y-95098541D01*
X107459265Y-95102118D01*
X107444704Y-95104278D01*
X107430001Y-95105000D01*
X107429999Y-95105000D01*
X107415296Y-95104278D01*
X107400735Y-95102118D01*
X107386456Y-95098541D01*
X107372596Y-95093582D01*
X107359289Y-95087288D01*
X107346663Y-95079720D01*
X107334840Y-95070952D01*
X107323933Y-95061066D01*
X107314047Y-95050159D01*
X107305279Y-95038336D01*
X107297711Y-95025710D01*
X107291417Y-95012403D01*
X107286458Y-94998543D01*
X107282881Y-94984264D01*
X107280721Y-94969703D01*
X107279999Y-94955000D01*
X107279999Y-94555000D01*
X107280721Y-94540297D01*
X107282881Y-94525736D01*
X107286458Y-94511457D01*
X107291417Y-94497597D01*
X107297711Y-94484290D01*
X107305279Y-94471664D01*
X107314047Y-94459841D01*
X107323933Y-94448934D01*
X107334840Y-94439048D01*
X107346663Y-94430280D01*
X107359289Y-94422712D01*
X107372596Y-94416418D01*
X107386456Y-94411459D01*
X107400735Y-94407882D01*
X107415296Y-94405722D01*
X107429999Y-94405000D01*
X107430001Y-94405000D01*
X107444704Y-94405722D01*
X107444704Y-94405722D01*
G37*
D13*
X107430000Y-94755000D03*
D11*
G36*
X107944704Y-94405722D02*
G01*
X107959265Y-94407882D01*
X107973544Y-94411459D01*
X107987404Y-94416418D01*
X108000711Y-94422712D01*
X108013337Y-94430280D01*
X108025160Y-94439048D01*
X108036067Y-94448934D01*
X108045953Y-94459841D01*
X108054721Y-94471664D01*
X108062289Y-94484290D01*
X108068583Y-94497597D01*
X108073542Y-94511457D01*
X108077119Y-94525736D01*
X108079279Y-94540297D01*
X108080001Y-94555000D01*
X108080001Y-94955000D01*
X108079279Y-94969703D01*
X108077119Y-94984264D01*
X108073542Y-94998543D01*
X108068583Y-95012403D01*
X108062289Y-95025710D01*
X108054721Y-95038336D01*
X108045953Y-95050159D01*
X108036067Y-95061066D01*
X108025160Y-95070952D01*
X108013337Y-95079720D01*
X108000711Y-95087288D01*
X107987404Y-95093582D01*
X107973544Y-95098541D01*
X107959265Y-95102118D01*
X107944704Y-95104278D01*
X107930001Y-95105000D01*
X107929999Y-95105000D01*
X107915296Y-95104278D01*
X107900735Y-95102118D01*
X107886456Y-95098541D01*
X107872596Y-95093582D01*
X107859289Y-95087288D01*
X107846663Y-95079720D01*
X107834840Y-95070952D01*
X107823933Y-95061066D01*
X107814047Y-95050159D01*
X107805279Y-95038336D01*
X107797711Y-95025710D01*
X107791417Y-95012403D01*
X107786458Y-94998543D01*
X107782881Y-94984264D01*
X107780721Y-94969703D01*
X107779999Y-94955000D01*
X107779999Y-94555000D01*
X107780721Y-94540297D01*
X107782881Y-94525736D01*
X107786458Y-94511457D01*
X107791417Y-94497597D01*
X107797711Y-94484290D01*
X107805279Y-94471664D01*
X107814047Y-94459841D01*
X107823933Y-94448934D01*
X107834840Y-94439048D01*
X107846663Y-94430280D01*
X107859289Y-94422712D01*
X107872596Y-94416418D01*
X107886456Y-94411459D01*
X107900735Y-94407882D01*
X107915296Y-94405722D01*
X107929999Y-94405000D01*
X107930001Y-94405000D01*
X107944704Y-94405722D01*
X107944704Y-94405722D01*
G37*
D13*
X107930000Y-94755000D03*
D11*
G36*
X108444704Y-94405722D02*
G01*
X108459265Y-94407882D01*
X108473544Y-94411459D01*
X108487404Y-94416418D01*
X108500711Y-94422712D01*
X108513337Y-94430280D01*
X108525160Y-94439048D01*
X108536067Y-94448934D01*
X108545953Y-94459841D01*
X108554721Y-94471664D01*
X108562289Y-94484290D01*
X108568583Y-94497597D01*
X108573542Y-94511457D01*
X108577119Y-94525736D01*
X108579279Y-94540297D01*
X108580001Y-94555000D01*
X108580001Y-94955000D01*
X108579279Y-94969703D01*
X108577119Y-94984264D01*
X108573542Y-94998543D01*
X108568583Y-95012403D01*
X108562289Y-95025710D01*
X108554721Y-95038336D01*
X108545953Y-95050159D01*
X108536067Y-95061066D01*
X108525160Y-95070952D01*
X108513337Y-95079720D01*
X108500711Y-95087288D01*
X108487404Y-95093582D01*
X108473544Y-95098541D01*
X108459265Y-95102118D01*
X108444704Y-95104278D01*
X108430001Y-95105000D01*
X108429999Y-95105000D01*
X108415296Y-95104278D01*
X108400735Y-95102118D01*
X108386456Y-95098541D01*
X108372596Y-95093582D01*
X108359289Y-95087288D01*
X108346663Y-95079720D01*
X108334840Y-95070952D01*
X108323933Y-95061066D01*
X108314047Y-95050159D01*
X108305279Y-95038336D01*
X108297711Y-95025710D01*
X108291417Y-95012403D01*
X108286458Y-94998543D01*
X108282881Y-94984264D01*
X108280721Y-94969703D01*
X108279999Y-94955000D01*
X108279999Y-94555000D01*
X108280721Y-94540297D01*
X108282881Y-94525736D01*
X108286458Y-94511457D01*
X108291417Y-94497597D01*
X108297711Y-94484290D01*
X108305279Y-94471664D01*
X108314047Y-94459841D01*
X108323933Y-94448934D01*
X108334840Y-94439048D01*
X108346663Y-94430280D01*
X108359289Y-94422712D01*
X108372596Y-94416418D01*
X108386456Y-94411459D01*
X108400735Y-94407882D01*
X108415296Y-94405722D01*
X108429999Y-94405000D01*
X108430001Y-94405000D01*
X108444704Y-94405722D01*
X108444704Y-94405722D01*
G37*
D13*
X108430000Y-94755000D03*
D11*
G36*
X108444704Y-99205722D02*
G01*
X108459265Y-99207882D01*
X108473544Y-99211459D01*
X108487404Y-99216418D01*
X108500711Y-99222712D01*
X108513337Y-99230280D01*
X108525160Y-99239048D01*
X108536067Y-99248934D01*
X108545953Y-99259841D01*
X108554721Y-99271664D01*
X108562289Y-99284290D01*
X108568583Y-99297597D01*
X108573542Y-99311457D01*
X108577119Y-99325736D01*
X108579279Y-99340297D01*
X108580001Y-99355000D01*
X108580001Y-99755000D01*
X108579279Y-99769703D01*
X108577119Y-99784264D01*
X108573542Y-99798543D01*
X108568583Y-99812403D01*
X108562289Y-99825710D01*
X108554721Y-99838336D01*
X108545953Y-99850159D01*
X108536067Y-99861066D01*
X108525160Y-99870952D01*
X108513337Y-99879720D01*
X108500711Y-99887288D01*
X108487404Y-99893582D01*
X108473544Y-99898541D01*
X108459265Y-99902118D01*
X108444704Y-99904278D01*
X108430001Y-99905000D01*
X108429999Y-99905000D01*
X108415296Y-99904278D01*
X108400735Y-99902118D01*
X108386456Y-99898541D01*
X108372596Y-99893582D01*
X108359289Y-99887288D01*
X108346663Y-99879720D01*
X108334840Y-99870952D01*
X108323933Y-99861066D01*
X108314047Y-99850159D01*
X108305279Y-99838336D01*
X108297711Y-99825710D01*
X108291417Y-99812403D01*
X108286458Y-99798543D01*
X108282881Y-99784264D01*
X108280721Y-99769703D01*
X108279999Y-99755000D01*
X108279999Y-99355000D01*
X108280721Y-99340297D01*
X108282881Y-99325736D01*
X108286458Y-99311457D01*
X108291417Y-99297597D01*
X108297711Y-99284290D01*
X108305279Y-99271664D01*
X108314047Y-99259841D01*
X108323933Y-99248934D01*
X108334840Y-99239048D01*
X108346663Y-99230280D01*
X108359289Y-99222712D01*
X108372596Y-99216418D01*
X108386456Y-99211459D01*
X108400735Y-99207882D01*
X108415296Y-99205722D01*
X108429999Y-99205000D01*
X108430001Y-99205000D01*
X108444704Y-99205722D01*
X108444704Y-99205722D01*
G37*
D13*
X108430000Y-99555000D03*
D11*
G36*
X107944704Y-99205722D02*
G01*
X107959265Y-99207882D01*
X107973544Y-99211459D01*
X107987404Y-99216418D01*
X108000711Y-99222712D01*
X108013337Y-99230280D01*
X108025160Y-99239048D01*
X108036067Y-99248934D01*
X108045953Y-99259841D01*
X108054721Y-99271664D01*
X108062289Y-99284290D01*
X108068583Y-99297597D01*
X108073542Y-99311457D01*
X108077119Y-99325736D01*
X108079279Y-99340297D01*
X108080001Y-99355000D01*
X108080001Y-99755000D01*
X108079279Y-99769703D01*
X108077119Y-99784264D01*
X108073542Y-99798543D01*
X108068583Y-99812403D01*
X108062289Y-99825710D01*
X108054721Y-99838336D01*
X108045953Y-99850159D01*
X108036067Y-99861066D01*
X108025160Y-99870952D01*
X108013337Y-99879720D01*
X108000711Y-99887288D01*
X107987404Y-99893582D01*
X107973544Y-99898541D01*
X107959265Y-99902118D01*
X107944704Y-99904278D01*
X107930001Y-99905000D01*
X107929999Y-99905000D01*
X107915296Y-99904278D01*
X107900735Y-99902118D01*
X107886456Y-99898541D01*
X107872596Y-99893582D01*
X107859289Y-99887288D01*
X107846663Y-99879720D01*
X107834840Y-99870952D01*
X107823933Y-99861066D01*
X107814047Y-99850159D01*
X107805279Y-99838336D01*
X107797711Y-99825710D01*
X107791417Y-99812403D01*
X107786458Y-99798543D01*
X107782881Y-99784264D01*
X107780721Y-99769703D01*
X107779999Y-99755000D01*
X107779999Y-99355000D01*
X107780721Y-99340297D01*
X107782881Y-99325736D01*
X107786458Y-99311457D01*
X107791417Y-99297597D01*
X107797711Y-99284290D01*
X107805279Y-99271664D01*
X107814047Y-99259841D01*
X107823933Y-99248934D01*
X107834840Y-99239048D01*
X107846663Y-99230280D01*
X107859289Y-99222712D01*
X107872596Y-99216418D01*
X107886456Y-99211459D01*
X107900735Y-99207882D01*
X107915296Y-99205722D01*
X107929999Y-99205000D01*
X107930001Y-99205000D01*
X107944704Y-99205722D01*
X107944704Y-99205722D01*
G37*
D13*
X107930000Y-99555000D03*
D11*
G36*
X107444704Y-99205722D02*
G01*
X107459265Y-99207882D01*
X107473544Y-99211459D01*
X107487404Y-99216418D01*
X107500711Y-99222712D01*
X107513337Y-99230280D01*
X107525160Y-99239048D01*
X107536067Y-99248934D01*
X107545953Y-99259841D01*
X107554721Y-99271664D01*
X107562289Y-99284290D01*
X107568583Y-99297597D01*
X107573542Y-99311457D01*
X107577119Y-99325736D01*
X107579279Y-99340297D01*
X107580001Y-99355000D01*
X107580001Y-99755000D01*
X107579279Y-99769703D01*
X107577119Y-99784264D01*
X107573542Y-99798543D01*
X107568583Y-99812403D01*
X107562289Y-99825710D01*
X107554721Y-99838336D01*
X107545953Y-99850159D01*
X107536067Y-99861066D01*
X107525160Y-99870952D01*
X107513337Y-99879720D01*
X107500711Y-99887288D01*
X107487404Y-99893582D01*
X107473544Y-99898541D01*
X107459265Y-99902118D01*
X107444704Y-99904278D01*
X107430001Y-99905000D01*
X107429999Y-99905000D01*
X107415296Y-99904278D01*
X107400735Y-99902118D01*
X107386456Y-99898541D01*
X107372596Y-99893582D01*
X107359289Y-99887288D01*
X107346663Y-99879720D01*
X107334840Y-99870952D01*
X107323933Y-99861066D01*
X107314047Y-99850159D01*
X107305279Y-99838336D01*
X107297711Y-99825710D01*
X107291417Y-99812403D01*
X107286458Y-99798543D01*
X107282881Y-99784264D01*
X107280721Y-99769703D01*
X107279999Y-99755000D01*
X107279999Y-99355000D01*
X107280721Y-99340297D01*
X107282881Y-99325736D01*
X107286458Y-99311457D01*
X107291417Y-99297597D01*
X107297711Y-99284290D01*
X107305279Y-99271664D01*
X107314047Y-99259841D01*
X107323933Y-99248934D01*
X107334840Y-99239048D01*
X107346663Y-99230280D01*
X107359289Y-99222712D01*
X107372596Y-99216418D01*
X107386456Y-99211459D01*
X107400735Y-99207882D01*
X107415296Y-99205722D01*
X107429999Y-99205000D01*
X107430001Y-99205000D01*
X107444704Y-99205722D01*
X107444704Y-99205722D01*
G37*
D13*
X107430000Y-99555000D03*
D11*
G36*
X106944704Y-99205722D02*
G01*
X106959265Y-99207882D01*
X106973544Y-99211459D01*
X106987404Y-99216418D01*
X107000711Y-99222712D01*
X107013337Y-99230280D01*
X107025160Y-99239048D01*
X107036067Y-99248934D01*
X107045953Y-99259841D01*
X107054721Y-99271664D01*
X107062289Y-99284290D01*
X107068583Y-99297597D01*
X107073542Y-99311457D01*
X107077119Y-99325736D01*
X107079279Y-99340297D01*
X107080001Y-99355000D01*
X107080001Y-99755000D01*
X107079279Y-99769703D01*
X107077119Y-99784264D01*
X107073542Y-99798543D01*
X107068583Y-99812403D01*
X107062289Y-99825710D01*
X107054721Y-99838336D01*
X107045953Y-99850159D01*
X107036067Y-99861066D01*
X107025160Y-99870952D01*
X107013337Y-99879720D01*
X107000711Y-99887288D01*
X106987404Y-99893582D01*
X106973544Y-99898541D01*
X106959265Y-99902118D01*
X106944704Y-99904278D01*
X106930001Y-99905000D01*
X106929999Y-99905000D01*
X106915296Y-99904278D01*
X106900735Y-99902118D01*
X106886456Y-99898541D01*
X106872596Y-99893582D01*
X106859289Y-99887288D01*
X106846663Y-99879720D01*
X106834840Y-99870952D01*
X106823933Y-99861066D01*
X106814047Y-99850159D01*
X106805279Y-99838336D01*
X106797711Y-99825710D01*
X106791417Y-99812403D01*
X106786458Y-99798543D01*
X106782881Y-99784264D01*
X106780721Y-99769703D01*
X106779999Y-99755000D01*
X106779999Y-99355000D01*
X106780721Y-99340297D01*
X106782881Y-99325736D01*
X106786458Y-99311457D01*
X106791417Y-99297597D01*
X106797711Y-99284290D01*
X106805279Y-99271664D01*
X106814047Y-99259841D01*
X106823933Y-99248934D01*
X106834840Y-99239048D01*
X106846663Y-99230280D01*
X106859289Y-99222712D01*
X106872596Y-99216418D01*
X106886456Y-99211459D01*
X106900735Y-99207882D01*
X106915296Y-99205722D01*
X106929999Y-99205000D01*
X106930001Y-99205000D01*
X106944704Y-99205722D01*
X106944704Y-99205722D01*
G37*
D13*
X106930000Y-99555000D03*
D11*
G36*
X106444704Y-99205722D02*
G01*
X106459265Y-99207882D01*
X106473544Y-99211459D01*
X106487404Y-99216418D01*
X106500711Y-99222712D01*
X106513337Y-99230280D01*
X106525160Y-99239048D01*
X106536067Y-99248934D01*
X106545953Y-99259841D01*
X106554721Y-99271664D01*
X106562289Y-99284290D01*
X106568583Y-99297597D01*
X106573542Y-99311457D01*
X106577119Y-99325736D01*
X106579279Y-99340297D01*
X106580001Y-99355000D01*
X106580001Y-99755000D01*
X106579279Y-99769703D01*
X106577119Y-99784264D01*
X106573542Y-99798543D01*
X106568583Y-99812403D01*
X106562289Y-99825710D01*
X106554721Y-99838336D01*
X106545953Y-99850159D01*
X106536067Y-99861066D01*
X106525160Y-99870952D01*
X106513337Y-99879720D01*
X106500711Y-99887288D01*
X106487404Y-99893582D01*
X106473544Y-99898541D01*
X106459265Y-99902118D01*
X106444704Y-99904278D01*
X106430001Y-99905000D01*
X106429999Y-99905000D01*
X106415296Y-99904278D01*
X106400735Y-99902118D01*
X106386456Y-99898541D01*
X106372596Y-99893582D01*
X106359289Y-99887288D01*
X106346663Y-99879720D01*
X106334840Y-99870952D01*
X106323933Y-99861066D01*
X106314047Y-99850159D01*
X106305279Y-99838336D01*
X106297711Y-99825710D01*
X106291417Y-99812403D01*
X106286458Y-99798543D01*
X106282881Y-99784264D01*
X106280721Y-99769703D01*
X106279999Y-99755000D01*
X106279999Y-99355000D01*
X106280721Y-99340297D01*
X106282881Y-99325736D01*
X106286458Y-99311457D01*
X106291417Y-99297597D01*
X106297711Y-99284290D01*
X106305279Y-99271664D01*
X106314047Y-99259841D01*
X106323933Y-99248934D01*
X106334840Y-99239048D01*
X106346663Y-99230280D01*
X106359289Y-99222712D01*
X106372596Y-99216418D01*
X106386456Y-99211459D01*
X106400735Y-99207882D01*
X106415296Y-99205722D01*
X106429999Y-99205000D01*
X106430001Y-99205000D01*
X106444704Y-99205722D01*
X106444704Y-99205722D01*
G37*
D13*
X106430000Y-99555000D03*
D11*
G36*
X105944704Y-99205722D02*
G01*
X105959265Y-99207882D01*
X105973544Y-99211459D01*
X105987404Y-99216418D01*
X106000711Y-99222712D01*
X106013337Y-99230280D01*
X106025160Y-99239048D01*
X106036067Y-99248934D01*
X106045953Y-99259841D01*
X106054721Y-99271664D01*
X106062289Y-99284290D01*
X106068583Y-99297597D01*
X106073542Y-99311457D01*
X106077119Y-99325736D01*
X106079279Y-99340297D01*
X106080001Y-99355000D01*
X106080001Y-99755000D01*
X106079279Y-99769703D01*
X106077119Y-99784264D01*
X106073542Y-99798543D01*
X106068583Y-99812403D01*
X106062289Y-99825710D01*
X106054721Y-99838336D01*
X106045953Y-99850159D01*
X106036067Y-99861066D01*
X106025160Y-99870952D01*
X106013337Y-99879720D01*
X106000711Y-99887288D01*
X105987404Y-99893582D01*
X105973544Y-99898541D01*
X105959265Y-99902118D01*
X105944704Y-99904278D01*
X105930001Y-99905000D01*
X105929999Y-99905000D01*
X105915296Y-99904278D01*
X105900735Y-99902118D01*
X105886456Y-99898541D01*
X105872596Y-99893582D01*
X105859289Y-99887288D01*
X105846663Y-99879720D01*
X105834840Y-99870952D01*
X105823933Y-99861066D01*
X105814047Y-99850159D01*
X105805279Y-99838336D01*
X105797711Y-99825710D01*
X105791417Y-99812403D01*
X105786458Y-99798543D01*
X105782881Y-99784264D01*
X105780721Y-99769703D01*
X105779999Y-99755000D01*
X105779999Y-99355000D01*
X105780721Y-99340297D01*
X105782881Y-99325736D01*
X105786458Y-99311457D01*
X105791417Y-99297597D01*
X105797711Y-99284290D01*
X105805279Y-99271664D01*
X105814047Y-99259841D01*
X105823933Y-99248934D01*
X105834840Y-99239048D01*
X105846663Y-99230280D01*
X105859289Y-99222712D01*
X105872596Y-99216418D01*
X105886456Y-99211459D01*
X105900735Y-99207882D01*
X105915296Y-99205722D01*
X105929999Y-99205000D01*
X105930001Y-99205000D01*
X105944704Y-99205722D01*
X105944704Y-99205722D01*
G37*
D13*
X105930000Y-99555000D03*
D11*
G36*
X105444704Y-99205722D02*
G01*
X105459265Y-99207882D01*
X105473544Y-99211459D01*
X105487404Y-99216418D01*
X105500711Y-99222712D01*
X105513337Y-99230280D01*
X105525160Y-99239048D01*
X105536067Y-99248934D01*
X105545953Y-99259841D01*
X105554721Y-99271664D01*
X105562289Y-99284290D01*
X105568583Y-99297597D01*
X105573542Y-99311457D01*
X105577119Y-99325736D01*
X105579279Y-99340297D01*
X105580001Y-99355000D01*
X105580001Y-99755000D01*
X105579279Y-99769703D01*
X105577119Y-99784264D01*
X105573542Y-99798543D01*
X105568583Y-99812403D01*
X105562289Y-99825710D01*
X105554721Y-99838336D01*
X105545953Y-99850159D01*
X105536067Y-99861066D01*
X105525160Y-99870952D01*
X105513337Y-99879720D01*
X105500711Y-99887288D01*
X105487404Y-99893582D01*
X105473544Y-99898541D01*
X105459265Y-99902118D01*
X105444704Y-99904278D01*
X105430001Y-99905000D01*
X105429999Y-99905000D01*
X105415296Y-99904278D01*
X105400735Y-99902118D01*
X105386456Y-99898541D01*
X105372596Y-99893582D01*
X105359289Y-99887288D01*
X105346663Y-99879720D01*
X105334840Y-99870952D01*
X105323933Y-99861066D01*
X105314047Y-99850159D01*
X105305279Y-99838336D01*
X105297711Y-99825710D01*
X105291417Y-99812403D01*
X105286458Y-99798543D01*
X105282881Y-99784264D01*
X105280721Y-99769703D01*
X105279999Y-99755000D01*
X105279999Y-99355000D01*
X105280721Y-99340297D01*
X105282881Y-99325736D01*
X105286458Y-99311457D01*
X105291417Y-99297597D01*
X105297711Y-99284290D01*
X105305279Y-99271664D01*
X105314047Y-99259841D01*
X105323933Y-99248934D01*
X105334840Y-99239048D01*
X105346663Y-99230280D01*
X105359289Y-99222712D01*
X105372596Y-99216418D01*
X105386456Y-99211459D01*
X105400735Y-99207882D01*
X105415296Y-99205722D01*
X105429999Y-99205000D01*
X105430001Y-99205000D01*
X105444704Y-99205722D01*
X105444704Y-99205722D01*
G37*
D13*
X105430000Y-99555000D03*
D11*
G36*
X104944704Y-99205722D02*
G01*
X104959265Y-99207882D01*
X104973544Y-99211459D01*
X104987404Y-99216418D01*
X105000711Y-99222712D01*
X105013337Y-99230280D01*
X105025160Y-99239048D01*
X105036067Y-99248934D01*
X105045953Y-99259841D01*
X105054721Y-99271664D01*
X105062289Y-99284290D01*
X105068583Y-99297597D01*
X105073542Y-99311457D01*
X105077119Y-99325736D01*
X105079279Y-99340297D01*
X105080001Y-99355000D01*
X105080001Y-99755000D01*
X105079279Y-99769703D01*
X105077119Y-99784264D01*
X105073542Y-99798543D01*
X105068583Y-99812403D01*
X105062289Y-99825710D01*
X105054721Y-99838336D01*
X105045953Y-99850159D01*
X105036067Y-99861066D01*
X105025160Y-99870952D01*
X105013337Y-99879720D01*
X105000711Y-99887288D01*
X104987404Y-99893582D01*
X104973544Y-99898541D01*
X104959265Y-99902118D01*
X104944704Y-99904278D01*
X104930001Y-99905000D01*
X104929999Y-99905000D01*
X104915296Y-99904278D01*
X104900735Y-99902118D01*
X104886456Y-99898541D01*
X104872596Y-99893582D01*
X104859289Y-99887288D01*
X104846663Y-99879720D01*
X104834840Y-99870952D01*
X104823933Y-99861066D01*
X104814047Y-99850159D01*
X104805279Y-99838336D01*
X104797711Y-99825710D01*
X104791417Y-99812403D01*
X104786458Y-99798543D01*
X104782881Y-99784264D01*
X104780721Y-99769703D01*
X104779999Y-99755000D01*
X104779999Y-99355000D01*
X104780721Y-99340297D01*
X104782881Y-99325736D01*
X104786458Y-99311457D01*
X104791417Y-99297597D01*
X104797711Y-99284290D01*
X104805279Y-99271664D01*
X104814047Y-99259841D01*
X104823933Y-99248934D01*
X104834840Y-99239048D01*
X104846663Y-99230280D01*
X104859289Y-99222712D01*
X104872596Y-99216418D01*
X104886456Y-99211459D01*
X104900735Y-99207882D01*
X104915296Y-99205722D01*
X104929999Y-99205000D01*
X104930001Y-99205000D01*
X104944704Y-99205722D01*
X104944704Y-99205722D01*
G37*
D13*
X104930000Y-99555000D03*
D11*
G36*
X109294703Y-95255721D02*
G01*
X109309264Y-95257881D01*
X109323543Y-95261458D01*
X109337403Y-95266417D01*
X109350710Y-95272711D01*
X109363336Y-95280279D01*
X109375159Y-95289047D01*
X109386066Y-95298933D01*
X109395952Y-95309840D01*
X109404720Y-95321663D01*
X109412288Y-95334289D01*
X109418582Y-95347596D01*
X109423541Y-95361456D01*
X109427118Y-95375735D01*
X109429278Y-95390296D01*
X109430000Y-95404999D01*
X109430000Y-95405001D01*
X109429278Y-95419704D01*
X109427118Y-95434265D01*
X109423541Y-95448544D01*
X109418582Y-95462404D01*
X109412288Y-95475711D01*
X109404720Y-95488337D01*
X109395952Y-95500160D01*
X109386066Y-95511067D01*
X109375159Y-95520953D01*
X109363336Y-95529721D01*
X109350710Y-95537289D01*
X109337403Y-95543583D01*
X109323543Y-95548542D01*
X109309264Y-95552119D01*
X109294703Y-95554279D01*
X109280000Y-95555001D01*
X108880000Y-95555001D01*
X108865297Y-95554279D01*
X108850736Y-95552119D01*
X108836457Y-95548542D01*
X108822597Y-95543583D01*
X108809290Y-95537289D01*
X108796664Y-95529721D01*
X108784841Y-95520953D01*
X108773934Y-95511067D01*
X108764048Y-95500160D01*
X108755280Y-95488337D01*
X108747712Y-95475711D01*
X108741418Y-95462404D01*
X108736459Y-95448544D01*
X108732882Y-95434265D01*
X108730722Y-95419704D01*
X108730000Y-95405001D01*
X108730000Y-95404999D01*
X108730722Y-95390296D01*
X108732882Y-95375735D01*
X108736459Y-95361456D01*
X108741418Y-95347596D01*
X108747712Y-95334289D01*
X108755280Y-95321663D01*
X108764048Y-95309840D01*
X108773934Y-95298933D01*
X108784841Y-95289047D01*
X108796664Y-95280279D01*
X108809290Y-95272711D01*
X108822597Y-95266417D01*
X108836457Y-95261458D01*
X108850736Y-95257881D01*
X108865297Y-95255721D01*
X108880000Y-95254999D01*
X109280000Y-95254999D01*
X109294703Y-95255721D01*
X109294703Y-95255721D01*
G37*
D13*
X109080000Y-95405000D03*
D11*
G36*
X109294703Y-95755721D02*
G01*
X109309264Y-95757881D01*
X109323543Y-95761458D01*
X109337403Y-95766417D01*
X109350710Y-95772711D01*
X109363336Y-95780279D01*
X109375159Y-95789047D01*
X109386066Y-95798933D01*
X109395952Y-95809840D01*
X109404720Y-95821663D01*
X109412288Y-95834289D01*
X109418582Y-95847596D01*
X109423541Y-95861456D01*
X109427118Y-95875735D01*
X109429278Y-95890296D01*
X109430000Y-95904999D01*
X109430000Y-95905001D01*
X109429278Y-95919704D01*
X109427118Y-95934265D01*
X109423541Y-95948544D01*
X109418582Y-95962404D01*
X109412288Y-95975711D01*
X109404720Y-95988337D01*
X109395952Y-96000160D01*
X109386066Y-96011067D01*
X109375159Y-96020953D01*
X109363336Y-96029721D01*
X109350710Y-96037289D01*
X109337403Y-96043583D01*
X109323543Y-96048542D01*
X109309264Y-96052119D01*
X109294703Y-96054279D01*
X109280000Y-96055001D01*
X108880000Y-96055001D01*
X108865297Y-96054279D01*
X108850736Y-96052119D01*
X108836457Y-96048542D01*
X108822597Y-96043583D01*
X108809290Y-96037289D01*
X108796664Y-96029721D01*
X108784841Y-96020953D01*
X108773934Y-96011067D01*
X108764048Y-96000160D01*
X108755280Y-95988337D01*
X108747712Y-95975711D01*
X108741418Y-95962404D01*
X108736459Y-95948544D01*
X108732882Y-95934265D01*
X108730722Y-95919704D01*
X108730000Y-95905001D01*
X108730000Y-95904999D01*
X108730722Y-95890296D01*
X108732882Y-95875735D01*
X108736459Y-95861456D01*
X108741418Y-95847596D01*
X108747712Y-95834289D01*
X108755280Y-95821663D01*
X108764048Y-95809840D01*
X108773934Y-95798933D01*
X108784841Y-95789047D01*
X108796664Y-95780279D01*
X108809290Y-95772711D01*
X108822597Y-95766417D01*
X108836457Y-95761458D01*
X108850736Y-95757881D01*
X108865297Y-95755721D01*
X108880000Y-95754999D01*
X109280000Y-95754999D01*
X109294703Y-95755721D01*
X109294703Y-95755721D01*
G37*
D13*
X109080000Y-95905000D03*
D11*
G36*
X109294703Y-96255721D02*
G01*
X109309264Y-96257881D01*
X109323543Y-96261458D01*
X109337403Y-96266417D01*
X109350710Y-96272711D01*
X109363336Y-96280279D01*
X109375159Y-96289047D01*
X109386066Y-96298933D01*
X109395952Y-96309840D01*
X109404720Y-96321663D01*
X109412288Y-96334289D01*
X109418582Y-96347596D01*
X109423541Y-96361456D01*
X109427118Y-96375735D01*
X109429278Y-96390296D01*
X109430000Y-96404999D01*
X109430000Y-96405001D01*
X109429278Y-96419704D01*
X109427118Y-96434265D01*
X109423541Y-96448544D01*
X109418582Y-96462404D01*
X109412288Y-96475711D01*
X109404720Y-96488337D01*
X109395952Y-96500160D01*
X109386066Y-96511067D01*
X109375159Y-96520953D01*
X109363336Y-96529721D01*
X109350710Y-96537289D01*
X109337403Y-96543583D01*
X109323543Y-96548542D01*
X109309264Y-96552119D01*
X109294703Y-96554279D01*
X109280000Y-96555001D01*
X108880000Y-96555001D01*
X108865297Y-96554279D01*
X108850736Y-96552119D01*
X108836457Y-96548542D01*
X108822597Y-96543583D01*
X108809290Y-96537289D01*
X108796664Y-96529721D01*
X108784841Y-96520953D01*
X108773934Y-96511067D01*
X108764048Y-96500160D01*
X108755280Y-96488337D01*
X108747712Y-96475711D01*
X108741418Y-96462404D01*
X108736459Y-96448544D01*
X108732882Y-96434265D01*
X108730722Y-96419704D01*
X108730000Y-96405001D01*
X108730000Y-96404999D01*
X108730722Y-96390296D01*
X108732882Y-96375735D01*
X108736459Y-96361456D01*
X108741418Y-96347596D01*
X108747712Y-96334289D01*
X108755280Y-96321663D01*
X108764048Y-96309840D01*
X108773934Y-96298933D01*
X108784841Y-96289047D01*
X108796664Y-96280279D01*
X108809290Y-96272711D01*
X108822597Y-96266417D01*
X108836457Y-96261458D01*
X108850736Y-96257881D01*
X108865297Y-96255721D01*
X108880000Y-96254999D01*
X109280000Y-96254999D01*
X109294703Y-96255721D01*
X109294703Y-96255721D01*
G37*
D13*
X109080000Y-96405000D03*
D11*
G36*
X109294703Y-96755721D02*
G01*
X109309264Y-96757881D01*
X109323543Y-96761458D01*
X109337403Y-96766417D01*
X109350710Y-96772711D01*
X109363336Y-96780279D01*
X109375159Y-96789047D01*
X109386066Y-96798933D01*
X109395952Y-96809840D01*
X109404720Y-96821663D01*
X109412288Y-96834289D01*
X109418582Y-96847596D01*
X109423541Y-96861456D01*
X109427118Y-96875735D01*
X109429278Y-96890296D01*
X109430000Y-96904999D01*
X109430000Y-96905001D01*
X109429278Y-96919704D01*
X109427118Y-96934265D01*
X109423541Y-96948544D01*
X109418582Y-96962404D01*
X109412288Y-96975711D01*
X109404720Y-96988337D01*
X109395952Y-97000160D01*
X109386066Y-97011067D01*
X109375159Y-97020953D01*
X109363336Y-97029721D01*
X109350710Y-97037289D01*
X109337403Y-97043583D01*
X109323543Y-97048542D01*
X109309264Y-97052119D01*
X109294703Y-97054279D01*
X109280000Y-97055001D01*
X108880000Y-97055001D01*
X108865297Y-97054279D01*
X108850736Y-97052119D01*
X108836457Y-97048542D01*
X108822597Y-97043583D01*
X108809290Y-97037289D01*
X108796664Y-97029721D01*
X108784841Y-97020953D01*
X108773934Y-97011067D01*
X108764048Y-97000160D01*
X108755280Y-96988337D01*
X108747712Y-96975711D01*
X108741418Y-96962404D01*
X108736459Y-96948544D01*
X108732882Y-96934265D01*
X108730722Y-96919704D01*
X108730000Y-96905001D01*
X108730000Y-96904999D01*
X108730722Y-96890296D01*
X108732882Y-96875735D01*
X108736459Y-96861456D01*
X108741418Y-96847596D01*
X108747712Y-96834289D01*
X108755280Y-96821663D01*
X108764048Y-96809840D01*
X108773934Y-96798933D01*
X108784841Y-96789047D01*
X108796664Y-96780279D01*
X108809290Y-96772711D01*
X108822597Y-96766417D01*
X108836457Y-96761458D01*
X108850736Y-96757881D01*
X108865297Y-96755721D01*
X108880000Y-96754999D01*
X109280000Y-96754999D01*
X109294703Y-96755721D01*
X109294703Y-96755721D01*
G37*
D13*
X109080000Y-96905000D03*
D11*
G36*
X109294703Y-97255721D02*
G01*
X109309264Y-97257881D01*
X109323543Y-97261458D01*
X109337403Y-97266417D01*
X109350710Y-97272711D01*
X109363336Y-97280279D01*
X109375159Y-97289047D01*
X109386066Y-97298933D01*
X109395952Y-97309840D01*
X109404720Y-97321663D01*
X109412288Y-97334289D01*
X109418582Y-97347596D01*
X109423541Y-97361456D01*
X109427118Y-97375735D01*
X109429278Y-97390296D01*
X109430000Y-97404999D01*
X109430000Y-97405001D01*
X109429278Y-97419704D01*
X109427118Y-97434265D01*
X109423541Y-97448544D01*
X109418582Y-97462404D01*
X109412288Y-97475711D01*
X109404720Y-97488337D01*
X109395952Y-97500160D01*
X109386066Y-97511067D01*
X109375159Y-97520953D01*
X109363336Y-97529721D01*
X109350710Y-97537289D01*
X109337403Y-97543583D01*
X109323543Y-97548542D01*
X109309264Y-97552119D01*
X109294703Y-97554279D01*
X109280000Y-97555001D01*
X108880000Y-97555001D01*
X108865297Y-97554279D01*
X108850736Y-97552119D01*
X108836457Y-97548542D01*
X108822597Y-97543583D01*
X108809290Y-97537289D01*
X108796664Y-97529721D01*
X108784841Y-97520953D01*
X108773934Y-97511067D01*
X108764048Y-97500160D01*
X108755280Y-97488337D01*
X108747712Y-97475711D01*
X108741418Y-97462404D01*
X108736459Y-97448544D01*
X108732882Y-97434265D01*
X108730722Y-97419704D01*
X108730000Y-97405001D01*
X108730000Y-97404999D01*
X108730722Y-97390296D01*
X108732882Y-97375735D01*
X108736459Y-97361456D01*
X108741418Y-97347596D01*
X108747712Y-97334289D01*
X108755280Y-97321663D01*
X108764048Y-97309840D01*
X108773934Y-97298933D01*
X108784841Y-97289047D01*
X108796664Y-97280279D01*
X108809290Y-97272711D01*
X108822597Y-97266417D01*
X108836457Y-97261458D01*
X108850736Y-97257881D01*
X108865297Y-97255721D01*
X108880000Y-97254999D01*
X109280000Y-97254999D01*
X109294703Y-97255721D01*
X109294703Y-97255721D01*
G37*
D13*
X109080000Y-97405000D03*
D11*
G36*
X109294703Y-97755721D02*
G01*
X109309264Y-97757881D01*
X109323543Y-97761458D01*
X109337403Y-97766417D01*
X109350710Y-97772711D01*
X109363336Y-97780279D01*
X109375159Y-97789047D01*
X109386066Y-97798933D01*
X109395952Y-97809840D01*
X109404720Y-97821663D01*
X109412288Y-97834289D01*
X109418582Y-97847596D01*
X109423541Y-97861456D01*
X109427118Y-97875735D01*
X109429278Y-97890296D01*
X109430000Y-97904999D01*
X109430000Y-97905001D01*
X109429278Y-97919704D01*
X109427118Y-97934265D01*
X109423541Y-97948544D01*
X109418582Y-97962404D01*
X109412288Y-97975711D01*
X109404720Y-97988337D01*
X109395952Y-98000160D01*
X109386066Y-98011067D01*
X109375159Y-98020953D01*
X109363336Y-98029721D01*
X109350710Y-98037289D01*
X109337403Y-98043583D01*
X109323543Y-98048542D01*
X109309264Y-98052119D01*
X109294703Y-98054279D01*
X109280000Y-98055001D01*
X108880000Y-98055001D01*
X108865297Y-98054279D01*
X108850736Y-98052119D01*
X108836457Y-98048542D01*
X108822597Y-98043583D01*
X108809290Y-98037289D01*
X108796664Y-98029721D01*
X108784841Y-98020953D01*
X108773934Y-98011067D01*
X108764048Y-98000160D01*
X108755280Y-97988337D01*
X108747712Y-97975711D01*
X108741418Y-97962404D01*
X108736459Y-97948544D01*
X108732882Y-97934265D01*
X108730722Y-97919704D01*
X108730000Y-97905001D01*
X108730000Y-97904999D01*
X108730722Y-97890296D01*
X108732882Y-97875735D01*
X108736459Y-97861456D01*
X108741418Y-97847596D01*
X108747712Y-97834289D01*
X108755280Y-97821663D01*
X108764048Y-97809840D01*
X108773934Y-97798933D01*
X108784841Y-97789047D01*
X108796664Y-97780279D01*
X108809290Y-97772711D01*
X108822597Y-97766417D01*
X108836457Y-97761458D01*
X108850736Y-97757881D01*
X108865297Y-97755721D01*
X108880000Y-97754999D01*
X109280000Y-97754999D01*
X109294703Y-97755721D01*
X109294703Y-97755721D01*
G37*
D13*
X109080000Y-97905000D03*
D11*
G36*
X109294703Y-98255721D02*
G01*
X109309264Y-98257881D01*
X109323543Y-98261458D01*
X109337403Y-98266417D01*
X109350710Y-98272711D01*
X109363336Y-98280279D01*
X109375159Y-98289047D01*
X109386066Y-98298933D01*
X109395952Y-98309840D01*
X109404720Y-98321663D01*
X109412288Y-98334289D01*
X109418582Y-98347596D01*
X109423541Y-98361456D01*
X109427118Y-98375735D01*
X109429278Y-98390296D01*
X109430000Y-98404999D01*
X109430000Y-98405001D01*
X109429278Y-98419704D01*
X109427118Y-98434265D01*
X109423541Y-98448544D01*
X109418582Y-98462404D01*
X109412288Y-98475711D01*
X109404720Y-98488337D01*
X109395952Y-98500160D01*
X109386066Y-98511067D01*
X109375159Y-98520953D01*
X109363336Y-98529721D01*
X109350710Y-98537289D01*
X109337403Y-98543583D01*
X109323543Y-98548542D01*
X109309264Y-98552119D01*
X109294703Y-98554279D01*
X109280000Y-98555001D01*
X108880000Y-98555001D01*
X108865297Y-98554279D01*
X108850736Y-98552119D01*
X108836457Y-98548542D01*
X108822597Y-98543583D01*
X108809290Y-98537289D01*
X108796664Y-98529721D01*
X108784841Y-98520953D01*
X108773934Y-98511067D01*
X108764048Y-98500160D01*
X108755280Y-98488337D01*
X108747712Y-98475711D01*
X108741418Y-98462404D01*
X108736459Y-98448544D01*
X108732882Y-98434265D01*
X108730722Y-98419704D01*
X108730000Y-98405001D01*
X108730000Y-98404999D01*
X108730722Y-98390296D01*
X108732882Y-98375735D01*
X108736459Y-98361456D01*
X108741418Y-98347596D01*
X108747712Y-98334289D01*
X108755280Y-98321663D01*
X108764048Y-98309840D01*
X108773934Y-98298933D01*
X108784841Y-98289047D01*
X108796664Y-98280279D01*
X108809290Y-98272711D01*
X108822597Y-98266417D01*
X108836457Y-98261458D01*
X108850736Y-98257881D01*
X108865297Y-98255721D01*
X108880000Y-98254999D01*
X109280000Y-98254999D01*
X109294703Y-98255721D01*
X109294703Y-98255721D01*
G37*
D13*
X109080000Y-98405000D03*
D11*
G36*
X109294703Y-98755721D02*
G01*
X109309264Y-98757881D01*
X109323543Y-98761458D01*
X109337403Y-98766417D01*
X109350710Y-98772711D01*
X109363336Y-98780279D01*
X109375159Y-98789047D01*
X109386066Y-98798933D01*
X109395952Y-98809840D01*
X109404720Y-98821663D01*
X109412288Y-98834289D01*
X109418582Y-98847596D01*
X109423541Y-98861456D01*
X109427118Y-98875735D01*
X109429278Y-98890296D01*
X109430000Y-98904999D01*
X109430000Y-98905001D01*
X109429278Y-98919704D01*
X109427118Y-98934265D01*
X109423541Y-98948544D01*
X109418582Y-98962404D01*
X109412288Y-98975711D01*
X109404720Y-98988337D01*
X109395952Y-99000160D01*
X109386066Y-99011067D01*
X109375159Y-99020953D01*
X109363336Y-99029721D01*
X109350710Y-99037289D01*
X109337403Y-99043583D01*
X109323543Y-99048542D01*
X109309264Y-99052119D01*
X109294703Y-99054279D01*
X109280000Y-99055001D01*
X108880000Y-99055001D01*
X108865297Y-99054279D01*
X108850736Y-99052119D01*
X108836457Y-99048542D01*
X108822597Y-99043583D01*
X108809290Y-99037289D01*
X108796664Y-99029721D01*
X108784841Y-99020953D01*
X108773934Y-99011067D01*
X108764048Y-99000160D01*
X108755280Y-98988337D01*
X108747712Y-98975711D01*
X108741418Y-98962404D01*
X108736459Y-98948544D01*
X108732882Y-98934265D01*
X108730722Y-98919704D01*
X108730000Y-98905001D01*
X108730000Y-98904999D01*
X108730722Y-98890296D01*
X108732882Y-98875735D01*
X108736459Y-98861456D01*
X108741418Y-98847596D01*
X108747712Y-98834289D01*
X108755280Y-98821663D01*
X108764048Y-98809840D01*
X108773934Y-98798933D01*
X108784841Y-98789047D01*
X108796664Y-98780279D01*
X108809290Y-98772711D01*
X108822597Y-98766417D01*
X108836457Y-98761458D01*
X108850736Y-98757881D01*
X108865297Y-98755721D01*
X108880000Y-98754999D01*
X109280000Y-98754999D01*
X109294703Y-98755721D01*
X109294703Y-98755721D01*
G37*
D13*
X109080000Y-98905000D03*
D11*
G36*
X104494703Y-98755721D02*
G01*
X104509264Y-98757881D01*
X104523543Y-98761458D01*
X104537403Y-98766417D01*
X104550710Y-98772711D01*
X104563336Y-98780279D01*
X104575159Y-98789047D01*
X104586066Y-98798933D01*
X104595952Y-98809840D01*
X104604720Y-98821663D01*
X104612288Y-98834289D01*
X104618582Y-98847596D01*
X104623541Y-98861456D01*
X104627118Y-98875735D01*
X104629278Y-98890296D01*
X104630000Y-98904999D01*
X104630000Y-98905001D01*
X104629278Y-98919704D01*
X104627118Y-98934265D01*
X104623541Y-98948544D01*
X104618582Y-98962404D01*
X104612288Y-98975711D01*
X104604720Y-98988337D01*
X104595952Y-99000160D01*
X104586066Y-99011067D01*
X104575159Y-99020953D01*
X104563336Y-99029721D01*
X104550710Y-99037289D01*
X104537403Y-99043583D01*
X104523543Y-99048542D01*
X104509264Y-99052119D01*
X104494703Y-99054279D01*
X104480000Y-99055001D01*
X104080000Y-99055001D01*
X104065297Y-99054279D01*
X104050736Y-99052119D01*
X104036457Y-99048542D01*
X104022597Y-99043583D01*
X104009290Y-99037289D01*
X103996664Y-99029721D01*
X103984841Y-99020953D01*
X103973934Y-99011067D01*
X103964048Y-99000160D01*
X103955280Y-98988337D01*
X103947712Y-98975711D01*
X103941418Y-98962404D01*
X103936459Y-98948544D01*
X103932882Y-98934265D01*
X103930722Y-98919704D01*
X103930000Y-98905001D01*
X103930000Y-98904999D01*
X103930722Y-98890296D01*
X103932882Y-98875735D01*
X103936459Y-98861456D01*
X103941418Y-98847596D01*
X103947712Y-98834289D01*
X103955280Y-98821663D01*
X103964048Y-98809840D01*
X103973934Y-98798933D01*
X103984841Y-98789047D01*
X103996664Y-98780279D01*
X104009290Y-98772711D01*
X104022597Y-98766417D01*
X104036457Y-98761458D01*
X104050736Y-98757881D01*
X104065297Y-98755721D01*
X104080000Y-98754999D01*
X104480000Y-98754999D01*
X104494703Y-98755721D01*
X104494703Y-98755721D01*
G37*
D13*
X104280000Y-98905000D03*
D11*
G36*
X104494703Y-98255721D02*
G01*
X104509264Y-98257881D01*
X104523543Y-98261458D01*
X104537403Y-98266417D01*
X104550710Y-98272711D01*
X104563336Y-98280279D01*
X104575159Y-98289047D01*
X104586066Y-98298933D01*
X104595952Y-98309840D01*
X104604720Y-98321663D01*
X104612288Y-98334289D01*
X104618582Y-98347596D01*
X104623541Y-98361456D01*
X104627118Y-98375735D01*
X104629278Y-98390296D01*
X104630000Y-98404999D01*
X104630000Y-98405001D01*
X104629278Y-98419704D01*
X104627118Y-98434265D01*
X104623541Y-98448544D01*
X104618582Y-98462404D01*
X104612288Y-98475711D01*
X104604720Y-98488337D01*
X104595952Y-98500160D01*
X104586066Y-98511067D01*
X104575159Y-98520953D01*
X104563336Y-98529721D01*
X104550710Y-98537289D01*
X104537403Y-98543583D01*
X104523543Y-98548542D01*
X104509264Y-98552119D01*
X104494703Y-98554279D01*
X104480000Y-98555001D01*
X104080000Y-98555001D01*
X104065297Y-98554279D01*
X104050736Y-98552119D01*
X104036457Y-98548542D01*
X104022597Y-98543583D01*
X104009290Y-98537289D01*
X103996664Y-98529721D01*
X103984841Y-98520953D01*
X103973934Y-98511067D01*
X103964048Y-98500160D01*
X103955280Y-98488337D01*
X103947712Y-98475711D01*
X103941418Y-98462404D01*
X103936459Y-98448544D01*
X103932882Y-98434265D01*
X103930722Y-98419704D01*
X103930000Y-98405001D01*
X103930000Y-98404999D01*
X103930722Y-98390296D01*
X103932882Y-98375735D01*
X103936459Y-98361456D01*
X103941418Y-98347596D01*
X103947712Y-98334289D01*
X103955280Y-98321663D01*
X103964048Y-98309840D01*
X103973934Y-98298933D01*
X103984841Y-98289047D01*
X103996664Y-98280279D01*
X104009290Y-98272711D01*
X104022597Y-98266417D01*
X104036457Y-98261458D01*
X104050736Y-98257881D01*
X104065297Y-98255721D01*
X104080000Y-98254999D01*
X104480000Y-98254999D01*
X104494703Y-98255721D01*
X104494703Y-98255721D01*
G37*
D13*
X104280000Y-98405000D03*
D11*
G36*
X104494703Y-97755721D02*
G01*
X104509264Y-97757881D01*
X104523543Y-97761458D01*
X104537403Y-97766417D01*
X104550710Y-97772711D01*
X104563336Y-97780279D01*
X104575159Y-97789047D01*
X104586066Y-97798933D01*
X104595952Y-97809840D01*
X104604720Y-97821663D01*
X104612288Y-97834289D01*
X104618582Y-97847596D01*
X104623541Y-97861456D01*
X104627118Y-97875735D01*
X104629278Y-97890296D01*
X104630000Y-97904999D01*
X104630000Y-97905001D01*
X104629278Y-97919704D01*
X104627118Y-97934265D01*
X104623541Y-97948544D01*
X104618582Y-97962404D01*
X104612288Y-97975711D01*
X104604720Y-97988337D01*
X104595952Y-98000160D01*
X104586066Y-98011067D01*
X104575159Y-98020953D01*
X104563336Y-98029721D01*
X104550710Y-98037289D01*
X104537403Y-98043583D01*
X104523543Y-98048542D01*
X104509264Y-98052119D01*
X104494703Y-98054279D01*
X104480000Y-98055001D01*
X104080000Y-98055001D01*
X104065297Y-98054279D01*
X104050736Y-98052119D01*
X104036457Y-98048542D01*
X104022597Y-98043583D01*
X104009290Y-98037289D01*
X103996664Y-98029721D01*
X103984841Y-98020953D01*
X103973934Y-98011067D01*
X103964048Y-98000160D01*
X103955280Y-97988337D01*
X103947712Y-97975711D01*
X103941418Y-97962404D01*
X103936459Y-97948544D01*
X103932882Y-97934265D01*
X103930722Y-97919704D01*
X103930000Y-97905001D01*
X103930000Y-97904999D01*
X103930722Y-97890296D01*
X103932882Y-97875735D01*
X103936459Y-97861456D01*
X103941418Y-97847596D01*
X103947712Y-97834289D01*
X103955280Y-97821663D01*
X103964048Y-97809840D01*
X103973934Y-97798933D01*
X103984841Y-97789047D01*
X103996664Y-97780279D01*
X104009290Y-97772711D01*
X104022597Y-97766417D01*
X104036457Y-97761458D01*
X104050736Y-97757881D01*
X104065297Y-97755721D01*
X104080000Y-97754999D01*
X104480000Y-97754999D01*
X104494703Y-97755721D01*
X104494703Y-97755721D01*
G37*
D13*
X104280000Y-97905000D03*
D11*
G36*
X104494703Y-97255721D02*
G01*
X104509264Y-97257881D01*
X104523543Y-97261458D01*
X104537403Y-97266417D01*
X104550710Y-97272711D01*
X104563336Y-97280279D01*
X104575159Y-97289047D01*
X104586066Y-97298933D01*
X104595952Y-97309840D01*
X104604720Y-97321663D01*
X104612288Y-97334289D01*
X104618582Y-97347596D01*
X104623541Y-97361456D01*
X104627118Y-97375735D01*
X104629278Y-97390296D01*
X104630000Y-97404999D01*
X104630000Y-97405001D01*
X104629278Y-97419704D01*
X104627118Y-97434265D01*
X104623541Y-97448544D01*
X104618582Y-97462404D01*
X104612288Y-97475711D01*
X104604720Y-97488337D01*
X104595952Y-97500160D01*
X104586066Y-97511067D01*
X104575159Y-97520953D01*
X104563336Y-97529721D01*
X104550710Y-97537289D01*
X104537403Y-97543583D01*
X104523543Y-97548542D01*
X104509264Y-97552119D01*
X104494703Y-97554279D01*
X104480000Y-97555001D01*
X104080000Y-97555001D01*
X104065297Y-97554279D01*
X104050736Y-97552119D01*
X104036457Y-97548542D01*
X104022597Y-97543583D01*
X104009290Y-97537289D01*
X103996664Y-97529721D01*
X103984841Y-97520953D01*
X103973934Y-97511067D01*
X103964048Y-97500160D01*
X103955280Y-97488337D01*
X103947712Y-97475711D01*
X103941418Y-97462404D01*
X103936459Y-97448544D01*
X103932882Y-97434265D01*
X103930722Y-97419704D01*
X103930000Y-97405001D01*
X103930000Y-97404999D01*
X103930722Y-97390296D01*
X103932882Y-97375735D01*
X103936459Y-97361456D01*
X103941418Y-97347596D01*
X103947712Y-97334289D01*
X103955280Y-97321663D01*
X103964048Y-97309840D01*
X103973934Y-97298933D01*
X103984841Y-97289047D01*
X103996664Y-97280279D01*
X104009290Y-97272711D01*
X104022597Y-97266417D01*
X104036457Y-97261458D01*
X104050736Y-97257881D01*
X104065297Y-97255721D01*
X104080000Y-97254999D01*
X104480000Y-97254999D01*
X104494703Y-97255721D01*
X104494703Y-97255721D01*
G37*
D13*
X104280000Y-97405000D03*
D11*
G36*
X104494703Y-96755721D02*
G01*
X104509264Y-96757881D01*
X104523543Y-96761458D01*
X104537403Y-96766417D01*
X104550710Y-96772711D01*
X104563336Y-96780279D01*
X104575159Y-96789047D01*
X104586066Y-96798933D01*
X104595952Y-96809840D01*
X104604720Y-96821663D01*
X104612288Y-96834289D01*
X104618582Y-96847596D01*
X104623541Y-96861456D01*
X104627118Y-96875735D01*
X104629278Y-96890296D01*
X104630000Y-96904999D01*
X104630000Y-96905001D01*
X104629278Y-96919704D01*
X104627118Y-96934265D01*
X104623541Y-96948544D01*
X104618582Y-96962404D01*
X104612288Y-96975711D01*
X104604720Y-96988337D01*
X104595952Y-97000160D01*
X104586066Y-97011067D01*
X104575159Y-97020953D01*
X104563336Y-97029721D01*
X104550710Y-97037289D01*
X104537403Y-97043583D01*
X104523543Y-97048542D01*
X104509264Y-97052119D01*
X104494703Y-97054279D01*
X104480000Y-97055001D01*
X104080000Y-97055001D01*
X104065297Y-97054279D01*
X104050736Y-97052119D01*
X104036457Y-97048542D01*
X104022597Y-97043583D01*
X104009290Y-97037289D01*
X103996664Y-97029721D01*
X103984841Y-97020953D01*
X103973934Y-97011067D01*
X103964048Y-97000160D01*
X103955280Y-96988337D01*
X103947712Y-96975711D01*
X103941418Y-96962404D01*
X103936459Y-96948544D01*
X103932882Y-96934265D01*
X103930722Y-96919704D01*
X103930000Y-96905001D01*
X103930000Y-96904999D01*
X103930722Y-96890296D01*
X103932882Y-96875735D01*
X103936459Y-96861456D01*
X103941418Y-96847596D01*
X103947712Y-96834289D01*
X103955280Y-96821663D01*
X103964048Y-96809840D01*
X103973934Y-96798933D01*
X103984841Y-96789047D01*
X103996664Y-96780279D01*
X104009290Y-96772711D01*
X104022597Y-96766417D01*
X104036457Y-96761458D01*
X104050736Y-96757881D01*
X104065297Y-96755721D01*
X104080000Y-96754999D01*
X104480000Y-96754999D01*
X104494703Y-96755721D01*
X104494703Y-96755721D01*
G37*
D13*
X104280000Y-96905000D03*
D11*
G36*
X104494703Y-96255721D02*
G01*
X104509264Y-96257881D01*
X104523543Y-96261458D01*
X104537403Y-96266417D01*
X104550710Y-96272711D01*
X104563336Y-96280279D01*
X104575159Y-96289047D01*
X104586066Y-96298933D01*
X104595952Y-96309840D01*
X104604720Y-96321663D01*
X104612288Y-96334289D01*
X104618582Y-96347596D01*
X104623541Y-96361456D01*
X104627118Y-96375735D01*
X104629278Y-96390296D01*
X104630000Y-96404999D01*
X104630000Y-96405001D01*
X104629278Y-96419704D01*
X104627118Y-96434265D01*
X104623541Y-96448544D01*
X104618582Y-96462404D01*
X104612288Y-96475711D01*
X104604720Y-96488337D01*
X104595952Y-96500160D01*
X104586066Y-96511067D01*
X104575159Y-96520953D01*
X104563336Y-96529721D01*
X104550710Y-96537289D01*
X104537403Y-96543583D01*
X104523543Y-96548542D01*
X104509264Y-96552119D01*
X104494703Y-96554279D01*
X104480000Y-96555001D01*
X104080000Y-96555001D01*
X104065297Y-96554279D01*
X104050736Y-96552119D01*
X104036457Y-96548542D01*
X104022597Y-96543583D01*
X104009290Y-96537289D01*
X103996664Y-96529721D01*
X103984841Y-96520953D01*
X103973934Y-96511067D01*
X103964048Y-96500160D01*
X103955280Y-96488337D01*
X103947712Y-96475711D01*
X103941418Y-96462404D01*
X103936459Y-96448544D01*
X103932882Y-96434265D01*
X103930722Y-96419704D01*
X103930000Y-96405001D01*
X103930000Y-96404999D01*
X103930722Y-96390296D01*
X103932882Y-96375735D01*
X103936459Y-96361456D01*
X103941418Y-96347596D01*
X103947712Y-96334289D01*
X103955280Y-96321663D01*
X103964048Y-96309840D01*
X103973934Y-96298933D01*
X103984841Y-96289047D01*
X103996664Y-96280279D01*
X104009290Y-96272711D01*
X104022597Y-96266417D01*
X104036457Y-96261458D01*
X104050736Y-96257881D01*
X104065297Y-96255721D01*
X104080000Y-96254999D01*
X104480000Y-96254999D01*
X104494703Y-96255721D01*
X104494703Y-96255721D01*
G37*
D13*
X104280000Y-96405000D03*
D11*
G36*
X104494703Y-95755721D02*
G01*
X104509264Y-95757881D01*
X104523543Y-95761458D01*
X104537403Y-95766417D01*
X104550710Y-95772711D01*
X104563336Y-95780279D01*
X104575159Y-95789047D01*
X104586066Y-95798933D01*
X104595952Y-95809840D01*
X104604720Y-95821663D01*
X104612288Y-95834289D01*
X104618582Y-95847596D01*
X104623541Y-95861456D01*
X104627118Y-95875735D01*
X104629278Y-95890296D01*
X104630000Y-95904999D01*
X104630000Y-95905001D01*
X104629278Y-95919704D01*
X104627118Y-95934265D01*
X104623541Y-95948544D01*
X104618582Y-95962404D01*
X104612288Y-95975711D01*
X104604720Y-95988337D01*
X104595952Y-96000160D01*
X104586066Y-96011067D01*
X104575159Y-96020953D01*
X104563336Y-96029721D01*
X104550710Y-96037289D01*
X104537403Y-96043583D01*
X104523543Y-96048542D01*
X104509264Y-96052119D01*
X104494703Y-96054279D01*
X104480000Y-96055001D01*
X104080000Y-96055001D01*
X104065297Y-96054279D01*
X104050736Y-96052119D01*
X104036457Y-96048542D01*
X104022597Y-96043583D01*
X104009290Y-96037289D01*
X103996664Y-96029721D01*
X103984841Y-96020953D01*
X103973934Y-96011067D01*
X103964048Y-96000160D01*
X103955280Y-95988337D01*
X103947712Y-95975711D01*
X103941418Y-95962404D01*
X103936459Y-95948544D01*
X103932882Y-95934265D01*
X103930722Y-95919704D01*
X103930000Y-95905001D01*
X103930000Y-95904999D01*
X103930722Y-95890296D01*
X103932882Y-95875735D01*
X103936459Y-95861456D01*
X103941418Y-95847596D01*
X103947712Y-95834289D01*
X103955280Y-95821663D01*
X103964048Y-95809840D01*
X103973934Y-95798933D01*
X103984841Y-95789047D01*
X103996664Y-95780279D01*
X104009290Y-95772711D01*
X104022597Y-95766417D01*
X104036457Y-95761458D01*
X104050736Y-95757881D01*
X104065297Y-95755721D01*
X104080000Y-95754999D01*
X104480000Y-95754999D01*
X104494703Y-95755721D01*
X104494703Y-95755721D01*
G37*
D13*
X104280000Y-95905000D03*
D11*
G36*
X104494703Y-95255721D02*
G01*
X104509264Y-95257881D01*
X104523543Y-95261458D01*
X104537403Y-95266417D01*
X104550710Y-95272711D01*
X104563336Y-95280279D01*
X104575159Y-95289047D01*
X104586066Y-95298933D01*
X104595952Y-95309840D01*
X104604720Y-95321663D01*
X104612288Y-95334289D01*
X104618582Y-95347596D01*
X104623541Y-95361456D01*
X104627118Y-95375735D01*
X104629278Y-95390296D01*
X104630000Y-95404999D01*
X104630000Y-95405001D01*
X104629278Y-95419704D01*
X104627118Y-95434265D01*
X104623541Y-95448544D01*
X104618582Y-95462404D01*
X104612288Y-95475711D01*
X104604720Y-95488337D01*
X104595952Y-95500160D01*
X104586066Y-95511067D01*
X104575159Y-95520953D01*
X104563336Y-95529721D01*
X104550710Y-95537289D01*
X104537403Y-95543583D01*
X104523543Y-95548542D01*
X104509264Y-95552119D01*
X104494703Y-95554279D01*
X104480000Y-95555001D01*
X104080000Y-95555001D01*
X104065297Y-95554279D01*
X104050736Y-95552119D01*
X104036457Y-95548542D01*
X104022597Y-95543583D01*
X104009290Y-95537289D01*
X103996664Y-95529721D01*
X103984841Y-95520953D01*
X103973934Y-95511067D01*
X103964048Y-95500160D01*
X103955280Y-95488337D01*
X103947712Y-95475711D01*
X103941418Y-95462404D01*
X103936459Y-95448544D01*
X103932882Y-95434265D01*
X103930722Y-95419704D01*
X103930000Y-95405001D01*
X103930000Y-95404999D01*
X103930722Y-95390296D01*
X103932882Y-95375735D01*
X103936459Y-95361456D01*
X103941418Y-95347596D01*
X103947712Y-95334289D01*
X103955280Y-95321663D01*
X103964048Y-95309840D01*
X103973934Y-95298933D01*
X103984841Y-95289047D01*
X103996664Y-95280279D01*
X104009290Y-95272711D01*
X104022597Y-95266417D01*
X104036457Y-95261458D01*
X104050736Y-95257881D01*
X104065297Y-95255721D01*
X104080000Y-95254999D01*
X104480000Y-95254999D01*
X104494703Y-95255721D01*
X104494703Y-95255721D01*
G37*
D13*
X104280000Y-95405000D03*
%TD*%
D14*
%TO.C,CLK1*%
X118110000Y-99890000D03*
X113030000Y-99890000D03*
X113030000Y-95690000D03*
X118110000Y-95690000D03*
%TD*%
D15*
%TO.C,D1*%
X98284000Y-73992000D03*
X98284000Y-76122000D03*
D16*
X94484000Y-75057000D03*
%TD*%
D17*
%TO.C,R1*%
X90576400Y-88265000D03*
X88493600Y-88265000D03*
%TD*%
%TO.C,R2*%
X131216400Y-92075000D03*
X129133600Y-92075000D03*
%TD*%
%TO.C,R3*%
X103276400Y-83185000D03*
X101193600Y-83185000D03*
%TD*%
D18*
%TO.C,R4*%
X106045000Y-75158600D03*
X106045000Y-77241400D03*
%TD*%
D17*
%TO.C,R5*%
X112623600Y-83185000D03*
X114706400Y-83185000D03*
%TD*%
D18*
%TO.C,R6*%
X113665000Y-75158600D03*
X113665000Y-77241400D03*
%TD*%
D19*
%TO.C,U2*%
X88235000Y-90490000D03*
X88235000Y-92390000D03*
X90835000Y-92390000D03*
X90835000Y-91440000D03*
X90835000Y-90490000D03*
%TD*%
D20*
%TO.C,U3*%
X151765000Y-78945000D03*
X150495000Y-78945000D03*
X149225000Y-78945000D03*
X147955000Y-78945000D03*
X146685000Y-78945000D03*
X145415000Y-78945000D03*
X144145000Y-78945000D03*
X142875000Y-78945000D03*
X141605000Y-78945000D03*
X140335000Y-78945000D03*
X140335000Y-69645000D03*
X141605000Y-69645000D03*
X142875000Y-69645000D03*
X144145000Y-69645000D03*
X145415000Y-69645000D03*
X146685000Y-69645000D03*
X147955000Y-69645000D03*
X149225000Y-69645000D03*
X150495000Y-69645000D03*
X151765000Y-69645000D03*
%TD*%
D19*
%TO.C,U4*%
X128875000Y-94935000D03*
X128875000Y-96835000D03*
X131475000Y-96835000D03*
X131475000Y-95885000D03*
X131475000Y-94935000D03*
%TD*%
D17*
%TO.C,C1*%
X114528600Y-92075000D03*
X116611400Y-92075000D03*
%TD*%
%TO.C,C2*%
X98196400Y-102235000D03*
X96113600Y-102235000D03*
%TD*%
%TO.C,C3*%
X99923600Y-102235000D03*
X102006400Y-102235000D03*
%TD*%
D18*
%TO.C,C4*%
X100965000Y-94208600D03*
X100965000Y-96291400D03*
%TD*%
%TO.C,C5*%
X154305000Y-75336400D03*
X154305000Y-73253600D03*
%TD*%
D17*
%TO.C,C7*%
X123596400Y-92075000D03*
X121513600Y-92075000D03*
%TD*%
D18*
%TO.C,C8*%
X104140000Y-88671400D03*
X104140000Y-86588600D03*
%TD*%
%TO.C,C9*%
X100965000Y-88671400D03*
X100965000Y-86588600D03*
%TD*%
%TO.C,C10*%
X97790000Y-88671400D03*
X97790000Y-86588600D03*
%TD*%
%TO.C,C11*%
X94615000Y-81051400D03*
X94615000Y-78968600D03*
%TD*%
D21*
%TO.C,U5*%
X98739960Y-78811120D03*
X97790000Y-78811120D03*
X96840040Y-78811120D03*
X96840040Y-81208880D03*
X97790000Y-81208880D03*
X98739960Y-81208880D03*
%TD*%
D22*
%TO.C,U6*%
X106045000Y-88515000D03*
X107315000Y-88515000D03*
X108585000Y-88515000D03*
X109855000Y-88515000D03*
X109855000Y-82935000D03*
X108585000Y-82935000D03*
X107315000Y-82935000D03*
X106045000Y-82935000D03*
%TD*%
M02*
