M48
;DRILL file {KiCad no-vcs-found-1929727~60~ubuntu16.04.1} date Wed Oct 25 16:01:12 2017
;FORMAT={-:-/ absolute / inch / decimal}
FMAT,2
INCH,TZ
T1C0.025
T2C0.039
T3C0.043
T4C0.047
T5C0.055
T6C0.061
T7C0.063
T8C0.079
T9C0.106
T10C0.124
T11C0.130
%
G90
G05
M72
T1
X3.7329Y-3.8141
X3.7396Y-3.5472
X3.7403Y-3.8544
X3.7963Y-3.5965
X3.8288Y-3.1469
X3.9161Y-3.4936
X3.9794Y-3.3488
X4.1037Y-3.5496
X4.1342Y-3.3809
X4.4028Y-3.3965
X4.5242Y-3.711
T2
X3.8Y-3.925
X3.9Y-3.925
X4.Y-3.925
T3
X3.475Y-2.8
X3.475Y-4.2
X3.575Y-2.8
X3.575Y-4.2
X3.675Y-2.8
X3.675Y-4.2
X3.775Y-2.8
X3.775Y-4.2
X3.875Y-2.8
X3.875Y-4.2
X3.975Y-2.8
X3.975Y-4.2
X4.075Y-2.8
X4.075Y-4.2
X4.175Y-2.8
X4.175Y-4.2
X4.275Y-2.8
X4.275Y-4.2
X4.375Y-2.8
X4.375Y-4.2
X4.475Y-2.8
X4.475Y-4.2
X4.575Y-2.8
X4.575Y-4.2
X4.675Y-2.8
X4.675Y-4.2
X4.775Y-2.8
X4.775Y-4.2
X4.875Y-2.8
X4.875Y-4.2
X4.975Y-2.8
X4.975Y-4.2
T4
X4.025Y-3.15
X4.175Y-3.15
X4.325Y-3.15
X4.475Y-3.15
T5
X4.825Y-3.15
X5.025Y-3.15
X5.225Y-3.15
X5.425Y-3.15
T6
X4.775Y-3.5
X4.775Y-4.
X4.875Y-3.5
X4.875Y-4.
X4.975Y-3.5
X4.975Y-4.
X5.075Y-3.5
X5.075Y-4.
X5.175Y-3.5
X5.175Y-4.
X5.275Y-3.5
X5.275Y-4.
X5.375Y-3.5
X5.375Y-4.
X5.475Y-3.5
X5.475Y-4.
T7
X6.032Y-3.5
T8
X3.8Y-3.35
T9
X5.914Y-3.5
X5.953Y-3.323
X5.953Y-3.677
T10
X5.678Y-3.5
T11
X3.525Y-3.
X3.525Y-4.
X5.125Y-2.8
X5.125Y-4.2
T0
M30
