G04 #@! TF.GenerationSoftware,KiCad,Pcbnew,no-vcs-found-36e5906~58~ubuntu16.04.1*
G04 #@! TF.CreationDate,2017-06-16T16:05:32-04:00*
G04 #@! TF.ProjectId,stepper_controller_3x2,737465707065725F636F6E74726F6C6C,1.0*
G04 #@! TF.SameCoordinates,Original
G04 #@! TF.FileFunction,Copper,L2,Bot,Signal*
G04 #@! TF.FilePolarity,Positive*
%FSLAX46Y46*%
G04 Gerber Fmt 4.6, Leading zero omitted, Abs format (unit mm)*
G04 Created by KiCad (PCBNEW no-vcs-found-36e5906~58~ubuntu16.04.1) date Fri Jun 16 16:05:32 2017*
%MOMM*%
%LPD*%
G01*
G04 APERTURE LIST*
%ADD10C,0.100000*%
%ADD11C,0.228600*%
%ADD12C,3.556000*%
%ADD13O,1.854200X2.540000*%
%ADD14R,1.854200X2.540000*%
%ADD15R,2.540000X1.270000*%
%ADD16R,1.800000X2.000000*%
%ADD17R,2.000000X0.250000*%
%ADD18R,0.250000X2.000000*%
%ADD19R,3.400000X3.400000*%
%ADD20R,1.270000X2.540000*%
%ADD21R,3.800000X4.960000*%
%ADD22R,1.600000X1.440000*%
%ADD23C,1.930400*%
%ADD24O,4.572000X3.556000*%
%ADD25O,4.064000X5.080000*%
%ADD26O,5.080000X3.556000*%
%ADD27O,2.032000X3.048000*%
%ADD28C,2.540000*%
%ADD29C,2.340000*%
%ADD30R,0.558800X1.330960*%
%ADD31C,0.889000*%
%ADD32C,0.304800*%
%ADD33C,1.270000*%
%ADD34C,0.203200*%
G04 APERTURE END LIST*
D10*
D11*
X156210000Y-67945000D02*
X85725000Y-67945000D01*
X156210000Y-109855000D02*
X156210000Y-67945000D01*
X85725000Y-109855000D02*
X156210000Y-109855000D01*
X85725000Y-67945000D02*
X85725000Y-109855000D01*
D12*
X130175000Y-71120000D03*
X130175000Y-106680000D03*
X89535000Y-101600000D03*
X89535000Y-76200000D03*
D13*
X88265000Y-106680000D03*
X90805000Y-106680000D03*
X93345000Y-106680000D03*
X95885000Y-106680000D03*
X98425000Y-106680000D03*
X100965000Y-106680000D03*
X103505000Y-106680000D03*
X106045000Y-106680000D03*
X108585000Y-106680000D03*
X111125000Y-106680000D03*
X113665000Y-106680000D03*
X116205000Y-106680000D03*
X118745000Y-106680000D03*
X121285000Y-106680000D03*
X123825000Y-106680000D03*
X126365000Y-106680000D03*
X126365000Y-71120000D03*
X123825000Y-71120000D03*
X121285000Y-71120000D03*
X118745000Y-71120000D03*
X116205000Y-71120000D03*
X113665000Y-71120000D03*
X111125000Y-71120000D03*
X108585000Y-71120000D03*
X106045000Y-71120000D03*
X103505000Y-71120000D03*
X100965000Y-71120000D03*
X98425000Y-71120000D03*
X95885000Y-71120000D03*
D14*
X88265000Y-71120000D03*
D13*
X93345000Y-71120000D03*
X90805000Y-71120000D03*
D15*
X88900000Y-86614000D03*
X88900000Y-83566000D03*
X91440000Y-93726000D03*
X91440000Y-96774000D03*
D16*
X93345000Y-87190000D03*
X98425000Y-87190000D03*
X98425000Y-82990000D03*
X93345000Y-82990000D03*
D17*
X95425000Y-94135000D03*
X95425000Y-94635000D03*
X95425000Y-95135000D03*
X95425000Y-95635000D03*
X95425000Y-96135000D03*
X95425000Y-96635000D03*
X95425000Y-97135000D03*
X95425000Y-97635000D03*
X101425000Y-97635000D03*
X101425000Y-97135000D03*
X101425000Y-96635000D03*
X101425000Y-96135000D03*
X101425000Y-95635000D03*
X101425000Y-95135000D03*
X101425000Y-94635000D03*
X101425000Y-94135000D03*
D18*
X96675000Y-98885000D03*
X97175000Y-98885000D03*
X97675000Y-98885000D03*
X98175000Y-98885000D03*
X98675000Y-98885000D03*
X99175000Y-98885000D03*
X99675000Y-98885000D03*
X100175000Y-98885000D03*
X100175000Y-92885000D03*
X99675000Y-92885000D03*
X99175000Y-92885000D03*
X98675000Y-92885000D03*
X98175000Y-92885000D03*
X97675000Y-92885000D03*
X97175000Y-92885000D03*
X96675000Y-92885000D03*
D19*
X98425000Y-95885000D03*
D20*
X121031000Y-93980000D03*
X124079000Y-93980000D03*
D15*
X102870000Y-83566000D03*
X102870000Y-86614000D03*
D21*
X144145000Y-80895000D03*
D22*
X143080000Y-84695000D03*
X145210000Y-84695000D03*
D23*
X153212800Y-88900000D03*
D24*
X149707600Y-88900000D03*
D25*
X144221200Y-88900000D03*
D26*
X151206200Y-84404200D03*
X151206200Y-93395800D03*
D27*
X139065000Y-88265000D03*
X136525000Y-88265000D03*
X133985000Y-88265000D03*
X131445000Y-88265000D03*
X128905000Y-88265000D03*
X126365000Y-88265000D03*
X123825000Y-88265000D03*
X121285000Y-88265000D03*
X121285000Y-100965000D03*
X123825000Y-100965000D03*
X126365000Y-100965000D03*
X128905000Y-100965000D03*
X131445000Y-100965000D03*
X133985000Y-100965000D03*
X136525000Y-100965000D03*
X139065000Y-100965000D03*
D28*
X132715000Y-80645000D03*
X127635000Y-80645000D03*
X122555000Y-80645000D03*
X137795000Y-80645000D03*
D29*
X113665000Y-80645000D03*
X102235000Y-80645000D03*
X106045000Y-80645000D03*
X109855000Y-80645000D03*
D30*
X107000040Y-83891120D03*
X107950000Y-83891120D03*
X108899960Y-83891120D03*
X108899960Y-86288880D03*
X107950000Y-86288880D03*
X107000040Y-86288880D03*
D31*
X100888000Y-92411800D03*
X93878300Y-96774000D03*
X102434100Y-92918200D03*
X99221600Y-89242900D03*
X105975100Y-86044300D03*
X108421100Y-104165000D03*
X111929800Y-80187000D03*
X95925300Y-98878300D03*
X96829800Y-100441200D03*
D32*
X101425000Y-95635000D02*
X100145600Y-95635000D01*
X101425000Y-96635000D02*
X100145600Y-96635000D01*
X100145600Y-95885000D02*
X98425000Y-95885000D01*
X100145600Y-95635000D02*
X100145600Y-95885000D01*
X100145600Y-95885000D02*
X100145600Y-96635000D01*
X98425000Y-82990000D02*
X97245600Y-82990000D01*
X102870000Y-83566000D02*
X102870000Y-82651600D01*
X107950000Y-80645000D02*
X106045000Y-80645000D01*
X107950000Y-80535100D02*
X107950000Y-80645000D01*
X109319200Y-79165900D02*
X107950000Y-80535100D01*
X112185900Y-79165900D02*
X109319200Y-79165900D01*
X113665000Y-80645000D02*
X112185900Y-79165900D01*
X107950000Y-80645000D02*
X107950000Y-83891100D01*
X91440000Y-93726000D02*
X91440000Y-92811600D01*
X88900000Y-90271600D02*
X88900000Y-86614000D01*
X91440000Y-92811600D02*
X88900000Y-90271600D01*
X124079000Y-93980000D02*
X124079000Y-92430600D01*
X139065000Y-88265000D02*
X139065000Y-90068400D01*
X124079000Y-90068400D02*
X139065000Y-90068400D01*
X124079000Y-92430600D02*
X124079000Y-90068400D01*
X124079000Y-90068400D02*
X123825000Y-90068400D01*
X123825000Y-88265000D02*
X123825000Y-90068400D01*
X93898400Y-94635000D02*
X92989400Y-93726000D01*
X95425000Y-94635000D02*
X93898400Y-94635000D01*
X91440000Y-93726000D02*
X92989400Y-93726000D01*
X96675000Y-92885000D02*
X96679400Y-92885000D01*
X96679400Y-83556200D02*
X96679400Y-92885000D01*
X97245600Y-82990000D02*
X96679400Y-83556200D01*
X95425000Y-94635000D02*
X96704400Y-94635000D01*
X96679400Y-94582600D02*
X96718100Y-94621300D01*
X96679400Y-92885000D02*
X96679400Y-94582600D01*
X97161300Y-94621300D02*
X96718100Y-94621300D01*
X98425000Y-95885000D02*
X97161300Y-94621300D01*
X96718100Y-94621300D02*
X96704400Y-94635000D01*
X98425000Y-82990000D02*
X99604400Y-82990000D01*
X101085000Y-81509400D02*
X99604400Y-82990000D01*
X102227200Y-82651600D02*
X102870000Y-82651600D01*
X101085000Y-81509400D02*
X102227200Y-82651600D01*
X90805000Y-71120000D02*
X92011500Y-71120000D01*
X92011500Y-71805000D02*
X92011500Y-71120000D01*
X100231100Y-80024600D02*
X92011500Y-71805000D01*
X100783700Y-80024600D02*
X100231100Y-80024600D01*
X101592800Y-79215500D02*
X100783700Y-80024600D01*
X104615500Y-79215500D02*
X101592800Y-79215500D01*
X106045000Y-80645000D02*
X104615500Y-79215500D01*
X100783700Y-81208100D02*
X101085000Y-81509400D01*
X100783700Y-80024600D02*
X100783700Y-81208100D01*
X102064700Y-94635000D02*
X101925000Y-94635000D01*
X101425000Y-95135000D02*
X102704400Y-95135000D01*
X102064700Y-94635000D02*
X102431900Y-94635000D01*
X102704400Y-94907500D02*
X102704400Y-95135000D01*
X102431900Y-94635000D02*
X102704400Y-94907500D01*
X95425000Y-95635000D02*
X95425000Y-95135000D01*
X88900000Y-83566000D02*
X90449400Y-83566000D01*
X93345000Y-83566000D02*
X90449400Y-83566000D01*
X93345000Y-82990000D02*
X93345000Y-83566000D01*
X98175000Y-104390000D02*
X98175000Y-98885000D01*
X97091500Y-105473500D02*
X98175000Y-104390000D01*
X97091500Y-106680000D02*
X97091500Y-105473500D01*
X95885000Y-106680000D02*
X97091500Y-106680000D01*
X101687800Y-94135000D02*
X101687800Y-94635000D01*
X101425000Y-94135000D02*
X101687800Y-94135000D01*
X101425000Y-94635000D02*
X101687800Y-94635000D01*
X101687800Y-94635000D02*
X101925000Y-94635000D01*
X95425000Y-95635000D02*
X94145600Y-95635000D01*
X93345000Y-83566000D02*
X93345000Y-87190000D01*
X102592100Y-87528400D02*
X102870000Y-87528400D01*
X98675000Y-91445500D02*
X102592100Y-87528400D01*
X98675000Y-92885000D02*
X98675000Y-91445500D01*
X100957200Y-92411800D02*
X101425000Y-92879600D01*
X100888000Y-92411800D02*
X100957200Y-92411800D01*
X102085300Y-92219300D02*
X101425000Y-92879600D01*
X102964500Y-92219300D02*
X102085300Y-92219300D01*
X107950000Y-87233800D02*
X102964500Y-92219300D01*
X101425000Y-92879600D02*
X101425000Y-94135000D01*
X94145600Y-96506700D02*
X93878300Y-96774000D01*
X94145600Y-95635000D02*
X94145600Y-96506700D01*
X93878300Y-96774000D02*
X92989400Y-96774000D01*
X91440000Y-96774000D02*
X92100500Y-96774000D01*
X92100500Y-96774000D02*
X92989400Y-96774000D01*
X88671400Y-84480400D02*
X88900000Y-84480400D01*
X87375600Y-85776200D02*
X88671400Y-84480400D01*
X87375600Y-92049100D02*
X87375600Y-85776200D01*
X92100500Y-96774000D02*
X87375600Y-92049100D01*
X88900000Y-83566000D02*
X88900000Y-84480400D01*
X102870000Y-86614000D02*
X102870000Y-87528400D01*
X107950000Y-86761300D02*
X107950000Y-87233800D01*
X107950000Y-86761300D02*
X107950000Y-86288900D01*
X103225600Y-85344000D02*
X102870000Y-85699600D01*
X107950000Y-85344000D02*
X103225600Y-85344000D01*
X107950000Y-86288900D02*
X107950000Y-85344000D01*
X102870000Y-86614000D02*
X102870000Y-85699600D01*
X103111200Y-93595300D02*
X102434100Y-92918200D01*
X103111200Y-95728200D02*
X103111200Y-93595300D01*
X102704400Y-96135000D02*
X103111200Y-95728200D01*
X98448100Y-88469400D02*
X98425000Y-88469400D01*
X99221600Y-89242900D02*
X98448100Y-88469400D01*
X98425000Y-87190000D02*
X98425000Y-88469400D01*
X101425000Y-96135000D02*
X102704400Y-96135000D01*
X99631500Y-71857500D02*
X99631500Y-71120000D01*
X101650000Y-73876000D02*
X99631500Y-71857500D01*
X108946900Y-73876000D02*
X101650000Y-73876000D01*
X115837300Y-80766400D02*
X108946900Y-73876000D01*
X115837300Y-93713900D02*
X115837300Y-80766400D01*
X121285000Y-99161600D02*
X115837300Y-93713900D01*
X121285000Y-100965000D02*
X121285000Y-99161600D01*
X98425000Y-71120000D02*
X99631500Y-71120000D01*
X104838500Y-70382600D02*
X104838500Y-71120000D01*
X104031200Y-69575300D02*
X104838500Y-70382600D01*
X90296600Y-69575300D02*
X104031200Y-69575300D01*
X89446500Y-70425400D02*
X90296600Y-69575300D01*
X89446500Y-73389100D02*
X89446500Y-70425400D01*
X86930100Y-75905500D02*
X89446500Y-73389100D01*
X86930100Y-94535200D02*
X86930100Y-75905500D01*
X93566200Y-101171300D02*
X86930100Y-94535200D01*
X97097400Y-101171300D02*
X93566200Y-101171300D01*
X97675000Y-100593700D02*
X97097400Y-101171300D01*
X97675000Y-98885000D02*
X97675000Y-100593700D01*
X106045000Y-71120000D02*
X104838500Y-71120000D01*
X102206600Y-89812800D02*
X105975100Y-86044300D01*
X100967800Y-89812800D02*
X102206600Y-89812800D01*
X99175000Y-91605600D02*
X100967800Y-89812800D01*
X99175000Y-92885000D02*
X99175000Y-91605600D01*
X120078500Y-72326500D02*
X120078500Y-71120000D01*
X119170200Y-73234800D02*
X120078500Y-72326500D01*
X119170200Y-95070400D02*
X119170200Y-73234800D01*
X123261400Y-99161600D02*
X119170200Y-95070400D01*
X123825000Y-99161600D02*
X123261400Y-99161600D01*
X123825000Y-100965000D02*
X123825000Y-99161600D01*
X121285000Y-71120000D02*
X120078500Y-71120000D01*
X100079000Y-100568400D02*
X99675000Y-100164400D01*
X104824600Y-100568400D02*
X100079000Y-100568400D01*
X104824600Y-100568500D02*
X104824600Y-100568400D01*
X108421100Y-104165000D02*
X104824600Y-100568500D01*
X99675000Y-98885000D02*
X99675000Y-100164400D01*
X131445000Y-100965000D02*
X131445000Y-101200400D01*
X98675000Y-98885000D02*
X98675000Y-100164400D01*
X123825000Y-71120000D02*
X122618500Y-71120000D01*
X103379900Y-104869300D02*
X98675000Y-100164400D01*
X118974400Y-104869300D02*
X103379900Y-104869300D01*
X120015000Y-105909900D02*
X118974400Y-104869300D01*
X120015000Y-107426500D02*
X120015000Y-105909900D01*
X120855300Y-108266800D02*
X120015000Y-107426500D01*
X124318000Y-108266800D02*
X120855300Y-108266800D01*
X125095000Y-107489800D02*
X124318000Y-108266800D01*
X125095000Y-105917500D02*
X125095000Y-107489800D01*
X125869400Y-105143100D02*
X125095000Y-105917500D01*
X127079400Y-105143100D02*
X125869400Y-105143100D01*
X131233600Y-100988900D02*
X127079400Y-105143100D01*
X131445000Y-101200400D02*
X131233600Y-100988900D01*
X122618500Y-72326500D02*
X122618500Y-71120000D01*
X119577000Y-75368000D02*
X122618500Y-72326500D01*
X119577000Y-94841400D02*
X119577000Y-75368000D01*
X121616600Y-96881000D02*
X119577000Y-94841400D01*
X127125600Y-96881000D02*
X121616600Y-96881000D01*
X131233600Y-100988900D02*
X127125600Y-96881000D01*
X124002800Y-105130600D02*
X123825000Y-105130600D01*
X126365000Y-102768400D02*
X124002800Y-105130600D01*
X126365000Y-100965000D02*
X126365000Y-102768400D01*
X123825000Y-106680000D02*
X123825000Y-105130600D01*
X101425000Y-97635000D02*
X102704400Y-97635000D01*
X102879400Y-97635000D02*
X102704400Y-97635000D01*
X109294900Y-104050500D02*
X102879400Y-97635000D01*
X122744900Y-104050500D02*
X109294900Y-104050500D01*
X123825000Y-105130600D02*
X122744900Y-104050500D01*
D33*
X121031000Y-90805000D02*
X121031000Y-93980000D01*
X121285000Y-90551000D02*
X121031000Y-90805000D01*
X121285000Y-88265000D02*
X121285000Y-90551000D01*
X120493800Y-85187800D02*
X121285000Y-85979000D01*
X120493800Y-79845500D02*
X120493800Y-85187800D01*
X121718000Y-78621300D02*
X120493800Y-79845500D01*
X139209300Y-78621300D02*
X121718000Y-78621300D01*
X141483000Y-80895000D02*
X139209300Y-78621300D01*
X144145000Y-80895000D02*
X141483000Y-80895000D01*
X121285000Y-88265000D02*
X121285000Y-85979000D01*
D32*
X111929800Y-87909600D02*
X111929800Y-80187000D01*
X102704400Y-97135000D02*
X111929800Y-87909600D01*
X101425000Y-97135000D02*
X102704400Y-97135000D01*
D33*
X128905000Y-81915000D02*
X128905000Y-88265000D01*
X127635000Y-80645000D02*
X128905000Y-81915000D01*
X132461000Y-85979000D02*
X131445000Y-85979000D01*
X137795000Y-80645000D02*
X132461000Y-85979000D01*
X131445000Y-88265000D02*
X131445000Y-85979000D01*
X126365000Y-84455000D02*
X126365000Y-88265000D01*
X122555000Y-80645000D02*
X126365000Y-84455000D01*
D32*
X104536200Y-82946200D02*
X102235000Y-80645000D01*
X107000000Y-82946200D02*
X104536200Y-82946200D01*
X107000000Y-83891100D02*
X107000000Y-82946200D01*
X108900000Y-81600000D02*
X109855000Y-80645000D01*
X108900000Y-83891100D02*
X108900000Y-81600000D01*
X95425000Y-98378000D02*
X95425000Y-97635000D01*
X95925300Y-98878300D02*
X95425000Y-98378000D01*
X97175000Y-98885000D02*
X97175000Y-100164400D01*
X97106600Y-100164400D02*
X96829800Y-100441200D01*
X97175000Y-100164400D02*
X97106600Y-100164400D01*
X99675000Y-91831400D02*
X99675000Y-92885000D01*
X99946100Y-91560300D02*
X99675000Y-91831400D01*
X102673500Y-91560300D02*
X99946100Y-91560300D01*
X107000000Y-87233800D02*
X102673500Y-91560300D01*
X107000000Y-86288900D02*
X107000000Y-87233800D01*
X108900000Y-86288900D02*
X108900000Y-85344000D01*
X108493200Y-84937200D02*
X108900000Y-85344000D01*
X102249900Y-84937200D02*
X108493200Y-84937200D01*
X100303000Y-86884100D02*
X102249900Y-84937200D01*
X100303000Y-89149800D02*
X100303000Y-86884100D01*
X98175000Y-91277800D02*
X100303000Y-89149800D01*
X98175000Y-92885000D02*
X98175000Y-91277800D01*
D33*
X143080000Y-84695000D02*
X144145000Y-84695000D01*
X144145000Y-84695000D02*
X145210000Y-84695000D01*
X144145000Y-88823800D02*
X144183000Y-88861900D01*
X144145000Y-84695000D02*
X144145000Y-88823800D01*
X144183000Y-88861900D02*
X144221000Y-88900000D01*
X144183100Y-88861900D02*
X144221200Y-88900000D01*
X144183000Y-88861900D02*
X144183100Y-88861900D01*
D34*
G36*
X155790900Y-109435900D02*
X86144100Y-109435900D01*
X86144100Y-106306248D01*
X87033100Y-106306248D01*
X87033100Y-107053752D01*
X87126873Y-107525180D01*
X87393915Y-107924837D01*
X87793572Y-108191879D01*
X88265000Y-108285652D01*
X88736428Y-108191879D01*
X89136085Y-107924837D01*
X89403127Y-107525180D01*
X89496900Y-107053752D01*
X89496900Y-106306248D01*
X89573100Y-106306248D01*
X89573100Y-107053752D01*
X89666873Y-107525180D01*
X89933915Y-107924837D01*
X90333572Y-108191879D01*
X90805000Y-108285652D01*
X91276428Y-108191879D01*
X91676085Y-107924837D01*
X91943127Y-107525180D01*
X92036900Y-107053752D01*
X92036900Y-106306248D01*
X92113100Y-106306248D01*
X92113100Y-107053752D01*
X92206873Y-107525180D01*
X92473915Y-107924837D01*
X92873572Y-108191879D01*
X93345000Y-108285652D01*
X93816428Y-108191879D01*
X94216085Y-107924837D01*
X94483127Y-107525180D01*
X94576900Y-107053752D01*
X94576900Y-106306248D01*
X94483127Y-105834820D01*
X94216085Y-105435163D01*
X93816428Y-105168121D01*
X93345000Y-105074348D01*
X92873572Y-105168121D01*
X92473915Y-105435163D01*
X92206873Y-105834820D01*
X92113100Y-106306248D01*
X92036900Y-106306248D01*
X91943127Y-105834820D01*
X91676085Y-105435163D01*
X91276428Y-105168121D01*
X90805000Y-105074348D01*
X90333572Y-105168121D01*
X89933915Y-105435163D01*
X89666873Y-105834820D01*
X89573100Y-106306248D01*
X89496900Y-106306248D01*
X89403127Y-105834820D01*
X89136085Y-105435163D01*
X88736428Y-105168121D01*
X88265000Y-105074348D01*
X87793572Y-105168121D01*
X87393915Y-105435163D01*
X87126873Y-105834820D01*
X87033100Y-106306248D01*
X86144100Y-106306248D01*
X86144100Y-102012477D01*
X87451840Y-102012477D01*
X87768259Y-102778270D01*
X88353648Y-103364682D01*
X89118888Y-103682437D01*
X89947477Y-103683160D01*
X90713270Y-103366741D01*
X91299682Y-102781352D01*
X91617437Y-102016112D01*
X91618160Y-101187523D01*
X91301741Y-100421730D01*
X90716352Y-99835318D01*
X89951112Y-99517563D01*
X89122523Y-99516840D01*
X88356730Y-99833259D01*
X87770318Y-100418648D01*
X87452563Y-101183888D01*
X87451840Y-102012477D01*
X86144100Y-102012477D01*
X86144100Y-75905500D01*
X86472900Y-75905500D01*
X86472900Y-94535200D01*
X86507702Y-94710163D01*
X86606811Y-94858489D01*
X93242911Y-101494589D01*
X93391237Y-101593698D01*
X93566200Y-101628500D01*
X97097400Y-101628500D01*
X97272363Y-101593698D01*
X97420689Y-101494589D01*
X97717800Y-101197478D01*
X97717800Y-104200622D01*
X96768211Y-105150211D01*
X96669102Y-105298537D01*
X96655318Y-105367833D01*
X96356428Y-105168121D01*
X95885000Y-105074348D01*
X95413572Y-105168121D01*
X95013915Y-105435163D01*
X94746873Y-105834820D01*
X94653100Y-106306248D01*
X94653100Y-107053752D01*
X94746873Y-107525180D01*
X95013915Y-107924837D01*
X95413572Y-108191879D01*
X95885000Y-108285652D01*
X96356428Y-108191879D01*
X96756085Y-107924837D01*
X97023127Y-107525180D01*
X97100664Y-107135377D01*
X97205200Y-107114584D01*
X97286873Y-107525180D01*
X97553915Y-107924837D01*
X97953572Y-108191879D01*
X98425000Y-108285652D01*
X98896428Y-108191879D01*
X99296085Y-107924837D01*
X99563127Y-107525180D01*
X99656900Y-107053752D01*
X99656900Y-106306248D01*
X99733100Y-106306248D01*
X99733100Y-107053752D01*
X99826873Y-107525180D01*
X100093915Y-107924837D01*
X100493572Y-108191879D01*
X100965000Y-108285652D01*
X101436428Y-108191879D01*
X101836085Y-107924837D01*
X102103127Y-107525180D01*
X102196900Y-107053752D01*
X102196900Y-106306248D01*
X102103127Y-105834820D01*
X101836085Y-105435163D01*
X101436428Y-105168121D01*
X100965000Y-105074348D01*
X100493572Y-105168121D01*
X100093915Y-105435163D01*
X99826873Y-105834820D01*
X99733100Y-106306248D01*
X99656900Y-106306248D01*
X99563127Y-105834820D01*
X99296085Y-105435163D01*
X98896428Y-105168121D01*
X98425000Y-105074348D01*
X98065776Y-105145802D01*
X98498289Y-104713289D01*
X98597398Y-104564963D01*
X98612649Y-104488289D01*
X98632200Y-104390000D01*
X98632200Y-100768178D01*
X103032715Y-105168693D01*
X102633915Y-105435163D01*
X102366873Y-105834820D01*
X102273100Y-106306248D01*
X102273100Y-107053752D01*
X102366873Y-107525180D01*
X102633915Y-107924837D01*
X103033572Y-108191879D01*
X103505000Y-108285652D01*
X103976428Y-108191879D01*
X104376085Y-107924837D01*
X104643127Y-107525180D01*
X104736900Y-107053752D01*
X104736900Y-106306248D01*
X104643127Y-105834820D01*
X104376085Y-105435163D01*
X104213459Y-105326500D01*
X105336541Y-105326500D01*
X105173915Y-105435163D01*
X104906873Y-105834820D01*
X104813100Y-106306248D01*
X104813100Y-107053752D01*
X104906873Y-107525180D01*
X105173915Y-107924837D01*
X105573572Y-108191879D01*
X106045000Y-108285652D01*
X106516428Y-108191879D01*
X106916085Y-107924837D01*
X107183127Y-107525180D01*
X107276900Y-107053752D01*
X107276900Y-106306248D01*
X107183127Y-105834820D01*
X106916085Y-105435163D01*
X106753459Y-105326500D01*
X107876541Y-105326500D01*
X107713915Y-105435163D01*
X107446873Y-105834820D01*
X107353100Y-106306248D01*
X107353100Y-107053752D01*
X107446873Y-107525180D01*
X107713915Y-107924837D01*
X108113572Y-108191879D01*
X108585000Y-108285652D01*
X109056428Y-108191879D01*
X109456085Y-107924837D01*
X109723127Y-107525180D01*
X109816900Y-107053752D01*
X109816900Y-106306248D01*
X109723127Y-105834820D01*
X109456085Y-105435163D01*
X109293459Y-105326500D01*
X110416541Y-105326500D01*
X110253915Y-105435163D01*
X109986873Y-105834820D01*
X109893100Y-106306248D01*
X109893100Y-107053752D01*
X109986873Y-107525180D01*
X110253915Y-107924837D01*
X110653572Y-108191879D01*
X111125000Y-108285652D01*
X111596428Y-108191879D01*
X111996085Y-107924837D01*
X112263127Y-107525180D01*
X112356900Y-107053752D01*
X112356900Y-106306248D01*
X112263127Y-105834820D01*
X111996085Y-105435163D01*
X111833459Y-105326500D01*
X112956541Y-105326500D01*
X112793915Y-105435163D01*
X112526873Y-105834820D01*
X112433100Y-106306248D01*
X112433100Y-107053752D01*
X112526873Y-107525180D01*
X112793915Y-107924837D01*
X113193572Y-108191879D01*
X113665000Y-108285652D01*
X114136428Y-108191879D01*
X114536085Y-107924837D01*
X114803127Y-107525180D01*
X114896900Y-107053752D01*
X114896900Y-106306248D01*
X114803127Y-105834820D01*
X114536085Y-105435163D01*
X114373459Y-105326500D01*
X115496541Y-105326500D01*
X115333915Y-105435163D01*
X115066873Y-105834820D01*
X114973100Y-106306248D01*
X114973100Y-107053752D01*
X115066873Y-107525180D01*
X115333915Y-107924837D01*
X115733572Y-108191879D01*
X116205000Y-108285652D01*
X116676428Y-108191879D01*
X117076085Y-107924837D01*
X117343127Y-107525180D01*
X117436900Y-107053752D01*
X117436900Y-106306248D01*
X117343127Y-105834820D01*
X117076085Y-105435163D01*
X116913459Y-105326500D01*
X118036541Y-105326500D01*
X117873915Y-105435163D01*
X117606873Y-105834820D01*
X117513100Y-106306248D01*
X117513100Y-107053752D01*
X117606873Y-107525180D01*
X117873915Y-107924837D01*
X118273572Y-108191879D01*
X118745000Y-108285652D01*
X119216428Y-108191879D01*
X119616085Y-107924837D01*
X119716491Y-107774569D01*
X120532011Y-108590089D01*
X120680337Y-108689198D01*
X120855300Y-108724000D01*
X124318000Y-108724000D01*
X124492963Y-108689198D01*
X124641289Y-108590089D01*
X125418289Y-107813089D01*
X125418768Y-107812372D01*
X125493915Y-107924837D01*
X125893572Y-108191879D01*
X126365000Y-108285652D01*
X126836428Y-108191879D01*
X127236085Y-107924837D01*
X127503127Y-107525180D01*
X127589197Y-107092477D01*
X128091840Y-107092477D01*
X128408259Y-107858270D01*
X128993648Y-108444682D01*
X129758888Y-108762437D01*
X130587477Y-108763160D01*
X131353270Y-108446741D01*
X131939682Y-107861352D01*
X132257437Y-107096112D01*
X132258160Y-106267523D01*
X131941741Y-105501730D01*
X131356352Y-104915318D01*
X130591112Y-104597563D01*
X129762523Y-104596840D01*
X128996730Y-104913259D01*
X128410318Y-105498648D01*
X128092563Y-106263888D01*
X128091840Y-107092477D01*
X127589197Y-107092477D01*
X127596900Y-107053752D01*
X127596900Y-106306248D01*
X127503127Y-105834820D01*
X127301933Y-105533712D01*
X127402689Y-105466389D01*
X130477107Y-102391971D01*
X130511053Y-102442775D01*
X130939552Y-102729088D01*
X131445000Y-102829628D01*
X131950448Y-102729088D01*
X132378947Y-102442775D01*
X132665260Y-102014276D01*
X132715000Y-101764216D01*
X132764740Y-102014276D01*
X133051053Y-102442775D01*
X133479552Y-102729088D01*
X133985000Y-102829628D01*
X134490448Y-102729088D01*
X134918947Y-102442775D01*
X135205260Y-102014276D01*
X135255000Y-101764216D01*
X135304740Y-102014276D01*
X135591053Y-102442775D01*
X136019552Y-102729088D01*
X136525000Y-102829628D01*
X137030448Y-102729088D01*
X137458947Y-102442775D01*
X137745260Y-102014276D01*
X137795000Y-101764216D01*
X137844740Y-102014276D01*
X138131053Y-102442775D01*
X138559552Y-102729088D01*
X139065000Y-102829628D01*
X139570448Y-102729088D01*
X139998947Y-102442775D01*
X140285260Y-102014276D01*
X140385800Y-101508828D01*
X140385800Y-100421172D01*
X140285260Y-99915724D01*
X139998947Y-99487225D01*
X139570448Y-99200912D01*
X139065000Y-99100372D01*
X138559552Y-99200912D01*
X138131053Y-99487225D01*
X137844740Y-99915724D01*
X137795000Y-100165784D01*
X137745260Y-99915724D01*
X137458947Y-99487225D01*
X137030448Y-99200912D01*
X136525000Y-99100372D01*
X136019552Y-99200912D01*
X135591053Y-99487225D01*
X135304740Y-99915724D01*
X135255000Y-100165784D01*
X135205260Y-99915724D01*
X134918947Y-99487225D01*
X134490448Y-99200912D01*
X133985000Y-99100372D01*
X133479552Y-99200912D01*
X133051053Y-99487225D01*
X132764740Y-99915724D01*
X132715000Y-100165784D01*
X132665260Y-99915724D01*
X132378947Y-99487225D01*
X131950448Y-99200912D01*
X131445000Y-99100372D01*
X130939552Y-99200912D01*
X130511053Y-99487225D01*
X130457951Y-99566699D01*
X127448885Y-96557707D01*
X127372546Y-96506700D01*
X127300563Y-96458602D01*
X127300560Y-96458601D01*
X127300558Y-96458600D01*
X127220556Y-96442688D01*
X127125600Y-96423800D01*
X121805978Y-96423800D01*
X120942949Y-95560771D01*
X121666000Y-95560771D01*
X121784927Y-95537115D01*
X121885748Y-95469748D01*
X121953115Y-95368927D01*
X121976771Y-95250000D01*
X121976771Y-94284800D01*
X122834400Y-94284800D01*
X122834400Y-95371257D01*
X122927206Y-95595311D01*
X123098689Y-95766794D01*
X123322743Y-95859600D01*
X123774200Y-95859600D01*
X123926600Y-95707200D01*
X123926600Y-94132400D01*
X124231400Y-94132400D01*
X124231400Y-95707200D01*
X124383800Y-95859600D01*
X124835257Y-95859600D01*
X125059311Y-95766794D01*
X125230794Y-95595311D01*
X125323600Y-95371257D01*
X125323600Y-94284800D01*
X125171200Y-94132400D01*
X124231400Y-94132400D01*
X123926600Y-94132400D01*
X122986800Y-94132400D01*
X122834400Y-94284800D01*
X121976771Y-94284800D01*
X121976771Y-92710000D01*
X121970800Y-92679982D01*
X121970800Y-92588743D01*
X122834400Y-92588743D01*
X122834400Y-93675200D01*
X122986800Y-93827600D01*
X123926600Y-93827600D01*
X123926600Y-92252800D01*
X124231400Y-92252800D01*
X124231400Y-93827600D01*
X125171200Y-93827600D01*
X125323600Y-93675200D01*
X125323600Y-93395800D01*
X148305667Y-93395800D01*
X148464211Y-94192853D01*
X148915705Y-94868562D01*
X149591414Y-95320056D01*
X150388467Y-95478600D01*
X152023933Y-95478600D01*
X152820986Y-95320056D01*
X153496695Y-94868562D01*
X153948189Y-94192853D01*
X154106733Y-93395800D01*
X153948189Y-92598747D01*
X153496695Y-91923038D01*
X152820986Y-91471544D01*
X152023933Y-91313000D01*
X150388467Y-91313000D01*
X149591414Y-91471544D01*
X148915705Y-91923038D01*
X148464211Y-92598747D01*
X148305667Y-93395800D01*
X125323600Y-93395800D01*
X125323600Y-92588743D01*
X125230794Y-92364689D01*
X125059311Y-92193206D01*
X124835257Y-92100400D01*
X124383800Y-92100400D01*
X124231400Y-92252800D01*
X123926600Y-92252800D01*
X123774200Y-92100400D01*
X123322743Y-92100400D01*
X123098689Y-92193206D01*
X122927206Y-92364689D01*
X122834400Y-92588743D01*
X121970800Y-92588743D01*
X121970800Y-91183720D01*
X122153262Y-90910646D01*
X122224800Y-90551000D01*
X122224800Y-89734015D01*
X122373970Y-89510766D01*
X122381462Y-89535889D01*
X122783290Y-90030236D01*
X123343709Y-90333180D01*
X123421297Y-90347674D01*
X123672600Y-90238296D01*
X123672600Y-88417400D01*
X123652600Y-88417400D01*
X123652600Y-88112600D01*
X123672600Y-88112600D01*
X123672600Y-86291704D01*
X123421297Y-86182326D01*
X123343709Y-86196820D01*
X122783290Y-86499764D01*
X122381462Y-86994111D01*
X122373970Y-87019234D01*
X122224800Y-86795985D01*
X122224800Y-85979000D01*
X122153262Y-85619354D01*
X121949539Y-85314461D01*
X121433600Y-84798522D01*
X121433600Y-81750690D01*
X121661783Y-81979272D01*
X122240379Y-82219526D01*
X122800937Y-82220015D01*
X125425200Y-84844278D01*
X125425200Y-86795985D01*
X125276030Y-87019234D01*
X125268538Y-86994111D01*
X124866710Y-86499764D01*
X124306291Y-86196820D01*
X124228703Y-86182326D01*
X123977400Y-86291704D01*
X123977400Y-88112600D01*
X123997400Y-88112600D01*
X123997400Y-88417400D01*
X123977400Y-88417400D01*
X123977400Y-90238296D01*
X124228703Y-90347674D01*
X124306291Y-90333180D01*
X124866710Y-90030236D01*
X125268538Y-89535889D01*
X125276030Y-89510766D01*
X125431053Y-89742775D01*
X125859552Y-90029088D01*
X126365000Y-90129628D01*
X126870448Y-90029088D01*
X127298947Y-89742775D01*
X127585260Y-89314276D01*
X127635000Y-89064216D01*
X127684740Y-89314276D01*
X127971053Y-89742775D01*
X128399552Y-90029088D01*
X128905000Y-90129628D01*
X129410448Y-90029088D01*
X129838947Y-89742775D01*
X130125260Y-89314276D01*
X130175000Y-89064216D01*
X130224740Y-89314276D01*
X130511053Y-89742775D01*
X130939552Y-90029088D01*
X131445000Y-90129628D01*
X131950448Y-90029088D01*
X132378947Y-89742775D01*
X132665260Y-89314276D01*
X132715000Y-89064216D01*
X132764740Y-89314276D01*
X133051053Y-89742775D01*
X133479552Y-90029088D01*
X133985000Y-90129628D01*
X134490448Y-90029088D01*
X134918947Y-89742775D01*
X135205260Y-89314276D01*
X135255000Y-89064216D01*
X135304740Y-89314276D01*
X135591053Y-89742775D01*
X136019552Y-90029088D01*
X136525000Y-90129628D01*
X137030448Y-90029088D01*
X137458947Y-89742775D01*
X137613970Y-89510766D01*
X137621462Y-89535889D01*
X138023290Y-90030236D01*
X138583709Y-90333180D01*
X138661297Y-90347674D01*
X138912600Y-90238296D01*
X138912600Y-88417400D01*
X139217400Y-88417400D01*
X139217400Y-90238296D01*
X139468703Y-90347674D01*
X139546291Y-90333180D01*
X140106710Y-90030236D01*
X140508538Y-89535889D01*
X140690600Y-88925400D01*
X140690600Y-88417400D01*
X139217400Y-88417400D01*
X138912600Y-88417400D01*
X138892600Y-88417400D01*
X138892600Y-88112600D01*
X138912600Y-88112600D01*
X138912600Y-86291704D01*
X139217400Y-86291704D01*
X139217400Y-88112600D01*
X140690600Y-88112600D01*
X140690600Y-87604600D01*
X140508538Y-86994111D01*
X140106710Y-86499764D01*
X139546291Y-86196820D01*
X139468703Y-86182326D01*
X139217400Y-86291704D01*
X138912600Y-86291704D01*
X138661297Y-86182326D01*
X138583709Y-86196820D01*
X138023290Y-86499764D01*
X137621462Y-86994111D01*
X137613970Y-87019234D01*
X137458947Y-86787225D01*
X137030448Y-86500912D01*
X136525000Y-86400372D01*
X136019552Y-86500912D01*
X135591053Y-86787225D01*
X135304740Y-87215724D01*
X135255000Y-87465784D01*
X135205260Y-87215724D01*
X134918947Y-86787225D01*
X134490448Y-86500912D01*
X133985000Y-86400372D01*
X133479552Y-86500912D01*
X133051053Y-86787225D01*
X132764740Y-87215724D01*
X132715000Y-87465784D01*
X132665260Y-87215724D01*
X132466175Y-86917771D01*
X132820646Y-86847262D01*
X133125539Y-86643539D01*
X137549492Y-82219586D01*
X138106873Y-82220073D01*
X138685887Y-81980829D01*
X139129272Y-81538217D01*
X139369526Y-80959621D01*
X139370073Y-80333127D01*
X139213772Y-79954850D01*
X140818461Y-81559539D01*
X141123354Y-81763262D01*
X141483000Y-81834800D01*
X141934229Y-81834800D01*
X141934229Y-83375000D01*
X141957885Y-83493927D01*
X142025252Y-83594748D01*
X142126073Y-83662115D01*
X142208350Y-83678481D01*
X142161073Y-83687885D01*
X142060252Y-83755252D01*
X141992885Y-83856073D01*
X141969229Y-83975000D01*
X141969229Y-85415000D01*
X141992885Y-85533927D01*
X142060252Y-85634748D01*
X142161073Y-85702115D01*
X142280000Y-85725771D01*
X143205200Y-85725771D01*
X143205200Y-86258693D01*
X142568833Y-86683900D01*
X142062278Y-87442012D01*
X141884400Y-88336267D01*
X141884400Y-89463733D01*
X142062278Y-90357988D01*
X142568833Y-91116100D01*
X143326945Y-91622655D01*
X144221200Y-91800533D01*
X145115455Y-91622655D01*
X145873567Y-91116100D01*
X146380122Y-90357988D01*
X146558000Y-89463733D01*
X146558000Y-89423265D01*
X146870045Y-89423265D01*
X146935425Y-89672896D01*
X147403549Y-90480525D01*
X148145106Y-91047534D01*
X149047200Y-91287600D01*
X149555200Y-91287600D01*
X149555200Y-89052400D01*
X146969602Y-89052400D01*
X146870045Y-89423265D01*
X146558000Y-89423265D01*
X146558000Y-88376735D01*
X146870045Y-88376735D01*
X146969602Y-88747600D01*
X149555200Y-88747600D01*
X149555200Y-86512400D01*
X149860000Y-86512400D01*
X149860000Y-88747600D01*
X149880000Y-88747600D01*
X149880000Y-89052400D01*
X149860000Y-89052400D01*
X149860000Y-91287600D01*
X150368000Y-91287600D01*
X151270094Y-91047534D01*
X152011651Y-90480525D01*
X152373277Y-89856632D01*
X152492463Y-89976026D01*
X152959073Y-90169779D01*
X153464310Y-90170220D01*
X153931258Y-89977282D01*
X154288826Y-89620337D01*
X154482579Y-89153727D01*
X154483020Y-88648490D01*
X154290082Y-88181542D01*
X153933137Y-87823974D01*
X153466527Y-87630221D01*
X152961290Y-87629780D01*
X152494342Y-87822718D01*
X152373352Y-87943498D01*
X152011651Y-87319475D01*
X151270094Y-86752466D01*
X150368000Y-86512400D01*
X149860000Y-86512400D01*
X149555200Y-86512400D01*
X149047200Y-86512400D01*
X148145106Y-86752466D01*
X147403549Y-87319475D01*
X146935425Y-88127104D01*
X146870045Y-88376735D01*
X146558000Y-88376735D01*
X146558000Y-88336267D01*
X146380122Y-87442012D01*
X145873567Y-86683900D01*
X145115455Y-86177345D01*
X145084800Y-86171247D01*
X145084800Y-85725771D01*
X146010000Y-85725771D01*
X146128927Y-85702115D01*
X146229748Y-85634748D01*
X146297115Y-85533927D01*
X146320771Y-85415000D01*
X146320771Y-84404200D01*
X148305667Y-84404200D01*
X148464211Y-85201253D01*
X148915705Y-85876962D01*
X149591414Y-86328456D01*
X150388467Y-86487000D01*
X152023933Y-86487000D01*
X152820986Y-86328456D01*
X153496695Y-85876962D01*
X153948189Y-85201253D01*
X154106733Y-84404200D01*
X153948189Y-83607147D01*
X153496695Y-82931438D01*
X152820986Y-82479944D01*
X152023933Y-82321400D01*
X150388467Y-82321400D01*
X149591414Y-82479944D01*
X148915705Y-82931438D01*
X148464211Y-83607147D01*
X148305667Y-84404200D01*
X146320771Y-84404200D01*
X146320771Y-83975000D01*
X146297115Y-83856073D01*
X146229748Y-83755252D01*
X146128927Y-83687885D01*
X146081650Y-83678481D01*
X146163927Y-83662115D01*
X146264748Y-83594748D01*
X146332115Y-83493927D01*
X146355771Y-83375000D01*
X146355771Y-78415000D01*
X146332115Y-78296073D01*
X146264748Y-78195252D01*
X146163927Y-78127885D01*
X146045000Y-78104229D01*
X142245000Y-78104229D01*
X142126073Y-78127885D01*
X142025252Y-78195252D01*
X141957885Y-78296073D01*
X141934229Y-78415000D01*
X141934229Y-79955200D01*
X141872278Y-79955200D01*
X139873839Y-77956761D01*
X139568946Y-77753038D01*
X139209300Y-77681500D01*
X121718000Y-77681500D01*
X121358354Y-77753038D01*
X121053461Y-77956761D01*
X120034200Y-78976022D01*
X120034200Y-75557378D01*
X122941790Y-72649789D01*
X123040898Y-72501463D01*
X123054682Y-72432167D01*
X123353572Y-72631879D01*
X123825000Y-72725652D01*
X124296428Y-72631879D01*
X124696085Y-72364837D01*
X124963127Y-71965180D01*
X125056900Y-71493752D01*
X125056900Y-70746248D01*
X125133100Y-70746248D01*
X125133100Y-71493752D01*
X125226873Y-71965180D01*
X125493915Y-72364837D01*
X125893572Y-72631879D01*
X126365000Y-72725652D01*
X126836428Y-72631879D01*
X127236085Y-72364837D01*
X127503127Y-71965180D01*
X127589197Y-71532477D01*
X128091840Y-71532477D01*
X128408259Y-72298270D01*
X128993648Y-72884682D01*
X129758888Y-73202437D01*
X130587477Y-73203160D01*
X131353270Y-72886741D01*
X131939682Y-72301352D01*
X132257437Y-71536112D01*
X132258160Y-70707523D01*
X131941741Y-69941730D01*
X131356352Y-69355318D01*
X130591112Y-69037563D01*
X129762523Y-69036840D01*
X128996730Y-69353259D01*
X128410318Y-69938648D01*
X128092563Y-70703888D01*
X128091840Y-71532477D01*
X127589197Y-71532477D01*
X127596900Y-71493752D01*
X127596900Y-70746248D01*
X127503127Y-70274820D01*
X127236085Y-69875163D01*
X126836428Y-69608121D01*
X126365000Y-69514348D01*
X125893572Y-69608121D01*
X125493915Y-69875163D01*
X125226873Y-70274820D01*
X125133100Y-70746248D01*
X125056900Y-70746248D01*
X124963127Y-70274820D01*
X124696085Y-69875163D01*
X124296428Y-69608121D01*
X123825000Y-69514348D01*
X123353572Y-69608121D01*
X122953915Y-69875163D01*
X122686873Y-70274820D01*
X122609336Y-70664623D01*
X122504800Y-70685416D01*
X122423127Y-70274820D01*
X122156085Y-69875163D01*
X121756428Y-69608121D01*
X121285000Y-69514348D01*
X120813572Y-69608121D01*
X120413915Y-69875163D01*
X120146873Y-70274820D01*
X120069336Y-70664623D01*
X119964800Y-70685416D01*
X119883127Y-70274820D01*
X119616085Y-69875163D01*
X119216428Y-69608121D01*
X118745000Y-69514348D01*
X118273572Y-69608121D01*
X117873915Y-69875163D01*
X117606873Y-70274820D01*
X117513100Y-70746248D01*
X117513100Y-71493752D01*
X117606873Y-71965180D01*
X117873915Y-72364837D01*
X118273572Y-72631879D01*
X118745000Y-72725652D01*
X119104224Y-72654198D01*
X118846911Y-72911511D01*
X118747802Y-73059837D01*
X118713000Y-73234800D01*
X118713000Y-95070400D01*
X118747802Y-95245363D01*
X118846911Y-95393689D01*
X122920662Y-99467441D01*
X122891053Y-99487225D01*
X122604740Y-99915724D01*
X122555000Y-100165784D01*
X122505260Y-99915724D01*
X122218947Y-99487225D01*
X121790448Y-99200912D01*
X121742200Y-99191315D01*
X121742200Y-99161600D01*
X121707398Y-98986637D01*
X121608289Y-98838311D01*
X116294500Y-93524522D01*
X116294500Y-80766400D01*
X116259698Y-80591437D01*
X116160589Y-80443111D01*
X109270189Y-73552711D01*
X109121863Y-73453602D01*
X108946900Y-73418800D01*
X101839378Y-73418800D01*
X101116162Y-72695584D01*
X101436428Y-72631879D01*
X101836085Y-72364837D01*
X102103127Y-71965180D01*
X102196900Y-71493752D01*
X102196900Y-70746248D01*
X102103127Y-70274820D01*
X101941214Y-70032500D01*
X102528786Y-70032500D01*
X102366873Y-70274820D01*
X102273100Y-70746248D01*
X102273100Y-71493752D01*
X102366873Y-71965180D01*
X102633915Y-72364837D01*
X103033572Y-72631879D01*
X103505000Y-72725652D01*
X103976428Y-72631879D01*
X104376085Y-72364837D01*
X104643127Y-71965180D01*
X104724800Y-71554584D01*
X104829336Y-71575377D01*
X104906873Y-71965180D01*
X105173915Y-72364837D01*
X105573572Y-72631879D01*
X106045000Y-72725652D01*
X106516428Y-72631879D01*
X106916085Y-72364837D01*
X107183127Y-71965180D01*
X107276900Y-71493752D01*
X107276900Y-70746248D01*
X107353100Y-70746248D01*
X107353100Y-71493752D01*
X107446873Y-71965180D01*
X107713915Y-72364837D01*
X108113572Y-72631879D01*
X108585000Y-72725652D01*
X109056428Y-72631879D01*
X109456085Y-72364837D01*
X109723127Y-71965180D01*
X109816900Y-71493752D01*
X109816900Y-70746248D01*
X109893100Y-70746248D01*
X109893100Y-71493752D01*
X109986873Y-71965180D01*
X110253915Y-72364837D01*
X110653572Y-72631879D01*
X111125000Y-72725652D01*
X111596428Y-72631879D01*
X111996085Y-72364837D01*
X112263127Y-71965180D01*
X112356900Y-71493752D01*
X112356900Y-70746248D01*
X112433100Y-70746248D01*
X112433100Y-71493752D01*
X112526873Y-71965180D01*
X112793915Y-72364837D01*
X113193572Y-72631879D01*
X113665000Y-72725652D01*
X114136428Y-72631879D01*
X114536085Y-72364837D01*
X114803127Y-71965180D01*
X114896900Y-71493752D01*
X114896900Y-70746248D01*
X114973100Y-70746248D01*
X114973100Y-71493752D01*
X115066873Y-71965180D01*
X115333915Y-72364837D01*
X115733572Y-72631879D01*
X116205000Y-72725652D01*
X116676428Y-72631879D01*
X117076085Y-72364837D01*
X117343127Y-71965180D01*
X117436900Y-71493752D01*
X117436900Y-70746248D01*
X117343127Y-70274820D01*
X117076085Y-69875163D01*
X116676428Y-69608121D01*
X116205000Y-69514348D01*
X115733572Y-69608121D01*
X115333915Y-69875163D01*
X115066873Y-70274820D01*
X114973100Y-70746248D01*
X114896900Y-70746248D01*
X114803127Y-70274820D01*
X114536085Y-69875163D01*
X114136428Y-69608121D01*
X113665000Y-69514348D01*
X113193572Y-69608121D01*
X112793915Y-69875163D01*
X112526873Y-70274820D01*
X112433100Y-70746248D01*
X112356900Y-70746248D01*
X112263127Y-70274820D01*
X111996085Y-69875163D01*
X111596428Y-69608121D01*
X111125000Y-69514348D01*
X110653572Y-69608121D01*
X110253915Y-69875163D01*
X109986873Y-70274820D01*
X109893100Y-70746248D01*
X109816900Y-70746248D01*
X109723127Y-70274820D01*
X109456085Y-69875163D01*
X109056428Y-69608121D01*
X108585000Y-69514348D01*
X108113572Y-69608121D01*
X107713915Y-69875163D01*
X107446873Y-70274820D01*
X107353100Y-70746248D01*
X107276900Y-70746248D01*
X107183127Y-70274820D01*
X106916085Y-69875163D01*
X106516428Y-69608121D01*
X106045000Y-69514348D01*
X105573572Y-69608121D01*
X105173915Y-69875163D01*
X105095299Y-69992821D01*
X104354489Y-69252011D01*
X104206163Y-69152902D01*
X104031200Y-69118100D01*
X90296600Y-69118100D01*
X90121637Y-69152902D01*
X89973311Y-69252011D01*
X89481709Y-69743613D01*
X89479215Y-69731073D01*
X89411848Y-69630252D01*
X89311027Y-69562885D01*
X89192100Y-69539229D01*
X87337900Y-69539229D01*
X87218973Y-69562885D01*
X87118152Y-69630252D01*
X87050785Y-69731073D01*
X87027129Y-69850000D01*
X87027129Y-72390000D01*
X87050785Y-72508927D01*
X87118152Y-72609748D01*
X87218973Y-72677115D01*
X87337900Y-72700771D01*
X88989300Y-72700771D01*
X88989300Y-73199722D01*
X86606811Y-75582211D01*
X86507702Y-75730537D01*
X86472900Y-75905500D01*
X86144100Y-75905500D01*
X86144100Y-68364100D01*
X155790900Y-68364100D01*
X155790900Y-109435900D01*
X155790900Y-109435900D01*
G37*
X155790900Y-109435900D02*
X86144100Y-109435900D01*
X86144100Y-106306248D01*
X87033100Y-106306248D01*
X87033100Y-107053752D01*
X87126873Y-107525180D01*
X87393915Y-107924837D01*
X87793572Y-108191879D01*
X88265000Y-108285652D01*
X88736428Y-108191879D01*
X89136085Y-107924837D01*
X89403127Y-107525180D01*
X89496900Y-107053752D01*
X89496900Y-106306248D01*
X89573100Y-106306248D01*
X89573100Y-107053752D01*
X89666873Y-107525180D01*
X89933915Y-107924837D01*
X90333572Y-108191879D01*
X90805000Y-108285652D01*
X91276428Y-108191879D01*
X91676085Y-107924837D01*
X91943127Y-107525180D01*
X92036900Y-107053752D01*
X92036900Y-106306248D01*
X92113100Y-106306248D01*
X92113100Y-107053752D01*
X92206873Y-107525180D01*
X92473915Y-107924837D01*
X92873572Y-108191879D01*
X93345000Y-108285652D01*
X93816428Y-108191879D01*
X94216085Y-107924837D01*
X94483127Y-107525180D01*
X94576900Y-107053752D01*
X94576900Y-106306248D01*
X94483127Y-105834820D01*
X94216085Y-105435163D01*
X93816428Y-105168121D01*
X93345000Y-105074348D01*
X92873572Y-105168121D01*
X92473915Y-105435163D01*
X92206873Y-105834820D01*
X92113100Y-106306248D01*
X92036900Y-106306248D01*
X91943127Y-105834820D01*
X91676085Y-105435163D01*
X91276428Y-105168121D01*
X90805000Y-105074348D01*
X90333572Y-105168121D01*
X89933915Y-105435163D01*
X89666873Y-105834820D01*
X89573100Y-106306248D01*
X89496900Y-106306248D01*
X89403127Y-105834820D01*
X89136085Y-105435163D01*
X88736428Y-105168121D01*
X88265000Y-105074348D01*
X87793572Y-105168121D01*
X87393915Y-105435163D01*
X87126873Y-105834820D01*
X87033100Y-106306248D01*
X86144100Y-106306248D01*
X86144100Y-102012477D01*
X87451840Y-102012477D01*
X87768259Y-102778270D01*
X88353648Y-103364682D01*
X89118888Y-103682437D01*
X89947477Y-103683160D01*
X90713270Y-103366741D01*
X91299682Y-102781352D01*
X91617437Y-102016112D01*
X91618160Y-101187523D01*
X91301741Y-100421730D01*
X90716352Y-99835318D01*
X89951112Y-99517563D01*
X89122523Y-99516840D01*
X88356730Y-99833259D01*
X87770318Y-100418648D01*
X87452563Y-101183888D01*
X87451840Y-102012477D01*
X86144100Y-102012477D01*
X86144100Y-75905500D01*
X86472900Y-75905500D01*
X86472900Y-94535200D01*
X86507702Y-94710163D01*
X86606811Y-94858489D01*
X93242911Y-101494589D01*
X93391237Y-101593698D01*
X93566200Y-101628500D01*
X97097400Y-101628500D01*
X97272363Y-101593698D01*
X97420689Y-101494589D01*
X97717800Y-101197478D01*
X97717800Y-104200622D01*
X96768211Y-105150211D01*
X96669102Y-105298537D01*
X96655318Y-105367833D01*
X96356428Y-105168121D01*
X95885000Y-105074348D01*
X95413572Y-105168121D01*
X95013915Y-105435163D01*
X94746873Y-105834820D01*
X94653100Y-106306248D01*
X94653100Y-107053752D01*
X94746873Y-107525180D01*
X95013915Y-107924837D01*
X95413572Y-108191879D01*
X95885000Y-108285652D01*
X96356428Y-108191879D01*
X96756085Y-107924837D01*
X97023127Y-107525180D01*
X97100664Y-107135377D01*
X97205200Y-107114584D01*
X97286873Y-107525180D01*
X97553915Y-107924837D01*
X97953572Y-108191879D01*
X98425000Y-108285652D01*
X98896428Y-108191879D01*
X99296085Y-107924837D01*
X99563127Y-107525180D01*
X99656900Y-107053752D01*
X99656900Y-106306248D01*
X99733100Y-106306248D01*
X99733100Y-107053752D01*
X99826873Y-107525180D01*
X100093915Y-107924837D01*
X100493572Y-108191879D01*
X100965000Y-108285652D01*
X101436428Y-108191879D01*
X101836085Y-107924837D01*
X102103127Y-107525180D01*
X102196900Y-107053752D01*
X102196900Y-106306248D01*
X102103127Y-105834820D01*
X101836085Y-105435163D01*
X101436428Y-105168121D01*
X100965000Y-105074348D01*
X100493572Y-105168121D01*
X100093915Y-105435163D01*
X99826873Y-105834820D01*
X99733100Y-106306248D01*
X99656900Y-106306248D01*
X99563127Y-105834820D01*
X99296085Y-105435163D01*
X98896428Y-105168121D01*
X98425000Y-105074348D01*
X98065776Y-105145802D01*
X98498289Y-104713289D01*
X98597398Y-104564963D01*
X98612649Y-104488289D01*
X98632200Y-104390000D01*
X98632200Y-100768178D01*
X103032715Y-105168693D01*
X102633915Y-105435163D01*
X102366873Y-105834820D01*
X102273100Y-106306248D01*
X102273100Y-107053752D01*
X102366873Y-107525180D01*
X102633915Y-107924837D01*
X103033572Y-108191879D01*
X103505000Y-108285652D01*
X103976428Y-108191879D01*
X104376085Y-107924837D01*
X104643127Y-107525180D01*
X104736900Y-107053752D01*
X104736900Y-106306248D01*
X104643127Y-105834820D01*
X104376085Y-105435163D01*
X104213459Y-105326500D01*
X105336541Y-105326500D01*
X105173915Y-105435163D01*
X104906873Y-105834820D01*
X104813100Y-106306248D01*
X104813100Y-107053752D01*
X104906873Y-107525180D01*
X105173915Y-107924837D01*
X105573572Y-108191879D01*
X106045000Y-108285652D01*
X106516428Y-108191879D01*
X106916085Y-107924837D01*
X107183127Y-107525180D01*
X107276900Y-107053752D01*
X107276900Y-106306248D01*
X107183127Y-105834820D01*
X106916085Y-105435163D01*
X106753459Y-105326500D01*
X107876541Y-105326500D01*
X107713915Y-105435163D01*
X107446873Y-105834820D01*
X107353100Y-106306248D01*
X107353100Y-107053752D01*
X107446873Y-107525180D01*
X107713915Y-107924837D01*
X108113572Y-108191879D01*
X108585000Y-108285652D01*
X109056428Y-108191879D01*
X109456085Y-107924837D01*
X109723127Y-107525180D01*
X109816900Y-107053752D01*
X109816900Y-106306248D01*
X109723127Y-105834820D01*
X109456085Y-105435163D01*
X109293459Y-105326500D01*
X110416541Y-105326500D01*
X110253915Y-105435163D01*
X109986873Y-105834820D01*
X109893100Y-106306248D01*
X109893100Y-107053752D01*
X109986873Y-107525180D01*
X110253915Y-107924837D01*
X110653572Y-108191879D01*
X111125000Y-108285652D01*
X111596428Y-108191879D01*
X111996085Y-107924837D01*
X112263127Y-107525180D01*
X112356900Y-107053752D01*
X112356900Y-106306248D01*
X112263127Y-105834820D01*
X111996085Y-105435163D01*
X111833459Y-105326500D01*
X112956541Y-105326500D01*
X112793915Y-105435163D01*
X112526873Y-105834820D01*
X112433100Y-106306248D01*
X112433100Y-107053752D01*
X112526873Y-107525180D01*
X112793915Y-107924837D01*
X113193572Y-108191879D01*
X113665000Y-108285652D01*
X114136428Y-108191879D01*
X114536085Y-107924837D01*
X114803127Y-107525180D01*
X114896900Y-107053752D01*
X114896900Y-106306248D01*
X114803127Y-105834820D01*
X114536085Y-105435163D01*
X114373459Y-105326500D01*
X115496541Y-105326500D01*
X115333915Y-105435163D01*
X115066873Y-105834820D01*
X114973100Y-106306248D01*
X114973100Y-107053752D01*
X115066873Y-107525180D01*
X115333915Y-107924837D01*
X115733572Y-108191879D01*
X116205000Y-108285652D01*
X116676428Y-108191879D01*
X117076085Y-107924837D01*
X117343127Y-107525180D01*
X117436900Y-107053752D01*
X117436900Y-106306248D01*
X117343127Y-105834820D01*
X117076085Y-105435163D01*
X116913459Y-105326500D01*
X118036541Y-105326500D01*
X117873915Y-105435163D01*
X117606873Y-105834820D01*
X117513100Y-106306248D01*
X117513100Y-107053752D01*
X117606873Y-107525180D01*
X117873915Y-107924837D01*
X118273572Y-108191879D01*
X118745000Y-108285652D01*
X119216428Y-108191879D01*
X119616085Y-107924837D01*
X119716491Y-107774569D01*
X120532011Y-108590089D01*
X120680337Y-108689198D01*
X120855300Y-108724000D01*
X124318000Y-108724000D01*
X124492963Y-108689198D01*
X124641289Y-108590089D01*
X125418289Y-107813089D01*
X125418768Y-107812372D01*
X125493915Y-107924837D01*
X125893572Y-108191879D01*
X126365000Y-108285652D01*
X126836428Y-108191879D01*
X127236085Y-107924837D01*
X127503127Y-107525180D01*
X127589197Y-107092477D01*
X128091840Y-107092477D01*
X128408259Y-107858270D01*
X128993648Y-108444682D01*
X129758888Y-108762437D01*
X130587477Y-108763160D01*
X131353270Y-108446741D01*
X131939682Y-107861352D01*
X132257437Y-107096112D01*
X132258160Y-106267523D01*
X131941741Y-105501730D01*
X131356352Y-104915318D01*
X130591112Y-104597563D01*
X129762523Y-104596840D01*
X128996730Y-104913259D01*
X128410318Y-105498648D01*
X128092563Y-106263888D01*
X128091840Y-107092477D01*
X127589197Y-107092477D01*
X127596900Y-107053752D01*
X127596900Y-106306248D01*
X127503127Y-105834820D01*
X127301933Y-105533712D01*
X127402689Y-105466389D01*
X130477107Y-102391971D01*
X130511053Y-102442775D01*
X130939552Y-102729088D01*
X131445000Y-102829628D01*
X131950448Y-102729088D01*
X132378947Y-102442775D01*
X132665260Y-102014276D01*
X132715000Y-101764216D01*
X132764740Y-102014276D01*
X133051053Y-102442775D01*
X133479552Y-102729088D01*
X133985000Y-102829628D01*
X134490448Y-102729088D01*
X134918947Y-102442775D01*
X135205260Y-102014276D01*
X135255000Y-101764216D01*
X135304740Y-102014276D01*
X135591053Y-102442775D01*
X136019552Y-102729088D01*
X136525000Y-102829628D01*
X137030448Y-102729088D01*
X137458947Y-102442775D01*
X137745260Y-102014276D01*
X137795000Y-101764216D01*
X137844740Y-102014276D01*
X138131053Y-102442775D01*
X138559552Y-102729088D01*
X139065000Y-102829628D01*
X139570448Y-102729088D01*
X139998947Y-102442775D01*
X140285260Y-102014276D01*
X140385800Y-101508828D01*
X140385800Y-100421172D01*
X140285260Y-99915724D01*
X139998947Y-99487225D01*
X139570448Y-99200912D01*
X139065000Y-99100372D01*
X138559552Y-99200912D01*
X138131053Y-99487225D01*
X137844740Y-99915724D01*
X137795000Y-100165784D01*
X137745260Y-99915724D01*
X137458947Y-99487225D01*
X137030448Y-99200912D01*
X136525000Y-99100372D01*
X136019552Y-99200912D01*
X135591053Y-99487225D01*
X135304740Y-99915724D01*
X135255000Y-100165784D01*
X135205260Y-99915724D01*
X134918947Y-99487225D01*
X134490448Y-99200912D01*
X133985000Y-99100372D01*
X133479552Y-99200912D01*
X133051053Y-99487225D01*
X132764740Y-99915724D01*
X132715000Y-100165784D01*
X132665260Y-99915724D01*
X132378947Y-99487225D01*
X131950448Y-99200912D01*
X131445000Y-99100372D01*
X130939552Y-99200912D01*
X130511053Y-99487225D01*
X130457951Y-99566699D01*
X127448885Y-96557707D01*
X127372546Y-96506700D01*
X127300563Y-96458602D01*
X127300560Y-96458601D01*
X127300558Y-96458600D01*
X127220556Y-96442688D01*
X127125600Y-96423800D01*
X121805978Y-96423800D01*
X120942949Y-95560771D01*
X121666000Y-95560771D01*
X121784927Y-95537115D01*
X121885748Y-95469748D01*
X121953115Y-95368927D01*
X121976771Y-95250000D01*
X121976771Y-94284800D01*
X122834400Y-94284800D01*
X122834400Y-95371257D01*
X122927206Y-95595311D01*
X123098689Y-95766794D01*
X123322743Y-95859600D01*
X123774200Y-95859600D01*
X123926600Y-95707200D01*
X123926600Y-94132400D01*
X124231400Y-94132400D01*
X124231400Y-95707200D01*
X124383800Y-95859600D01*
X124835257Y-95859600D01*
X125059311Y-95766794D01*
X125230794Y-95595311D01*
X125323600Y-95371257D01*
X125323600Y-94284800D01*
X125171200Y-94132400D01*
X124231400Y-94132400D01*
X123926600Y-94132400D01*
X122986800Y-94132400D01*
X122834400Y-94284800D01*
X121976771Y-94284800D01*
X121976771Y-92710000D01*
X121970800Y-92679982D01*
X121970800Y-92588743D01*
X122834400Y-92588743D01*
X122834400Y-93675200D01*
X122986800Y-93827600D01*
X123926600Y-93827600D01*
X123926600Y-92252800D01*
X124231400Y-92252800D01*
X124231400Y-93827600D01*
X125171200Y-93827600D01*
X125323600Y-93675200D01*
X125323600Y-93395800D01*
X148305667Y-93395800D01*
X148464211Y-94192853D01*
X148915705Y-94868562D01*
X149591414Y-95320056D01*
X150388467Y-95478600D01*
X152023933Y-95478600D01*
X152820986Y-95320056D01*
X153496695Y-94868562D01*
X153948189Y-94192853D01*
X154106733Y-93395800D01*
X153948189Y-92598747D01*
X153496695Y-91923038D01*
X152820986Y-91471544D01*
X152023933Y-91313000D01*
X150388467Y-91313000D01*
X149591414Y-91471544D01*
X148915705Y-91923038D01*
X148464211Y-92598747D01*
X148305667Y-93395800D01*
X125323600Y-93395800D01*
X125323600Y-92588743D01*
X125230794Y-92364689D01*
X125059311Y-92193206D01*
X124835257Y-92100400D01*
X124383800Y-92100400D01*
X124231400Y-92252800D01*
X123926600Y-92252800D01*
X123774200Y-92100400D01*
X123322743Y-92100400D01*
X123098689Y-92193206D01*
X122927206Y-92364689D01*
X122834400Y-92588743D01*
X121970800Y-92588743D01*
X121970800Y-91183720D01*
X122153262Y-90910646D01*
X122224800Y-90551000D01*
X122224800Y-89734015D01*
X122373970Y-89510766D01*
X122381462Y-89535889D01*
X122783290Y-90030236D01*
X123343709Y-90333180D01*
X123421297Y-90347674D01*
X123672600Y-90238296D01*
X123672600Y-88417400D01*
X123652600Y-88417400D01*
X123652600Y-88112600D01*
X123672600Y-88112600D01*
X123672600Y-86291704D01*
X123421297Y-86182326D01*
X123343709Y-86196820D01*
X122783290Y-86499764D01*
X122381462Y-86994111D01*
X122373970Y-87019234D01*
X122224800Y-86795985D01*
X122224800Y-85979000D01*
X122153262Y-85619354D01*
X121949539Y-85314461D01*
X121433600Y-84798522D01*
X121433600Y-81750690D01*
X121661783Y-81979272D01*
X122240379Y-82219526D01*
X122800937Y-82220015D01*
X125425200Y-84844278D01*
X125425200Y-86795985D01*
X125276030Y-87019234D01*
X125268538Y-86994111D01*
X124866710Y-86499764D01*
X124306291Y-86196820D01*
X124228703Y-86182326D01*
X123977400Y-86291704D01*
X123977400Y-88112600D01*
X123997400Y-88112600D01*
X123997400Y-88417400D01*
X123977400Y-88417400D01*
X123977400Y-90238296D01*
X124228703Y-90347674D01*
X124306291Y-90333180D01*
X124866710Y-90030236D01*
X125268538Y-89535889D01*
X125276030Y-89510766D01*
X125431053Y-89742775D01*
X125859552Y-90029088D01*
X126365000Y-90129628D01*
X126870448Y-90029088D01*
X127298947Y-89742775D01*
X127585260Y-89314276D01*
X127635000Y-89064216D01*
X127684740Y-89314276D01*
X127971053Y-89742775D01*
X128399552Y-90029088D01*
X128905000Y-90129628D01*
X129410448Y-90029088D01*
X129838947Y-89742775D01*
X130125260Y-89314276D01*
X130175000Y-89064216D01*
X130224740Y-89314276D01*
X130511053Y-89742775D01*
X130939552Y-90029088D01*
X131445000Y-90129628D01*
X131950448Y-90029088D01*
X132378947Y-89742775D01*
X132665260Y-89314276D01*
X132715000Y-89064216D01*
X132764740Y-89314276D01*
X133051053Y-89742775D01*
X133479552Y-90029088D01*
X133985000Y-90129628D01*
X134490448Y-90029088D01*
X134918947Y-89742775D01*
X135205260Y-89314276D01*
X135255000Y-89064216D01*
X135304740Y-89314276D01*
X135591053Y-89742775D01*
X136019552Y-90029088D01*
X136525000Y-90129628D01*
X137030448Y-90029088D01*
X137458947Y-89742775D01*
X137613970Y-89510766D01*
X137621462Y-89535889D01*
X138023290Y-90030236D01*
X138583709Y-90333180D01*
X138661297Y-90347674D01*
X138912600Y-90238296D01*
X138912600Y-88417400D01*
X139217400Y-88417400D01*
X139217400Y-90238296D01*
X139468703Y-90347674D01*
X139546291Y-90333180D01*
X140106710Y-90030236D01*
X140508538Y-89535889D01*
X140690600Y-88925400D01*
X140690600Y-88417400D01*
X139217400Y-88417400D01*
X138912600Y-88417400D01*
X138892600Y-88417400D01*
X138892600Y-88112600D01*
X138912600Y-88112600D01*
X138912600Y-86291704D01*
X139217400Y-86291704D01*
X139217400Y-88112600D01*
X140690600Y-88112600D01*
X140690600Y-87604600D01*
X140508538Y-86994111D01*
X140106710Y-86499764D01*
X139546291Y-86196820D01*
X139468703Y-86182326D01*
X139217400Y-86291704D01*
X138912600Y-86291704D01*
X138661297Y-86182326D01*
X138583709Y-86196820D01*
X138023290Y-86499764D01*
X137621462Y-86994111D01*
X137613970Y-87019234D01*
X137458947Y-86787225D01*
X137030448Y-86500912D01*
X136525000Y-86400372D01*
X136019552Y-86500912D01*
X135591053Y-86787225D01*
X135304740Y-87215724D01*
X135255000Y-87465784D01*
X135205260Y-87215724D01*
X134918947Y-86787225D01*
X134490448Y-86500912D01*
X133985000Y-86400372D01*
X133479552Y-86500912D01*
X133051053Y-86787225D01*
X132764740Y-87215724D01*
X132715000Y-87465784D01*
X132665260Y-87215724D01*
X132466175Y-86917771D01*
X132820646Y-86847262D01*
X133125539Y-86643539D01*
X137549492Y-82219586D01*
X138106873Y-82220073D01*
X138685887Y-81980829D01*
X139129272Y-81538217D01*
X139369526Y-80959621D01*
X139370073Y-80333127D01*
X139213772Y-79954850D01*
X140818461Y-81559539D01*
X141123354Y-81763262D01*
X141483000Y-81834800D01*
X141934229Y-81834800D01*
X141934229Y-83375000D01*
X141957885Y-83493927D01*
X142025252Y-83594748D01*
X142126073Y-83662115D01*
X142208350Y-83678481D01*
X142161073Y-83687885D01*
X142060252Y-83755252D01*
X141992885Y-83856073D01*
X141969229Y-83975000D01*
X141969229Y-85415000D01*
X141992885Y-85533927D01*
X142060252Y-85634748D01*
X142161073Y-85702115D01*
X142280000Y-85725771D01*
X143205200Y-85725771D01*
X143205200Y-86258693D01*
X142568833Y-86683900D01*
X142062278Y-87442012D01*
X141884400Y-88336267D01*
X141884400Y-89463733D01*
X142062278Y-90357988D01*
X142568833Y-91116100D01*
X143326945Y-91622655D01*
X144221200Y-91800533D01*
X145115455Y-91622655D01*
X145873567Y-91116100D01*
X146380122Y-90357988D01*
X146558000Y-89463733D01*
X146558000Y-89423265D01*
X146870045Y-89423265D01*
X146935425Y-89672896D01*
X147403549Y-90480525D01*
X148145106Y-91047534D01*
X149047200Y-91287600D01*
X149555200Y-91287600D01*
X149555200Y-89052400D01*
X146969602Y-89052400D01*
X146870045Y-89423265D01*
X146558000Y-89423265D01*
X146558000Y-88376735D01*
X146870045Y-88376735D01*
X146969602Y-88747600D01*
X149555200Y-88747600D01*
X149555200Y-86512400D01*
X149860000Y-86512400D01*
X149860000Y-88747600D01*
X149880000Y-88747600D01*
X149880000Y-89052400D01*
X149860000Y-89052400D01*
X149860000Y-91287600D01*
X150368000Y-91287600D01*
X151270094Y-91047534D01*
X152011651Y-90480525D01*
X152373277Y-89856632D01*
X152492463Y-89976026D01*
X152959073Y-90169779D01*
X153464310Y-90170220D01*
X153931258Y-89977282D01*
X154288826Y-89620337D01*
X154482579Y-89153727D01*
X154483020Y-88648490D01*
X154290082Y-88181542D01*
X153933137Y-87823974D01*
X153466527Y-87630221D01*
X152961290Y-87629780D01*
X152494342Y-87822718D01*
X152373352Y-87943498D01*
X152011651Y-87319475D01*
X151270094Y-86752466D01*
X150368000Y-86512400D01*
X149860000Y-86512400D01*
X149555200Y-86512400D01*
X149047200Y-86512400D01*
X148145106Y-86752466D01*
X147403549Y-87319475D01*
X146935425Y-88127104D01*
X146870045Y-88376735D01*
X146558000Y-88376735D01*
X146558000Y-88336267D01*
X146380122Y-87442012D01*
X145873567Y-86683900D01*
X145115455Y-86177345D01*
X145084800Y-86171247D01*
X145084800Y-85725771D01*
X146010000Y-85725771D01*
X146128927Y-85702115D01*
X146229748Y-85634748D01*
X146297115Y-85533927D01*
X146320771Y-85415000D01*
X146320771Y-84404200D01*
X148305667Y-84404200D01*
X148464211Y-85201253D01*
X148915705Y-85876962D01*
X149591414Y-86328456D01*
X150388467Y-86487000D01*
X152023933Y-86487000D01*
X152820986Y-86328456D01*
X153496695Y-85876962D01*
X153948189Y-85201253D01*
X154106733Y-84404200D01*
X153948189Y-83607147D01*
X153496695Y-82931438D01*
X152820986Y-82479944D01*
X152023933Y-82321400D01*
X150388467Y-82321400D01*
X149591414Y-82479944D01*
X148915705Y-82931438D01*
X148464211Y-83607147D01*
X148305667Y-84404200D01*
X146320771Y-84404200D01*
X146320771Y-83975000D01*
X146297115Y-83856073D01*
X146229748Y-83755252D01*
X146128927Y-83687885D01*
X146081650Y-83678481D01*
X146163927Y-83662115D01*
X146264748Y-83594748D01*
X146332115Y-83493927D01*
X146355771Y-83375000D01*
X146355771Y-78415000D01*
X146332115Y-78296073D01*
X146264748Y-78195252D01*
X146163927Y-78127885D01*
X146045000Y-78104229D01*
X142245000Y-78104229D01*
X142126073Y-78127885D01*
X142025252Y-78195252D01*
X141957885Y-78296073D01*
X141934229Y-78415000D01*
X141934229Y-79955200D01*
X141872278Y-79955200D01*
X139873839Y-77956761D01*
X139568946Y-77753038D01*
X139209300Y-77681500D01*
X121718000Y-77681500D01*
X121358354Y-77753038D01*
X121053461Y-77956761D01*
X120034200Y-78976022D01*
X120034200Y-75557378D01*
X122941790Y-72649789D01*
X123040898Y-72501463D01*
X123054682Y-72432167D01*
X123353572Y-72631879D01*
X123825000Y-72725652D01*
X124296428Y-72631879D01*
X124696085Y-72364837D01*
X124963127Y-71965180D01*
X125056900Y-71493752D01*
X125056900Y-70746248D01*
X125133100Y-70746248D01*
X125133100Y-71493752D01*
X125226873Y-71965180D01*
X125493915Y-72364837D01*
X125893572Y-72631879D01*
X126365000Y-72725652D01*
X126836428Y-72631879D01*
X127236085Y-72364837D01*
X127503127Y-71965180D01*
X127589197Y-71532477D01*
X128091840Y-71532477D01*
X128408259Y-72298270D01*
X128993648Y-72884682D01*
X129758888Y-73202437D01*
X130587477Y-73203160D01*
X131353270Y-72886741D01*
X131939682Y-72301352D01*
X132257437Y-71536112D01*
X132258160Y-70707523D01*
X131941741Y-69941730D01*
X131356352Y-69355318D01*
X130591112Y-69037563D01*
X129762523Y-69036840D01*
X128996730Y-69353259D01*
X128410318Y-69938648D01*
X128092563Y-70703888D01*
X128091840Y-71532477D01*
X127589197Y-71532477D01*
X127596900Y-71493752D01*
X127596900Y-70746248D01*
X127503127Y-70274820D01*
X127236085Y-69875163D01*
X126836428Y-69608121D01*
X126365000Y-69514348D01*
X125893572Y-69608121D01*
X125493915Y-69875163D01*
X125226873Y-70274820D01*
X125133100Y-70746248D01*
X125056900Y-70746248D01*
X124963127Y-70274820D01*
X124696085Y-69875163D01*
X124296428Y-69608121D01*
X123825000Y-69514348D01*
X123353572Y-69608121D01*
X122953915Y-69875163D01*
X122686873Y-70274820D01*
X122609336Y-70664623D01*
X122504800Y-70685416D01*
X122423127Y-70274820D01*
X122156085Y-69875163D01*
X121756428Y-69608121D01*
X121285000Y-69514348D01*
X120813572Y-69608121D01*
X120413915Y-69875163D01*
X120146873Y-70274820D01*
X120069336Y-70664623D01*
X119964800Y-70685416D01*
X119883127Y-70274820D01*
X119616085Y-69875163D01*
X119216428Y-69608121D01*
X118745000Y-69514348D01*
X118273572Y-69608121D01*
X117873915Y-69875163D01*
X117606873Y-70274820D01*
X117513100Y-70746248D01*
X117513100Y-71493752D01*
X117606873Y-71965180D01*
X117873915Y-72364837D01*
X118273572Y-72631879D01*
X118745000Y-72725652D01*
X119104224Y-72654198D01*
X118846911Y-72911511D01*
X118747802Y-73059837D01*
X118713000Y-73234800D01*
X118713000Y-95070400D01*
X118747802Y-95245363D01*
X118846911Y-95393689D01*
X122920662Y-99467441D01*
X122891053Y-99487225D01*
X122604740Y-99915724D01*
X122555000Y-100165784D01*
X122505260Y-99915724D01*
X122218947Y-99487225D01*
X121790448Y-99200912D01*
X121742200Y-99191315D01*
X121742200Y-99161600D01*
X121707398Y-98986637D01*
X121608289Y-98838311D01*
X116294500Y-93524522D01*
X116294500Y-80766400D01*
X116259698Y-80591437D01*
X116160589Y-80443111D01*
X109270189Y-73552711D01*
X109121863Y-73453602D01*
X108946900Y-73418800D01*
X101839378Y-73418800D01*
X101116162Y-72695584D01*
X101436428Y-72631879D01*
X101836085Y-72364837D01*
X102103127Y-71965180D01*
X102196900Y-71493752D01*
X102196900Y-70746248D01*
X102103127Y-70274820D01*
X101941214Y-70032500D01*
X102528786Y-70032500D01*
X102366873Y-70274820D01*
X102273100Y-70746248D01*
X102273100Y-71493752D01*
X102366873Y-71965180D01*
X102633915Y-72364837D01*
X103033572Y-72631879D01*
X103505000Y-72725652D01*
X103976428Y-72631879D01*
X104376085Y-72364837D01*
X104643127Y-71965180D01*
X104724800Y-71554584D01*
X104829336Y-71575377D01*
X104906873Y-71965180D01*
X105173915Y-72364837D01*
X105573572Y-72631879D01*
X106045000Y-72725652D01*
X106516428Y-72631879D01*
X106916085Y-72364837D01*
X107183127Y-71965180D01*
X107276900Y-71493752D01*
X107276900Y-70746248D01*
X107353100Y-70746248D01*
X107353100Y-71493752D01*
X107446873Y-71965180D01*
X107713915Y-72364837D01*
X108113572Y-72631879D01*
X108585000Y-72725652D01*
X109056428Y-72631879D01*
X109456085Y-72364837D01*
X109723127Y-71965180D01*
X109816900Y-71493752D01*
X109816900Y-70746248D01*
X109893100Y-70746248D01*
X109893100Y-71493752D01*
X109986873Y-71965180D01*
X110253915Y-72364837D01*
X110653572Y-72631879D01*
X111125000Y-72725652D01*
X111596428Y-72631879D01*
X111996085Y-72364837D01*
X112263127Y-71965180D01*
X112356900Y-71493752D01*
X112356900Y-70746248D01*
X112433100Y-70746248D01*
X112433100Y-71493752D01*
X112526873Y-71965180D01*
X112793915Y-72364837D01*
X113193572Y-72631879D01*
X113665000Y-72725652D01*
X114136428Y-72631879D01*
X114536085Y-72364837D01*
X114803127Y-71965180D01*
X114896900Y-71493752D01*
X114896900Y-70746248D01*
X114973100Y-70746248D01*
X114973100Y-71493752D01*
X115066873Y-71965180D01*
X115333915Y-72364837D01*
X115733572Y-72631879D01*
X116205000Y-72725652D01*
X116676428Y-72631879D01*
X117076085Y-72364837D01*
X117343127Y-71965180D01*
X117436900Y-71493752D01*
X117436900Y-70746248D01*
X117343127Y-70274820D01*
X117076085Y-69875163D01*
X116676428Y-69608121D01*
X116205000Y-69514348D01*
X115733572Y-69608121D01*
X115333915Y-69875163D01*
X115066873Y-70274820D01*
X114973100Y-70746248D01*
X114896900Y-70746248D01*
X114803127Y-70274820D01*
X114536085Y-69875163D01*
X114136428Y-69608121D01*
X113665000Y-69514348D01*
X113193572Y-69608121D01*
X112793915Y-69875163D01*
X112526873Y-70274820D01*
X112433100Y-70746248D01*
X112356900Y-70746248D01*
X112263127Y-70274820D01*
X111996085Y-69875163D01*
X111596428Y-69608121D01*
X111125000Y-69514348D01*
X110653572Y-69608121D01*
X110253915Y-69875163D01*
X109986873Y-70274820D01*
X109893100Y-70746248D01*
X109816900Y-70746248D01*
X109723127Y-70274820D01*
X109456085Y-69875163D01*
X109056428Y-69608121D01*
X108585000Y-69514348D01*
X108113572Y-69608121D01*
X107713915Y-69875163D01*
X107446873Y-70274820D01*
X107353100Y-70746248D01*
X107276900Y-70746248D01*
X107183127Y-70274820D01*
X106916085Y-69875163D01*
X106516428Y-69608121D01*
X106045000Y-69514348D01*
X105573572Y-69608121D01*
X105173915Y-69875163D01*
X105095299Y-69992821D01*
X104354489Y-69252011D01*
X104206163Y-69152902D01*
X104031200Y-69118100D01*
X90296600Y-69118100D01*
X90121637Y-69152902D01*
X89973311Y-69252011D01*
X89481709Y-69743613D01*
X89479215Y-69731073D01*
X89411848Y-69630252D01*
X89311027Y-69562885D01*
X89192100Y-69539229D01*
X87337900Y-69539229D01*
X87218973Y-69562885D01*
X87118152Y-69630252D01*
X87050785Y-69731073D01*
X87027129Y-69850000D01*
X87027129Y-72390000D01*
X87050785Y-72508927D01*
X87118152Y-72609748D01*
X87218973Y-72677115D01*
X87337900Y-72700771D01*
X88989300Y-72700771D01*
X88989300Y-73199722D01*
X86606811Y-75582211D01*
X86507702Y-75730537D01*
X86472900Y-75905500D01*
X86144100Y-75905500D01*
X86144100Y-68364100D01*
X155790900Y-68364100D01*
X155790900Y-109435900D01*
G36*
X94746873Y-70274820D02*
X94653100Y-70746248D01*
X94653100Y-71493752D01*
X94746873Y-71965180D01*
X95013915Y-72364837D01*
X95413572Y-72631879D01*
X95885000Y-72725652D01*
X96356428Y-72631879D01*
X96756085Y-72364837D01*
X97023127Y-71965180D01*
X97116900Y-71493752D01*
X97116900Y-70746248D01*
X97023127Y-70274820D01*
X96861214Y-70032500D01*
X97448786Y-70032500D01*
X97286873Y-70274820D01*
X97193100Y-70746248D01*
X97193100Y-71493752D01*
X97286873Y-71965180D01*
X97553915Y-72364837D01*
X97953572Y-72631879D01*
X98425000Y-72725652D01*
X98896428Y-72631879D01*
X99296085Y-72364837D01*
X99374661Y-72247239D01*
X101326711Y-74199289D01*
X101475037Y-74298398D01*
X101650000Y-74333200D01*
X108757522Y-74333200D01*
X113304119Y-78879797D01*
X113231634Y-78883048D01*
X112725548Y-79092676D01*
X112602458Y-79366931D01*
X113665000Y-80429474D01*
X113679143Y-80415332D01*
X113894669Y-80630858D01*
X113880526Y-80645000D01*
X114943069Y-81707542D01*
X115217324Y-81584452D01*
X115380100Y-81135569D01*
X115380100Y-93713900D01*
X115414902Y-93888863D01*
X115514011Y-94037189D01*
X120718516Y-99241694D01*
X120351053Y-99487225D01*
X120064740Y-99915724D01*
X119964200Y-100421172D01*
X119964200Y-101508828D01*
X120064740Y-102014276D01*
X120351053Y-102442775D01*
X120779552Y-102729088D01*
X121285000Y-102829628D01*
X121790448Y-102729088D01*
X122218947Y-102442775D01*
X122505260Y-102014276D01*
X122555000Y-101764216D01*
X122604740Y-102014276D01*
X122891053Y-102442775D01*
X123319552Y-102729088D01*
X123825000Y-102829628D01*
X124330448Y-102729088D01*
X124758947Y-102442775D01*
X125045260Y-102014276D01*
X125095000Y-101764216D01*
X125144740Y-102014276D01*
X125431053Y-102442775D01*
X125798516Y-102688306D01*
X123913900Y-104572922D01*
X123068189Y-103727211D01*
X122919863Y-103628102D01*
X122744900Y-103593300D01*
X109484278Y-103593300D01*
X103202689Y-97311711D01*
X103185651Y-97300327D01*
X112253089Y-88232889D01*
X112352198Y-88084563D01*
X112387000Y-87909600D01*
X112387000Y-81930225D01*
X112491152Y-82034377D01*
X112602459Y-81923070D01*
X112725548Y-82197324D01*
X113391109Y-82438673D01*
X114098366Y-82406952D01*
X114604452Y-82197324D01*
X114727542Y-81923069D01*
X113665000Y-80860526D01*
X113650858Y-80874669D01*
X113435331Y-80659142D01*
X113449474Y-80645000D01*
X112386931Y-79582458D01*
X112385639Y-79583038D01*
X112354799Y-79552144D01*
X112079499Y-79437830D01*
X111781409Y-79437570D01*
X111505910Y-79551404D01*
X111294944Y-79762001D01*
X111190158Y-80014354D01*
X111106004Y-79810684D01*
X110691498Y-79395454D01*
X110149643Y-79170457D01*
X109562931Y-79169945D01*
X109020684Y-79393996D01*
X108605454Y-79808502D01*
X108380457Y-80350357D01*
X108379945Y-80937069D01*
X108541843Y-81328894D01*
X108477602Y-81425037D01*
X108442800Y-81600000D01*
X108442800Y-82654207D01*
X108350657Y-82616040D01*
X108242100Y-82616040D01*
X108089700Y-82768440D01*
X108089700Y-83738720D01*
X108122400Y-83738720D01*
X108122400Y-84043520D01*
X108089700Y-84043520D01*
X108089700Y-84063520D01*
X107810300Y-84063520D01*
X107810300Y-84043520D01*
X107777600Y-84043520D01*
X107777600Y-83738720D01*
X107810300Y-83738720D01*
X107810300Y-82768440D01*
X107657900Y-82616040D01*
X107549343Y-82616040D01*
X107368696Y-82690866D01*
X107323289Y-82622911D01*
X107174963Y-82523802D01*
X107000000Y-82489000D01*
X104725578Y-82489000D01*
X104159647Y-81923069D01*
X104982458Y-81923069D01*
X105105548Y-82197324D01*
X105771109Y-82438673D01*
X106478366Y-82406952D01*
X106984452Y-82197324D01*
X107107542Y-81923069D01*
X106045000Y-80860526D01*
X104982458Y-81923069D01*
X104159647Y-81923069D01*
X103553065Y-81316487D01*
X103709543Y-80939643D01*
X103710039Y-80371109D01*
X104251327Y-80371109D01*
X104283048Y-81078366D01*
X104492676Y-81584452D01*
X104766931Y-81707542D01*
X105829474Y-80645000D01*
X106260526Y-80645000D01*
X107323069Y-81707542D01*
X107597324Y-81584452D01*
X107838673Y-80918891D01*
X107806952Y-80211634D01*
X107597324Y-79705548D01*
X107323069Y-79582458D01*
X106260526Y-80645000D01*
X105829474Y-80645000D01*
X104766931Y-79582458D01*
X104492676Y-79705548D01*
X104251327Y-80371109D01*
X103710039Y-80371109D01*
X103710055Y-80352931D01*
X103486004Y-79810684D01*
X103071498Y-79395454D01*
X103002807Y-79366931D01*
X104982458Y-79366931D01*
X106045000Y-80429474D01*
X107107542Y-79366931D01*
X106984452Y-79092676D01*
X106318891Y-78851327D01*
X105611634Y-78883048D01*
X105105548Y-79092676D01*
X104982458Y-79366931D01*
X103002807Y-79366931D01*
X102529643Y-79170457D01*
X101942931Y-79169945D01*
X101400684Y-79393996D01*
X100985454Y-79808502D01*
X100760457Y-80350357D01*
X100759945Y-80937069D01*
X100983996Y-81479316D01*
X101398502Y-81894546D01*
X101940357Y-82119543D01*
X102527069Y-82120055D01*
X102906641Y-81963219D01*
X103264822Y-82321400D01*
X103174800Y-82321400D01*
X103022400Y-82473800D01*
X103022400Y-83413600D01*
X104597200Y-83413600D01*
X104607400Y-83403400D01*
X106409869Y-83403400D01*
X106409869Y-84480000D01*
X104684261Y-84480000D01*
X104749600Y-84322257D01*
X104749600Y-83870800D01*
X104597200Y-83718400D01*
X103022400Y-83718400D01*
X103022400Y-83738400D01*
X102717600Y-83738400D01*
X102717600Y-83718400D01*
X101142800Y-83718400D01*
X100990400Y-83870800D01*
X100990400Y-84322257D01*
X101083206Y-84546311D01*
X101254689Y-84717794D01*
X101478743Y-84810600D01*
X101729922Y-84810600D01*
X99979711Y-86560811D01*
X99880602Y-86709137D01*
X99845800Y-86884100D01*
X99845800Y-88807594D01*
X99646599Y-88608044D01*
X99371299Y-88493730D01*
X99360445Y-88493721D01*
X99443927Y-88477115D01*
X99544748Y-88409748D01*
X99612115Y-88308927D01*
X99635771Y-88190000D01*
X99635771Y-86190000D01*
X99612115Y-86071073D01*
X99544748Y-85970252D01*
X99443927Y-85902885D01*
X99325000Y-85879229D01*
X97525000Y-85879229D01*
X97406073Y-85902885D01*
X97305252Y-85970252D01*
X97237885Y-86071073D01*
X97214229Y-86190000D01*
X97214229Y-88190000D01*
X97237885Y-88308927D01*
X97305252Y-88409748D01*
X97406073Y-88477115D01*
X97525000Y-88500771D01*
X97974040Y-88500771D01*
X98002602Y-88644363D01*
X98101711Y-88792689D01*
X98171328Y-88839206D01*
X98472389Y-89140267D01*
X98472170Y-89391291D01*
X98586004Y-89666790D01*
X98796601Y-89877756D01*
X98889776Y-89916445D01*
X97851711Y-90954511D01*
X97752602Y-91102837D01*
X97717800Y-91277800D01*
X97717800Y-91574229D01*
X97550000Y-91574229D01*
X97431073Y-91597885D01*
X97425000Y-91601943D01*
X97418927Y-91597885D01*
X97333893Y-91580971D01*
X97316794Y-91539689D01*
X97145311Y-91368206D01*
X96921257Y-91275400D01*
X96889900Y-91275400D01*
X96737500Y-91427800D01*
X96737500Y-92732600D01*
X96739229Y-92732600D01*
X96739229Y-93037400D01*
X96737500Y-93037400D01*
X96737500Y-93057400D01*
X96612500Y-93057400D01*
X96612500Y-93037400D01*
X96092800Y-93037400D01*
X95940400Y-93189800D01*
X95940400Y-93699229D01*
X94425000Y-93699229D01*
X94306073Y-93722885D01*
X94205252Y-93790252D01*
X94137885Y-93891073D01*
X94120971Y-93976107D01*
X94079689Y-93993206D01*
X93908206Y-94164689D01*
X93815400Y-94388743D01*
X93815400Y-94420100D01*
X93967800Y-94572500D01*
X95272600Y-94572500D01*
X95272600Y-94570771D01*
X95577400Y-94570771D01*
X95577400Y-94572500D01*
X95597400Y-94572500D01*
X95597400Y-94697500D01*
X95577400Y-94697500D01*
X95577400Y-94699229D01*
X95532732Y-94699229D01*
X95425000Y-94677800D01*
X95317268Y-94699229D01*
X95272600Y-94699229D01*
X95272600Y-94697500D01*
X93967800Y-94697500D01*
X93815400Y-94849900D01*
X93815400Y-94881257D01*
X93908206Y-95105311D01*
X94008054Y-95205159D01*
X93970637Y-95212602D01*
X93822311Y-95311711D01*
X93723202Y-95460037D01*
X93688400Y-95635000D01*
X93688400Y-96041721D01*
X93454410Y-96138404D01*
X93275701Y-96316800D01*
X93020771Y-96316800D01*
X93020771Y-96139000D01*
X92997115Y-96020073D01*
X92929748Y-95919252D01*
X92828927Y-95851885D01*
X92710000Y-95828229D01*
X91801307Y-95828229D01*
X90943678Y-94970600D01*
X91135200Y-94970600D01*
X91287600Y-94818200D01*
X91287600Y-93878400D01*
X91592400Y-93878400D01*
X91592400Y-94818200D01*
X91744800Y-94970600D01*
X92831257Y-94970600D01*
X93055311Y-94877794D01*
X93226794Y-94706311D01*
X93319600Y-94482257D01*
X93319600Y-94030800D01*
X93167200Y-93878400D01*
X91592400Y-93878400D01*
X91287600Y-93878400D01*
X91267600Y-93878400D01*
X91267600Y-93573600D01*
X91287600Y-93573600D01*
X91287600Y-92633800D01*
X91592400Y-92633800D01*
X91592400Y-93573600D01*
X93167200Y-93573600D01*
X93319600Y-93421200D01*
X93319600Y-92969743D01*
X93226794Y-92745689D01*
X93055311Y-92574206D01*
X92831257Y-92481400D01*
X91744800Y-92481400D01*
X91592400Y-92633800D01*
X91287600Y-92633800D01*
X91135200Y-92481400D01*
X90048743Y-92481400D01*
X89824689Y-92574206D01*
X89653206Y-92745689D01*
X89560400Y-92969743D01*
X89560400Y-93421200D01*
X89712798Y-93573598D01*
X89560400Y-93573598D01*
X89560400Y-93587322D01*
X87832800Y-91859722D01*
X87832800Y-91763743D01*
X95940400Y-91763743D01*
X95940400Y-92580200D01*
X96092800Y-92732600D01*
X96612500Y-92732600D01*
X96612500Y-91427800D01*
X96460100Y-91275400D01*
X96428743Y-91275400D01*
X96204689Y-91368206D01*
X96033206Y-91539689D01*
X95940400Y-91763743D01*
X87832800Y-91763743D01*
X87832800Y-87858600D01*
X88595200Y-87858600D01*
X88747600Y-87706200D01*
X88747600Y-86766400D01*
X89052400Y-86766400D01*
X89052400Y-87706200D01*
X89204800Y-87858600D01*
X90291257Y-87858600D01*
X90515311Y-87765794D01*
X90686794Y-87594311D01*
X90779600Y-87370257D01*
X90779600Y-86918800D01*
X90627200Y-86766400D01*
X89052400Y-86766400D01*
X88747600Y-86766400D01*
X88727600Y-86766400D01*
X88727600Y-86461600D01*
X88747600Y-86461600D01*
X88747600Y-85521800D01*
X89052400Y-85521800D01*
X89052400Y-86461600D01*
X90627200Y-86461600D01*
X90779600Y-86309200D01*
X90779600Y-85857743D01*
X90686794Y-85633689D01*
X90515311Y-85462206D01*
X90291257Y-85369400D01*
X89204800Y-85369400D01*
X89052400Y-85521800D01*
X88747600Y-85521800D01*
X88595200Y-85369400D01*
X88428978Y-85369400D01*
X88860778Y-84937600D01*
X88900000Y-84937600D01*
X89074963Y-84902798D01*
X89223289Y-84803689D01*
X89322398Y-84655363D01*
X89350960Y-84511771D01*
X90170000Y-84511771D01*
X90288927Y-84488115D01*
X90389748Y-84420748D01*
X90457115Y-84319927D01*
X90480771Y-84201000D01*
X90480771Y-84023200D01*
X92140833Y-84023200D01*
X92157885Y-84108927D01*
X92225252Y-84209748D01*
X92326073Y-84277115D01*
X92445000Y-84300771D01*
X92887800Y-84300771D01*
X92887800Y-85879229D01*
X92445000Y-85879229D01*
X92326073Y-85902885D01*
X92225252Y-85970252D01*
X92157885Y-86071073D01*
X92134229Y-86190000D01*
X92134229Y-88190000D01*
X92157885Y-88308927D01*
X92225252Y-88409748D01*
X92326073Y-88477115D01*
X92445000Y-88500771D01*
X94245000Y-88500771D01*
X94363927Y-88477115D01*
X94464748Y-88409748D01*
X94532115Y-88308927D01*
X94555771Y-88190000D01*
X94555771Y-86190000D01*
X94532115Y-86071073D01*
X94464748Y-85970252D01*
X94363927Y-85902885D01*
X94245000Y-85879229D01*
X93802200Y-85879229D01*
X93802200Y-84300771D01*
X94245000Y-84300771D01*
X94363927Y-84277115D01*
X94464748Y-84209748D01*
X94532115Y-84108927D01*
X94555771Y-83990000D01*
X94555771Y-83294800D01*
X96915400Y-83294800D01*
X96915400Y-84111257D01*
X97008206Y-84335311D01*
X97179689Y-84506794D01*
X97403743Y-84599600D01*
X98120200Y-84599600D01*
X98272600Y-84447200D01*
X98272600Y-83142400D01*
X98577400Y-83142400D01*
X98577400Y-84447200D01*
X98729800Y-84599600D01*
X99446257Y-84599600D01*
X99670311Y-84506794D01*
X99841794Y-84335311D01*
X99934600Y-84111257D01*
X99934600Y-83294800D01*
X99782200Y-83142400D01*
X98577400Y-83142400D01*
X98272600Y-83142400D01*
X97067800Y-83142400D01*
X96915400Y-83294800D01*
X94555771Y-83294800D01*
X94555771Y-81990000D01*
X94532115Y-81871073D01*
X94530559Y-81868743D01*
X96915400Y-81868743D01*
X96915400Y-82685200D01*
X97067800Y-82837600D01*
X98272600Y-82837600D01*
X98272600Y-81532800D01*
X98577400Y-81532800D01*
X98577400Y-82837600D01*
X99782200Y-82837600D01*
X99810057Y-82809743D01*
X100990400Y-82809743D01*
X100990400Y-83261200D01*
X101142800Y-83413600D01*
X102717600Y-83413600D01*
X102717600Y-82473800D01*
X102565200Y-82321400D01*
X101478743Y-82321400D01*
X101254689Y-82414206D01*
X101083206Y-82585689D01*
X100990400Y-82809743D01*
X99810057Y-82809743D01*
X99934600Y-82685200D01*
X99934600Y-81868743D01*
X99841794Y-81644689D01*
X99670311Y-81473206D01*
X99446257Y-81380400D01*
X98729800Y-81380400D01*
X98577400Y-81532800D01*
X98272600Y-81532800D01*
X98120200Y-81380400D01*
X97403743Y-81380400D01*
X97179689Y-81473206D01*
X97008206Y-81644689D01*
X96915400Y-81868743D01*
X94530559Y-81868743D01*
X94464748Y-81770252D01*
X94363927Y-81702885D01*
X94245000Y-81679229D01*
X92445000Y-81679229D01*
X92326073Y-81702885D01*
X92225252Y-81770252D01*
X92157885Y-81871073D01*
X92134229Y-81990000D01*
X92134229Y-83108800D01*
X90480771Y-83108800D01*
X90480771Y-82931000D01*
X90457115Y-82812073D01*
X90389748Y-82711252D01*
X90288927Y-82643885D01*
X90170000Y-82620229D01*
X87630000Y-82620229D01*
X87511073Y-82643885D01*
X87410252Y-82711252D01*
X87387300Y-82745602D01*
X87387300Y-76094878D01*
X87452348Y-76029830D01*
X87451840Y-76612477D01*
X87768259Y-77378270D01*
X88353648Y-77964682D01*
X89118888Y-78282437D01*
X89947477Y-78283160D01*
X90713270Y-77966741D01*
X91299682Y-77381352D01*
X91617437Y-76616112D01*
X91618160Y-75787523D01*
X91301741Y-75021730D01*
X90716352Y-74435318D01*
X89951112Y-74117563D01*
X89365126Y-74117052D01*
X89769789Y-73712389D01*
X89868898Y-73564063D01*
X89903700Y-73389100D01*
X89903700Y-72698657D01*
X90357730Y-72940947D01*
X90415269Y-72949357D01*
X90652600Y-72838785D01*
X90652600Y-71272400D01*
X90632600Y-71272400D01*
X90632600Y-70967600D01*
X90652600Y-70967600D01*
X90652600Y-70947600D01*
X90957400Y-70947600D01*
X90957400Y-70967600D01*
X90977400Y-70967600D01*
X90977400Y-71272400D01*
X90957400Y-71272400D01*
X90957400Y-72838785D01*
X91194731Y-72949357D01*
X91252270Y-72940947D01*
X91783848Y-72657274D01*
X92166405Y-72191769D01*
X92226414Y-71994425D01*
X92473915Y-72364837D01*
X92873572Y-72631879D01*
X93345000Y-72725652D01*
X93816428Y-72631879D01*
X94216085Y-72364837D01*
X94483127Y-71965180D01*
X94576900Y-71493752D01*
X94576900Y-70746248D01*
X94483127Y-70274820D01*
X94321214Y-70032500D01*
X94908786Y-70032500D01*
X94746873Y-70274820D01*
X94746873Y-70274820D01*
G37*
X94746873Y-70274820D02*
X94653100Y-70746248D01*
X94653100Y-71493752D01*
X94746873Y-71965180D01*
X95013915Y-72364837D01*
X95413572Y-72631879D01*
X95885000Y-72725652D01*
X96356428Y-72631879D01*
X96756085Y-72364837D01*
X97023127Y-71965180D01*
X97116900Y-71493752D01*
X97116900Y-70746248D01*
X97023127Y-70274820D01*
X96861214Y-70032500D01*
X97448786Y-70032500D01*
X97286873Y-70274820D01*
X97193100Y-70746248D01*
X97193100Y-71493752D01*
X97286873Y-71965180D01*
X97553915Y-72364837D01*
X97953572Y-72631879D01*
X98425000Y-72725652D01*
X98896428Y-72631879D01*
X99296085Y-72364837D01*
X99374661Y-72247239D01*
X101326711Y-74199289D01*
X101475037Y-74298398D01*
X101650000Y-74333200D01*
X108757522Y-74333200D01*
X113304119Y-78879797D01*
X113231634Y-78883048D01*
X112725548Y-79092676D01*
X112602458Y-79366931D01*
X113665000Y-80429474D01*
X113679143Y-80415332D01*
X113894669Y-80630858D01*
X113880526Y-80645000D01*
X114943069Y-81707542D01*
X115217324Y-81584452D01*
X115380100Y-81135569D01*
X115380100Y-93713900D01*
X115414902Y-93888863D01*
X115514011Y-94037189D01*
X120718516Y-99241694D01*
X120351053Y-99487225D01*
X120064740Y-99915724D01*
X119964200Y-100421172D01*
X119964200Y-101508828D01*
X120064740Y-102014276D01*
X120351053Y-102442775D01*
X120779552Y-102729088D01*
X121285000Y-102829628D01*
X121790448Y-102729088D01*
X122218947Y-102442775D01*
X122505260Y-102014276D01*
X122555000Y-101764216D01*
X122604740Y-102014276D01*
X122891053Y-102442775D01*
X123319552Y-102729088D01*
X123825000Y-102829628D01*
X124330448Y-102729088D01*
X124758947Y-102442775D01*
X125045260Y-102014276D01*
X125095000Y-101764216D01*
X125144740Y-102014276D01*
X125431053Y-102442775D01*
X125798516Y-102688306D01*
X123913900Y-104572922D01*
X123068189Y-103727211D01*
X122919863Y-103628102D01*
X122744900Y-103593300D01*
X109484278Y-103593300D01*
X103202689Y-97311711D01*
X103185651Y-97300327D01*
X112253089Y-88232889D01*
X112352198Y-88084563D01*
X112387000Y-87909600D01*
X112387000Y-81930225D01*
X112491152Y-82034377D01*
X112602459Y-81923070D01*
X112725548Y-82197324D01*
X113391109Y-82438673D01*
X114098366Y-82406952D01*
X114604452Y-82197324D01*
X114727542Y-81923069D01*
X113665000Y-80860526D01*
X113650858Y-80874669D01*
X113435331Y-80659142D01*
X113449474Y-80645000D01*
X112386931Y-79582458D01*
X112385639Y-79583038D01*
X112354799Y-79552144D01*
X112079499Y-79437830D01*
X111781409Y-79437570D01*
X111505910Y-79551404D01*
X111294944Y-79762001D01*
X111190158Y-80014354D01*
X111106004Y-79810684D01*
X110691498Y-79395454D01*
X110149643Y-79170457D01*
X109562931Y-79169945D01*
X109020684Y-79393996D01*
X108605454Y-79808502D01*
X108380457Y-80350357D01*
X108379945Y-80937069D01*
X108541843Y-81328894D01*
X108477602Y-81425037D01*
X108442800Y-81600000D01*
X108442800Y-82654207D01*
X108350657Y-82616040D01*
X108242100Y-82616040D01*
X108089700Y-82768440D01*
X108089700Y-83738720D01*
X108122400Y-83738720D01*
X108122400Y-84043520D01*
X108089700Y-84043520D01*
X108089700Y-84063520D01*
X107810300Y-84063520D01*
X107810300Y-84043520D01*
X107777600Y-84043520D01*
X107777600Y-83738720D01*
X107810300Y-83738720D01*
X107810300Y-82768440D01*
X107657900Y-82616040D01*
X107549343Y-82616040D01*
X107368696Y-82690866D01*
X107323289Y-82622911D01*
X107174963Y-82523802D01*
X107000000Y-82489000D01*
X104725578Y-82489000D01*
X104159647Y-81923069D01*
X104982458Y-81923069D01*
X105105548Y-82197324D01*
X105771109Y-82438673D01*
X106478366Y-82406952D01*
X106984452Y-82197324D01*
X107107542Y-81923069D01*
X106045000Y-80860526D01*
X104982458Y-81923069D01*
X104159647Y-81923069D01*
X103553065Y-81316487D01*
X103709543Y-80939643D01*
X103710039Y-80371109D01*
X104251327Y-80371109D01*
X104283048Y-81078366D01*
X104492676Y-81584452D01*
X104766931Y-81707542D01*
X105829474Y-80645000D01*
X106260526Y-80645000D01*
X107323069Y-81707542D01*
X107597324Y-81584452D01*
X107838673Y-80918891D01*
X107806952Y-80211634D01*
X107597324Y-79705548D01*
X107323069Y-79582458D01*
X106260526Y-80645000D01*
X105829474Y-80645000D01*
X104766931Y-79582458D01*
X104492676Y-79705548D01*
X104251327Y-80371109D01*
X103710039Y-80371109D01*
X103710055Y-80352931D01*
X103486004Y-79810684D01*
X103071498Y-79395454D01*
X103002807Y-79366931D01*
X104982458Y-79366931D01*
X106045000Y-80429474D01*
X107107542Y-79366931D01*
X106984452Y-79092676D01*
X106318891Y-78851327D01*
X105611634Y-78883048D01*
X105105548Y-79092676D01*
X104982458Y-79366931D01*
X103002807Y-79366931D01*
X102529643Y-79170457D01*
X101942931Y-79169945D01*
X101400684Y-79393996D01*
X100985454Y-79808502D01*
X100760457Y-80350357D01*
X100759945Y-80937069D01*
X100983996Y-81479316D01*
X101398502Y-81894546D01*
X101940357Y-82119543D01*
X102527069Y-82120055D01*
X102906641Y-81963219D01*
X103264822Y-82321400D01*
X103174800Y-82321400D01*
X103022400Y-82473800D01*
X103022400Y-83413600D01*
X104597200Y-83413600D01*
X104607400Y-83403400D01*
X106409869Y-83403400D01*
X106409869Y-84480000D01*
X104684261Y-84480000D01*
X104749600Y-84322257D01*
X104749600Y-83870800D01*
X104597200Y-83718400D01*
X103022400Y-83718400D01*
X103022400Y-83738400D01*
X102717600Y-83738400D01*
X102717600Y-83718400D01*
X101142800Y-83718400D01*
X100990400Y-83870800D01*
X100990400Y-84322257D01*
X101083206Y-84546311D01*
X101254689Y-84717794D01*
X101478743Y-84810600D01*
X101729922Y-84810600D01*
X99979711Y-86560811D01*
X99880602Y-86709137D01*
X99845800Y-86884100D01*
X99845800Y-88807594D01*
X99646599Y-88608044D01*
X99371299Y-88493730D01*
X99360445Y-88493721D01*
X99443927Y-88477115D01*
X99544748Y-88409748D01*
X99612115Y-88308927D01*
X99635771Y-88190000D01*
X99635771Y-86190000D01*
X99612115Y-86071073D01*
X99544748Y-85970252D01*
X99443927Y-85902885D01*
X99325000Y-85879229D01*
X97525000Y-85879229D01*
X97406073Y-85902885D01*
X97305252Y-85970252D01*
X97237885Y-86071073D01*
X97214229Y-86190000D01*
X97214229Y-88190000D01*
X97237885Y-88308927D01*
X97305252Y-88409748D01*
X97406073Y-88477115D01*
X97525000Y-88500771D01*
X97974040Y-88500771D01*
X98002602Y-88644363D01*
X98101711Y-88792689D01*
X98171328Y-88839206D01*
X98472389Y-89140267D01*
X98472170Y-89391291D01*
X98586004Y-89666790D01*
X98796601Y-89877756D01*
X98889776Y-89916445D01*
X97851711Y-90954511D01*
X97752602Y-91102837D01*
X97717800Y-91277800D01*
X97717800Y-91574229D01*
X97550000Y-91574229D01*
X97431073Y-91597885D01*
X97425000Y-91601943D01*
X97418927Y-91597885D01*
X97333893Y-91580971D01*
X97316794Y-91539689D01*
X97145311Y-91368206D01*
X96921257Y-91275400D01*
X96889900Y-91275400D01*
X96737500Y-91427800D01*
X96737500Y-92732600D01*
X96739229Y-92732600D01*
X96739229Y-93037400D01*
X96737500Y-93037400D01*
X96737500Y-93057400D01*
X96612500Y-93057400D01*
X96612500Y-93037400D01*
X96092800Y-93037400D01*
X95940400Y-93189800D01*
X95940400Y-93699229D01*
X94425000Y-93699229D01*
X94306073Y-93722885D01*
X94205252Y-93790252D01*
X94137885Y-93891073D01*
X94120971Y-93976107D01*
X94079689Y-93993206D01*
X93908206Y-94164689D01*
X93815400Y-94388743D01*
X93815400Y-94420100D01*
X93967800Y-94572500D01*
X95272600Y-94572500D01*
X95272600Y-94570771D01*
X95577400Y-94570771D01*
X95577400Y-94572500D01*
X95597400Y-94572500D01*
X95597400Y-94697500D01*
X95577400Y-94697500D01*
X95577400Y-94699229D01*
X95532732Y-94699229D01*
X95425000Y-94677800D01*
X95317268Y-94699229D01*
X95272600Y-94699229D01*
X95272600Y-94697500D01*
X93967800Y-94697500D01*
X93815400Y-94849900D01*
X93815400Y-94881257D01*
X93908206Y-95105311D01*
X94008054Y-95205159D01*
X93970637Y-95212602D01*
X93822311Y-95311711D01*
X93723202Y-95460037D01*
X93688400Y-95635000D01*
X93688400Y-96041721D01*
X93454410Y-96138404D01*
X93275701Y-96316800D01*
X93020771Y-96316800D01*
X93020771Y-96139000D01*
X92997115Y-96020073D01*
X92929748Y-95919252D01*
X92828927Y-95851885D01*
X92710000Y-95828229D01*
X91801307Y-95828229D01*
X90943678Y-94970600D01*
X91135200Y-94970600D01*
X91287600Y-94818200D01*
X91287600Y-93878400D01*
X91592400Y-93878400D01*
X91592400Y-94818200D01*
X91744800Y-94970600D01*
X92831257Y-94970600D01*
X93055311Y-94877794D01*
X93226794Y-94706311D01*
X93319600Y-94482257D01*
X93319600Y-94030800D01*
X93167200Y-93878400D01*
X91592400Y-93878400D01*
X91287600Y-93878400D01*
X91267600Y-93878400D01*
X91267600Y-93573600D01*
X91287600Y-93573600D01*
X91287600Y-92633800D01*
X91592400Y-92633800D01*
X91592400Y-93573600D01*
X93167200Y-93573600D01*
X93319600Y-93421200D01*
X93319600Y-92969743D01*
X93226794Y-92745689D01*
X93055311Y-92574206D01*
X92831257Y-92481400D01*
X91744800Y-92481400D01*
X91592400Y-92633800D01*
X91287600Y-92633800D01*
X91135200Y-92481400D01*
X90048743Y-92481400D01*
X89824689Y-92574206D01*
X89653206Y-92745689D01*
X89560400Y-92969743D01*
X89560400Y-93421200D01*
X89712798Y-93573598D01*
X89560400Y-93573598D01*
X89560400Y-93587322D01*
X87832800Y-91859722D01*
X87832800Y-91763743D01*
X95940400Y-91763743D01*
X95940400Y-92580200D01*
X96092800Y-92732600D01*
X96612500Y-92732600D01*
X96612500Y-91427800D01*
X96460100Y-91275400D01*
X96428743Y-91275400D01*
X96204689Y-91368206D01*
X96033206Y-91539689D01*
X95940400Y-91763743D01*
X87832800Y-91763743D01*
X87832800Y-87858600D01*
X88595200Y-87858600D01*
X88747600Y-87706200D01*
X88747600Y-86766400D01*
X89052400Y-86766400D01*
X89052400Y-87706200D01*
X89204800Y-87858600D01*
X90291257Y-87858600D01*
X90515311Y-87765794D01*
X90686794Y-87594311D01*
X90779600Y-87370257D01*
X90779600Y-86918800D01*
X90627200Y-86766400D01*
X89052400Y-86766400D01*
X88747600Y-86766400D01*
X88727600Y-86766400D01*
X88727600Y-86461600D01*
X88747600Y-86461600D01*
X88747600Y-85521800D01*
X89052400Y-85521800D01*
X89052400Y-86461600D01*
X90627200Y-86461600D01*
X90779600Y-86309200D01*
X90779600Y-85857743D01*
X90686794Y-85633689D01*
X90515311Y-85462206D01*
X90291257Y-85369400D01*
X89204800Y-85369400D01*
X89052400Y-85521800D01*
X88747600Y-85521800D01*
X88595200Y-85369400D01*
X88428978Y-85369400D01*
X88860778Y-84937600D01*
X88900000Y-84937600D01*
X89074963Y-84902798D01*
X89223289Y-84803689D01*
X89322398Y-84655363D01*
X89350960Y-84511771D01*
X90170000Y-84511771D01*
X90288927Y-84488115D01*
X90389748Y-84420748D01*
X90457115Y-84319927D01*
X90480771Y-84201000D01*
X90480771Y-84023200D01*
X92140833Y-84023200D01*
X92157885Y-84108927D01*
X92225252Y-84209748D01*
X92326073Y-84277115D01*
X92445000Y-84300771D01*
X92887800Y-84300771D01*
X92887800Y-85879229D01*
X92445000Y-85879229D01*
X92326073Y-85902885D01*
X92225252Y-85970252D01*
X92157885Y-86071073D01*
X92134229Y-86190000D01*
X92134229Y-88190000D01*
X92157885Y-88308927D01*
X92225252Y-88409748D01*
X92326073Y-88477115D01*
X92445000Y-88500771D01*
X94245000Y-88500771D01*
X94363927Y-88477115D01*
X94464748Y-88409748D01*
X94532115Y-88308927D01*
X94555771Y-88190000D01*
X94555771Y-86190000D01*
X94532115Y-86071073D01*
X94464748Y-85970252D01*
X94363927Y-85902885D01*
X94245000Y-85879229D01*
X93802200Y-85879229D01*
X93802200Y-84300771D01*
X94245000Y-84300771D01*
X94363927Y-84277115D01*
X94464748Y-84209748D01*
X94532115Y-84108927D01*
X94555771Y-83990000D01*
X94555771Y-83294800D01*
X96915400Y-83294800D01*
X96915400Y-84111257D01*
X97008206Y-84335311D01*
X97179689Y-84506794D01*
X97403743Y-84599600D01*
X98120200Y-84599600D01*
X98272600Y-84447200D01*
X98272600Y-83142400D01*
X98577400Y-83142400D01*
X98577400Y-84447200D01*
X98729800Y-84599600D01*
X99446257Y-84599600D01*
X99670311Y-84506794D01*
X99841794Y-84335311D01*
X99934600Y-84111257D01*
X99934600Y-83294800D01*
X99782200Y-83142400D01*
X98577400Y-83142400D01*
X98272600Y-83142400D01*
X97067800Y-83142400D01*
X96915400Y-83294800D01*
X94555771Y-83294800D01*
X94555771Y-81990000D01*
X94532115Y-81871073D01*
X94530559Y-81868743D01*
X96915400Y-81868743D01*
X96915400Y-82685200D01*
X97067800Y-82837600D01*
X98272600Y-82837600D01*
X98272600Y-81532800D01*
X98577400Y-81532800D01*
X98577400Y-82837600D01*
X99782200Y-82837600D01*
X99810057Y-82809743D01*
X100990400Y-82809743D01*
X100990400Y-83261200D01*
X101142800Y-83413600D01*
X102717600Y-83413600D01*
X102717600Y-82473800D01*
X102565200Y-82321400D01*
X101478743Y-82321400D01*
X101254689Y-82414206D01*
X101083206Y-82585689D01*
X100990400Y-82809743D01*
X99810057Y-82809743D01*
X99934600Y-82685200D01*
X99934600Y-81868743D01*
X99841794Y-81644689D01*
X99670311Y-81473206D01*
X99446257Y-81380400D01*
X98729800Y-81380400D01*
X98577400Y-81532800D01*
X98272600Y-81532800D01*
X98120200Y-81380400D01*
X97403743Y-81380400D01*
X97179689Y-81473206D01*
X97008206Y-81644689D01*
X96915400Y-81868743D01*
X94530559Y-81868743D01*
X94464748Y-81770252D01*
X94363927Y-81702885D01*
X94245000Y-81679229D01*
X92445000Y-81679229D01*
X92326073Y-81702885D01*
X92225252Y-81770252D01*
X92157885Y-81871073D01*
X92134229Y-81990000D01*
X92134229Y-83108800D01*
X90480771Y-83108800D01*
X90480771Y-82931000D01*
X90457115Y-82812073D01*
X90389748Y-82711252D01*
X90288927Y-82643885D01*
X90170000Y-82620229D01*
X87630000Y-82620229D01*
X87511073Y-82643885D01*
X87410252Y-82711252D01*
X87387300Y-82745602D01*
X87387300Y-76094878D01*
X87452348Y-76029830D01*
X87451840Y-76612477D01*
X87768259Y-77378270D01*
X88353648Y-77964682D01*
X89118888Y-78282437D01*
X89947477Y-78283160D01*
X90713270Y-77966741D01*
X91299682Y-77381352D01*
X91617437Y-76616112D01*
X91618160Y-75787523D01*
X91301741Y-75021730D01*
X90716352Y-74435318D01*
X89951112Y-74117563D01*
X89365126Y-74117052D01*
X89769789Y-73712389D01*
X89868898Y-73564063D01*
X89903700Y-73389100D01*
X89903700Y-72698657D01*
X90357730Y-72940947D01*
X90415269Y-72949357D01*
X90652600Y-72838785D01*
X90652600Y-71272400D01*
X90632600Y-71272400D01*
X90632600Y-70967600D01*
X90652600Y-70967600D01*
X90652600Y-70947600D01*
X90957400Y-70947600D01*
X90957400Y-70967600D01*
X90977400Y-70967600D01*
X90977400Y-71272400D01*
X90957400Y-71272400D01*
X90957400Y-72838785D01*
X91194731Y-72949357D01*
X91252270Y-72940947D01*
X91783848Y-72657274D01*
X92166405Y-72191769D01*
X92226414Y-71994425D01*
X92473915Y-72364837D01*
X92873572Y-72631879D01*
X93345000Y-72725652D01*
X93816428Y-72631879D01*
X94216085Y-72364837D01*
X94483127Y-71965180D01*
X94576900Y-71493752D01*
X94576900Y-70746248D01*
X94483127Y-70274820D01*
X94321214Y-70032500D01*
X94908786Y-70032500D01*
X94746873Y-70274820D01*
G36*
X101425000Y-96592200D02*
X101597400Y-96592200D01*
X101597400Y-96677800D01*
X101425000Y-96677800D01*
X101317268Y-96699229D01*
X101272600Y-96699229D01*
X101272600Y-96697500D01*
X101252600Y-96697500D01*
X101252600Y-96572500D01*
X101272600Y-96572500D01*
X101272600Y-96570771D01*
X101317268Y-96570771D01*
X101425000Y-96592200D01*
X101425000Y-96592200D01*
G37*
X101425000Y-96592200D02*
X101597400Y-96592200D01*
X101597400Y-96677800D01*
X101425000Y-96677800D01*
X101317268Y-96699229D01*
X101272600Y-96699229D01*
X101272600Y-96697500D01*
X101252600Y-96697500D01*
X101252600Y-96572500D01*
X101272600Y-96572500D01*
X101272600Y-96570771D01*
X101317268Y-96570771D01*
X101425000Y-96592200D01*
G36*
X98577400Y-95732600D02*
X98597400Y-95732600D01*
X98597400Y-96037400D01*
X98577400Y-96037400D01*
X98577400Y-96057400D01*
X98272600Y-96057400D01*
X98272600Y-96037400D01*
X98252600Y-96037400D01*
X98252600Y-95732600D01*
X98272600Y-95732600D01*
X98272600Y-95712600D01*
X98577400Y-95712600D01*
X98577400Y-95732600D01*
X98577400Y-95732600D01*
G37*
X98577400Y-95732600D02*
X98597400Y-95732600D01*
X98597400Y-96037400D01*
X98577400Y-96037400D01*
X98577400Y-96057400D01*
X98272600Y-96057400D01*
X98272600Y-96037400D01*
X98252600Y-96037400D01*
X98252600Y-95732600D01*
X98272600Y-95732600D01*
X98272600Y-95712600D01*
X98577400Y-95712600D01*
X98577400Y-95732600D01*
G36*
X101425000Y-95592200D02*
X101597400Y-95592200D01*
X101597400Y-95677800D01*
X101425000Y-95677800D01*
X101317268Y-95699229D01*
X101272600Y-95699229D01*
X101272600Y-95697500D01*
X101252600Y-95697500D01*
X101252600Y-95572500D01*
X101272600Y-95572500D01*
X101272600Y-95570771D01*
X101317268Y-95570771D01*
X101425000Y-95592200D01*
X101425000Y-95592200D01*
G37*
X101425000Y-95592200D02*
X101597400Y-95592200D01*
X101597400Y-95677800D01*
X101425000Y-95677800D01*
X101317268Y-95699229D01*
X101272600Y-95699229D01*
X101272600Y-95697500D01*
X101252600Y-95697500D01*
X101252600Y-95572500D01*
X101272600Y-95572500D01*
X101272600Y-95570771D01*
X101317268Y-95570771D01*
X101425000Y-95592200D01*
M02*
