M48
; DRILL file {KiCad 5.1.0-unknown-ca7aec2~82~ubuntu18.04.1} date Fri 12 Apr 2019 01:47:38 PM EDT
; FORMAT={-:-/ absolute / metric / decimal}
; #@! TF.CreationDate,2019-04-12T13:47:38-04:00
; #@! TF.GenerationSoftware,Kicad,Pcbnew,5.1.0-unknown-ca7aec2~82~ubuntu18.04.1
FMAT,2
METRIC
T1C0.635
T2C0.991
T3C1.092
T4C1.200
T5C1.400
T6C1.500
T7C1.549
T8C1.600
T9C2.692
T10C3.150
T11C3.302
%
G90
G05
T1
X95.295Y-83.067
X96.346Y-93.6
X97.605Y-82.445
X99.613Y-96.753
X100.43Y-79.528
X101.824Y-84.89
X102.864Y-98.432
X103.669Y-100.532
X104.806Y-100.533
X106.445Y-93.395
X107.37Y-86.562
X109.181Y-94.223
X110.018Y-98.845
X115.825Y-83.063
X144.506Y-85.725
X145.689Y-76.453
X146.554Y-86.474
X147.577Y-80.551
X147.621Y-92.815
X151.27Y-71.35
X152.126Y-77.023
T2
X96.52Y-99.695
X99.06Y-99.695
X101.6Y-99.695
T3
X88.265Y-71.12
X88.265Y-106.68
X90.805Y-71.12
X90.805Y-106.68
X93.345Y-71.12
X93.345Y-106.68
X95.885Y-71.12
X95.885Y-106.68
X98.425Y-71.12
X98.425Y-106.68
X100.965Y-71.12
X100.965Y-106.68
X103.505Y-71.12
X103.505Y-106.68
X106.045Y-71.12
X106.045Y-106.68
X108.585Y-71.12
X108.585Y-106.68
X111.125Y-71.12
X111.125Y-106.68
X113.665Y-71.12
X113.665Y-106.68
X116.205Y-71.12
X116.205Y-106.68
X118.745Y-71.12
X118.745Y-106.68
X121.285Y-71.12
X121.285Y-106.68
X123.825Y-71.12
X123.825Y-106.68
X126.365Y-71.12
X126.365Y-106.68
T4
X102.235Y-80.01
X106.045Y-80.01
X109.855Y-80.01
X113.665Y-80.01
T5
X122.555Y-80.01
X127.635Y-80.01
X132.715Y-80.01
X137.795Y-80.01
T6
X106.68Y-97.155
T7
X121.285Y-88.9
X121.285Y-101.6
X123.825Y-88.9
X123.825Y-101.6
X126.365Y-88.9
X126.365Y-101.6
X128.905Y-88.9
X128.905Y-101.6
X131.445Y-88.9
X131.445Y-101.6
X133.985Y-88.9
X133.985Y-101.6
X136.525Y-88.9
X136.525Y-101.6
X139.065Y-88.9
X139.065Y-101.6
T8
X153.213Y-88.9
T9
X150.216Y-88.9
X151.206Y-84.404
X151.206Y-93.396
T10
X144.221Y-88.9
T11
X89.535Y-76.2
X89.535Y-101.6
X130.175Y-71.12
X130.175Y-106.68
T0
M30
