%TF.GenerationSoftware,KiCad,Pcbnew,no-vcs-found-1929727~60~ubuntu16.04.1*%
%TF.CreationDate,2017-10-25T16:01:10-04:00*%
%TF.ProjectId,stepper_controller_3x2,737465707065725F636F6E74726F6C6C,1.1*%
%TF.SameCoordinates,Original*%
%TF.FileFunction,Legend,Bot*%
%TF.FilePolarity,Positive*%
%FSLAX46Y46*%
G04 Gerber Fmt 4.6, Leading zero omitted, Abs format (unit mm)*
G04 Created by KiCad (PCBNEW no-vcs-found-1929727~60~ubuntu16.04.1) date Wed Oct 25 16:01:10 2017*
%MOMM*%
%LPD*%
G01*
G04 APERTURE LIST*
%ADD10C,0.228600*%
%ADD11C,0.381000*%
%ADD12C,0.127000*%
%ADD13C,0.250000*%
%ADD14C,0.254000*%
%ADD15C,0.125000*%
%ADD16C,0.190500*%
%ADD17O,2.032000X3.048000*%
%ADD18C,3.556000*%
%ADD19O,1.854200X2.540000*%
%ADD20R,1.854200X2.540000*%
%ADD21R,1.270000X2.540000*%
%ADD22R,1.800000X2.000000*%
%ADD23R,2.075000X0.325000*%
%ADD24R,0.325000X2.075000*%
%ADD25R,3.475000X3.475000*%
%ADD26R,2.540000X1.270000*%
%ADD27R,5.160000X4.000000*%
%ADD28R,1.640000X1.800000*%
%ADD29C,1.930400*%
%ADD30O,4.572000X3.556000*%
%ADD31O,4.064000X5.080000*%
%ADD32O,5.080000X3.556000*%
%ADD33C,2.540000*%
%ADD34C,2.340000*%
%ADD35O,1.524000X2.540000*%
%ADD36R,0.740000X2.140000*%
%ADD37R,1.600200X0.787400*%
%ADD38R,2.503200X1.853200*%
%ADD39R,0.787400X1.600200*%
%ADD40R,0.762000X1.534160*%
G04 APERTURE END LIST*
D10*
X156210000Y-67945000D02*
X85725000Y-67945000D01*
X156210000Y-109855000D02*
X156210000Y-67945000D01*
X85725000Y-109855000D02*
X156210000Y-109855000D01*
X85725000Y-67945000D02*
X85725000Y-109855000D01*
D11*
%TO.C,MDB1*%
X127635000Y-69850000D02*
X86995000Y-69850000D01*
X127635000Y-72390000D02*
X127635000Y-69850000D01*
X86995000Y-72390000D02*
X127635000Y-72390000D01*
X86995000Y-69850000D02*
X86995000Y-72390000D01*
X127635000Y-105410000D02*
X86995000Y-105410000D01*
X127635000Y-107950000D02*
X127635000Y-105410000D01*
X86995000Y-107950000D02*
X127635000Y-107950000D01*
X86995000Y-105410000D02*
X86995000Y-107950000D01*
D12*
%TO.C,C1*%
X93091000Y-90932000D02*
X91567000Y-90932000D01*
X93091000Y-88138000D02*
X93091000Y-90932000D01*
X91567000Y-88138000D02*
X93091000Y-88138000D01*
X88519000Y-88138000D02*
X90043000Y-88138000D01*
X88519000Y-90932000D02*
X88519000Y-88138000D01*
X90043000Y-90932000D02*
X88519000Y-90932000D01*
%TO.C,C2*%
X100076000Y-104267000D02*
X98552000Y-104267000D01*
X100076000Y-101473000D02*
X100076000Y-104267000D01*
X98552000Y-101473000D02*
X100076000Y-101473000D01*
X95504000Y-101473000D02*
X97028000Y-101473000D01*
X95504000Y-104267000D02*
X95504000Y-101473000D01*
X97028000Y-104267000D02*
X95504000Y-104267000D01*
D11*
%TO.C,CLK1*%
X94305000Y-97115000D02*
X87305000Y-97115000D01*
X94305000Y-92115000D02*
X94305000Y-97115000D01*
X87305000Y-92115000D02*
X94305000Y-92115000D01*
X87305000Y-97115000D02*
X87305000Y-92115000D01*
X90158553Y-92865000D02*
G75*
G03X90158553Y-92865000I-353553J0D01*
G01*
D13*
%TO.C,U1*%
X98520000Y-82590000D02*
X99020000Y-83090000D01*
X99020000Y-87090000D02*
X99020000Y-87590000D01*
X99020000Y-87590000D02*
X98520000Y-87590000D01*
X94020000Y-87090000D02*
X94020000Y-87590000D01*
X94020000Y-87590000D02*
X94520000Y-87590000D01*
X94520000Y-82590000D02*
X94020000Y-82590000D01*
X94020000Y-82590000D02*
X94020000Y-83090000D01*
X99270000Y-82590000D02*
G75*
G03X99270000Y-82590000I-250000J0D01*
G01*
D12*
%TO.C,C4*%
X90297000Y-83947000D02*
X90297000Y-85471000D01*
X90297000Y-85471000D02*
X87503000Y-85471000D01*
X87503000Y-85471000D02*
X87503000Y-83947000D01*
X87503000Y-82423000D02*
X87503000Y-80899000D01*
X87503000Y-80899000D02*
X90297000Y-80899000D01*
X90297000Y-80899000D02*
X90297000Y-82423000D01*
%TO.C,C5*%
X116713000Y-98806000D02*
X116713000Y-97282000D01*
X119507000Y-98806000D02*
X116713000Y-98806000D01*
X119507000Y-97282000D02*
X119507000Y-98806000D01*
X119507000Y-94234000D02*
X119507000Y-95758000D01*
X116713000Y-94234000D02*
X119507000Y-94234000D01*
X116713000Y-95758000D02*
X116713000Y-94234000D01*
D10*
%TO.C,D1*%
X99254000Y-77357000D02*
X99254000Y-72757000D01*
X99254000Y-72757000D02*
X91754000Y-72757000D01*
X91754000Y-72757000D02*
X91754000Y-77357000D01*
X91754000Y-77357000D02*
X99254000Y-77357000D01*
D12*
%TO.C,C3*%
X97409000Y-93853000D02*
X98933000Y-93853000D01*
X97409000Y-96647000D02*
X97409000Y-93853000D01*
X98933000Y-96647000D02*
X97409000Y-96647000D01*
X101981000Y-96647000D02*
X100457000Y-96647000D01*
X101981000Y-93853000D02*
X101981000Y-96647000D01*
X100457000Y-93853000D02*
X101981000Y-93853000D01*
%TO.C,R1*%
X100457000Y-90678000D02*
X101981000Y-90678000D01*
X101981000Y-90678000D02*
X101981000Y-93472000D01*
X101981000Y-93472000D02*
X100457000Y-93472000D01*
X98933000Y-93472000D02*
X97409000Y-93472000D01*
X97409000Y-93472000D02*
X97409000Y-90678000D01*
X97409000Y-90678000D02*
X98933000Y-90678000D01*
D11*
%TO.C,U2*%
X114935000Y-99060000D02*
G75*
G03X114935000Y-99060000I-635000J0D01*
G01*
X115720000Y-100270000D02*
X102720000Y-100270000D01*
X102720000Y-100270000D02*
X102720000Y-92770000D01*
X102720000Y-92770000D02*
X115720000Y-92770000D01*
X115720000Y-92770000D02*
X115720000Y-100270000D01*
D12*
%TO.C,C7*%
X121793000Y-94742000D02*
X120269000Y-94742000D01*
X120269000Y-94742000D02*
X120269000Y-91948000D01*
X120269000Y-91948000D02*
X121793000Y-91948000D01*
X123317000Y-91948000D02*
X124841000Y-91948000D01*
X124841000Y-91948000D02*
X124841000Y-94742000D01*
X124841000Y-94742000D02*
X123317000Y-94742000D01*
%TO.C,C8*%
X135636000Y-74041000D02*
X135636000Y-74930000D01*
X137414000Y-74041000D02*
X135636000Y-74041000D01*
X137414000Y-74930000D02*
X137414000Y-74041000D01*
X135636000Y-77089000D02*
X135636000Y-76200000D01*
X137414000Y-77089000D02*
X135636000Y-77089000D01*
X137414000Y-76200000D02*
X137414000Y-77089000D01*
%TO.C,C9*%
X134874000Y-76200000D02*
X134874000Y-77089000D01*
X134874000Y-77089000D02*
X133096000Y-77089000D01*
X133096000Y-77089000D02*
X133096000Y-76200000D01*
X134874000Y-74930000D02*
X134874000Y-74041000D01*
X134874000Y-74041000D02*
X133096000Y-74041000D01*
X133096000Y-74041000D02*
X133096000Y-74930000D01*
%TO.C,C10*%
X125476000Y-74041000D02*
X125476000Y-74930000D01*
X127254000Y-74041000D02*
X125476000Y-74041000D01*
X127254000Y-74930000D02*
X127254000Y-74041000D01*
X125476000Y-77089000D02*
X125476000Y-76200000D01*
X127254000Y-77089000D02*
X125476000Y-77089000D01*
X127254000Y-76200000D02*
X127254000Y-77089000D01*
%TO.C,C11*%
X124714000Y-76200000D02*
X124714000Y-77089000D01*
X124714000Y-77089000D02*
X122936000Y-77089000D01*
X122936000Y-77089000D02*
X122936000Y-76200000D01*
X124714000Y-74930000D02*
X124714000Y-74041000D01*
X124714000Y-74041000D02*
X122936000Y-74041000D01*
X122936000Y-74041000D02*
X122936000Y-74930000D01*
%TO.C,C12*%
X115062000Y-82169000D02*
X115062000Y-83693000D01*
X112268000Y-82169000D02*
X115062000Y-82169000D01*
X112268000Y-83693000D02*
X112268000Y-82169000D01*
X112268000Y-86741000D02*
X112268000Y-85217000D01*
X115062000Y-86741000D02*
X112268000Y-86741000D01*
X115062000Y-85217000D02*
X115062000Y-86741000D01*
D11*
%TO.C,L1*%
X139518607Y-85647000D02*
G75*
G03X139518607Y-85647000I-223607J0D01*
G01*
X139825000Y-86172000D02*
X139825000Y-81722000D01*
X135765000Y-86172000D02*
X135765000Y-81722000D01*
X135765000Y-81722000D02*
X139825000Y-81722000D01*
X135765000Y-86172000D02*
X139825000Y-86172000D01*
%TO.C,L2*%
X130685000Y-86172000D02*
X134745000Y-86172000D01*
X130685000Y-81722000D02*
X134745000Y-81722000D01*
X130685000Y-86172000D02*
X130685000Y-81722000D01*
X134745000Y-86172000D02*
X134745000Y-81722000D01*
X134438607Y-85647000D02*
G75*
G03X134438607Y-85647000I-223607J0D01*
G01*
%TO.C,L3*%
X125605000Y-86172000D02*
X129665000Y-86172000D01*
X125605000Y-81722000D02*
X129665000Y-81722000D01*
X125605000Y-86172000D02*
X125605000Y-81722000D01*
X129665000Y-86172000D02*
X129665000Y-81722000D01*
X129358607Y-85647000D02*
G75*
G03X129358607Y-85647000I-223607J0D01*
G01*
%TO.C,L4*%
X124278607Y-85647000D02*
G75*
G03X124278607Y-85647000I-223607J0D01*
G01*
X124585000Y-86172000D02*
X124585000Y-81722000D01*
X120525000Y-86172000D02*
X120525000Y-81722000D01*
X120525000Y-81722000D02*
X124585000Y-81722000D01*
X120525000Y-86172000D02*
X124585000Y-86172000D01*
D12*
%TO.C,RV1*%
X133731000Y-78994000D02*
X134620000Y-78994000D01*
X133731000Y-77216000D02*
X133731000Y-78994000D01*
X134620000Y-77216000D02*
X133731000Y-77216000D01*
X136779000Y-78994000D02*
X135890000Y-78994000D01*
X136779000Y-77216000D02*
X136779000Y-78994000D01*
X135890000Y-77216000D02*
X136779000Y-77216000D01*
%TO.C,RV2*%
X125730000Y-77216000D02*
X126619000Y-77216000D01*
X126619000Y-77216000D02*
X126619000Y-78994000D01*
X126619000Y-78994000D02*
X125730000Y-78994000D01*
X124460000Y-77216000D02*
X123571000Y-77216000D01*
X123571000Y-77216000D02*
X123571000Y-78994000D01*
X123571000Y-78994000D02*
X124460000Y-78994000D01*
%TO.C,RV3*%
X138176000Y-74041000D02*
X138176000Y-74930000D01*
X139954000Y-74041000D02*
X138176000Y-74041000D01*
X139954000Y-74930000D02*
X139954000Y-74041000D01*
X138176000Y-77089000D02*
X138176000Y-76200000D01*
X139954000Y-77089000D02*
X138176000Y-77089000D01*
X139954000Y-76200000D02*
X139954000Y-77089000D01*
%TO.C,RV4*%
X132334000Y-76200000D02*
X132334000Y-77089000D01*
X132334000Y-77089000D02*
X130556000Y-77089000D01*
X130556000Y-77089000D02*
X130556000Y-76200000D01*
X132334000Y-74930000D02*
X132334000Y-74041000D01*
X132334000Y-74041000D02*
X130556000Y-74041000D01*
X130556000Y-74041000D02*
X130556000Y-74930000D01*
%TO.C,RV5*%
X128016000Y-74041000D02*
X128016000Y-74930000D01*
X129794000Y-74041000D02*
X128016000Y-74041000D01*
X129794000Y-74930000D02*
X129794000Y-74041000D01*
X128016000Y-77089000D02*
X128016000Y-76200000D01*
X129794000Y-77089000D02*
X128016000Y-77089000D01*
X129794000Y-76200000D02*
X129794000Y-77089000D01*
%TO.C,RV6*%
X122174000Y-76200000D02*
X122174000Y-77089000D01*
X122174000Y-77089000D02*
X120396000Y-77089000D01*
X120396000Y-77089000D02*
X120396000Y-76200000D01*
X122174000Y-74930000D02*
X122174000Y-74041000D01*
X122174000Y-74041000D02*
X120396000Y-74041000D01*
X120396000Y-74041000D02*
X120396000Y-74930000D01*
D11*
%TO.C,U3*%
X106934000Y-84455000D02*
X108966000Y-84455000D01*
D10*
X106172000Y-82931000D02*
X106172000Y-83439000D01*
X105918000Y-83185000D02*
X106426000Y-83185000D01*
%TD*%
%TO.C,C1*%
D14*
X94342857Y-89365666D02*
X94391238Y-89317285D01*
X94439619Y-89172142D01*
X94439619Y-89075380D01*
X94391238Y-88930238D01*
X94294476Y-88833476D01*
X94197714Y-88785095D01*
X94004190Y-88736714D01*
X93859047Y-88736714D01*
X93665523Y-88785095D01*
X93568761Y-88833476D01*
X93472000Y-88930238D01*
X93423619Y-89075380D01*
X93423619Y-89172142D01*
X93472000Y-89317285D01*
X93520380Y-89365666D01*
X94439619Y-90333285D02*
X94439619Y-89752714D01*
X94439619Y-90043000D02*
X93423619Y-90043000D01*
X93568761Y-89946238D01*
X93665523Y-89849476D01*
X93713904Y-89752714D01*
X87073619Y-87865857D02*
X87073619Y-87962619D01*
X87122000Y-88059380D01*
X87170380Y-88107761D01*
X87267142Y-88156142D01*
X87460666Y-88204523D01*
X87702571Y-88204523D01*
X87896095Y-88156142D01*
X87992857Y-88107761D01*
X88041238Y-88059380D01*
X88089619Y-87962619D01*
X88089619Y-87865857D01*
X88041238Y-87769095D01*
X87992857Y-87720714D01*
X87896095Y-87672333D01*
X87702571Y-87623952D01*
X87460666Y-87623952D01*
X87267142Y-87672333D01*
X87170380Y-87720714D01*
X87122000Y-87769095D01*
X87073619Y-87865857D01*
X87992857Y-88639952D02*
X88041238Y-88688333D01*
X88089619Y-88639952D01*
X88041238Y-88591571D01*
X87992857Y-88639952D01*
X88089619Y-88639952D01*
X88089619Y-89655952D02*
X88089619Y-89075380D01*
X88089619Y-89365666D02*
X87073619Y-89365666D01*
X87218761Y-89268904D01*
X87315523Y-89172142D01*
X87363904Y-89075380D01*
X87412285Y-90526809D02*
X88089619Y-90526809D01*
X87412285Y-90091380D02*
X87944476Y-90091380D01*
X88041238Y-90139761D01*
X88089619Y-90236523D01*
X88089619Y-90381666D01*
X88041238Y-90478428D01*
X87992857Y-90526809D01*
X87557428Y-91349285D02*
X87557428Y-91010619D01*
X88089619Y-91010619D02*
X87073619Y-91010619D01*
X87073619Y-91494428D01*
%TO.C,C2*%
X94977857Y-102700666D02*
X95026238Y-102652285D01*
X95074619Y-102507142D01*
X95074619Y-102410380D01*
X95026238Y-102265238D01*
X94929476Y-102168476D01*
X94832714Y-102120095D01*
X94639190Y-102071714D01*
X94494047Y-102071714D01*
X94300523Y-102120095D01*
X94203761Y-102168476D01*
X94107000Y-102265238D01*
X94058619Y-102410380D01*
X94058619Y-102507142D01*
X94107000Y-102652285D01*
X94155380Y-102700666D01*
X94155380Y-103087714D02*
X94107000Y-103136095D01*
X94058619Y-103232857D01*
X94058619Y-103474761D01*
X94107000Y-103571523D01*
X94155380Y-103619904D01*
X94252142Y-103668285D01*
X94348904Y-103668285D01*
X94494047Y-103619904D01*
X95074619Y-103039333D01*
X95074619Y-103668285D01*
X101424619Y-101781428D02*
X101424619Y-101200857D01*
X101424619Y-101491142D02*
X100408619Y-101491142D01*
X100553761Y-101394380D01*
X100650523Y-101297619D01*
X100698904Y-101200857D01*
X100408619Y-102410380D02*
X100408619Y-102507142D01*
X100457000Y-102603904D01*
X100505380Y-102652285D01*
X100602142Y-102700666D01*
X100795666Y-102749047D01*
X101037571Y-102749047D01*
X101231095Y-102700666D01*
X101327857Y-102652285D01*
X101376238Y-102603904D01*
X101424619Y-102507142D01*
X101424619Y-102410380D01*
X101376238Y-102313619D01*
X101327857Y-102265238D01*
X101231095Y-102216857D01*
X101037571Y-102168476D01*
X100795666Y-102168476D01*
X100602142Y-102216857D01*
X100505380Y-102265238D01*
X100457000Y-102313619D01*
X100408619Y-102410380D01*
X100747285Y-103619904D02*
X101424619Y-103619904D01*
X100747285Y-103184476D02*
X101279476Y-103184476D01*
X101376238Y-103232857D01*
X101424619Y-103329619D01*
X101424619Y-103474761D01*
X101376238Y-103571523D01*
X101327857Y-103619904D01*
X100892428Y-104442380D02*
X100892428Y-104103714D01*
X101424619Y-104103714D02*
X100408619Y-104103714D01*
X100408619Y-104587523D01*
%TO.C,CLK1*%
X91893571Y-98727857D02*
X91941952Y-98776238D01*
X92087095Y-98824619D01*
X92183857Y-98824619D01*
X92329000Y-98776238D01*
X92425761Y-98679476D01*
X92474142Y-98582714D01*
X92522523Y-98389190D01*
X92522523Y-98244047D01*
X92474142Y-98050523D01*
X92425761Y-97953761D01*
X92329000Y-97857000D01*
X92183857Y-97808619D01*
X92087095Y-97808619D01*
X91941952Y-97857000D01*
X91893571Y-97905380D01*
X90974333Y-98824619D02*
X91458142Y-98824619D01*
X91458142Y-97808619D01*
X90635666Y-98824619D02*
X90635666Y-97808619D01*
X90055095Y-98824619D02*
X90490523Y-98244047D01*
X90055095Y-97808619D02*
X90635666Y-98389190D01*
X89087476Y-98824619D02*
X89668047Y-98824619D01*
X89377761Y-98824619D02*
X89377761Y-97808619D01*
X89474523Y-97953761D01*
X89571285Y-98050523D01*
X89668047Y-98098904D01*
D15*
X92197857Y-94793571D02*
X92221666Y-94817380D01*
X92293095Y-94841190D01*
X92340714Y-94841190D01*
X92412142Y-94817380D01*
X92459761Y-94769761D01*
X92483571Y-94722142D01*
X92507380Y-94626904D01*
X92507380Y-94555476D01*
X92483571Y-94460238D01*
X92459761Y-94412619D01*
X92412142Y-94365000D01*
X92340714Y-94341190D01*
X92293095Y-94341190D01*
X92221666Y-94365000D01*
X92197857Y-94388809D01*
X92055000Y-94341190D02*
X91769285Y-94341190D01*
X91912142Y-94841190D02*
X91912142Y-94341190D01*
X91626428Y-94817380D02*
X91555000Y-94841190D01*
X91435952Y-94841190D01*
X91388333Y-94817380D01*
X91364523Y-94793571D01*
X91340714Y-94745952D01*
X91340714Y-94698333D01*
X91364523Y-94650714D01*
X91388333Y-94626904D01*
X91435952Y-94603095D01*
X91531190Y-94579285D01*
X91578809Y-94555476D01*
X91602619Y-94531666D01*
X91626428Y-94484047D01*
X91626428Y-94436428D01*
X91602619Y-94388809D01*
X91578809Y-94365000D01*
X91531190Y-94341190D01*
X91412142Y-94341190D01*
X91340714Y-94365000D01*
X91055000Y-94341190D02*
X91055000Y-94460238D01*
X91174047Y-94412619D02*
X91055000Y-94460238D01*
X90935952Y-94412619D01*
X91126428Y-94555476D02*
X91055000Y-94460238D01*
X90983571Y-94555476D01*
X90674047Y-94341190D02*
X90674047Y-94460238D01*
X90793095Y-94412619D02*
X90674047Y-94460238D01*
X90555000Y-94412619D01*
X90745476Y-94555476D02*
X90674047Y-94460238D01*
X90602619Y-94555476D01*
X90078809Y-94793571D02*
X90102619Y-94817380D01*
X90174047Y-94841190D01*
X90221666Y-94841190D01*
X90293095Y-94817380D01*
X90340714Y-94769761D01*
X90364523Y-94722142D01*
X90388333Y-94626904D01*
X90388333Y-94555476D01*
X90364523Y-94460238D01*
X90340714Y-94412619D01*
X90293095Y-94365000D01*
X90221666Y-94341190D01*
X90174047Y-94341190D01*
X90102619Y-94365000D01*
X90078809Y-94388809D01*
X89697857Y-94579285D02*
X89626428Y-94603095D01*
X89602619Y-94626904D01*
X89578809Y-94674523D01*
X89578809Y-94745952D01*
X89602619Y-94793571D01*
X89626428Y-94817380D01*
X89674047Y-94841190D01*
X89864523Y-94841190D01*
X89864523Y-94341190D01*
X89697857Y-94341190D01*
X89650238Y-94365000D01*
X89626428Y-94388809D01*
X89602619Y-94436428D01*
X89602619Y-94484047D01*
X89626428Y-94531666D01*
X89650238Y-94555476D01*
X89697857Y-94579285D01*
X89864523Y-94579285D01*
X89412142Y-94341190D02*
X89102619Y-94341190D01*
X89269285Y-94531666D01*
X89197857Y-94531666D01*
X89150238Y-94555476D01*
X89126428Y-94579285D01*
X89102619Y-94626904D01*
X89102619Y-94745952D01*
X89126428Y-94793571D01*
X89150238Y-94817380D01*
X89197857Y-94841190D01*
X89340714Y-94841190D01*
X89388333Y-94817380D01*
X89412142Y-94793571D01*
%TO.C,U1*%
D14*
X97294095Y-79453619D02*
X97294095Y-80276095D01*
X97245714Y-80372857D01*
X97197333Y-80421238D01*
X97100571Y-80469619D01*
X96907047Y-80469619D01*
X96810285Y-80421238D01*
X96761904Y-80372857D01*
X96713523Y-80276095D01*
X96713523Y-79453619D01*
X95697523Y-80469619D02*
X96278095Y-80469619D01*
X95987809Y-80469619D02*
X95987809Y-79453619D01*
X96084571Y-79598761D01*
X96181333Y-79695523D01*
X96278095Y-79743904D01*
%TO.C,C4*%
X91548857Y-83015666D02*
X91597238Y-82967285D01*
X91645619Y-82822142D01*
X91645619Y-82725380D01*
X91597238Y-82580238D01*
X91500476Y-82483476D01*
X91403714Y-82435095D01*
X91210190Y-82386714D01*
X91065047Y-82386714D01*
X90871523Y-82435095D01*
X90774761Y-82483476D01*
X90678000Y-82580238D01*
X90629619Y-82725380D01*
X90629619Y-82822142D01*
X90678000Y-82967285D01*
X90726380Y-83015666D01*
X90968285Y-83886523D02*
X91645619Y-83886523D01*
X90581238Y-83644619D02*
X91306952Y-83402714D01*
X91306952Y-84031666D01*
X86057619Y-81515857D02*
X86057619Y-81612619D01*
X86106000Y-81709380D01*
X86154380Y-81757761D01*
X86251142Y-81806142D01*
X86444666Y-81854523D01*
X86686571Y-81854523D01*
X86880095Y-81806142D01*
X86976857Y-81757761D01*
X87025238Y-81709380D01*
X87073619Y-81612619D01*
X87073619Y-81515857D01*
X87025238Y-81419095D01*
X86976857Y-81370714D01*
X86880095Y-81322333D01*
X86686571Y-81273952D01*
X86444666Y-81273952D01*
X86251142Y-81322333D01*
X86154380Y-81370714D01*
X86106000Y-81419095D01*
X86057619Y-81515857D01*
X86976857Y-82289952D02*
X87025238Y-82338333D01*
X87073619Y-82289952D01*
X87025238Y-82241571D01*
X86976857Y-82289952D01*
X87073619Y-82289952D01*
X87073619Y-83305952D02*
X87073619Y-82725380D01*
X87073619Y-83015666D02*
X86057619Y-83015666D01*
X86202761Y-82918904D01*
X86299523Y-82822142D01*
X86347904Y-82725380D01*
X86396285Y-84176809D02*
X87073619Y-84176809D01*
X86396285Y-83741380D02*
X86928476Y-83741380D01*
X87025238Y-83789761D01*
X87073619Y-83886523D01*
X87073619Y-84031666D01*
X87025238Y-84128428D01*
X86976857Y-84176809D01*
X86541428Y-84999285D02*
X86541428Y-84660619D01*
X87073619Y-84660619D02*
X86057619Y-84660619D01*
X86057619Y-85144428D01*
%TO.C,C5*%
X118279333Y-93707857D02*
X118327714Y-93756238D01*
X118472857Y-93804619D01*
X118569619Y-93804619D01*
X118714761Y-93756238D01*
X118811523Y-93659476D01*
X118859904Y-93562714D01*
X118908285Y-93369190D01*
X118908285Y-93224047D01*
X118859904Y-93030523D01*
X118811523Y-92933761D01*
X118714761Y-92837000D01*
X118569619Y-92788619D01*
X118472857Y-92788619D01*
X118327714Y-92837000D01*
X118279333Y-92885380D01*
X117360095Y-92788619D02*
X117843904Y-92788619D01*
X117892285Y-93272428D01*
X117843904Y-93224047D01*
X117747142Y-93175666D01*
X117505238Y-93175666D01*
X117408476Y-93224047D01*
X117360095Y-93272428D01*
X117311714Y-93369190D01*
X117311714Y-93611095D01*
X117360095Y-93707857D01*
X117408476Y-93756238D01*
X117505238Y-93804619D01*
X117747142Y-93804619D01*
X117843904Y-93756238D01*
X117892285Y-93707857D01*
X119779142Y-99138619D02*
X119682380Y-99138619D01*
X119585619Y-99187000D01*
X119537238Y-99235380D01*
X119488857Y-99332142D01*
X119440476Y-99525666D01*
X119440476Y-99767571D01*
X119488857Y-99961095D01*
X119537238Y-100057857D01*
X119585619Y-100106238D01*
X119682380Y-100154619D01*
X119779142Y-100154619D01*
X119875904Y-100106238D01*
X119924285Y-100057857D01*
X119972666Y-99961095D01*
X120021047Y-99767571D01*
X120021047Y-99525666D01*
X119972666Y-99332142D01*
X119924285Y-99235380D01*
X119875904Y-99187000D01*
X119779142Y-99138619D01*
X119005047Y-100057857D02*
X118956666Y-100106238D01*
X119005047Y-100154619D01*
X119053428Y-100106238D01*
X119005047Y-100057857D01*
X119005047Y-100154619D01*
X117989047Y-100154619D02*
X118569619Y-100154619D01*
X118279333Y-100154619D02*
X118279333Y-99138619D01*
X118376095Y-99283761D01*
X118472857Y-99380523D01*
X118569619Y-99428904D01*
X117118190Y-99477285D02*
X117118190Y-100154619D01*
X117553619Y-99477285D02*
X117553619Y-100009476D01*
X117505238Y-100106238D01*
X117408476Y-100154619D01*
X117263333Y-100154619D01*
X117166571Y-100106238D01*
X117118190Y-100057857D01*
X116295714Y-99622428D02*
X116634380Y-99622428D01*
X116634380Y-100154619D02*
X116634380Y-99138619D01*
X116150571Y-99138619D01*
%TO.C,D1*%
X101043619Y-74307095D02*
X100027619Y-74307095D01*
X100027619Y-74549000D01*
X100076000Y-74694142D01*
X100172761Y-74790904D01*
X100269523Y-74839285D01*
X100463047Y-74887666D01*
X100608190Y-74887666D01*
X100801714Y-74839285D01*
X100898476Y-74790904D01*
X100995238Y-74694142D01*
X101043619Y-74549000D01*
X101043619Y-74307095D01*
X101043619Y-75855285D02*
X101043619Y-75274714D01*
X101043619Y-75565000D02*
X100027619Y-75565000D01*
X100172761Y-75468238D01*
X100269523Y-75371476D01*
X100317904Y-75274714D01*
%TO.C,C3*%
X96882857Y-95080666D02*
X96931238Y-95032285D01*
X96979619Y-94887142D01*
X96979619Y-94790380D01*
X96931238Y-94645238D01*
X96834476Y-94548476D01*
X96737714Y-94500095D01*
X96544190Y-94451714D01*
X96399047Y-94451714D01*
X96205523Y-94500095D01*
X96108761Y-94548476D01*
X96012000Y-94645238D01*
X95963619Y-94790380D01*
X95963619Y-94887142D01*
X96012000Y-95032285D01*
X96060380Y-95080666D01*
X95963619Y-95419333D02*
X95963619Y-96048285D01*
X96350666Y-95709619D01*
X96350666Y-95854761D01*
X96399047Y-95951523D01*
X96447428Y-95999904D01*
X96544190Y-96048285D01*
X96786095Y-96048285D01*
X96882857Y-95999904D01*
X96931238Y-95951523D01*
X96979619Y-95854761D01*
X96979619Y-95564476D01*
X96931238Y-95467714D01*
X96882857Y-95419333D01*
X100783571Y-97995619D02*
X101364142Y-97995619D01*
X101073857Y-97995619D02*
X101073857Y-96979619D01*
X101170619Y-97124761D01*
X101267380Y-97221523D01*
X101364142Y-97269904D01*
X100154619Y-96979619D02*
X100057857Y-96979619D01*
X99961095Y-97028000D01*
X99912714Y-97076380D01*
X99864333Y-97173142D01*
X99815952Y-97366666D01*
X99815952Y-97608571D01*
X99864333Y-97802095D01*
X99912714Y-97898857D01*
X99961095Y-97947238D01*
X100057857Y-97995619D01*
X100154619Y-97995619D01*
X100251380Y-97947238D01*
X100299761Y-97898857D01*
X100348142Y-97802095D01*
X100396523Y-97608571D01*
X100396523Y-97366666D01*
X100348142Y-97173142D01*
X100299761Y-97076380D01*
X100251380Y-97028000D01*
X100154619Y-96979619D01*
X98945095Y-97318285D02*
X98945095Y-97995619D01*
X99380523Y-97318285D02*
X99380523Y-97850476D01*
X99332142Y-97947238D01*
X99235380Y-97995619D01*
X99090238Y-97995619D01*
X98993476Y-97947238D01*
X98945095Y-97898857D01*
X98122619Y-97463428D02*
X98461285Y-97463428D01*
X98461285Y-97995619D02*
X98461285Y-96979619D01*
X97977476Y-96979619D01*
%TO.C,R1*%
X96979619Y-91905666D02*
X96495809Y-91567000D01*
X96979619Y-91325095D02*
X95963619Y-91325095D01*
X95963619Y-91712142D01*
X96012000Y-91808904D01*
X96060380Y-91857285D01*
X96157142Y-91905666D01*
X96302285Y-91905666D01*
X96399047Y-91857285D01*
X96447428Y-91808904D01*
X96495809Y-91712142D01*
X96495809Y-91325095D01*
X96979619Y-92873285D02*
X96979619Y-92292714D01*
X96979619Y-92583000D02*
X95963619Y-92583000D01*
X96108761Y-92486238D01*
X96205523Y-92389476D01*
X96253904Y-92292714D01*
X99815952Y-89994619D02*
X100396523Y-89994619D01*
X100106238Y-89994619D02*
X100106238Y-88978619D01*
X100203000Y-89123761D01*
X100299761Y-89220523D01*
X100396523Y-89268904D01*
X99380523Y-89994619D02*
X99380523Y-88978619D01*
X99283761Y-89607571D02*
X98993476Y-89994619D01*
X98993476Y-89317285D02*
X99380523Y-89704333D01*
%TO.C,U2*%
X109994095Y-102948619D02*
X109994095Y-103771095D01*
X109945714Y-103867857D01*
X109897333Y-103916238D01*
X109800571Y-103964619D01*
X109607047Y-103964619D01*
X109510285Y-103916238D01*
X109461904Y-103867857D01*
X109413523Y-103771095D01*
X109413523Y-102948619D01*
X108978095Y-103045380D02*
X108929714Y-102997000D01*
X108832952Y-102948619D01*
X108591047Y-102948619D01*
X108494285Y-102997000D01*
X108445904Y-103045380D01*
X108397523Y-103142142D01*
X108397523Y-103238904D01*
X108445904Y-103384047D01*
X109026476Y-103964619D01*
X108397523Y-103964619D01*
%TO.C,C7*%
X122724333Y-95993857D02*
X122772714Y-96042238D01*
X122917857Y-96090619D01*
X123014619Y-96090619D01*
X123159761Y-96042238D01*
X123256523Y-95945476D01*
X123304904Y-95848714D01*
X123353285Y-95655190D01*
X123353285Y-95510047D01*
X123304904Y-95316523D01*
X123256523Y-95219761D01*
X123159761Y-95123000D01*
X123014619Y-95074619D01*
X122917857Y-95074619D01*
X122772714Y-95123000D01*
X122724333Y-95171380D01*
X122385666Y-95074619D02*
X121708333Y-95074619D01*
X122143761Y-96090619D01*
X123643571Y-91518619D02*
X124224142Y-91518619D01*
X123933857Y-91518619D02*
X123933857Y-90502619D01*
X124030619Y-90647761D01*
X124127380Y-90744523D01*
X124224142Y-90792904D01*
X123014619Y-90502619D02*
X122917857Y-90502619D01*
X122821095Y-90551000D01*
X122772714Y-90599380D01*
X122724333Y-90696142D01*
X122675952Y-90889666D01*
X122675952Y-91131571D01*
X122724333Y-91325095D01*
X122772714Y-91421857D01*
X122821095Y-91470238D01*
X122917857Y-91518619D01*
X123014619Y-91518619D01*
X123111380Y-91470238D01*
X123159761Y-91421857D01*
X123208142Y-91325095D01*
X123256523Y-91131571D01*
X123256523Y-90889666D01*
X123208142Y-90696142D01*
X123159761Y-90599380D01*
X123111380Y-90551000D01*
X123014619Y-90502619D01*
X121805095Y-90841285D02*
X121805095Y-91518619D01*
X122240523Y-90841285D02*
X122240523Y-91373476D01*
X122192142Y-91470238D01*
X122095380Y-91518619D01*
X121950238Y-91518619D01*
X121853476Y-91470238D01*
X121805095Y-91421857D01*
X120982619Y-90986428D02*
X121321285Y-90986428D01*
X121321285Y-91518619D02*
X121321285Y-90502619D01*
X120837476Y-90502619D01*
%TO.C,C8*%
D12*
X136609666Y-73079428D02*
X136633857Y-73103619D01*
X136706428Y-73127809D01*
X136754809Y-73127809D01*
X136827380Y-73103619D01*
X136875761Y-73055238D01*
X136899952Y-73006857D01*
X136924142Y-72910095D01*
X136924142Y-72837523D01*
X136899952Y-72740761D01*
X136875761Y-72692380D01*
X136827380Y-72644000D01*
X136754809Y-72619809D01*
X136706428Y-72619809D01*
X136633857Y-72644000D01*
X136609666Y-72668190D01*
X136319380Y-72837523D02*
X136367761Y-72813333D01*
X136391952Y-72789142D01*
X136416142Y-72740761D01*
X136416142Y-72716571D01*
X136391952Y-72668190D01*
X136367761Y-72644000D01*
X136319380Y-72619809D01*
X136222619Y-72619809D01*
X136174238Y-72644000D01*
X136150047Y-72668190D01*
X136125857Y-72716571D01*
X136125857Y-72740761D01*
X136150047Y-72789142D01*
X136174238Y-72813333D01*
X136222619Y-72837523D01*
X136319380Y-72837523D01*
X136367761Y-72861714D01*
X136391952Y-72885904D01*
X136416142Y-72934285D01*
X136416142Y-73031047D01*
X136391952Y-73079428D01*
X136367761Y-73103619D01*
X136319380Y-73127809D01*
X136222619Y-73127809D01*
X136174238Y-73103619D01*
X136150047Y-73079428D01*
X136125857Y-73031047D01*
X136125857Y-72934285D01*
X136150047Y-72885904D01*
X136174238Y-72861714D01*
X136222619Y-72837523D01*
X137359571Y-73424142D02*
X137359571Y-73762809D01*
X137480523Y-73230619D02*
X137601476Y-73593476D01*
X137287000Y-73593476D01*
X137141857Y-73254809D02*
X136803190Y-73254809D01*
X137020904Y-73762809D01*
X136512904Y-73254809D02*
X136464523Y-73254809D01*
X136416142Y-73279000D01*
X136391952Y-73303190D01*
X136367761Y-73351571D01*
X136343571Y-73448333D01*
X136343571Y-73569285D01*
X136367761Y-73666047D01*
X136391952Y-73714428D01*
X136416142Y-73738619D01*
X136464523Y-73762809D01*
X136512904Y-73762809D01*
X136561285Y-73738619D01*
X136585476Y-73714428D01*
X136609666Y-73666047D01*
X136633857Y-73569285D01*
X136633857Y-73448333D01*
X136609666Y-73351571D01*
X136585476Y-73303190D01*
X136561285Y-73279000D01*
X136512904Y-73254809D01*
X136125857Y-73424142D02*
X136125857Y-73932142D01*
X136125857Y-73448333D02*
X136077476Y-73424142D01*
X135980714Y-73424142D01*
X135932333Y-73448333D01*
X135908142Y-73472523D01*
X135883952Y-73520904D01*
X135883952Y-73666047D01*
X135908142Y-73714428D01*
X135932333Y-73738619D01*
X135980714Y-73762809D01*
X136077476Y-73762809D01*
X136125857Y-73738619D01*
X135496904Y-73496714D02*
X135666238Y-73496714D01*
X135666238Y-73762809D02*
X135666238Y-73254809D01*
X135424333Y-73254809D01*
%TO.C,C9*%
X134069666Y-73079428D02*
X134093857Y-73103619D01*
X134166428Y-73127809D01*
X134214809Y-73127809D01*
X134287380Y-73103619D01*
X134335761Y-73055238D01*
X134359952Y-73006857D01*
X134384142Y-72910095D01*
X134384142Y-72837523D01*
X134359952Y-72740761D01*
X134335761Y-72692380D01*
X134287380Y-72644000D01*
X134214809Y-72619809D01*
X134166428Y-72619809D01*
X134093857Y-72644000D01*
X134069666Y-72668190D01*
X133827761Y-73127809D02*
X133731000Y-73127809D01*
X133682619Y-73103619D01*
X133658428Y-73079428D01*
X133610047Y-73006857D01*
X133585857Y-72910095D01*
X133585857Y-72716571D01*
X133610047Y-72668190D01*
X133634238Y-72644000D01*
X133682619Y-72619809D01*
X133779380Y-72619809D01*
X133827761Y-72644000D01*
X133851952Y-72668190D01*
X133876142Y-72716571D01*
X133876142Y-72837523D01*
X133851952Y-72885904D01*
X133827761Y-72910095D01*
X133779380Y-72934285D01*
X133682619Y-72934285D01*
X133634238Y-72910095D01*
X133610047Y-72885904D01*
X133585857Y-72837523D01*
X134819571Y-73424142D02*
X134819571Y-73762809D01*
X134940523Y-73230619D02*
X135061476Y-73593476D01*
X134747000Y-73593476D01*
X134601857Y-73254809D02*
X134263190Y-73254809D01*
X134480904Y-73762809D01*
X133972904Y-73254809D02*
X133924523Y-73254809D01*
X133876142Y-73279000D01*
X133851952Y-73303190D01*
X133827761Y-73351571D01*
X133803571Y-73448333D01*
X133803571Y-73569285D01*
X133827761Y-73666047D01*
X133851952Y-73714428D01*
X133876142Y-73738619D01*
X133924523Y-73762809D01*
X133972904Y-73762809D01*
X134021285Y-73738619D01*
X134045476Y-73714428D01*
X134069666Y-73666047D01*
X134093857Y-73569285D01*
X134093857Y-73448333D01*
X134069666Y-73351571D01*
X134045476Y-73303190D01*
X134021285Y-73279000D01*
X133972904Y-73254809D01*
X133585857Y-73424142D02*
X133585857Y-73932142D01*
X133585857Y-73448333D02*
X133537476Y-73424142D01*
X133440714Y-73424142D01*
X133392333Y-73448333D01*
X133368142Y-73472523D01*
X133343952Y-73520904D01*
X133343952Y-73666047D01*
X133368142Y-73714428D01*
X133392333Y-73738619D01*
X133440714Y-73762809D01*
X133537476Y-73762809D01*
X133585857Y-73738619D01*
X132956904Y-73496714D02*
X133126238Y-73496714D01*
X133126238Y-73762809D02*
X133126238Y-73254809D01*
X132884333Y-73254809D01*
%TO.C,C10*%
X126691571Y-73079428D02*
X126715761Y-73103619D01*
X126788333Y-73127809D01*
X126836714Y-73127809D01*
X126909285Y-73103619D01*
X126957666Y-73055238D01*
X126981857Y-73006857D01*
X127006047Y-72910095D01*
X127006047Y-72837523D01*
X126981857Y-72740761D01*
X126957666Y-72692380D01*
X126909285Y-72644000D01*
X126836714Y-72619809D01*
X126788333Y-72619809D01*
X126715761Y-72644000D01*
X126691571Y-72668190D01*
X126207761Y-73127809D02*
X126498047Y-73127809D01*
X126352904Y-73127809D02*
X126352904Y-72619809D01*
X126401285Y-72692380D01*
X126449666Y-72740761D01*
X126498047Y-72764952D01*
X125893285Y-72619809D02*
X125844904Y-72619809D01*
X125796523Y-72644000D01*
X125772333Y-72668190D01*
X125748142Y-72716571D01*
X125723952Y-72813333D01*
X125723952Y-72934285D01*
X125748142Y-73031047D01*
X125772333Y-73079428D01*
X125796523Y-73103619D01*
X125844904Y-73127809D01*
X125893285Y-73127809D01*
X125941666Y-73103619D01*
X125965857Y-73079428D01*
X125990047Y-73031047D01*
X126014238Y-72934285D01*
X126014238Y-72813333D01*
X125990047Y-72716571D01*
X125965857Y-72668190D01*
X125941666Y-72644000D01*
X125893285Y-72619809D01*
X127072571Y-73424142D02*
X127072571Y-73762809D01*
X127193523Y-73230619D02*
X127314476Y-73593476D01*
X127000000Y-73593476D01*
X126854857Y-73254809D02*
X126516190Y-73254809D01*
X126733904Y-73762809D01*
X126225904Y-73254809D02*
X126177523Y-73254809D01*
X126129142Y-73279000D01*
X126104952Y-73303190D01*
X126080761Y-73351571D01*
X126056571Y-73448333D01*
X126056571Y-73569285D01*
X126080761Y-73666047D01*
X126104952Y-73714428D01*
X126129142Y-73738619D01*
X126177523Y-73762809D01*
X126225904Y-73762809D01*
X126274285Y-73738619D01*
X126298476Y-73714428D01*
X126322666Y-73666047D01*
X126346857Y-73569285D01*
X126346857Y-73448333D01*
X126322666Y-73351571D01*
X126298476Y-73303190D01*
X126274285Y-73279000D01*
X126225904Y-73254809D01*
X125838857Y-73424142D02*
X125838857Y-73932142D01*
X125838857Y-73448333D02*
X125790476Y-73424142D01*
X125693714Y-73424142D01*
X125645333Y-73448333D01*
X125621142Y-73472523D01*
X125596952Y-73520904D01*
X125596952Y-73666047D01*
X125621142Y-73714428D01*
X125645333Y-73738619D01*
X125693714Y-73762809D01*
X125790476Y-73762809D01*
X125838857Y-73738619D01*
X125209904Y-73496714D02*
X125379238Y-73496714D01*
X125379238Y-73762809D02*
X125379238Y-73254809D01*
X125137333Y-73254809D01*
%TO.C,C11*%
X124151571Y-73079428D02*
X124175761Y-73103619D01*
X124248333Y-73127809D01*
X124296714Y-73127809D01*
X124369285Y-73103619D01*
X124417666Y-73055238D01*
X124441857Y-73006857D01*
X124466047Y-72910095D01*
X124466047Y-72837523D01*
X124441857Y-72740761D01*
X124417666Y-72692380D01*
X124369285Y-72644000D01*
X124296714Y-72619809D01*
X124248333Y-72619809D01*
X124175761Y-72644000D01*
X124151571Y-72668190D01*
X123667761Y-73127809D02*
X123958047Y-73127809D01*
X123812904Y-73127809D02*
X123812904Y-72619809D01*
X123861285Y-72692380D01*
X123909666Y-72740761D01*
X123958047Y-72764952D01*
X123183952Y-73127809D02*
X123474238Y-73127809D01*
X123329095Y-73127809D02*
X123329095Y-72619809D01*
X123377476Y-72692380D01*
X123425857Y-72740761D01*
X123474238Y-72764952D01*
X124659571Y-73424142D02*
X124659571Y-73762809D01*
X124780523Y-73230619D02*
X124901476Y-73593476D01*
X124587000Y-73593476D01*
X124441857Y-73254809D02*
X124103190Y-73254809D01*
X124320904Y-73762809D01*
X123812904Y-73254809D02*
X123764523Y-73254809D01*
X123716142Y-73279000D01*
X123691952Y-73303190D01*
X123667761Y-73351571D01*
X123643571Y-73448333D01*
X123643571Y-73569285D01*
X123667761Y-73666047D01*
X123691952Y-73714428D01*
X123716142Y-73738619D01*
X123764523Y-73762809D01*
X123812904Y-73762809D01*
X123861285Y-73738619D01*
X123885476Y-73714428D01*
X123909666Y-73666047D01*
X123933857Y-73569285D01*
X123933857Y-73448333D01*
X123909666Y-73351571D01*
X123885476Y-73303190D01*
X123861285Y-73279000D01*
X123812904Y-73254809D01*
X123425857Y-73424142D02*
X123425857Y-73932142D01*
X123425857Y-73448333D02*
X123377476Y-73424142D01*
X123280714Y-73424142D01*
X123232333Y-73448333D01*
X123208142Y-73472523D01*
X123183952Y-73520904D01*
X123183952Y-73666047D01*
X123208142Y-73714428D01*
X123232333Y-73738619D01*
X123280714Y-73762809D01*
X123377476Y-73762809D01*
X123425857Y-73738619D01*
X122796904Y-73496714D02*
X122966238Y-73496714D01*
X122966238Y-73762809D02*
X122966238Y-73254809D01*
X122724333Y-73254809D01*
%TO.C,C12*%
D14*
X116313857Y-83801857D02*
X116362238Y-83753476D01*
X116410619Y-83608333D01*
X116410619Y-83511571D01*
X116362238Y-83366428D01*
X116265476Y-83269666D01*
X116168714Y-83221285D01*
X115975190Y-83172904D01*
X115830047Y-83172904D01*
X115636523Y-83221285D01*
X115539761Y-83269666D01*
X115443000Y-83366428D01*
X115394619Y-83511571D01*
X115394619Y-83608333D01*
X115443000Y-83753476D01*
X115491380Y-83801857D01*
X116410619Y-84769476D02*
X116410619Y-84188904D01*
X116410619Y-84479190D02*
X115394619Y-84479190D01*
X115539761Y-84382428D01*
X115636523Y-84285666D01*
X115684904Y-84188904D01*
X115491380Y-85156523D02*
X115443000Y-85204904D01*
X115394619Y-85301666D01*
X115394619Y-85543571D01*
X115443000Y-85640333D01*
X115491380Y-85688714D01*
X115588142Y-85737095D01*
X115684904Y-85737095D01*
X115830047Y-85688714D01*
X116410619Y-85108142D01*
X116410619Y-85737095D01*
X110822619Y-82785857D02*
X110822619Y-82882619D01*
X110871000Y-82979380D01*
X110919380Y-83027761D01*
X111016142Y-83076142D01*
X111209666Y-83124523D01*
X111451571Y-83124523D01*
X111645095Y-83076142D01*
X111741857Y-83027761D01*
X111790238Y-82979380D01*
X111838619Y-82882619D01*
X111838619Y-82785857D01*
X111790238Y-82689095D01*
X111741857Y-82640714D01*
X111645095Y-82592333D01*
X111451571Y-82543952D01*
X111209666Y-82543952D01*
X111016142Y-82592333D01*
X110919380Y-82640714D01*
X110871000Y-82689095D01*
X110822619Y-82785857D01*
X111741857Y-83559952D02*
X111790238Y-83608333D01*
X111838619Y-83559952D01*
X111790238Y-83511571D01*
X111741857Y-83559952D01*
X111838619Y-83559952D01*
X111838619Y-84575952D02*
X111838619Y-83995380D01*
X111838619Y-84285666D02*
X110822619Y-84285666D01*
X110967761Y-84188904D01*
X111064523Y-84092142D01*
X111112904Y-83995380D01*
X111161285Y-85446809D02*
X111838619Y-85446809D01*
X111161285Y-85011380D02*
X111693476Y-85011380D01*
X111790238Y-85059761D01*
X111838619Y-85156523D01*
X111838619Y-85301666D01*
X111790238Y-85398428D01*
X111741857Y-85446809D01*
X111306428Y-86269285D02*
X111306428Y-85930619D01*
X111838619Y-85930619D02*
X110822619Y-85930619D01*
X110822619Y-86414428D01*
%TO.C,L1*%
D16*
X137922000Y-87466714D02*
X138284857Y-87466714D01*
X138284857Y-86704714D01*
X137268857Y-87466714D02*
X137704285Y-87466714D01*
X137486571Y-87466714D02*
X137486571Y-86704714D01*
X137559142Y-86813571D01*
X137631714Y-86886142D01*
X137704285Y-86922428D01*
%TO.C,L2*%
X132842000Y-87466714D02*
X133204857Y-87466714D01*
X133204857Y-86704714D01*
X132624285Y-86777285D02*
X132588000Y-86741000D01*
X132515428Y-86704714D01*
X132334000Y-86704714D01*
X132261428Y-86741000D01*
X132225142Y-86777285D01*
X132188857Y-86849857D01*
X132188857Y-86922428D01*
X132225142Y-87031285D01*
X132660571Y-87466714D01*
X132188857Y-87466714D01*
%TO.C,L3*%
X127762000Y-87466714D02*
X128124857Y-87466714D01*
X128124857Y-86704714D01*
X127580571Y-86704714D02*
X127108857Y-86704714D01*
X127362857Y-86995000D01*
X127254000Y-86995000D01*
X127181428Y-87031285D01*
X127145142Y-87067571D01*
X127108857Y-87140142D01*
X127108857Y-87321571D01*
X127145142Y-87394142D01*
X127181428Y-87430428D01*
X127254000Y-87466714D01*
X127471714Y-87466714D01*
X127544285Y-87430428D01*
X127580571Y-87394142D01*
%TO.C,L4*%
X122682000Y-87466714D02*
X123044857Y-87466714D01*
X123044857Y-86704714D01*
X122101428Y-86958714D02*
X122101428Y-87466714D01*
X122282857Y-86668428D02*
X122464285Y-87212714D01*
X121992571Y-87212714D01*
%TO.C,RV1*%
D12*
X135557380Y-79731809D02*
X135726714Y-79489904D01*
X135847666Y-79731809D02*
X135847666Y-79223809D01*
X135654142Y-79223809D01*
X135605761Y-79248000D01*
X135581571Y-79272190D01*
X135557380Y-79320571D01*
X135557380Y-79393142D01*
X135581571Y-79441523D01*
X135605761Y-79465714D01*
X135654142Y-79489904D01*
X135847666Y-79489904D01*
X135412238Y-79223809D02*
X135242904Y-79731809D01*
X135073571Y-79223809D01*
X134638142Y-79731809D02*
X134928428Y-79731809D01*
X134783285Y-79731809D02*
X134783285Y-79223809D01*
X134831666Y-79296380D01*
X134880047Y-79344761D01*
X134928428Y-79368952D01*
%TO.C,RV2*%
X125397380Y-79731809D02*
X125566714Y-79489904D01*
X125687666Y-79731809D02*
X125687666Y-79223809D01*
X125494142Y-79223809D01*
X125445761Y-79248000D01*
X125421571Y-79272190D01*
X125397380Y-79320571D01*
X125397380Y-79393142D01*
X125421571Y-79441523D01*
X125445761Y-79465714D01*
X125494142Y-79489904D01*
X125687666Y-79489904D01*
X125252238Y-79223809D02*
X125082904Y-79731809D01*
X124913571Y-79223809D01*
X124768428Y-79272190D02*
X124744238Y-79248000D01*
X124695857Y-79223809D01*
X124574904Y-79223809D01*
X124526523Y-79248000D01*
X124502333Y-79272190D01*
X124478142Y-79320571D01*
X124478142Y-79368952D01*
X124502333Y-79441523D01*
X124792619Y-79731809D01*
X124478142Y-79731809D01*
%TO.C,RV3*%
X139367380Y-77826809D02*
X139536714Y-77584904D01*
X139657666Y-77826809D02*
X139657666Y-77318809D01*
X139464142Y-77318809D01*
X139415761Y-77343000D01*
X139391571Y-77367190D01*
X139367380Y-77415571D01*
X139367380Y-77488142D01*
X139391571Y-77536523D01*
X139415761Y-77560714D01*
X139464142Y-77584904D01*
X139657666Y-77584904D01*
X139222238Y-77318809D02*
X139052904Y-77826809D01*
X138883571Y-77318809D01*
X138762619Y-77318809D02*
X138448142Y-77318809D01*
X138617476Y-77512333D01*
X138544904Y-77512333D01*
X138496523Y-77536523D01*
X138472333Y-77560714D01*
X138448142Y-77609095D01*
X138448142Y-77730047D01*
X138472333Y-77778428D01*
X138496523Y-77802619D01*
X138544904Y-77826809D01*
X138690047Y-77826809D01*
X138738428Y-77802619D01*
X138762619Y-77778428D01*
%TO.C,RV4*%
X131747380Y-77826809D02*
X131916714Y-77584904D01*
X132037666Y-77826809D02*
X132037666Y-77318809D01*
X131844142Y-77318809D01*
X131795761Y-77343000D01*
X131771571Y-77367190D01*
X131747380Y-77415571D01*
X131747380Y-77488142D01*
X131771571Y-77536523D01*
X131795761Y-77560714D01*
X131844142Y-77584904D01*
X132037666Y-77584904D01*
X131602238Y-77318809D02*
X131432904Y-77826809D01*
X131263571Y-77318809D01*
X130876523Y-77488142D02*
X130876523Y-77826809D01*
X130997476Y-77294619D02*
X131118428Y-77657476D01*
X130803952Y-77657476D01*
%TO.C,RV5*%
X129207380Y-77826809D02*
X129376714Y-77584904D01*
X129497666Y-77826809D02*
X129497666Y-77318809D01*
X129304142Y-77318809D01*
X129255761Y-77343000D01*
X129231571Y-77367190D01*
X129207380Y-77415571D01*
X129207380Y-77488142D01*
X129231571Y-77536523D01*
X129255761Y-77560714D01*
X129304142Y-77584904D01*
X129497666Y-77584904D01*
X129062238Y-77318809D02*
X128892904Y-77826809D01*
X128723571Y-77318809D01*
X128312333Y-77318809D02*
X128554238Y-77318809D01*
X128578428Y-77560714D01*
X128554238Y-77536523D01*
X128505857Y-77512333D01*
X128384904Y-77512333D01*
X128336523Y-77536523D01*
X128312333Y-77560714D01*
X128288142Y-77609095D01*
X128288142Y-77730047D01*
X128312333Y-77778428D01*
X128336523Y-77802619D01*
X128384904Y-77826809D01*
X128505857Y-77826809D01*
X128554238Y-77802619D01*
X128578428Y-77778428D01*
%TO.C,RV6*%
X121587380Y-77826809D02*
X121756714Y-77584904D01*
X121877666Y-77826809D02*
X121877666Y-77318809D01*
X121684142Y-77318809D01*
X121635761Y-77343000D01*
X121611571Y-77367190D01*
X121587380Y-77415571D01*
X121587380Y-77488142D01*
X121611571Y-77536523D01*
X121635761Y-77560714D01*
X121684142Y-77584904D01*
X121877666Y-77584904D01*
X121442238Y-77318809D02*
X121272904Y-77826809D01*
X121103571Y-77318809D01*
X120716523Y-77318809D02*
X120813285Y-77318809D01*
X120861666Y-77343000D01*
X120885857Y-77367190D01*
X120934238Y-77439761D01*
X120958428Y-77536523D01*
X120958428Y-77730047D01*
X120934238Y-77778428D01*
X120910047Y-77802619D01*
X120861666Y-77826809D01*
X120764904Y-77826809D01*
X120716523Y-77802619D01*
X120692333Y-77778428D01*
X120668142Y-77730047D01*
X120668142Y-77609095D01*
X120692333Y-77560714D01*
X120716523Y-77536523D01*
X120764904Y-77512333D01*
X120861666Y-77512333D01*
X120910047Y-77536523D01*
X120934238Y-77560714D01*
X120958428Y-77609095D01*
%TO.C,U3*%
X105893809Y-85337952D02*
X106305047Y-85337952D01*
X106353428Y-85362142D01*
X106377619Y-85386333D01*
X106401809Y-85434714D01*
X106401809Y-85531476D01*
X106377619Y-85579857D01*
X106353428Y-85604047D01*
X106305047Y-85628238D01*
X105893809Y-85628238D01*
X105893809Y-85821761D02*
X105893809Y-86136238D01*
X106087333Y-85966904D01*
X106087333Y-86039476D01*
X106111523Y-86087857D01*
X106135714Y-86112047D01*
X106184095Y-86136238D01*
X106305047Y-86136238D01*
X106353428Y-86112047D01*
X106377619Y-86087857D01*
X106401809Y-86039476D01*
X106401809Y-85894333D01*
X106377619Y-85845952D01*
X106353428Y-85821761D01*
X109957809Y-82858428D02*
X109449809Y-82858428D01*
X109812666Y-83027761D01*
X109449809Y-83197095D01*
X109957809Y-83197095D01*
X109812666Y-83414809D02*
X109812666Y-83656714D01*
X109957809Y-83366428D02*
X109449809Y-83535761D01*
X109957809Y-83705095D01*
X109449809Y-83826047D02*
X109957809Y-84164714D01*
X109449809Y-84164714D02*
X109957809Y-83826047D01*
X109449809Y-84575952D02*
X109449809Y-84479190D01*
X109474000Y-84430809D01*
X109498190Y-84406619D01*
X109570761Y-84358238D01*
X109667523Y-84334047D01*
X109861047Y-84334047D01*
X109909428Y-84358238D01*
X109933619Y-84382428D01*
X109957809Y-84430809D01*
X109957809Y-84527571D01*
X109933619Y-84575952D01*
X109909428Y-84600142D01*
X109861047Y-84624333D01*
X109740095Y-84624333D01*
X109691714Y-84600142D01*
X109667523Y-84575952D01*
X109643333Y-84527571D01*
X109643333Y-84430809D01*
X109667523Y-84382428D01*
X109691714Y-84358238D01*
X109740095Y-84334047D01*
X109667523Y-84914619D02*
X109643333Y-84866238D01*
X109619142Y-84842047D01*
X109570761Y-84817857D01*
X109546571Y-84817857D01*
X109498190Y-84842047D01*
X109474000Y-84866238D01*
X109449809Y-84914619D01*
X109449809Y-85011380D01*
X109474000Y-85059761D01*
X109498190Y-85083952D01*
X109546571Y-85108142D01*
X109570761Y-85108142D01*
X109619142Y-85083952D01*
X109643333Y-85059761D01*
X109667523Y-85011380D01*
X109667523Y-84914619D01*
X109691714Y-84866238D01*
X109715904Y-84842047D01*
X109764285Y-84817857D01*
X109861047Y-84817857D01*
X109909428Y-84842047D01*
X109933619Y-84866238D01*
X109957809Y-84914619D01*
X109957809Y-85011380D01*
X109933619Y-85059761D01*
X109909428Y-85083952D01*
X109861047Y-85108142D01*
X109764285Y-85108142D01*
X109715904Y-85083952D01*
X109691714Y-85059761D01*
X109667523Y-85011380D01*
X109957809Y-85591952D02*
X109957809Y-85301666D01*
X109957809Y-85446809D02*
X109449809Y-85446809D01*
X109522380Y-85398428D01*
X109570761Y-85350047D01*
X109594952Y-85301666D01*
X109449809Y-85761285D02*
X109449809Y-86099952D01*
X109957809Y-85882238D01*
%TD*%
%LPC*%
D17*
%TO.C,SS1*%
X139065000Y-101600000D03*
X136525000Y-101600000D03*
X133985000Y-101600000D03*
X131445000Y-101600000D03*
X128905000Y-101600000D03*
X126365000Y-101600000D03*
X123825000Y-101600000D03*
X121285000Y-101600000D03*
X121285000Y-88900000D03*
X123825000Y-88900000D03*
X126365000Y-88900000D03*
X128905000Y-88900000D03*
X131445000Y-88900000D03*
X133985000Y-88900000D03*
X136525000Y-88900000D03*
X139065000Y-88900000D03*
%TD*%
D18*
%TO.C,MDB1*%
X130175000Y-71120000D03*
X130175000Y-106680000D03*
X89535000Y-101600000D03*
X89535000Y-76200000D03*
D19*
X88265000Y-106680000D03*
X90805000Y-106680000D03*
X93345000Y-106680000D03*
X95885000Y-106680000D03*
X98425000Y-106680000D03*
X100965000Y-106680000D03*
X103505000Y-106680000D03*
X106045000Y-106680000D03*
X108585000Y-106680000D03*
X111125000Y-106680000D03*
X113665000Y-106680000D03*
X116205000Y-106680000D03*
X118745000Y-106680000D03*
X121285000Y-106680000D03*
X123825000Y-106680000D03*
X126365000Y-106680000D03*
X126365000Y-71120000D03*
X123825000Y-71120000D03*
X121285000Y-71120000D03*
X118745000Y-71120000D03*
X116205000Y-71120000D03*
X113665000Y-71120000D03*
X111125000Y-71120000D03*
X108585000Y-71120000D03*
X106045000Y-71120000D03*
X103505000Y-71120000D03*
X100965000Y-71120000D03*
X98425000Y-71120000D03*
X95885000Y-71120000D03*
D20*
X88265000Y-71120000D03*
D19*
X93345000Y-71120000D03*
X90805000Y-71120000D03*
%TD*%
D21*
%TO.C,C1*%
X92329000Y-89535000D03*
X89281000Y-89535000D03*
%TD*%
%TO.C,C2*%
X99314000Y-102870000D03*
X96266000Y-102870000D03*
%TD*%
D22*
%TO.C,CLK1*%
X88265000Y-96715000D03*
X93345000Y-96715000D03*
X93345000Y-92515000D03*
X88265000Y-92515000D03*
%TD*%
D23*
%TO.C,U1*%
X93520000Y-83340000D03*
X93520000Y-83840000D03*
X93520000Y-84340000D03*
X93520000Y-84840000D03*
X93520000Y-85340000D03*
X93520000Y-85840000D03*
X93520000Y-86340000D03*
X93520000Y-86840000D03*
X99520000Y-86840000D03*
X99520000Y-86340000D03*
X99520000Y-85840000D03*
X99520000Y-85340000D03*
X99520000Y-84840000D03*
X99520000Y-84340000D03*
X99520000Y-83840000D03*
X99520000Y-83340000D03*
D24*
X94770000Y-88090000D03*
X95270000Y-88090000D03*
X95770000Y-88090000D03*
X96270000Y-88090000D03*
X96770000Y-88090000D03*
X97270000Y-88090000D03*
X97770000Y-88090000D03*
X98270000Y-88090000D03*
X98270000Y-82090000D03*
X97770000Y-82090000D03*
X97270000Y-82090000D03*
X96770000Y-82090000D03*
X96270000Y-82090000D03*
X95770000Y-82090000D03*
X95270000Y-82090000D03*
X94770000Y-82090000D03*
D25*
X96520000Y-85090000D03*
%TD*%
D26*
%TO.C,C4*%
X88900000Y-84709000D03*
X88900000Y-81661000D03*
%TD*%
%TO.C,C5*%
X118110000Y-98044000D03*
X118110000Y-94996000D03*
%TD*%
D27*
%TO.C,D1*%
X94484000Y-75057000D03*
D28*
X98284000Y-76122000D03*
X98284000Y-73992000D03*
%TD*%
D29*
%TO.C,P1*%
X153212800Y-88900000D03*
D30*
X149707600Y-88900000D03*
D31*
X144221200Y-88900000D03*
D32*
X151206200Y-84404200D03*
X151206200Y-93395800D03*
%TD*%
D33*
%TO.C,T1*%
X132715000Y-80010000D03*
X127635000Y-80010000D03*
X122555000Y-80010000D03*
X137795000Y-80010000D03*
%TD*%
D34*
%TO.C,T2*%
X113665000Y-80010000D03*
X102235000Y-80010000D03*
X106045000Y-80010000D03*
X109855000Y-80010000D03*
%TD*%
D21*
%TO.C,C3*%
X98171000Y-95250000D03*
X101219000Y-95250000D03*
%TD*%
%TO.C,R1*%
X101219000Y-92075000D03*
X98171000Y-92075000D03*
%TD*%
D35*
%TO.C,REG1*%
X99060000Y-99695000D03*
X101600000Y-99695000D03*
X96520000Y-99695000D03*
%TD*%
D36*
%TO.C,U2*%
X114935000Y-91870000D03*
X113665000Y-91870000D03*
X112395000Y-91870000D03*
X111125000Y-91870000D03*
X109855000Y-91870000D03*
X108585000Y-91870000D03*
X107315000Y-91870000D03*
X106045000Y-91870000D03*
X104775000Y-91870000D03*
X103505000Y-91870000D03*
X103505000Y-101170000D03*
X104775000Y-101170000D03*
X106045000Y-101170000D03*
X107315000Y-101170000D03*
X108585000Y-101170000D03*
X109855000Y-101170000D03*
X111125000Y-101170000D03*
X112395000Y-101170000D03*
X113665000Y-101170000D03*
X114935000Y-101170000D03*
%TD*%
D21*
%TO.C,C7*%
X121031000Y-93345000D03*
X124079000Y-93345000D03*
%TD*%
D37*
%TO.C,C8*%
X136525000Y-74523600D03*
X136525000Y-76606400D03*
%TD*%
%TO.C,C9*%
X133985000Y-76606400D03*
X133985000Y-74523600D03*
%TD*%
%TO.C,C10*%
X126365000Y-74523600D03*
X126365000Y-76606400D03*
%TD*%
%TO.C,C11*%
X123825000Y-76606400D03*
X123825000Y-74523600D03*
%TD*%
D26*
%TO.C,C12*%
X113665000Y-82931000D03*
X113665000Y-85979000D03*
%TD*%
D38*
%TO.C,L1*%
X137795000Y-85597000D03*
X137795000Y-82297000D03*
%TD*%
%TO.C,L2*%
X132715000Y-82297000D03*
X132715000Y-85597000D03*
%TD*%
%TO.C,L3*%
X127635000Y-82297000D03*
X127635000Y-85597000D03*
%TD*%
%TO.C,L4*%
X122555000Y-85597000D03*
X122555000Y-82297000D03*
%TD*%
D39*
%TO.C,RV1*%
X134213600Y-78105000D03*
X136296400Y-78105000D03*
%TD*%
%TO.C,RV2*%
X126136400Y-78105000D03*
X124053600Y-78105000D03*
%TD*%
D37*
%TO.C,RV3*%
X139065000Y-74523600D03*
X139065000Y-76606400D03*
%TD*%
%TO.C,RV4*%
X131445000Y-76606400D03*
X131445000Y-74523600D03*
%TD*%
%TO.C,RV5*%
X128905000Y-74523600D03*
X128905000Y-76606400D03*
%TD*%
%TO.C,RV6*%
X121285000Y-76606400D03*
X121285000Y-74523600D03*
%TD*%
D40*
%TO.C,U3*%
X107000040Y-83256120D03*
X107950000Y-83256120D03*
X108899960Y-83256120D03*
X108899960Y-85653880D03*
X107950000Y-85653880D03*
X107000040Y-85653880D03*
%TD*%
M02*
