G04 #@! TF.GenerationSoftware,KiCad,Pcbnew,no-vcs-found-36e5906~58~ubuntu16.04.1*
G04 #@! TF.CreationDate,2017-06-16T16:05:32-04:00*
G04 #@! TF.ProjectId,stepper_controller_3x2,737465707065725F636F6E74726F6C6C,1.0*
G04 #@! TF.SameCoordinates,Original
G04 #@! TF.FileFunction,Soldermask,Bot*
G04 #@! TF.FilePolarity,Negative*
%FSLAX46Y46*%
G04 Gerber Fmt 4.6, Leading zero omitted, Abs format (unit mm)*
G04 Created by KiCad (PCBNEW no-vcs-found-36e5906~58~ubuntu16.04.1) date Fri Jun 16 16:05:32 2017*
%MOMM*%
%LPD*%
G01*
G04 APERTURE LIST*
%ADD10C,0.100000*%
%ADD11C,0.228600*%
%ADD12C,3.556000*%
%ADD13O,1.854200X2.540000*%
%ADD14R,1.854200X2.540000*%
%ADD15R,2.540000X1.270000*%
%ADD16R,1.800000X2.000000*%
%ADD17R,2.075000X0.325000*%
%ADD18R,0.325000X2.075000*%
%ADD19R,3.475000X3.475000*%
%ADD20R,1.270000X2.540000*%
%ADD21R,4.000000X5.160000*%
%ADD22R,1.800000X1.640000*%
%ADD23C,1.930400*%
%ADD24O,4.572000X3.556000*%
%ADD25O,4.064000X5.080000*%
%ADD26O,5.080000X3.556000*%
%ADD27O,2.032000X3.048000*%
%ADD28C,2.540000*%
%ADD29C,2.340000*%
%ADD30R,0.762000X1.534160*%
G04 APERTURE END LIST*
D10*
D11*
X156210000Y-67945000D02*
X85725000Y-67945000D01*
X156210000Y-109855000D02*
X156210000Y-67945000D01*
X85725000Y-109855000D02*
X156210000Y-109855000D01*
X85725000Y-67945000D02*
X85725000Y-109855000D01*
D12*
X130175000Y-71120000D03*
X130175000Y-106680000D03*
X89535000Y-101600000D03*
X89535000Y-76200000D03*
D13*
X88265000Y-106680000D03*
X90805000Y-106680000D03*
X93345000Y-106680000D03*
X95885000Y-106680000D03*
X98425000Y-106680000D03*
X100965000Y-106680000D03*
X103505000Y-106680000D03*
X106045000Y-106680000D03*
X108585000Y-106680000D03*
X111125000Y-106680000D03*
X113665000Y-106680000D03*
X116205000Y-106680000D03*
X118745000Y-106680000D03*
X121285000Y-106680000D03*
X123825000Y-106680000D03*
X126365000Y-106680000D03*
X126365000Y-71120000D03*
X123825000Y-71120000D03*
X121285000Y-71120000D03*
X118745000Y-71120000D03*
X116205000Y-71120000D03*
X113665000Y-71120000D03*
X111125000Y-71120000D03*
X108585000Y-71120000D03*
X106045000Y-71120000D03*
X103505000Y-71120000D03*
X100965000Y-71120000D03*
X98425000Y-71120000D03*
X95885000Y-71120000D03*
D14*
X88265000Y-71120000D03*
D13*
X93345000Y-71120000D03*
X90805000Y-71120000D03*
D15*
X88900000Y-86614000D03*
X88900000Y-83566000D03*
X91440000Y-93726000D03*
X91440000Y-96774000D03*
D16*
X93345000Y-87190000D03*
X98425000Y-87190000D03*
X98425000Y-82990000D03*
X93345000Y-82990000D03*
D17*
X95425000Y-94135000D03*
X95425000Y-94635000D03*
X95425000Y-95135000D03*
X95425000Y-95635000D03*
X95425000Y-96135000D03*
X95425000Y-96635000D03*
X95425000Y-97135000D03*
X95425000Y-97635000D03*
X101425000Y-97635000D03*
X101425000Y-97135000D03*
X101425000Y-96635000D03*
X101425000Y-96135000D03*
X101425000Y-95635000D03*
X101425000Y-95135000D03*
X101425000Y-94635000D03*
X101425000Y-94135000D03*
D18*
X96675000Y-98885000D03*
X97175000Y-98885000D03*
X97675000Y-98885000D03*
X98175000Y-98885000D03*
X98675000Y-98885000D03*
X99175000Y-98885000D03*
X99675000Y-98885000D03*
X100175000Y-98885000D03*
X100175000Y-92885000D03*
X99675000Y-92885000D03*
X99175000Y-92885000D03*
X98675000Y-92885000D03*
X98175000Y-92885000D03*
X97675000Y-92885000D03*
X97175000Y-92885000D03*
X96675000Y-92885000D03*
D19*
X98425000Y-95885000D03*
D20*
X121031000Y-93980000D03*
X124079000Y-93980000D03*
D15*
X102870000Y-83566000D03*
X102870000Y-86614000D03*
D21*
X144145000Y-80895000D03*
D22*
X143080000Y-84695000D03*
X145210000Y-84695000D03*
D23*
X153212800Y-88900000D03*
D24*
X149707600Y-88900000D03*
D25*
X144221200Y-88900000D03*
D26*
X151206200Y-84404200D03*
X151206200Y-93395800D03*
D27*
X139065000Y-88265000D03*
X136525000Y-88265000D03*
X133985000Y-88265000D03*
X131445000Y-88265000D03*
X128905000Y-88265000D03*
X126365000Y-88265000D03*
X123825000Y-88265000D03*
X121285000Y-88265000D03*
X121285000Y-100965000D03*
X123825000Y-100965000D03*
X126365000Y-100965000D03*
X128905000Y-100965000D03*
X131445000Y-100965000D03*
X133985000Y-100965000D03*
X136525000Y-100965000D03*
X139065000Y-100965000D03*
D28*
X132715000Y-80645000D03*
X127635000Y-80645000D03*
X122555000Y-80645000D03*
X137795000Y-80645000D03*
D29*
X113665000Y-80645000D03*
X102235000Y-80645000D03*
X106045000Y-80645000D03*
X109855000Y-80645000D03*
D30*
X107000040Y-83891120D03*
X107950000Y-83891120D03*
X108899960Y-83891120D03*
X108899960Y-86288880D03*
X107950000Y-86288880D03*
X107000040Y-86288880D03*
M02*
