G04 #@! TF.GenerationSoftware,KiCad,Pcbnew,no-vcs-found-1466d0c~58~ubuntu16.04.1*
G04 #@! TF.CreationDate,2017-06-19T16:09:13-04:00*
G04 #@! TF.ProjectId,stepper_controller_3x2,737465707065725F636F6E74726F6C6C,1.0*
G04 #@! TF.SameCoordinates,Original
G04 #@! TF.FileFunction,Copper,L2,Bot,Signal*
G04 #@! TF.FilePolarity,Positive*
%FSLAX46Y46*%
G04 Gerber Fmt 4.6, Leading zero omitted, Abs format (unit mm)*
G04 Created by KiCad (PCBNEW no-vcs-found-1466d0c~58~ubuntu16.04.1) date Mon Jun 19 16:09:13 2017*
%MOMM*%
%LPD*%
G01*
G04 APERTURE LIST*
%ADD10C,0.100000*%
%ADD11C,0.228600*%
%ADD12O,2.032000X3.048000*%
%ADD13C,3.556000*%
%ADD14O,1.854200X2.540000*%
%ADD15R,1.854200X2.540000*%
%ADD16R,2.540000X1.270000*%
%ADD17R,1.800000X2.000000*%
%ADD18R,2.000000X0.250000*%
%ADD19R,0.250000X2.000000*%
%ADD20R,3.400000X3.400000*%
%ADD21R,1.270000X2.540000*%
%ADD22R,3.800000X4.960000*%
%ADD23R,1.600000X1.440000*%
%ADD24C,1.930400*%
%ADD25O,4.572000X3.556000*%
%ADD26O,4.064000X5.080000*%
%ADD27O,5.080000X3.556000*%
%ADD28C,2.540000*%
%ADD29C,2.340000*%
%ADD30R,0.558800X1.330960*%
%ADD31C,0.889000*%
%ADD32C,0.304800*%
%ADD33C,1.270000*%
%ADD34C,0.249800*%
%ADD35C,0.203200*%
G04 APERTURE END LIST*
D10*
D11*
X156210000Y-67945000D02*
X85725000Y-67945000D01*
X156210000Y-109855000D02*
X156210000Y-67945000D01*
X85725000Y-109855000D02*
X156210000Y-109855000D01*
X85725000Y-67945000D02*
X85725000Y-109855000D01*
D12*
X139065000Y-100965000D03*
X136525000Y-100965000D03*
X133985000Y-100965000D03*
X131445000Y-100965000D03*
X128905000Y-100965000D03*
X126365000Y-100965000D03*
X123825000Y-100965000D03*
X121285000Y-100965000D03*
X121285000Y-88265000D03*
X123825000Y-88265000D03*
X126365000Y-88265000D03*
X128905000Y-88265000D03*
X131445000Y-88265000D03*
X133985000Y-88265000D03*
X136525000Y-88265000D03*
X139065000Y-88265000D03*
D13*
X130175000Y-71120000D03*
X130175000Y-106680000D03*
X89535000Y-101600000D03*
X89535000Y-76200000D03*
D14*
X88265000Y-106680000D03*
X90805000Y-106680000D03*
X93345000Y-106680000D03*
X95885000Y-106680000D03*
X98425000Y-106680000D03*
X100965000Y-106680000D03*
X103505000Y-106680000D03*
X106045000Y-106680000D03*
X108585000Y-106680000D03*
X111125000Y-106680000D03*
X113665000Y-106680000D03*
X116205000Y-106680000D03*
X118745000Y-106680000D03*
X121285000Y-106680000D03*
X123825000Y-106680000D03*
X126365000Y-106680000D03*
X126365000Y-71120000D03*
X123825000Y-71120000D03*
X121285000Y-71120000D03*
X118745000Y-71120000D03*
X116205000Y-71120000D03*
X113665000Y-71120000D03*
X111125000Y-71120000D03*
X108585000Y-71120000D03*
X106045000Y-71120000D03*
X103505000Y-71120000D03*
X100965000Y-71120000D03*
X98425000Y-71120000D03*
X95885000Y-71120000D03*
D15*
X88265000Y-71120000D03*
D14*
X93345000Y-71120000D03*
X90805000Y-71120000D03*
D16*
X113665000Y-94234000D03*
X113665000Y-91186000D03*
X88900000Y-91186000D03*
X88900000Y-94234000D03*
D17*
X109220000Y-90610000D03*
X104140000Y-90610000D03*
X104140000Y-94810000D03*
X109220000Y-94810000D03*
D18*
X93520000Y-90960000D03*
X93520000Y-91460000D03*
X93520000Y-91960000D03*
X93520000Y-92460000D03*
X93520000Y-92960000D03*
X93520000Y-93460000D03*
X93520000Y-93960000D03*
X93520000Y-94460000D03*
X99520000Y-94460000D03*
X99520000Y-93960000D03*
X99520000Y-93460000D03*
X99520000Y-92960000D03*
X99520000Y-92460000D03*
X99520000Y-91960000D03*
X99520000Y-91460000D03*
X99520000Y-90960000D03*
D19*
X94770000Y-95710000D03*
X95270000Y-95710000D03*
X95770000Y-95710000D03*
X96270000Y-95710000D03*
X96770000Y-95710000D03*
X97270000Y-95710000D03*
X97770000Y-95710000D03*
X98270000Y-95710000D03*
X98270000Y-89710000D03*
X97770000Y-89710000D03*
X97270000Y-89710000D03*
X96770000Y-89710000D03*
X96270000Y-89710000D03*
X95770000Y-89710000D03*
X95270000Y-89710000D03*
X94770000Y-89710000D03*
D20*
X96520000Y-92710000D03*
D21*
X121031000Y-92710000D03*
X124079000Y-92710000D03*
D16*
X102870000Y-83566000D03*
X102870000Y-86614000D03*
D22*
X144145000Y-80895000D03*
D23*
X143080000Y-84695000D03*
X145210000Y-84695000D03*
D24*
X153212800Y-88900000D03*
D25*
X149707600Y-88900000D03*
D26*
X144221200Y-88900000D03*
D27*
X151206200Y-84404200D03*
X151206200Y-93395800D03*
D28*
X132715000Y-80645000D03*
X127635000Y-80645000D03*
X122555000Y-80645000D03*
X137795000Y-80645000D03*
D29*
X113665000Y-80645000D03*
X102235000Y-80645000D03*
X106045000Y-80645000D03*
X109855000Y-80645000D03*
D30*
X107000040Y-83891120D03*
X107950000Y-83891120D03*
X108899960Y-83891120D03*
X108899960Y-86288880D03*
X107950000Y-86288880D03*
X107000040Y-86288880D03*
D31*
X97418600Y-98292300D03*
X101444000Y-90383700D03*
X95621100Y-97454800D03*
X105072800Y-86063700D03*
X106650000Y-94447600D03*
D32*
X107950000Y-82550000D02*
X106045000Y-80645000D01*
X107950000Y-83891100D02*
X107950000Y-82550000D01*
X123825000Y-90906600D02*
X124079000Y-91160600D01*
X123825000Y-88265000D02*
X123825000Y-90906600D01*
X90723400Y-91460000D02*
X90449400Y-91186000D01*
X93520000Y-91460000D02*
X90723400Y-91460000D01*
X88900000Y-91186000D02*
X90449400Y-91186000D01*
X104140000Y-94810000D02*
X102960600Y-94810000D01*
X102870000Y-83566000D02*
X102870000Y-82651600D01*
X90805000Y-71120000D02*
X89598500Y-71120000D01*
X89598500Y-69830600D02*
X89598500Y-71120000D01*
X89363500Y-69595600D02*
X89598500Y-69830600D01*
X87218500Y-69595600D02*
X89363500Y-69595600D01*
X87083500Y-69730600D02*
X87218500Y-69595600D01*
X87083500Y-73260000D02*
X87083500Y-69730600D01*
X87902500Y-74079000D02*
X87083500Y-73260000D01*
X94853800Y-74079000D02*
X87902500Y-74079000D01*
X100798000Y-80023200D02*
X94853800Y-74079000D01*
X104610300Y-79210300D02*
X106045000Y-80645000D01*
X101610900Y-79210300D02*
X104610300Y-79210300D01*
X100798000Y-80023200D02*
X101610900Y-79210300D01*
X124079000Y-92710000D02*
X124079000Y-91935300D01*
X124079000Y-91935300D02*
X124079000Y-91160600D01*
X115214800Y-94234400D02*
X115214400Y-94234000D01*
X121779900Y-94234400D02*
X115214800Y-94234400D01*
X124079000Y-91935300D02*
X121779900Y-94234400D01*
X113665000Y-94234000D02*
X115214400Y-94234000D01*
X115214400Y-82194400D02*
X115214400Y-94234000D01*
X113665000Y-80645000D02*
X115214400Y-82194400D01*
X101610600Y-93460000D02*
X102960600Y-94810000D01*
X99520000Y-93460000D02*
X101610600Y-93460000D01*
X93520000Y-91460000D02*
X94799400Y-91460000D01*
X94799400Y-89739400D02*
X94799400Y-91460000D01*
X94770000Y-89710000D02*
X94799400Y-89739400D01*
X96049400Y-92710000D02*
X94799400Y-91460000D01*
X96520000Y-92710000D02*
X96049400Y-92710000D01*
X99520000Y-93460000D02*
X98240600Y-93460000D01*
X96520000Y-92710000D02*
X98192600Y-92710000D01*
X98240600Y-92662000D02*
X98192600Y-92710000D01*
X98240600Y-92460000D02*
X98240600Y-92662000D01*
X98192600Y-93412000D02*
X98240600Y-93460000D01*
X98192600Y-92710000D02*
X98192600Y-93412000D01*
X99520000Y-92460000D02*
X98240600Y-92460000D01*
X94770000Y-89710000D02*
X94770000Y-88430600D01*
X101366600Y-81834000D02*
X94770000Y-88430600D01*
X100798000Y-81265400D02*
X101366600Y-81834000D01*
X100798000Y-80023200D02*
X100798000Y-81265400D01*
X102184200Y-82651600D02*
X102870000Y-82651600D01*
X101366600Y-81834000D02*
X102184200Y-82651600D01*
X95885000Y-106680000D02*
X95885000Y-105130600D01*
X96770000Y-89710000D02*
X96770000Y-88430600D01*
X96270000Y-95710000D02*
X96270000Y-96989400D01*
X99520000Y-90960000D02*
X100799400Y-90960000D01*
X100799400Y-91187500D02*
X100526900Y-91460000D01*
X100799400Y-90960000D02*
X100799400Y-91187500D01*
X99520000Y-91460000D02*
X100020000Y-91460000D01*
X99520000Y-91960000D02*
X100799400Y-91960000D01*
X100020000Y-91460000D02*
X100526900Y-91460000D01*
X100799400Y-91732500D02*
X100799400Y-91960000D01*
X100526900Y-91460000D02*
X100799400Y-91732500D01*
X101375700Y-90383700D02*
X100799400Y-90960000D01*
X101444000Y-90383700D02*
X101375700Y-90383700D01*
X93520000Y-92460000D02*
X93520000Y-91960000D01*
X88900000Y-94234000D02*
X88900000Y-95148400D01*
X93520000Y-92460000D02*
X92240600Y-92460000D01*
X95885000Y-100993200D02*
X95885000Y-105130600D01*
X90040200Y-95148400D02*
X95885000Y-100993200D01*
X92240600Y-92948000D02*
X90040200Y-95148400D01*
X92240600Y-92460000D02*
X92240600Y-92948000D01*
X90040200Y-95148400D02*
X88900000Y-95148400D01*
X96270000Y-97115400D02*
X96270000Y-96989400D01*
X97418600Y-98264000D02*
X96270000Y-97115400D01*
X97418600Y-98292300D02*
X97418600Y-98264000D01*
X111539600Y-90610000D02*
X112115600Y-91186000D01*
X109220000Y-90610000D02*
X111539600Y-90610000D01*
X113665000Y-91186000D02*
X112115600Y-91186000D01*
X136525000Y-88265000D02*
X136525000Y-90068400D01*
X109220000Y-94810000D02*
X110399400Y-94810000D01*
X107950000Y-87119500D02*
X107950000Y-88220000D01*
X102507100Y-89320600D02*
X101444000Y-90383700D01*
X106849400Y-89320600D02*
X102507100Y-89320600D01*
X107950000Y-88220000D02*
X106849400Y-89320600D01*
X109060600Y-89330600D02*
X109220000Y-89330600D01*
X107950000Y-88220000D02*
X109060600Y-89330600D01*
X109220000Y-90610000D02*
X109220000Y-89330600D01*
X112115600Y-94810000D02*
X110399400Y-94810000D01*
X112115600Y-94966800D02*
X112115600Y-94810000D01*
X112272200Y-95123400D02*
X112115600Y-94966800D01*
X131470000Y-95123400D02*
X112272200Y-95123400D01*
X136525000Y-90068400D02*
X131470000Y-95123400D01*
X112115600Y-94810000D02*
X112115600Y-91186000D01*
X107950000Y-86430100D02*
X107950000Y-87119500D01*
X107950000Y-86430100D02*
X107950000Y-86288900D01*
X103225600Y-85344000D02*
X107950000Y-85344000D01*
X102870000Y-85699600D02*
X103225600Y-85344000D01*
X96770000Y-88218200D02*
X96770000Y-88430600D01*
X98374200Y-86614000D02*
X96770000Y-88218200D01*
X102870000Y-86614000D02*
X98374200Y-86614000D01*
X102870000Y-86614000D02*
X102870000Y-85699600D01*
X107950000Y-86288900D02*
X107950000Y-85344000D01*
X100799400Y-92771200D02*
X102960600Y-90610000D01*
X100799400Y-92960000D02*
X100799400Y-92771200D01*
X104140000Y-90610000D02*
X102960600Y-90610000D01*
X99520000Y-92960000D02*
X100799400Y-92960000D01*
X95770000Y-97305900D02*
X95621100Y-97454800D01*
X95770000Y-95710000D02*
X95770000Y-97305900D01*
X105072800Y-86749200D02*
X105072800Y-86063700D01*
X104318700Y-87503300D02*
X105072800Y-86749200D01*
X98087200Y-87503300D02*
X104318700Y-87503300D01*
X97270000Y-88320500D02*
X98087200Y-87503300D01*
X97270000Y-89710000D02*
X97270000Y-88320500D01*
X121652800Y-96989400D02*
X97770000Y-96989400D01*
X123825000Y-99161600D02*
X121652800Y-96989400D01*
X123825000Y-100965000D02*
X123825000Y-99161600D01*
X97770000Y-95710000D02*
X97770000Y-96989400D01*
X141279100Y-89327500D02*
X131445000Y-99161600D01*
X141279100Y-84594300D02*
X141279100Y-89327500D01*
X142198400Y-83675000D02*
X141279100Y-84594300D01*
X146106600Y-83675000D02*
X142198400Y-83675000D01*
X146337400Y-83444200D02*
X146106600Y-83675000D01*
X146337400Y-78298400D02*
X146337400Y-83444200D01*
X145624800Y-77585800D02*
X146337400Y-78298400D01*
X130743200Y-77585800D02*
X145624800Y-77585800D01*
X125031500Y-71874100D02*
X130743200Y-77585800D01*
X125031500Y-71120000D02*
X125031500Y-71874100D01*
X123825000Y-71120000D02*
X125031500Y-71120000D01*
X131445000Y-100703400D02*
X131445000Y-99161600D01*
X96770000Y-95710000D02*
X96770000Y-96989400D01*
X131445000Y-100703400D02*
X131445000Y-100965000D01*
X131445000Y-100965000D02*
X131445000Y-102768400D01*
X120459500Y-102768400D02*
X131445000Y-102768400D01*
X115126400Y-97435300D02*
X120459500Y-102768400D01*
X97215900Y-97435300D02*
X115126400Y-97435300D01*
X96770000Y-96989400D02*
X97215900Y-97435300D01*
X99520000Y-94460000D02*
X100799400Y-94460000D01*
X123685600Y-96482200D02*
X126365000Y-99161600D01*
X102821600Y-96482200D02*
X123685600Y-96482200D01*
X100799400Y-94460000D02*
X102821600Y-96482200D01*
X126365000Y-100965000D02*
X126365000Y-99161600D01*
D33*
X121158000Y-90551000D02*
X121031000Y-90678000D01*
X121285000Y-90551000D02*
X121158000Y-90551000D01*
X121031000Y-92710000D02*
X121031000Y-90678000D01*
X121285000Y-88265000D02*
X121285000Y-90551000D01*
X144145000Y-80895000D02*
X141483000Y-80895000D01*
X121285000Y-88265000D02*
X121285000Y-85979000D01*
X88265000Y-71120000D02*
X88265000Y-73152000D01*
X121549400Y-78621300D02*
X120523400Y-79647300D01*
X139209300Y-78621300D02*
X121549400Y-78621300D01*
X141483000Y-80895000D02*
X139209300Y-78621300D01*
X120523400Y-85217400D02*
X120523400Y-79647300D01*
X121285000Y-85979000D02*
X120523400Y-85217400D01*
X114028100Y-73152000D02*
X88265000Y-73152000D01*
X120523400Y-79647300D02*
X114028100Y-73152000D01*
D32*
X106650000Y-94559700D02*
X106650000Y-94447600D01*
X105145300Y-96064400D02*
X106650000Y-94559700D01*
X102979100Y-96064400D02*
X105145300Y-96064400D01*
X100874700Y-93960000D02*
X102979100Y-96064400D01*
X99520000Y-93960000D02*
X100874700Y-93960000D01*
D33*
X128905000Y-81915000D02*
X128905000Y-88265000D01*
X127635000Y-80645000D02*
X128905000Y-81915000D01*
X132461000Y-85979000D02*
X131445000Y-85979000D01*
X137795000Y-80645000D02*
X132461000Y-85979000D01*
X131445000Y-88265000D02*
X131445000Y-85979000D01*
X126365000Y-84455000D02*
X126365000Y-88265000D01*
X122555000Y-80645000D02*
X126365000Y-84455000D01*
D32*
X104536200Y-82946200D02*
X102235000Y-80645000D01*
X107000000Y-82946200D02*
X104536200Y-82946200D01*
X107000000Y-83891100D02*
X107000000Y-82946200D01*
X109855000Y-81991200D02*
X109855000Y-80645000D01*
X108900000Y-82946200D02*
X109855000Y-81991200D01*
X108900000Y-83891100D02*
X108900000Y-82946200D01*
X93520000Y-96991000D02*
X93520000Y-94460000D01*
X100124500Y-103595500D02*
X93520000Y-96991000D01*
X138237900Y-103595500D02*
X100124500Y-103595500D01*
X139065000Y-102768400D02*
X138237900Y-103595500D01*
X139065000Y-100965000D02*
X139065000Y-102768400D01*
D34*
X95090100Y-96871100D02*
X95149400Y-96811800D01*
X95090100Y-96919900D02*
X95090100Y-96871100D01*
D32*
X95270000Y-96691200D02*
X95270000Y-95710000D01*
X95149400Y-96811800D02*
X95270000Y-96691200D01*
X136525000Y-100965000D02*
X136525000Y-102768400D01*
X94915300Y-97094700D02*
X95090100Y-96919900D01*
X94915300Y-97786000D02*
X94915300Y-97094700D01*
X100312100Y-103182800D02*
X94915300Y-97786000D01*
X136110600Y-103182800D02*
X100312100Y-103182800D01*
X136525000Y-102768400D02*
X136110600Y-103182800D01*
X97770000Y-89710000D02*
X97770000Y-88430600D01*
X107000000Y-86288900D02*
X107000000Y-87233800D01*
X105803200Y-88430600D02*
X97770000Y-88430600D01*
X107000000Y-87233800D02*
X105803200Y-88430600D01*
X96270000Y-88118700D02*
X96270000Y-89710000D01*
X99451500Y-84937200D02*
X96270000Y-88118700D01*
X108493200Y-84937200D02*
X99451500Y-84937200D01*
X108900000Y-85344000D02*
X108493200Y-84937200D01*
X108900000Y-86288900D02*
X108900000Y-85344000D01*
D33*
X143080000Y-84695000D02*
X144145000Y-84695000D01*
X144145000Y-84695000D02*
X145210000Y-84695000D01*
X144145000Y-88823800D02*
X144183000Y-88861900D01*
X144145000Y-84695000D02*
X144145000Y-88823800D01*
X144183000Y-88861900D02*
X144221000Y-88900000D01*
X144183100Y-88861900D02*
X144221200Y-88900000D01*
X144183000Y-88861900D02*
X144183100Y-88861900D01*
D35*
G36*
X155790900Y-109435900D02*
X86144100Y-109435900D01*
X86144100Y-106306248D01*
X87033100Y-106306248D01*
X87033100Y-107053752D01*
X87126873Y-107525180D01*
X87393915Y-107924837D01*
X87793572Y-108191879D01*
X88265000Y-108285652D01*
X88736428Y-108191879D01*
X89136085Y-107924837D01*
X89403127Y-107525180D01*
X89496900Y-107053752D01*
X89496900Y-106306248D01*
X89573100Y-106306248D01*
X89573100Y-107053752D01*
X89666873Y-107525180D01*
X89933915Y-107924837D01*
X90333572Y-108191879D01*
X90805000Y-108285652D01*
X91276428Y-108191879D01*
X91676085Y-107924837D01*
X91943127Y-107525180D01*
X92036900Y-107053752D01*
X92036900Y-106306248D01*
X92113100Y-106306248D01*
X92113100Y-107053752D01*
X92206873Y-107525180D01*
X92473915Y-107924837D01*
X92873572Y-108191879D01*
X93345000Y-108285652D01*
X93816428Y-108191879D01*
X94216085Y-107924837D01*
X94483127Y-107525180D01*
X94576900Y-107053752D01*
X94576900Y-106306248D01*
X94483127Y-105834820D01*
X94216085Y-105435163D01*
X93816428Y-105168121D01*
X93345000Y-105074348D01*
X92873572Y-105168121D01*
X92473915Y-105435163D01*
X92206873Y-105834820D01*
X92113100Y-106306248D01*
X92036900Y-106306248D01*
X91943127Y-105834820D01*
X91676085Y-105435163D01*
X91276428Y-105168121D01*
X90805000Y-105074348D01*
X90333572Y-105168121D01*
X89933915Y-105435163D01*
X89666873Y-105834820D01*
X89573100Y-106306248D01*
X89496900Y-106306248D01*
X89403127Y-105834820D01*
X89136085Y-105435163D01*
X88736428Y-105168121D01*
X88265000Y-105074348D01*
X87793572Y-105168121D01*
X87393915Y-105435163D01*
X87126873Y-105834820D01*
X87033100Y-106306248D01*
X86144100Y-106306248D01*
X86144100Y-102012477D01*
X87451840Y-102012477D01*
X87768259Y-102778270D01*
X88353648Y-103364682D01*
X89118888Y-103682437D01*
X89947477Y-103683160D01*
X90713270Y-103366741D01*
X91299682Y-102781352D01*
X91617437Y-102016112D01*
X91618160Y-101187523D01*
X91301741Y-100421730D01*
X90716352Y-99835318D01*
X89951112Y-99517563D01*
X89122523Y-99516840D01*
X88356730Y-99833259D01*
X87770318Y-100418648D01*
X87452563Y-101183888D01*
X87451840Y-102012477D01*
X86144100Y-102012477D01*
X86144100Y-69730600D01*
X86626300Y-69730600D01*
X86626300Y-73260000D01*
X86661102Y-73434963D01*
X86760211Y-73583289D01*
X87579211Y-74402289D01*
X87727537Y-74501398D01*
X87902500Y-74536200D01*
X88253609Y-74536200D01*
X87770318Y-75018648D01*
X87452563Y-75783888D01*
X87451840Y-76612477D01*
X87768259Y-77378270D01*
X88353648Y-77964682D01*
X89118888Y-78282437D01*
X89947477Y-78283160D01*
X90713270Y-77966741D01*
X91299682Y-77381352D01*
X91617437Y-76616112D01*
X91618160Y-75787523D01*
X91301741Y-75021730D01*
X90817058Y-74536200D01*
X94664422Y-74536200D01*
X100340800Y-80212578D01*
X100340800Y-81265400D01*
X100375602Y-81440363D01*
X100474711Y-81588689D01*
X100720022Y-81834000D01*
X94446711Y-88107311D01*
X94347602Y-88255637D01*
X94312800Y-88430600D01*
X94312800Y-89710000D01*
X94334229Y-89817732D01*
X94334229Y-90524229D01*
X92520000Y-90524229D01*
X92401073Y-90547885D01*
X92300252Y-90615252D01*
X92232885Y-90716073D01*
X92209229Y-90835000D01*
X92209229Y-91002800D01*
X90912779Y-91002800D01*
X90772689Y-90862711D01*
X90624363Y-90763602D01*
X90480771Y-90735040D01*
X90480771Y-90551000D01*
X90457115Y-90432073D01*
X90389748Y-90331252D01*
X90288927Y-90263885D01*
X90170000Y-90240229D01*
X87630000Y-90240229D01*
X87511073Y-90263885D01*
X87410252Y-90331252D01*
X87342885Y-90432073D01*
X87319229Y-90551000D01*
X87319229Y-91821000D01*
X87342885Y-91939927D01*
X87410252Y-92040748D01*
X87511073Y-92108115D01*
X87630000Y-92131771D01*
X90170000Y-92131771D01*
X90288927Y-92108115D01*
X90389748Y-92040748D01*
X90457115Y-91939927D01*
X90477929Y-91835286D01*
X90548437Y-91882398D01*
X90723400Y-91917200D01*
X92209229Y-91917200D01*
X92209229Y-92009040D01*
X92065637Y-92037602D01*
X91917311Y-92136711D01*
X91818202Y-92285037D01*
X91783400Y-92460000D01*
X91783400Y-92758621D01*
X90480771Y-94061251D01*
X90480771Y-93599000D01*
X90457115Y-93480073D01*
X90389748Y-93379252D01*
X90288927Y-93311885D01*
X90170000Y-93288229D01*
X87630000Y-93288229D01*
X87511073Y-93311885D01*
X87410252Y-93379252D01*
X87342885Y-93480073D01*
X87319229Y-93599000D01*
X87319229Y-94869000D01*
X87342885Y-94987927D01*
X87410252Y-95088748D01*
X87511073Y-95156115D01*
X87630000Y-95179771D01*
X88449040Y-95179771D01*
X88477602Y-95323363D01*
X88576711Y-95471689D01*
X88725037Y-95570798D01*
X88900000Y-95605600D01*
X89850822Y-95605600D01*
X95427800Y-101182579D01*
X95427800Y-105165291D01*
X95413572Y-105168121D01*
X95013915Y-105435163D01*
X94746873Y-105834820D01*
X94653100Y-106306248D01*
X94653100Y-107053752D01*
X94746873Y-107525180D01*
X95013915Y-107924837D01*
X95413572Y-108191879D01*
X95885000Y-108285652D01*
X96356428Y-108191879D01*
X96756085Y-107924837D01*
X97023127Y-107525180D01*
X97116900Y-107053752D01*
X97116900Y-106306248D01*
X97193100Y-106306248D01*
X97193100Y-107053752D01*
X97286873Y-107525180D01*
X97553915Y-107924837D01*
X97953572Y-108191879D01*
X98425000Y-108285652D01*
X98896428Y-108191879D01*
X99296085Y-107924837D01*
X99563127Y-107525180D01*
X99656900Y-107053752D01*
X99656900Y-106306248D01*
X99733100Y-106306248D01*
X99733100Y-107053752D01*
X99826873Y-107525180D01*
X100093915Y-107924837D01*
X100493572Y-108191879D01*
X100965000Y-108285652D01*
X101436428Y-108191879D01*
X101836085Y-107924837D01*
X102103127Y-107525180D01*
X102196900Y-107053752D01*
X102196900Y-106306248D01*
X102273100Y-106306248D01*
X102273100Y-107053752D01*
X102366873Y-107525180D01*
X102633915Y-107924837D01*
X103033572Y-108191879D01*
X103505000Y-108285652D01*
X103976428Y-108191879D01*
X104376085Y-107924837D01*
X104643127Y-107525180D01*
X104736900Y-107053752D01*
X104736900Y-106306248D01*
X104813100Y-106306248D01*
X104813100Y-107053752D01*
X104906873Y-107525180D01*
X105173915Y-107924837D01*
X105573572Y-108191879D01*
X106045000Y-108285652D01*
X106516428Y-108191879D01*
X106916085Y-107924837D01*
X107183127Y-107525180D01*
X107276900Y-107053752D01*
X107276900Y-106306248D01*
X107353100Y-106306248D01*
X107353100Y-107053752D01*
X107446873Y-107525180D01*
X107713915Y-107924837D01*
X108113572Y-108191879D01*
X108585000Y-108285652D01*
X109056428Y-108191879D01*
X109456085Y-107924837D01*
X109723127Y-107525180D01*
X109816900Y-107053752D01*
X109816900Y-106306248D01*
X109893100Y-106306248D01*
X109893100Y-107053752D01*
X109986873Y-107525180D01*
X110253915Y-107924837D01*
X110653572Y-108191879D01*
X111125000Y-108285652D01*
X111596428Y-108191879D01*
X111996085Y-107924837D01*
X112263127Y-107525180D01*
X112356900Y-107053752D01*
X112356900Y-106306248D01*
X112433100Y-106306248D01*
X112433100Y-107053752D01*
X112526873Y-107525180D01*
X112793915Y-107924837D01*
X113193572Y-108191879D01*
X113665000Y-108285652D01*
X114136428Y-108191879D01*
X114536085Y-107924837D01*
X114803127Y-107525180D01*
X114896900Y-107053752D01*
X114896900Y-106306248D01*
X114973100Y-106306248D01*
X114973100Y-107053752D01*
X115066873Y-107525180D01*
X115333915Y-107924837D01*
X115733572Y-108191879D01*
X116205000Y-108285652D01*
X116676428Y-108191879D01*
X117076085Y-107924837D01*
X117343127Y-107525180D01*
X117436900Y-107053752D01*
X117436900Y-106306248D01*
X117513100Y-106306248D01*
X117513100Y-107053752D01*
X117606873Y-107525180D01*
X117873915Y-107924837D01*
X118273572Y-108191879D01*
X118745000Y-108285652D01*
X119216428Y-108191879D01*
X119616085Y-107924837D01*
X119883127Y-107525180D01*
X119976900Y-107053752D01*
X119976900Y-106306248D01*
X120053100Y-106306248D01*
X120053100Y-107053752D01*
X120146873Y-107525180D01*
X120413915Y-107924837D01*
X120813572Y-108191879D01*
X121285000Y-108285652D01*
X121756428Y-108191879D01*
X122156085Y-107924837D01*
X122423127Y-107525180D01*
X122516900Y-107053752D01*
X122516900Y-106306248D01*
X122593100Y-106306248D01*
X122593100Y-107053752D01*
X122686873Y-107525180D01*
X122953915Y-107924837D01*
X123353572Y-108191879D01*
X123825000Y-108285652D01*
X124296428Y-108191879D01*
X124696085Y-107924837D01*
X124963127Y-107525180D01*
X125056900Y-107053752D01*
X125056900Y-106306248D01*
X125133100Y-106306248D01*
X125133100Y-107053752D01*
X125226873Y-107525180D01*
X125493915Y-107924837D01*
X125893572Y-108191879D01*
X126365000Y-108285652D01*
X126836428Y-108191879D01*
X127236085Y-107924837D01*
X127503127Y-107525180D01*
X127589197Y-107092477D01*
X128091840Y-107092477D01*
X128408259Y-107858270D01*
X128993648Y-108444682D01*
X129758888Y-108762437D01*
X130587477Y-108763160D01*
X131353270Y-108446741D01*
X131939682Y-107861352D01*
X132257437Y-107096112D01*
X132258160Y-106267523D01*
X131941741Y-105501730D01*
X131356352Y-104915318D01*
X130591112Y-104597563D01*
X129762523Y-104596840D01*
X128996730Y-104913259D01*
X128410318Y-105498648D01*
X128092563Y-106263888D01*
X128091840Y-107092477D01*
X127589197Y-107092477D01*
X127596900Y-107053752D01*
X127596900Y-106306248D01*
X127503127Y-105834820D01*
X127236085Y-105435163D01*
X126836428Y-105168121D01*
X126365000Y-105074348D01*
X125893572Y-105168121D01*
X125493915Y-105435163D01*
X125226873Y-105834820D01*
X125133100Y-106306248D01*
X125056900Y-106306248D01*
X124963127Y-105834820D01*
X124696085Y-105435163D01*
X124296428Y-105168121D01*
X123825000Y-105074348D01*
X123353572Y-105168121D01*
X122953915Y-105435163D01*
X122686873Y-105834820D01*
X122593100Y-106306248D01*
X122516900Y-106306248D01*
X122423127Y-105834820D01*
X122156085Y-105435163D01*
X121756428Y-105168121D01*
X121285000Y-105074348D01*
X120813572Y-105168121D01*
X120413915Y-105435163D01*
X120146873Y-105834820D01*
X120053100Y-106306248D01*
X119976900Y-106306248D01*
X119883127Y-105834820D01*
X119616085Y-105435163D01*
X119216428Y-105168121D01*
X118745000Y-105074348D01*
X118273572Y-105168121D01*
X117873915Y-105435163D01*
X117606873Y-105834820D01*
X117513100Y-106306248D01*
X117436900Y-106306248D01*
X117343127Y-105834820D01*
X117076085Y-105435163D01*
X116676428Y-105168121D01*
X116205000Y-105074348D01*
X115733572Y-105168121D01*
X115333915Y-105435163D01*
X115066873Y-105834820D01*
X114973100Y-106306248D01*
X114896900Y-106306248D01*
X114803127Y-105834820D01*
X114536085Y-105435163D01*
X114136428Y-105168121D01*
X113665000Y-105074348D01*
X113193572Y-105168121D01*
X112793915Y-105435163D01*
X112526873Y-105834820D01*
X112433100Y-106306248D01*
X112356900Y-106306248D01*
X112263127Y-105834820D01*
X111996085Y-105435163D01*
X111596428Y-105168121D01*
X111125000Y-105074348D01*
X110653572Y-105168121D01*
X110253915Y-105435163D01*
X109986873Y-105834820D01*
X109893100Y-106306248D01*
X109816900Y-106306248D01*
X109723127Y-105834820D01*
X109456085Y-105435163D01*
X109056428Y-105168121D01*
X108585000Y-105074348D01*
X108113572Y-105168121D01*
X107713915Y-105435163D01*
X107446873Y-105834820D01*
X107353100Y-106306248D01*
X107276900Y-106306248D01*
X107183127Y-105834820D01*
X106916085Y-105435163D01*
X106516428Y-105168121D01*
X106045000Y-105074348D01*
X105573572Y-105168121D01*
X105173915Y-105435163D01*
X104906873Y-105834820D01*
X104813100Y-106306248D01*
X104736900Y-106306248D01*
X104643127Y-105834820D01*
X104376085Y-105435163D01*
X103976428Y-105168121D01*
X103505000Y-105074348D01*
X103033572Y-105168121D01*
X102633915Y-105435163D01*
X102366873Y-105834820D01*
X102273100Y-106306248D01*
X102196900Y-106306248D01*
X102103127Y-105834820D01*
X101836085Y-105435163D01*
X101436428Y-105168121D01*
X100965000Y-105074348D01*
X100493572Y-105168121D01*
X100093915Y-105435163D01*
X99826873Y-105834820D01*
X99733100Y-106306248D01*
X99656900Y-106306248D01*
X99563127Y-105834820D01*
X99296085Y-105435163D01*
X98896428Y-105168121D01*
X98425000Y-105074348D01*
X97953572Y-105168121D01*
X97553915Y-105435163D01*
X97286873Y-105834820D01*
X97193100Y-106306248D01*
X97116900Y-106306248D01*
X97023127Y-105834820D01*
X96756085Y-105435163D01*
X96356428Y-105168121D01*
X96342200Y-105165291D01*
X96342200Y-100993200D01*
X96307398Y-100818237D01*
X96230666Y-100703400D01*
X96208289Y-100669910D01*
X90686778Y-95148400D01*
X92216023Y-93619156D01*
X92232885Y-93703927D01*
X92236943Y-93710000D01*
X92232885Y-93716073D01*
X92209229Y-93835000D01*
X92209229Y-94085000D01*
X92232885Y-94203927D01*
X92236943Y-94210000D01*
X92232885Y-94216073D01*
X92209229Y-94335000D01*
X92209229Y-94585000D01*
X92232885Y-94703927D01*
X92300252Y-94804748D01*
X92401073Y-94872115D01*
X92520000Y-94895771D01*
X93062800Y-94895771D01*
X93062800Y-96991000D01*
X93097602Y-97165963D01*
X93196711Y-97314289D01*
X99801210Y-103918789D01*
X99949537Y-104017898D01*
X100124500Y-104052700D01*
X138237900Y-104052700D01*
X138412863Y-104017898D01*
X138561189Y-103918789D01*
X139388289Y-103091689D01*
X139487398Y-102943363D01*
X139522200Y-102768400D01*
X139522200Y-102738685D01*
X139570448Y-102729088D01*
X139998947Y-102442775D01*
X140285260Y-102014276D01*
X140385800Y-101508828D01*
X140385800Y-100421172D01*
X140285260Y-99915724D01*
X139998947Y-99487225D01*
X139570448Y-99200912D01*
X139065000Y-99100372D01*
X138559552Y-99200912D01*
X138131053Y-99487225D01*
X137844740Y-99915724D01*
X137795000Y-100165784D01*
X137745260Y-99915724D01*
X137458947Y-99487225D01*
X137030448Y-99200912D01*
X136525000Y-99100372D01*
X136019552Y-99200912D01*
X135591053Y-99487225D01*
X135304740Y-99915724D01*
X135255000Y-100165784D01*
X135205260Y-99915724D01*
X134918947Y-99487225D01*
X134490448Y-99200912D01*
X133985000Y-99100372D01*
X133479552Y-99200912D01*
X133051053Y-99487225D01*
X132764740Y-99915724D01*
X132715000Y-100165784D01*
X132665260Y-99915724D01*
X132378947Y-99487225D01*
X132011484Y-99241695D01*
X137857379Y-93395800D01*
X148305667Y-93395800D01*
X148464211Y-94192853D01*
X148915705Y-94868562D01*
X149591414Y-95320056D01*
X150388467Y-95478600D01*
X152023933Y-95478600D01*
X152820986Y-95320056D01*
X153496695Y-94868562D01*
X153948189Y-94192853D01*
X154106733Y-93395800D01*
X153948189Y-92598747D01*
X153496695Y-91923038D01*
X152820986Y-91471544D01*
X152023933Y-91313000D01*
X150388467Y-91313000D01*
X149591414Y-91471544D01*
X148915705Y-91923038D01*
X148464211Y-92598747D01*
X148305667Y-93395800D01*
X137857379Y-93395800D01*
X141602390Y-89650789D01*
X141701498Y-89502463D01*
X141736300Y-89327500D01*
X141736300Y-84783678D01*
X141969229Y-84550749D01*
X141969229Y-85415000D01*
X141992885Y-85533927D01*
X142060252Y-85634748D01*
X142161073Y-85702115D01*
X142280000Y-85725771D01*
X143205200Y-85725771D01*
X143205200Y-86258693D01*
X142568833Y-86683900D01*
X142062278Y-87442012D01*
X141884400Y-88336267D01*
X141884400Y-89463733D01*
X142062278Y-90357988D01*
X142568833Y-91116100D01*
X143326945Y-91622655D01*
X144221200Y-91800533D01*
X145115455Y-91622655D01*
X145873567Y-91116100D01*
X146380122Y-90357988D01*
X146558000Y-89463733D01*
X146558000Y-88900000D01*
X147066043Y-88900000D01*
X147224587Y-89697053D01*
X147676081Y-90372762D01*
X148351790Y-90824256D01*
X149148843Y-90982800D01*
X150266357Y-90982800D01*
X151063410Y-90824256D01*
X151739119Y-90372762D01*
X152190613Y-89697053D01*
X152194495Y-89677538D01*
X152492463Y-89976026D01*
X152959073Y-90169779D01*
X153464310Y-90170220D01*
X153931258Y-89977282D01*
X154288826Y-89620337D01*
X154482579Y-89153727D01*
X154483020Y-88648490D01*
X154290082Y-88181542D01*
X153933137Y-87823974D01*
X153466527Y-87630221D01*
X152961290Y-87629780D01*
X152494342Y-87822718D01*
X152194425Y-88122112D01*
X152190613Y-88102947D01*
X151739119Y-87427238D01*
X151063410Y-86975744D01*
X150266357Y-86817200D01*
X149148843Y-86817200D01*
X148351790Y-86975744D01*
X147676081Y-87427238D01*
X147224587Y-88102947D01*
X147066043Y-88900000D01*
X146558000Y-88900000D01*
X146558000Y-88336267D01*
X146380122Y-87442012D01*
X145873567Y-86683900D01*
X145115455Y-86177345D01*
X145084800Y-86171247D01*
X145084800Y-85725771D01*
X146010000Y-85725771D01*
X146128927Y-85702115D01*
X146229748Y-85634748D01*
X146297115Y-85533927D01*
X146320771Y-85415000D01*
X146320771Y-84404200D01*
X148305667Y-84404200D01*
X148464211Y-85201253D01*
X148915705Y-85876962D01*
X149591414Y-86328456D01*
X150388467Y-86487000D01*
X152023933Y-86487000D01*
X152820986Y-86328456D01*
X153496695Y-85876962D01*
X153948189Y-85201253D01*
X154106733Y-84404200D01*
X153948189Y-83607147D01*
X153496695Y-82931438D01*
X152820986Y-82479944D01*
X152023933Y-82321400D01*
X150388467Y-82321400D01*
X149591414Y-82479944D01*
X148915705Y-82931438D01*
X148464211Y-83607147D01*
X148305667Y-84404200D01*
X146320771Y-84404200D01*
X146320771Y-84071200D01*
X146429889Y-83998289D01*
X146660689Y-83767490D01*
X146759798Y-83619163D01*
X146762188Y-83607147D01*
X146794600Y-83444200D01*
X146794600Y-78298400D01*
X146759798Y-78123437D01*
X146660690Y-77975111D01*
X145948089Y-77262511D01*
X145799763Y-77163402D01*
X145624800Y-77128600D01*
X130932579Y-77128600D01*
X126502316Y-72698338D01*
X126836428Y-72631879D01*
X127236085Y-72364837D01*
X127503127Y-71965180D01*
X127589197Y-71532477D01*
X128091840Y-71532477D01*
X128408259Y-72298270D01*
X128993648Y-72884682D01*
X129758888Y-73202437D01*
X130587477Y-73203160D01*
X131353270Y-72886741D01*
X131939682Y-72301352D01*
X132257437Y-71536112D01*
X132258160Y-70707523D01*
X131941741Y-69941730D01*
X131356352Y-69355318D01*
X130591112Y-69037563D01*
X129762523Y-69036840D01*
X128996730Y-69353259D01*
X128410318Y-69938648D01*
X128092563Y-70703888D01*
X128091840Y-71532477D01*
X127589197Y-71532477D01*
X127596900Y-71493752D01*
X127596900Y-70746248D01*
X127503127Y-70274820D01*
X127236085Y-69875163D01*
X126836428Y-69608121D01*
X126365000Y-69514348D01*
X125893572Y-69608121D01*
X125493915Y-69875163D01*
X125226873Y-70274820D01*
X125145200Y-70685416D01*
X125040664Y-70664623D01*
X124963127Y-70274820D01*
X124696085Y-69875163D01*
X124296428Y-69608121D01*
X123825000Y-69514348D01*
X123353572Y-69608121D01*
X122953915Y-69875163D01*
X122686873Y-70274820D01*
X122593100Y-70746248D01*
X122593100Y-71493752D01*
X122686873Y-71965180D01*
X122953915Y-72364837D01*
X123353572Y-72631879D01*
X123825000Y-72725652D01*
X124296428Y-72631879D01*
X124696085Y-72364837D01*
X124768012Y-72257190D01*
X130419911Y-77909090D01*
X130518719Y-77975111D01*
X130568237Y-78008198D01*
X130743200Y-78043000D01*
X141754895Y-78043000D01*
X141728206Y-78069689D01*
X141635400Y-78293743D01*
X141635400Y-80590200D01*
X141787800Y-80742600D01*
X143992600Y-80742600D01*
X143992600Y-80722600D01*
X144297400Y-80722600D01*
X144297400Y-80742600D01*
X144317400Y-80742600D01*
X144317400Y-81047400D01*
X144297400Y-81047400D01*
X144297400Y-81067400D01*
X143992600Y-81067400D01*
X143992600Y-81047400D01*
X141787800Y-81047400D01*
X141635400Y-81199800D01*
X141635400Y-83496257D01*
X141663273Y-83563548D01*
X140955811Y-84271011D01*
X140856702Y-84419337D01*
X140821900Y-84594300D01*
X140821900Y-89138121D01*
X131121711Y-98838311D01*
X131022602Y-98986637D01*
X130987800Y-99161600D01*
X130987800Y-99191315D01*
X130939552Y-99200912D01*
X130511053Y-99487225D01*
X130224740Y-99915724D01*
X130175000Y-100165784D01*
X130125260Y-99915724D01*
X129838947Y-99487225D01*
X129410448Y-99200912D01*
X128905000Y-99100372D01*
X128399552Y-99200912D01*
X127971053Y-99487225D01*
X127684740Y-99915724D01*
X127635000Y-100165784D01*
X127585260Y-99915724D01*
X127298947Y-99487225D01*
X126870448Y-99200912D01*
X126822200Y-99191315D01*
X126822200Y-99161600D01*
X126787398Y-98986637D01*
X126688289Y-98838311D01*
X124008889Y-96158911D01*
X123860563Y-96059802D01*
X123685600Y-96025000D01*
X110342921Y-96025000D01*
X110407115Y-95928927D01*
X110430771Y-95810000D01*
X110430771Y-95267200D01*
X111777017Y-95267200D01*
X111792311Y-95290089D01*
X111948911Y-95446689D01*
X112097237Y-95545798D01*
X112272200Y-95580600D01*
X131470000Y-95580600D01*
X131644963Y-95545798D01*
X131793289Y-95446689D01*
X136848290Y-90391689D01*
X136947398Y-90243363D01*
X136982200Y-90068400D01*
X136982200Y-90038685D01*
X137030448Y-90029088D01*
X137458947Y-89742775D01*
X137745260Y-89314276D01*
X137795000Y-89064216D01*
X137844740Y-89314276D01*
X138131053Y-89742775D01*
X138559552Y-90029088D01*
X139065000Y-90129628D01*
X139570448Y-90029088D01*
X139998947Y-89742775D01*
X140285260Y-89314276D01*
X140385800Y-88808828D01*
X140385800Y-87721172D01*
X140285260Y-87215724D01*
X139998947Y-86787225D01*
X139570448Y-86500912D01*
X139065000Y-86400372D01*
X138559552Y-86500912D01*
X138131053Y-86787225D01*
X137844740Y-87215724D01*
X137795000Y-87465784D01*
X137745260Y-87215724D01*
X137458947Y-86787225D01*
X137030448Y-86500912D01*
X136525000Y-86400372D01*
X136019552Y-86500912D01*
X135591053Y-86787225D01*
X135304740Y-87215724D01*
X135255000Y-87465784D01*
X135205260Y-87215724D01*
X134918947Y-86787225D01*
X134490448Y-86500912D01*
X133985000Y-86400372D01*
X133479552Y-86500912D01*
X133051053Y-86787225D01*
X132764740Y-87215724D01*
X132715000Y-87465784D01*
X132665260Y-87215724D01*
X132466175Y-86917771D01*
X132820646Y-86847262D01*
X133125539Y-86643539D01*
X137549492Y-82219586D01*
X138106873Y-82220073D01*
X138685887Y-81980829D01*
X139129272Y-81538217D01*
X139369526Y-80959621D01*
X139370073Y-80333127D01*
X139130829Y-79754113D01*
X138688217Y-79310728D01*
X138109621Y-79070474D01*
X137483127Y-79069927D01*
X136904113Y-79309171D01*
X136460728Y-79751783D01*
X136220474Y-80330379D01*
X136219985Y-80890937D01*
X132071722Y-85039200D01*
X131445000Y-85039200D01*
X131085354Y-85110738D01*
X130780461Y-85314461D01*
X130576738Y-85619354D01*
X130505200Y-85979000D01*
X130505200Y-86795985D01*
X130224740Y-87215724D01*
X130175000Y-87465784D01*
X130125260Y-87215724D01*
X129844800Y-86795985D01*
X129844800Y-81915000D01*
X129773262Y-81555354D01*
X129569539Y-81250461D01*
X129275951Y-80956873D01*
X131139927Y-80956873D01*
X131379171Y-81535887D01*
X131821783Y-81979272D01*
X132400379Y-82219526D01*
X133026873Y-82220073D01*
X133605887Y-81980829D01*
X134049272Y-81538217D01*
X134289526Y-80959621D01*
X134290073Y-80333127D01*
X134050829Y-79754113D01*
X133608217Y-79310728D01*
X133029621Y-79070474D01*
X132403127Y-79069927D01*
X131824113Y-79309171D01*
X131380728Y-79751783D01*
X131140474Y-80330379D01*
X131139927Y-80956873D01*
X129275951Y-80956873D01*
X129209586Y-80890508D01*
X129210073Y-80333127D01*
X128970829Y-79754113D01*
X128528217Y-79310728D01*
X127949621Y-79070474D01*
X127323127Y-79069927D01*
X126744113Y-79309171D01*
X126300728Y-79751783D01*
X126060474Y-80330379D01*
X126059927Y-80956873D01*
X126299171Y-81535887D01*
X126741783Y-81979272D01*
X127320379Y-82219526D01*
X127880937Y-82220015D01*
X127965200Y-82304278D01*
X127965200Y-86795985D01*
X127684740Y-87215724D01*
X127635000Y-87465784D01*
X127585260Y-87215724D01*
X127304800Y-86795985D01*
X127304800Y-84455000D01*
X127233262Y-84095354D01*
X127029539Y-83790461D01*
X124129586Y-80890508D01*
X124130073Y-80333127D01*
X123890829Y-79754113D01*
X123448217Y-79310728D01*
X122869621Y-79070474D01*
X122243127Y-79069927D01*
X121664113Y-79309171D01*
X121220728Y-79751783D01*
X120980474Y-80330379D01*
X120979927Y-80956873D01*
X121219171Y-81535887D01*
X121661783Y-81979272D01*
X122240379Y-82219526D01*
X122800937Y-82220015D01*
X125425200Y-84844278D01*
X125425200Y-86795985D01*
X125144740Y-87215724D01*
X125095000Y-87465784D01*
X125045260Y-87215724D01*
X124758947Y-86787225D01*
X124330448Y-86500912D01*
X123825000Y-86400372D01*
X123319552Y-86500912D01*
X122891053Y-86787225D01*
X122736030Y-87019234D01*
X122728538Y-86994111D01*
X122326710Y-86499764D01*
X121766291Y-86196820D01*
X121688703Y-86182326D01*
X121437400Y-86291704D01*
X121437400Y-88112600D01*
X121457400Y-88112600D01*
X121457400Y-88417400D01*
X121437400Y-88417400D01*
X121437400Y-90238296D01*
X121688703Y-90347674D01*
X121766291Y-90333180D01*
X122326710Y-90030236D01*
X122728538Y-89535889D01*
X122736030Y-89510766D01*
X122891053Y-89742775D01*
X123319552Y-90029088D01*
X123367800Y-90038685D01*
X123367800Y-90906600D01*
X123402602Y-91081563D01*
X123435572Y-91130905D01*
X123325073Y-91152885D01*
X123224252Y-91220252D01*
X123156885Y-91321073D01*
X123133229Y-91440000D01*
X123133229Y-92234492D01*
X122275600Y-93092122D01*
X122275600Y-93014800D01*
X122123200Y-92862400D01*
X121183400Y-92862400D01*
X121183400Y-92882400D01*
X120878600Y-92882400D01*
X120878600Y-92862400D01*
X119938800Y-92862400D01*
X119786400Y-93014800D01*
X119786400Y-93777200D01*
X115671600Y-93777200D01*
X115671600Y-91318743D01*
X119786400Y-91318743D01*
X119786400Y-92405200D01*
X119938800Y-92557600D01*
X120878600Y-92557600D01*
X120878600Y-90982800D01*
X121183400Y-90982800D01*
X121183400Y-92557600D01*
X122123200Y-92557600D01*
X122275600Y-92405200D01*
X122275600Y-91318743D01*
X122182794Y-91094689D01*
X122011311Y-90923206D01*
X121787257Y-90830400D01*
X121335800Y-90830400D01*
X121183400Y-90982800D01*
X120878600Y-90982800D01*
X120726200Y-90830400D01*
X120274743Y-90830400D01*
X120050689Y-90923206D01*
X119879206Y-91094689D01*
X119786400Y-91318743D01*
X115671600Y-91318743D01*
X115671600Y-88417400D01*
X119659400Y-88417400D01*
X119659400Y-88925400D01*
X119841462Y-89535889D01*
X120243290Y-90030236D01*
X120803709Y-90333180D01*
X120881297Y-90347674D01*
X121132600Y-90238296D01*
X121132600Y-88417400D01*
X119659400Y-88417400D01*
X115671600Y-88417400D01*
X115671600Y-87604600D01*
X119659400Y-87604600D01*
X119659400Y-88112600D01*
X121132600Y-88112600D01*
X121132600Y-86291704D01*
X120881297Y-86182326D01*
X120803709Y-86196820D01*
X120243290Y-86499764D01*
X119841462Y-86994111D01*
X119659400Y-87604600D01*
X115671600Y-87604600D01*
X115671600Y-82194400D01*
X115636798Y-82019437D01*
X115629799Y-82008963D01*
X115537689Y-81871110D01*
X114983065Y-81316486D01*
X115139543Y-80939643D01*
X115140055Y-80352931D01*
X114916004Y-79810684D01*
X114501498Y-79395454D01*
X113959643Y-79170457D01*
X113372931Y-79169945D01*
X112830684Y-79393996D01*
X112415454Y-79808502D01*
X112190457Y-80350357D01*
X112189945Y-80937069D01*
X112413996Y-81479316D01*
X112828502Y-81894546D01*
X113370357Y-82119543D01*
X113957069Y-82120055D01*
X114336641Y-81963220D01*
X114757200Y-82383779D01*
X114757200Y-90240229D01*
X112395000Y-90240229D01*
X112276073Y-90263885D01*
X112175252Y-90331252D01*
X112107885Y-90432073D01*
X112091355Y-90515177D01*
X111862889Y-90286711D01*
X111714563Y-90187602D01*
X111539600Y-90152800D01*
X110430771Y-90152800D01*
X110430771Y-89610000D01*
X110407115Y-89491073D01*
X110339748Y-89390252D01*
X110238927Y-89322885D01*
X110120000Y-89299229D01*
X109670960Y-89299229D01*
X109642398Y-89155637D01*
X109543289Y-89007311D01*
X109394963Y-88908202D01*
X109257423Y-88880844D01*
X108407200Y-88030622D01*
X108407200Y-87202137D01*
X108424980Y-87190257D01*
X108501633Y-87241475D01*
X108620560Y-87265131D01*
X109179360Y-87265131D01*
X109298287Y-87241475D01*
X109399108Y-87174108D01*
X109466475Y-87073287D01*
X109490131Y-86954360D01*
X109490131Y-85623400D01*
X109466475Y-85504473D01*
X109399108Y-85403652D01*
X109357200Y-85375650D01*
X109357200Y-85344000D01*
X109322398Y-85169037D01*
X109223289Y-85020711D01*
X109069949Y-84867371D01*
X109179360Y-84867371D01*
X109298287Y-84843715D01*
X109399108Y-84776348D01*
X109466475Y-84675527D01*
X109490131Y-84556600D01*
X109490131Y-83225640D01*
X109466475Y-83106713D01*
X109434267Y-83058511D01*
X110178289Y-82314489D01*
X110277398Y-82166163D01*
X110299061Y-82057253D01*
X110689316Y-81896004D01*
X111104546Y-81481498D01*
X111329543Y-80939643D01*
X111330055Y-80352931D01*
X111106004Y-79810684D01*
X110691498Y-79395454D01*
X110149643Y-79170457D01*
X109562931Y-79169945D01*
X109020684Y-79393996D01*
X108605454Y-79808502D01*
X108380457Y-80350357D01*
X108379945Y-80937069D01*
X108603996Y-81479316D01*
X109018502Y-81894546D01*
X109220994Y-81978628D01*
X108576711Y-82622911D01*
X108477602Y-82771237D01*
X108442800Y-82946200D01*
X108442800Y-82977836D01*
X108424980Y-82989743D01*
X108407200Y-82977863D01*
X108407200Y-82550000D01*
X108372398Y-82375037D01*
X108273289Y-82226711D01*
X107363065Y-81316487D01*
X107519543Y-80939643D01*
X107520055Y-80352931D01*
X107296004Y-79810684D01*
X106881498Y-79395454D01*
X106339643Y-79170457D01*
X105752931Y-79169945D01*
X105373359Y-79326781D01*
X104933589Y-78887011D01*
X104785263Y-78787902D01*
X104610300Y-78753100D01*
X101610900Y-78753100D01*
X101435937Y-78787902D01*
X101287611Y-78887011D01*
X100798000Y-79376622D01*
X95177089Y-73755711D01*
X95028763Y-73656602D01*
X94853800Y-73621800D01*
X88091878Y-73621800D01*
X87540700Y-73070622D01*
X87540700Y-72999600D01*
X87960200Y-72999600D01*
X88112600Y-72847200D01*
X88112600Y-71272400D01*
X88092600Y-71272400D01*
X88092600Y-70967600D01*
X88112600Y-70967600D01*
X88112600Y-70947600D01*
X88417400Y-70947600D01*
X88417400Y-70967600D01*
X88437400Y-70967600D01*
X88437400Y-71272400D01*
X88417400Y-71272400D01*
X88417400Y-72847200D01*
X88569800Y-72999600D01*
X89313357Y-72999600D01*
X89537411Y-72906794D01*
X89708894Y-72735311D01*
X89801700Y-72511257D01*
X89801700Y-72166963D01*
X89933915Y-72364837D01*
X90333572Y-72631879D01*
X90805000Y-72725652D01*
X91276428Y-72631879D01*
X91676085Y-72364837D01*
X91943127Y-71965180D01*
X92036900Y-71493752D01*
X92036900Y-70746248D01*
X92113100Y-70746248D01*
X92113100Y-71493752D01*
X92206873Y-71965180D01*
X92473915Y-72364837D01*
X92873572Y-72631879D01*
X93345000Y-72725652D01*
X93816428Y-72631879D01*
X94216085Y-72364837D01*
X94483127Y-71965180D01*
X94576900Y-71493752D01*
X94576900Y-70746248D01*
X94653100Y-70746248D01*
X94653100Y-71493752D01*
X94746873Y-71965180D01*
X95013915Y-72364837D01*
X95413572Y-72631879D01*
X95885000Y-72725652D01*
X96356428Y-72631879D01*
X96756085Y-72364837D01*
X97023127Y-71965180D01*
X97116900Y-71493752D01*
X97116900Y-70746248D01*
X97193100Y-70746248D01*
X97193100Y-71493752D01*
X97286873Y-71965180D01*
X97553915Y-72364837D01*
X97953572Y-72631879D01*
X98425000Y-72725652D01*
X98896428Y-72631879D01*
X99296085Y-72364837D01*
X99563127Y-71965180D01*
X99656900Y-71493752D01*
X99656900Y-70746248D01*
X99733100Y-70746248D01*
X99733100Y-71493752D01*
X99826873Y-71965180D01*
X100093915Y-72364837D01*
X100493572Y-72631879D01*
X100965000Y-72725652D01*
X101436428Y-72631879D01*
X101836085Y-72364837D01*
X102103127Y-71965180D01*
X102196900Y-71493752D01*
X102196900Y-70746248D01*
X102273100Y-70746248D01*
X102273100Y-71493752D01*
X102366873Y-71965180D01*
X102633915Y-72364837D01*
X103033572Y-72631879D01*
X103505000Y-72725652D01*
X103976428Y-72631879D01*
X104376085Y-72364837D01*
X104643127Y-71965180D01*
X104736900Y-71493752D01*
X104736900Y-70746248D01*
X104813100Y-70746248D01*
X104813100Y-71493752D01*
X104906873Y-71965180D01*
X105173915Y-72364837D01*
X105573572Y-72631879D01*
X106045000Y-72725652D01*
X106516428Y-72631879D01*
X106916085Y-72364837D01*
X107183127Y-71965180D01*
X107276900Y-71493752D01*
X107276900Y-70746248D01*
X107353100Y-70746248D01*
X107353100Y-71493752D01*
X107446873Y-71965180D01*
X107713915Y-72364837D01*
X108113572Y-72631879D01*
X108585000Y-72725652D01*
X109056428Y-72631879D01*
X109456085Y-72364837D01*
X109723127Y-71965180D01*
X109816900Y-71493752D01*
X109816900Y-70746248D01*
X109893100Y-70746248D01*
X109893100Y-71493752D01*
X109986873Y-71965180D01*
X110253915Y-72364837D01*
X110653572Y-72631879D01*
X111125000Y-72725652D01*
X111596428Y-72631879D01*
X111996085Y-72364837D01*
X112263127Y-71965180D01*
X112356900Y-71493752D01*
X112356900Y-70746248D01*
X112433100Y-70746248D01*
X112433100Y-71493752D01*
X112526873Y-71965180D01*
X112793915Y-72364837D01*
X113193572Y-72631879D01*
X113665000Y-72725652D01*
X114136428Y-72631879D01*
X114536085Y-72364837D01*
X114803127Y-71965180D01*
X114896900Y-71493752D01*
X114896900Y-70746248D01*
X114973100Y-70746248D01*
X114973100Y-71493752D01*
X115066873Y-71965180D01*
X115333915Y-72364837D01*
X115733572Y-72631879D01*
X116205000Y-72725652D01*
X116676428Y-72631879D01*
X117076085Y-72364837D01*
X117343127Y-71965180D01*
X117436900Y-71493752D01*
X117436900Y-70746248D01*
X117513100Y-70746248D01*
X117513100Y-71493752D01*
X117606873Y-71965180D01*
X117873915Y-72364837D01*
X118273572Y-72631879D01*
X118745000Y-72725652D01*
X119216428Y-72631879D01*
X119616085Y-72364837D01*
X119883127Y-71965180D01*
X119976900Y-71493752D01*
X119976900Y-70746248D01*
X120053100Y-70746248D01*
X120053100Y-71493752D01*
X120146873Y-71965180D01*
X120413915Y-72364837D01*
X120813572Y-72631879D01*
X121285000Y-72725652D01*
X121756428Y-72631879D01*
X122156085Y-72364837D01*
X122423127Y-71965180D01*
X122516900Y-71493752D01*
X122516900Y-70746248D01*
X122423127Y-70274820D01*
X122156085Y-69875163D01*
X121756428Y-69608121D01*
X121285000Y-69514348D01*
X120813572Y-69608121D01*
X120413915Y-69875163D01*
X120146873Y-70274820D01*
X120053100Y-70746248D01*
X119976900Y-70746248D01*
X119883127Y-70274820D01*
X119616085Y-69875163D01*
X119216428Y-69608121D01*
X118745000Y-69514348D01*
X118273572Y-69608121D01*
X117873915Y-69875163D01*
X117606873Y-70274820D01*
X117513100Y-70746248D01*
X117436900Y-70746248D01*
X117343127Y-70274820D01*
X117076085Y-69875163D01*
X116676428Y-69608121D01*
X116205000Y-69514348D01*
X115733572Y-69608121D01*
X115333915Y-69875163D01*
X115066873Y-70274820D01*
X114973100Y-70746248D01*
X114896900Y-70746248D01*
X114803127Y-70274820D01*
X114536085Y-69875163D01*
X114136428Y-69608121D01*
X113665000Y-69514348D01*
X113193572Y-69608121D01*
X112793915Y-69875163D01*
X112526873Y-70274820D01*
X112433100Y-70746248D01*
X112356900Y-70746248D01*
X112263127Y-70274820D01*
X111996085Y-69875163D01*
X111596428Y-69608121D01*
X111125000Y-69514348D01*
X110653572Y-69608121D01*
X110253915Y-69875163D01*
X109986873Y-70274820D01*
X109893100Y-70746248D01*
X109816900Y-70746248D01*
X109723127Y-70274820D01*
X109456085Y-69875163D01*
X109056428Y-69608121D01*
X108585000Y-69514348D01*
X108113572Y-69608121D01*
X107713915Y-69875163D01*
X107446873Y-70274820D01*
X107353100Y-70746248D01*
X107276900Y-70746248D01*
X107183127Y-70274820D01*
X106916085Y-69875163D01*
X106516428Y-69608121D01*
X106045000Y-69514348D01*
X105573572Y-69608121D01*
X105173915Y-69875163D01*
X104906873Y-70274820D01*
X104813100Y-70746248D01*
X104736900Y-70746248D01*
X104643127Y-70274820D01*
X104376085Y-69875163D01*
X103976428Y-69608121D01*
X103505000Y-69514348D01*
X103033572Y-69608121D01*
X102633915Y-69875163D01*
X102366873Y-70274820D01*
X102273100Y-70746248D01*
X102196900Y-70746248D01*
X102103127Y-70274820D01*
X101836085Y-69875163D01*
X101436428Y-69608121D01*
X100965000Y-69514348D01*
X100493572Y-69608121D01*
X100093915Y-69875163D01*
X99826873Y-70274820D01*
X99733100Y-70746248D01*
X99656900Y-70746248D01*
X99563127Y-70274820D01*
X99296085Y-69875163D01*
X98896428Y-69608121D01*
X98425000Y-69514348D01*
X97953572Y-69608121D01*
X97553915Y-69875163D01*
X97286873Y-70274820D01*
X97193100Y-70746248D01*
X97116900Y-70746248D01*
X97023127Y-70274820D01*
X96756085Y-69875163D01*
X96356428Y-69608121D01*
X95885000Y-69514348D01*
X95413572Y-69608121D01*
X95013915Y-69875163D01*
X94746873Y-70274820D01*
X94653100Y-70746248D01*
X94576900Y-70746248D01*
X94483127Y-70274820D01*
X94216085Y-69875163D01*
X93816428Y-69608121D01*
X93345000Y-69514348D01*
X92873572Y-69608121D01*
X92473915Y-69875163D01*
X92206873Y-70274820D01*
X92113100Y-70746248D01*
X92036900Y-70746248D01*
X91943127Y-70274820D01*
X91676085Y-69875163D01*
X91276428Y-69608121D01*
X90805000Y-69514348D01*
X90333572Y-69608121D01*
X90049237Y-69798107D01*
X90020898Y-69655637D01*
X89921789Y-69507311D01*
X89686789Y-69272311D01*
X89538463Y-69173202D01*
X89363500Y-69138400D01*
X87218500Y-69138400D01*
X87043537Y-69173202D01*
X86895211Y-69272311D01*
X86760211Y-69407311D01*
X86661102Y-69555637D01*
X86626300Y-69730600D01*
X86144100Y-69730600D01*
X86144100Y-68364100D01*
X155790900Y-68364100D01*
X155790900Y-109435900D01*
X155790900Y-109435900D01*
G37*
X155790900Y-109435900D02*
X86144100Y-109435900D01*
X86144100Y-106306248D01*
X87033100Y-106306248D01*
X87033100Y-107053752D01*
X87126873Y-107525180D01*
X87393915Y-107924837D01*
X87793572Y-108191879D01*
X88265000Y-108285652D01*
X88736428Y-108191879D01*
X89136085Y-107924837D01*
X89403127Y-107525180D01*
X89496900Y-107053752D01*
X89496900Y-106306248D01*
X89573100Y-106306248D01*
X89573100Y-107053752D01*
X89666873Y-107525180D01*
X89933915Y-107924837D01*
X90333572Y-108191879D01*
X90805000Y-108285652D01*
X91276428Y-108191879D01*
X91676085Y-107924837D01*
X91943127Y-107525180D01*
X92036900Y-107053752D01*
X92036900Y-106306248D01*
X92113100Y-106306248D01*
X92113100Y-107053752D01*
X92206873Y-107525180D01*
X92473915Y-107924837D01*
X92873572Y-108191879D01*
X93345000Y-108285652D01*
X93816428Y-108191879D01*
X94216085Y-107924837D01*
X94483127Y-107525180D01*
X94576900Y-107053752D01*
X94576900Y-106306248D01*
X94483127Y-105834820D01*
X94216085Y-105435163D01*
X93816428Y-105168121D01*
X93345000Y-105074348D01*
X92873572Y-105168121D01*
X92473915Y-105435163D01*
X92206873Y-105834820D01*
X92113100Y-106306248D01*
X92036900Y-106306248D01*
X91943127Y-105834820D01*
X91676085Y-105435163D01*
X91276428Y-105168121D01*
X90805000Y-105074348D01*
X90333572Y-105168121D01*
X89933915Y-105435163D01*
X89666873Y-105834820D01*
X89573100Y-106306248D01*
X89496900Y-106306248D01*
X89403127Y-105834820D01*
X89136085Y-105435163D01*
X88736428Y-105168121D01*
X88265000Y-105074348D01*
X87793572Y-105168121D01*
X87393915Y-105435163D01*
X87126873Y-105834820D01*
X87033100Y-106306248D01*
X86144100Y-106306248D01*
X86144100Y-102012477D01*
X87451840Y-102012477D01*
X87768259Y-102778270D01*
X88353648Y-103364682D01*
X89118888Y-103682437D01*
X89947477Y-103683160D01*
X90713270Y-103366741D01*
X91299682Y-102781352D01*
X91617437Y-102016112D01*
X91618160Y-101187523D01*
X91301741Y-100421730D01*
X90716352Y-99835318D01*
X89951112Y-99517563D01*
X89122523Y-99516840D01*
X88356730Y-99833259D01*
X87770318Y-100418648D01*
X87452563Y-101183888D01*
X87451840Y-102012477D01*
X86144100Y-102012477D01*
X86144100Y-69730600D01*
X86626300Y-69730600D01*
X86626300Y-73260000D01*
X86661102Y-73434963D01*
X86760211Y-73583289D01*
X87579211Y-74402289D01*
X87727537Y-74501398D01*
X87902500Y-74536200D01*
X88253609Y-74536200D01*
X87770318Y-75018648D01*
X87452563Y-75783888D01*
X87451840Y-76612477D01*
X87768259Y-77378270D01*
X88353648Y-77964682D01*
X89118888Y-78282437D01*
X89947477Y-78283160D01*
X90713270Y-77966741D01*
X91299682Y-77381352D01*
X91617437Y-76616112D01*
X91618160Y-75787523D01*
X91301741Y-75021730D01*
X90817058Y-74536200D01*
X94664422Y-74536200D01*
X100340800Y-80212578D01*
X100340800Y-81265400D01*
X100375602Y-81440363D01*
X100474711Y-81588689D01*
X100720022Y-81834000D01*
X94446711Y-88107311D01*
X94347602Y-88255637D01*
X94312800Y-88430600D01*
X94312800Y-89710000D01*
X94334229Y-89817732D01*
X94334229Y-90524229D01*
X92520000Y-90524229D01*
X92401073Y-90547885D01*
X92300252Y-90615252D01*
X92232885Y-90716073D01*
X92209229Y-90835000D01*
X92209229Y-91002800D01*
X90912779Y-91002800D01*
X90772689Y-90862711D01*
X90624363Y-90763602D01*
X90480771Y-90735040D01*
X90480771Y-90551000D01*
X90457115Y-90432073D01*
X90389748Y-90331252D01*
X90288927Y-90263885D01*
X90170000Y-90240229D01*
X87630000Y-90240229D01*
X87511073Y-90263885D01*
X87410252Y-90331252D01*
X87342885Y-90432073D01*
X87319229Y-90551000D01*
X87319229Y-91821000D01*
X87342885Y-91939927D01*
X87410252Y-92040748D01*
X87511073Y-92108115D01*
X87630000Y-92131771D01*
X90170000Y-92131771D01*
X90288927Y-92108115D01*
X90389748Y-92040748D01*
X90457115Y-91939927D01*
X90477929Y-91835286D01*
X90548437Y-91882398D01*
X90723400Y-91917200D01*
X92209229Y-91917200D01*
X92209229Y-92009040D01*
X92065637Y-92037602D01*
X91917311Y-92136711D01*
X91818202Y-92285037D01*
X91783400Y-92460000D01*
X91783400Y-92758621D01*
X90480771Y-94061251D01*
X90480771Y-93599000D01*
X90457115Y-93480073D01*
X90389748Y-93379252D01*
X90288927Y-93311885D01*
X90170000Y-93288229D01*
X87630000Y-93288229D01*
X87511073Y-93311885D01*
X87410252Y-93379252D01*
X87342885Y-93480073D01*
X87319229Y-93599000D01*
X87319229Y-94869000D01*
X87342885Y-94987927D01*
X87410252Y-95088748D01*
X87511073Y-95156115D01*
X87630000Y-95179771D01*
X88449040Y-95179771D01*
X88477602Y-95323363D01*
X88576711Y-95471689D01*
X88725037Y-95570798D01*
X88900000Y-95605600D01*
X89850822Y-95605600D01*
X95427800Y-101182579D01*
X95427800Y-105165291D01*
X95413572Y-105168121D01*
X95013915Y-105435163D01*
X94746873Y-105834820D01*
X94653100Y-106306248D01*
X94653100Y-107053752D01*
X94746873Y-107525180D01*
X95013915Y-107924837D01*
X95413572Y-108191879D01*
X95885000Y-108285652D01*
X96356428Y-108191879D01*
X96756085Y-107924837D01*
X97023127Y-107525180D01*
X97116900Y-107053752D01*
X97116900Y-106306248D01*
X97193100Y-106306248D01*
X97193100Y-107053752D01*
X97286873Y-107525180D01*
X97553915Y-107924837D01*
X97953572Y-108191879D01*
X98425000Y-108285652D01*
X98896428Y-108191879D01*
X99296085Y-107924837D01*
X99563127Y-107525180D01*
X99656900Y-107053752D01*
X99656900Y-106306248D01*
X99733100Y-106306248D01*
X99733100Y-107053752D01*
X99826873Y-107525180D01*
X100093915Y-107924837D01*
X100493572Y-108191879D01*
X100965000Y-108285652D01*
X101436428Y-108191879D01*
X101836085Y-107924837D01*
X102103127Y-107525180D01*
X102196900Y-107053752D01*
X102196900Y-106306248D01*
X102273100Y-106306248D01*
X102273100Y-107053752D01*
X102366873Y-107525180D01*
X102633915Y-107924837D01*
X103033572Y-108191879D01*
X103505000Y-108285652D01*
X103976428Y-108191879D01*
X104376085Y-107924837D01*
X104643127Y-107525180D01*
X104736900Y-107053752D01*
X104736900Y-106306248D01*
X104813100Y-106306248D01*
X104813100Y-107053752D01*
X104906873Y-107525180D01*
X105173915Y-107924837D01*
X105573572Y-108191879D01*
X106045000Y-108285652D01*
X106516428Y-108191879D01*
X106916085Y-107924837D01*
X107183127Y-107525180D01*
X107276900Y-107053752D01*
X107276900Y-106306248D01*
X107353100Y-106306248D01*
X107353100Y-107053752D01*
X107446873Y-107525180D01*
X107713915Y-107924837D01*
X108113572Y-108191879D01*
X108585000Y-108285652D01*
X109056428Y-108191879D01*
X109456085Y-107924837D01*
X109723127Y-107525180D01*
X109816900Y-107053752D01*
X109816900Y-106306248D01*
X109893100Y-106306248D01*
X109893100Y-107053752D01*
X109986873Y-107525180D01*
X110253915Y-107924837D01*
X110653572Y-108191879D01*
X111125000Y-108285652D01*
X111596428Y-108191879D01*
X111996085Y-107924837D01*
X112263127Y-107525180D01*
X112356900Y-107053752D01*
X112356900Y-106306248D01*
X112433100Y-106306248D01*
X112433100Y-107053752D01*
X112526873Y-107525180D01*
X112793915Y-107924837D01*
X113193572Y-108191879D01*
X113665000Y-108285652D01*
X114136428Y-108191879D01*
X114536085Y-107924837D01*
X114803127Y-107525180D01*
X114896900Y-107053752D01*
X114896900Y-106306248D01*
X114973100Y-106306248D01*
X114973100Y-107053752D01*
X115066873Y-107525180D01*
X115333915Y-107924837D01*
X115733572Y-108191879D01*
X116205000Y-108285652D01*
X116676428Y-108191879D01*
X117076085Y-107924837D01*
X117343127Y-107525180D01*
X117436900Y-107053752D01*
X117436900Y-106306248D01*
X117513100Y-106306248D01*
X117513100Y-107053752D01*
X117606873Y-107525180D01*
X117873915Y-107924837D01*
X118273572Y-108191879D01*
X118745000Y-108285652D01*
X119216428Y-108191879D01*
X119616085Y-107924837D01*
X119883127Y-107525180D01*
X119976900Y-107053752D01*
X119976900Y-106306248D01*
X120053100Y-106306248D01*
X120053100Y-107053752D01*
X120146873Y-107525180D01*
X120413915Y-107924837D01*
X120813572Y-108191879D01*
X121285000Y-108285652D01*
X121756428Y-108191879D01*
X122156085Y-107924837D01*
X122423127Y-107525180D01*
X122516900Y-107053752D01*
X122516900Y-106306248D01*
X122593100Y-106306248D01*
X122593100Y-107053752D01*
X122686873Y-107525180D01*
X122953915Y-107924837D01*
X123353572Y-108191879D01*
X123825000Y-108285652D01*
X124296428Y-108191879D01*
X124696085Y-107924837D01*
X124963127Y-107525180D01*
X125056900Y-107053752D01*
X125056900Y-106306248D01*
X125133100Y-106306248D01*
X125133100Y-107053752D01*
X125226873Y-107525180D01*
X125493915Y-107924837D01*
X125893572Y-108191879D01*
X126365000Y-108285652D01*
X126836428Y-108191879D01*
X127236085Y-107924837D01*
X127503127Y-107525180D01*
X127589197Y-107092477D01*
X128091840Y-107092477D01*
X128408259Y-107858270D01*
X128993648Y-108444682D01*
X129758888Y-108762437D01*
X130587477Y-108763160D01*
X131353270Y-108446741D01*
X131939682Y-107861352D01*
X132257437Y-107096112D01*
X132258160Y-106267523D01*
X131941741Y-105501730D01*
X131356352Y-104915318D01*
X130591112Y-104597563D01*
X129762523Y-104596840D01*
X128996730Y-104913259D01*
X128410318Y-105498648D01*
X128092563Y-106263888D01*
X128091840Y-107092477D01*
X127589197Y-107092477D01*
X127596900Y-107053752D01*
X127596900Y-106306248D01*
X127503127Y-105834820D01*
X127236085Y-105435163D01*
X126836428Y-105168121D01*
X126365000Y-105074348D01*
X125893572Y-105168121D01*
X125493915Y-105435163D01*
X125226873Y-105834820D01*
X125133100Y-106306248D01*
X125056900Y-106306248D01*
X124963127Y-105834820D01*
X124696085Y-105435163D01*
X124296428Y-105168121D01*
X123825000Y-105074348D01*
X123353572Y-105168121D01*
X122953915Y-105435163D01*
X122686873Y-105834820D01*
X122593100Y-106306248D01*
X122516900Y-106306248D01*
X122423127Y-105834820D01*
X122156085Y-105435163D01*
X121756428Y-105168121D01*
X121285000Y-105074348D01*
X120813572Y-105168121D01*
X120413915Y-105435163D01*
X120146873Y-105834820D01*
X120053100Y-106306248D01*
X119976900Y-106306248D01*
X119883127Y-105834820D01*
X119616085Y-105435163D01*
X119216428Y-105168121D01*
X118745000Y-105074348D01*
X118273572Y-105168121D01*
X117873915Y-105435163D01*
X117606873Y-105834820D01*
X117513100Y-106306248D01*
X117436900Y-106306248D01*
X117343127Y-105834820D01*
X117076085Y-105435163D01*
X116676428Y-105168121D01*
X116205000Y-105074348D01*
X115733572Y-105168121D01*
X115333915Y-105435163D01*
X115066873Y-105834820D01*
X114973100Y-106306248D01*
X114896900Y-106306248D01*
X114803127Y-105834820D01*
X114536085Y-105435163D01*
X114136428Y-105168121D01*
X113665000Y-105074348D01*
X113193572Y-105168121D01*
X112793915Y-105435163D01*
X112526873Y-105834820D01*
X112433100Y-106306248D01*
X112356900Y-106306248D01*
X112263127Y-105834820D01*
X111996085Y-105435163D01*
X111596428Y-105168121D01*
X111125000Y-105074348D01*
X110653572Y-105168121D01*
X110253915Y-105435163D01*
X109986873Y-105834820D01*
X109893100Y-106306248D01*
X109816900Y-106306248D01*
X109723127Y-105834820D01*
X109456085Y-105435163D01*
X109056428Y-105168121D01*
X108585000Y-105074348D01*
X108113572Y-105168121D01*
X107713915Y-105435163D01*
X107446873Y-105834820D01*
X107353100Y-106306248D01*
X107276900Y-106306248D01*
X107183127Y-105834820D01*
X106916085Y-105435163D01*
X106516428Y-105168121D01*
X106045000Y-105074348D01*
X105573572Y-105168121D01*
X105173915Y-105435163D01*
X104906873Y-105834820D01*
X104813100Y-106306248D01*
X104736900Y-106306248D01*
X104643127Y-105834820D01*
X104376085Y-105435163D01*
X103976428Y-105168121D01*
X103505000Y-105074348D01*
X103033572Y-105168121D01*
X102633915Y-105435163D01*
X102366873Y-105834820D01*
X102273100Y-106306248D01*
X102196900Y-106306248D01*
X102103127Y-105834820D01*
X101836085Y-105435163D01*
X101436428Y-105168121D01*
X100965000Y-105074348D01*
X100493572Y-105168121D01*
X100093915Y-105435163D01*
X99826873Y-105834820D01*
X99733100Y-106306248D01*
X99656900Y-106306248D01*
X99563127Y-105834820D01*
X99296085Y-105435163D01*
X98896428Y-105168121D01*
X98425000Y-105074348D01*
X97953572Y-105168121D01*
X97553915Y-105435163D01*
X97286873Y-105834820D01*
X97193100Y-106306248D01*
X97116900Y-106306248D01*
X97023127Y-105834820D01*
X96756085Y-105435163D01*
X96356428Y-105168121D01*
X96342200Y-105165291D01*
X96342200Y-100993200D01*
X96307398Y-100818237D01*
X96230666Y-100703400D01*
X96208289Y-100669910D01*
X90686778Y-95148400D01*
X92216023Y-93619156D01*
X92232885Y-93703927D01*
X92236943Y-93710000D01*
X92232885Y-93716073D01*
X92209229Y-93835000D01*
X92209229Y-94085000D01*
X92232885Y-94203927D01*
X92236943Y-94210000D01*
X92232885Y-94216073D01*
X92209229Y-94335000D01*
X92209229Y-94585000D01*
X92232885Y-94703927D01*
X92300252Y-94804748D01*
X92401073Y-94872115D01*
X92520000Y-94895771D01*
X93062800Y-94895771D01*
X93062800Y-96991000D01*
X93097602Y-97165963D01*
X93196711Y-97314289D01*
X99801210Y-103918789D01*
X99949537Y-104017898D01*
X100124500Y-104052700D01*
X138237900Y-104052700D01*
X138412863Y-104017898D01*
X138561189Y-103918789D01*
X139388289Y-103091689D01*
X139487398Y-102943363D01*
X139522200Y-102768400D01*
X139522200Y-102738685D01*
X139570448Y-102729088D01*
X139998947Y-102442775D01*
X140285260Y-102014276D01*
X140385800Y-101508828D01*
X140385800Y-100421172D01*
X140285260Y-99915724D01*
X139998947Y-99487225D01*
X139570448Y-99200912D01*
X139065000Y-99100372D01*
X138559552Y-99200912D01*
X138131053Y-99487225D01*
X137844740Y-99915724D01*
X137795000Y-100165784D01*
X137745260Y-99915724D01*
X137458947Y-99487225D01*
X137030448Y-99200912D01*
X136525000Y-99100372D01*
X136019552Y-99200912D01*
X135591053Y-99487225D01*
X135304740Y-99915724D01*
X135255000Y-100165784D01*
X135205260Y-99915724D01*
X134918947Y-99487225D01*
X134490448Y-99200912D01*
X133985000Y-99100372D01*
X133479552Y-99200912D01*
X133051053Y-99487225D01*
X132764740Y-99915724D01*
X132715000Y-100165784D01*
X132665260Y-99915724D01*
X132378947Y-99487225D01*
X132011484Y-99241695D01*
X137857379Y-93395800D01*
X148305667Y-93395800D01*
X148464211Y-94192853D01*
X148915705Y-94868562D01*
X149591414Y-95320056D01*
X150388467Y-95478600D01*
X152023933Y-95478600D01*
X152820986Y-95320056D01*
X153496695Y-94868562D01*
X153948189Y-94192853D01*
X154106733Y-93395800D01*
X153948189Y-92598747D01*
X153496695Y-91923038D01*
X152820986Y-91471544D01*
X152023933Y-91313000D01*
X150388467Y-91313000D01*
X149591414Y-91471544D01*
X148915705Y-91923038D01*
X148464211Y-92598747D01*
X148305667Y-93395800D01*
X137857379Y-93395800D01*
X141602390Y-89650789D01*
X141701498Y-89502463D01*
X141736300Y-89327500D01*
X141736300Y-84783678D01*
X141969229Y-84550749D01*
X141969229Y-85415000D01*
X141992885Y-85533927D01*
X142060252Y-85634748D01*
X142161073Y-85702115D01*
X142280000Y-85725771D01*
X143205200Y-85725771D01*
X143205200Y-86258693D01*
X142568833Y-86683900D01*
X142062278Y-87442012D01*
X141884400Y-88336267D01*
X141884400Y-89463733D01*
X142062278Y-90357988D01*
X142568833Y-91116100D01*
X143326945Y-91622655D01*
X144221200Y-91800533D01*
X145115455Y-91622655D01*
X145873567Y-91116100D01*
X146380122Y-90357988D01*
X146558000Y-89463733D01*
X146558000Y-88900000D01*
X147066043Y-88900000D01*
X147224587Y-89697053D01*
X147676081Y-90372762D01*
X148351790Y-90824256D01*
X149148843Y-90982800D01*
X150266357Y-90982800D01*
X151063410Y-90824256D01*
X151739119Y-90372762D01*
X152190613Y-89697053D01*
X152194495Y-89677538D01*
X152492463Y-89976026D01*
X152959073Y-90169779D01*
X153464310Y-90170220D01*
X153931258Y-89977282D01*
X154288826Y-89620337D01*
X154482579Y-89153727D01*
X154483020Y-88648490D01*
X154290082Y-88181542D01*
X153933137Y-87823974D01*
X153466527Y-87630221D01*
X152961290Y-87629780D01*
X152494342Y-87822718D01*
X152194425Y-88122112D01*
X152190613Y-88102947D01*
X151739119Y-87427238D01*
X151063410Y-86975744D01*
X150266357Y-86817200D01*
X149148843Y-86817200D01*
X148351790Y-86975744D01*
X147676081Y-87427238D01*
X147224587Y-88102947D01*
X147066043Y-88900000D01*
X146558000Y-88900000D01*
X146558000Y-88336267D01*
X146380122Y-87442012D01*
X145873567Y-86683900D01*
X145115455Y-86177345D01*
X145084800Y-86171247D01*
X145084800Y-85725771D01*
X146010000Y-85725771D01*
X146128927Y-85702115D01*
X146229748Y-85634748D01*
X146297115Y-85533927D01*
X146320771Y-85415000D01*
X146320771Y-84404200D01*
X148305667Y-84404200D01*
X148464211Y-85201253D01*
X148915705Y-85876962D01*
X149591414Y-86328456D01*
X150388467Y-86487000D01*
X152023933Y-86487000D01*
X152820986Y-86328456D01*
X153496695Y-85876962D01*
X153948189Y-85201253D01*
X154106733Y-84404200D01*
X153948189Y-83607147D01*
X153496695Y-82931438D01*
X152820986Y-82479944D01*
X152023933Y-82321400D01*
X150388467Y-82321400D01*
X149591414Y-82479944D01*
X148915705Y-82931438D01*
X148464211Y-83607147D01*
X148305667Y-84404200D01*
X146320771Y-84404200D01*
X146320771Y-84071200D01*
X146429889Y-83998289D01*
X146660689Y-83767490D01*
X146759798Y-83619163D01*
X146762188Y-83607147D01*
X146794600Y-83444200D01*
X146794600Y-78298400D01*
X146759798Y-78123437D01*
X146660690Y-77975111D01*
X145948089Y-77262511D01*
X145799763Y-77163402D01*
X145624800Y-77128600D01*
X130932579Y-77128600D01*
X126502316Y-72698338D01*
X126836428Y-72631879D01*
X127236085Y-72364837D01*
X127503127Y-71965180D01*
X127589197Y-71532477D01*
X128091840Y-71532477D01*
X128408259Y-72298270D01*
X128993648Y-72884682D01*
X129758888Y-73202437D01*
X130587477Y-73203160D01*
X131353270Y-72886741D01*
X131939682Y-72301352D01*
X132257437Y-71536112D01*
X132258160Y-70707523D01*
X131941741Y-69941730D01*
X131356352Y-69355318D01*
X130591112Y-69037563D01*
X129762523Y-69036840D01*
X128996730Y-69353259D01*
X128410318Y-69938648D01*
X128092563Y-70703888D01*
X128091840Y-71532477D01*
X127589197Y-71532477D01*
X127596900Y-71493752D01*
X127596900Y-70746248D01*
X127503127Y-70274820D01*
X127236085Y-69875163D01*
X126836428Y-69608121D01*
X126365000Y-69514348D01*
X125893572Y-69608121D01*
X125493915Y-69875163D01*
X125226873Y-70274820D01*
X125145200Y-70685416D01*
X125040664Y-70664623D01*
X124963127Y-70274820D01*
X124696085Y-69875163D01*
X124296428Y-69608121D01*
X123825000Y-69514348D01*
X123353572Y-69608121D01*
X122953915Y-69875163D01*
X122686873Y-70274820D01*
X122593100Y-70746248D01*
X122593100Y-71493752D01*
X122686873Y-71965180D01*
X122953915Y-72364837D01*
X123353572Y-72631879D01*
X123825000Y-72725652D01*
X124296428Y-72631879D01*
X124696085Y-72364837D01*
X124768012Y-72257190D01*
X130419911Y-77909090D01*
X130518719Y-77975111D01*
X130568237Y-78008198D01*
X130743200Y-78043000D01*
X141754895Y-78043000D01*
X141728206Y-78069689D01*
X141635400Y-78293743D01*
X141635400Y-80590200D01*
X141787800Y-80742600D01*
X143992600Y-80742600D01*
X143992600Y-80722600D01*
X144297400Y-80722600D01*
X144297400Y-80742600D01*
X144317400Y-80742600D01*
X144317400Y-81047400D01*
X144297400Y-81047400D01*
X144297400Y-81067400D01*
X143992600Y-81067400D01*
X143992600Y-81047400D01*
X141787800Y-81047400D01*
X141635400Y-81199800D01*
X141635400Y-83496257D01*
X141663273Y-83563548D01*
X140955811Y-84271011D01*
X140856702Y-84419337D01*
X140821900Y-84594300D01*
X140821900Y-89138121D01*
X131121711Y-98838311D01*
X131022602Y-98986637D01*
X130987800Y-99161600D01*
X130987800Y-99191315D01*
X130939552Y-99200912D01*
X130511053Y-99487225D01*
X130224740Y-99915724D01*
X130175000Y-100165784D01*
X130125260Y-99915724D01*
X129838947Y-99487225D01*
X129410448Y-99200912D01*
X128905000Y-99100372D01*
X128399552Y-99200912D01*
X127971053Y-99487225D01*
X127684740Y-99915724D01*
X127635000Y-100165784D01*
X127585260Y-99915724D01*
X127298947Y-99487225D01*
X126870448Y-99200912D01*
X126822200Y-99191315D01*
X126822200Y-99161600D01*
X126787398Y-98986637D01*
X126688289Y-98838311D01*
X124008889Y-96158911D01*
X123860563Y-96059802D01*
X123685600Y-96025000D01*
X110342921Y-96025000D01*
X110407115Y-95928927D01*
X110430771Y-95810000D01*
X110430771Y-95267200D01*
X111777017Y-95267200D01*
X111792311Y-95290089D01*
X111948911Y-95446689D01*
X112097237Y-95545798D01*
X112272200Y-95580600D01*
X131470000Y-95580600D01*
X131644963Y-95545798D01*
X131793289Y-95446689D01*
X136848290Y-90391689D01*
X136947398Y-90243363D01*
X136982200Y-90068400D01*
X136982200Y-90038685D01*
X137030448Y-90029088D01*
X137458947Y-89742775D01*
X137745260Y-89314276D01*
X137795000Y-89064216D01*
X137844740Y-89314276D01*
X138131053Y-89742775D01*
X138559552Y-90029088D01*
X139065000Y-90129628D01*
X139570448Y-90029088D01*
X139998947Y-89742775D01*
X140285260Y-89314276D01*
X140385800Y-88808828D01*
X140385800Y-87721172D01*
X140285260Y-87215724D01*
X139998947Y-86787225D01*
X139570448Y-86500912D01*
X139065000Y-86400372D01*
X138559552Y-86500912D01*
X138131053Y-86787225D01*
X137844740Y-87215724D01*
X137795000Y-87465784D01*
X137745260Y-87215724D01*
X137458947Y-86787225D01*
X137030448Y-86500912D01*
X136525000Y-86400372D01*
X136019552Y-86500912D01*
X135591053Y-86787225D01*
X135304740Y-87215724D01*
X135255000Y-87465784D01*
X135205260Y-87215724D01*
X134918947Y-86787225D01*
X134490448Y-86500912D01*
X133985000Y-86400372D01*
X133479552Y-86500912D01*
X133051053Y-86787225D01*
X132764740Y-87215724D01*
X132715000Y-87465784D01*
X132665260Y-87215724D01*
X132466175Y-86917771D01*
X132820646Y-86847262D01*
X133125539Y-86643539D01*
X137549492Y-82219586D01*
X138106873Y-82220073D01*
X138685887Y-81980829D01*
X139129272Y-81538217D01*
X139369526Y-80959621D01*
X139370073Y-80333127D01*
X139130829Y-79754113D01*
X138688217Y-79310728D01*
X138109621Y-79070474D01*
X137483127Y-79069927D01*
X136904113Y-79309171D01*
X136460728Y-79751783D01*
X136220474Y-80330379D01*
X136219985Y-80890937D01*
X132071722Y-85039200D01*
X131445000Y-85039200D01*
X131085354Y-85110738D01*
X130780461Y-85314461D01*
X130576738Y-85619354D01*
X130505200Y-85979000D01*
X130505200Y-86795985D01*
X130224740Y-87215724D01*
X130175000Y-87465784D01*
X130125260Y-87215724D01*
X129844800Y-86795985D01*
X129844800Y-81915000D01*
X129773262Y-81555354D01*
X129569539Y-81250461D01*
X129275951Y-80956873D01*
X131139927Y-80956873D01*
X131379171Y-81535887D01*
X131821783Y-81979272D01*
X132400379Y-82219526D01*
X133026873Y-82220073D01*
X133605887Y-81980829D01*
X134049272Y-81538217D01*
X134289526Y-80959621D01*
X134290073Y-80333127D01*
X134050829Y-79754113D01*
X133608217Y-79310728D01*
X133029621Y-79070474D01*
X132403127Y-79069927D01*
X131824113Y-79309171D01*
X131380728Y-79751783D01*
X131140474Y-80330379D01*
X131139927Y-80956873D01*
X129275951Y-80956873D01*
X129209586Y-80890508D01*
X129210073Y-80333127D01*
X128970829Y-79754113D01*
X128528217Y-79310728D01*
X127949621Y-79070474D01*
X127323127Y-79069927D01*
X126744113Y-79309171D01*
X126300728Y-79751783D01*
X126060474Y-80330379D01*
X126059927Y-80956873D01*
X126299171Y-81535887D01*
X126741783Y-81979272D01*
X127320379Y-82219526D01*
X127880937Y-82220015D01*
X127965200Y-82304278D01*
X127965200Y-86795985D01*
X127684740Y-87215724D01*
X127635000Y-87465784D01*
X127585260Y-87215724D01*
X127304800Y-86795985D01*
X127304800Y-84455000D01*
X127233262Y-84095354D01*
X127029539Y-83790461D01*
X124129586Y-80890508D01*
X124130073Y-80333127D01*
X123890829Y-79754113D01*
X123448217Y-79310728D01*
X122869621Y-79070474D01*
X122243127Y-79069927D01*
X121664113Y-79309171D01*
X121220728Y-79751783D01*
X120980474Y-80330379D01*
X120979927Y-80956873D01*
X121219171Y-81535887D01*
X121661783Y-81979272D01*
X122240379Y-82219526D01*
X122800937Y-82220015D01*
X125425200Y-84844278D01*
X125425200Y-86795985D01*
X125144740Y-87215724D01*
X125095000Y-87465784D01*
X125045260Y-87215724D01*
X124758947Y-86787225D01*
X124330448Y-86500912D01*
X123825000Y-86400372D01*
X123319552Y-86500912D01*
X122891053Y-86787225D01*
X122736030Y-87019234D01*
X122728538Y-86994111D01*
X122326710Y-86499764D01*
X121766291Y-86196820D01*
X121688703Y-86182326D01*
X121437400Y-86291704D01*
X121437400Y-88112600D01*
X121457400Y-88112600D01*
X121457400Y-88417400D01*
X121437400Y-88417400D01*
X121437400Y-90238296D01*
X121688703Y-90347674D01*
X121766291Y-90333180D01*
X122326710Y-90030236D01*
X122728538Y-89535889D01*
X122736030Y-89510766D01*
X122891053Y-89742775D01*
X123319552Y-90029088D01*
X123367800Y-90038685D01*
X123367800Y-90906600D01*
X123402602Y-91081563D01*
X123435572Y-91130905D01*
X123325073Y-91152885D01*
X123224252Y-91220252D01*
X123156885Y-91321073D01*
X123133229Y-91440000D01*
X123133229Y-92234492D01*
X122275600Y-93092122D01*
X122275600Y-93014800D01*
X122123200Y-92862400D01*
X121183400Y-92862400D01*
X121183400Y-92882400D01*
X120878600Y-92882400D01*
X120878600Y-92862400D01*
X119938800Y-92862400D01*
X119786400Y-93014800D01*
X119786400Y-93777200D01*
X115671600Y-93777200D01*
X115671600Y-91318743D01*
X119786400Y-91318743D01*
X119786400Y-92405200D01*
X119938800Y-92557600D01*
X120878600Y-92557600D01*
X120878600Y-90982800D01*
X121183400Y-90982800D01*
X121183400Y-92557600D01*
X122123200Y-92557600D01*
X122275600Y-92405200D01*
X122275600Y-91318743D01*
X122182794Y-91094689D01*
X122011311Y-90923206D01*
X121787257Y-90830400D01*
X121335800Y-90830400D01*
X121183400Y-90982800D01*
X120878600Y-90982800D01*
X120726200Y-90830400D01*
X120274743Y-90830400D01*
X120050689Y-90923206D01*
X119879206Y-91094689D01*
X119786400Y-91318743D01*
X115671600Y-91318743D01*
X115671600Y-88417400D01*
X119659400Y-88417400D01*
X119659400Y-88925400D01*
X119841462Y-89535889D01*
X120243290Y-90030236D01*
X120803709Y-90333180D01*
X120881297Y-90347674D01*
X121132600Y-90238296D01*
X121132600Y-88417400D01*
X119659400Y-88417400D01*
X115671600Y-88417400D01*
X115671600Y-87604600D01*
X119659400Y-87604600D01*
X119659400Y-88112600D01*
X121132600Y-88112600D01*
X121132600Y-86291704D01*
X120881297Y-86182326D01*
X120803709Y-86196820D01*
X120243290Y-86499764D01*
X119841462Y-86994111D01*
X119659400Y-87604600D01*
X115671600Y-87604600D01*
X115671600Y-82194400D01*
X115636798Y-82019437D01*
X115629799Y-82008963D01*
X115537689Y-81871110D01*
X114983065Y-81316486D01*
X115139543Y-80939643D01*
X115140055Y-80352931D01*
X114916004Y-79810684D01*
X114501498Y-79395454D01*
X113959643Y-79170457D01*
X113372931Y-79169945D01*
X112830684Y-79393996D01*
X112415454Y-79808502D01*
X112190457Y-80350357D01*
X112189945Y-80937069D01*
X112413996Y-81479316D01*
X112828502Y-81894546D01*
X113370357Y-82119543D01*
X113957069Y-82120055D01*
X114336641Y-81963220D01*
X114757200Y-82383779D01*
X114757200Y-90240229D01*
X112395000Y-90240229D01*
X112276073Y-90263885D01*
X112175252Y-90331252D01*
X112107885Y-90432073D01*
X112091355Y-90515177D01*
X111862889Y-90286711D01*
X111714563Y-90187602D01*
X111539600Y-90152800D01*
X110430771Y-90152800D01*
X110430771Y-89610000D01*
X110407115Y-89491073D01*
X110339748Y-89390252D01*
X110238927Y-89322885D01*
X110120000Y-89299229D01*
X109670960Y-89299229D01*
X109642398Y-89155637D01*
X109543289Y-89007311D01*
X109394963Y-88908202D01*
X109257423Y-88880844D01*
X108407200Y-88030622D01*
X108407200Y-87202137D01*
X108424980Y-87190257D01*
X108501633Y-87241475D01*
X108620560Y-87265131D01*
X109179360Y-87265131D01*
X109298287Y-87241475D01*
X109399108Y-87174108D01*
X109466475Y-87073287D01*
X109490131Y-86954360D01*
X109490131Y-85623400D01*
X109466475Y-85504473D01*
X109399108Y-85403652D01*
X109357200Y-85375650D01*
X109357200Y-85344000D01*
X109322398Y-85169037D01*
X109223289Y-85020711D01*
X109069949Y-84867371D01*
X109179360Y-84867371D01*
X109298287Y-84843715D01*
X109399108Y-84776348D01*
X109466475Y-84675527D01*
X109490131Y-84556600D01*
X109490131Y-83225640D01*
X109466475Y-83106713D01*
X109434267Y-83058511D01*
X110178289Y-82314489D01*
X110277398Y-82166163D01*
X110299061Y-82057253D01*
X110689316Y-81896004D01*
X111104546Y-81481498D01*
X111329543Y-80939643D01*
X111330055Y-80352931D01*
X111106004Y-79810684D01*
X110691498Y-79395454D01*
X110149643Y-79170457D01*
X109562931Y-79169945D01*
X109020684Y-79393996D01*
X108605454Y-79808502D01*
X108380457Y-80350357D01*
X108379945Y-80937069D01*
X108603996Y-81479316D01*
X109018502Y-81894546D01*
X109220994Y-81978628D01*
X108576711Y-82622911D01*
X108477602Y-82771237D01*
X108442800Y-82946200D01*
X108442800Y-82977836D01*
X108424980Y-82989743D01*
X108407200Y-82977863D01*
X108407200Y-82550000D01*
X108372398Y-82375037D01*
X108273289Y-82226711D01*
X107363065Y-81316487D01*
X107519543Y-80939643D01*
X107520055Y-80352931D01*
X107296004Y-79810684D01*
X106881498Y-79395454D01*
X106339643Y-79170457D01*
X105752931Y-79169945D01*
X105373359Y-79326781D01*
X104933589Y-78887011D01*
X104785263Y-78787902D01*
X104610300Y-78753100D01*
X101610900Y-78753100D01*
X101435937Y-78787902D01*
X101287611Y-78887011D01*
X100798000Y-79376622D01*
X95177089Y-73755711D01*
X95028763Y-73656602D01*
X94853800Y-73621800D01*
X88091878Y-73621800D01*
X87540700Y-73070622D01*
X87540700Y-72999600D01*
X87960200Y-72999600D01*
X88112600Y-72847200D01*
X88112600Y-71272400D01*
X88092600Y-71272400D01*
X88092600Y-70967600D01*
X88112600Y-70967600D01*
X88112600Y-70947600D01*
X88417400Y-70947600D01*
X88417400Y-70967600D01*
X88437400Y-70967600D01*
X88437400Y-71272400D01*
X88417400Y-71272400D01*
X88417400Y-72847200D01*
X88569800Y-72999600D01*
X89313357Y-72999600D01*
X89537411Y-72906794D01*
X89708894Y-72735311D01*
X89801700Y-72511257D01*
X89801700Y-72166963D01*
X89933915Y-72364837D01*
X90333572Y-72631879D01*
X90805000Y-72725652D01*
X91276428Y-72631879D01*
X91676085Y-72364837D01*
X91943127Y-71965180D01*
X92036900Y-71493752D01*
X92036900Y-70746248D01*
X92113100Y-70746248D01*
X92113100Y-71493752D01*
X92206873Y-71965180D01*
X92473915Y-72364837D01*
X92873572Y-72631879D01*
X93345000Y-72725652D01*
X93816428Y-72631879D01*
X94216085Y-72364837D01*
X94483127Y-71965180D01*
X94576900Y-71493752D01*
X94576900Y-70746248D01*
X94653100Y-70746248D01*
X94653100Y-71493752D01*
X94746873Y-71965180D01*
X95013915Y-72364837D01*
X95413572Y-72631879D01*
X95885000Y-72725652D01*
X96356428Y-72631879D01*
X96756085Y-72364837D01*
X97023127Y-71965180D01*
X97116900Y-71493752D01*
X97116900Y-70746248D01*
X97193100Y-70746248D01*
X97193100Y-71493752D01*
X97286873Y-71965180D01*
X97553915Y-72364837D01*
X97953572Y-72631879D01*
X98425000Y-72725652D01*
X98896428Y-72631879D01*
X99296085Y-72364837D01*
X99563127Y-71965180D01*
X99656900Y-71493752D01*
X99656900Y-70746248D01*
X99733100Y-70746248D01*
X99733100Y-71493752D01*
X99826873Y-71965180D01*
X100093915Y-72364837D01*
X100493572Y-72631879D01*
X100965000Y-72725652D01*
X101436428Y-72631879D01*
X101836085Y-72364837D01*
X102103127Y-71965180D01*
X102196900Y-71493752D01*
X102196900Y-70746248D01*
X102273100Y-70746248D01*
X102273100Y-71493752D01*
X102366873Y-71965180D01*
X102633915Y-72364837D01*
X103033572Y-72631879D01*
X103505000Y-72725652D01*
X103976428Y-72631879D01*
X104376085Y-72364837D01*
X104643127Y-71965180D01*
X104736900Y-71493752D01*
X104736900Y-70746248D01*
X104813100Y-70746248D01*
X104813100Y-71493752D01*
X104906873Y-71965180D01*
X105173915Y-72364837D01*
X105573572Y-72631879D01*
X106045000Y-72725652D01*
X106516428Y-72631879D01*
X106916085Y-72364837D01*
X107183127Y-71965180D01*
X107276900Y-71493752D01*
X107276900Y-70746248D01*
X107353100Y-70746248D01*
X107353100Y-71493752D01*
X107446873Y-71965180D01*
X107713915Y-72364837D01*
X108113572Y-72631879D01*
X108585000Y-72725652D01*
X109056428Y-72631879D01*
X109456085Y-72364837D01*
X109723127Y-71965180D01*
X109816900Y-71493752D01*
X109816900Y-70746248D01*
X109893100Y-70746248D01*
X109893100Y-71493752D01*
X109986873Y-71965180D01*
X110253915Y-72364837D01*
X110653572Y-72631879D01*
X111125000Y-72725652D01*
X111596428Y-72631879D01*
X111996085Y-72364837D01*
X112263127Y-71965180D01*
X112356900Y-71493752D01*
X112356900Y-70746248D01*
X112433100Y-70746248D01*
X112433100Y-71493752D01*
X112526873Y-71965180D01*
X112793915Y-72364837D01*
X113193572Y-72631879D01*
X113665000Y-72725652D01*
X114136428Y-72631879D01*
X114536085Y-72364837D01*
X114803127Y-71965180D01*
X114896900Y-71493752D01*
X114896900Y-70746248D01*
X114973100Y-70746248D01*
X114973100Y-71493752D01*
X115066873Y-71965180D01*
X115333915Y-72364837D01*
X115733572Y-72631879D01*
X116205000Y-72725652D01*
X116676428Y-72631879D01*
X117076085Y-72364837D01*
X117343127Y-71965180D01*
X117436900Y-71493752D01*
X117436900Y-70746248D01*
X117513100Y-70746248D01*
X117513100Y-71493752D01*
X117606873Y-71965180D01*
X117873915Y-72364837D01*
X118273572Y-72631879D01*
X118745000Y-72725652D01*
X119216428Y-72631879D01*
X119616085Y-72364837D01*
X119883127Y-71965180D01*
X119976900Y-71493752D01*
X119976900Y-70746248D01*
X120053100Y-70746248D01*
X120053100Y-71493752D01*
X120146873Y-71965180D01*
X120413915Y-72364837D01*
X120813572Y-72631879D01*
X121285000Y-72725652D01*
X121756428Y-72631879D01*
X122156085Y-72364837D01*
X122423127Y-71965180D01*
X122516900Y-71493752D01*
X122516900Y-70746248D01*
X122423127Y-70274820D01*
X122156085Y-69875163D01*
X121756428Y-69608121D01*
X121285000Y-69514348D01*
X120813572Y-69608121D01*
X120413915Y-69875163D01*
X120146873Y-70274820D01*
X120053100Y-70746248D01*
X119976900Y-70746248D01*
X119883127Y-70274820D01*
X119616085Y-69875163D01*
X119216428Y-69608121D01*
X118745000Y-69514348D01*
X118273572Y-69608121D01*
X117873915Y-69875163D01*
X117606873Y-70274820D01*
X117513100Y-70746248D01*
X117436900Y-70746248D01*
X117343127Y-70274820D01*
X117076085Y-69875163D01*
X116676428Y-69608121D01*
X116205000Y-69514348D01*
X115733572Y-69608121D01*
X115333915Y-69875163D01*
X115066873Y-70274820D01*
X114973100Y-70746248D01*
X114896900Y-70746248D01*
X114803127Y-70274820D01*
X114536085Y-69875163D01*
X114136428Y-69608121D01*
X113665000Y-69514348D01*
X113193572Y-69608121D01*
X112793915Y-69875163D01*
X112526873Y-70274820D01*
X112433100Y-70746248D01*
X112356900Y-70746248D01*
X112263127Y-70274820D01*
X111996085Y-69875163D01*
X111596428Y-69608121D01*
X111125000Y-69514348D01*
X110653572Y-69608121D01*
X110253915Y-69875163D01*
X109986873Y-70274820D01*
X109893100Y-70746248D01*
X109816900Y-70746248D01*
X109723127Y-70274820D01*
X109456085Y-69875163D01*
X109056428Y-69608121D01*
X108585000Y-69514348D01*
X108113572Y-69608121D01*
X107713915Y-69875163D01*
X107446873Y-70274820D01*
X107353100Y-70746248D01*
X107276900Y-70746248D01*
X107183127Y-70274820D01*
X106916085Y-69875163D01*
X106516428Y-69608121D01*
X106045000Y-69514348D01*
X105573572Y-69608121D01*
X105173915Y-69875163D01*
X104906873Y-70274820D01*
X104813100Y-70746248D01*
X104736900Y-70746248D01*
X104643127Y-70274820D01*
X104376085Y-69875163D01*
X103976428Y-69608121D01*
X103505000Y-69514348D01*
X103033572Y-69608121D01*
X102633915Y-69875163D01*
X102366873Y-70274820D01*
X102273100Y-70746248D01*
X102196900Y-70746248D01*
X102103127Y-70274820D01*
X101836085Y-69875163D01*
X101436428Y-69608121D01*
X100965000Y-69514348D01*
X100493572Y-69608121D01*
X100093915Y-69875163D01*
X99826873Y-70274820D01*
X99733100Y-70746248D01*
X99656900Y-70746248D01*
X99563127Y-70274820D01*
X99296085Y-69875163D01*
X98896428Y-69608121D01*
X98425000Y-69514348D01*
X97953572Y-69608121D01*
X97553915Y-69875163D01*
X97286873Y-70274820D01*
X97193100Y-70746248D01*
X97116900Y-70746248D01*
X97023127Y-70274820D01*
X96756085Y-69875163D01*
X96356428Y-69608121D01*
X95885000Y-69514348D01*
X95413572Y-69608121D01*
X95013915Y-69875163D01*
X94746873Y-70274820D01*
X94653100Y-70746248D01*
X94576900Y-70746248D01*
X94483127Y-70274820D01*
X94216085Y-69875163D01*
X93816428Y-69608121D01*
X93345000Y-69514348D01*
X92873572Y-69608121D01*
X92473915Y-69875163D01*
X92206873Y-70274820D01*
X92113100Y-70746248D01*
X92036900Y-70746248D01*
X91943127Y-70274820D01*
X91676085Y-69875163D01*
X91276428Y-69608121D01*
X90805000Y-69514348D01*
X90333572Y-69608121D01*
X90049237Y-69798107D01*
X90020898Y-69655637D01*
X89921789Y-69507311D01*
X89686789Y-69272311D01*
X89538463Y-69173202D01*
X89363500Y-69138400D01*
X87218500Y-69138400D01*
X87043537Y-69173202D01*
X86895211Y-69272311D01*
X86760211Y-69407311D01*
X86661102Y-69555637D01*
X86626300Y-69730600D01*
X86144100Y-69730600D01*
X86144100Y-68364100D01*
X155790900Y-68364100D01*
X155790900Y-109435900D01*
M02*
